<?xml version="1.0" encoding="UTF-8" standalone="no"?>
<!DOCTYPE svg PUBLIC "-//W3C//DTD SVG 1.1//EN"
 "http://www.w3.org/Graphics/SVG/1.1/DTD/svg11.dtd">
<!-- Generated by graphviz version 2.43.0 (0)
 -->
<!-- Title: ARAttributeSetCore.h Pages: 1 -->
<svg width="1716pt" height="82pt"
 viewBox="0.00 0.00 1716.00 82.00" xmlns="http://www.w3.org/2000/svg" xmlns:xlink="http://www.w3.org/1999/xlink">
<g id="graph0" class="graph" transform="scale(1 1) rotate(0) translate(4 78)">
<title>ARAttributeSetCore.h</title>
<!-- Node1 -->
<g id="Node000001" class="node">
<title>Node1</title>
<g id="a_Node000001"><a xlink:title="ARAttributeSetCore header for Alien Ramen.">
<polygon fill="#999999" stroke="#666666" points="894.5,-74 774.5,-74 774.5,-55 894.5,-55 894.5,-74"/>
<text text-anchor="middle" x="834.5" y="-62" font-family="Helvetica,sans-Serif" font-size="10.00">ARAttributeSetCore.h</text>
</a>
</g>
</g>
<!-- Node2 -->
<g id="Node000002" class="node">
<title>Node2</title>
<g id="a_Node000002"><a xlink:href="ARAttributeSetCore_8cpp_source.html" target="_top" xlink:title=" ">
<polygon fill="white" stroke="#666666" points="131,-19 0,-19 0,0 131,0 131,-19"/>
<text text-anchor="middle" x="65.5" y="-7" font-family="Helvetica,sans-Serif" font-size="10.00">ARAttributeSetCore.cpp</text>
</a>
</g>
</g>
<!-- Node1&#45;&gt;Node2 -->
<g id="edge1_Node000001_Node000002" class="edge">
<title>Node1&#45;&gt;Node2</title>
<g id="a_edge1_Node000001_Node000002"><a xlink:title=" ">
<path fill="none" stroke="#63b8ff" d="M763.84,-60.11C638.26,-53.83 368.01,-39.17 140.5,-19 137.5,-18.73 134.43,-18.45 131.33,-18.14"/>
<polygon fill="#63b8ff" stroke="#63b8ff" points="763.92,-63.62 774.08,-60.62 764.27,-56.63 763.92,-63.62"/>
</a>
</g>
</g>
<!-- Node3 -->
<g id="Node000003" class="node">
<title>Node3</title>
<g id="a_Node000003"><a xlink:href="AREnemyBase_8cpp_source.html" target="_top" xlink:title=" ">
<polygon fill="white" stroke="#666666" points="257.5,-19 149.5,-19 149.5,0 257.5,0 257.5,-19"/>
<text text-anchor="middle" x="203.5" y="-7" font-family="Helvetica,sans-Serif" font-size="10.00">AREnemyBase.cpp</text>
</a>
</g>
</g>
<!-- Node1&#45;&gt;Node3 -->
<g id="edge2_Node000001_Node000003" class="edge">
<title>Node1&#45;&gt;Node3</title>
<g id="a_edge2_Node000001_Node000003"><a xlink:title=" ">
<path fill="none" stroke="#63b8ff" d="M764.22,-59.26C656.8,-52.5 445.39,-38.06 266.5,-19 263.65,-18.7 260.72,-18.37 257.77,-18.02"/>
<polygon fill="#63b8ff" stroke="#63b8ff" points="764.09,-62.76 774.29,-59.89 764.53,-55.77 764.09,-62.76"/>
</a>
</g>
</g>
<!-- Node4 -->
<g id="Node000004" class="node">
<title>Node4</title>
<g id="a_Node000004"><a xlink:href="AREnemyIncomingDamageEffect_8cpp_source.html" target="_top" xlink:title=" ">
<polygon fill="white" stroke="#666666" points="473.5,-19 275.5,-19 275.5,0 473.5,0 473.5,-19"/>
<text text-anchor="middle" x="374.5" y="-7" font-family="Helvetica,sans-Serif" font-size="10.00">AREnemyIncomingDamageEffect.cpp</text>
</a>
</g>
</g>
<!-- Node1&#45;&gt;Node4 -->
<g id="edge3_Node000001_Node000004" class="edge">
<title>Node1&#45;&gt;Node4</title>
<g id="a_edge3_Node000001_Node000004"><a xlink:title=" ">
<path fill="none" stroke="#63b8ff" d="M764.24,-55.41C678.83,-45.56 535.34,-29.03 448.34,-19.01"/>
<polygon fill="#63b8ff" stroke="#63b8ff" points="764.03,-58.9 774.36,-56.57 764.83,-51.95 764.03,-58.9"/>
</a>
</g>
</g>
<!-- Node5 -->
<g id="Node000005" class="node">
<title>Node5</title>
<g id="a_Node000005"><a xlink:href="ARInvaderDirectorSubsystem_8cpp_source.html" target="_top" xlink:title=" ">
<polygon fill="white" stroke="#666666" points="671.5,-19 491.5,-19 491.5,0 671.5,0 671.5,-19"/>
<text text-anchor="middle" x="581.5" y="-7" font-family="Helvetica,sans-Serif" font-size="10.00">ARInvaderDirectorSubsystem.cpp</text>
</a>
</g>
</g>
<!-- Node1&#45;&gt;Node5 -->
<g id="edge4_Node000001_Node000005" class="edge">
<title>Node1&#45;&gt;Node5</title>
<g id="a_edge4_Node000001_Node000005"><a xlink:title=" ">
<path fill="none" stroke="#63b8ff" d="M783.8,-52.88C736.38,-42.94 666.45,-28.3 622.47,-19.08"/>
<polygon fill="#63b8ff" stroke="#63b8ff" points="783.35,-56.36 793.85,-54.98 784.78,-49.51 783.35,-56.36"/>
</a>
</g>
</g>
<!-- Node6 -->
<g id="Node000006" class="node">
<title>Node6</title>
<g id="a_Node000006"><a xlink:href="ARInvaderDropBase_8cpp_source.html" target="_top" xlink:title=" ">
<polygon fill="white" stroke="#666666" points="823.5,-19 689.5,-19 689.5,0 823.5,0 823.5,-19"/>
<text text-anchor="middle" x="756.5" y="-7" font-family="Helvetica,sans-Serif" font-size="10.00">ARInvaderDropBase.cpp</text>
</a>
</g>
</g>
<!-- Node1&#45;&gt;Node6 -->
<g id="edge5_Node000001_Node000006" class="edge">
<title>Node1&#45;&gt;Node6</title>
<g id="a_edge5_Node000001_Node000006"><a xlink:title=" ">
<path fill="none" stroke="#63b8ff" d="M813.38,-49.15C799.29,-39.57 781.21,-27.29 769.26,-19.17"/>
<polygon fill="#63b8ff" stroke="#63b8ff" points="811.73,-52.26 821.97,-54.98 815.66,-46.47 811.73,-52.26"/>
</a>
</g>
</g>
<!-- Node7 -->
<g id="Node000007" class="node">
<title>Node7</title>
<g id="a_Node000007"><a xlink:href="ARInvaderGameState_8cpp_source.html" target="_top" xlink:title=" ">
<polygon fill="white" stroke="#666666" points="983.5,-19 841.5,-19 841.5,0 983.5,0 983.5,-19"/>
<text text-anchor="middle" x="912.5" y="-7" font-family="Helvetica,sans-Serif" font-size="10.00">ARInvaderGameState.cpp</text>
</a>
</g>
</g>
<!-- Node1&#45;&gt;Node7 -->
<g id="edge6_Node000001_Node000007" class="edge">
<title>Node1&#45;&gt;Node7</title>
<g id="a_edge6_Node000001_Node000007"><a xlink:title=" ">
<path fill="none" stroke="#63b8ff" d="M855.62,-49.15C869.71,-39.57 887.79,-27.29 899.74,-19.17"/>
<polygon fill="#63b8ff" stroke="#63b8ff" points="853.34,-46.47 847.03,-54.98 857.27,-52.26 853.34,-46.47"/>
</a>
</g>
</g>
<!-- Node8 -->
<g id="Node000008" class="node">
<title>Node8</title>
<g id="a_Node000008"><a xlink:href="ARPickupCollectorComponent_8cpp_source.html" target="_top" xlink:title=" ">
<polygon fill="white" stroke="#666666" points="1183.5,-19 1001.5,-19 1001.5,0 1183.5,0 1183.5,-19"/>
<text text-anchor="middle" x="1092.5" y="-7" font-family="Helvetica,sans-Serif" font-size="10.00">ARPickupCollectorComponent.cpp</text>
</a>
</g>
</g>
<!-- Node1&#45;&gt;Node8 -->
<g id="edge7_Node000001_Node000008" class="edge">
<title>Node1&#45;&gt;Node8</title>
<g id="a_edge7_Node000001_Node000008"><a xlink:title=" ">
<path fill="none" stroke="#63b8ff" d="M885.9,-52.94C934.26,-43.01 1005.78,-28.31 1050.72,-19.08"/>
<polygon fill="#63b8ff" stroke="#63b8ff" points="885.04,-49.54 875.95,-54.98 886.45,-56.4 885.04,-49.54"/>
</a>
</g>
</g>
<!-- Node9 -->
<g id="Node000009" class="node">
<title>Node9</title>
<g id="a_Node000009"><a xlink:href="ARPlayerCharacterInvader_8cpp_source.html" target="_top" xlink:title=" ">
<polygon fill="white" stroke="#666666" points="1365.5,-19 1201.5,-19 1201.5,0 1365.5,0 1365.5,-19"/>
<text text-anchor="middle" x="1283.5" y="-7" font-family="Helvetica,sans-Serif" font-size="10.00">ARPlayerCharacterInvader.cpp</text>
</a>
</g>
</g>
<!-- Node1&#45;&gt;Node9 -->
<g id="edge8_Node000001_Node000009" class="edge">
<title>Node1&#45;&gt;Node9</title>
<g id="a_edge8_Node000001_Node000009"><a xlink:title=" ">
<path fill="none" stroke="#63b8ff" d="M904.74,-55.21C988.2,-45.36 1126.76,-29 1211.15,-19.04"/>
<polygon fill="#63b8ff" stroke="#63b8ff" points="904.11,-51.76 894.59,-56.41 904.93,-58.71 904.11,-51.76"/>
</a>
</g>
</g>
<!-- Node10 -->
<g id="Node000010" class="node">
<title>Node10</title>
<g id="a_Node000010"><a xlink:href="ARPlayerStateBase_8cpp_source.html" target="_top" xlink:title=" ">
<polygon fill="white" stroke="#666666" points="1515,-19 1384,-19 1384,0 1515,0 1515,-19"/>
<text text-anchor="middle" x="1449.5" y="-7" font-family="Helvetica,sans-Serif" font-size="10.00">ARPlayerStateBase.cpp</text>
</a>
</g>
</g>
<!-- Node1&#45;&gt;Node10 -->
<g id="edge9_Node000001_Node000010" class="edge">
<title>Node1&#45;&gt;Node10</title>
<g id="a_edge9_Node000001_Node000010"><a xlink:title=" ">
<path fill="none" stroke="#63b8ff" d="M904.87,-58.39C1008,-50.75 1206.2,-35.47 1374.5,-19 1377.5,-18.71 1380.57,-18.4 1383.66,-18.08"/>
<polygon fill="#63b8ff" stroke="#63b8ff" points="904.6,-54.9 894.89,-59.13 905.12,-61.88 904.6,-54.9"/>
</a>
</g>
</g>
<!-- Node11 -->
<g id="Node000011" class="node">
<title>Node11</title>
<g id="a_Node000011"><a xlink:href="MMC__FireCooldownDuration_8cpp_source.html" target="_top" xlink:title=" ">
<polygon fill="white" stroke="#666666" points="1708,-19 1533,-19 1533,0 1708,0 1708,-19"/>
<text text-anchor="middle" x="1620.5" y="-7" font-family="Helvetica,sans-Serif" font-size="10.00">MMC_FireCooldownDuration.cpp</text>
</a>
</g>
</g>
<!-- Node1&#45;&gt;Node11 -->
<g id="edge10_Node000001_Node000011" class="edge">
<title>Node1&#45;&gt;Node11</title>
<g id="a_edge10_Node000001_Node000011"><a xlink:title=" ">
<path fill="none" stroke="#63b8ff" d="M904.7,-59.53C1029.48,-52.34 1298.07,-36.32 1524.5,-19 1527.25,-18.79 1530.05,-18.57 1532.87,-18.35"/>
<polygon fill="#63b8ff" stroke="#63b8ff" points="904.31,-56.05 894.53,-60.11 904.71,-63.03 904.31,-56.05"/>
</a>
</g>
</g>
</g>
</svg>
