<?xml version="1.0" encoding="UTF-8" standalone="no"?>
<!DOCTYPE svg PUBLIC "-//W3C//DTD SVG 1.1//EN"
 "http://www.w3.org/Graphics/SVG/1.1/DTD/svg11.dtd">
<!-- Generated by graphviz version 2.43.0 (0)
 -->
<!-- Title: ARDialogueAudioBridgeSubsystem.h Pages: 1 -->
<svg width="738pt" height="82pt"
 viewBox="0.00 0.00 738.00 82.00" xmlns="http://www.w3.org/2000/svg" xmlns:xlink="http://www.w3.org/1999/xlink">
<g id="graph0" class="graph" transform="scale(1 1) rotate(0) translate(4 78)">
<title>ARDialogueAudioBridgeSubsystem.h</title>
<!-- Node1 -->
<g id="Node000001" class="node">
<title>Node1</title>
<g id="a_Node000001"><a xlink:title="Local dialogue&#45;audio bridge for native and FMOD&#45;backed signal playback.">
<polygon fill="#999999" stroke="#666666" points="404,-74 208,-74 208,-55 404,-55 404,-74"/>
<text text-anchor="middle" x="306" y="-62" font-family="Helvetica,sans-Serif" font-size="10.00">ARDialogueAudioBridgeSubsystem.h</text>
</a>
</g>
</g>
<!-- Node2 -->
<g id="Node000002" class="node">
<title>Node2</title>
<g id="a_Node000002"><a xlink:title=" ">
<polygon fill="#e0e0e0" stroke="#999999" points="88,-19 0,-19 0,0 88,0 88,-19"/>
<text text-anchor="middle" x="44" y="-7" font-family="Helvetica,sans-Serif" font-size="10.00">CoreMinimal.h</text>
</a>
</g>
</g>
<!-- Node1&#45;&gt;Node2 -->
<g id="edge1_Node000001_Node000002" class="edge">
<title>Node1&#45;&gt;Node2</title>
<g id="a_edge1_Node000001_Node000002"><a xlink:title=" ">
<path fill="none" stroke="#63b8ff" d="M263.91,-54.98C218.3,-45.76 145.48,-31.03 96.25,-21.07"/>
<polygon fill="#63b8ff" stroke="#63b8ff" points="96.92,-17.63 86.42,-19.08 95.53,-24.5 96.92,-17.63"/>
</a>
</g>
</g>
<!-- Node3 -->
<g id="Node000003" class="node">
<title>Node3</title>
<g id="a_Node000003"><a xlink:title=" ">
<polygon fill="#e0e0e0" stroke="#999999" points="318,-19 106,-19 106,0 318,0 318,-19"/>
<text text-anchor="middle" x="212" y="-7" font-family="Helvetica,sans-Serif" font-size="10.00">Subsystems/GameInstanceSubsystem.h</text>
</a>
</g>
</g>
<!-- Node1&#45;&gt;Node3 -->
<g id="edge2_Node000001_Node000003" class="edge">
<title>Node1&#45;&gt;Node3</title>
<g id="a_edge2_Node000001_Node000003"><a xlink:title=" ">
<path fill="none" stroke="#63b8ff" d="M290.9,-54.98C276.18,-46.69 253.58,-33.94 236.33,-24.22"/>
<polygon fill="#63b8ff" stroke="#63b8ff" points="237.81,-21.03 227.38,-19.17 234.37,-27.13 237.81,-21.03"/>
</a>
</g>
</g>
<!-- Node4 -->
<g id="Node000004" class="node">
<title>Node4</title>
<g id="a_Node000004"><a xlink:title=" ">
<polygon fill="#e0e0e0" stroke="#999999" points="463.5,-19 336.5,-19 336.5,0 463.5,0 463.5,-19"/>
<text text-anchor="middle" x="400" y="-7" font-family="Helvetica,sans-Serif" font-size="10.00">ParleyDialogueTypes.h</text>
</a>
</g>
</g>
<!-- Node1&#45;&gt;Node4 -->
<g id="edge3_Node000001_Node000004" class="edge">
<title>Node1&#45;&gt;Node4</title>
<g id="a_edge3_Node000001_Node000004"><a xlink:title=" ">
<path fill="none" stroke="#63b8ff" d="M321.1,-54.98C335.82,-46.69 358.42,-33.94 375.67,-24.22"/>
<polygon fill="#63b8ff" stroke="#63b8ff" points="377.63,-27.13 384.62,-19.17 374.19,-21.03 377.63,-27.13"/>
</a>
</g>
</g>
<!-- Node5 -->
<g id="Node000005" class="node">
<title>Node5</title>
<g id="a_Node000005"><a xlink:title=" ">
<polygon fill="#e0e0e0" stroke="#999999" points="730,-19 482,-19 482,0 730,0 730,-19"/>
<text text-anchor="middle" x="606" y="-7" font-family="Helvetica,sans-Serif" font-size="10.00">ARDialogueAudioBridgeSubsystem.generated.h</text>
</a>
</g>
</g>
<!-- Node1&#45;&gt;Node5 -->
<g id="edge4_Node000001_Node000005" class="edge">
<title>Node1&#45;&gt;Node5</title>
<g id="a_edge4_Node000001_Node000005"><a xlink:title=" ">
<path fill="none" stroke="#63b8ff" d="M354.2,-54.98C406.75,-45.7 490.85,-30.84 547.23,-20.88"/>
<polygon fill="#63b8ff" stroke="#63b8ff" points="548.18,-24.27 557.42,-19.08 546.97,-17.38 548.18,-24.27"/>
</a>
</g>
</g>
</g>
</svg>
