<?xml version="1.0" encoding="UTF-8" standalone="no"?>
<!DOCTYPE svg PUBLIC "-//W3C//DTD SVG 1.1//EN"
 "http://www.w3.org/Graphics/SVG/1.1/DTD/svg11.dtd">
<!-- Generated by graphviz version 2.43.0 (0)
 -->
<!-- Title: ARDialogueTypes.h Pages: 1 -->
<!--zoomable 192 -->

<svg id="main" version="1.1" xmlns="http://www.w3.org/2000/svg" xmlns:xlink="http://www.w3.org/1999/xlink" xml:space="preserve" onload="init(evt)">
<style type="text/css"><![CDATA[
.node, .edge {opacity: 0.7;}
.node.selected, .edge.selected {opacity: 1;}
.edge:hover path { stroke: red; }
.edge:hover polygon { stroke: red; fill: red; }
]]></style>

<defs>
  <circle id="rim" cx="0" cy="0" r="7"/>
  <circle id="rim2" cx="0" cy="0" r="3.5"/>
  <g id="zoomPlus">
    <use xlink:href="#rim" fill="#404040"><set attributeName="fill" to="#808080" begin="zoomplus.mouseover" end="zoomplus.mouseout"/></use>
    <path d="M-4,0h8M0,-4v8" fill="none" stroke="white" stroke-width="1.5" pointer-events="none"/>
  </g>
  <g id="zoomMin">
    <use xlink:href="#rim" fill="#404040"><set attributeName="fill" to="#808080" begin="zoomminus.mouseover" end="zoomminus.mouseout"/></use>
    <path d="M-4,0h8" fill="none" stroke="white" stroke-width="1.5" pointer-events="none"/>
  </g>
  <g id="arrowUp" transform="translate(30 24)">
    <use xlink:href="#rim"/>
    <path pointer-events="none" fill="none" stroke="white" stroke-width="1.5" d="M0,-3.0v7 M-2.5,-0.5L0,-3.0L2.5,-0.5"/>
  </g>
  <g id="arrowRight" transform="rotate(90) translate(36 -43)">
    <use xlink:href="#rim"/>
    <path pointer-events="none" fill="none" stroke="white" stroke-width="1.5" d="M0,-3.0v7 M-2.5,-0.5L0,-3.0L2.5,-0.5"/>
  </g>
  <g id="arrowDown" transform="rotate(180) translate(-30 -48)">
    <use xlink:href="#rim"/>
    <path pointer-events="none" fill="none" stroke="white" stroke-width="1.5" d="M0,-3.0v7 M-2.5,-0.5L0,-3.0L2.5,-0.5"/>
  </g>
  <g id="arrowLeft" transform="rotate(270) translate(-36 17)">
    <use xlink:href="#rim"/>
    <path pointer-events="none" fill="none" stroke="white" stroke-width="1.5" d="M0,-3.0v7 M-2.5,-0.5L0,-3.0L2.5,-0.5"/>
  </g>
  <g id="resetDef">
    <use xlink:href="#rim2" fill="#404040"><set attributeName="fill" to="#808080" begin="reset.mouseover" end="reset.mouseout"/></use>
  </g>
</defs>
<script type="application/ecmascript">
var viewWidth = 2240;
var viewHeight = 192;
var sectionId = 'dynsection-1';
</script>
<script type="application/ecmascript" xlink:href="svg.min.js"/>
<svg id="graph" class="graph">
<g id="viewport">
<title>ARDialogueTypes.h</title>
<!-- Node1 -->
<g id="Node000001" class="node">
<title>Node1</title>
<g id="a_Node000001"><a xlink:title="Shared dialogue and NPC runtime types for Alien Ramen.">
<polygon fill="#999999" stroke="#666666" points="418.69,-184 308.69,-184 308.69,-165 418.69,-165 418.69,-184"/>
<text text-anchor="middle" x="363.69" y="-172" font-family="Helvetica,sans-Serif" font-size="10.00">ARDialogueTypes.h</text>
</a>
</g>
</g>
<!-- Node2 -->
<g id="Node000002" class="node">
<title>Node2</title>
<g id="a_Node000002"><a xlink:href="ARDialogueSubsystem_8h.html" target="_top" xlink:title="Server&#45;authoritative dialogue runtime for Alien Ramen.">
<polygon fill="white" stroke="#666666" points="289.19,-129 152.19,-129 152.19,-110 289.19,-110 289.19,-129"/>
<text text-anchor="middle" x="220.69" y="-117" font-family="Helvetica,sans-Serif" font-size="10.00">ARDialogueSubsystem.h</text>
</a>
</g>
</g>
<!-- Node1&#45;&gt;Node2 -->
<g id="edge1_Node000001_Node000002" class="edge">
<title>Node1&#45;&gt;Node2</title>
<g id="a_edge1_Node000001_Node000002"><a xlink:title=" ">
<path fill="none" stroke="#63b8ff" d="M331.1,-161.42C304.57,-151.59 267.76,-137.95 244.08,-129.17"/>
<polygon fill="#63b8ff" stroke="#63b8ff" points="330.12,-164.79 340.71,-164.98 332.55,-158.23 330.12,-164.79"/>
</a>
</g>
</g>
<!-- Node5 -->
<g id="Node000005" class="node">
<title>Node5</title>
<g id="a_Node000005"><a xlink:href="ARNPCSubsystem_8cpp_source.html" target="_top" xlink:title=" ">
<polygon fill="white" stroke="#666666" points="145.19,-74 20.19,-74 20.19,-55 145.19,-55 145.19,-74"/>
<text text-anchor="middle" x="82.69" y="-62" font-family="Helvetica,sans-Serif" font-size="10.00">ARNPCSubsystem.cpp</text>
</a>
</g>
</g>
<!-- Node1&#45;&gt;Node5 -->
<g id="edge6_Node000001_Node000005" class="edge">
<title>Node1&#45;&gt;Node5</title>
<g id="a_edge6_Node000001_Node000005"><a xlink:title=" ">
<path fill="none" stroke="#63b8ff" d="M298.12,-170.73C252.14,-166.37 190.58,-155.55 142.69,-129 118.01,-115.32 97.52,-88 88.16,-74.08"/>
<polygon fill="#63b8ff" stroke="#63b8ff" points="298.01,-174.23 308.27,-171.61 298.61,-167.26 298.01,-174.23"/>
</a>
</g>
</g>
<!-- Node7 -->
<g id="Node000007" class="node">
<title>Node7</title>
<g id="a_Node000007"><a xlink:href="ARNPCSubsystem_8h.html" target="_top" xlink:title="Server&#45;authoritative NPC relationship/want runtime for Alien Ramen.">
<polygon fill="white" stroke="#666666" points="420.19,-129 307.19,-129 307.19,-110 420.19,-110 420.19,-129"/>
<text text-anchor="middle" x="363.69" y="-117" font-family="Helvetica,sans-Serif" font-size="10.00">ARNPCSubsystem.h</text>
</a>
</g>
</g>
<!-- Node1&#45;&gt;Node7 -->
<g id="edge7_Node000001_Node000007" class="edge">
<title>Node1&#45;&gt;Node7</title>
<g id="a_edge7_Node000001_Node000007"><a xlink:title=" ">
<path fill="none" stroke="#63b8ff" d="M363.69,-154.66C363.69,-145.93 363.69,-135.99 363.69,-129.09"/>
<polygon fill="#63b8ff" stroke="#63b8ff" points="360.19,-154.75 363.69,-164.75 367.19,-154.75 360.19,-154.75"/>
</a>
</g>
</g>
<!-- Node8 -->
<g id="Node000008" class="node">
<title>Node8</title>
<g id="a_Node000008"><a xlink:href="ARPlayerController_8h.html" target="_top" xlink:title="ARPlayerController header for Alien Ramen.">
<polygon fill="white" stroke="#666666" points="799.19,-129 682.19,-129 682.19,-110 799.19,-110 799.19,-129"/>
<text text-anchor="middle" x="740.69" y="-117" font-family="Helvetica,sans-Serif" font-size="10.00">ARPlayerController.h</text>
</a>
</g>
</g>
<!-- Node1&#45;&gt;Node8 -->
<g id="edge11_Node000001_Node000008" class="edge">
<title>Node1&#45;&gt;Node8</title>
<g id="a_edge11_Node000001_Node000008"><a xlink:title=" ">
<path fill="none" stroke="#63b8ff" d="M429.11,-164.3C500.38,-154.28 613.36,-138.4 681.9,-128.76"/>
<polygon fill="#63b8ff" stroke="#63b8ff" points="428.33,-160.88 418.91,-165.74 429.3,-167.81 428.33,-160.88"/>
</a>
</g>
</g>
<!-- Node21 -->
<g id="Node000021" class="node">
<title>Node21</title>
<g id="a_Node000021"><a xlink:href="ARSaveGame_8h.html" target="_top" xlink:title="ARSaveGame header for Alien Ramen.">
<polygon fill="white" stroke="#666666" points="1691.69,-129 1599.69,-129 1599.69,-110 1691.69,-110 1691.69,-129"/>
<text text-anchor="middle" x="1645.69" y="-117" font-family="Helvetica,sans-Serif" font-size="10.00">ARSaveGame.h</text>
</a>
</g>
</g>
<!-- Node1&#45;&gt;Node21 -->
<g id="edge28_Node000001_Node000021" class="edge">
<title>Node1&#45;&gt;Node21</title>
<g id="a_edge28_Node000001_Node000021"><a xlink:title=" ">
<path fill="none" stroke="#63b8ff" d="M428.84,-170.81C655.35,-161.44 1405.26,-130.44 1599.45,-122.41"/>
<polygon fill="#63b8ff" stroke="#63b8ff" points="428.62,-167.31 418.77,-171.22 428.91,-174.31 428.62,-167.31"/>
</a>
</g>
</g>
<!-- Node3 -->
<g id="Node000003" class="node">
<title>Node3</title>
<g id="a_Node000003"><a xlink:href="ARDialogueSubsystem_8cpp_source.html" target="_top" xlink:title=" ">
<polygon fill="white" stroke="#666666" points="471.69,-74 323.69,-74 323.69,-55 471.69,-55 471.69,-74"/>
<text text-anchor="middle" x="397.69" y="-62" font-family="Helvetica,sans-Serif" font-size="10.00">ARDialogueSubsystem.cpp</text>
</a>
</g>
</g>
<!-- Node2&#45;&gt;Node3 -->
<g id="edge2_Node000002_Node000003" class="edge">
<title>Node2&#45;&gt;Node3</title>
<g id="a_edge2_Node000002_Node000003"><a xlink:title=" ">
<path fill="none" stroke="#63b8ff" d="M258.91,-107.06C291.99,-97.15 339.1,-83.04 369.03,-74.08"/>
<polygon fill="#63b8ff" stroke="#63b8ff" points="257.7,-103.76 249.13,-109.98 259.71,-110.47 257.7,-103.76"/>
</a>
</g>
</g>
<!-- Node4 -->
<g id="Node000004" class="node">
<title>Node4</title>
<g id="a_Node000004"><a xlink:href="ARNPCCharacterBase_8cpp_source.html" target="_top" xlink:title=" ">
<polygon fill="white" stroke="#666666" points="305.69,-74 163.69,-74 163.69,-55 305.69,-55 305.69,-74"/>
<text text-anchor="middle" x="234.69" y="-62" font-family="Helvetica,sans-Serif" font-size="10.00">ARNPCCharacterBase.cpp</text>
</a>
</g>
</g>
<!-- Node2&#45;&gt;Node4 -->
<g id="edge3_Node000002_Node000004" class="edge">
<title>Node2&#45;&gt;Node4</title>
<g id="a_edge3_Node000002_Node000004"><a xlink:title=" ">
<path fill="none" stroke="#63b8ff" d="M225.59,-99.95C227.91,-91.15 230.58,-81.06 232.42,-74.09"/>
<polygon fill="#63b8ff" stroke="#63b8ff" points="222.17,-99.19 223,-109.75 228.94,-100.97 222.17,-99.19"/>
</a>
</g>
</g>
<!-- Node2&#45;&gt;Node5 -->
<g id="edge4_Node000002_Node000005" class="edge">
<title>Node2&#45;&gt;Node5</title>
<g id="a_edge4_Node000002_Node000005"><a xlink:title=" ">
<path fill="none" stroke="#63b8ff" d="M188.9,-106.29C163.32,-96.47 128.01,-82.91 105.26,-74.17"/>
<polygon fill="#63b8ff" stroke="#63b8ff" points="187.93,-109.67 198.52,-109.98 190.44,-103.13 187.93,-109.67"/>
</a>
</g>
</g>
<!-- Node6 -->
<g id="Node000006" class="node">
<title>Node6</title>
<g id="a_Node000006"><a xlink:href="ARPlayerController_8cpp_source.html" target="_top" xlink:title=" ">
<polygon fill="white" stroke="#666666" points="533.69,-19 405.69,-19 405.69,0 533.69,0 533.69,-19"/>
<text text-anchor="middle" x="469.69" y="-7" font-family="Helvetica,sans-Serif" font-size="10.00">ARPlayerController.cpp</text>
</a>
</g>
</g>
<!-- Node2&#45;&gt;Node6 -->
<g id="edge5_Node000002_Node000006" class="edge">
<title>Node2&#45;&gt;Node6</title>
<g id="a_edge5_Node000002_Node000006"><a xlink:title=" ">
<path fill="none" stroke="#63b8ff" d="M142.07,-117.69C66.28,-114.25 -31.21,-101.15 10.69,-55 36.72,-26.32 285.64,-15.57 405.63,-12.03"/>
<polygon fill="#63b8ff" stroke="#63b8ff" points="142,-121.19 152.13,-118.1 142.28,-114.2 142,-121.19"/>
</a>
</g>
</g>
<!-- Node7&#45;&gt;Node3 -->
<g id="edge8_Node000007_Node000003" class="edge">
<title>Node7&#45;&gt;Node3</title>
<g id="a_edge8_Node000007_Node000003"><a xlink:title=" ">
<path fill="none" stroke="#63b8ff" d="M374.85,-101.1C380.66,-92.04 387.51,-81.37 392.18,-74.09"/>
<polygon fill="#63b8ff" stroke="#63b8ff" points="371.76,-99.44 369.3,-109.75 377.65,-103.22 371.76,-99.44"/>
</a>
</g>
</g>
<!-- Node7&#45;&gt;Node4 -->
<g id="edge9_Node000007_Node000004" class="edge">
<title>Node7&#45;&gt;Node4</title>
<g id="a_edge9_Node000007_Node000004"><a xlink:title=" ">
<path fill="none" stroke="#63b8ff" d="M333.65,-106.16C309.77,-96.35 276.96,-82.87 255.79,-74.17"/>
<polygon fill="#63b8ff" stroke="#63b8ff" points="332.38,-109.42 342.96,-109.98 335.04,-102.95 332.38,-109.42"/>
</a>
</g>
</g>
<!-- Node7&#45;&gt;Node5 -->
<g id="edge10_Node000007_Node000005" class="edge">
<title>Node7&#45;&gt;Node5</title>
<g id="a_edge10_Node000007_Node000005"><a xlink:title=" ">
<path fill="none" stroke="#63b8ff" d="M308.69,-108.13C256.01,-98.19 177.45,-83.37 128.19,-74.08"/>
<polygon fill="#63b8ff" stroke="#63b8ff" points="308.06,-111.57 318.54,-109.98 309.36,-104.69 308.06,-111.57"/>
</a>
</g>
</g>
<!-- Node8&#45;&gt;Node3 -->
<g id="edge12_Node000008_Node000003" class="edge">
<title>Node8&#45;&gt;Node3</title>
<g id="a_edge12_Node000008_Node000003"><a xlink:title=" ">
<path fill="none" stroke="#63b8ff" d="M675.54,-108.43C611.13,-98.48 513.67,-83.42 452.94,-74.04"/>
<polygon fill="#63b8ff" stroke="#63b8ff" points="675.16,-111.92 685.58,-109.98 676.23,-105 675.16,-111.92"/>
</a>
</g>
</g>
<!-- Node8&#45;&gt;Node4 -->
<g id="edge20_Node000008_Node000004" class="edge">
<title>Node8&#45;&gt;Node4</title>
<g id="a_edge20_Node000008_Node000004"><a xlink:title=" ">
<path fill="none" stroke="#63b8ff" d="M672.16,-111.38C587.99,-102.62 440.82,-87.29 314.69,-74 311.77,-73.69 308.79,-73.38 305.79,-73.06"/>
<polygon fill="#63b8ff" stroke="#63b8ff" points="671.8,-114.86 682.11,-112.41 672.53,-107.9 671.8,-114.86"/>
</a>
</g>
</g>
<!-- Node8&#45;&gt;Node6 -->
<g id="edge22_Node000008_Node000006" class="edge">
<title>Node8&#45;&gt;Node6</title>
<g id="a_edge22_Node000008_Node000006"><a xlink:title=" ">
<path fill="none" stroke="#63b8ff" d="M671.63,-117.06C625.32,-113.25 564.64,-102.53 518.69,-74 496.68,-60.34 480.79,-33.01 473.74,-19.08"/>
<polygon fill="#63b8ff" stroke="#63b8ff" points="671.65,-120.57 681.88,-117.81 672.16,-113.59 671.65,-120.57"/>
</a>
</g>
</g>
<!-- Node9 -->
<g id="Node000009" class="node">
<title>Node9</title>
<g id="a_Node000009"><a xlink:href="ARHUDBase_8cpp_source.html" target="_top" xlink:title=" ">
<polygon fill="white" stroke="#666666" points="789.19,-74 692.19,-74 692.19,-55 789.19,-55 789.19,-74"/>
<text text-anchor="middle" x="740.69" y="-62" font-family="Helvetica,sans-Serif" font-size="10.00">ARHUDBase.cpp</text>
</a>
</g>
</g>
<!-- Node8&#45;&gt;Node9 -->
<g id="edge13_Node000008_Node000009" class="edge">
<title>Node8&#45;&gt;Node9</title>
<g id="a_edge13_Node000008_Node000009"><a xlink:title=" ">
<path fill="none" stroke="#63b8ff" d="M740.69,-99.66C740.69,-90.93 740.69,-80.99 740.69,-74.09"/>
<polygon fill="#63b8ff" stroke="#63b8ff" points="737.19,-99.75 740.69,-109.75 744.19,-99.75 737.19,-99.75"/>
</a>
</g>
</g>
<!-- Node10 -->
<g id="Node000010" class="node">
<title>Node10</title>
<g id="a_Node000010"><a xlink:href="ARInvaderPlayerController_8h.html" target="_top" xlink:title="ARInvaderPlayerController header for Alien Ramen.">
<polygon fill="white" stroke="#666666" points="1305.69,-74 1151.69,-74 1151.69,-55 1305.69,-55 1305.69,-74"/>
<text text-anchor="middle" x="1228.69" y="-62" font-family="Helvetica,sans-Serif" font-size="10.00">ARInvaderPlayerController.h</text>
</a>
</g>
</g>
<!-- Node8&#45;&gt;Node10 -->
<g id="edge14_Node000008_Node000010" class="edge">
<title>Node8&#45;&gt;Node10</title>
<g id="a_edge14_Node000008_Node000010"><a xlink:title=" ">
<path fill="none" stroke="#63b8ff" d="M809.67,-111.01C899.88,-101.21 1057.46,-84.1 1151.54,-73.88"/>
<polygon fill="#63b8ff" stroke="#63b8ff" points="809.12,-107.55 799.55,-112.11 809.87,-114.51 809.12,-107.55"/>
</a>
</g>
</g>
<!-- Node13 -->
<g id="Node000013" class="node">
<title>Node13</title>
<g id="a_Node000013"><a xlink:href="ARLobbyPlayerController_8h.html" target="_top" xlink:title="ARLobbyPlayerController header for Alien Ramen.">
<polygon fill="white" stroke="#666666" points="673.69,-74 527.69,-74 527.69,-55 673.69,-55 673.69,-74"/>
<text text-anchor="middle" x="600.69" y="-62" font-family="Helvetica,sans-Serif" font-size="10.00">ARLobbyPlayerController.h</text>
</a>
</g>
</g>
<!-- Node8&#45;&gt;Node13 -->
<g id="edge17_Node000008_Node000013" class="edge">
<title>Node8&#45;&gt;Node13</title>
<g id="a_edge17_Node000008_Node000013"><a xlink:title=" ">
<path fill="none" stroke="#63b8ff" d="M708.78,-106.42C682.81,-96.59 646.77,-82.95 623.59,-74.17"/>
<polygon fill="#63b8ff" stroke="#63b8ff" points="707.6,-109.72 718.19,-109.98 710.08,-103.17 707.6,-109.72"/>
</a>
</g>
</g>
<!-- Node15 -->
<g id="Node000015" class="node">
<title>Node15</title>
<g id="a_Node000015"><a xlink:href="ARPlayerCharacterInvader_8cpp_source.html" target="_top" xlink:title=" ">
<polygon fill="white" stroke="#666666" points="1487.69,-74 1323.69,-74 1323.69,-55 1487.69,-55 1487.69,-74"/>
<text text-anchor="middle" x="1405.69" y="-62" font-family="Helvetica,sans-Serif" font-size="10.00">ARPlayerCharacterInvader.cpp</text>
</a>
</g>
</g>
<!-- Node8&#45;&gt;Node15 -->
<g id="edge21_Node000008_Node000015" class="edge">
<title>Node8&#45;&gt;Node15</title>
<g id="a_edge21_Node000008_Node000015"><a xlink:title=" ">
<path fill="none" stroke="#63b8ff" d="M809.47,-113.52C917.21,-105.64 1132.35,-89.58 1314.69,-74 1317.53,-73.76 1320.43,-73.51 1323.35,-73.25"/>
<polygon fill="#63b8ff" stroke="#63b8ff" points="809.1,-110.04 799.38,-114.26 809.61,-117.02 809.1,-110.04"/>
</a>
</g>
</g>
<!-- Node16 -->
<g id="Node000016" class="node">
<title>Node16</title>
<g id="a_Node000016"><a xlink:href="ARSaveSubsystem_8cpp_source.html" target="_top" xlink:title=" ">
<polygon fill="white" stroke="#666666" points="1633.69,-74 1505.69,-74 1505.69,-55 1633.69,-55 1633.69,-74"/>
<text text-anchor="middle" x="1569.69" y="-62" font-family="Helvetica,sans-Serif" font-size="10.00">ARSaveSubsystem.cpp</text>
</a>
</g>
</g>
<!-- Node8&#45;&gt;Node16 -->
<g id="edge23_Node000008_Node000016" class="edge">
<title>Node8&#45;&gt;Node16</title>
<g id="a_edge23_Node000008_Node000016"><a xlink:title=" ">
<path fill="none" stroke="#63b8ff" d="M809.64,-115.76C942.66,-110.18 1243.94,-96.14 1496.69,-74 1499.61,-73.74 1502.6,-73.47 1505.61,-73.17"/>
<polygon fill="#63b8ff" stroke="#63b8ff" points="809.43,-112.27 799.59,-116.18 809.72,-119.26 809.43,-112.27"/>
</a>
</g>
</g>
<!-- Node17 -->
<g id="Node000017" class="node">
<title>Node17</title>
<g id="a_Node000017"><a xlink:href="ARScrapyardPlayerController_8h.html" target="_top" xlink:title="ARScrapyardPlayerController header for Alien Ramen.">
<polygon fill="white" stroke="#666666" points="973.69,-74 807.69,-74 807.69,-55 973.69,-55 973.69,-74"/>
<text text-anchor="middle" x="890.69" y="-62" font-family="Helvetica,sans-Serif" font-size="10.00">ARScrapyardPlayerController.h</text>
</a>
</g>
</g>
<!-- Node8&#45;&gt;Node17 -->
<g id="edge24_Node000008_Node000017" class="edge">
<title>Node8&#45;&gt;Node17</title>
<g id="a_edge24_Node000008_Node000017"><a xlink:title=" ">
<path fill="none" stroke="#63b8ff" d="M774.51,-106.55C802.36,-96.71 841.2,-82.98 866.15,-74.17"/>
<polygon fill="#63b8ff" stroke="#63b8ff" points="773.05,-103.35 764.79,-109.98 775.38,-109.95 773.05,-103.35"/>
</a>
</g>
</g>
<!-- Node19 -->
<g id="Node000019" class="node">
<title>Node19</title>
<g id="a_Node000019"><a xlink:href="ARShopPlayerController_8h.html" target="_top" xlink:title="ARShopPlayerController header for Alien Ramen.">
<polygon fill="white" stroke="#666666" points="1133.19,-74 992.19,-74 992.19,-55 1133.19,-55 1133.19,-74"/>
<text text-anchor="middle" x="1062.69" y="-62" font-family="Helvetica,sans-Serif" font-size="10.00">ARShopPlayerController.h</text>
</a>
</g>
</g>
<!-- Node8&#45;&gt;Node19 -->
<g id="edge26_Node000008_Node000019" class="edge">
<title>Node8&#45;&gt;Node19</title>
<g id="a_edge26_Node000008_Node000019"><a xlink:title=" ">
<path fill="none" stroke="#63b8ff" d="M802.6,-108.31C863.06,-98.36 954.04,-83.38 1010.81,-74.04"/>
<polygon fill="#63b8ff" stroke="#63b8ff" points="801.72,-104.91 792.42,-109.98 802.86,-111.81 801.72,-104.91"/>
</a>
</g>
</g>
<!-- Node11 -->
<g id="Node000011" class="node">
<title>Node11</title>
<g id="a_Node000011"><a xlink:href="ARInvaderFullBlastMenuWidget_8cpp_source.html" target="_top" xlink:title=" ">
<polygon fill="white" stroke="#666666" points="1525.19,-19 1334.19,-19 1334.19,0 1525.19,0 1525.19,-19"/>
<text text-anchor="middle" x="1429.69" y="-7" font-family="Helvetica,sans-Serif" font-size="10.00">ARInvaderFullBlastMenuWidget.cpp</text>
</a>
</g>
</g>
<!-- Node10&#45;&gt;Node11 -->
<g id="edge15_Node000010_Node000011" class="edge">
<title>Node10&#45;&gt;Node11</title>
<g id="a_edge15_Node000010_Node000011"><a xlink:title=" ">
<path fill="none" stroke="#63b8ff" d="M1271.12,-52.31C1308.73,-42.39 1362.86,-28.12 1397.14,-19.08"/>
<polygon fill="#63b8ff" stroke="#63b8ff" points="1269.76,-49.05 1260.98,-54.98 1271.54,-55.82 1269.76,-49.05"/>
</a>
</g>
</g>
<!-- Node12 -->
<g id="Node000012" class="node">
<title>Node12</title>
<g id="a_Node000012"><a xlink:href="ARInvaderPlayerController_8cpp_source.html" target="_top" xlink:title=" ">
<polygon fill="white" stroke="#666666" points="1316.19,-19 1151.19,-19 1151.19,0 1316.19,0 1316.19,-19"/>
<text text-anchor="middle" x="1233.69" y="-7" font-family="Helvetica,sans-Serif" font-size="10.00">ARInvaderPlayerController.cpp</text>
</a>
</g>
</g>
<!-- Node10&#45;&gt;Node12 -->
<g id="edge16_Node000010_Node000012" class="edge">
<title>Node10&#45;&gt;Node12</title>
<g id="a_edge16_Node000010_Node000012"><a xlink:title=" ">
<path fill="none" stroke="#63b8ff" d="M1230.46,-44.66C1231.29,-35.93 1232.23,-25.99 1232.88,-19.09"/>
<polygon fill="#63b8ff" stroke="#63b8ff" points="1226.97,-44.46 1229.51,-54.75 1233.94,-45.12 1226.97,-44.46"/>
</a>
</g>
</g>
<!-- Node13&#45;&gt;Node6 -->
<g id="edge19_Node000013_Node000006" class="edge">
<title>Node13&#45;&gt;Node6</title>
<g id="a_edge19_Node000013_Node000006"><a xlink:title=" ">
<path fill="none" stroke="#63b8ff" d="M570.19,-51.16C545.93,-41.35 512.62,-27.87 491.12,-19.17"/>
<polygon fill="#63b8ff" stroke="#63b8ff" points="569.06,-54.48 579.64,-54.98 571.68,-47.99 569.06,-54.48"/>
</a>
</g>
</g>
<!-- Node14 -->
<g id="Node000014" class="node">
<title>Node14</title>
<g id="a_Node000014"><a xlink:href="ARLobbyPlayerController_8cpp_source.html" target="_top" xlink:title=" ">
<polygon fill="white" stroke="#666666" points="709.69,-19 551.69,-19 551.69,0 709.69,0 709.69,-19"/>
<text text-anchor="middle" x="630.69" y="-7" font-family="Helvetica,sans-Serif" font-size="10.00">ARLobbyPlayerController.cpp</text>
</a>
</g>
</g>
<!-- Node13&#45;&gt;Node14 -->
<g id="edge18_Node000013_Node000014" class="edge">
<title>Node13&#45;&gt;Node14</title>
<g id="a_edge18_Node000013_Node000014"><a xlink:title=" ">
<path fill="none" stroke="#63b8ff" d="M610.7,-45.82C615.79,-36.82 621.75,-26.29 625.83,-19.09"/>
<polygon fill="#63b8ff" stroke="#63b8ff" points="607.52,-44.32 605.64,-54.75 613.61,-47.77 607.52,-44.32"/>
</a>
</g>
</g>
<!-- Node18 -->
<g id="Node000018" class="node">
<title>Node18</title>
<g id="a_Node000018"><a xlink:href="ARScrapyardPlayerController_8cpp_source.html" target="_top" xlink:title=" ">
<polygon fill="white" stroke="#666666" points="962.19,-19 785.19,-19 785.19,0 962.19,0 962.19,-19"/>
<text text-anchor="middle" x="873.69" y="-7" font-family="Helvetica,sans-Serif" font-size="10.00">ARScrapyardPlayerController.cpp</text>
</a>
</g>
</g>
<!-- Node17&#45;&gt;Node18 -->
<g id="edge25_Node000017_Node000018" class="edge">
<title>Node17&#45;&gt;Node18</title>
<g id="a_edge25_Node000017_Node000018"><a xlink:title=" ">
<path fill="none" stroke="#63b8ff" d="M884.74,-44.95C881.92,-36.15 878.68,-26.06 876.44,-19.09"/>
<polygon fill="#63b8ff" stroke="#63b8ff" points="881.49,-46.29 887.88,-54.75 888.16,-44.16 881.49,-46.29"/>
</a>
</g>
</g>
<!-- Node20 -->
<g id="Node000020" class="node">
<title>Node20</title>
<g id="a_Node000020"><a xlink:href="ARShopPlayerController_8cpp_source.html" target="_top" xlink:title=" ">
<polygon fill="white" stroke="#666666" points="1132.69,-19 980.69,-19 980.69,0 1132.69,0 1132.69,-19"/>
<text text-anchor="middle" x="1056.69" y="-7" font-family="Helvetica,sans-Serif" font-size="10.00">ARShopPlayerController.cpp</text>
</a>
</g>
</g>
<!-- Node19&#45;&gt;Node20 -->
<g id="edge27_Node000019_Node000020" class="edge">
<title>Node19&#45;&gt;Node20</title>
<g id="a_edge27_Node000019_Node000020"><a xlink:title=" ">
<path fill="none" stroke="#63b8ff" d="M1060.55,-44.66C1059.57,-35.93 1058.44,-25.99 1057.66,-19.09"/>
<polygon fill="#63b8ff" stroke="#63b8ff" points="1057.09,-45.21 1061.7,-54.75 1064.05,-44.42 1057.09,-45.21"/>
</a>
</g>
</g>
<!-- Node21&#45;&gt;Node3 -->
<g id="edge29_Node000021_Node000003" class="edge">
<title>Node21&#45;&gt;Node3</title>
<g id="a_edge29_Node000021_Node000003"><a xlink:title=" ">
<path fill="none" stroke="#63b8ff" d="M1589.12,-116.88C1424.1,-112.02 929.06,-96.51 518.69,-74 503.55,-73.17 487.35,-72.13 471.89,-71.07"/>
<polygon fill="#63b8ff" stroke="#63b8ff" points="1589.4,-120.39 1599.5,-117.18 1589.61,-113.39 1589.4,-120.39"/>
</a>
</g>
</g>
<!-- Node21&#45;&gt;Node5 -->
<g id="edge32_Node000021_Node000005" class="edge">
<title>Node21&#45;&gt;Node5</title>
<g id="a_edge32_Node000021_Node000005"><a xlink:title=" ">
<path fill="none" stroke="#63b8ff" d="M1589.42,-118.6C1392.09,-118.56 713.2,-115.22 154.69,-74 151.67,-73.78 148.59,-73.52 145.49,-73.24"/>
<polygon fill="#63b8ff" stroke="#63b8ff" points="1589.55,-122.1 1599.55,-118.6 1589.55,-115.1 1589.55,-122.1"/>
</a>
</g>
</g>
<!-- Node21&#45;&gt;Node16 -->
<g id="edge34_Node000021_Node000016" class="edge">
<title>Node21&#45;&gt;Node16</title>
<g id="a_edge34_Node000021_Node000016"><a xlink:title=" ">
<path fill="none" stroke="#63b8ff" d="M1625.11,-104.15C1611.38,-94.57 1593.76,-82.29 1582.12,-74.17"/>
<polygon fill="#63b8ff" stroke="#63b8ff" points="1623.27,-107.14 1633.48,-109.98 1627.28,-101.39 1623.27,-107.14"/>
</a>
</g>
</g>
<!-- Node22 -->
<g id="Node000022" class="node">
<title>Node22</title>
<g id="a_Node000022"><a xlink:href="ARFactionSubsystem_8cpp_source.html" target="_top" xlink:title=" ">
<polygon fill="white" stroke="#666666" points="1791.19,-74 1652.19,-74 1652.19,-55 1791.19,-55 1791.19,-74"/>
<text text-anchor="middle" x="1721.69" y="-62" font-family="Helvetica,sans-Serif" font-size="10.00">ARFactionSubsystem.cpp</text>
</a>
</g>
</g>
<!-- Node21&#45;&gt;Node22 -->
<g id="edge30_Node000021_Node000022" class="edge">
<title>Node21&#45;&gt;Node22</title>
<g id="a_edge30_Node000021_Node000022"><a xlink:title=" ">
<path fill="none" stroke="#63b8ff" d="M1666.26,-104.15C1680,-94.57 1697.61,-82.29 1709.25,-74.17"/>
<polygon fill="#63b8ff" stroke="#63b8ff" points="1664.1,-101.39 1657.9,-109.98 1668.1,-107.14 1664.1,-101.39"/>
</a>
</g>
</g>
<!-- Node23 -->
<g id="Node000023" class="node">
<title>Node23</title>
<g id="a_Node000023"><a xlink:href="ARGameInstance_8cpp_source.html" target="_top" xlink:title=" ">
<polygon fill="white" stroke="#666666" points="1930.19,-74 1809.19,-74 1809.19,-55 1930.19,-55 1930.19,-74"/>
<text text-anchor="middle" x="1869.69" y="-62" font-family="Helvetica,sans-Serif" font-size="10.00">ARGameInstance.cpp</text>
</a>
</g>
</g>
<!-- Node21&#45;&gt;Node23 -->
<g id="edge31_Node000021_Node000023" class="edge">
<title>Node21&#45;&gt;Node23</title>
<g id="a_edge31_Node000021_Node000023"><a xlink:title=" ">
<path fill="none" stroke="#63b8ff" d="M1691.64,-107.63C1733.6,-97.7 1794.8,-83.22 1833.42,-74.08"/>
<polygon fill="#63b8ff" stroke="#63b8ff" points="1690.6,-104.28 1681.68,-109.98 1692.21,-111.09 1690.6,-104.28"/>
</a>
</g>
</g>
<!-- Node24 -->
<g id="Node000024" class="node">
<title>Node24</title>
<g id="a_Node000024"><a xlink:href="ARSaveGame_8cpp_source.html" target="_top" xlink:title=" ">
<polygon fill="white" stroke="#666666" points="2052.69,-74 1948.69,-74 1948.69,-55 2052.69,-55 2052.69,-74"/>
<text text-anchor="middle" x="2000.69" y="-62" font-family="Helvetica,sans-Serif" font-size="10.00">ARSaveGame.cpp</text>
</a>
</g>
</g>
<!-- Node21&#45;&gt;Node24 -->
<g id="edge33_Node000021_Node000024" class="edge">
<title>Node21&#45;&gt;Node24</title>
<g id="a_edge33_Node000021_Node000024"><a xlink:title=" ">
<path fill="none" stroke="#63b8ff" d="M1701.8,-110.12C1769.61,-100 1882.76,-83.11 1948.67,-73.27"/>
<polygon fill="#63b8ff" stroke="#63b8ff" points="1701.11,-106.69 1691.73,-111.63 1702.14,-113.61 1701.11,-106.69"/>
</a>
</g>
</g>
<!-- Node25 -->
<g id="Node000025" class="node">
<title>Node25</title>
<g id="a_Node000025"><a xlink:href="AlienRamenEditorModule_8cpp_source.html" target="_top" xlink:title=" ">
<polygon fill="white" stroke="#666666" points="2232.19,-74 2071.19,-74 2071.19,-55 2232.19,-55 2232.19,-74"/>
<text text-anchor="middle" x="2151.69" y="-62" font-family="Helvetica,sans-Serif" font-size="10.00">AlienRamenEditorModule.cpp</text>
</a>
</g>
</g>
<!-- Node21&#45;&gt;Node25 -->
<g id="edge35_Node000021_Node000025" class="edge">
<title>Node21&#45;&gt;Node25</title>
<g id="a_edge35_Node000021_Node000025"><a xlink:title=" ">
<path fill="none" stroke="#63b8ff" d="M1701.92,-112.61C1791.74,-103.2 1967.94,-84.75 2071.13,-73.94"/>
<polygon fill="#63b8ff" stroke="#63b8ff" points="1701.51,-109.13 1691.93,-113.66 1702.24,-116.1 1701.51,-109.13"/>
</a>
</g>
</g>
</g>
</svg>

<g id="navigator" transform="translate(0 0)" fill="#404254">
  <rect fill="#f2f5e9" fill-opacity="0.5" stroke="#606060" stroke-width=".5" x="0" y="0" width="60" height="60"/>
  <use id="zoomplus" xlink:href="#zoomPlus" x="17" y="9" onmousedown="handleZoom(evt,'in')"/>
  <use id="zoomminus" xlink:href="#zoomMin" x="42" y="9" onmousedown="handleZoom(evt,'out')"/>
  <use id="reset" xlink:href="#resetDef" x="30" y="36" onmousedown="handleReset()"/>
   <use id="arrowup" xlink:href="#arrowUp" x="0" y="0" onmousedown="handlePan(0,-1)"/>
  <use id="arrowright" xlink:href="#arrowRight" x="0" y="0" onmousedown="handlePan(1,0)"/>
  <use id="arrowdown" xlink:href="#arrowDown" x="0" y="0" onmousedown="handlePan(0,1)"/>
  <use id="arrowleft" xlink:href="#arrowLeft" x="0" y="0" onmousedown="handlePan(-1,0)"/>
</g>
<svg viewBox="0 0 15 15" width="100%" height="30px" preserveAspectRatio="xMaxYMin meet">
 <g id="arrow_out" transform="scale(0.3 0.3)">
  <a xlink:href="ARDialogueTypes_8h__dep__incl_org.svg" target="_base">
   <rect id="button" ry="5" rx="5" y="6" x="6" height="38" width="38"
        fill="#f2f5e9" fill-opacity="0.5" stroke="#606060" stroke-width="1.0"/>
   <path id="arrow"
     d="M 11.500037,31.436501 C 11.940474,20.09759 22.043105,11.32322 32.158766,21.979434 L 37.068811,17.246167 C 37.068811,17.246167 37.088388,32 37.088388,32 L 22.160133,31.978069 C 22.160133,31.978069 26.997745,27.140456 26.997745,27.140456 C 18.528582,18.264221 13.291696,25.230495 11.500037,31.436501 z"
     style="fill:#404040;"/>
  </a>
 </g>
</svg>

<style type='text/css'>
<![CDATA[
[data-mouse-over-selected='false'] { opacity: 0.7; }
[data-mouse-over-selected='true']  { opacity: 1.0; }
]]>
</style>
<script type="application/ecmascript"><![CDATA[
document.addEventListener('DOMContentLoaded', (event) => {
  highlightEdges();
  highlightAdjacentNodes();
});
]]></script>
</svg>
