<?xml version="1.0" encoding="UTF-8" standalone="no"?>
<!DOCTYPE svg PUBLIC "-//W3C//DTD SVG 1.1//EN"
 "http://www.w3.org/Graphics/SVG/1.1/DTD/svg11.dtd">
<!-- Generated by graphviz version 2.43.0 (0)
 -->
<!-- Title: ARDialogueTypes.h Pages: 1 -->
<svg width="512pt" height="192pt"
 viewBox="0.00 0.00 511.56 192.00" xmlns="http://www.w3.org/2000/svg" xmlns:xlink="http://www.w3.org/1999/xlink">
<g id="graph0" class="graph" transform="scale(1 1) rotate(0) translate(4 188)">
<title>ARDialogueTypes.h</title>
<!-- Node1 -->
<g id="Node000001" class="node">
<title>Node1</title>
<g id="a_Node000001"><a xlink:title="Shared dialogue and NPC runtime types for Alien Ramen.">
<polygon fill="#999999" stroke="#666666" points="251.56,-184 141.56,-184 141.56,-165 251.56,-165 251.56,-184"/>
<text text-anchor="middle" x="196.56" y="-172" font-family="Helvetica,sans-Serif" font-size="10.00">ARDialogueTypes.h</text>
</a>
</g>
</g>
<!-- Node2 -->
<g id="Node000002" class="node">
<title>Node2</title>
<g id="a_Node000002"><a xlink:title=" ">
<polygon fill="#e0e0e0" stroke="#999999" points="233.56,-19 145.56,-19 145.56,0 233.56,0 233.56,-19"/>
<text text-anchor="middle" x="189.56" y="-7" font-family="Helvetica,sans-Serif" font-size="10.00">CoreMinimal.h</text>
</a>
</g>
</g>
<!-- Node1&#45;&gt;Node2 -->
<g id="edge1_Node000001_Node000002" class="edge">
<title>Node1&#45;&gt;Node2</title>
<g id="a_edge1_Node000001_Node000002"><a xlink:title=" ">
<path fill="none" stroke="#63b8ff" d="M141.53,-167.66C93.28,-161.26 28.42,-149.14 12.56,-129 3.8,-117.86 -10.32,-85.11 13.56,-55 28.63,-36 89.17,-23.77 135.07,-17.03"/>
<polygon fill="#63b8ff" stroke="#63b8ff" points="135.8,-20.46 145.21,-15.59 134.82,-13.53 135.8,-20.46"/>
</a>
</g>
</g>
<!-- Node3 -->
<g id="Node000003" class="node">
<title>Node3</title>
<g id="a_Node000003"><a xlink:title=" ">
<polygon fill="#e0e0e0" stroke="#999999" points="131.56,-129 21.56,-129 21.56,-110 131.56,-110 131.56,-129"/>
<text text-anchor="middle" x="76.56" y="-117" font-family="Helvetica,sans-Serif" font-size="10.00">Engine/DataTable.h</text>
</a>
</g>
</g>
<!-- Node1&#45;&gt;Node3 -->
<g id="edge2_Node000001_Node000003" class="edge">
<title>Node1&#45;&gt;Node3</title>
<g id="a_edge2_Node000001_Node000003"><a xlink:title=" ">
<path fill="none" stroke="#63b8ff" d="M177.28,-164.98C157.89,-156.42 127.76,-143.11 105.5,-133.28"/>
<polygon fill="#63b8ff" stroke="#63b8ff" points="106.76,-130.01 96.2,-129.17 103.93,-136.41 106.76,-130.01"/>
</a>
</g>
</g>
<!-- Node4 -->
<g id="Node000004" class="node">
<title>Node4</title>
<g id="a_Node000004"><a xlink:title=" ">
<polygon fill="#e0e0e0" stroke="#999999" points="161.06,-74 22.06,-74 22.06,-55 161.06,-55 161.06,-74"/>
<text text-anchor="middle" x="91.56" y="-62" font-family="Helvetica,sans-Serif" font-size="10.00">GameplayTagContainer.h</text>
</a>
</g>
</g>
<!-- Node1&#45;&gt;Node4 -->
<g id="edge3_Node000001_Node000004" class="edge">
<title>Node1&#45;&gt;Node4</title>
<g id="a_edge3_Node000001_Node000004"><a xlink:title=" ">
<path fill="none" stroke="#63b8ff" d="M189.25,-164.6C178.83,-152.06 158.93,-128.64 140.56,-110 130.58,-99.87 118.8,-89.14 109.29,-80.75"/>
<polygon fill="#63b8ff" stroke="#63b8ff" points="111.46,-77.99 101.62,-74.06 106.86,-83.27 111.46,-77.99"/>
</a>
</g>
</g>
<!-- Node5 -->
<g id="Node000005" class="node">
<title>Node5</title>
<g id="a_Node000005"><a xlink:href="ARPlayerTypes_8h.html" target="_top" xlink:title="Shared player&#45;facing enum types for Alien Ramen gameplay/save/runtime APIs.">
<polygon fill="white" stroke="#666666" points="477.56,-74 379.56,-74 379.56,-55 477.56,-55 477.56,-74"/>
<text text-anchor="middle" x="428.56" y="-62" font-family="Helvetica,sans-Serif" font-size="10.00">ARPlayerTypes.h</text>
</a>
</g>
</g>
<!-- Node1&#45;&gt;Node5 -->
<g id="edge4_Node000001_Node000005" class="edge">
<title>Node1&#45;&gt;Node5</title>
<g id="a_edge4_Node000001_Node000005"><a xlink:title=" ">
<path fill="none" stroke="#63b8ff" d="M214.21,-164.98C232.73,-156.04 262.71,-141.55 288.56,-129 305.91,-120.58 310.07,-118.11 327.56,-110 351.47,-98.92 378.83,-86.9 399.04,-78.15"/>
<polygon fill="#63b8ff" stroke="#63b8ff" points="400.55,-81.32 408.34,-74.14 397.77,-74.89 400.55,-81.32"/>
</a>
</g>
</g>
<!-- Node7 -->
<g id="Node000007" class="node">
<title>Node7</title>
<g id="a_Node000007"><a xlink:href="ARSaveTypes_8h.html" target="_top" xlink:title="ARSaveTypes header for Alien Ramen.">
<polygon fill="white" stroke="#666666" points="279.06,-129 188.06,-129 188.06,-110 279.06,-110 279.06,-129"/>
<text text-anchor="middle" x="233.56" y="-117" font-family="Helvetica,sans-Serif" font-size="10.00">ARSaveTypes.h</text>
</a>
</g>
</g>
<!-- Node1&#45;&gt;Node7 -->
<g id="edge7_Node000001_Node000007" class="edge">
<title>Node1&#45;&gt;Node7</title>
<g id="a_edge7_Node000001_Node000007"><a xlink:title=" ">
<path fill="none" stroke="#63b8ff" d="M202.67,-164.75C207.85,-157.34 215.41,-146.5 221.76,-137.41"/>
<polygon fill="#63b8ff" stroke="#63b8ff" points="224.71,-139.29 227.57,-129.09 218.97,-135.29 224.71,-139.29"/>
</a>
</g>
</g>
<!-- Node9 -->
<g id="Node000009" class="node">
<title>Node9</title>
<g id="a_Node000009"><a xlink:title=" ">
<polygon fill="#e0e0e0" stroke="#999999" points="499.06,-129 336.06,-129 336.06,-110 499.06,-110 499.06,-129"/>
<text text-anchor="middle" x="417.56" y="-117" font-family="Helvetica,sans-Serif" font-size="10.00">ARDialogueTypes.generated.h</text>
</a>
</g>
</g>
<!-- Node1&#45;&gt;Node9 -->
<g id="edge12_Node000001_Node000009" class="edge">
<title>Node1&#45;&gt;Node9</title>
<g id="a_edge12_Node000001_Node000009"><a xlink:title=" ">
<path fill="none" stroke="#63b8ff" d="M232.07,-164.98C270.06,-155.87 330.43,-141.4 371.92,-131.45"/>
<polygon fill="#63b8ff" stroke="#63b8ff" points="372.87,-134.82 381.78,-129.08 371.24,-128.01 372.87,-134.82"/>
</a>
</g>
</g>
<!-- Node5&#45;&gt;Node2 -->
<g id="edge5_Node000005_Node000002" class="edge">
<title>Node5&#45;&gt;Node2</title>
<g id="a_edge5_Node000005_Node000002"><a xlink:title=" ">
<path fill="none" stroke="#63b8ff" d="M390.17,-54.98C348.82,-45.82 282.96,-31.21 238.07,-21.26"/>
<polygon fill="#63b8ff" stroke="#63b8ff" points="238.79,-17.83 228.26,-19.08 237.27,-24.66 238.79,-17.83"/>
</a>
</g>
</g>
<!-- Node6 -->
<g id="Node000006" class="node">
<title>Node6</title>
<g id="a_Node000006"><a xlink:title=" ">
<polygon fill="#e0e0e0" stroke="#999999" points="503.56,-19 353.56,-19 353.56,0 503.56,0 503.56,-19"/>
<text text-anchor="middle" x="428.56" y="-7" font-family="Helvetica,sans-Serif" font-size="10.00">ARPlayerTypes.generated.h</text>
</a>
</g>
</g>
<!-- Node5&#45;&gt;Node6 -->
<g id="edge6_Node000005_Node000006" class="edge">
<title>Node5&#45;&gt;Node6</title>
<g id="a_edge6_Node000005_Node000006"><a xlink:title=" ">
<path fill="none" stroke="#63b8ff" d="M428.56,-54.75C428.56,-47.8 428.56,-37.85 428.56,-29.13"/>
<polygon fill="#63b8ff" stroke="#63b8ff" points="432.06,-29.09 428.56,-19.09 425.06,-29.09 432.06,-29.09"/>
</a>
</g>
</g>
<!-- Node7&#45;&gt;Node2 -->
<g id="edge8_Node000007_Node000002" class="edge">
<title>Node7&#45;&gt;Node2</title>
<g id="a_edge8_Node000007_Node000002"><a xlink:title=" ">
<path fill="none" stroke="#63b8ff" d="M228.28,-109.88C223.04,-101.09 215.03,-86.94 209.56,-74 203.37,-59.34 198.05,-42.09 194.46,-29.26"/>
<polygon fill="#63b8ff" stroke="#63b8ff" points="197.76,-28.05 191.77,-19.31 191,-29.88 197.76,-28.05"/>
</a>
</g>
</g>
<!-- Node7&#45;&gt;Node4 -->
<g id="edge9_Node000007_Node000004" class="edge">
<title>Node7&#45;&gt;Node4</title>
<g id="a_edge9_Node000007_Node000004"><a xlink:title=" ">
<path fill="none" stroke="#63b8ff" d="M210.75,-109.98C187.39,-101.27 150.86,-87.63 124.4,-77.75"/>
<polygon fill="#63b8ff" stroke="#63b8ff" points="125.39,-74.39 114.79,-74.17 122.94,-80.95 125.39,-74.39"/>
</a>
</g>
</g>
<!-- Node7&#45;&gt;Node5 -->
<g id="edge10_Node000007_Node000005" class="edge">
<title>Node7&#45;&gt;Node5</title>
<g id="a_edge10_Node000007_Node000005"><a xlink:title=" ">
<path fill="none" stroke="#63b8ff" d="M264.89,-109.98C298.06,-100.97 350.56,-86.7 387.13,-76.76"/>
<polygon fill="#63b8ff" stroke="#63b8ff" points="388.26,-80.08 396.99,-74.08 386.42,-73.33 388.26,-80.08"/>
</a>
</g>
</g>
<!-- Node8 -->
<g id="Node000008" class="node">
<title>Node8</title>
<g id="a_Node000008"><a xlink:title=" ">
<polygon fill="#e0e0e0" stroke="#999999" points="361.06,-74 218.06,-74 218.06,-55 361.06,-55 361.06,-74"/>
<text text-anchor="middle" x="289.56" y="-62" font-family="Helvetica,sans-Serif" font-size="10.00">ARSaveTypes.generated.h</text>
</a>
</g>
</g>
<!-- Node7&#45;&gt;Node8 -->
<g id="edge11_Node000007_Node000008" class="edge">
<title>Node7&#45;&gt;Node8</title>
<g id="a_edge11_Node000007_Node000008"><a xlink:title=" ">
<path fill="none" stroke="#63b8ff" d="M242.56,-109.98C250.76,-102.23 263.07,-90.58 273.04,-81.14"/>
<polygon fill="#63b8ff" stroke="#63b8ff" points="275.55,-83.59 280.4,-74.17 270.73,-78.5 275.55,-83.59"/>
</a>
</g>
</g>
</g>
</svg>
