<?xml version="1.0" encoding="UTF-8" standalone="no"?>
<!DOCTYPE svg PUBLIC "-//W3C//DTD SVG 1.1//EN"
 "http://www.w3.org/Graphics/SVG/1.1/DTD/svg11.dtd">
<!-- Generated by graphviz version 2.43.0 (0)
 -->
<!-- Title: AREmotionViewerTags.h Pages: 1 -->
<svg width="428pt" height="82pt"
 viewBox="0.00 0.00 428.00 82.00" xmlns="http://www.w3.org/2000/svg" xmlns:xlink="http://www.w3.org/1999/xlink">
<g id="graph0" class="graph" transform="scale(1 1) rotate(0) translate(4 78)">
<title>AREmotionViewerTags.h</title>
<!-- Node1 -->
<g id="Node000001" class="node">
<title>Node1</title>
<g id="a_Node000001"><a xlink:title="Shared helpers for building EMO HUD viewer tag containers from Alien Ramen player context.">
<polygon fill="#999999" stroke="#666666" points="280.5,-74 145.5,-74 145.5,-55 280.5,-55 280.5,-74"/>
<text text-anchor="middle" x="213" y="-62" font-family="Helvetica,sans-Serif" font-size="10.00">AREmotionViewerTags.h</text>
</a>
</g>
</g>
<!-- Node2 -->
<g id="Node000002" class="node">
<title>Node2</title>
<g id="a_Node000002"><a xlink:href="AREmotionViewerTags_8cpp_source.html" target="_top" xlink:title=" ">
<polygon fill="white" stroke="#666666" points="146,-19 0,-19 0,0 146,0 146,-19"/>
<text text-anchor="middle" x="73" y="-7" font-family="Helvetica,sans-Serif" font-size="10.00">AREmotionViewerTags.cpp</text>
</a>
</g>
</g>
<!-- Node1&#45;&gt;Node2 -->
<g id="edge1_Node000001_Node000002" class="edge">
<title>Node1&#45;&gt;Node2</title>
<g id="a_edge1_Node000001_Node000002"><a xlink:title=" ">
<path fill="none" stroke="#63b8ff" d="M181.09,-51.42C155.12,-41.59 119.08,-27.95 95.9,-19.17"/>
<polygon fill="#63b8ff" stroke="#63b8ff" points="179.92,-54.72 190.51,-54.98 182.39,-48.17 179.92,-54.72"/>
</a>
</g>
</g>
<!-- Node3 -->
<g id="Node000003" class="node">
<title>Node3</title>
<g id="a_Node000003"><a xlink:href="ARHUDBase_8cpp_source.html" target="_top" xlink:title=" ">
<polygon fill="white" stroke="#666666" points="261.5,-19 164.5,-19 164.5,0 261.5,0 261.5,-19"/>
<text text-anchor="middle" x="213" y="-7" font-family="Helvetica,sans-Serif" font-size="10.00">ARHUDBase.cpp</text>
</a>
</g>
</g>
<!-- Node1&#45;&gt;Node3 -->
<g id="edge2_Node000001_Node000003" class="edge">
<title>Node1&#45;&gt;Node3</title>
<g id="a_edge2_Node000001_Node000003"><a xlink:title=" ">
<path fill="none" stroke="#63b8ff" d="M213,-44.66C213,-35.93 213,-25.99 213,-19.09"/>
<polygon fill="#63b8ff" stroke="#63b8ff" points="209.5,-44.75 213,-54.75 216.5,-44.75 209.5,-44.75"/>
</a>
</g>
</g>
<!-- Node4 -->
<g id="Node000004" class="node">
<title>Node4</title>
<g id="a_Node000004"><a xlink:href="EmoAutomationTests_8cpp_source.html" target="_top" xlink:title=" ">
<polygon fill="white" stroke="#666666" points="420,-19 280,-19 280,0 420,0 420,-19"/>
<text text-anchor="middle" x="350" y="-7" font-family="Helvetica,sans-Serif" font-size="10.00">EmoAutomationTests.cpp</text>
</a>
</g>
</g>
<!-- Node1&#45;&gt;Node4 -->
<g id="edge3_Node000001_Node000004" class="edge">
<title>Node1&#45;&gt;Node4</title>
<g id="a_edge3_Node000001_Node000004"><a xlink:title=" ">
<path fill="none" stroke="#63b8ff" d="M244.56,-51.29C269.95,-41.47 305,-27.91 327.59,-19.17"/>
<polygon fill="#63b8ff" stroke="#63b8ff" points="243.08,-48.11 235.01,-54.98 245.6,-54.64 243.08,-48.11"/>
</a>
</g>
</g>
</g>
</svg>
