<?xml version="1.0" encoding="UTF-8" standalone="no"?>
<!DOCTYPE svg PUBLIC "-//W3C//DTD SVG 1.1//EN"
 "http://www.w3.org/Graphics/SVG/1.1/DTD/svg11.dtd">
<!-- Generated by graphviz version 2.43.0 (0)
 -->
<!-- Title: AREnemyIncomingDamageEffect.h Pages: 1 -->
<svg width="476pt" height="82pt"
 viewBox="0.00 0.00 475.50 82.00" xmlns="http://www.w3.org/2000/svg" xmlns:xlink="http://www.w3.org/1999/xlink">
<g id="graph0" class="graph" transform="scale(1 1) rotate(0) translate(4 78)">
<title>AREnemyIncomingDamageEffect.h</title>
<!-- Node1 -->
<g id="Node000001" class="node">
<title>Node1</title>
<g id="a_Node000001"><a xlink:title="AREnemyIncomingDamageEffect header for Alien Ramen.">
<polygon fill="#999999" stroke="#666666" points="251.5,-74 64.5,-74 64.5,-55 251.5,-55 251.5,-74"/>
<text text-anchor="middle" x="158" y="-62" font-family="Helvetica,sans-Serif" font-size="10.00">AREnemyIncomingDamageEffect.h</text>
</a>
</g>
</g>
<!-- Node2 -->
<g id="Node000002" class="node">
<title>Node2</title>
<g id="a_Node000002"><a xlink:title=" ">
<polygon fill="#e0e0e0" stroke="#999999" points="88,-19 0,-19 0,0 88,0 88,-19"/>
<text text-anchor="middle" x="44" y="-7" font-family="Helvetica,sans-Serif" font-size="10.00">CoreMinimal.h</text>
</a>
</g>
</g>
<!-- Node1&#45;&gt;Node2 -->
<g id="edge1_Node000001_Node000002" class="edge">
<title>Node1&#45;&gt;Node2</title>
<g id="a_edge1_Node000001_Node000002"><a xlink:title=" ">
<path fill="none" stroke="#63b8ff" d="M139.68,-54.98C121.34,-46.46 92.89,-33.23 71.77,-23.41"/>
<polygon fill="#63b8ff" stroke="#63b8ff" points="73.19,-20.21 62.65,-19.17 70.24,-26.56 73.19,-20.21"/>
</a>
</g>
</g>
<!-- Node3 -->
<g id="Node000003" class="node">
<title>Node3</title>
<g id="a_Node000003"><a xlink:title=" ">
<polygon fill="#e0e0e0" stroke="#999999" points="210,-19 106,-19 106,0 210,0 210,-19"/>
<text text-anchor="middle" x="158" y="-7" font-family="Helvetica,sans-Serif" font-size="10.00">GameplayEffect.h</text>
</a>
</g>
</g>
<!-- Node1&#45;&gt;Node3 -->
<g id="edge2_Node000001_Node000003" class="edge">
<title>Node1&#45;&gt;Node3</title>
<g id="a_edge2_Node000001_Node000003"><a xlink:title=" ">
<path fill="none" stroke="#63b8ff" d="M158,-54.75C158,-47.8 158,-37.85 158,-29.13"/>
<polygon fill="#63b8ff" stroke="#63b8ff" points="161.5,-29.09 158,-19.09 154.5,-29.09 161.5,-29.09"/>
</a>
</g>
</g>
<!-- Node4 -->
<g id="Node000004" class="node">
<title>Node4</title>
<g id="a_Node000004"><a xlink:title=" ">
<polygon fill="#e0e0e0" stroke="#999999" points="467.5,-19 228.5,-19 228.5,0 467.5,0 467.5,-19"/>
<text text-anchor="middle" x="348" y="-7" font-family="Helvetica,sans-Serif" font-size="10.00">AREnemyIncomingDamageEffect.generated.h</text>
</a>
</g>
</g>
<!-- Node1&#45;&gt;Node4 -->
<g id="edge3_Node000001_Node000004" class="edge">
<title>Node1&#45;&gt;Node4</title>
<g id="a_edge3_Node000001_Node000004"><a xlink:title=" ">
<path fill="none" stroke="#63b8ff" d="M188.53,-54.98C220.7,-46.01 271.56,-31.82 307.17,-21.89"/>
<polygon fill="#63b8ff" stroke="#63b8ff" points="308.54,-25.14 317.23,-19.08 306.66,-18.4 308.54,-25.14"/>
</a>
</g>
</g>
</g>
</svg>
