<?xml version="1.0" encoding="UTF-8" standalone="no"?>
<!DOCTYPE svg PUBLIC "-//W3C//DTD SVG 1.1//EN"
 "http://www.w3.org/Graphics/SVG/1.1/DTD/svg11.dtd">
<!-- Generated by graphviz version 2.43.0 (0)
 -->
<!-- Title: AREnemyAIController.h Pages: 1 -->
<!--zoomable 192 -->

<svg id="main" version="1.1" xmlns="http://www.w3.org/2000/svg" xmlns:xlink="http://www.w3.org/1999/xlink" xml:space="preserve" onload="init(evt)">
<style type="text/css"><![CDATA[
.node, .edge {opacity: 0.7;}
.node.selected, .edge.selected {opacity: 1;}
.edge:hover path { stroke: red; }
.edge:hover polygon { stroke: red; fill: red; }
]]></style>

<defs>
  <circle id="rim" cx="0" cy="0" r="7"/>
  <circle id="rim2" cx="0" cy="0" r="3.5"/>
  <g id="zoomPlus">
    <use xlink:href="#rim" fill="#404040"><set attributeName="fill" to="#808080" begin="zoomplus.mouseover" end="zoomplus.mouseout"/></use>
    <path d="M-4,0h8M0,-4v8" fill="none" stroke="white" stroke-width="1.5" pointer-events="none"/>
  </g>
  <g id="zoomMin">
    <use xlink:href="#rim" fill="#404040"><set attributeName="fill" to="#808080" begin="zoomminus.mouseover" end="zoomminus.mouseout"/></use>
    <path d="M-4,0h8" fill="none" stroke="white" stroke-width="1.5" pointer-events="none"/>
  </g>
  <g id="arrowUp" transform="translate(30 24)">
    <use xlink:href="#rim"/>
    <path pointer-events="none" fill="none" stroke="white" stroke-width="1.5" d="M0,-3.0v7 M-2.5,-0.5L0,-3.0L2.5,-0.5"/>
  </g>
  <g id="arrowRight" transform="rotate(90) translate(36 -43)">
    <use xlink:href="#rim"/>
    <path pointer-events="none" fill="none" stroke="white" stroke-width="1.5" d="M0,-3.0v7 M-2.5,-0.5L0,-3.0L2.5,-0.5"/>
  </g>
  <g id="arrowDown" transform="rotate(180) translate(-30 -48)">
    <use xlink:href="#rim"/>
    <path pointer-events="none" fill="none" stroke="white" stroke-width="1.5" d="M0,-3.0v7 M-2.5,-0.5L0,-3.0L2.5,-0.5"/>
  </g>
  <g id="arrowLeft" transform="rotate(270) translate(-36 17)">
    <use xlink:href="#rim"/>
    <path pointer-events="none" fill="none" stroke="white" stroke-width="1.5" d="M0,-3.0v7 M-2.5,-0.5L0,-3.0L2.5,-0.5"/>
  </g>
  <g id="resetDef">
    <use xlink:href="#rim2" fill="#404040"><set attributeName="fill" to="#808080" begin="reset.mouseover" end="reset.mouseout"/></use>
  </g>
</defs>
<script type="application/ecmascript">
var viewWidth = 1609;
var viewHeight = 192;
var sectionId = 'dynsection-0';
</script>
<script type="application/ecmascript" xlink:href="svg.min.js"/>
<svg id="graph" class="graph">
<g id="viewport">
<title>AREnemyAIController.h</title>
<!-- Node1 -->
<g id="Node000001" class="node">
<title>Node1</title>
<g id="a_Node000001"><a xlink:title="AREnemyAIController header for Alien Ramen.">
<polygon fill="#999999" stroke="#666666" points="1133.5,-184 1003.5,-184 1003.5,-165 1133.5,-165 1133.5,-184"/>
<text text-anchor="middle" x="1068.5" y="-172" font-family="Helvetica,sans-Serif" font-size="10.00">AREnemyAIController.h</text>
</a>
</g>
</g>
<!-- Node2 -->
<g id="Node000002" class="node">
<title>Node2</title>
<g id="a_Node000002"><a xlink:title=" ">
<polygon fill="#e0e0e0" stroke="#999999" points="988.5,-19 900.5,-19 900.5,0 988.5,0 988.5,-19"/>
<text text-anchor="middle" x="944.5" y="-7" font-family="Helvetica,sans-Serif" font-size="10.00">CoreMinimal.h</text>
</a>
</g>
</g>
<!-- Node1&#45;&gt;Node2 -->
<g id="edge1_Node000001_Node000002" class="edge">
<title>Node1&#45;&gt;Node2</title>
<g id="a_edge1_Node000001_Node000002"><a xlink:title=" ">
<path fill="none" stroke="#63b8ff" d="M1106.67,-164.94C1172.61,-148.49 1296.49,-109.21 1249.5,-55 1214.39,-14.5 1069.4,-26.06 998.93,-18.79"/>
<polygon fill="#63b8ff" stroke="#63b8ff" points="999.05,-15.27 988.7,-17.51 998.19,-22.22 999.05,-15.27"/>
</a>
</g>
</g>
<!-- Node3 -->
<g id="Node000003" class="node">
<title>Node3</title>
<g id="a_Node000003"><a xlink:href="ARAIControllerBase_8h.html" target="_top" xlink:title="ARAIControllerBase header for Alien Ramen.">
<polygon fill="white" stroke="#666666" points="314,-74 193,-74 193,-55 314,-55 314,-74"/>
<text text-anchor="middle" x="253.5" y="-62" font-family="Helvetica,sans-Serif" font-size="10.00">ARAIControllerBase.h</text>
</a>
</g>
</g>
<!-- Node1&#45;&gt;Node3 -->
<g id="edge2_Node000001_Node000003" class="edge">
<title>Node1&#45;&gt;Node3</title>
<g id="a_edge2_Node000001_Node000003"><a xlink:title=" ">
<path fill="none" stroke="#63b8ff" d="M1003.42,-171.93C834.38,-167.53 390.21,-153.74 328.5,-129 303.38,-118.93 280.6,-96.96 266.9,-81.7"/>
<polygon fill="#63b8ff" stroke="#63b8ff" points="269.45,-79.31 260.26,-74.03 264.16,-83.89 269.45,-79.31"/>
</a>
</g>
</g>
<!-- Node5 -->
<g id="Node000005" class="node">
<title>Node5</title>
<g id="a_Node000005"><a xlink:title=" ">
<polygon fill="#e0e0e0" stroke="#999999" points="431,-19 292,-19 292,0 431,0 431,-19"/>
<text text-anchor="middle" x="361.5" y="-7" font-family="Helvetica,sans-Serif" font-size="10.00">GameplayTagContainer.h</text>
</a>
</g>
</g>
<!-- Node1&#45;&gt;Node5 -->
<g id="edge7_Node000001_Node000005" class="edge">
<title>Node1&#45;&gt;Node5</title>
<g id="a_edge7_Node000001_Node000005"><a xlink:title=" ">
<path fill="none" stroke="#63b8ff" d="M1003.38,-173.06C849.37,-170.65 468.83,-156.31 377.5,-74 365.24,-62.95 361.74,-44.01 361.01,-29.68"/>
<polygon fill="#63b8ff" stroke="#63b8ff" points="364.5,-29.38 360.9,-19.42 357.5,-29.46 364.5,-29.38"/>
</a>
</g>
</g>
<!-- Node7 -->
<g id="Node000007" class="node">
<title>Node7</title>
<g id="a_Node000007"><a xlink:title=" ">
<polygon fill="#e0e0e0" stroke="#999999" points="1400.5,-129 1296.5,-129 1296.5,-110 1400.5,-110 1400.5,-129"/>
<text text-anchor="middle" x="1348.5" y="-117" font-family="Helvetica,sans-Serif" font-size="10.00">StateTreeEvents.h</text>
</a>
</g>
</g>
<!-- Node1&#45;&gt;Node7 -->
<g id="edge8_Node000001_Node000007" class="edge">
<title>Node1&#45;&gt;Node7</title>
<g id="a_edge8_Node000001_Node000007"><a xlink:title=" ">
<path fill="none" stroke="#63b8ff" d="M1113.49,-164.98C1162.43,-155.72 1240.7,-140.9 1293.32,-130.94"/>
<polygon fill="#63b8ff" stroke="#63b8ff" points="1293.99,-134.38 1303.16,-129.08 1292.68,-127.5 1293.99,-134.38"/>
</a>
</g>
</g>
<!-- Node8 -->
<g id="Node000008" class="node">
<title>Node8</title>
<g id="a_Node000008"><a xlink:href="ARInvaderTypes_8h.html" target="_top" xlink:title="ARInvaderTypes header for Alien Ramen.">
<polygon fill="white" stroke="#666666" points="920.5,-129 816.5,-129 816.5,-110 920.5,-110 920.5,-129"/>
<text text-anchor="middle" x="868.5" y="-117" font-family="Helvetica,sans-Serif" font-size="10.00">ARInvaderTypes.h</text>
</a>
</g>
</g>
<!-- Node1&#45;&gt;Node8 -->
<g id="edge9_Node000001_Node000008" class="edge">
<title>Node1&#45;&gt;Node8</title>
<g id="a_edge9_Node000001_Node000008"><a xlink:title=" ">
<path fill="none" stroke="#63b8ff" d="M1036.37,-164.98C1002.35,-155.97 948.5,-141.7 911,-131.76"/>
<polygon fill="#63b8ff" stroke="#63b8ff" points="911.45,-128.26 900.89,-129.08 909.66,-135.03 911.45,-128.26"/>
</a>
</g>
</g>
<!-- Node19 -->
<g id="Node000019" class="node">
<title>Node19</title>
<g id="a_Node000019"><a xlink:title=" ">
<polygon fill="#e0e0e0" stroke="#999999" points="1600.5,-129 1418.5,-129 1418.5,-110 1600.5,-110 1600.5,-129"/>
<text text-anchor="middle" x="1509.5" y="-117" font-family="Helvetica,sans-Serif" font-size="10.00">AREnemyAIController.generated.h</text>
</a>
</g>
</g>
<!-- Node1&#45;&gt;Node19 -->
<g id="edge26_Node000001_Node000019" class="edge">
<title>Node1&#45;&gt;Node19</title>
<g id="a_edge26_Node000001_Node000019"><a xlink:title=" ">
<path fill="none" stroke="#63b8ff" d="M1133.57,-165.68C1211.97,-156.26 1343.69,-140.43 1428.57,-130.23"/>
<polygon fill="#63b8ff" stroke="#63b8ff" points="1429.17,-133.68 1438.68,-129.01 1428.33,-126.73 1429.17,-133.68"/>
</a>
</g>
</g>
<!-- Node3&#45;&gt;Node2 -->
<g id="edge3_Node000003_Node000002" class="edge">
<title>Node3&#45;&gt;Node2</title>
<g id="a_edge3_Node000003_Node000002"><a xlink:title=" ">
<path fill="none" stroke="#63b8ff" d="M314.22,-58.84C447.31,-48.63 762.99,-24.42 890.09,-14.67"/>
<polygon fill="#63b8ff" stroke="#63b8ff" points="890.65,-18.14 900.35,-13.89 890.11,-11.16 890.65,-18.14"/>
</a>
</g>
</g>
<!-- Node4 -->
<g id="Node000004" class="node">
<title>Node4</title>
<g id="a_Node000004"><a xlink:title=" ">
<polygon fill="#e0e0e0" stroke="#999999" points="83,-19 0,-19 0,0 83,0 83,-19"/>
<text text-anchor="middle" x="41.5" y="-7" font-family="Helvetica,sans-Serif" font-size="10.00">AIController.h</text>
</a>
</g>
</g>
<!-- Node3&#45;&gt;Node4 -->
<g id="edge4_Node000003_Node000004" class="edge">
<title>Node3&#45;&gt;Node4</title>
<g id="a_edge4_Node000003_Node000004"><a xlink:title=" ">
<path fill="none" stroke="#63b8ff" d="M219.44,-54.98C183.08,-45.89 125.33,-31.46 85.53,-21.51"/>
<polygon fill="#63b8ff" stroke="#63b8ff" points="86.38,-18.11 75.83,-19.08 84.68,-24.9 86.38,-18.11"/>
</a>
</g>
</g>
<!-- Node3&#45;&gt;Node5 -->
<g id="edge5_Node000003_Node000005" class="edge">
<title>Node3&#45;&gt;Node5</title>
<g id="a_edge5_Node000003_Node000005"><a xlink:title=" ">
<path fill="none" stroke="#63b8ff" d="M270.85,-54.98C288.07,-46.54 314.7,-33.47 334.65,-23.68"/>
<polygon fill="#63b8ff" stroke="#63b8ff" points="336.4,-26.72 343.83,-19.17 333.31,-20.43 336.4,-26.72"/>
</a>
</g>
</g>
<!-- Node6 -->
<g id="Node000006" class="node">
<title>Node6</title>
<g id="a_Node000006"><a xlink:title=" ">
<polygon fill="#e0e0e0" stroke="#999999" points="274,-19 101,-19 101,0 274,0 274,-19"/>
<text text-anchor="middle" x="187.5" y="-7" font-family="Helvetica,sans-Serif" font-size="10.00">ARAIControllerBase.generated.h</text>
</a>
</g>
</g>
<!-- Node3&#45;&gt;Node6 -->
<g id="edge6_Node000003_Node000006" class="edge">
<title>Node3&#45;&gt;Node6</title>
<g id="a_edge6_Node000003_Node000006"><a xlink:title=" ">
<path fill="none" stroke="#63b8ff" d="M242.9,-54.98C233.04,-47.07 218.15,-35.11 206.28,-25.58"/>
<polygon fill="#63b8ff" stroke="#63b8ff" points="208.29,-22.7 198.3,-19.17 203.9,-28.16 208.29,-22.7"/>
</a>
</g>
</g>
<!-- Node8&#45;&gt;Node2 -->
<g id="edge10_Node000008_Node000002" class="edge">
<title>Node8&#45;&gt;Node2</title>
<g id="a_edge10_Node000008_Node000002"><a xlink:title=" ">
<path fill="none" stroke="#63b8ff" d="M903.94,-109.99C922.76,-103.48 944.26,-92.38 955.5,-74 963.87,-60.31 959.41,-42.03 953.87,-28.59"/>
<polygon fill="#63b8ff" stroke="#63b8ff" points="957,-27.02 949.61,-19.42 950.65,-29.97 957,-27.02"/>
</a>
</g>
</g>
<!-- Node8&#45;&gt;Node5 -->
<g id="edge17_Node000008_Node000005" class="edge">
<title>Node8&#45;&gt;Node5</title>
<g id="a_edge17_Node000008_Node000005"><a xlink:title=" ">
<path fill="none" stroke="#63b8ff" d="M816.1,-119.35C708.63,-120.17 467.63,-117 399.5,-74 383.24,-63.74 373,-43.77 367.31,-28.95"/>
<polygon fill="#63b8ff" stroke="#63b8ff" points="370.53,-27.58 363.94,-19.29 363.92,-29.88 370.53,-27.58"/>
</a>
</g>
</g>
<!-- Node9 -->
<g id="Node000009" class="node">
<title>Node9</title>
<g id="a_Node000009"><a xlink:href="ARColorTypes_8h.html" target="_top" xlink:title="Shared gameplay color types used across enemies/players/rewards.">
<polygon fill="white" stroke="#666666" points="1094.5,-74 1002.5,-74 1002.5,-55 1094.5,-55 1094.5,-74"/>
<text text-anchor="middle" x="1048.5" y="-62" font-family="Helvetica,sans-Serif" font-size="10.00">ARColorTypes.h</text>
</a>
</g>
</g>
<!-- Node8&#45;&gt;Node9 -->
<g id="edge11_Node000008_Node000009" class="edge">
<title>Node8&#45;&gt;Node9</title>
<g id="a_edge11_Node000008_Node000009"><a xlink:title=" ">
<path fill="none" stroke="#63b8ff" d="M897.42,-109.98C927.77,-101.05 975.67,-86.94 1009.38,-77.02"/>
<polygon fill="#63b8ff" stroke="#63b8ff" points="1010.75,-80.26 1019.35,-74.08 1008.77,-73.55 1010.75,-80.26"/>
</a>
</g>
</g>
<!-- Node11 -->
<g id="Node000011" class="node">
<title>Node11</title>
<g id="a_Node000011"><a xlink:href="ARInvaderDropTypes_8h.html" target="_top" xlink:title="Shared invader drop type surface.">
<polygon fill="white" stroke="#666666" points="1240,-74 1113,-74 1113,-55 1240,-55 1240,-74"/>
<text text-anchor="middle" x="1176.5" y="-62" font-family="Helvetica,sans-Serif" font-size="10.00">ARInvaderDropTypes.h</text>
</a>
</g>
</g>
<!-- Node8&#45;&gt;Node11 -->
<g id="edge14_Node000008_Node000011" class="edge">
<title>Node8&#45;&gt;Node11</title>
<g id="a_edge14_Node000008_Node000011"><a xlink:title=" ">
<path fill="none" stroke="#63b8ff" d="M917.99,-109.98C972.13,-100.67 1058.9,-85.74 1116.78,-75.78"/>
<polygon fill="#63b8ff" stroke="#63b8ff" points="1117.62,-79.18 1126.88,-74.04 1116.43,-72.28 1117.62,-79.18"/>
</a>
</g>
</g>
<!-- Node13 -->
<g id="Node000013" class="node">
<title>Node13</title>
<g id="a_Node000013"><a xlink:title=" ">
<polygon fill="#e0e0e0" stroke="#999999" points="622.5,-74 512.5,-74 512.5,-55 622.5,-55 622.5,-74"/>
<text text-anchor="middle" x="567.5" y="-62" font-family="Helvetica,sans-Serif" font-size="10.00">Engine/DataTable.h</text>
</a>
</g>
</g>
<!-- Node8&#45;&gt;Node13 -->
<g id="edge18_Node000008_Node000013" class="edge">
<title>Node8&#45;&gt;Node13</title>
<g id="a_edge18_Node000008_Node000013"><a xlink:title=" ">
<path fill="none" stroke="#63b8ff" d="M820.14,-109.98C767.31,-100.68 682.68,-85.78 626.11,-75.82"/>
<polygon fill="#63b8ff" stroke="#63b8ff" points="626.7,-72.37 616.24,-74.08 625.48,-79.26 626.7,-72.37"/>
</a>
</g>
</g>
<!-- Node14 -->
<g id="Node000014" class="node">
<title>Node14</title>
<g id="a_Node000014"><a xlink:title=" ">
<polygon fill="#e0e0e0" stroke="#999999" points="772,-74 641,-74 641,-55 772,-55 772,-74"/>
<text text-anchor="middle" x="706.5" y="-62" font-family="Helvetica,sans-Serif" font-size="10.00">UObject/SoftObjectPtr.h</text>
</a>
</g>
</g>
<!-- Node8&#45;&gt;Node14 -->
<g id="edge19_Node000008_Node000014" class="edge">
<title>Node8&#45;&gt;Node14</title>
<g id="a_edge19_Node000008_Node000014"><a xlink:title=" ">
<path fill="none" stroke="#63b8ff" d="M842.47,-109.98C815.39,-101.13 772.79,-87.19 742.49,-77.28"/>
<polygon fill="#63b8ff" stroke="#63b8ff" points="743.32,-73.87 732.73,-74.08 741.15,-80.52 743.32,-73.87"/>
</a>
</g>
</g>
<!-- Node15 -->
<g id="Node000015" class="node">
<title>Node15</title>
<g id="a_Node000015"><a xlink:href="ARAbilitySet_8h.html" target="_top" xlink:title="ARAbilitySet header for Alien Ramen.">
<polygon fill="white" stroke="#666666" points="494.5,-74 408.5,-74 408.5,-55 494.5,-55 494.5,-74"/>
<text text-anchor="middle" x="451.5" y="-62" font-family="Helvetica,sans-Serif" font-size="10.00">ARAbilitySet.h</text>
</a>
</g>
</g>
<!-- Node8&#45;&gt;Node15 -->
<g id="edge20_Node000008_Node000015" class="edge">
<title>Node8&#45;&gt;Node15</title>
<g id="a_edge20_Node000008_Node000015"><a xlink:title=" ">
<path fill="none" stroke="#63b8ff" d="M816.43,-112.83C747.54,-105.17 622.09,-90.71 504.84,-74.14"/>
<polygon fill="#63b8ff" stroke="#63b8ff" points="505,-70.63 494.61,-72.69 504.02,-77.56 505,-70.63"/>
</a>
</g>
</g>
<!-- Node18 -->
<g id="Node000018" class="node">
<title>Node18</title>
<g id="a_Node000018"><a xlink:title=" ">
<polygon fill="#e0e0e0" stroke="#999999" points="946.5,-74 790.5,-74 790.5,-55 946.5,-55 946.5,-74"/>
<text text-anchor="middle" x="868.5" y="-62" font-family="Helvetica,sans-Serif" font-size="10.00">ARInvaderTypes.generated.h</text>
</a>
</g>
</g>
<!-- Node8&#45;&gt;Node18 -->
<g id="edge25_Node000008_Node000018" class="edge">
<title>Node8&#45;&gt;Node18</title>
<g id="a_edge25_Node000008_Node000018"><a xlink:title=" ">
<path fill="none" stroke="#63b8ff" d="M868.5,-109.75C868.5,-102.8 868.5,-92.85 868.5,-84.13"/>
<polygon fill="#63b8ff" stroke="#63b8ff" points="872,-84.09 868.5,-74.09 865,-84.09 872,-84.09"/>
</a>
</g>
</g>
<!-- Node9&#45;&gt;Node2 -->
<g id="edge12_Node000009_Node000002" class="edge">
<title>Node9&#45;&gt;Node2</title>
<g id="a_edge12_Node000009_Node000002"><a xlink:title=" ">
<path fill="none" stroke="#63b8ff" d="M1031.79,-54.98C1015.29,-46.57 989.8,-33.59 970.62,-23.81"/>
<polygon fill="#63b8ff" stroke="#63b8ff" points="972.01,-20.59 961.51,-19.17 968.83,-26.83 972.01,-20.59"/>
</a>
</g>
</g>
<!-- Node10 -->
<g id="Node000010" class="node">
<title>Node10</title>
<g id="a_Node000010"><a xlink:title=" ">
<polygon fill="#e0e0e0" stroke="#999999" points="1152,-19 1007,-19 1007,0 1152,0 1152,-19"/>
<text text-anchor="middle" x="1079.5" y="-7" font-family="Helvetica,sans-Serif" font-size="10.00">ARColorTypes.generated.h</text>
</a>
</g>
</g>
<!-- Node9&#45;&gt;Node10 -->
<g id="edge13_Node000009_Node000010" class="edge">
<title>Node9&#45;&gt;Node10</title>
<g id="a_edge13_Node000009_Node000010"><a xlink:title=" ">
<path fill="none" stroke="#63b8ff" d="M1053.62,-54.75C1057.86,-47.49 1064.03,-36.95 1069.28,-27.98"/>
<polygon fill="#63b8ff" stroke="#63b8ff" points="1072.45,-29.49 1074.48,-19.09 1066.41,-25.95 1072.45,-29.49"/>
</a>
</g>
</g>
<!-- Node11&#45;&gt;Node2 -->
<g id="edge15_Node000011_Node000002" class="edge">
<title>Node11&#45;&gt;Node2</title>
<g id="a_edge15_Node000011_Node000002"><a xlink:title=" ">
<path fill="none" stroke="#63b8ff" d="M1139.23,-54.98C1099.18,-45.84 1035.43,-31.27 991.86,-21.32"/>
<polygon fill="#63b8ff" stroke="#63b8ff" points="992.6,-17.9 982.07,-19.08 991.04,-24.72 992.6,-17.9"/>
</a>
</g>
</g>
<!-- Node12 -->
<g id="Node000012" class="node">
<title>Node12</title>
<g id="a_Node000012"><a xlink:title=" ">
<polygon fill="#e0e0e0" stroke="#999999" points="1349,-19 1170,-19 1170,0 1349,0 1349,-19"/>
<text text-anchor="middle" x="1259.5" y="-7" font-family="Helvetica,sans-Serif" font-size="10.00">ARInvaderDropTypes.generated.h</text>
</a>
</g>
</g>
<!-- Node11&#45;&gt;Node12 -->
<g id="edge16_Node000011_Node000012" class="edge">
<title>Node11&#45;&gt;Node12</title>
<g id="a_edge16_Node000011_Node000012"><a xlink:title=" ">
<path fill="none" stroke="#63b8ff" d="M1189.84,-54.98C1202.59,-46.84 1222.05,-34.41 1237.17,-24.76"/>
<polygon fill="#63b8ff" stroke="#63b8ff" points="1239.38,-27.5 1245.92,-19.17 1235.61,-21.6 1239.38,-27.5"/>
</a>
</g>
</g>
<!-- Node15&#45;&gt;Node2 -->
<g id="edge21_Node000015_Node000002" class="edge">
<title>Node15&#45;&gt;Node2</title>
<g id="a_edge21_Node000015_Node000002"><a xlink:title=" ">
<path fill="none" stroke="#63b8ff" d="M494.6,-56.25C497.61,-55.8 500.6,-55.38 503.5,-55 642.46,-36.65 806.94,-21.88 890.27,-14.89"/>
<polygon fill="#63b8ff" stroke="#63b8ff" points="890.59,-18.38 900.27,-14.06 890.01,-11.4 890.59,-18.38"/>
</a>
</g>
</g>
<!-- Node15&#45;&gt;Node5 -->
<g id="edge23_Node000015_Node000005" class="edge">
<title>Node15&#45;&gt;Node5</title>
<g id="a_edge23_Node000015_Node000005"><a xlink:title=" ">
<path fill="none" stroke="#63b8ff" d="M437.04,-54.98C423.08,-46.77 401.71,-34.18 385.25,-24.49"/>
<polygon fill="#63b8ff" stroke="#63b8ff" points="386.62,-21.23 376.22,-19.17 383.06,-27.26 386.62,-21.23"/>
</a>
</g>
</g>
<!-- Node16 -->
<g id="Node000016" class="node">
<title>Node16</title>
<g id="a_Node000016"><a xlink:title=" ">
<polygon fill="#e0e0e0" stroke="#999999" points="718.5,-19 606.5,-19 606.5,0 718.5,0 718.5,-19"/>
<text text-anchor="middle" x="662.5" y="-7" font-family="Helvetica,sans-Serif" font-size="10.00">Engine/DataAsset.h</text>
</a>
</g>
</g>
<!-- Node15&#45;&gt;Node16 -->
<g id="edge22_Node000015_Node000016" class="edge">
<title>Node15&#45;&gt;Node16</title>
<g id="a_edge22_Node000015_Node000016"><a xlink:title=" ">
<path fill="none" stroke="#63b8ff" d="M485.4,-54.98C521.52,-45.91 578.82,-31.52 618.42,-21.57"/>
<polygon fill="#63b8ff" stroke="#63b8ff" points="619.49,-24.91 628.33,-19.08 617.78,-18.12 619.49,-24.91"/>
</a>
</g>
</g>
<!-- Node17 -->
<g id="Node000017" class="node">
<title>Node17</title>
<g id="a_Node000017"><a xlink:title=" ">
<polygon fill="#e0e0e0" stroke="#999999" points="588,-19 449,-19 449,0 588,0 588,-19"/>
<text text-anchor="middle" x="518.5" y="-7" font-family="Helvetica,sans-Serif" font-size="10.00">ARAbilitySet.generated.h</text>
</a>
</g>
</g>
<!-- Node15&#45;&gt;Node17 -->
<g id="edge24_Node000015_Node000017" class="edge">
<title>Node15&#45;&gt;Node17</title>
<g id="a_edge24_Node000015_Node000017"><a xlink:title=" ">
<path fill="none" stroke="#63b8ff" d="M462.26,-54.98C472.27,-47.07 487.39,-35.11 499.43,-25.58"/>
<polygon fill="#63b8ff" stroke="#63b8ff" points="501.87,-28.12 507.54,-19.17 497.53,-22.63 501.87,-28.12"/>
</a>
</g>
</g>
</g>
</svg>

<g id="navigator" transform="translate(0 0)" fill="#404254">
  <rect fill="#f2f5e9" fill-opacity="0.5" stroke="#606060" stroke-width=".5" x="0" y="0" width="60" height="60"/>
  <use id="zoomplus" xlink:href="#zoomPlus" x="17" y="9" onmousedown="handleZoom(evt,'in')"/>
  <use id="zoomminus" xlink:href="#zoomMin" x="42" y="9" onmousedown="handleZoom(evt,'out')"/>
  <use id="reset" xlink:href="#resetDef" x="30" y="36" onmousedown="handleReset()"/>
   <use id="arrowup" xlink:href="#arrowUp" x="0" y="0" onmousedown="handlePan(0,-1)"/>
  <use id="arrowright" xlink:href="#arrowRight" x="0" y="0" onmousedown="handlePan(1,0)"/>
  <use id="arrowdown" xlink:href="#arrowDown" x="0" y="0" onmousedown="handlePan(0,1)"/>
  <use id="arrowleft" xlink:href="#arrowLeft" x="0" y="0" onmousedown="handlePan(-1,0)"/>
</g>
<svg viewBox="0 0 15 15" width="100%" height="30px" preserveAspectRatio="xMaxYMin meet">
 <g id="arrow_out" transform="scale(0.3 0.3)">
  <a xlink:href="AREnemyAIController_8h__incl_org.svg" target="_base">
   <rect id="button" ry="5" rx="5" y="6" x="6" height="38" width="38"
        fill="#f2f5e9" fill-opacity="0.5" stroke="#606060" stroke-width="1.0"/>
   <path id="arrow"
     d="M 11.500037,31.436501 C 11.940474,20.09759 22.043105,11.32322 32.158766,21.979434 L 37.068811,17.246167 C 37.068811,17.246167 37.088388,32 37.088388,32 L 22.160133,31.978069 C 22.160133,31.978069 26.997745,27.140456 26.997745,27.140456 C 18.528582,18.264221 13.291696,25.230495 11.500037,31.436501 z"
     style="fill:#404040;"/>
  </a>
 </g>
</svg>

<style type='text/css'>
<![CDATA[
[data-mouse-over-selected='false'] { opacity: 0.7; }
[data-mouse-over-selected='true']  { opacity: 1.0; }
]]>
</style>
<script type="application/ecmascript"><![CDATA[
document.addEventListener('DOMContentLoaded', (event) => {
  highlightEdges();
  highlightAdjacentNodes();
});
]]></script>
</svg>
