<?xml version="1.0" encoding="UTF-8" standalone="no"?>
<!DOCTYPE svg PUBLIC "-//W3C//DTD SVG 1.1//EN"
 "http://www.w3.org/Graphics/SVG/1.1/DTD/svg11.dtd">
<!-- Generated by graphviz version 2.43.0 (0)
 -->
<!-- Title: ARFactionTypes.h Pages: 1 -->
<svg width="578pt" height="137pt"
 viewBox="0.00 0.00 578.30 137.00" xmlns="http://www.w3.org/2000/svg" xmlns:xlink="http://www.w3.org/1999/xlink">
<g id="graph0" class="graph" transform="scale(1 1) rotate(0) translate(4 133)">
<title>ARFactionTypes.h</title>
<!-- Node1 -->
<g id="Node000001" class="node">
<title>Node1</title>
<g id="a_Node000001"><a xlink:title="Shared faction election types for Alien Ramen.">
<polygon fill="#999999" stroke="#666666" points="262.8,-129 161.8,-129 161.8,-110 262.8,-110 262.8,-129"/>
<text text-anchor="middle" x="212.3" y="-117" font-family="Helvetica,sans-Serif" font-size="10.00">ARFactionTypes.h</text>
</a>
</g>
</g>
<!-- Node2 -->
<g id="Node000002" class="node">
<title>Node2</title>
<g id="a_Node000002"><a xlink:title=" ">
<polygon fill="#e0e0e0" stroke="#999999" points="143.3,-19 55.3,-19 55.3,0 143.3,0 143.3,-19"/>
<text text-anchor="middle" x="99.3" y="-7" font-family="Helvetica,sans-Serif" font-size="10.00">CoreMinimal.h</text>
</a>
</g>
</g>
<!-- Node1&#45;&gt;Node2 -->
<g id="edge1_Node000001_Node000002" class="edge">
<title>Node1&#45;&gt;Node2</title>
<g id="a_edge1_Node000001_Node000002"><a xlink:title=" ">
<path fill="none" stroke="#63b8ff" d="M161.63,-114.76C106.8,-109.54 24.59,-97.88 5.3,-74 -13.46,-50.78 22.93,-32.8 55.75,-21.99"/>
<polygon fill="#63b8ff" stroke="#63b8ff" points="56.81,-25.33 65.31,-19 54.72,-18.65 56.81,-25.33"/>
</a>
</g>
</g>
<!-- Node3 -->
<g id="Node000003" class="node">
<title>Node3</title>
<g id="a_Node000003"><a xlink:title=" ">
<polygon fill="#e0e0e0" stroke="#999999" points="124.3,-74 14.3,-74 14.3,-55 124.3,-55 124.3,-74"/>
<text text-anchor="middle" x="69.3" y="-62" font-family="Helvetica,sans-Serif" font-size="10.00">Engine/DataTable.h</text>
</a>
</g>
</g>
<!-- Node1&#45;&gt;Node3 -->
<g id="edge2_Node000001_Node000003" class="edge">
<title>Node1&#45;&gt;Node3</title>
<g id="a_edge2_Node000001_Node000003"><a xlink:title=" ">
<path fill="none" stroke="#63b8ff" d="M189.32,-109.98C165.8,-101.27 129.01,-87.63 102.36,-77.75"/>
<polygon fill="#63b8ff" stroke="#63b8ff" points="103.29,-74.36 92.69,-74.17 100.85,-80.93 103.29,-74.36"/>
</a>
</g>
</g>
<!-- Node4 -->
<g id="Node000004" class="node">
<title>Node4</title>
<g id="a_Node000004"><a xlink:title=" ">
<polygon fill="#e0e0e0" stroke="#999999" points="281.8,-74 142.8,-74 142.8,-55 281.8,-55 281.8,-74"/>
<text text-anchor="middle" x="212.3" y="-62" font-family="Helvetica,sans-Serif" font-size="10.00">GameplayTagContainer.h</text>
</a>
</g>
</g>
<!-- Node1&#45;&gt;Node4 -->
<g id="edge3_Node000001_Node000004" class="edge">
<title>Node1&#45;&gt;Node4</title>
<g id="a_edge3_Node000001_Node000004"><a xlink:title=" ">
<path fill="none" stroke="#63b8ff" d="M212.3,-109.75C212.3,-102.8 212.3,-92.85 212.3,-84.13"/>
<polygon fill="#63b8ff" stroke="#63b8ff" points="215.8,-84.09 212.3,-74.09 208.8,-84.09 215.8,-84.09"/>
</a>
</g>
</g>
<!-- Node5 -->
<g id="Node000005" class="node">
<title>Node5</title>
<g id="a_Node000005"><a xlink:href="ARPlayerTypes_8h.html" target="_top" xlink:title="Shared player&#45;facing enum types for Alien Ramen gameplay/save/runtime APIs.">
<polygon fill="white" stroke="#666666" points="398.3,-74 300.3,-74 300.3,-55 398.3,-55 398.3,-74"/>
<text text-anchor="middle" x="349.3" y="-62" font-family="Helvetica,sans-Serif" font-size="10.00">ARPlayerTypes.h</text>
</a>
</g>
</g>
<!-- Node1&#45;&gt;Node5 -->
<g id="edge4_Node000001_Node000005" class="edge">
<title>Node1&#45;&gt;Node5</title>
<g id="a_edge4_Node000001_Node000005"><a xlink:title=" ">
<path fill="none" stroke="#63b8ff" d="M234.31,-109.98C256.75,-101.3 291.78,-87.75 317.29,-77.88"/>
<polygon fill="#63b8ff" stroke="#63b8ff" points="318.82,-81.04 326.89,-74.17 316.3,-74.51 318.82,-81.04"/>
</a>
</g>
</g>
<!-- Node7 -->
<g id="Node000007" class="node">
<title>Node7</title>
<g id="a_Node000007"><a xlink:title=" ">
<polygon fill="#e0e0e0" stroke="#999999" points="570.3,-74 416.3,-74 416.3,-55 570.3,-55 570.3,-74"/>
<text text-anchor="middle" x="493.3" y="-62" font-family="Helvetica,sans-Serif" font-size="10.00">ARFactionTypes.generated.h</text>
</a>
</g>
</g>
<!-- Node1&#45;&gt;Node7 -->
<g id="edge7_Node000001_Node000007" class="edge">
<title>Node1&#45;&gt;Node7</title>
<g id="a_edge7_Node000001_Node000007"><a xlink:title=" ">
<path fill="none" stroke="#63b8ff" d="M257.45,-109.98C306.56,-100.72 385.12,-85.9 437.92,-75.94"/>
<polygon fill="#63b8ff" stroke="#63b8ff" points="438.62,-79.37 447.8,-74.08 437.32,-72.5 438.62,-79.37"/>
</a>
</g>
</g>
<!-- Node5&#45;&gt;Node2 -->
<g id="edge5_Node000005_Node000002" class="edge">
<title>Node5&#45;&gt;Node2</title>
<g id="a_edge5_Node000005_Node000002"><a xlink:title=" ">
<path fill="none" stroke="#63b8ff" d="M309.13,-54.98C265.8,-45.8 196.71,-31.15 149.74,-21.19"/>
<polygon fill="#63b8ff" stroke="#63b8ff" points="150.29,-17.73 139.78,-19.08 148.84,-24.58 150.29,-17.73"/>
</a>
</g>
</g>
<!-- Node6 -->
<g id="Node000006" class="node">
<title>Node6</title>
<g id="a_Node000006"><a xlink:title=" ">
<polygon fill="#e0e0e0" stroke="#999999" points="424.3,-19 274.3,-19 274.3,0 424.3,0 424.3,-19"/>
<text text-anchor="middle" x="349.3" y="-7" font-family="Helvetica,sans-Serif" font-size="10.00">ARPlayerTypes.generated.h</text>
</a>
</g>
</g>
<!-- Node5&#45;&gt;Node6 -->
<g id="edge6_Node000005_Node000006" class="edge">
<title>Node5&#45;&gt;Node6</title>
<g id="a_edge6_Node000005_Node000006"><a xlink:title=" ">
<path fill="none" stroke="#63b8ff" d="M349.3,-54.75C349.3,-47.8 349.3,-37.85 349.3,-29.13"/>
<polygon fill="#63b8ff" stroke="#63b8ff" points="352.8,-29.09 349.3,-19.09 345.8,-29.09 352.8,-29.09"/>
</a>
</g>
</g>
</g>
</svg>
