<?xml version="1.0" encoding="UTF-8" standalone="no"?>
<!DOCTYPE svg PUBLIC "-//W3C//DTD SVG 1.1//EN"
 "http://www.w3.org/Graphics/SVG/1.1/DTD/svg11.dtd">
<!-- Generated by graphviz version 2.43.0 (0)
 -->
<!-- Title: ARFactionTypes.h Pages: 1 -->
<svg width="1193pt" height="137pt"
 viewBox="0.00 0.00 1193.00 137.00" xmlns="http://www.w3.org/2000/svg" xmlns:xlink="http://www.w3.org/1999/xlink">
<g id="graph0" class="graph" transform="scale(1 1) rotate(0) translate(4 133)">
<title>ARFactionTypes.h</title>
<!-- Node1 -->
<g id="Node000001" class="node">
<title>Node1</title>
<g id="a_Node000001"><a xlink:title="Shared faction election types for Alien Ramen.">
<polygon fill="#999999" stroke="#666666" points="426,-129 325,-129 325,-110 426,-110 426,-129"/>
<text text-anchor="middle" x="375.5" y="-117" font-family="Helvetica,sans-Serif" font-size="10.00">ARFactionTypes.h</text>
</a>
</g>
</g>
<!-- Node2 -->
<g id="Node000002" class="node">
<title>Node2</title>
<g id="a_Node000002"><a xlink:href="ARFactionSubsystem_8h.html" target="_top" xlink:title="Server&#45;authoritative faction election runtime for Alien Ramen.">
<polygon fill="white" stroke="#666666" points="282.5,-74 154.5,-74 154.5,-55 282.5,-55 282.5,-74"/>
<text text-anchor="middle" x="218.5" y="-62" font-family="Helvetica,sans-Serif" font-size="10.00">ARFactionSubsystem.h</text>
</a>
</g>
</g>
<!-- Node1&#45;&gt;Node2 -->
<g id="edge1_Node000001_Node000002" class="edge">
<title>Node1&#45;&gt;Node2</title>
<g id="a_edge1_Node000001_Node000002"><a xlink:title=" ">
<path fill="none" stroke="#63b8ff" d="M340.45,-106.67C311.18,-96.79 270.13,-82.93 243.92,-74.08"/>
<polygon fill="#63b8ff" stroke="#63b8ff" points="339.68,-110.1 350.28,-109.98 341.92,-103.47 339.68,-110.1"/>
</a>
</g>
</g>
<!-- Node5 -->
<g id="Node000005" class="node">
<title>Node5</title>
<g id="a_Node000005"><a xlink:href="ARSaveGame_8h.html" target="_top" xlink:title="ARSaveGame header for Alien Ramen.">
<polygon fill="white" stroke="#666666" points="649.5,-74 557.5,-74 557.5,-55 649.5,-55 649.5,-74"/>
<text text-anchor="middle" x="603.5" y="-62" font-family="Helvetica,sans-Serif" font-size="10.00">ARSaveGame.h</text>
</a>
</g>
</g>
<!-- Node1&#45;&gt;Node5 -->
<g id="edge4_Node000001_Node000005" class="edge">
<title>Node1&#45;&gt;Node5</title>
<g id="a_edge4_Node000001_Node000005"><a xlink:title=" ">
<path fill="none" stroke="#63b8ff" d="M422,-107.69C464.72,-97.76 527.2,-83.24 566.58,-74.08"/>
<polygon fill="#63b8ff" stroke="#63b8ff" points="421.08,-104.31 412.13,-109.98 422.66,-111.13 421.08,-104.31"/>
</a>
</g>
</g>
<!-- Node3 -->
<g id="Node000003" class="node">
<title>Node3</title>
<g id="a_Node000003"><a xlink:href="ARFactionSubsystem_8cpp_source.html" target="_top" xlink:title=" ">
<polygon fill="white" stroke="#666666" points="288,-19 149,-19 149,0 288,0 288,-19"/>
<text text-anchor="middle" x="218.5" y="-7" font-family="Helvetica,sans-Serif" font-size="10.00">ARFactionSubsystem.cpp</text>
</a>
</g>
</g>
<!-- Node2&#45;&gt;Node3 -->
<g id="edge2_Node000002_Node000003" class="edge">
<title>Node2&#45;&gt;Node3</title>
<g id="a_edge2_Node000002_Node000003"><a xlink:title=" ">
<path fill="none" stroke="#63b8ff" d="M218.5,-44.66C218.5,-35.93 218.5,-25.99 218.5,-19.09"/>
<polygon fill="#63b8ff" stroke="#63b8ff" points="215,-44.75 218.5,-54.75 222,-44.75 215,-44.75"/>
</a>
</g>
</g>
<!-- Node4 -->
<g id="Node000004" class="node">
<title>Node4</title>
<g id="a_Node000004"><a xlink:href="ARShopGameMode_8cpp_source.html" target="_top" xlink:title=" ">
<polygon fill="white" stroke="#666666" points="131,-19 0,-19 0,0 131,0 131,-19"/>
<text text-anchor="middle" x="65.5" y="-7" font-family="Helvetica,sans-Serif" font-size="10.00">ARShopGameMode.cpp</text>
</a>
</g>
</g>
<!-- Node2&#45;&gt;Node4 -->
<g id="edge3_Node000002_Node000004" class="edge">
<title>Node2&#45;&gt;Node4</title>
<g id="a_edge3_Node000002_Node000004"><a xlink:title=" ">
<path fill="none" stroke="#63b8ff" d="M184.35,-51.67C155.82,-41.79 115.81,-27.93 90.27,-19.08"/>
<polygon fill="#63b8ff" stroke="#63b8ff" points="183.32,-55.02 193.92,-54.98 185.61,-48.4 183.32,-55.02"/>
</a>
</g>
</g>
<!-- Node5&#45;&gt;Node3 -->
<g id="edge6_Node000005_Node000003" class="edge">
<title>Node5&#45;&gt;Node3</title>
<g id="a_edge6_Node000005_Node000003"><a xlink:title=" ">
<path fill="none" stroke="#63b8ff" d="M547.34,-55.77C476.26,-45.98 354.25,-29.19 280.51,-19.04"/>
<polygon fill="#63b8ff" stroke="#63b8ff" points="547.06,-59.26 557.44,-57.16 548.01,-52.33 547.06,-59.26"/>
</a>
</g>
</g>
<!-- Node6 -->
<g id="Node000006" class="node">
<title>Node6</title>
<g id="a_Node000006"><a xlink:href="ARDialogueSubsystem_8cpp_source.html" target="_top" xlink:title=" ">
<polygon fill="white" stroke="#666666" points="454.5,-19 306.5,-19 306.5,0 454.5,0 454.5,-19"/>
<text text-anchor="middle" x="380.5" y="-7" font-family="Helvetica,sans-Serif" font-size="10.00">ARDialogueSubsystem.cpp</text>
</a>
</g>
</g>
<!-- Node5&#45;&gt;Node6 -->
<g id="edge5_Node000005_Node000006" class="edge">
<title>Node5&#45;&gt;Node6</title>
<g id="a_edge5_Node000005_Node000006"><a xlink:title=" ">
<path fill="none" stroke="#63b8ff" d="M557.75,-52.63C515.98,-42.7 455.05,-28.22 416.61,-19.08"/>
<polygon fill="#63b8ff" stroke="#63b8ff" points="557.13,-56.08 567.67,-54.98 558.75,-49.27 557.13,-56.08"/>
</a>
</g>
</g>
<!-- Node7 -->
<g id="Node000007" class="node">
<title>Node7</title>
<g id="a_Node000007"><a xlink:href="ARGameInstance_8cpp_source.html" target="_top" xlink:title=" ">
<polygon fill="white" stroke="#666666" points="594,-19 473,-19 473,0 594,0 594,-19"/>
<text text-anchor="middle" x="533.5" y="-7" font-family="Helvetica,sans-Serif" font-size="10.00">ARGameInstance.cpp</text>
</a>
</g>
</g>
<!-- Node5&#45;&gt;Node7 -->
<g id="edge7_Node000005_Node000007" class="edge">
<title>Node5&#45;&gt;Node7</title>
<g id="a_edge7_Node000005_Node000007"><a xlink:title=" ">
<path fill="none" stroke="#63b8ff" d="M584.19,-48.88C571.59,-39.34 555.57,-27.21 544.95,-19.17"/>
<polygon fill="#63b8ff" stroke="#63b8ff" points="582.17,-51.74 592.25,-54.98 586.39,-46.16 582.17,-51.74"/>
</a>
</g>
</g>
<!-- Node8 -->
<g id="Node000008" class="node">
<title>Node8</title>
<g id="a_Node000008"><a xlink:href="ARNPCSubsystem_8cpp_source.html" target="_top" xlink:title=" ">
<polygon fill="white" stroke="#666666" points="737,-19 612,-19 612,0 737,0 737,-19"/>
<text text-anchor="middle" x="674.5" y="-7" font-family="Helvetica,sans-Serif" font-size="10.00">ARNPCSubsystem.cpp</text>
</a>
</g>
</g>
<!-- Node5&#45;&gt;Node8 -->
<g id="edge8_Node000005_Node000008" class="edge">
<title>Node5&#45;&gt;Node8</title>
<g id="a_edge8_Node000005_Node000008"><a xlink:title=" ">
<path fill="none" stroke="#63b8ff" d="M623.09,-48.88C635.87,-39.34 652.11,-27.21 662.89,-19.17"/>
<polygon fill="#63b8ff" stroke="#63b8ff" points="620.83,-46.2 614.91,-54.98 625.01,-51.81 620.83,-46.2"/>
</a>
</g>
</g>
<!-- Node9 -->
<g id="Node000009" class="node">
<title>Node9</title>
<g id="a_Node000009"><a xlink:href="ARSaveGame_8cpp_source.html" target="_top" xlink:title=" ">
<polygon fill="white" stroke="#666666" points="859.5,-19 755.5,-19 755.5,0 859.5,0 859.5,-19"/>
<text text-anchor="middle" x="807.5" y="-7" font-family="Helvetica,sans-Serif" font-size="10.00">ARSaveGame.cpp</text>
</a>
</g>
</g>
<!-- Node5&#45;&gt;Node9 -->
<g id="edge9_Node000005_Node000009" class="edge">
<title>Node5&#45;&gt;Node9</title>
<g id="a_edge9_Node000005_Node000009"><a xlink:title=" ">
<path fill="none" stroke="#63b8ff" d="M646.08,-52.44C684.27,-42.52 739.52,-28.16 774.47,-19.08"/>
<polygon fill="#63b8ff" stroke="#63b8ff" points="645.07,-49.08 636.28,-54.98 646.83,-55.86 645.07,-49.08"/>
</a>
</g>
</g>
<!-- Node10 -->
<g id="Node000010" class="node">
<title>Node10</title>
<g id="a_Node000010"><a xlink:href="ARSaveSubsystem_8cpp_source.html" target="_top" xlink:title=" ">
<polygon fill="white" stroke="#666666" points="1005.5,-19 877.5,-19 877.5,0 1005.5,0 1005.5,-19"/>
<text text-anchor="middle" x="941.5" y="-7" font-family="Helvetica,sans-Serif" font-size="10.00">ARSaveSubsystem.cpp</text>
</a>
</g>
</g>
<!-- Node5&#45;&gt;Node10 -->
<g id="edge10_Node000005_Node000010" class="edge">
<title>Node5&#45;&gt;Node10</title>
<g id="a_edge10_Node000005_Node000010"><a xlink:title=" ">
<path fill="none" stroke="#63b8ff" d="M659.97,-54.65C723.15,-44.74 824.8,-28.8 887.12,-19.03"/>
<polygon fill="#63b8ff" stroke="#63b8ff" points="659.13,-51.23 649.79,-56.24 660.21,-58.15 659.13,-51.23"/>
</a>
</g>
</g>
<!-- Node11 -->
<g id="Node000011" class="node">
<title>Node11</title>
<g id="a_Node000011"><a xlink:href="AlienRamenEditorModule_8cpp_source.html" target="_top" xlink:title=" ">
<polygon fill="white" stroke="#666666" points="1185,-19 1024,-19 1024,0 1185,0 1185,-19"/>
<text text-anchor="middle" x="1104.5" y="-7" font-family="Helvetica,sans-Serif" font-size="10.00">AlienRamenEditorModule.cpp</text>
</a>
</g>
</g>
<!-- Node5&#45;&gt;Node11 -->
<g id="edge11_Node000005_Node000011" class="edge">
<title>Node5&#45;&gt;Node11</title>
<g id="a_edge11_Node000005_Node000011"><a xlink:title=" ">
<path fill="none" stroke="#63b8ff" d="M659.89,-57.53C748.83,-48.13 922.01,-29.8 1024.01,-19.02"/>
<polygon fill="#63b8ff" stroke="#63b8ff" points="659.31,-54.08 649.73,-58.61 660.05,-61.04 659.31,-54.08"/>
</a>
</g>
</g>
</g>
</svg>
