<?xml version="1.0" encoding="UTF-8" standalone="no"?>
<!DOCTYPE svg PUBLIC "-//W3C//DTD SVG 1.1//EN"
 "http://www.w3.org/Graphics/SVG/1.1/DTD/svg11.dtd">
<!-- Generated by graphviz version 2.43.0 (0)
 -->
<!-- Title: ARGameModeBase.h Pages: 1 -->
<svg width="1617pt" height="247pt"
 viewBox="0.00 0.00 1617.09 247.00" xmlns="http://www.w3.org/2000/svg" xmlns:xlink="http://www.w3.org/1999/xlink">
<g id="graph0" class="graph" transform="scale(1 1) rotate(0) translate(4 243)">
<title>ARGameModeBase.h</title>
<!-- Node1 -->
<g id="Node000001" class="node">
<title>Node1</title>
<g id="a_Node000001"><a xlink:title="ARGameModeBase header for Alien Ramen.">
<polygon fill="#999999" stroke="#666666" points="887.59,-239 768.59,-239 768.59,-220 887.59,-220 887.59,-239"/>
<text text-anchor="middle" x="828.09" y="-227" font-family="Helvetica,sans-Serif" font-size="10.00">ARGameModeBase.h</text>
</a>
</g>
</g>
<!-- Node2 -->
<g id="Node000002" class="node">
<title>Node2</title>
<g id="a_Node000002"><a xlink:title=" ">
<polygon fill="#e0e0e0" stroke="#999999" points="417.09,-19 329.09,-19 329.09,0 417.09,0 417.09,-19"/>
<text text-anchor="middle" x="373.09" y="-7" font-family="Helvetica,sans-Serif" font-size="10.00">CoreMinimal.h</text>
</a>
</g>
</g>
<!-- Node1&#45;&gt;Node2 -->
<g id="edge1_Node000001_Node000002" class="edge">
<title>Node1&#45;&gt;Node2</title>
<g id="a_edge1_Node000001_Node000002"><a xlink:title=" ">
<path fill="none" stroke="#63b8ff" d="M768.3,-227.58C594.05,-223.41 93.59,-200.46 8.09,-74 -17.17,-36.64 3.64,-61.46 318.55,-19.01"/>
<polygon fill="#63b8ff" stroke="#63b8ff" points="319.47,-22.42 328.91,-17.61 318.53,-15.48 319.47,-22.42"/>
</a>
</g>
</g>
<!-- Node3 -->
<g id="Node000003" class="node">
<title>Node3</title>
<g id="a_Node000003"><a xlink:href="ARInvaderSpicyTrackTypes_8h.html" target="_top" xlink:title="Shared Invader spicy&#45;track enums/structs for runtime + data authoring.">
<polygon fill="white" stroke="#666666" points="536.59,-184 381.59,-184 381.59,-165 536.59,-165 536.59,-184"/>
<text text-anchor="middle" x="459.09" y="-172" font-family="Helvetica,sans-Serif" font-size="10.00">ARInvaderSpicyTrackTypes.h</text>
</a>
</g>
</g>
<!-- Node1&#45;&gt;Node3 -->
<g id="edge2_Node000001_Node000003" class="edge">
<title>Node1&#45;&gt;Node3</title>
<g id="a_edge2_Node000001_Node000003"><a xlink:title=" ">
<path fill="none" stroke="#63b8ff" d="M768.8,-219.98C703.27,-210.57 597.83,-195.43 528.49,-185.47"/>
<polygon fill="#63b8ff" stroke="#63b8ff" points="528.93,-182 518.54,-184.04 527.94,-188.92 528.93,-182"/>
</a>
</g>
</g>
<!-- Node7 -->
<g id="Node000007" class="node">
<title>Node7</title>
<g id="a_Node000007"><a xlink:title=" ">
<polygon fill="#e0e0e0" stroke="#999999" points="1266.59,-19 1127.59,-19 1127.59,0 1266.59,0 1266.59,-19"/>
<text text-anchor="middle" x="1197.09" y="-7" font-family="Helvetica,sans-Serif" font-size="10.00">GameplayTagContainer.h</text>
</a>
</g>
</g>
<!-- Node1&#45;&gt;Node7 -->
<g id="edge31_Node000001_Node000007" class="edge">
<title>Node1&#45;&gt;Node7</title>
<g id="a_edge31_Node000001_Node000007"><a xlink:title=" ">
<path fill="none" stroke="#63b8ff" d="M862.29,-219.99C927.14,-202.39 1069.55,-156.57 1160.09,-74 1173.76,-61.53 1183.82,-42.81 1189.97,-28.92"/>
<polygon fill="#63b8ff" stroke="#63b8ff" points="1193.31,-30.01 1193.9,-19.43 1186.84,-27.33 1193.31,-30.01"/>
</a>
</g>
</g>
<!-- Node16 -->
<g id="Node000016" class="node">
<title>Node16</title>
<g id="a_Node000016"><a xlink:href="ARPlayerTypes_8h.html" target="_top" xlink:title="Shared player&#45;facing enum types for Alien Ramen gameplay/save/runtime APIs.">
<polygon fill="white" stroke="#666666" points="252.09,-129 154.09,-129 154.09,-110 252.09,-110 252.09,-129"/>
<text text-anchor="middle" x="203.09" y="-117" font-family="Helvetica,sans-Serif" font-size="10.00">ARPlayerTypes.h</text>
</a>
</g>
</g>
<!-- Node1&#45;&gt;Node16 -->
<g id="edge29_Node000001_Node000016" class="edge">
<title>Node1&#45;&gt;Node16</title>
<g id="a_edge29_Node000001_Node000016"><a xlink:title=" ">
<path fill="none" stroke="#63b8ff" d="M768.4,-227.58C680.68,-225.13 512.28,-216.22 373.09,-184 321.35,-172.02 264.04,-148.29 230.93,-133.47"/>
<polygon fill="#63b8ff" stroke="#63b8ff" points="232.02,-130.12 221.47,-129.18 229.13,-136.5 232.02,-130.12"/>
</a>
</g>
</g>
<!-- Node19 -->
<g id="Node000019" class="node">
<title>Node19</title>
<g id="a_Node000019"><a xlink:title=" ">
<polygon fill="#e0e0e0" stroke="#999999" points="1418.59,-184 1225.59,-184 1225.59,-165 1418.59,-165 1418.59,-184"/>
<text text-anchor="middle" x="1322.09" y="-172" font-family="Helvetica,sans-Serif" font-size="10.00">GameFramework/GameModeBase.h</text>
</a>
</g>
</g>
<!-- Node1&#45;&gt;Node19 -->
<g id="edge30_Node000001_Node000019" class="edge">
<title>Node1&#45;&gt;Node19</title>
<g id="a_edge30_Node000001_Node000019"><a xlink:title=" ">
<path fill="none" stroke="#63b8ff" d="M887.68,-222.11C973.52,-212.9 1132.63,-195.83 1232.62,-185.1"/>
<polygon fill="#63b8ff" stroke="#63b8ff" points="1233.14,-188.56 1242.71,-184.02 1232.39,-181.6 1233.14,-188.56"/>
</a>
</g>
</g>
<!-- Node20 -->
<g id="Node000020" class="node">
<title>Node20</title>
<g id="a_Node000020"><a xlink:title=" ">
<polygon fill="#e0e0e0" stroke="#999999" points="1609.09,-184 1437.09,-184 1437.09,-165 1609.09,-165 1609.09,-184"/>
<text text-anchor="middle" x="1523.09" y="-172" font-family="Helvetica,sans-Serif" font-size="10.00">ARGameModeBase.generated.h</text>
</a>
</g>
</g>
<!-- Node1&#45;&gt;Node20 -->
<g id="edge32_Node000001_Node000020" class="edge">
<title>Node1&#45;&gt;Node20</title>
<g id="a_edge32_Node000001_Node000020"><a xlink:title=" ">
<path fill="none" stroke="#63b8ff" d="M887.73,-224.38C993.86,-216.98 1222.76,-200.72 1426.87,-184.09"/>
<polygon fill="#63b8ff" stroke="#63b8ff" points="1427.2,-187.57 1436.88,-183.27 1426.63,-180.6 1427.2,-187.57"/>
</a>
</g>
</g>
<!-- Node3&#45;&gt;Node2 -->
<g id="edge3_Node000003_Node000002" class="edge">
<title>Node3&#45;&gt;Node2</title>
<g id="a_edge3_Node000003_Node000002"><a xlink:title=" ">
<path fill="none" stroke="#63b8ff" d="M445.45,-164.82C423.01,-149.62 379.09,-115.79 362.09,-74 356.1,-59.28 360.15,-41.35 364.93,-28.3"/>
<polygon fill="#63b8ff" stroke="#63b8ff" points="368.18,-29.61 368.75,-19.03 361.7,-26.94 368.18,-29.61"/>
</a>
</g>
</g>
<!-- Node4 -->
<g id="Node000004" class="node">
<title>Node4</title>
<g id="a_Node000004"><a xlink:href="ARColorTypes_8h.html" target="_top" xlink:title="Shared gameplay color types used across enemies/players/rewards.">
<polygon fill="white" stroke="#666666" points="315.09,-74 223.09,-74 223.09,-55 315.09,-55 315.09,-74"/>
<text text-anchor="middle" x="269.09" y="-62" font-family="Helvetica,sans-Serif" font-size="10.00">ARColorTypes.h</text>
</a>
</g>
</g>
<!-- Node3&#45;&gt;Node4 -->
<g id="edge4_Node000003_Node000004" class="edge">
<title>Node3&#45;&gt;Node4</title>
<g id="a_edge4_Node000003_Node000004"><a xlink:title=" ">
<path fill="none" stroke="#63b8ff" d="M418.46,-164.98C391.62,-158.1 356.47,-146.62 329.09,-129 309.84,-116.61 292.43,-96.76 281.39,-82.55"/>
<polygon fill="#63b8ff" stroke="#63b8ff" points="283.89,-80.06 275.09,-74.16 278.29,-84.26 283.89,-80.06"/>
</a>
</g>
</g>
<!-- Node6 -->
<g id="Node000006" class="node">
<title>Node6</title>
<g id="a_Node000006"><a xlink:title=" ">
<polygon fill="#e0e0e0" stroke="#999999" points="481.09,-74 371.09,-74 371.09,-55 481.09,-55 481.09,-74"/>
<text text-anchor="middle" x="426.09" y="-62" font-family="Helvetica,sans-Serif" font-size="10.00">Engine/DataTable.h</text>
</a>
</g>
</g>
<!-- Node3&#45;&gt;Node6 -->
<g id="edge7_Node000003_Node000006" class="edge">
<title>Node3&#45;&gt;Node6</title>
<g id="a_edge7_Node000003_Node000006"><a xlink:title=" ">
<path fill="none" stroke="#63b8ff" d="M456.37,-164.98C453.52,-156.03 448.94,-141.54 445.09,-129 440.44,-113.85 435.3,-96.63 431.54,-83.95"/>
<polygon fill="#63b8ff" stroke="#63b8ff" points="434.83,-82.74 428.63,-74.14 428.12,-84.72 434.83,-82.74"/>
</a>
</g>
</g>
<!-- Node3&#45;&gt;Node7 -->
<g id="edge8_Node000003_Node000007" class="edge">
<title>Node3&#45;&gt;Node7</title>
<g id="a_edge8_Node000003_Node000007"><a xlink:title=" ">
<path fill="none" stroke="#63b8ff" d="M536.6,-168.51C691.1,-157.52 1031.42,-127.85 1134.09,-74 1155.27,-62.89 1173.77,-42.16 1185.15,-27.41"/>
<polygon fill="#63b8ff" stroke="#63b8ff" points="1188.14,-29.26 1191.27,-19.14 1182.51,-25.09 1188.14,-29.26"/>
</a>
</g>
</g>
<!-- Node8 -->
<g id="Node000008" class="node">
<title>Node8</title>
<g id="a_Node000008"><a xlink:title=" ">
<polygon fill="#e0e0e0" stroke="#999999" points="630.59,-74 499.59,-74 499.59,-55 630.59,-55 630.59,-74"/>
<text text-anchor="middle" x="565.09" y="-62" font-family="Helvetica,sans-Serif" font-size="10.00">UObject/SoftObjectPtr.h</text>
</a>
</g>
</g>
<!-- Node3&#45;&gt;Node8 -->
<g id="edge9_Node000003_Node000008" class="edge">
<title>Node3&#45;&gt;Node8</title>
<g id="a_edge9_Node000003_Node000008"><a xlink:title=" ">
<path fill="none" stroke="#63b8ff" d="M459.58,-164.68C460.74,-151.4 464.69,-126.09 478.09,-110 490.34,-95.29 508.7,-84.9 525.4,-77.88"/>
<polygon fill="#63b8ff" stroke="#63b8ff" points="526.94,-81.03 534.98,-74.13 524.39,-74.52 526.94,-81.03"/>
</a>
</g>
</g>
<!-- Node9 -->
<g id="Node000009" class="node">
<title>Node9</title>
<g id="a_Node000009"><a xlink:href="ARInvaderTypes_8h.html" target="_top" xlink:title="ARInvaderTypes header for Alien Ramen.">
<polygon fill="white" stroke="#666666" points="817.09,-129 713.09,-129 713.09,-110 817.09,-110 817.09,-129"/>
<text text-anchor="middle" x="765.09" y="-117" font-family="Helvetica,sans-Serif" font-size="10.00">ARInvaderTypes.h</text>
</a>
</g>
</g>
<!-- Node3&#45;&gt;Node9 -->
<g id="edge10_Node000003_Node000009" class="edge">
<title>Node3&#45;&gt;Node9</title>
<g id="a_edge10_Node000003_Node000009"><a xlink:title=" ">
<path fill="none" stroke="#63b8ff" d="M508.26,-164.98C562.04,-155.67 648.25,-140.74 705.76,-130.78"/>
<polygon fill="#63b8ff" stroke="#63b8ff" points="706.54,-134.19 715.8,-129.04 705.34,-127.3 706.54,-134.19"/>
</a>
</g>
</g>
<!-- Node3&#45;&gt;Node16 -->
<g id="edge25_Node000003_Node000016" class="edge">
<title>Node3&#45;&gt;Node16</title>
<g id="a_edge25_Node000003_Node000016"><a xlink:title=" ">
<path fill="none" stroke="#63b8ff" d="M417.96,-164.98C373.49,-155.78 302.54,-141.09 254.44,-131.13"/>
<polygon fill="#63b8ff" stroke="#63b8ff" points="255.05,-127.68 244.54,-129.08 253.63,-134.54 255.05,-127.68"/>
</a>
</g>
</g>
<!-- Node18 -->
<g id="Node000018" class="node">
<title>Node18</title>
<g id="a_Node000018"><a xlink:title=" ">
<polygon fill="#e0e0e0" stroke="#999999" points="695.09,-129 487.09,-129 487.09,-110 695.09,-110 695.09,-129"/>
<text text-anchor="middle" x="591.09" y="-117" font-family="Helvetica,sans-Serif" font-size="10.00">ARInvaderSpicyTrackTypes.generated.h</text>
</a>
</g>
</g>
<!-- Node3&#45;&gt;Node18 -->
<g id="edge28_Node000003_Node000018" class="edge">
<title>Node3&#45;&gt;Node18</title>
<g id="a_edge28_Node000003_Node000018"><a xlink:title=" ">
<path fill="none" stroke="#63b8ff" d="M480.3,-164.98C501.82,-156.34 535.37,-142.87 559.92,-133.02"/>
<polygon fill="#63b8ff" stroke="#63b8ff" points="561.52,-136.14 569.5,-129.17 558.91,-129.65 561.52,-136.14"/>
</a>
</g>
</g>
<!-- Node4&#45;&gt;Node2 -->
<g id="edge5_Node000004_Node000002" class="edge">
<title>Node4&#45;&gt;Node2</title>
<g id="a_edge5_Node000004_Node000002"><a xlink:title=" ">
<path fill="none" stroke="#63b8ff" d="M285.8,-54.98C302.3,-46.57 327.79,-33.59 346.97,-23.81"/>
<polygon fill="#63b8ff" stroke="#63b8ff" points="348.76,-26.83 356.08,-19.17 345.58,-20.59 348.76,-26.83"/>
</a>
</g>
</g>
<!-- Node5 -->
<g id="Node000005" class="node">
<title>Node5</title>
<g id="a_Node000005"><a xlink:title=" ">
<polygon fill="#e0e0e0" stroke="#999999" points="310.59,-19 165.59,-19 165.59,0 310.59,0 310.59,-19"/>
<text text-anchor="middle" x="238.09" y="-7" font-family="Helvetica,sans-Serif" font-size="10.00">ARColorTypes.generated.h</text>
</a>
</g>
</g>
<!-- Node4&#45;&gt;Node5 -->
<g id="edge6_Node000004_Node000005" class="edge">
<title>Node4&#45;&gt;Node5</title>
<g id="a_edge6_Node000004_Node000005"><a xlink:title=" ">
<path fill="none" stroke="#63b8ff" d="M263.97,-54.75C259.73,-47.49 253.56,-36.95 248.32,-27.98"/>
<polygon fill="#63b8ff" stroke="#63b8ff" points="251.18,-25.95 243.11,-19.09 245.14,-29.49 251.18,-25.95"/>
</a>
</g>
</g>
<!-- Node9&#45;&gt;Node2 -->
<g id="edge11_Node000009_Node000002" class="edge">
<title>Node9&#45;&gt;Node2</title>
<g id="a_edge11_Node000009_Node000002"><a xlink:title=" ">
<path fill="none" stroke="#63b8ff" d="M748.43,-109.96C715.06,-92.85 642.93,-55.93 640.09,-55 568.79,-31.56 482.54,-20.05 427.74,-14.7"/>
<polygon fill="#63b8ff" stroke="#63b8ff" points="427.83,-11.2 417.55,-13.75 427.18,-18.17 427.83,-11.2"/>
</a>
</g>
</g>
<!-- Node9&#45;&gt;Node4 -->
<g id="edge12_Node000009_Node000004" class="edge">
<title>Node9&#45;&gt;Node4</title>
<g id="a_edge12_Node000009_Node000004"><a xlink:title=" ">
<path fill="none" stroke="#63b8ff" d="M712.86,-111.09C709.9,-110.71 706.96,-110.35 704.09,-110 568.25,-93.59 408.07,-78.23 325.15,-70.58"/>
<polygon fill="#63b8ff" stroke="#63b8ff" points="325.47,-67.09 315.19,-69.66 324.82,-74.06 325.47,-67.09"/>
</a>
</g>
</g>
<!-- Node9&#45;&gt;Node6 -->
<g id="edge17_Node000009_Node000006" class="edge">
<title>Node9&#45;&gt;Node6</title>
<g id="a_edge17_Node000009_Node000006"><a xlink:title=" ">
<path fill="none" stroke="#63b8ff" d="M712.87,-110.33C653.1,-100.99 555.18,-85.68 490.68,-75.6"/>
<polygon fill="#63b8ff" stroke="#63b8ff" points="491.04,-72.11 480.62,-74.03 489.96,-79.03 491.04,-72.11"/>
</a>
</g>
</g>
<!-- Node9&#45;&gt;Node7 -->
<g id="edge16_Node000009_Node000007" class="edge">
<title>Node9&#45;&gt;Node7</title>
<g id="a_edge16_Node000009_Node000007"><a xlink:title=" ">
<path fill="none" stroke="#63b8ff" d="M817.09,-118.87C884.85,-117.75 1006,-110.2 1102.09,-74 1131.93,-62.76 1161.74,-40.61 1179.8,-25.67"/>
<polygon fill="#63b8ff" stroke="#63b8ff" points="1182.31,-28.14 1187.67,-19 1177.78,-22.8 1182.31,-28.14"/>
</a>
</g>
</g>
<!-- Node9&#45;&gt;Node8 -->
<g id="edge18_Node000009_Node000008" class="edge">
<title>Node9&#45;&gt;Node8</title>
<g id="a_edge18_Node000009_Node000008"><a xlink:title=" ">
<path fill="none" stroke="#63b8ff" d="M732.96,-109.98C698.94,-100.97 645.1,-86.7 607.59,-76.76"/>
<polygon fill="#63b8ff" stroke="#63b8ff" points="608.04,-73.26 597.48,-74.08 606.25,-80.03 608.04,-73.26"/>
</a>
</g>
</g>
<!-- Node10 -->
<g id="Node000010" class="node">
<title>Node10</title>
<g id="a_Node000010"><a xlink:href="ARInvaderDropTypes_8h.html" target="_top" xlink:title="Shared invader drop type surface.">
<polygon fill="white" stroke="#666666" points="988.59,-74 861.59,-74 861.59,-55 988.59,-55 988.59,-74"/>
<text text-anchor="middle" x="925.09" y="-62" font-family="Helvetica,sans-Serif" font-size="10.00">ARInvaderDropTypes.h</text>
</a>
</g>
</g>
<!-- Node9&#45;&gt;Node10 -->
<g id="edge13_Node000009_Node000010" class="edge">
<title>Node9&#45;&gt;Node10</title>
<g id="a_edge13_Node000009_Node000010"><a xlink:title=" ">
<path fill="none" stroke="#63b8ff" d="M790.8,-109.98C817.54,-101.13 859.62,-87.19 889.54,-77.28"/>
<polygon fill="#63b8ff" stroke="#63b8ff" points="890.79,-80.55 899.18,-74.08 888.59,-73.9 890.79,-80.55"/>
</a>
</g>
</g>
<!-- Node12 -->
<g id="Node000012" class="node">
<title>Node12</title>
<g id="a_Node000012"><a xlink:href="ARAbilitySet_8h.html" target="_top" xlink:title="ARAbilitySet header for Alien Ramen.">
<polygon fill="white" stroke="#666666" points="1093.09,-74 1007.09,-74 1007.09,-55 1093.09,-55 1093.09,-74"/>
<text text-anchor="middle" x="1050.09" y="-62" font-family="Helvetica,sans-Serif" font-size="10.00">ARAbilitySet.h</text>
</a>
</g>
</g>
<!-- Node9&#45;&gt;Node12 -->
<g id="edge19_Node000009_Node000012" class="edge">
<title>Node9&#45;&gt;Node12</title>
<g id="a_edge19_Node000009_Node000012"><a xlink:title=" ">
<path fill="none" stroke="#63b8ff" d="M810.88,-109.98C861.58,-100.56 943.22,-85.38 996.76,-75.42"/>
<polygon fill="#63b8ff" stroke="#63b8ff" points="997.56,-78.83 1006.75,-73.56 996.28,-71.95 997.56,-78.83"/>
</a>
</g>
</g>
<!-- Node15 -->
<g id="Node000015" class="node">
<title>Node15</title>
<g id="a_Node000015"><a xlink:title=" ">
<polygon fill="#e0e0e0" stroke="#999999" points="843.09,-74 687.09,-74 687.09,-55 843.09,-55 843.09,-74"/>
<text text-anchor="middle" x="765.09" y="-62" font-family="Helvetica,sans-Serif" font-size="10.00">ARInvaderTypes.generated.h</text>
</a>
</g>
</g>
<!-- Node9&#45;&gt;Node15 -->
<g id="edge24_Node000009_Node000015" class="edge">
<title>Node9&#45;&gt;Node15</title>
<g id="a_edge24_Node000009_Node000015"><a xlink:title=" ">
<path fill="none" stroke="#63b8ff" d="M765.09,-109.75C765.09,-102.8 765.09,-92.85 765.09,-84.13"/>
<polygon fill="#63b8ff" stroke="#63b8ff" points="768.59,-84.09 765.09,-74.09 761.59,-84.09 768.59,-84.09"/>
</a>
</g>
</g>
<!-- Node10&#45;&gt;Node2 -->
<g id="edge14_Node000010_Node000002" class="edge">
<title>Node10&#45;&gt;Node2</title>
<g id="a_edge14_Node000010_Node000002"><a xlink:title=" ">
<path fill="none" stroke="#63b8ff" d="M861.4,-56C858.25,-55.65 855.14,-55.32 852.09,-55 698.28,-38.9 516.37,-22.81 427.48,-15.14"/>
<polygon fill="#63b8ff" stroke="#63b8ff" points="427.63,-11.64 417.37,-14.27 427.03,-18.61 427.63,-11.64"/>
</a>
</g>
</g>
<!-- Node11 -->
<g id="Node000011" class="node">
<title>Node11</title>
<g id="a_Node000011"><a xlink:title=" ">
<polygon fill="#e0e0e0" stroke="#999999" points="821.59,-19 642.59,-19 642.59,0 821.59,0 821.59,-19"/>
<text text-anchor="middle" x="732.09" y="-7" font-family="Helvetica,sans-Serif" font-size="10.00">ARInvaderDropTypes.generated.h</text>
</a>
</g>
</g>
<!-- Node10&#45;&gt;Node11 -->
<g id="edge15_Node000010_Node000011" class="edge">
<title>Node10&#45;&gt;Node11</title>
<g id="a_edge15_Node000010_Node000011"><a xlink:title=" ">
<path fill="none" stroke="#63b8ff" d="M894.08,-54.98C861.26,-45.97 809.3,-31.7 773.1,-21.76"/>
<polygon fill="#63b8ff" stroke="#63b8ff" points="773.91,-18.36 763.34,-19.08 772.06,-25.11 773.91,-18.36"/>
</a>
</g>
</g>
<!-- Node12&#45;&gt;Node2 -->
<g id="edge20_Node000012_Node000002" class="edge">
<title>Node12&#45;&gt;Node2</title>
<g id="a_edge20_Node000012_Node000002"><a xlink:title=" ">
<path fill="none" stroke="#63b8ff" d="M1007,-56.15C1003.99,-55.73 1001,-55.34 998.09,-55 787.71,-30.37 535.78,-17.46 427.22,-12.69"/>
<polygon fill="#63b8ff" stroke="#63b8ff" points="427.31,-9.2 417.17,-12.26 427.01,-16.19 427.31,-9.2"/>
</a>
</g>
</g>
<!-- Node12&#45;&gt;Node7 -->
<g id="edge22_Node000012_Node000007" class="edge">
<title>Node12&#45;&gt;Node7</title>
<g id="a_edge22_Node000012_Node000007"><a xlink:title=" ">
<path fill="none" stroke="#63b8ff" d="M1073.71,-54.98C1098,-46.23 1136.04,-32.51 1163.47,-22.62"/>
<polygon fill="#63b8ff" stroke="#63b8ff" points="1164.82,-25.85 1173.04,-19.17 1162.45,-19.27 1164.82,-25.85"/>
</a>
</g>
</g>
<!-- Node13 -->
<g id="Node000013" class="node">
<title>Node13</title>
<g id="a_Node000013"><a xlink:title=" ">
<polygon fill="#e0e0e0" stroke="#999999" points="952.09,-19 840.09,-19 840.09,0 952.09,0 952.09,-19"/>
<text text-anchor="middle" x="896.09" y="-7" font-family="Helvetica,sans-Serif" font-size="10.00">Engine/DataAsset.h</text>
</a>
</g>
</g>
<!-- Node12&#45;&gt;Node13 -->
<g id="edge21_Node000012_Node000013" class="edge">
<title>Node12&#45;&gt;Node13</title>
<g id="a_edge21_Node000012_Node000013"><a xlink:title=" ">
<path fill="none" stroke="#63b8ff" d="M1025.35,-54.98C999.72,-46.16 959.46,-32.31 930.68,-22.41"/>
<polygon fill="#63b8ff" stroke="#63b8ff" points="931.62,-19.03 921.03,-19.08 929.34,-25.65 931.62,-19.03"/>
</a>
</g>
</g>
<!-- Node14 -->
<g id="Node000014" class="node">
<title>Node14</title>
<g id="a_Node000014"><a xlink:title=" ">
<polygon fill="#e0e0e0" stroke="#999999" points="1109.59,-19 970.59,-19 970.59,0 1109.59,0 1109.59,-19"/>
<text text-anchor="middle" x="1040.09" y="-7" font-family="Helvetica,sans-Serif" font-size="10.00">ARAbilitySet.generated.h</text>
</a>
</g>
</g>
<!-- Node12&#45;&gt;Node14 -->
<g id="edge23_Node000012_Node000014" class="edge">
<title>Node12&#45;&gt;Node14</title>
<g id="a_edge23_Node000012_Node000014"><a xlink:title=" ">
<path fill="none" stroke="#63b8ff" d="M1048.44,-54.75C1047.13,-47.8 1045.25,-37.85 1043.61,-29.13"/>
<polygon fill="#63b8ff" stroke="#63b8ff" points="1047.01,-28.27 1041.71,-19.09 1040.13,-29.56 1047.01,-28.27"/>
</a>
</g>
</g>
<!-- Node16&#45;&gt;Node2 -->
<g id="edge26_Node000016_Node000002" class="edge">
<title>Node16&#45;&gt;Node2</title>
<g id="a_edge26_Node000016_Node000002"><a xlink:title=" ">
<path fill="none" stroke="#63b8ff" d="M201.94,-109.88C200.65,-96.4 200.29,-70.28 214.09,-55 228.22,-39.36 278.57,-27.01 318.88,-19.32"/>
<polygon fill="#63b8ff" stroke="#63b8ff" points="319.68,-22.73 328.88,-17.47 318.41,-15.85 319.68,-22.73"/>
</a>
</g>
</g>
<!-- Node17 -->
<g id="Node000017" class="node">
<title>Node17</title>
<g id="a_Node000017"><a xlink:title=" ">
<polygon fill="#e0e0e0" stroke="#999999" points="167.09,-74 17.09,-74 17.09,-55 167.09,-55 167.09,-74"/>
<text text-anchor="middle" x="92.09" y="-62" font-family="Helvetica,sans-Serif" font-size="10.00">ARPlayerTypes.generated.h</text>
</a>
</g>
</g>
<!-- Node16&#45;&gt;Node17 -->
<g id="edge27_Node000016_Node000017" class="edge">
<title>Node16&#45;&gt;Node17</title>
<g id="a_edge27_Node000016_Node000017"><a xlink:title=" ">
<path fill="none" stroke="#63b8ff" d="M185.26,-109.98C167.48,-101.5 139.94,-88.35 119.41,-78.54"/>
<polygon fill="#63b8ff" stroke="#63b8ff" points="120.78,-75.32 110.25,-74.17 117.77,-81.64 120.78,-75.32"/>
</a>
</g>
</g>
</g>
</svg>
