<?xml version="1.0" encoding="UTF-8" standalone="no"?>
<!DOCTYPE svg PUBLIC "-//W3C//DTD SVG 1.1//EN"
 "http://www.w3.org/Graphics/SVG/1.1/DTD/svg11.dtd">
<!-- Generated by graphviz version 2.43.0 (0)
 -->
<!-- Title: ARGameStateBase.h Pages: 1 -->
<!--zoomable 192 -->

<svg id="main" version="1.1" xmlns="http://www.w3.org/2000/svg" xmlns:xlink="http://www.w3.org/1999/xlink" xml:space="preserve" onload="init(evt)">
<style type="text/css"><![CDATA[
.node, .edge {opacity: 0.7;}
.node.selected, .edge.selected {opacity: 1;}
.edge:hover path { stroke: red; }
.edge:hover polygon { stroke: red; fill: red; }
]]></style>

<defs>
  <circle id="rim" cx="0" cy="0" r="7"/>
  <circle id="rim2" cx="0" cy="0" r="3.5"/>
  <g id="zoomPlus">
    <use xlink:href="#rim" fill="#404040"><set attributeName="fill" to="#808080" begin="zoomplus.mouseover" end="zoomplus.mouseout"/></use>
    <path d="M-4,0h8M0,-4v8" fill="none" stroke="white" stroke-width="1.5" pointer-events="none"/>
  </g>
  <g id="zoomMin">
    <use xlink:href="#rim" fill="#404040"><set attributeName="fill" to="#808080" begin="zoomminus.mouseover" end="zoomminus.mouseout"/></use>
    <path d="M-4,0h8" fill="none" stroke="white" stroke-width="1.5" pointer-events="none"/>
  </g>
  <g id="arrowUp" transform="translate(30 24)">
    <use xlink:href="#rim"/>
    <path pointer-events="none" fill="none" stroke="white" stroke-width="1.5" d="M0,-3.0v7 M-2.5,-0.5L0,-3.0L2.5,-0.5"/>
  </g>
  <g id="arrowRight" transform="rotate(90) translate(36 -43)">
    <use xlink:href="#rim"/>
    <path pointer-events="none" fill="none" stroke="white" stroke-width="1.5" d="M0,-3.0v7 M-2.5,-0.5L0,-3.0L2.5,-0.5"/>
  </g>
  <g id="arrowDown" transform="rotate(180) translate(-30 -48)">
    <use xlink:href="#rim"/>
    <path pointer-events="none" fill="none" stroke="white" stroke-width="1.5" d="M0,-3.0v7 M-2.5,-0.5L0,-3.0L2.5,-0.5"/>
  </g>
  <g id="arrowLeft" transform="rotate(270) translate(-36 17)">
    <use xlink:href="#rim"/>
    <path pointer-events="none" fill="none" stroke="white" stroke-width="1.5" d="M0,-3.0v7 M-2.5,-0.5L0,-3.0L2.5,-0.5"/>
  </g>
  <g id="resetDef">
    <use xlink:href="#rim2" fill="#404040"><set attributeName="fill" to="#808080" begin="reset.mouseover" end="reset.mouseout"/></use>
  </g>
</defs>
<script type="application/ecmascript">
var viewWidth = 1236;
var viewHeight = 192;
var sectionId = 'dynsection-0';
</script>
<script type="application/ecmascript" xlink:href="svg.min.js"/>
<svg id="graph" class="graph">
<g id="viewport">
<title>ARGameStateBase.h</title>
<!-- Node1 -->
<g id="Node000001" class="node">
<title>Node1</title>
<g id="a_Node000001"><a xlink:title="ARGameStateBase header for Alien Ramen.">
<polygon fill="#999999" stroke="#666666" points="614.57,-184 496.57,-184 496.57,-165 614.57,-165 614.57,-184"/>
<text text-anchor="middle" x="555.57" y="-172" font-family="Helvetica,sans-Serif" font-size="10.00">ARGameStateBase.h</text>
</a>
</g>
</g>
<!-- Node2 -->
<g id="Node000002" class="node">
<title>Node2</title>
<g id="a_Node000002"><a xlink:title=" ">
<polygon fill="#e0e0e0" stroke="#999999" points="430.57,-19 342.57,-19 342.57,0 430.57,0 430.57,-19"/>
<text text-anchor="middle" x="386.57" y="-7" font-family="Helvetica,sans-Serif" font-size="10.00">CoreMinimal.h</text>
</a>
</g>
</g>
<!-- Node1&#45;&gt;Node2 -->
<g id="edge1_Node000001_Node000002" class="edge">
<title>Node1&#45;&gt;Node2</title>
<g id="a_edge1_Node000001_Node000002"><a xlink:title=" ">
<path fill="none" stroke="#63b8ff" d="M496.57,-165.26C407.01,-151.39 243.55,-120.29 209.57,-74 176.18,-28.5 268.6,-15.49 332.14,-11.85"/>
<polygon fill="#63b8ff" stroke="#63b8ff" points="332.65,-15.32 342.46,-11.32 332.3,-8.33 332.65,-15.32"/>
</a>
</g>
</g>
<!-- Node3 -->
<g id="Node000003" class="node">
<title>Node3</title>
<g id="a_Node000003"><a xlink:href="ARPauseTypes_8h.html" target="_top" xlink:title="Shared pause&#45;system enums and contracts for Alien Ramen.">
<polygon fill="white" stroke="#666666" points="136.07,-129 41.07,-129 41.07,-110 136.07,-110 136.07,-129"/>
<text text-anchor="middle" x="88.57" y="-117" font-family="Helvetica,sans-Serif" font-size="10.00">ARPauseTypes.h</text>
</a>
</g>
</g>
<!-- Node1&#45;&gt;Node3 -->
<g id="edge2_Node000001_Node000003" class="edge">
<title>Node1&#45;&gt;Node3</title>
<g id="a_edge2_Node000001_Node000003"><a xlink:title=" ">
<path fill="none" stroke="#63b8ff" d="M496.43,-166.79C406.27,-156.56 235.53,-137.18 146.25,-127.05"/>
<polygon fill="#63b8ff" stroke="#63b8ff" points="146.64,-123.57 136.3,-125.92 145.85,-130.52 146.64,-123.57"/>
</a>
</g>
</g>
<!-- Node5 -->
<g id="Node000005" class="node">
<title>Node5</title>
<g id="a_Node000005"><a xlink:href="ARPlayerTypes_8h.html" target="_top" xlink:title="Shared player&#45;facing enum types for Alien Ramen gameplay/save/runtime APIs.">
<polygon fill="white" stroke="#666666" points="674.57,-74 576.57,-74 576.57,-55 674.57,-55 674.57,-74"/>
<text text-anchor="middle" x="625.57" y="-62" font-family="Helvetica,sans-Serif" font-size="10.00">ARPlayerTypes.h</text>
</a>
</g>
</g>
<!-- Node1&#45;&gt;Node5 -->
<g id="edge5_Node000001_Node000005" class="edge">
<title>Node1&#45;&gt;Node5</title>
<g id="a_edge5_Node000001_Node000005"><a xlink:title=" ">
<path fill="none" stroke="#63b8ff" d="M561.3,-164.66C572.89,-146.77 599.32,-106 614.43,-82.69"/>
<polygon fill="#63b8ff" stroke="#63b8ff" points="617.46,-84.45 619.96,-74.16 611.58,-80.65 617.46,-84.45"/>
</a>
</g>
</g>
<!-- Node7 -->
<g id="Node000007" class="node">
<title>Node7</title>
<g id="a_Node000007"><a xlink:href="ARSaveTypes_8h.html" target="_top" xlink:title="ARSaveTypes header for Alien Ramen.">
<polygon fill="white" stroke="#666666" points="532.07,-129 441.07,-129 441.07,-110 532.07,-110 532.07,-129"/>
<text text-anchor="middle" x="486.57" y="-117" font-family="Helvetica,sans-Serif" font-size="10.00">ARSaveTypes.h</text>
</a>
</g>
</g>
<!-- Node1&#45;&gt;Node7 -->
<g id="edge8_Node000001_Node000007" class="edge">
<title>Node1&#45;&gt;Node7</title>
<g id="a_edge8_Node000001_Node000007"><a xlink:title=" ">
<path fill="none" stroke="#63b8ff" d="M544.49,-164.98C534.09,-157 518.31,-144.88 505.85,-135.31"/>
<polygon fill="#63b8ff" stroke="#63b8ff" points="507.92,-132.49 497.86,-129.17 503.66,-138.04 507.92,-132.49"/>
</a>
</g>
</g>
<!-- Node8 -->
<g id="Node000008" class="node">
<title>Node8</title>
<g id="a_Node000008"><a xlink:title=" ">
<polygon fill="#e0e0e0" stroke="#999999" points="358.07,-74 219.07,-74 219.07,-55 358.07,-55 358.07,-74"/>
<text text-anchor="middle" x="288.57" y="-62" font-family="Helvetica,sans-Serif" font-size="10.00">GameplayTagContainer.h</text>
</a>
</g>
</g>
<!-- Node1&#45;&gt;Node8 -->
<g id="edge13_Node000001_Node000008" class="edge">
<title>Node1&#45;&gt;Node8</title>
<g id="a_edge13_Node000001_Node000008"><a xlink:title=" ">
<path fill="none" stroke="#63b8ff" d="M529.72,-164.84C504.49,-156.25 465.11,-142.45 431.57,-129 390.97,-112.73 344.87,-91.8 316.25,-78.52"/>
<polygon fill="#63b8ff" stroke="#63b8ff" points="317.44,-75.21 306.9,-74.16 314.48,-81.55 317.44,-75.21"/>
</a>
</g>
</g>
<!-- Node10 -->
<g id="Node000010" class="node">
<title>Node10</title>
<g id="a_Node000010"><a xlink:title=" ">
<polygon fill="#e0e0e0" stroke="#999999" points="1039.07,-129 848.07,-129 848.07,-110 1039.07,-110 1039.07,-129"/>
<text text-anchor="middle" x="943.57" y="-117" font-family="Helvetica,sans-Serif" font-size="10.00">GameFramework/GameStateBase.h</text>
</a>
</g>
</g>
<!-- Node1&#45;&gt;Node10 -->
<g id="edge14_Node000001_Node000010" class="edge">
<title>Node1&#45;&gt;Node10</title>
<g id="a_edge14_Node000001_Node000010"><a xlink:title=" ">
<path fill="none" stroke="#63b8ff" d="M614.92,-165.39C683.76,-155.99 797.22,-140.49 871.17,-130.39"/>
<polygon fill="#63b8ff" stroke="#63b8ff" points="871.9,-133.82 881.34,-129 870.95,-126.89 871.9,-133.82"/>
</a>
</g>
</g>
<!-- Node11 -->
<g id="Node000011" class="node">
<title>Node11</title>
<g id="a_Node000011"><a xlink:href="StructSerializable_8h.html" target="_top" xlink:title="StructSerializable header for Alien Ramen.">
<polygon fill="white" stroke="#666666" points="830.07,-129 719.07,-129 719.07,-110 830.07,-110 830.07,-129"/>
<text text-anchor="middle" x="774.57" y="-117" font-family="Helvetica,sans-Serif" font-size="10.00">StructSerializable.h</text>
</a>
</g>
</g>
<!-- Node1&#45;&gt;Node11 -->
<g id="edge15_Node000001_Node000011" class="edge">
<title>Node1&#45;&gt;Node11</title>
<g id="a_edge15_Node000001_Node000011"><a xlink:title=" ">
<path fill="none" stroke="#63b8ff" d="M590.76,-164.98C628.4,-155.87 688.23,-141.4 729.34,-131.45"/>
<polygon fill="#63b8ff" stroke="#63b8ff" points="730.21,-134.84 739.11,-129.08 728.57,-128.03 730.21,-134.84"/>
</a>
</g>
</g>
<!-- Node15 -->
<g id="Node000015" class="node">
<title>Node15</title>
<g id="a_Node000015"><a xlink:title=" ">
<polygon fill="#e0e0e0" stroke="#999999" points="1227.57,-129 1057.57,-129 1057.57,-110 1227.57,-110 1227.57,-129"/>
<text text-anchor="middle" x="1142.57" y="-117" font-family="Helvetica,sans-Serif" font-size="10.00">ARGameStateBase.generated.h</text>
</a>
</g>
</g>
<!-- Node1&#45;&gt;Node15 -->
<g id="edge20_Node000001_Node000015" class="edge">
<title>Node1&#45;&gt;Node15</title>
<g id="a_edge20_Node000001_Node000015"><a xlink:title=" ">
<path fill="none" stroke="#63b8ff" d="M614.76,-168.16C705.42,-159.98 884.41,-143.83 1047.31,-129.11"/>
<polygon fill="#63b8ff" stroke="#63b8ff" points="1047.87,-132.58 1057.52,-128.19 1047.24,-125.61 1047.87,-132.58"/>
</a>
</g>
</g>
<!-- Node3&#45;&gt;Node2 -->
<g id="edge3_Node000003_Node000002" class="edge">
<title>Node3&#45;&gt;Node2</title>
<g id="a_edge3_Node000003_Node000002"><a xlink:title=" ">
<path fill="none" stroke="#63b8ff" d="M60.65,-109.91C29.17,-98.84 -15.12,-78.24 5.57,-55 26.9,-31.04 231.96,-17.94 332.09,-12.92"/>
<polygon fill="#63b8ff" stroke="#63b8ff" points="332.5,-16.41 342.31,-12.42 332.16,-9.42 332.5,-16.41"/>
</a>
</g>
</g>
<!-- Node4 -->
<g id="Node000004" class="node">
<title>Node4</title>
<g id="a_Node000004"><a xlink:title=" ">
<polygon fill="#e0e0e0" stroke="#999999" points="162.57,-74 14.57,-74 14.57,-55 162.57,-55 162.57,-74"/>
<text text-anchor="middle" x="88.57" y="-62" font-family="Helvetica,sans-Serif" font-size="10.00">ARPauseTypes.generated.h</text>
</a>
</g>
</g>
<!-- Node3&#45;&gt;Node4 -->
<g id="edge4_Node000003_Node000004" class="edge">
<title>Node3&#45;&gt;Node4</title>
<g id="a_edge4_Node000003_Node000004"><a xlink:title=" ">
<path fill="none" stroke="#63b8ff" d="M88.57,-109.75C88.57,-102.8 88.57,-92.85 88.57,-84.13"/>
<polygon fill="#63b8ff" stroke="#63b8ff" points="92.07,-84.09 88.57,-74.09 85.07,-84.09 92.07,-84.09"/>
</a>
</g>
</g>
<!-- Node5&#45;&gt;Node2 -->
<g id="edge6_Node000005_Node000002" class="edge">
<title>Node5&#45;&gt;Node2</title>
<g id="a_edge6_Node000005_Node000002"><a xlink:title=" ">
<path fill="none" stroke="#63b8ff" d="M587.17,-54.98C545.83,-45.82 479.97,-31.21 435.08,-21.26"/>
<polygon fill="#63b8ff" stroke="#63b8ff" points="435.79,-17.83 425.27,-19.08 434.28,-24.66 435.79,-17.83"/>
</a>
</g>
</g>
<!-- Node6 -->
<g id="Node000006" class="node">
<title>Node6</title>
<g id="a_Node000006"><a xlink:title=" ">
<polygon fill="#e0e0e0" stroke="#999999" points="700.57,-19 550.57,-19 550.57,0 700.57,0 700.57,-19"/>
<text text-anchor="middle" x="625.57" y="-7" font-family="Helvetica,sans-Serif" font-size="10.00">ARPlayerTypes.generated.h</text>
</a>
</g>
</g>
<!-- Node5&#45;&gt;Node6 -->
<g id="edge7_Node000005_Node000006" class="edge">
<title>Node5&#45;&gt;Node6</title>
<g id="a_edge7_Node000005_Node000006"><a xlink:title=" ">
<path fill="none" stroke="#63b8ff" d="M625.57,-54.75C625.57,-47.8 625.57,-37.85 625.57,-29.13"/>
<polygon fill="#63b8ff" stroke="#63b8ff" points="629.07,-29.09 625.57,-19.09 622.07,-29.09 629.07,-29.09"/>
</a>
</g>
</g>
<!-- Node7&#45;&gt;Node2 -->
<g id="edge9_Node000007_Node000002" class="edge">
<title>Node7&#45;&gt;Node2</title>
<g id="a_edge9_Node000007_Node000002"><a xlink:title=" ">
<path fill="none" stroke="#63b8ff" d="M460.06,-109.98C442.26,-102.98 419.59,-91.35 405.57,-74 395.29,-61.27 390.57,-43.09 388.4,-29.45"/>
<polygon fill="#63b8ff" stroke="#63b8ff" points="391.84,-28.75 387.12,-19.27 384.9,-29.63 391.84,-28.75"/>
</a>
</g>
</g>
<!-- Node7&#45;&gt;Node5 -->
<g id="edge11_Node000007_Node000005" class="edge">
<title>Node7&#45;&gt;Node5</title>
<g id="a_edge11_Node000007_Node000005"><a xlink:title=" ">
<path fill="none" stroke="#63b8ff" d="M508.9,-109.98C531.77,-101.27 567.53,-87.63 593.43,-77.75"/>
<polygon fill="#63b8ff" stroke="#63b8ff" points="594.74,-81 602.83,-74.17 592.24,-74.46 594.74,-81"/>
</a>
</g>
</g>
<!-- Node7&#45;&gt;Node8 -->
<g id="edge10_Node000007_Node000008" class="edge">
<title>Node7&#45;&gt;Node8</title>
<g id="a_edge10_Node000007_Node000008"><a xlink:title=" ">
<path fill="none" stroke="#63b8ff" d="M454.76,-109.98C421.09,-100.97 367.78,-86.7 330.65,-76.76"/>
<polygon fill="#63b8ff" stroke="#63b8ff" points="331.2,-73.29 320.63,-74.08 329.39,-80.05 331.2,-73.29"/>
</a>
</g>
</g>
<!-- Node9 -->
<g id="Node000009" class="node">
<title>Node9</title>
<g id="a_Node000009"><a xlink:title=" ">
<polygon fill="#e0e0e0" stroke="#999999" points="558.07,-74 415.07,-74 415.07,-55 558.07,-55 558.07,-74"/>
<text text-anchor="middle" x="486.57" y="-62" font-family="Helvetica,sans-Serif" font-size="10.00">ARSaveTypes.generated.h</text>
</a>
</g>
</g>
<!-- Node7&#45;&gt;Node9 -->
<g id="edge12_Node000007_Node000009" class="edge">
<title>Node7&#45;&gt;Node9</title>
<g id="a_edge12_Node000007_Node000009"><a xlink:title=" ">
<path fill="none" stroke="#63b8ff" d="M486.57,-109.75C486.57,-102.8 486.57,-92.85 486.57,-84.13"/>
<polygon fill="#63b8ff" stroke="#63b8ff" points="490.07,-84.09 486.57,-74.09 483.07,-84.09 490.07,-84.09"/>
</a>
</g>
</g>
<!-- Node11&#45;&gt;Node2 -->
<g id="edge16_Node000011_Node000002" class="edge">
<title>Node11&#45;&gt;Node2</title>
<g id="a_edge16_Node000011_Node000002"><a xlink:title=" ">
<path fill="none" stroke="#63b8ff" d="M806.25,-109.92C840.54,-99.15 887.57,-79.13 865.57,-55 851.43,-39.48 563.81,-20.88 441.19,-13.62"/>
<polygon fill="#63b8ff" stroke="#63b8ff" points="441.09,-10.1 430.9,-13.01 440.68,-17.09 441.09,-10.1"/>
</a>
</g>
</g>
<!-- Node12 -->
<g id="Node000012" class="node">
<title>Node12</title>
<g id="a_Node000012"><a xlink:title=" ">
<polygon fill="#e0e0e0" stroke="#999999" points="1024.07,-74 913.07,-74 913.07,-55 1024.07,-55 1024.07,-74"/>
<text text-anchor="middle" x="968.57" y="-62" font-family="Helvetica,sans-Serif" font-size="10.00">UObject/Interface.h</text>
</a>
</g>
</g>
<!-- Node11&#45;&gt;Node12 -->
<g id="edge17_Node000011_Node000012" class="edge">
<title>Node11&#45;&gt;Node12</title>
<g id="a_edge17_Node000011_Node000012"><a xlink:title=" ">
<path fill="none" stroke="#63b8ff" d="M805.74,-109.98C838.73,-100.97 890.97,-86.7 927.35,-76.76"/>
<polygon fill="#63b8ff" stroke="#63b8ff" points="928.43,-80.09 937.16,-74.08 926.59,-73.34 928.43,-80.09"/>
</a>
</g>
</g>
<!-- Node13 -->
<g id="Node000013" class="node">
<title>Node13</title>
<g id="a_Node000013"><a xlink:title=" ">
<polygon fill="#e0e0e0" stroke="#999999" points="1197.07,-74 1042.07,-74 1042.07,-55 1197.07,-55 1197.07,-74"/>
<text text-anchor="middle" x="1119.57" y="-62" font-family="Helvetica,sans-Serif" font-size="10.00">StructUtils/InstancedStruct.h</text>
</a>
</g>
</g>
<!-- Node11&#45;&gt;Node13 -->
<g id="edge18_Node000011_Node000013" class="edge">
<title>Node11&#45;&gt;Node13</title>
<g id="a_edge18_Node000011_Node000013"><a xlink:title=" ">
<path fill="none" stroke="#63b8ff" d="M830,-109.98C891.02,-100.61 989.05,-85.55 1053.88,-75.59"/>
<polygon fill="#63b8ff" stroke="#63b8ff" points="1054.64,-79.02 1063.99,-74.04 1053.58,-72.1 1054.64,-79.02"/>
</a>
</g>
</g>
<!-- Node14 -->
<g id="Node000014" class="node">
<title>Node14</title>
<g id="a_Node000014"><a xlink:title=" ">
<polygon fill="#e0e0e0" stroke="#999999" points="856.57,-74 692.57,-74 692.57,-55 856.57,-55 856.57,-74"/>
<text text-anchor="middle" x="774.57" y="-62" font-family="Helvetica,sans-Serif" font-size="10.00">StructSerializable.generated.h</text>
</a>
</g>
</g>
<!-- Node11&#45;&gt;Node14 -->
<g id="edge19_Node000011_Node000014" class="edge">
<title>Node11&#45;&gt;Node14</title>
<g id="a_edge19_Node000011_Node000014"><a xlink:title=" ">
<path fill="none" stroke="#63b8ff" d="M774.57,-109.75C774.57,-102.8 774.57,-92.85 774.57,-84.13"/>
<polygon fill="#63b8ff" stroke="#63b8ff" points="778.07,-84.09 774.57,-74.09 771.07,-84.09 778.07,-84.09"/>
</a>
</g>
</g>
</g>
</svg>

<g id="navigator" transform="translate(0 0)" fill="#404254">
  <rect fill="#f2f5e9" fill-opacity="0.5" stroke="#606060" stroke-width=".5" x="0" y="0" width="60" height="60"/>
  <use id="zoomplus" xlink:href="#zoomPlus" x="17" y="9" onmousedown="handleZoom(evt,'in')"/>
  <use id="zoomminus" xlink:href="#zoomMin" x="42" y="9" onmousedown="handleZoom(evt,'out')"/>
  <use id="reset" xlink:href="#resetDef" x="30" y="36" onmousedown="handleReset()"/>
   <use id="arrowup" xlink:href="#arrowUp" x="0" y="0" onmousedown="handlePan(0,-1)"/>
  <use id="arrowright" xlink:href="#arrowRight" x="0" y="0" onmousedown="handlePan(1,0)"/>
  <use id="arrowdown" xlink:href="#arrowDown" x="0" y="0" onmousedown="handlePan(0,1)"/>
  <use id="arrowleft" xlink:href="#arrowLeft" x="0" y="0" onmousedown="handlePan(-1,0)"/>
</g>
<svg viewBox="0 0 15 15" width="100%" height="30px" preserveAspectRatio="xMaxYMin meet">
 <g id="arrow_out" transform="scale(0.3 0.3)">
  <a xlink:href="ARGameStateBase_8h__incl_org.svg" target="_base">
   <rect id="button" ry="5" rx="5" y="6" x="6" height="38" width="38"
        fill="#f2f5e9" fill-opacity="0.5" stroke="#606060" stroke-width="1.0"/>
   <path id="arrow"
     d="M 11.500037,31.436501 C 11.940474,20.09759 22.043105,11.32322 32.158766,21.979434 L 37.068811,17.246167 C 37.068811,17.246167 37.088388,32 37.088388,32 L 22.160133,31.978069 C 22.160133,31.978069 26.997745,27.140456 26.997745,27.140456 C 18.528582,18.264221 13.291696,25.230495 11.500037,31.436501 z"
     style="fill:#404040;"/>
  </a>
 </g>
</svg>

<style type='text/css'>
<![CDATA[
[data-mouse-over-selected='false'] { opacity: 0.7; }
[data-mouse-over-selected='true']  { opacity: 1.0; }
]]>
</style>
<script type="application/ecmascript"><![CDATA[
document.addEventListener('DOMContentLoaded', (event) => {
  highlightEdges();
  highlightAdjacentNodes();
});
]]></script>
</svg>
