<?xml version="1.0" encoding="UTF-8" standalone="no"?>
<!DOCTYPE svg PUBLIC "-//W3C//DTD SVG 1.1//EN"
 "http://www.w3.org/Graphics/SVG/1.1/DTD/svg11.dtd">
<!-- Generated by graphviz version 2.43.0 (0)
 -->
<!-- Title: ARGameStateBase.h Pages: 1 -->
<svg width="1874pt" height="137pt"
 viewBox="0.00 0.00 1874.00 137.00" xmlns="http://www.w3.org/2000/svg" xmlns:xlink="http://www.w3.org/1999/xlink">
<g id="graph0" class="graph" transform="scale(1 1) rotate(0) translate(4 133)">
<title>ARGameStateBase.h</title>
<!-- Node1 -->
<g id="Node000001" class="node">
<title>Node1</title>
<g id="a_Node000001"><a xlink:title="ARGameStateBase header for Alien Ramen.">
<polygon fill="#999999" stroke="#666666" points="1095,-129 977,-129 977,-110 1095,-110 1095,-129"/>
<text text-anchor="middle" x="1036" y="-117" font-family="Helvetica,sans-Serif" font-size="10.00">ARGameStateBase.h</text>
</a>
</g>
</g>
<!-- Node2 -->
<g id="Node000002" class="node">
<title>Node2</title>
<g id="a_Node000002"><a xlink:href="ARDialogueSubsystem_8cpp_source.html" target="_top" xlink:title=" ">
<polygon fill="white" stroke="#666666" points="148,-74 0,-74 0,-55 148,-55 148,-74"/>
<text text-anchor="middle" x="74" y="-62" font-family="Helvetica,sans-Serif" font-size="10.00">ARDialogueSubsystem.cpp</text>
</a>
</g>
</g>
<!-- Node1&#45;&gt;Node2 -->
<g id="edge1_Node000001_Node000002" class="edge">
<title>Node1&#45;&gt;Node2</title>
<g id="a_edge1_Node000001_Node000002"><a xlink:title=" ">
<path fill="none" stroke="#63b8ff" d="M966.44,-116.2C817.73,-111 457.92,-97.01 157,-74 154.11,-73.78 151.17,-73.54 148.19,-73.29"/>
<polygon fill="#63b8ff" stroke="#63b8ff" points="966.66,-119.71 976.77,-116.55 966.9,-112.71 966.66,-119.71"/>
</a>
</g>
</g>
<!-- Node3 -->
<g id="Node000003" class="node">
<title>Node3</title>
<g id="a_Node000003"><a xlink:href="ARFactionSubsystem_8cpp_source.html" target="_top" xlink:title=" ">
<polygon fill="white" stroke="#666666" points="305.5,-74 166.5,-74 166.5,-55 305.5,-55 305.5,-74"/>
<text text-anchor="middle" x="236" y="-62" font-family="Helvetica,sans-Serif" font-size="10.00">ARFactionSubsystem.cpp</text>
</a>
</g>
</g>
<!-- Node1&#45;&gt;Node3 -->
<g id="edge2_Node000001_Node000003" class="edge">
<title>Node1&#45;&gt;Node3</title>
<g id="a_edge2_Node000001_Node000003"><a xlink:title=" ">
<path fill="none" stroke="#63b8ff" d="M966.87,-115.32C838.22,-109.17 553.4,-94.41 314,-74 311.29,-73.77 308.52,-73.52 305.73,-73.26"/>
<polygon fill="#63b8ff" stroke="#63b8ff" points="966.82,-118.82 976.97,-115.8 967.15,-111.83 966.82,-118.82"/>
</a>
</g>
</g>
<!-- Node4 -->
<g id="Node000004" class="node">
<title>Node4</title>
<g id="a_Node000004"><a xlink:href="ARGameModeBase_8cpp_source.html" target="_top" xlink:title=" ">
<polygon fill="white" stroke="#666666" points="454.5,-74 323.5,-74 323.5,-55 454.5,-55 454.5,-74"/>
<text text-anchor="middle" x="389" y="-62" font-family="Helvetica,sans-Serif" font-size="10.00">ARGameModeBase.cpp</text>
</a>
</g>
</g>
<!-- Node1&#45;&gt;Node4 -->
<g id="edge3_Node000001_Node000004" class="edge">
<title>Node1&#45;&gt;Node4</title>
<g id="a_edge3_Node000001_Node000004"><a xlink:title=" ">
<path fill="none" stroke="#63b8ff" d="M966.87,-113.96C859.11,-106.69 644.61,-91.48 463,-74 460.3,-73.74 457.54,-73.47 454.75,-73.18"/>
<polygon fill="#63b8ff" stroke="#63b8ff" points="966.75,-117.46 976.96,-114.64 967.22,-110.47 966.75,-117.46"/>
</a>
</g>
</g>
<!-- Node5 -->
<g id="Node000005" class="node">
<title>Node5</title>
<g id="a_Node000005"><a xlink:href="ARGameStateBase_8cpp_source.html" target="_top" xlink:title=" ">
<polygon fill="white" stroke="#666666" points="601.5,-74 472.5,-74 472.5,-55 601.5,-55 601.5,-74"/>
<text text-anchor="middle" x="537" y="-62" font-family="Helvetica,sans-Serif" font-size="10.00">ARGameStateBase.cpp</text>
</a>
</g>
</g>
<!-- Node1&#45;&gt;Node5 -->
<g id="edge4_Node000001_Node000005" class="edge">
<title>Node1&#45;&gt;Node5</title>
<g id="a_edge4_Node000001_Node000005"><a xlink:title=" ">
<path fill="none" stroke="#63b8ff" d="M966.65,-111.45C882.5,-102.86 736.3,-87.76 611,-74 607.91,-73.66 604.76,-73.31 601.57,-72.96"/>
<polygon fill="#63b8ff" stroke="#63b8ff" points="966.55,-114.96 976.85,-112.5 967.26,-108 966.55,-114.96"/>
</a>
</g>
</g>
<!-- Node6 -->
<g id="Node000006" class="node">
<title>Node6</title>
<g id="a_Node000006"><a xlink:href="ARInvaderDirectorSubsystem_8cpp_source.html" target="_top" xlink:title=" ">
<polygon fill="white" stroke="#666666" points="800,-74 620,-74 620,-55 800,-55 800,-74"/>
<text text-anchor="middle" x="710" y="-62" font-family="Helvetica,sans-Serif" font-size="10.00">ARInvaderDirectorSubsystem.cpp</text>
</a>
</g>
</g>
<!-- Node1&#45;&gt;Node6 -->
<g id="edge5_Node000001_Node000006" class="edge">
<title>Node1&#45;&gt;Node6</title>
<g id="a_edge5_Node000001_Node000006"><a xlink:title=" ">
<path fill="none" stroke="#63b8ff" d="M973.7,-108.37C912.49,-98.42 820.12,-83.4 762.52,-74.04"/>
<polygon fill="#63b8ff" stroke="#63b8ff" points="973.19,-111.83 983.62,-109.98 974.31,-104.93 973.19,-111.83"/>
</a>
</g>
</g>
<!-- Node7 -->
<g id="Node000007" class="node">
<title>Node7</title>
<g id="a_Node000007"><a xlink:href="ARInvaderDropBase_8cpp_source.html" target="_top" xlink:title=" ">
<polygon fill="white" stroke="#666666" points="952,-74 818,-74 818,-55 952,-55 952,-74"/>
<text text-anchor="middle" x="885" y="-62" font-family="Helvetica,sans-Serif" font-size="10.00">ARInvaderDropBase.cpp</text>
</a>
</g>
</g>
<!-- Node1&#45;&gt;Node7 -->
<g id="edge6_Node000001_Node000007" class="edge">
<title>Node1&#45;&gt;Node7</title>
<g id="a_edge6_Node000001_Node000007"><a xlink:title=" ">
<path fill="none" stroke="#63b8ff" d="M1001.95,-106.55C973.91,-96.71 934.82,-82.98 909.7,-74.17"/>
<polygon fill="#63b8ff" stroke="#63b8ff" points="1001.14,-109.98 1011.74,-109.98 1003.46,-103.37 1001.14,-109.98"/>
</a>
</g>
</g>
<!-- Node8 -->
<g id="Node000008" class="node">
<title>Node8</title>
<g id="a_Node000008"><a xlink:href="ARInvaderGameState_8h.html" target="_top" xlink:title="ARInvaderGameState header for Alien Ramen.">
<polygon fill="white" stroke="#666666" points="1101.5,-74 970.5,-74 970.5,-55 1101.5,-55 1101.5,-74"/>
<text text-anchor="middle" x="1036" y="-62" font-family="Helvetica,sans-Serif" font-size="10.00">ARInvaderGameState.h</text>
</a>
</g>
</g>
<!-- Node1&#45;&gt;Node8 -->
<g id="edge7_Node000001_Node000008" class="edge">
<title>Node1&#45;&gt;Node8</title>
<g id="a_edge7_Node000001_Node000008"><a xlink:title=" ">
<path fill="none" stroke="#63b8ff" d="M1036,-99.66C1036,-90.93 1036,-80.99 1036,-74.09"/>
<polygon fill="#63b8ff" stroke="#63b8ff" points="1032.5,-99.75 1036,-109.75 1039.5,-99.75 1032.5,-99.75"/>
</a>
</g>
</g>
<!-- Node12 -->
<g id="Node000012" class="node">
<title>Node12</title>
<g id="a_Node000012"><a xlink:href="ARPlayerController_8cpp_source.html" target="_top" xlink:title=" ">
<polygon fill="white" stroke="#666666" points="1248,-19 1120,-19 1120,0 1248,0 1248,-19"/>
<text text-anchor="middle" x="1184" y="-7" font-family="Helvetica,sans-Serif" font-size="10.00">ARPlayerController.cpp</text>
</a>
</g>
</g>
<!-- Node1&#45;&gt;Node12 -->
<g id="edge15_Node000001_Node000012" class="edge">
<title>Node1&#45;&gt;Node12</title>
<g id="a_edge15_Node000001_Node000012"><a xlink:title=" ">
<path fill="none" stroke="#63b8ff" d="M1061.06,-104.83C1075.71,-96.49 1094.35,-85.3 1110,-74 1134.71,-56.16 1161.25,-32.02 1174.84,-19.25"/>
<polygon fill="#63b8ff" stroke="#63b8ff" points="1059.09,-101.92 1052.08,-109.86 1062.51,-108.03 1059.09,-101.92"/>
</a>
</g>
</g>
<!-- Node14 -->
<g id="Node000014" class="node">
<title>Node14</title>
<g id="a_Node000014"><a xlink:href="ARLobbyGameState_8h.html" target="_top" xlink:title="ARLobbyGameState header for Alien Ramen.">
<polygon fill="white" stroke="#666666" points="1281.5,-74 1158.5,-74 1158.5,-55 1281.5,-55 1281.5,-74"/>
<text text-anchor="middle" x="1220" y="-62" font-family="Helvetica,sans-Serif" font-size="10.00">ARLobbyGameState.h</text>
</a>
</g>
</g>
<!-- Node1&#45;&gt;Node14 -->
<g id="edge13_Node000001_Node000014" class="edge">
<title>Node1&#45;&gt;Node14</title>
<g id="a_edge13_Node000001_Node000014"><a xlink:title=" ">
<path fill="none" stroke="#63b8ff" d="M1075.29,-107.18C1109.7,-97.27 1158.96,-83.08 1190.21,-74.08"/>
<polygon fill="#63b8ff" stroke="#63b8ff" points="1074.2,-103.85 1065.56,-109.98 1076.14,-110.58 1074.2,-103.85"/>
</a>
</g>
</g>
<!-- Node16 -->
<g id="Node000016" class="node">
<title>Node16</title>
<g id="a_Node000016"><a xlink:href="ARSaveSubsystem_8cpp_source.html" target="_top" xlink:title=" ">
<polygon fill="white" stroke="#666666" points="1428,-74 1300,-74 1300,-55 1428,-55 1428,-74"/>
<text text-anchor="middle" x="1364" y="-62" font-family="Helvetica,sans-Serif" font-size="10.00">ARSaveSubsystem.cpp</text>
</a>
</g>
</g>
<!-- Node1&#45;&gt;Node16 -->
<g id="edge16_Node000001_Node000016" class="edge">
<title>Node1&#45;&gt;Node16</title>
<g id="a_edge16_Node000001_Node000016"><a xlink:title=" ">
<path fill="none" stroke="#63b8ff" d="M1098.68,-108.37C1160.27,-98.42 1253.21,-83.4 1311.16,-74.04"/>
<polygon fill="#63b8ff" stroke="#63b8ff" points="1098.01,-104.93 1088.7,-109.98 1099.13,-111.84 1098.01,-104.93"/>
</a>
</g>
</g>
<!-- Node17 -->
<g id="Node000017" class="node">
<title>Node17</title>
<g id="a_Node000017"><a xlink:href="ARScrapyardGameState_8h.html" target="_top" xlink:title="ARScrapyardGameState header for Alien Ramen.">
<polygon fill="white" stroke="#666666" points="1589.5,-74 1446.5,-74 1446.5,-55 1589.5,-55 1589.5,-74"/>
<text text-anchor="middle" x="1518" y="-62" font-family="Helvetica,sans-Serif" font-size="10.00">ARScrapyardGameState.h</text>
</a>
</g>
</g>
<!-- Node1&#45;&gt;Node17 -->
<g id="edge17_Node000001_Node000017" class="edge">
<title>Node1&#45;&gt;Node17</title>
<g id="a_edge17_Node000001_Node000017"><a xlink:title=" ">
<path fill="none" stroke="#63b8ff" d="M1105.28,-110.88C1196.01,-100.91 1354.31,-83.5 1446.25,-73.39"/>
<polygon fill="#63b8ff" stroke="#63b8ff" points="1104.66,-107.43 1095.1,-112 1105.43,-114.39 1104.66,-107.43"/>
</a>
</g>
</g>
<!-- Node19 -->
<g id="Node000019" class="node">
<title>Node19</title>
<g id="a_Node000019"><a xlink:href="ARShopGameState_8h.html" target="_top" xlink:title="ARShopGameState header for Alien Ramen.">
<polygon fill="white" stroke="#666666" points="1726,-74 1608,-74 1608,-55 1726,-55 1726,-74"/>
<text text-anchor="middle" x="1667" y="-62" font-family="Helvetica,sans-Serif" font-size="10.00">ARShopGameState.h</text>
</a>
</g>
</g>
<!-- Node1&#45;&gt;Node19 -->
<g id="edge19_Node000001_Node000019" class="edge">
<title>Node1&#45;&gt;Node19</title>
<g id="a_edge19_Node000001_Node000019"><a xlink:title=" ">
<path fill="none" stroke="#63b8ff" d="M1105.53,-114.03C1211.94,-106.95 1421.53,-92.1 1599,-74 1601.84,-73.71 1604.75,-73.4 1607.68,-73.08"/>
<polygon fill="#63b8ff" stroke="#63b8ff" points="1105,-110.55 1095.25,-114.71 1105.46,-117.54 1105,-110.55"/>
</a>
</g>
</g>
<!-- Node21 -->
<g id="Node000021" class="node">
<title>Node21</title>
<g id="a_Node000021"><a xlink:href="StructSerializable_8cpp_source.html" target="_top" xlink:title=" ">
<polygon fill="white" stroke="#666666" points="1866,-74 1744,-74 1744,-55 1866,-55 1866,-74"/>
<text text-anchor="middle" x="1805" y="-62" font-family="Helvetica,sans-Serif" font-size="10.00">StructSerializable.cpp</text>
</a>
</g>
</g>
<!-- Node1&#45;&gt;Node21 -->
<g id="edge21_Node000001_Node000021" class="edge">
<title>Node1&#45;&gt;Node21</title>
<g id="a_edge21_Node000001_Node000021"><a xlink:title=" ">
<path fill="none" stroke="#63b8ff" d="M1105.25,-115.41C1230.89,-109.5 1504.75,-95.29 1735,-74 1737.93,-73.73 1740.92,-73.43 1743.94,-73.12"/>
<polygon fill="#63b8ff" stroke="#63b8ff" points="1104.83,-111.92 1095,-115.89 1105.16,-118.92 1104.83,-111.92"/>
</a>
</g>
</g>
<!-- Node9 -->
<g id="Node000009" class="node">
<title>Node9</title>
<g id="a_Node000009"><a xlink:href="AREnemyBase_8cpp_source.html" target="_top" xlink:title=" ">
<polygon fill="white" stroke="#666666" points="609,-19 501,-19 501,0 609,0 609,-19"/>
<text text-anchor="middle" x="555" y="-7" font-family="Helvetica,sans-Serif" font-size="10.00">AREnemyBase.cpp</text>
</a>
</g>
</g>
<!-- Node8&#45;&gt;Node9 -->
<g id="edge8_Node000008_Node000009" class="edge">
<title>Node8&#45;&gt;Node9</title>
<g id="a_edge8_Node000008_Node000009"><a xlink:title=" ">
<path fill="none" stroke="#63b8ff" d="M959.91,-54.89C806.92,-38.31 766.92,-36.86 618,-19 615.15,-18.66 612.23,-18.3 609.28,-17.93"/>
<polygon fill="#63b8ff" stroke="#63b8ff" points="959.83,-58.4 970.15,-56.01 960.59,-51.45 959.83,-58.4"/>
</a>
</g>
</g>
<!-- Node10 -->
<g id="Node000010" class="node">
<title>Node10</title>
<g id="a_Node000010"><a xlink:href="ARInvaderGameState_8cpp_source.html" target="_top" xlink:title=" ">
<polygon fill="white" stroke="#666666" points="769,-19 627,-19 627,0 769,0 769,-19"/>
<text text-anchor="middle" x="698" y="-7" font-family="Helvetica,sans-Serif" font-size="10.00">ARInvaderGameState.cpp</text>
</a>
</g>
</g>
<!-- Node8&#45;&gt;Node10 -->
<g id="edge9_Node000008_Node000010" class="edge">
<title>Node8&#45;&gt;Node10</title>
<g id="a_edge9_Node000008_Node000010"><a xlink:title=" ">
<path fill="none" stroke="#63b8ff" d="M971.8,-53.43C908.33,-43.48 812.29,-28.42 752.45,-19.04"/>
<polygon fill="#63b8ff" stroke="#63b8ff" points="971.27,-56.89 981.69,-54.98 972.36,-49.98 971.27,-56.89"/>
</a>
</g>
</g>
<!-- Node11 -->
<g id="Node000011" class="node">
<title>Node11</title>
<g id="a_Node000011"><a xlink:href="ARInvaderPlayerController_8cpp_source.html" target="_top" xlink:title=" ">
<polygon fill="white" stroke="#666666" points="952.5,-19 787.5,-19 787.5,0 952.5,0 952.5,-19"/>
<text text-anchor="middle" x="870" y="-7" font-family="Helvetica,sans-Serif" font-size="10.00">ARInvaderPlayerController.cpp</text>
</a>
</g>
</g>
<!-- Node8&#45;&gt;Node11 -->
<g id="edge10_Node000008_Node000011" class="edge">
<title>Node8&#45;&gt;Node11</title>
<g id="a_edge10_Node000008_Node000011"><a xlink:title=" ">
<path fill="none" stroke="#63b8ff" d="M999.75,-51.93C968.75,-42.03 924.83,-28.01 896.88,-19.08"/>
<polygon fill="#63b8ff" stroke="#63b8ff" points="998.74,-55.28 1009.33,-54.98 1000.87,-48.61 998.74,-55.28"/>
</a>
</g>
</g>
<!-- Node8&#45;&gt;Node12 -->
<g id="edge11_Node000008_Node000012" class="edge">
<title>Node8&#45;&gt;Node12</title>
<g id="a_edge11_Node000008_Node000012"><a xlink:title=" ">
<path fill="none" stroke="#63b8ff" d="M1069.37,-51.55C1096.85,-41.71 1135.17,-27.98 1159.79,-19.17"/>
<polygon fill="#63b8ff" stroke="#63b8ff" points="1068.01,-48.32 1059.78,-54.98 1070.37,-54.91 1068.01,-48.32"/>
</a>
</g>
</g>
<!-- Node13 -->
<g id="Node000013" class="node">
<title>Node13</title>
<g id="a_Node000013"><a xlink:href="ARPlayerStateBase_8cpp_source.html" target="_top" xlink:title=" ">
<polygon fill="white" stroke="#666666" points="1101.5,-19 970.5,-19 970.5,0 1101.5,0 1101.5,-19"/>
<text text-anchor="middle" x="1036" y="-7" font-family="Helvetica,sans-Serif" font-size="10.00">ARPlayerStateBase.cpp</text>
</a>
</g>
</g>
<!-- Node8&#45;&gt;Node13 -->
<g id="edge12_Node000008_Node000013" class="edge">
<title>Node8&#45;&gt;Node13</title>
<g id="a_edge12_Node000008_Node000013"><a xlink:title=" ">
<path fill="none" stroke="#63b8ff" d="M1036,-44.66C1036,-35.93 1036,-25.99 1036,-19.09"/>
<polygon fill="#63b8ff" stroke="#63b8ff" points="1032.5,-44.75 1036,-54.75 1039.5,-44.75 1032.5,-44.75"/>
</a>
</g>
</g>
<!-- Node15 -->
<g id="Node000015" class="node">
<title>Node15</title>
<g id="a_Node000015"><a xlink:href="ARLobbyGameState_8cpp_source.html" target="_top" xlink:title=" ">
<polygon fill="white" stroke="#666666" points="1400,-19 1266,-19 1266,0 1400,0 1400,-19"/>
<text text-anchor="middle" x="1333" y="-7" font-family="Helvetica,sans-Serif" font-size="10.00">ARLobbyGameState.cpp</text>
</a>
</g>
</g>
<!-- Node14&#45;&gt;Node15 -->
<g id="edge14_Node000014_Node000015" class="edge">
<title>Node14&#45;&gt;Node15</title>
<g id="a_edge14_Node000014_Node000015"><a xlink:title=" ">
<path fill="none" stroke="#63b8ff" d="M1247.43,-50.63C1268.25,-40.87 1296.3,-27.71 1314.51,-19.17"/>
<polygon fill="#63b8ff" stroke="#63b8ff" points="1245.72,-47.57 1238.16,-54.98 1248.7,-53.91 1245.72,-47.57"/>
</a>
</g>
</g>
<!-- Node18 -->
<g id="Node000018" class="node">
<title>Node18</title>
<g id="a_Node000018"><a xlink:href="ARScrapyardGameState_8cpp_source.html" target="_top" xlink:title=" ">
<polygon fill="white" stroke="#666666" points="1589,-19 1435,-19 1435,0 1589,0 1589,-19"/>
<text text-anchor="middle" x="1512" y="-7" font-family="Helvetica,sans-Serif" font-size="10.00">ARScrapyardGameState.cpp</text>
</a>
</g>
</g>
<!-- Node17&#45;&gt;Node18 -->
<g id="edge18_Node000017_Node000018" class="edge">
<title>Node17&#45;&gt;Node18</title>
<g id="a_edge18_Node000017_Node000018"><a xlink:title=" ">
<path fill="none" stroke="#63b8ff" d="M1515.87,-44.66C1514.88,-35.93 1513.75,-25.99 1512.97,-19.09"/>
<polygon fill="#63b8ff" stroke="#63b8ff" points="1512.41,-45.21 1517.01,-54.75 1519.36,-44.42 1512.41,-45.21"/>
</a>
</g>
</g>
<!-- Node20 -->
<g id="Node000020" class="node">
<title>Node20</title>
<g id="a_Node000020"><a xlink:href="ARShopGameState_8cpp_source.html" target="_top" xlink:title=" ">
<polygon fill="white" stroke="#666666" points="1736.5,-19 1607.5,-19 1607.5,0 1736.5,0 1736.5,-19"/>
<text text-anchor="middle" x="1672" y="-7" font-family="Helvetica,sans-Serif" font-size="10.00">ARShopGameState.cpp</text>
</a>
</g>
</g>
<!-- Node19&#45;&gt;Node20 -->
<g id="edge20_Node000019_Node000020" class="edge">
<title>Node19&#45;&gt;Node20</title>
<g id="a_edge20_Node000019_Node000020"><a xlink:title=" ">
<path fill="none" stroke="#63b8ff" d="M1668.78,-44.66C1669.6,-35.93 1670.54,-25.99 1671.19,-19.09"/>
<polygon fill="#63b8ff" stroke="#63b8ff" points="1665.28,-44.46 1667.83,-54.75 1672.25,-45.12 1665.28,-44.46"/>
</a>
</g>
</g>
</g>
</svg>
