<?xml version="1.0" encoding="UTF-8" standalone="no"?>
<!DOCTYPE svg PUBLIC "-//W3C//DTD SVG 1.1//EN"
 "http://www.w3.org/Graphics/SVG/1.1/DTD/svg11.dtd">
<!-- Generated by graphviz version 2.43.0 (0)
 -->
<!-- Title: ARGameModeBase.h Pages: 1 -->
<svg width="1060pt" height="137pt"
 viewBox="0.00 0.00 1059.50 137.00" xmlns="http://www.w3.org/2000/svg" xmlns:xlink="http://www.w3.org/1999/xlink">
<g id="graph0" class="graph" transform="scale(1 1) rotate(0) translate(4 133)">
<title>ARGameModeBase.h</title>
<!-- Node1 -->
<g id="Node000001" class="node">
<title>Node1</title>
<g id="a_Node000001"><a xlink:title="ARGameModeBase header for Alien Ramen.">
<polygon fill="#999999" stroke="#666666" points="588.5,-129 469.5,-129 469.5,-110 588.5,-110 588.5,-129"/>
<text text-anchor="middle" x="529" y="-117" font-family="Helvetica,sans-Serif" font-size="10.00">ARGameModeBase.h</text>
</a>
</g>
</g>
<!-- Node2 -->
<g id="Node000002" class="node">
<title>Node2</title>
<g id="a_Node000002"><a xlink:href="ARDialogueSubsystem_8cpp_source.html" target="_top" xlink:title=" ">
<polygon fill="white" stroke="#666666" points="148,-74 0,-74 0,-55 148,-55 148,-74"/>
<text text-anchor="middle" x="74" y="-62" font-family="Helvetica,sans-Serif" font-size="10.00">ARDialogueSubsystem.cpp</text>
</a>
</g>
</g>
<!-- Node1&#45;&gt;Node2 -->
<g id="edge1_Node000001_Node000002" class="edge">
<title>Node1&#45;&gt;Node2</title>
<g id="a_edge1_Node000001_Node000002"><a xlink:title=" ">
<path fill="none" stroke="#63b8ff" d="M459.04,-110.35C374.57,-100.51 233.18,-84.04 147.26,-74.03"/>
<polygon fill="#63b8ff" stroke="#63b8ff" points="458.71,-113.84 469.05,-111.52 459.52,-106.88 458.71,-113.84"/>
</a>
</g>
</g>
<!-- Node3 -->
<g id="Node000003" class="node">
<title>Node3</title>
<g id="a_Node000003"><a xlink:href="ARGameModeBase_8cpp_source.html" target="_top" xlink:title=" ">
<polygon fill="white" stroke="#666666" points="297.5,-74 166.5,-74 166.5,-55 297.5,-55 297.5,-74"/>
<text text-anchor="middle" x="232" y="-62" font-family="Helvetica,sans-Serif" font-size="10.00">ARGameModeBase.cpp</text>
</a>
</g>
</g>
<!-- Node1&#45;&gt;Node3 -->
<g id="edge2_Node000001_Node000003" class="edge">
<title>Node1&#45;&gt;Node3</title>
<g id="a_edge2_Node000001_Node000003"><a xlink:title=" ">
<path fill="none" stroke="#63b8ff" d="M471.22,-108.19C415.54,-98.25 332.26,-83.39 280.09,-74.08"/>
<polygon fill="#63b8ff" stroke="#63b8ff" points="470.82,-111.67 481.28,-109.98 472.05,-104.78 470.82,-111.67"/>
</a>
</g>
</g>
<!-- Node4 -->
<g id="Node000004" class="node">
<title>Node4</title>
<g id="a_Node000004"><a xlink:href="ARInvaderGameMode_8h.html" target="_top" xlink:title="ARInvaderGameMode header for Alien Ramen.">
<polygon fill="white" stroke="#666666" points="448,-74 316,-74 316,-55 448,-55 448,-74"/>
<text text-anchor="middle" x="382" y="-62" font-family="Helvetica,sans-Serif" font-size="10.00">ARInvaderGameMode.h</text>
</a>
</g>
</g>
<!-- Node1&#45;&gt;Node4 -->
<g id="edge3_Node000001_Node000004" class="edge">
<title>Node1&#45;&gt;Node4</title>
<g id="a_edge3_Node000001_Node000004"><a xlink:title=" ">
<path fill="none" stroke="#63b8ff" d="M495.86,-106.55C468.56,-96.71 430.5,-82.98 406.05,-74.17"/>
<polygon fill="#63b8ff" stroke="#63b8ff" points="494.79,-109.89 505.38,-109.98 497.16,-103.3 494.79,-109.89"/>
</a>
</g>
</g>
<!-- Node6 -->
<g id="Node000006" class="node">
<title>Node6</title>
<g id="a_Node000006"><a xlink:href="ARLobbyGameMode_8h.html" target="_top" xlink:title="ARLobbyGameMode header for Alien Ramen.">
<polygon fill="white" stroke="#666666" points="591.5,-74 466.5,-74 466.5,-55 591.5,-55 591.5,-74"/>
<text text-anchor="middle" x="529" y="-62" font-family="Helvetica,sans-Serif" font-size="10.00">ARLobbyGameMode.h</text>
</a>
</g>
</g>
<!-- Node1&#45;&gt;Node6 -->
<g id="edge5_Node000001_Node000006" class="edge">
<title>Node1&#45;&gt;Node6</title>
<g id="a_edge5_Node000001_Node000006"><a xlink:title=" ">
<path fill="none" stroke="#63b8ff" d="M529,-99.66C529,-90.93 529,-80.99 529,-74.09"/>
<polygon fill="#63b8ff" stroke="#63b8ff" points="525.5,-99.75 529,-109.75 532.5,-99.75 525.5,-99.75"/>
</a>
</g>
</g>
<!-- Node8 -->
<g id="Node000008" class="node">
<title>Node8</title>
<g id="a_Node000008"><a xlink:href="ARPlayerController_8cpp_source.html" target="_top" xlink:title=" ">
<polygon fill="white" stroke="#666666" points="738,-74 610,-74 610,-55 738,-55 738,-74"/>
<text text-anchor="middle" x="674" y="-62" font-family="Helvetica,sans-Serif" font-size="10.00">ARPlayerController.cpp</text>
</a>
</g>
</g>
<!-- Node1&#45;&gt;Node8 -->
<g id="edge7_Node000001_Node000008" class="edge">
<title>Node1&#45;&gt;Node8</title>
<g id="a_edge7_Node000001_Node000008"><a xlink:title=" ">
<path fill="none" stroke="#63b8ff" d="M561.69,-106.55C588.62,-96.71 626.16,-82.98 650.28,-74.17"/>
<polygon fill="#63b8ff" stroke="#63b8ff" points="560.49,-103.26 552.3,-109.98 562.89,-109.84 560.49,-103.26"/>
</a>
</g>
</g>
<!-- Node9 -->
<g id="Node000009" class="node">
<title>Node9</title>
<g id="a_Node000009"><a xlink:href="ARScrapyardGameMode_8h.html" target="_top" xlink:title="ARScrapyardGameMode header for Alien Ramen.">
<polygon fill="white" stroke="#666666" points="900,-74 756,-74 756,-55 900,-55 900,-74"/>
<text text-anchor="middle" x="828" y="-62" font-family="Helvetica,sans-Serif" font-size="10.00">ARScrapyardGameMode.h</text>
</a>
</g>
</g>
<!-- Node1&#45;&gt;Node9 -->
<g id="edge8_Node000001_Node000009" class="edge">
<title>Node1&#45;&gt;Node9</title>
<g id="a_edge8_Node000001_Node000009"><a xlink:title=" ">
<path fill="none" stroke="#63b8ff" d="M587.17,-108.19C643.23,-98.25 727.06,-83.39 779.58,-74.08"/>
<polygon fill="#63b8ff" stroke="#63b8ff" points="586.28,-104.79 577.04,-109.98 587.5,-111.69 586.28,-104.79"/>
</a>
</g>
</g>
<!-- Node11 -->
<g id="Node000011" class="node">
<title>Node11</title>
<g id="a_Node000011"><a xlink:href="ARShopGameMode_8h.html" target="_top" xlink:title="ARShopGameMode header for Alien Ramen.">
<polygon fill="white" stroke="#666666" points="1042.5,-74 923.5,-74 923.5,-55 1042.5,-55 1042.5,-74"/>
<text text-anchor="middle" x="983" y="-62" font-family="Helvetica,sans-Serif" font-size="10.00">ARShopGameMode.h</text>
</a>
</g>
</g>
<!-- Node1&#45;&gt;Node11 -->
<g id="edge10_Node000001_Node000011" class="edge">
<title>Node1&#45;&gt;Node11</title>
<g id="a_edge10_Node000001_Node000011"><a xlink:title=" ">
<path fill="none" stroke="#63b8ff" d="M598.81,-110.35C687.68,-99.98 839.72,-82.23 923.41,-72.46"/>
<polygon fill="#63b8ff" stroke="#63b8ff" points="598.35,-106.88 588.82,-111.52 599.16,-113.83 598.35,-106.88"/>
</a>
</g>
</g>
<!-- Node5 -->
<g id="Node000005" class="node">
<title>Node5</title>
<g id="a_Node000005"><a xlink:href="ARInvaderGameMode_8cpp_source.html" target="_top" xlink:title=" ">
<polygon fill="white" stroke="#666666" points="448.5,-19 305.5,-19 305.5,0 448.5,0 448.5,-19"/>
<text text-anchor="middle" x="377" y="-7" font-family="Helvetica,sans-Serif" font-size="10.00">ARInvaderGameMode.cpp</text>
</a>
</g>
</g>
<!-- Node4&#45;&gt;Node5 -->
<g id="edge4_Node000004_Node000005" class="edge">
<title>Node4&#45;&gt;Node5</title>
<g id="a_edge4_Node000004_Node000005"><a xlink:title=" ">
<path fill="none" stroke="#63b8ff" d="M380.22,-44.66C379.4,-35.93 378.46,-25.99 377.81,-19.09"/>
<polygon fill="#63b8ff" stroke="#63b8ff" points="376.75,-45.12 381.17,-54.75 383.72,-44.46 376.75,-45.12"/>
</a>
</g>
</g>
<!-- Node7 -->
<g id="Node000007" class="node">
<title>Node7</title>
<g id="a_Node000007"><a xlink:href="ARLobbyGameMode_8cpp_source.html" target="_top" xlink:title=" ">
<polygon fill="white" stroke="#666666" points="603,-19 467,-19 467,0 603,0 603,-19"/>
<text text-anchor="middle" x="535" y="-7" font-family="Helvetica,sans-Serif" font-size="10.00">ARLobbyGameMode.cpp</text>
</a>
</g>
</g>
<!-- Node6&#45;&gt;Node7 -->
<g id="edge6_Node000006_Node000007" class="edge">
<title>Node6&#45;&gt;Node7</title>
<g id="a_edge6_Node000006_Node000007"><a xlink:title=" ">
<path fill="none" stroke="#63b8ff" d="M531.13,-44.66C532.12,-35.93 533.25,-25.99 534.03,-19.09"/>
<polygon fill="#63b8ff" stroke="#63b8ff" points="527.64,-44.42 529.99,-54.75 534.59,-45.21 527.64,-44.42"/>
</a>
</g>
</g>
<!-- Node10 -->
<g id="Node000010" class="node">
<title>Node10</title>
<g id="a_Node000010"><a xlink:href="ARScrapyardGameMode_8cpp_source.html" target="_top" xlink:title=" ">
<polygon fill="white" stroke="#666666" points="902.5,-19 747.5,-19 747.5,0 902.5,0 902.5,-19"/>
<text text-anchor="middle" x="825" y="-7" font-family="Helvetica,sans-Serif" font-size="10.00">ARScrapyardGameMode.cpp</text>
</a>
</g>
</g>
<!-- Node9&#45;&gt;Node10 -->
<g id="edge9_Node000009_Node000010" class="edge">
<title>Node9&#45;&gt;Node10</title>
<g id="a_edge9_Node000009_Node000010"><a xlink:title=" ">
<path fill="none" stroke="#63b8ff" d="M826.93,-44.66C826.44,-35.93 825.88,-25.99 825.49,-19.09"/>
<polygon fill="#63b8ff" stroke="#63b8ff" points="823.44,-44.96 827.5,-54.75 830.43,-44.57 823.44,-44.96"/>
</a>
</g>
</g>
<!-- Node12 -->
<g id="Node000012" class="node">
<title>Node12</title>
<g id="a_Node000012"><a xlink:href="ARShopGameMode_8cpp_source.html" target="_top" xlink:title=" ">
<polygon fill="white" stroke="#666666" points="1051.5,-19 920.5,-19 920.5,0 1051.5,0 1051.5,-19"/>
<text text-anchor="middle" x="986" y="-7" font-family="Helvetica,sans-Serif" font-size="10.00">ARShopGameMode.cpp</text>
</a>
</g>
</g>
<!-- Node11&#45;&gt;Node12 -->
<g id="edge11_Node000011_Node000012" class="edge">
<title>Node11&#45;&gt;Node12</title>
<g id="a_edge11_Node000011_Node000012"><a xlink:title=" ">
<path fill="none" stroke="#63b8ff" d="M984.07,-44.66C984.56,-35.93 985.12,-25.99 985.51,-19.09"/>
<polygon fill="#63b8ff" stroke="#63b8ff" points="980.57,-44.57 983.5,-54.75 987.56,-44.96 980.57,-44.57"/>
</a>
</g>
</g>
</g>
</svg>
