<?xml version="1.0" encoding="UTF-8" standalone="no"?>
<!DOCTYPE svg PUBLIC "-//W3C//DTD SVG 1.1//EN"
 "http://www.w3.org/Graphics/SVG/1.1/DTD/svg11.dtd">
<!-- Generated by graphviz version 2.43.0 (0)
 -->
<!-- Title: ARGameStateModeStructs.h Pages: 1 -->
<svg width="481pt" height="192pt"
 viewBox="0.00 0.00 480.69 192.00" xmlns="http://www.w3.org/2000/svg" xmlns:xlink="http://www.w3.org/1999/xlink">
<g id="graph0" class="graph" transform="scale(1 1) rotate(0) translate(4 188)">
<title>ARGameStateModeStructs.h</title>
<!-- Node1 -->
<g id="Node000001" class="node">
<title>Node1</title>
<g id="a_Node000001"><a xlink:title="ARGameStateModeStructs header for Alien Ramen.">
<polygon fill="#999999" stroke="#666666" points="207.69,-184 52.69,-184 52.69,-165 207.69,-165 207.69,-184"/>
<text text-anchor="middle" x="130.19" y="-172" font-family="Helvetica,sans-Serif" font-size="10.00">ARGameStateModeStructs.h</text>
</a>
</g>
</g>
<!-- Node2 -->
<g id="Node000002" class="node">
<title>Node2</title>
<g id="a_Node000002"><a xlink:title=" ">
<polygon fill="#e0e0e0" stroke="#999999" points="199.19,-19 111.19,-19 111.19,0 199.19,0 199.19,-19"/>
<text text-anchor="middle" x="155.19" y="-7" font-family="Helvetica,sans-Serif" font-size="10.00">CoreMinimal.h</text>
</a>
</g>
</g>
<!-- Node1&#45;&gt;Node2 -->
<g id="edge1_Node000001_Node000002" class="edge">
<title>Node1&#45;&gt;Node2</title>
<g id="a_edge1_Node000001_Node000002"><a xlink:title=" ">
<path fill="none" stroke="#63b8ff" d="M108.22,-164.96C64.46,-146.7 -26.47,-101.71 8.19,-55 29.34,-26.5 68.24,-15.61 100.71,-11.72"/>
<polygon fill="#63b8ff" stroke="#63b8ff" points="101.39,-15.16 110.99,-10.68 100.69,-8.2 101.39,-15.16"/>
</a>
</g>
</g>
<!-- Node3 -->
<g id="Node000003" class="node">
<title>Node3</title>
<g id="a_Node000003"><a xlink:href="ARSaveTypes_8h.html" target="_top" xlink:title="ARSaveTypes header for Alien Ramen.">
<polygon fill="white" stroke="#666666" points="224.69,-129 133.69,-129 133.69,-110 224.69,-110 224.69,-129"/>
<text text-anchor="middle" x="179.19" y="-117" font-family="Helvetica,sans-Serif" font-size="10.00">ARSaveTypes.h</text>
</a>
</g>
</g>
<!-- Node1&#45;&gt;Node3 -->
<g id="edge2_Node000001_Node000003" class="edge">
<title>Node1&#45;&gt;Node3</title>
<g id="a_edge2_Node000001_Node000003"><a xlink:title=" ">
<path fill="none" stroke="#63b8ff" d="M138.29,-164.75C145.35,-157.11 155.78,-145.82 164.34,-136.56"/>
<polygon fill="#63b8ff" stroke="#63b8ff" points="167.04,-138.81 171.25,-129.09 161.9,-134.06 167.04,-138.81"/>
</a>
</g>
</g>
<!-- Node4 -->
<g id="Node000004" class="node">
<title>Node4</title>
<g id="a_Node000004"><a xlink:title=" ">
<polygon fill="#e0e0e0" stroke="#999999" points="156.69,-74 17.69,-74 17.69,-55 156.69,-55 156.69,-74"/>
<text text-anchor="middle" x="87.19" y="-62" font-family="Helvetica,sans-Serif" font-size="10.00">GameplayTagContainer.h</text>
</a>
</g>
</g>
<!-- Node1&#45;&gt;Node4 -->
<g id="edge9_Node000001_Node000004" class="edge">
<title>Node1&#45;&gt;Node4</title>
<g id="a_edge9_Node000001_Node000004"><a xlink:title=" ">
<path fill="none" stroke="#63b8ff" d="M126.68,-164.66C119.65,-147.01 103.75,-107.09 94.42,-83.64"/>
<polygon fill="#63b8ff" stroke="#63b8ff" points="97.59,-82.15 90.64,-74.16 91.09,-84.74 97.59,-82.15"/>
</a>
</g>
</g>
<!-- Node8 -->
<g id="Node000008" class="node">
<title>Node8</title>
<g id="a_Node000008"><a xlink:title=" ">
<polygon fill="#e0e0e0" stroke="#999999" points="449.69,-129 242.69,-129 242.69,-110 449.69,-110 449.69,-129"/>
<text text-anchor="middle" x="346.19" y="-117" font-family="Helvetica,sans-Serif" font-size="10.00">ARGameStateModeStructs.generated.h</text>
</a>
</g>
</g>
<!-- Node1&#45;&gt;Node8 -->
<g id="edge10_Node000001_Node000008" class="edge">
<title>Node1&#45;&gt;Node8</title>
<g id="a_edge10_Node000001_Node000008"><a xlink:title=" ">
<path fill="none" stroke="#63b8ff" d="M164.9,-164.98C201.95,-155.89 260.79,-141.46 301.33,-131.51"/>
<polygon fill="#63b8ff" stroke="#63b8ff" points="302.34,-134.86 311.22,-129.08 300.67,-128.07 302.34,-134.86"/>
</a>
</g>
</g>
<!-- Node3&#45;&gt;Node2 -->
<g id="edge3_Node000003_Node000002" class="edge">
<title>Node3&#45;&gt;Node2</title>
<g id="a_edge3_Node000003_Node000002"><a xlink:title=" ">
<path fill="none" stroke="#63b8ff" d="M177.54,-109.85C175.17,-97.61 170.61,-74.54 166.19,-55 164.24,-46.35 161.91,-36.81 159.89,-28.78"/>
<polygon fill="#63b8ff" stroke="#63b8ff" points="163.26,-27.84 157.41,-19.01 156.48,-29.56 163.26,-27.84"/>
</a>
</g>
</g>
<!-- Node3&#45;&gt;Node4 -->
<g id="edge4_Node000003_Node000004" class="edge">
<title>Node3&#45;&gt;Node4</title>
<g id="a_edge4_Node000003_Node000004"><a xlink:title=" ">
<path fill="none" stroke="#63b8ff" d="M164.41,-109.98C150.01,-101.69 127.89,-88.94 111,-79.22"/>
<polygon fill="#63b8ff" stroke="#63b8ff" points="112.66,-76.13 102.25,-74.17 109.16,-82.19 112.66,-76.13"/>
</a>
</g>
</g>
<!-- Node5 -->
<g id="Node000005" class="node">
<title>Node5</title>
<g id="a_Node000005"><a xlink:href="ARPlayerTypes_8h.html" target="_top" xlink:title="Shared player&#45;facing enum types for Alien Ramen gameplay/save/runtime APIs.">
<polygon fill="white" stroke="#666666" points="311.19,-74 213.19,-74 213.19,-55 311.19,-55 311.19,-74"/>
<text text-anchor="middle" x="262.19" y="-62" font-family="Helvetica,sans-Serif" font-size="10.00">ARPlayerTypes.h</text>
</a>
</g>
</g>
<!-- Node3&#45;&gt;Node5 -->
<g id="edge5_Node000003_Node000005" class="edge">
<title>Node3&#45;&gt;Node5</title>
<g id="a_edge5_Node000003_Node000005"><a xlink:title=" ">
<path fill="none" stroke="#63b8ff" d="M192.53,-109.98C205.28,-101.84 224.75,-89.41 239.87,-79.76"/>
<polygon fill="#63b8ff" stroke="#63b8ff" points="242.07,-82.5 248.62,-74.17 238.3,-76.6 242.07,-82.5"/>
</a>
</g>
</g>
<!-- Node7 -->
<g id="Node000007" class="node">
<title>Node7</title>
<g id="a_Node000007"><a xlink:title=" ">
<polygon fill="#e0e0e0" stroke="#999999" points="472.69,-74 329.69,-74 329.69,-55 472.69,-55 472.69,-74"/>
<text text-anchor="middle" x="401.19" y="-62" font-family="Helvetica,sans-Serif" font-size="10.00">ARSaveTypes.generated.h</text>
</a>
</g>
</g>
<!-- Node3&#45;&gt;Node7 -->
<g id="edge8_Node000003_Node000007" class="edge">
<title>Node3&#45;&gt;Node7</title>
<g id="a_edge8_Node000003_Node000007"><a xlink:title=" ">
<path fill="none" stroke="#63b8ff" d="M214.86,-109.98C253.02,-100.87 313.67,-86.4 355.35,-76.45"/>
<polygon fill="#63b8ff" stroke="#63b8ff" points="356.33,-79.81 365.25,-74.08 354.71,-73 356.33,-79.81"/>
</a>
</g>
</g>
<!-- Node5&#45;&gt;Node2 -->
<g id="edge6_Node000005_Node000002" class="edge">
<title>Node5&#45;&gt;Node2</title>
<g id="a_edge6_Node000005_Node000002"><a xlink:title=" ">
<path fill="none" stroke="#63b8ff" d="M245,-54.98C227.95,-46.54 201.56,-33.47 181.8,-23.68"/>
<polygon fill="#63b8ff" stroke="#63b8ff" points="183.21,-20.47 172.7,-19.17 180.11,-26.75 183.21,-20.47"/>
</a>
</g>
</g>
<!-- Node6 -->
<g id="Node000006" class="node">
<title>Node6</title>
<g id="a_Node000006"><a xlink:title=" ">
<polygon fill="#e0e0e0" stroke="#999999" points="367.19,-19 217.19,-19 217.19,0 367.19,0 367.19,-19"/>
<text text-anchor="middle" x="292.19" y="-7" font-family="Helvetica,sans-Serif" font-size="10.00">ARPlayerTypes.generated.h</text>
</a>
</g>
</g>
<!-- Node5&#45;&gt;Node6 -->
<g id="edge7_Node000005_Node000006" class="edge">
<title>Node5&#45;&gt;Node6</title>
<g id="a_edge7_Node000005_Node000006"><a xlink:title=" ">
<path fill="none" stroke="#63b8ff" d="M267.15,-54.75C271.26,-47.49 277.22,-36.95 282.3,-27.98"/>
<polygon fill="#63b8ff" stroke="#63b8ff" points="285.45,-29.52 287.33,-19.09 279.36,-26.07 285.45,-29.52"/>
</a>
</g>
</g>
</g>
</svg>
