<?xml version="1.0" encoding="UTF-8" standalone="no"?>
<!DOCTYPE svg PUBLIC "-//W3C//DTD SVG 1.1//EN"
 "http://www.w3.org/Graphics/SVG/1.1/DTD/svg11.dtd">
<!-- Generated by graphviz version 2.43.0 (0)
 -->
<!-- Title: ARHUDBase.h Pages: 1 -->
<svg width="724pt" height="137pt"
 viewBox="0.00 0.00 724.00 137.00" xmlns="http://www.w3.org/2000/svg" xmlns:xlink="http://www.w3.org/1999/xlink">
<g id="graph0" class="graph" transform="scale(1 1) rotate(0) translate(4 133)">
<title>ARHUDBase.h</title>
<!-- Node1 -->
<g id="Node000001" class="node">
<title>Node1</title>
<g id="a_Node000001"><a xlink:title="ARHUDBase header for Alien Ramen.">
<polygon fill="#999999" stroke="#666666" points="384.5,-129 298.5,-129 298.5,-110 384.5,-110 384.5,-129"/>
<text text-anchor="middle" x="341.5" y="-117" font-family="Helvetica,sans-Serif" font-size="10.00">ARHUDBase.h</text>
</a>
</g>
</g>
<!-- Node2 -->
<g id="Node000002" class="node">
<title>Node2</title>
<g id="a_Node000002"><a xlink:href="ARHUDBase_8cpp_source.html" target="_top" xlink:title=" ">
<polygon fill="white" stroke="#666666" points="97,-74 0,-74 0,-55 97,-55 97,-74"/>
<text text-anchor="middle" x="48.5" y="-62" font-family="Helvetica,sans-Serif" font-size="10.00">ARHUDBase.cpp</text>
</a>
</g>
</g>
<!-- Node1&#45;&gt;Node2 -->
<g id="edge1_Node000001_Node000002" class="edge">
<title>Node1&#45;&gt;Node2</title>
<g id="a_edge1_Node000001_Node000002"><a xlink:title=" ">
<path fill="none" stroke="#63b8ff" d="M288.37,-108.89C233.44,-98.95 148.48,-83.59 95.8,-74.06"/>
<polygon fill="#63b8ff" stroke="#63b8ff" points="287.8,-112.34 298.27,-110.68 289.05,-105.46 287.8,-112.34"/>
</a>
</g>
</g>
<!-- Node3 -->
<g id="Node000003" class="node">
<title>Node3</title>
<g id="a_Node000003"><a xlink:href="ARInvaderHUD_8h.html" target="_top" xlink:title="Invader HUD base class for Alien Ramen.">
<polygon fill="white" stroke="#666666" points="213.5,-74 115.5,-74 115.5,-55 213.5,-55 213.5,-74"/>
<text text-anchor="middle" x="164.5" y="-62" font-family="Helvetica,sans-Serif" font-size="10.00">ARInvaderHUD.h</text>
</a>
</g>
</g>
<!-- Node1&#45;&gt;Node3 -->
<g id="edge2_Node000001_Node000003" class="edge">
<title>Node1&#45;&gt;Node3</title>
<g id="a_edge2_Node000001_Node000003"><a xlink:title=" ">
<path fill="none" stroke="#63b8ff" d="M303.28,-107.06C270.2,-97.15 223.09,-83.04 193.16,-74.08"/>
<polygon fill="#63b8ff" stroke="#63b8ff" points="302.48,-110.47 313.06,-109.98 304.49,-103.76 302.48,-110.47"/>
</a>
</g>
</g>
<!-- Node5 -->
<g id="Node000005" class="node">
<title>Node5</title>
<g id="a_Node000005"><a xlink:href="ARLobbyHUD_8h.html" target="_top" xlink:title="Lobby HUD base class for Alien Ramen.">
<polygon fill="white" stroke="#666666" points="323,-74 232,-74 232,-55 323,-55 323,-74"/>
<text text-anchor="middle" x="277.5" y="-62" font-family="Helvetica,sans-Serif" font-size="10.00">ARLobbyHUD.h</text>
</a>
</g>
</g>
<!-- Node1&#45;&gt;Node5 -->
<g id="edge4_Node000001_Node000005" class="edge">
<title>Node1&#45;&gt;Node5</title>
<g id="a_edge4_Node000001_Node000005"><a xlink:title=" ">
<path fill="none" stroke="#63b8ff" d="M323.51,-103.6C312.04,-94.11 297.59,-82.13 287.97,-74.17"/>
<polygon fill="#63b8ff" stroke="#63b8ff" points="321.28,-106.3 331.22,-109.98 325.75,-100.91 321.28,-106.3"/>
</a>
</g>
</g>
<!-- Node7 -->
<g id="Node000007" class="node">
<title>Node7</title>
<g id="a_Node000007"><a xlink:href="ARPlayerController_8cpp_source.html" target="_top" xlink:title=" ">
<polygon fill="white" stroke="#666666" points="469.5,-74 341.5,-74 341.5,-55 469.5,-55 469.5,-74"/>
<text text-anchor="middle" x="405.5" y="-62" font-family="Helvetica,sans-Serif" font-size="10.00">ARPlayerController.cpp</text>
</a>
</g>
</g>
<!-- Node1&#45;&gt;Node7 -->
<g id="edge6_Node000001_Node000007" class="edge">
<title>Node1&#45;&gt;Node7</title>
<g id="a_edge6_Node000001_Node000007"><a xlink:title=" ">
<path fill="none" stroke="#63b8ff" d="M359.49,-103.6C370.96,-94.11 385.41,-82.13 395.03,-74.17"/>
<polygon fill="#63b8ff" stroke="#63b8ff" points="357.25,-100.91 351.78,-109.98 361.72,-106.3 357.25,-100.91"/>
</a>
</g>
</g>
<!-- Node8 -->
<g id="Node000008" class="node">
<title>Node8</title>
<g id="a_Node000008"><a xlink:href="ARScrapyardHUD_8h.html" target="_top" xlink:title="Scrapyard HUD base class for Alien Ramen.">
<polygon fill="white" stroke="#666666" points="597.5,-74 487.5,-74 487.5,-55 597.5,-55 597.5,-74"/>
<text text-anchor="middle" x="542.5" y="-62" font-family="Helvetica,sans-Serif" font-size="10.00">ARScrapyardHUD.h</text>
</a>
</g>
</g>
<!-- Node1&#45;&gt;Node8 -->
<g id="edge7_Node000001_Node000008" class="edge">
<title>Node1&#45;&gt;Node8</title>
<g id="a_edge7_Node000001_Node000008"><a xlink:title=" ">
<path fill="none" stroke="#63b8ff" d="M383.93,-107.31C421.54,-97.39 475.67,-83.12 509.95,-74.08"/>
<polygon fill="#63b8ff" stroke="#63b8ff" points="382.57,-104.05 373.79,-109.98 384.36,-110.82 382.57,-104.05"/>
</a>
</g>
</g>
<!-- Node10 -->
<g id="Node000010" class="node">
<title>Node10</title>
<g id="a_Node000010"><a xlink:href="ARShopHUD_8h.html" target="_top" xlink:title="Shop HUD base class for Alien Ramen.">
<polygon fill="white" stroke="#666666" points="707.5,-74 621.5,-74 621.5,-55 707.5,-55 707.5,-74"/>
<text text-anchor="middle" x="664.5" y="-62" font-family="Helvetica,sans-Serif" font-size="10.00">ARShopHUD.h</text>
</a>
</g>
</g>
<!-- Node1&#45;&gt;Node10 -->
<g id="edge9_Node000001_Node000010" class="edge">
<title>Node1&#45;&gt;Node10</title>
<g id="a_edge9_Node000001_Node000010"><a xlink:title=" ">
<path fill="none" stroke="#63b8ff" d="M394.91,-109.74C458.3,-99.34 562.73,-82.2 621.27,-72.59"/>
<polygon fill="#63b8ff" stroke="#63b8ff" points="394.03,-106.33 384.73,-111.41 395.16,-113.24 394.03,-106.33"/>
</a>
</g>
</g>
<!-- Node4 -->
<g id="Node000004" class="node">
<title>Node4</title>
<g id="a_Node000004"><a xlink:href="ARInvaderHUD_8cpp_source.html" target="_top" xlink:title=" ">
<polygon fill="white" stroke="#666666" points="214.5,-19 104.5,-19 104.5,0 214.5,0 214.5,-19"/>
<text text-anchor="middle" x="159.5" y="-7" font-family="Helvetica,sans-Serif" font-size="10.00">ARInvaderHUD.cpp</text>
</a>
</g>
</g>
<!-- Node3&#45;&gt;Node4 -->
<g id="edge3_Node000003_Node000004" class="edge">
<title>Node3&#45;&gt;Node4</title>
<g id="a_edge3_Node000003_Node000004"><a xlink:title=" ">
<path fill="none" stroke="#63b8ff" d="M162.72,-44.66C161.9,-35.93 160.96,-25.99 160.31,-19.09"/>
<polygon fill="#63b8ff" stroke="#63b8ff" points="159.25,-45.12 163.67,-54.75 166.22,-44.46 159.25,-45.12"/>
</a>
</g>
</g>
<!-- Node6 -->
<g id="Node000006" class="node">
<title>Node6</title>
<g id="a_Node000006"><a xlink:href="ARLobbyHUD_8cpp_source.html" target="_top" xlink:title=" ">
<polygon fill="white" stroke="#666666" points="334.5,-19 232.5,-19 232.5,0 334.5,0 334.5,-19"/>
<text text-anchor="middle" x="283.5" y="-7" font-family="Helvetica,sans-Serif" font-size="10.00">ARLobbyHUD.cpp</text>
</a>
</g>
</g>
<!-- Node5&#45;&gt;Node6 -->
<g id="edge5_Node000005_Node000006" class="edge">
<title>Node5&#45;&gt;Node6</title>
<g id="a_edge5_Node000005_Node000006"><a xlink:title=" ">
<path fill="none" stroke="#63b8ff" d="M279.63,-44.66C280.62,-35.93 281.75,-25.99 282.53,-19.09"/>
<polygon fill="#63b8ff" stroke="#63b8ff" points="276.14,-44.42 278.49,-54.75 283.09,-45.21 276.14,-44.42"/>
</a>
</g>
</g>
<!-- Node9 -->
<g id="Node000009" class="node">
<title>Node9</title>
<g id="a_Node000009"><a xlink:href="ARScrapyardHUD_8cpp_source.html" target="_top" xlink:title=" ">
<polygon fill="white" stroke="#666666" points="600.5,-19 478.5,-19 478.5,0 600.5,0 600.5,-19"/>
<text text-anchor="middle" x="539.5" y="-7" font-family="Helvetica,sans-Serif" font-size="10.00">ARScrapyardHUD.cpp</text>
</a>
</g>
</g>
<!-- Node8&#45;&gt;Node9 -->
<g id="edge8_Node000008_Node000009" class="edge">
<title>Node8&#45;&gt;Node9</title>
<g id="a_edge8_Node000008_Node000009"><a xlink:title=" ">
<path fill="none" stroke="#63b8ff" d="M541.43,-44.66C540.94,-35.93 540.38,-25.99 539.99,-19.09"/>
<polygon fill="#63b8ff" stroke="#63b8ff" points="537.94,-44.96 542,-54.75 544.93,-44.57 537.94,-44.96"/>
</a>
</g>
</g>
<!-- Node11 -->
<g id="Node000011" class="node">
<title>Node11</title>
<g id="a_Node000011"><a xlink:href="ARShopHUD_8cpp_source.html" target="_top" xlink:title=" ">
<polygon fill="white" stroke="#666666" points="716,-19 619,-19 619,0 716,0 716,-19"/>
<text text-anchor="middle" x="667.5" y="-7" font-family="Helvetica,sans-Serif" font-size="10.00">ARShopHUD.cpp</text>
</a>
</g>
</g>
<!-- Node10&#45;&gt;Node11 -->
<g id="edge10_Node000010_Node000011" class="edge">
<title>Node10&#45;&gt;Node11</title>
<g id="a_edge10_Node000010_Node000011"><a xlink:title=" ">
<path fill="none" stroke="#63b8ff" d="M665.57,-44.66C666.06,-35.93 666.62,-25.99 667.01,-19.09"/>
<polygon fill="#63b8ff" stroke="#63b8ff" points="662.07,-44.57 665,-54.75 669.06,-44.96 662.07,-44.57"/>
</a>
</g>
</g>
</g>
</svg>
