<?xml version="1.0" encoding="UTF-8" standalone="no"?>
<!DOCTYPE svg PUBLIC "-//W3C//DTD SVG 1.1//EN"
 "http://www.w3.org/Graphics/SVG/1.1/DTD/svg11.dtd">
<!-- Generated by graphviz version 2.43.0 (0)
 -->
<!-- Title: ARInvaderDropBase.h Pages: 1 -->
<svg width="866pt" height="137pt"
 viewBox="0.00 0.00 865.50 137.00" xmlns="http://www.w3.org/2000/svg" xmlns:xlink="http://www.w3.org/1999/xlink">
<g id="graph0" class="graph" transform="scale(1 1) rotate(0) translate(4 133)">
<title>ARInvaderDropBase.h</title>
<!-- Node1 -->
<g id="Node000001" class="node">
<title>Node1</title>
<g id="a_Node000001"><a xlink:title="Replicated base actor for invader currency drops.">
<polygon fill="#999999" stroke="#666666" points="455,-129 332,-129 332,-110 455,-110 455,-129"/>
<text text-anchor="middle" x="393.5" y="-117" font-family="Helvetica,sans-Serif" font-size="10.00">ARInvaderDropBase.h</text>
</a>
</g>
</g>
<!-- Node2 -->
<g id="Node000002" class="node">
<title>Node2</title>
<g id="a_Node000002"><a xlink:title=" ">
<polygon fill="#e0e0e0" stroke="#999999" points="251.5,-19 163.5,-19 163.5,0 251.5,0 251.5,-19"/>
<text text-anchor="middle" x="207.5" y="-7" font-family="Helvetica,sans-Serif" font-size="10.00">CoreMinimal.h</text>
</a>
</g>
</g>
<!-- Node1&#45;&gt;Node2 -->
<g id="edge1_Node000001_Node000002" class="edge">
<title>Node1&#45;&gt;Node2</title>
<g id="a_edge1_Node000001_Node000002"><a xlink:title=" ">
<path fill="none" stroke="#63b8ff" d="M343.97,-109.92C316.38,-103.39 282.46,-92.29 256.5,-74 239.48,-62.01 225.63,-42.37 217.05,-28.1"/>
<polygon fill="#63b8ff" stroke="#63b8ff" points="219.98,-26.18 211.98,-19.24 213.91,-29.66 219.98,-26.18"/>
</a>
</g>
</g>
<!-- Node3 -->
<g id="Node000003" class="node">
<title>Node3</title>
<g id="a_Node000003"><a xlink:href="ARColorTypes_8h.html" target="_top" xlink:title="Shared gameplay color types used across enemies/players/rewards.">
<polygon fill="white" stroke="#666666" points="209.5,-74 117.5,-74 117.5,-55 209.5,-55 209.5,-74"/>
<text text-anchor="middle" x="163.5" y="-62" font-family="Helvetica,sans-Serif" font-size="10.00">ARColorTypes.h</text>
</a>
</g>
</g>
<!-- Node1&#45;&gt;Node3 -->
<g id="edge2_Node000001_Node000003" class="edge">
<title>Node1&#45;&gt;Node3</title>
<g id="a_edge2_Node000001_Node000003"><a xlink:title=" ">
<path fill="none" stroke="#63b8ff" d="M356.55,-109.98C316.93,-100.86 253.91,-86.33 210.73,-76.38"/>
<polygon fill="#63b8ff" stroke="#63b8ff" points="211.27,-72.92 200.74,-74.08 209.7,-79.74 211.27,-72.92"/>
</a>
</g>
</g>
<!-- Node5 -->
<g id="Node000005" class="node">
<title>Node5</title>
<g id="a_Node000005"><a xlink:href="ARInvaderDropTypes_8h.html" target="_top" xlink:title="Shared invader drop type surface.">
<polygon fill="white" stroke="#666666" points="393,-74 266,-74 266,-55 393,-55 393,-74"/>
<text text-anchor="middle" x="329.5" y="-62" font-family="Helvetica,sans-Serif" font-size="10.00">ARInvaderDropTypes.h</text>
</a>
</g>
</g>
<!-- Node1&#45;&gt;Node5 -->
<g id="edge5_Node000001_Node000005" class="edge">
<title>Node1&#45;&gt;Node5</title>
<g id="a_edge5_Node000001_Node000005"><a xlink:title=" ">
<path fill="none" stroke="#63b8ff" d="M383.22,-109.98C373.66,-102.07 359.22,-90.11 347.72,-80.58"/>
<polygon fill="#63b8ff" stroke="#63b8ff" points="349.9,-77.85 339.97,-74.17 345.44,-83.24 349.9,-77.85"/>
</a>
</g>
</g>
<!-- Node7 -->
<g id="Node000007" class="node">
<title>Node7</title>
<g id="a_Node000007"><a xlink:href="ARPickupBase_8h.html" target="_top" xlink:title="ARPickupBase header for Alien Ramen.">
<polygon fill="white" stroke="#666666" points="506,-74 411,-74 411,-55 506,-55 506,-74"/>
<text text-anchor="middle" x="458.5" y="-62" font-family="Helvetica,sans-Serif" font-size="10.00">ARPickupBase.h</text>
</a>
</g>
</g>
<!-- Node1&#45;&gt;Node7 -->
<g id="edge8_Node000001_Node000007" class="edge">
<title>Node1&#45;&gt;Node7</title>
<g id="a_edge8_Node000001_Node000007"><a xlink:title=" ">
<path fill="none" stroke="#63b8ff" d="M403.94,-109.98C413.65,-102.07 428.32,-90.11 440,-80.58"/>
<polygon fill="#63b8ff" stroke="#63b8ff" points="442.33,-83.2 447.87,-74.17 437.9,-77.78 442.33,-83.2"/>
</a>
</g>
</g>
<!-- Node10 -->
<g id="Node000010" class="node">
<title>Node10</title>
<g id="a_Node000010"><a xlink:title=" ">
<polygon fill="#e0e0e0" stroke="#999999" points="663,-74 524,-74 524,-55 663,-55 663,-74"/>
<text text-anchor="middle" x="593.5" y="-62" font-family="Helvetica,sans-Serif" font-size="10.00">GameplayTagContainer.h</text>
</a>
</g>
</g>
<!-- Node1&#45;&gt;Node10 -->
<g id="edge12_Node000001_Node000010" class="edge">
<title>Node1&#45;&gt;Node10</title>
<g id="a_edge12_Node000001_Node000010"><a xlink:title=" ">
<path fill="none" stroke="#63b8ff" d="M425.63,-109.98C459.65,-100.97 513.5,-86.7 551,-76.76"/>
<polygon fill="#63b8ff" stroke="#63b8ff" points="552.34,-80.03 561.11,-74.08 550.55,-73.26 552.34,-80.03"/>
</a>
</g>
</g>
<!-- Node11 -->
<g id="Node000011" class="node">
<title>Node11</title>
<g id="a_Node000011"><a xlink:title=" ">
<polygon fill="#e0e0e0" stroke="#999999" points="857.5,-74 681.5,-74 681.5,-55 857.5,-55 857.5,-74"/>
<text text-anchor="middle" x="769.5" y="-62" font-family="Helvetica,sans-Serif" font-size="10.00">ARInvaderDropBase.generated.h</text>
</a>
</g>
</g>
<!-- Node1&#45;&gt;Node11 -->
<g id="edge13_Node000001_Node000011" class="edge">
<title>Node1&#45;&gt;Node11</title>
<g id="a_edge13_Node000001_Node000011"><a xlink:title=" ">
<path fill="none" stroke="#63b8ff" d="M453.91,-109.98C520.69,-100.57 628.13,-85.43 698.78,-75.47"/>
<polygon fill="#63b8ff" stroke="#63b8ff" points="699.51,-78.9 708.93,-74.04 698.54,-71.97 699.51,-78.9"/>
</a>
</g>
</g>
<!-- Node3&#45;&gt;Node2 -->
<g id="edge3_Node000003_Node000002" class="edge">
<title>Node3&#45;&gt;Node2</title>
<g id="a_edge3_Node000003_Node000002"><a xlink:title=" ">
<path fill="none" stroke="#63b8ff" d="M170.77,-54.75C177.04,-47.18 186.29,-36.05 193.93,-26.84"/>
<polygon fill="#63b8ff" stroke="#63b8ff" points="196.67,-29.02 200.37,-19.09 191.29,-24.55 196.67,-29.02"/>
</a>
</g>
</g>
<!-- Node4 -->
<g id="Node000004" class="node">
<title>Node4</title>
<g id="a_Node000004"><a xlink:title=" ">
<polygon fill="#e0e0e0" stroke="#999999" points="145,-19 0,-19 0,0 145,0 145,-19"/>
<text text-anchor="middle" x="72.5" y="-7" font-family="Helvetica,sans-Serif" font-size="10.00">ARColorTypes.generated.h</text>
</a>
</g>
</g>
<!-- Node3&#45;&gt;Node4 -->
<g id="edge4_Node000003_Node000004" class="edge">
<title>Node3&#45;&gt;Node4</title>
<g id="a_edge4_Node000003_Node000004"><a xlink:title=" ">
<path fill="none" stroke="#63b8ff" d="M148.88,-54.98C134.64,-46.69 112.75,-33.94 96.05,-24.22"/>
<polygon fill="#63b8ff" stroke="#63b8ff" points="97.79,-21.18 87.39,-19.17 94.27,-27.23 97.79,-21.18"/>
</a>
</g>
</g>
<!-- Node5&#45;&gt;Node2 -->
<g id="edge6_Node000005_Node000002" class="edge">
<title>Node5&#45;&gt;Node2</title>
<g id="a_edge6_Node000005_Node000002"><a xlink:title=" ">
<path fill="none" stroke="#63b8ff" d="M309.9,-54.98C290.18,-46.42 259.55,-33.11 236.92,-23.28"/>
<polygon fill="#63b8ff" stroke="#63b8ff" points="238.02,-19.94 227.46,-19.17 235.24,-26.37 238.02,-19.94"/>
</a>
</g>
</g>
<!-- Node6 -->
<g id="Node000006" class="node">
<title>Node6</title>
<g id="a_Node000006"><a xlink:title=" ">
<polygon fill="#e0e0e0" stroke="#999999" points="449,-19 270,-19 270,0 449,0 449,-19"/>
<text text-anchor="middle" x="359.5" y="-7" font-family="Helvetica,sans-Serif" font-size="10.00">ARInvaderDropTypes.generated.h</text>
</a>
</g>
</g>
<!-- Node5&#45;&gt;Node6 -->
<g id="edge7_Node000005_Node000006" class="edge">
<title>Node5&#45;&gt;Node6</title>
<g id="a_edge7_Node000005_Node000006"><a xlink:title=" ">
<path fill="none" stroke="#63b8ff" d="M334.45,-54.75C338.56,-47.49 344.53,-36.95 349.6,-27.98"/>
<polygon fill="#63b8ff" stroke="#63b8ff" points="352.76,-29.52 354.64,-19.09 346.67,-26.07 352.76,-29.52"/>
</a>
</g>
</g>
<!-- Node7&#45;&gt;Node2 -->
<g id="edge9_Node000007_Node000002" class="edge">
<title>Node7&#45;&gt;Node2</title>
<g id="a_edge9_Node000007_Node000002"><a xlink:title=" ">
<path fill="none" stroke="#63b8ff" d="M418.17,-54.98C374.66,-45.8 305.3,-31.15 258.15,-21.19"/>
<polygon fill="#63b8ff" stroke="#63b8ff" points="258.65,-17.72 248.14,-19.08 257.2,-24.57 258.65,-17.72"/>
</a>
</g>
</g>
<!-- Node8 -->
<g id="Node000008" class="node">
<title>Node8</title>
<g id="a_Node000008"><a xlink:title=" ">
<polygon fill="#e0e0e0" stroke="#999999" points="769,-19 632,-19 632,0 769,0 769,-19"/>
<text text-anchor="middle" x="700.5" y="-7" font-family="Helvetica,sans-Serif" font-size="10.00">GameFramework/Actor.h</text>
</a>
</g>
</g>
<!-- Node7&#45;&gt;Node8 -->
<g id="edge10_Node000007_Node000008" class="edge">
<title>Node7&#45;&gt;Node8</title>
<g id="a_edge10_Node000007_Node000008"><a xlink:title=" ">
<path fill="none" stroke="#63b8ff" d="M497.38,-54.98C539.24,-45.82 605.93,-31.21 651.38,-21.26"/>
<polygon fill="#63b8ff" stroke="#63b8ff" points="652.29,-24.64 661.31,-19.08 650.8,-17.8 652.29,-24.64"/>
</a>
</g>
</g>
<!-- Node9 -->
<g id="Node000009" class="node">
<title>Node9</title>
<g id="a_Node000009"><a xlink:title=" ">
<polygon fill="#e0e0e0" stroke="#999999" points="614,-19 467,-19 467,0 614,0 614,-19"/>
<text text-anchor="middle" x="540.5" y="-7" font-family="Helvetica,sans-Serif" font-size="10.00">ARPickupBase.generated.h</text>
</a>
</g>
</g>
<!-- Node7&#45;&gt;Node9 -->
<g id="edge11_Node000007_Node000009" class="edge">
<title>Node7&#45;&gt;Node9</title>
<g id="a_edge11_Node000007_Node000009"><a xlink:title=" ">
<path fill="none" stroke="#63b8ff" d="M471.67,-54.98C484.27,-46.84 503.5,-34.41 518.44,-24.76"/>
<polygon fill="#63b8ff" stroke="#63b8ff" points="520.59,-27.54 527.09,-19.17 516.79,-21.66 520.59,-27.54"/>
</a>
</g>
</g>
</g>
</svg>
