<?xml version="1.0" encoding="UTF-8" standalone="no"?>
<!DOCTYPE svg PUBLIC "-//W3C//DTD SVG 1.1//EN"
 "http://www.w3.org/Graphics/SVG/1.1/DTD/svg11.dtd">
<!-- Generated by graphviz version 2.43.0 (0)
 -->
<!-- Title: ARInvaderDirectorSettings.h Pages: 1 -->
<svg width="703pt" height="137pt"
 viewBox="0.00 0.00 702.65 137.00" xmlns="http://www.w3.org/2000/svg" xmlns:xlink="http://www.w3.org/1999/xlink">
<g id="graph0" class="graph" transform="scale(1 1) rotate(0) translate(4 133)">
<title>ARInvaderDirectorSettings.h</title>
<!-- Node1 -->
<g id="Node000001" class="node">
<title>Node1</title>
<g id="a_Node000001"><a xlink:title="ARInvaderDirectorSettings header for Alien Ramen.">
<polygon fill="#999999" stroke="#666666" points="332.65,-129 177.65,-129 177.65,-110 332.65,-110 332.65,-129"/>
<text text-anchor="middle" x="255.15" y="-117" font-family="Helvetica,sans-Serif" font-size="10.00">ARInvaderDirectorSettings.h</text>
</a>
</g>
</g>
<!-- Node2 -->
<g id="Node000002" class="node">
<title>Node2</title>
<g id="a_Node000002"><a xlink:title=" ">
<polygon fill="#e0e0e0" stroke="#999999" points="165.15,-19 77.15,-19 77.15,0 165.15,0 165.15,-19"/>
<text text-anchor="middle" x="121.15" y="-7" font-family="Helvetica,sans-Serif" font-size="10.00">CoreMinimal.h</text>
</a>
</g>
</g>
<!-- Node1&#45;&gt;Node2 -->
<g id="edge1_Node000001_Node000002" class="edge">
<title>Node1&#45;&gt;Node2</title>
<g id="a_edge1_Node000001_Node000002"><a xlink:title=" ">
<path fill="none" stroke="#63b8ff" d="M177.45,-115.22C112.72,-110.66 27.75,-99.8 6.15,-74 -15.78,-47.8 27.34,-30.52 66.88,-20.69"/>
<polygon fill="#63b8ff" stroke="#63b8ff" points="67.88,-24.05 76.82,-18.35 66.28,-17.24 67.88,-24.05"/>
</a>
</g>
</g>
<!-- Node3 -->
<g id="Node000003" class="node">
<title>Node3</title>
<g id="a_Node000003"><a xlink:title=" ">
<polygon fill="#e0e0e0" stroke="#999999" points="167.15,-74 15.15,-74 15.15,-55 167.15,-55 167.15,-74"/>
<text text-anchor="middle" x="91.15" y="-62" font-family="Helvetica,sans-Serif" font-size="10.00">Engine/DeveloperSettings.h</text>
</a>
</g>
</g>
<!-- Node1&#45;&gt;Node3 -->
<g id="edge2_Node000001_Node000003" class="edge">
<title>Node1&#45;&gt;Node3</title>
<g id="a_edge2_Node000001_Node000003"><a xlink:title=" ">
<path fill="none" stroke="#63b8ff" d="M228.8,-109.98C201.39,-101.13 158.26,-87.19 127.59,-77.28"/>
<polygon fill="#63b8ff" stroke="#63b8ff" points="128.3,-73.83 117.71,-74.08 126.15,-80.49 128.3,-73.83"/>
</a>
</g>
</g>
<!-- Node4 -->
<g id="Node000004" class="node">
<title>Node4</title>
<g id="a_Node000004"><a xlink:title=" ">
<polygon fill="#e0e0e0" stroke="#999999" points="324.65,-74 185.65,-74 185.65,-55 324.65,-55 324.65,-74"/>
<text text-anchor="middle" x="255.15" y="-62" font-family="Helvetica,sans-Serif" font-size="10.00">GameplayTagContainer.h</text>
</a>
</g>
</g>
<!-- Node1&#45;&gt;Node4 -->
<g id="edge3_Node000001_Node000004" class="edge">
<title>Node1&#45;&gt;Node4</title>
<g id="a_edge3_Node000001_Node000004"><a xlink:title=" ">
<path fill="none" stroke="#63b8ff" d="M255.15,-109.75C255.15,-102.8 255.15,-92.85 255.15,-84.13"/>
<polygon fill="#63b8ff" stroke="#63b8ff" points="258.65,-84.09 255.15,-74.09 251.65,-84.09 258.65,-84.09"/>
</a>
</g>
</g>
<!-- Node5 -->
<g id="Node000005" class="node">
<title>Node5</title>
<g id="a_Node000005"><a xlink:href="ARInvaderDropTypes_8h.html" target="_top" xlink:title="Shared invader drop type surface.">
<polygon fill="white" stroke="#666666" points="469.65,-74 342.65,-74 342.65,-55 469.65,-55 469.65,-74"/>
<text text-anchor="middle" x="406.15" y="-62" font-family="Helvetica,sans-Serif" font-size="10.00">ARInvaderDropTypes.h</text>
</a>
</g>
</g>
<!-- Node1&#45;&gt;Node5 -->
<g id="edge4_Node000001_Node000005" class="edge">
<title>Node1&#45;&gt;Node5</title>
<g id="a_edge4_Node000001_Node000005"><a xlink:title=" ">
<path fill="none" stroke="#63b8ff" d="M279.41,-109.98C304.47,-101.19 343.78,-87.39 371.98,-77.49"/>
<polygon fill="#63b8ff" stroke="#63b8ff" points="373.17,-80.78 381.45,-74.17 370.85,-74.18 373.17,-80.78"/>
</a>
</g>
</g>
<!-- Node7 -->
<g id="Node000007" class="node">
<title>Node7</title>
<g id="a_Node000007"><a xlink:title=" ">
<polygon fill="#e0e0e0" stroke="#999999" points="694.65,-74 487.65,-74 487.65,-55 694.65,-55 694.65,-74"/>
<text text-anchor="middle" x="591.15" y="-62" font-family="Helvetica,sans-Serif" font-size="10.00">ARInvaderDirectorSettings.generated.h</text>
</a>
</g>
</g>
<!-- Node1&#45;&gt;Node7 -->
<g id="edge7_Node000001_Node000007" class="edge">
<title>Node1&#45;&gt;Node7</title>
<g id="a_edge7_Node000001_Node000007"><a xlink:title=" ">
<path fill="none" stroke="#63b8ff" d="M309.14,-109.98C368.44,-100.63 463.64,-85.61 526.79,-75.65"/>
<polygon fill="#63b8ff" stroke="#63b8ff" points="527.69,-79.05 537.02,-74.04 526.6,-72.14 527.69,-79.05"/>
</a>
</g>
</g>
<!-- Node5&#45;&gt;Node2 -->
<g id="edge5_Node000005_Node000002" class="edge">
<title>Node5&#45;&gt;Node2</title>
<g id="a_edge5_Node000005_Node000002"><a xlink:title=" ">
<path fill="none" stroke="#63b8ff" d="M360.36,-54.98C309.95,-45.61 228.98,-30.55 175.42,-20.59"/>
<polygon fill="#63b8ff" stroke="#63b8ff" points="175.89,-17.12 165.42,-18.73 174.61,-24 175.89,-17.12"/>
</a>
</g>
</g>
<!-- Node6 -->
<g id="Node000006" class="node">
<title>Node6</title>
<g id="a_Node000006"><a xlink:title=" ">
<polygon fill="#e0e0e0" stroke="#999999" points="495.65,-19 316.65,-19 316.65,0 495.65,0 495.65,-19"/>
<text text-anchor="middle" x="406.15" y="-7" font-family="Helvetica,sans-Serif" font-size="10.00">ARInvaderDropTypes.generated.h</text>
</a>
</g>
</g>
<!-- Node5&#45;&gt;Node6 -->
<g id="edge6_Node000005_Node000006" class="edge">
<title>Node5&#45;&gt;Node6</title>
<g id="a_edge6_Node000005_Node000006"><a xlink:title=" ">
<path fill="none" stroke="#63b8ff" d="M406.15,-54.75C406.15,-47.8 406.15,-37.85 406.15,-29.13"/>
<polygon fill="#63b8ff" stroke="#63b8ff" points="409.65,-29.09 406.15,-19.09 402.65,-29.09 409.65,-29.09"/>
</a>
</g>
</g>
</g>
</svg>
