<?xml version="1.0" encoding="UTF-8" standalone="no"?>
<!DOCTYPE svg PUBLIC "-//W3C//DTD SVG 1.1//EN"
 "http://www.w3.org/Graphics/SVG/1.1/DTD/svg11.dtd">
<!-- Generated by graphviz version 2.43.0 (0)
 -->
<!-- Title: ARInvaderAIController.h Pages: 1 -->
<svg width="1616pt" height="247pt"
 viewBox="0.00 0.00 1616.00 247.00" xmlns="http://www.w3.org/2000/svg" xmlns:xlink="http://www.w3.org/1999/xlink">
<g id="graph0" class="graph" transform="scale(1 1) rotate(0) translate(4 243)">
<title>ARInvaderAIController.h</title>
<!-- Node1 -->
<g id="Node000001" class="node">
<title>Node1</title>
<g id="a_Node000001"><a xlink:title="ARInvaderAIController header for Alien Ramen.">
<polygon fill="#999999" stroke="#666666" points="1462,-239 1329,-239 1329,-220 1462,-220 1462,-239"/>
<text text-anchor="middle" x="1395.5" y="-227" font-family="Helvetica,sans-Serif" font-size="10.00">ARInvaderAIController.h</text>
</a>
</g>
</g>
<!-- Node2 -->
<g id="Node000002" class="node">
<title>Node2</title>
<g id="a_Node000002"><a xlink:title=" ">
<polygon fill="#e0e0e0" stroke="#999999" points="1128.5,-19 1040.5,-19 1040.5,0 1128.5,0 1128.5,-19"/>
<text text-anchor="middle" x="1084.5" y="-7" font-family="Helvetica,sans-Serif" font-size="10.00">CoreMinimal.h</text>
</a>
</g>
</g>
<!-- Node1&#45;&gt;Node2 -->
<g id="edge1_Node000001_Node000002" class="edge">
<title>Node1&#45;&gt;Node2</title>
<g id="a_edge1_Node000001_Node000002"><a xlink:title=" ">
<path fill="none" stroke="#63b8ff" d="M1396.41,-219.89C1398.16,-199.08 1399.97,-145.19 1376.5,-110 1350.7,-71.31 1330.6,-72.45 1287.5,-55 1260.98,-44.27 1189.43,-29.75 1138.8,-20.27"/>
<polygon fill="#63b8ff" stroke="#63b8ff" points="1139.13,-16.77 1128.66,-18.38 1137.85,-23.65 1139.13,-16.77"/>
</a>
</g>
</g>
<!-- Node3 -->
<g id="Node000003" class="node">
<title>Node3</title>
<g id="a_Node000003"><a xlink:href="AREnemyAIController_8h.html" target="_top" xlink:title="AREnemyAIController header for Alien Ramen.">
<polygon fill="white" stroke="#666666" points="1100.5,-184 970.5,-184 970.5,-165 1100.5,-165 1100.5,-184"/>
<text text-anchor="middle" x="1035.5" y="-172" font-family="Helvetica,sans-Serif" font-size="10.00">AREnemyAIController.h</text>
</a>
</g>
</g>
<!-- Node1&#45;&gt;Node3 -->
<g id="edge2_Node000001_Node000003" class="edge">
<title>Node1&#45;&gt;Node3</title>
<g id="a_edge2_Node000001_Node000003"><a xlink:title=" ">
<path fill="none" stroke="#63b8ff" d="M1337.66,-219.98C1273.85,-210.59 1171.28,-195.49 1103.63,-185.53"/>
<polygon fill="#63b8ff" stroke="#63b8ff" points="1103.9,-182.03 1093.49,-184.04 1102.88,-188.96 1103.9,-182.03"/>
</a>
</g>
</g>
<!-- Node21 -->
<g id="Node000021" class="node">
<title>Node21</title>
<g id="a_Node000021"><a xlink:title=" ">
<polygon fill="#e0e0e0" stroke="#999999" points="1608,-184 1423,-184 1423,-165 1608,-165 1608,-184"/>
<text text-anchor="middle" x="1515.5" y="-172" font-family="Helvetica,sans-Serif" font-size="10.00">ARInvaderAIController.generated.h</text>
</a>
</g>
</g>
<!-- Node1&#45;&gt;Node21 -->
<g id="edge29_Node000001_Node000021" class="edge">
<title>Node1&#45;&gt;Node21</title>
<g id="a_edge29_Node000001_Node000021"><a xlink:title=" ">
<path fill="none" stroke="#63b8ff" d="M1414.78,-219.98C1434.17,-211.42 1464.31,-198.11 1486.57,-188.28"/>
<polygon fill="#63b8ff" stroke="#63b8ff" points="1488.14,-191.41 1495.87,-184.17 1485.31,-185.01 1488.14,-191.41"/>
</a>
</g>
</g>
<!-- Node3&#45;&gt;Node2 -->
<g id="edge3_Node000003_Node000002" class="edge">
<title>Node3&#45;&gt;Node2</title>
<g id="a_edge3_Node000003_Node000002"><a xlink:title=" ">
<path fill="none" stroke="#63b8ff" d="M1036.94,-164.86C1039.29,-152.23 1044.7,-128.25 1054.5,-110 1064.35,-91.65 1077.41,-93.58 1084.5,-74 1089.72,-59.57 1089.27,-42.05 1087.76,-29.08"/>
<polygon fill="#63b8ff" stroke="#63b8ff" points="1091.2,-28.42 1086.29,-19.03 1084.28,-29.44 1091.2,-28.42"/>
</a>
</g>
</g>
<!-- Node4 -->
<g id="Node000004" class="node">
<title>Node4</title>
<g id="a_Node000004"><a xlink:href="ARAIControllerBase_8h.html" target="_top" xlink:title="ARAIControllerBase header for Alien Ramen.">
<polygon fill="white" stroke="#666666" points="314,-74 193,-74 193,-55 314,-55 314,-74"/>
<text text-anchor="middle" x="253.5" y="-62" font-family="Helvetica,sans-Serif" font-size="10.00">ARAIControllerBase.h</text>
</a>
</g>
</g>
<!-- Node3&#45;&gt;Node4 -->
<g id="edge4_Node000003_Node000004" class="edge">
<title>Node3&#45;&gt;Node4</title>
<g id="a_edge4_Node000003_Node000004"><a xlink:title=" ">
<path fill="none" stroke="#63b8ff" d="M970.36,-171.73C806.69,-166.97 387.08,-152.58 328.5,-129 303.39,-118.89 280.61,-96.93 266.9,-81.69"/>
<polygon fill="#63b8ff" stroke="#63b8ff" points="269.46,-79.29 260.27,-74.03 264.17,-83.88 269.46,-79.29"/>
</a>
</g>
</g>
<!-- Node6 -->
<g id="Node000006" class="node">
<title>Node6</title>
<g id="a_Node000006"><a xlink:title=" ">
<polygon fill="#e0e0e0" stroke="#999999" points="431,-19 292,-19 292,0 431,0 431,-19"/>
<text text-anchor="middle" x="361.5" y="-7" font-family="Helvetica,sans-Serif" font-size="10.00">GameplayTagContainer.h</text>
</a>
</g>
</g>
<!-- Node3&#45;&gt;Node6 -->
<g id="edge9_Node000003_Node000006" class="edge">
<title>Node3&#45;&gt;Node6</title>
<g id="a_edge9_Node000003_Node000006"><a xlink:title=" ">
<path fill="none" stroke="#63b8ff" d="M970.45,-172.53C821.86,-168.95 463.69,-152.23 377.5,-74 365.28,-62.91 361.77,-43.97 361.03,-29.66"/>
<polygon fill="#63b8ff" stroke="#63b8ff" points="364.53,-29.37 360.91,-19.41 357.53,-29.45 364.53,-29.37"/>
</a>
</g>
</g>
<!-- Node8 -->
<g id="Node000008" class="node">
<title>Node8</title>
<g id="a_Node000008"><a xlink:title=" ">
<polygon fill="#e0e0e0" stroke="#999999" points="1167.5,-129 1063.5,-129 1063.5,-110 1167.5,-110 1167.5,-129"/>
<text text-anchor="middle" x="1115.5" y="-117" font-family="Helvetica,sans-Serif" font-size="10.00">StateTreeEvents.h</text>
</a>
</g>
</g>
<!-- Node3&#45;&gt;Node8 -->
<g id="edge10_Node000003_Node000008" class="edge">
<title>Node3&#45;&gt;Node8</title>
<g id="a_edge10_Node000003_Node000008"><a xlink:title=" ">
<path fill="none" stroke="#63b8ff" d="M1048.35,-164.98C1060.64,-156.84 1079.41,-144.41 1093.98,-134.76"/>
<polygon fill="#63b8ff" stroke="#63b8ff" points="1096.01,-137.61 1102.41,-129.17 1092.14,-131.78 1096.01,-137.61"/>
</a>
</g>
</g>
<!-- Node9 -->
<g id="Node000009" class="node">
<title>Node9</title>
<g id="a_Node000009"><a xlink:href="ARInvaderTypes_8h.html" target="_top" xlink:title="ARInvaderTypes header for Alien Ramen.">
<polygon fill="white" stroke="#666666" points="920.5,-129 816.5,-129 816.5,-110 920.5,-110 920.5,-129"/>
<text text-anchor="middle" x="868.5" y="-117" font-family="Helvetica,sans-Serif" font-size="10.00">ARInvaderTypes.h</text>
</a>
</g>
</g>
<!-- Node3&#45;&gt;Node9 -->
<g id="edge11_Node000003_Node000009" class="edge">
<title>Node3&#45;&gt;Node9</title>
<g id="a_edge11_Node000003_Node000009"><a xlink:title=" ">
<path fill="none" stroke="#63b8ff" d="M1008.67,-164.98C980.63,-156.09 936.45,-142.07 905.2,-132.15"/>
<polygon fill="#63b8ff" stroke="#63b8ff" points="906.13,-128.77 895.54,-129.08 904.01,-135.44 906.13,-128.77"/>
</a>
</g>
</g>
<!-- Node20 -->
<g id="Node000020" class="node">
<title>Node20</title>
<g id="a_Node000020"><a xlink:title=" ">
<polygon fill="#e0e0e0" stroke="#999999" points="1367.5,-129 1185.5,-129 1185.5,-110 1367.5,-110 1367.5,-129"/>
<text text-anchor="middle" x="1276.5" y="-117" font-family="Helvetica,sans-Serif" font-size="10.00">AREnemyAIController.generated.h</text>
</a>
</g>
</g>
<!-- Node3&#45;&gt;Node20 -->
<g id="edge28_Node000003_Node000020" class="edge">
<title>Node3&#45;&gt;Node20</title>
<g id="a_edge28_Node000003_Node000020"><a xlink:title=" ">
<path fill="none" stroke="#63b8ff" d="M1074.22,-164.98C1115.91,-155.82 1182.32,-141.21 1227.59,-131.26"/>
<polygon fill="#63b8ff" stroke="#63b8ff" points="1228.46,-134.65 1237.48,-129.08 1226.96,-127.81 1228.46,-134.65"/>
</a>
</g>
</g>
<!-- Node4&#45;&gt;Node2 -->
<g id="edge5_Node000004_Node000002" class="edge">
<title>Node4&#45;&gt;Node2</title>
<g id="a_edge5_Node000004_Node000002"><a xlink:title=" ">
<path fill="none" stroke="#63b8ff" d="M314.23,-59.95C340.46,-58.42 371.49,-56.61 399.5,-55 677.09,-39.01 750.09,-49.07 1030.25,-19.02"/>
<polygon fill="#63b8ff" stroke="#63b8ff" points="1030.73,-22.49 1040.3,-17.93 1029.98,-15.53 1030.73,-22.49"/>
</a>
</g>
</g>
<!-- Node5 -->
<g id="Node000005" class="node">
<title>Node5</title>
<g id="a_Node000005"><a xlink:title=" ">
<polygon fill="#e0e0e0" stroke="#999999" points="274,-19 191,-19 191,0 274,0 274,-19"/>
<text text-anchor="middle" x="232.5" y="-7" font-family="Helvetica,sans-Serif" font-size="10.00">AIController.h</text>
</a>
</g>
</g>
<!-- Node4&#45;&gt;Node5 -->
<g id="edge6_Node000004_Node000005" class="edge">
<title>Node4&#45;&gt;Node5</title>
<g id="a_edge6_Node000004_Node000005"><a xlink:title=" ">
<path fill="none" stroke="#63b8ff" d="M250.03,-54.75C247.22,-47.65 243.16,-37.4 239.65,-28.56"/>
<polygon fill="#63b8ff" stroke="#63b8ff" points="242.84,-27.1 235.9,-19.09 236.33,-29.68 242.84,-27.1"/>
</a>
</g>
</g>
<!-- Node4&#45;&gt;Node6 -->
<g id="edge7_Node000004_Node000006" class="edge">
<title>Node4&#45;&gt;Node6</title>
<g id="a_edge7_Node000004_Node000006"><a xlink:title=" ">
<path fill="none" stroke="#63b8ff" d="M270.85,-54.98C288.07,-46.54 314.7,-33.47 334.65,-23.68"/>
<polygon fill="#63b8ff" stroke="#63b8ff" points="336.4,-26.72 343.83,-19.17 333.31,-20.43 336.4,-26.72"/>
</a>
</g>
</g>
<!-- Node7 -->
<g id="Node000007" class="node">
<title>Node7</title>
<g id="a_Node000007"><a xlink:title=" ">
<polygon fill="#e0e0e0" stroke="#999999" points="173,-19 0,-19 0,0 173,0 173,-19"/>
<text text-anchor="middle" x="86.5" y="-7" font-family="Helvetica,sans-Serif" font-size="10.00">ARAIControllerBase.generated.h</text>
</a>
</g>
</g>
<!-- Node4&#45;&gt;Node7 -->
<g id="edge8_Node000004_Node000007" class="edge">
<title>Node4&#45;&gt;Node7</title>
<g id="a_edge8_Node000004_Node000007"><a xlink:title=" ">
<path fill="none" stroke="#63b8ff" d="M226.67,-54.98C198.63,-46.09 154.45,-32.07 123.2,-22.15"/>
<polygon fill="#63b8ff" stroke="#63b8ff" points="124.13,-18.77 113.54,-19.08 122.01,-25.44 124.13,-18.77"/>
</a>
</g>
</g>
<!-- Node9&#45;&gt;Node2 -->
<g id="edge12_Node000009_Node000002" class="edge">
<title>Node9&#45;&gt;Node2</title>
<g id="a_edge12_Node000009_Node000002"><a xlink:title=" ">
<path fill="none" stroke="#63b8ff" d="M920.75,-112.68C971.82,-105.98 1044.8,-93.32 1065.5,-74 1077.71,-62.6 1082.18,-43.7 1083.77,-29.48"/>
<polygon fill="#63b8ff" stroke="#63b8ff" points="1087.27,-29.54 1084.51,-19.31 1080.29,-29.03 1087.27,-29.54"/>
</a>
</g>
</g>
<!-- Node9&#45;&gt;Node6 -->
<g id="edge19_Node000009_Node000006" class="edge">
<title>Node9&#45;&gt;Node6</title>
<g id="a_edge19_Node000009_Node000006"><a xlink:title=" ">
<path fill="none" stroke="#63b8ff" d="M816.1,-119.35C708.63,-120.17 467.63,-117 399.5,-74 383.24,-63.74 373,-43.77 367.31,-28.95"/>
<polygon fill="#63b8ff" stroke="#63b8ff" points="370.53,-27.58 363.94,-19.29 363.92,-29.88 370.53,-27.58"/>
</a>
</g>
</g>
<!-- Node10 -->
<g id="Node000010" class="node">
<title>Node10</title>
<g id="a_Node000010"><a xlink:href="ARColorTypes_8h.html" target="_top" xlink:title="Shared gameplay color types used across enemies/players/rewards.">
<polygon fill="white" stroke="#666666" points="1056.5,-74 964.5,-74 964.5,-55 1056.5,-55 1056.5,-74"/>
<text text-anchor="middle" x="1010.5" y="-62" font-family="Helvetica,sans-Serif" font-size="10.00">ARColorTypes.h</text>
</a>
</g>
</g>
<!-- Node9&#45;&gt;Node10 -->
<g id="edge13_Node000009_Node000010" class="edge">
<title>Node9&#45;&gt;Node10</title>
<g id="a_edge13_Node000009_Node000010"><a xlink:title=" ">
<path fill="none" stroke="#63b8ff" d="M891.31,-109.98C914.67,-101.27 951.2,-87.63 977.67,-77.75"/>
<polygon fill="#63b8ff" stroke="#63b8ff" points="979.13,-80.95 987.27,-74.17 976.68,-74.39 979.13,-80.95"/>
</a>
</g>
</g>
<!-- Node12 -->
<g id="Node000012" class="node">
<title>Node12</title>
<g id="a_Node000012"><a xlink:href="ARInvaderDropTypes_8h.html" target="_top" xlink:title="Shared invader drop type surface.">
<polygon fill="white" stroke="#666666" points="1278,-74 1151,-74 1151,-55 1278,-55 1278,-74"/>
<text text-anchor="middle" x="1214.5" y="-62" font-family="Helvetica,sans-Serif" font-size="10.00">ARInvaderDropTypes.h</text>
</a>
</g>
</g>
<!-- Node9&#45;&gt;Node12 -->
<g id="edge16_Node000009_Node000012" class="edge">
<title>Node9&#45;&gt;Node12</title>
<g id="a_edge16_Node000009_Node000012"><a xlink:title=" ">
<path fill="none" stroke="#63b8ff" d="M920.67,-110.51C981.64,-101.17 1082.58,-85.71 1148.82,-75.56"/>
<polygon fill="#63b8ff" stroke="#63b8ff" points="1149.39,-79.01 1158.74,-74.04 1148.33,-72.1 1149.39,-79.01"/>
</a>
</g>
</g>
<!-- Node14 -->
<g id="Node000014" class="node">
<title>Node14</title>
<g id="a_Node000014"><a xlink:title=" ">
<polygon fill="#e0e0e0" stroke="#999999" points="622.5,-74 512.5,-74 512.5,-55 622.5,-55 622.5,-74"/>
<text text-anchor="middle" x="567.5" y="-62" font-family="Helvetica,sans-Serif" font-size="10.00">Engine/DataTable.h</text>
</a>
</g>
</g>
<!-- Node9&#45;&gt;Node14 -->
<g id="edge20_Node000009_Node000014" class="edge">
<title>Node9&#45;&gt;Node14</title>
<g id="a_edge20_Node000009_Node000014"><a xlink:title=" ">
<path fill="none" stroke="#63b8ff" d="M820.14,-109.98C767.31,-100.68 682.68,-85.78 626.11,-75.82"/>
<polygon fill="#63b8ff" stroke="#63b8ff" points="626.7,-72.37 616.24,-74.08 625.48,-79.26 626.7,-72.37"/>
</a>
</g>
</g>
<!-- Node15 -->
<g id="Node000015" class="node">
<title>Node15</title>
<g id="a_Node000015"><a xlink:title=" ">
<polygon fill="#e0e0e0" stroke="#999999" points="772,-74 641,-74 641,-55 772,-55 772,-74"/>
<text text-anchor="middle" x="706.5" y="-62" font-family="Helvetica,sans-Serif" font-size="10.00">UObject/SoftObjectPtr.h</text>
</a>
</g>
</g>
<!-- Node9&#45;&gt;Node15 -->
<g id="edge21_Node000009_Node000015" class="edge">
<title>Node9&#45;&gt;Node15</title>
<g id="a_edge21_Node000009_Node000015"><a xlink:title=" ">
<path fill="none" stroke="#63b8ff" d="M842.47,-109.98C815.39,-101.13 772.79,-87.19 742.49,-77.28"/>
<polygon fill="#63b8ff" stroke="#63b8ff" points="743.32,-73.87 732.73,-74.08 741.15,-80.52 743.32,-73.87"/>
</a>
</g>
</g>
<!-- Node16 -->
<g id="Node000016" class="node">
<title>Node16</title>
<g id="a_Node000016"><a xlink:href="ARAbilitySet_8h.html" target="_top" xlink:title="ARAbilitySet header for Alien Ramen.">
<polygon fill="white" stroke="#666666" points="494.5,-74 408.5,-74 408.5,-55 494.5,-55 494.5,-74"/>
<text text-anchor="middle" x="451.5" y="-62" font-family="Helvetica,sans-Serif" font-size="10.00">ARAbilitySet.h</text>
</a>
</g>
</g>
<!-- Node9&#45;&gt;Node16 -->
<g id="edge22_Node000009_Node000016" class="edge">
<title>Node9&#45;&gt;Node16</title>
<g id="a_edge22_Node000009_Node000016"><a xlink:title=" ">
<path fill="none" stroke="#63b8ff" d="M816.43,-112.83C747.54,-105.17 622.09,-90.71 504.84,-74.14"/>
<polygon fill="#63b8ff" stroke="#63b8ff" points="505,-70.63 494.61,-72.69 504.02,-77.56 505,-70.63"/>
</a>
</g>
</g>
<!-- Node19 -->
<g id="Node000019" class="node">
<title>Node19</title>
<g id="a_Node000019"><a xlink:title=" ">
<polygon fill="#e0e0e0" stroke="#999999" points="946.5,-74 790.5,-74 790.5,-55 946.5,-55 946.5,-74"/>
<text text-anchor="middle" x="868.5" y="-62" font-family="Helvetica,sans-Serif" font-size="10.00">ARInvaderTypes.generated.h</text>
</a>
</g>
</g>
<!-- Node9&#45;&gt;Node19 -->
<g id="edge27_Node000009_Node000019" class="edge">
<title>Node9&#45;&gt;Node19</title>
<g id="a_edge27_Node000009_Node000019"><a xlink:title=" ">
<path fill="none" stroke="#63b8ff" d="M868.5,-109.75C868.5,-102.8 868.5,-92.85 868.5,-84.13"/>
<polygon fill="#63b8ff" stroke="#63b8ff" points="872,-84.09 868.5,-74.09 865,-84.09 872,-84.09"/>
</a>
</g>
</g>
<!-- Node10&#45;&gt;Node2 -->
<g id="edge14_Node000010_Node000002" class="edge">
<title>Node10&#45;&gt;Node2</title>
<g id="a_edge14_Node000010_Node000002"><a xlink:title=" ">
<path fill="none" stroke="#63b8ff" d="M1022.39,-54.98C1033.65,-46.92 1050.79,-34.65 1064.21,-25.03"/>
<polygon fill="#63b8ff" stroke="#63b8ff" points="1066.3,-27.84 1072.39,-19.17 1062.23,-22.15 1066.3,-27.84"/>
</a>
</g>
</g>
<!-- Node11 -->
<g id="Node000011" class="node">
<title>Node11</title>
<g id="a_Node000011"><a xlink:title=" ">
<polygon fill="#e0e0e0" stroke="#999999" points="1022,-19 877,-19 877,0 1022,0 1022,-19"/>
<text text-anchor="middle" x="949.5" y="-7" font-family="Helvetica,sans-Serif" font-size="10.00">ARColorTypes.generated.h</text>
</a>
</g>
</g>
<!-- Node10&#45;&gt;Node11 -->
<g id="edge15_Node000010_Node000011" class="edge">
<title>Node10&#45;&gt;Node11</title>
<g id="a_edge15_Node000010_Node000011"><a xlink:title=" ">
<path fill="none" stroke="#63b8ff" d="M1000.7,-54.98C991.68,-47.15 978.09,-35.34 967.18,-25.86"/>
<polygon fill="#63b8ff" stroke="#63b8ff" points="969.32,-23.09 959.48,-19.17 964.73,-28.37 969.32,-23.09"/>
</a>
</g>
</g>
<!-- Node12&#45;&gt;Node2 -->
<g id="edge17_Node000012_Node000002" class="edge">
<title>Node12&#45;&gt;Node2</title>
<g id="a_edge17_Node000012_Node000002"><a xlink:title=" ">
<path fill="none" stroke="#63b8ff" d="M1193.61,-54.98C1172.42,-46.34 1139.37,-32.87 1115.2,-23.02"/>
<polygon fill="#63b8ff" stroke="#63b8ff" points="1116.35,-19.7 1105.77,-19.17 1113.71,-26.19 1116.35,-19.7"/>
</a>
</g>
</g>
<!-- Node13 -->
<g id="Node000013" class="node">
<title>Node13</title>
<g id="a_Node000013"><a xlink:title=" ">
<polygon fill="#e0e0e0" stroke="#999999" points="1326,-19 1147,-19 1147,0 1326,0 1326,-19"/>
<text text-anchor="middle" x="1236.5" y="-7" font-family="Helvetica,sans-Serif" font-size="10.00">ARInvaderDropTypes.generated.h</text>
</a>
</g>
</g>
<!-- Node12&#45;&gt;Node13 -->
<g id="edge18_Node000012_Node000013" class="edge">
<title>Node12&#45;&gt;Node13</title>
<g id="a_edge18_Node000012_Node000013"><a xlink:title=" ">
<path fill="none" stroke="#63b8ff" d="M1218.13,-54.75C1221.08,-47.65 1225.33,-37.4 1229.01,-28.56"/>
<polygon fill="#63b8ff" stroke="#63b8ff" points="1232.33,-29.67 1232.93,-19.09 1225.87,-26.98 1232.33,-29.67"/>
</a>
</g>
</g>
<!-- Node16&#45;&gt;Node2 -->
<g id="edge23_Node000016_Node000002" class="edge">
<title>Node16&#45;&gt;Node2</title>
<g id="a_edge23_Node000016_Node000002"><a xlink:title=" ">
<path fill="none" stroke="#63b8ff" d="M494.59,-56.14C497.6,-55.72 500.59,-55.34 503.5,-55 733.85,-28.38 796.05,-45.16 1030.1,-19.05"/>
<polygon fill="#63b8ff" stroke="#63b8ff" points="1030.75,-22.5 1040.29,-17.9 1029.97,-15.54 1030.75,-22.5"/>
</a>
</g>
</g>
<!-- Node16&#45;&gt;Node6 -->
<g id="edge25_Node000016_Node000006" class="edge">
<title>Node16&#45;&gt;Node6</title>
<g id="a_edge25_Node000016_Node000006"><a xlink:title=" ">
<path fill="none" stroke="#63b8ff" d="M437.04,-54.98C423.08,-46.77 401.71,-34.18 385.25,-24.49"/>
<polygon fill="#63b8ff" stroke="#63b8ff" points="386.62,-21.23 376.22,-19.17 383.06,-27.26 386.62,-21.23"/>
</a>
</g>
</g>
<!-- Node17 -->
<g id="Node000017" class="node">
<title>Node17</title>
<g id="a_Node000017"><a xlink:title=" ">
<polygon fill="#e0e0e0" stroke="#999999" points="718.5,-19 606.5,-19 606.5,0 718.5,0 718.5,-19"/>
<text text-anchor="middle" x="662.5" y="-7" font-family="Helvetica,sans-Serif" font-size="10.00">Engine/DataAsset.h</text>
</a>
</g>
</g>
<!-- Node16&#45;&gt;Node17 -->
<g id="edge24_Node000016_Node000017" class="edge">
<title>Node16&#45;&gt;Node17</title>
<g id="a_edge24_Node000016_Node000017"><a xlink:title=" ">
<path fill="none" stroke="#63b8ff" d="M485.4,-54.98C521.52,-45.91 578.82,-31.52 618.42,-21.57"/>
<polygon fill="#63b8ff" stroke="#63b8ff" points="619.49,-24.91 628.33,-19.08 617.78,-18.12 619.49,-24.91"/>
</a>
</g>
</g>
<!-- Node18 -->
<g id="Node000018" class="node">
<title>Node18</title>
<g id="a_Node000018"><a xlink:title=" ">
<polygon fill="#e0e0e0" stroke="#999999" points="588,-19 449,-19 449,0 588,0 588,-19"/>
<text text-anchor="middle" x="518.5" y="-7" font-family="Helvetica,sans-Serif" font-size="10.00">ARAbilitySet.generated.h</text>
</a>
</g>
</g>
<!-- Node16&#45;&gt;Node18 -->
<g id="edge26_Node000016_Node000018" class="edge">
<title>Node16&#45;&gt;Node18</title>
<g id="a_edge26_Node000016_Node000018"><a xlink:title=" ">
<path fill="none" stroke="#63b8ff" d="M462.26,-54.98C472.27,-47.07 487.39,-35.11 499.43,-25.58"/>
<polygon fill="#63b8ff" stroke="#63b8ff" points="501.87,-28.12 507.54,-19.17 497.53,-22.63 501.87,-28.12"/>
</a>
</g>
</g>
</g>
</svg>
