<?xml version="1.0" encoding="UTF-8" standalone="no"?>
<!DOCTYPE svg PUBLIC "-//W3C//DTD SVG 1.1//EN"
 "http://www.w3.org/Graphics/SVG/1.1/DTD/svg11.dtd">
<!-- Generated by graphviz version 2.43.0 (0)
 -->
<!-- Title: ARInvaderFullBlastMenuWidget.h Pages: 1 -->
<svg width="382pt" height="82pt"
 viewBox="0.00 0.00 382.00 82.00" xmlns="http://www.w3.org/2000/svg" xmlns:xlink="http://www.w3.org/1999/xlink">
<g id="graph0" class="graph" transform="scale(1 1) rotate(0) translate(4 78)">
<title>ARInvaderFullBlastMenuWidget.h</title>
<!-- Node1 -->
<g id="Node000001" class="node">
<title>Node1</title>
<g id="a_Node000001"><a xlink:title="Base widget bridge for Invader full&#45;blast offer selection UI.">
<polygon fill="#999999" stroke="#666666" points="283,-74 104,-74 104,-55 283,-55 283,-74"/>
<text text-anchor="middle" x="193.5" y="-62" font-family="Helvetica,sans-Serif" font-size="10.00">ARInvaderFullBlastMenuWidget.h</text>
</a>
</g>
</g>
<!-- Node2 -->
<g id="Node000002" class="node">
<title>Node2</title>
<g id="a_Node000002"><a xlink:href="ARInvaderFullBlastMenuWidget_8cpp_source.html" target="_top" xlink:title=" ">
<polygon fill="white" stroke="#666666" points="191,-19 0,-19 0,0 191,0 191,-19"/>
<text text-anchor="middle" x="95.5" y="-7" font-family="Helvetica,sans-Serif" font-size="10.00">ARInvaderFullBlastMenuWidget.cpp</text>
</a>
</g>
</g>
<!-- Node1&#45;&gt;Node2 -->
<g id="edge1_Node000001_Node000002" class="edge">
<title>Node1&#45;&gt;Node2</title>
<g id="a_edge1_Node000001_Node000002"><a xlink:title=" ">
<path fill="none" stroke="#63b8ff" d="M168.47,-49.97C150.56,-40.28 126.97,-27.52 111.53,-19.17"/>
<polygon fill="#63b8ff" stroke="#63b8ff" points="167.29,-53.31 177.75,-54.98 170.62,-47.15 167.29,-53.31"/>
</a>
</g>
</g>
<!-- Node3 -->
<g id="Node000003" class="node">
<title>Node3</title>
<g id="a_Node000003"><a xlink:href="ARInvaderPlayerController_8cpp_source.html" target="_top" xlink:title=" ">
<polygon fill="white" stroke="#666666" points="374,-19 209,-19 209,0 374,0 374,-19"/>
<text text-anchor="middle" x="291.5" y="-7" font-family="Helvetica,sans-Serif" font-size="10.00">ARInvaderPlayerController.cpp</text>
</a>
</g>
</g>
<!-- Node1&#45;&gt;Node3 -->
<g id="edge2_Node000001_Node000003" class="edge">
<title>Node1&#45;&gt;Node3</title>
<g id="a_edge2_Node000001_Node000003"><a xlink:title=" ">
<path fill="none" stroke="#63b8ff" d="M218.53,-49.97C236.44,-40.28 260.03,-27.52 275.47,-19.17"/>
<polygon fill="#63b8ff" stroke="#63b8ff" points="216.38,-47.15 209.25,-54.98 219.71,-53.31 216.38,-47.15"/>
</a>
</g>
</g>
</g>
</svg>
