<?xml version="1.0" encoding="UTF-8" standalone="no"?>
<!DOCTYPE svg PUBLIC "-//W3C//DTD SVG 1.1//EN"
 "http://www.w3.org/Graphics/SVG/1.1/DTD/svg11.dtd">
<!-- Generated by graphviz version 2.43.0 (0)
 -->
<!-- Title: ARInvaderDirectorSubsystem.h Pages: 1 -->
<svg width="1413pt" height="192pt"
 viewBox="0.00 0.00 1412.89 192.00" xmlns="http://www.w3.org/2000/svg" xmlns:xlink="http://www.w3.org/1999/xlink">
<g id="graph0" class="graph" transform="scale(1 1) rotate(0) translate(4 188)">
<title>ARInvaderDirectorSubsystem.h</title>
<!-- Node1 -->
<g id="Node000001" class="node">
<title>Node1</title>
<g id="a_Node000001"><a xlink:title="ARInvaderDirectorSubsystem header for Alien Ramen.">
<polygon fill="#999999" stroke="#666666" points="732.39,-184 563.39,-184 563.39,-165 732.39,-165 732.39,-184"/>
<text text-anchor="middle" x="647.89" y="-172" font-family="Helvetica,sans-Serif" font-size="10.00">ARInvaderDirectorSubsystem.h</text>
</a>
</g>
</g>
<!-- Node2 -->
<g id="Node000002" class="node">
<title>Node2</title>
<g id="a_Node000002"><a xlink:title=" ">
<polygon fill="#e0e0e0" stroke="#999999" points="762.89,-19 674.89,-19 674.89,0 762.89,0 762.89,-19"/>
<text text-anchor="middle" x="718.89" y="-7" font-family="Helvetica,sans-Serif" font-size="10.00">CoreMinimal.h</text>
</a>
</g>
</g>
<!-- Node1&#45;&gt;Node2 -->
<g id="edge1_Node000001_Node000002" class="edge">
<title>Node1&#45;&gt;Node2</title>
<g id="a_edge1_Node000001_Node000002"><a xlink:title=" ">
<path fill="none" stroke="#63b8ff" d="M566.92,-164.98C427.39,-148.7 161.2,-109.88 211.89,-55 244.58,-19.61 581.62,-24.38 664.58,-18.64"/>
<polygon fill="#63b8ff" stroke="#63b8ff" points="665.08,-22.11 674.73,-17.74 664.46,-15.14 665.08,-22.11"/>
</a>
</g>
</g>
<!-- Node3 -->
<g id="Node000003" class="node">
<title>Node3</title>
<g id="a_Node000003"><a xlink:href="ARPlayerTypes_8h.html" target="_top" xlink:title="Shared player&#45;facing enum types for Alien Ramen gameplay/save/runtime APIs.">
<polygon fill="white" stroke="#666666" points="138.89,-129 40.89,-129 40.89,-110 138.89,-110 138.89,-129"/>
<text text-anchor="middle" x="89.89" y="-117" font-family="Helvetica,sans-Serif" font-size="10.00">ARPlayerTypes.h</text>
</a>
</g>
</g>
<!-- Node1&#45;&gt;Node3 -->
<g id="edge2_Node000001_Node000003" class="edge">
<title>Node1&#45;&gt;Node3</title>
<g id="a_edge2_Node000001_Node000003"><a xlink:title=" ">
<path fill="none" stroke="#63b8ff" d="M563.17,-165.48C469.24,-156.58 313.24,-141.79 178.89,-129 169.38,-128.09 159.29,-127.13 149.45,-126.19"/>
<polygon fill="#63b8ff" stroke="#63b8ff" points="149.61,-122.69 139.32,-125.23 148.95,-129.66 149.61,-122.69"/>
</a>
</g>
</g>
<!-- Node5 -->
<g id="Node000005" class="node">
<title>Node5</title>
<g id="a_Node000005"><a xlink:title=" ">
<polygon fill="#e0e0e0" stroke="#999999" points="887.89,-129 717.89,-129 717.89,-110 887.89,-110 887.89,-129"/>
<text text-anchor="middle" x="802.89" y="-117" font-family="Helvetica,sans-Serif" font-size="10.00">Subsystems/WorldSubsystem.h</text>
</a>
</g>
</g>
<!-- Node1&#45;&gt;Node5 -->
<g id="edge5_Node000001_Node000005" class="edge">
<title>Node1&#45;&gt;Node5</title>
<g id="a_edge5_Node000001_Node000005"><a xlink:title=" ">
<path fill="none" stroke="#63b8ff" d="M672.8,-164.98C698.6,-156.16 739.11,-142.31 768.08,-132.41"/>
<polygon fill="#63b8ff" stroke="#63b8ff" points="769.47,-135.63 777.8,-129.08 767.2,-129.01 769.47,-135.63"/>
</a>
</g>
</g>
<!-- Node6 -->
<g id="Node000006" class="node">
<title>Node6</title>
<g id="a_Node000006"><a xlink:href="ARInvaderTypes_8h.html" target="_top" xlink:title="ARInvaderTypes header for Alien Ramen.">
<polygon fill="white" stroke="#666666" points="699.89,-129 595.89,-129 595.89,-110 699.89,-110 699.89,-129"/>
<text text-anchor="middle" x="647.89" y="-117" font-family="Helvetica,sans-Serif" font-size="10.00">ARInvaderTypes.h</text>
</a>
</g>
</g>
<!-- Node1&#45;&gt;Node6 -->
<g id="edge6_Node000001_Node000006" class="edge">
<title>Node1&#45;&gt;Node6</title>
<g id="a_edge6_Node000001_Node000006"><a xlink:title=" ">
<path fill="none" stroke="#63b8ff" d="M647.89,-164.75C647.89,-157.8 647.89,-147.85 647.89,-139.13"/>
<polygon fill="#63b8ff" stroke="#63b8ff" points="651.39,-139.09 647.89,-129.09 644.39,-139.09 651.39,-139.09"/>
</a>
</g>
</g>
<!-- Node18 -->
<g id="Node000018" class="node">
<title>Node18</title>
<g id="a_Node000018"><a xlink:title=" ">
<polygon fill="#e0e0e0" stroke="#999999" points="1127.39,-129 906.39,-129 906.39,-110 1127.39,-110 1127.39,-129"/>
<text text-anchor="middle" x="1016.89" y="-117" font-family="Helvetica,sans-Serif" font-size="10.00">ARInvaderDirectorSubsystem.generated.h</text>
</a>
</g>
</g>
<!-- Node1&#45;&gt;Node18 -->
<g id="edge23_Node000001_Node000018" class="edge">
<title>Node1&#45;&gt;Node18</title>
<g id="a_edge23_Node000001_Node000018"><a xlink:title=" ">
<path fill="none" stroke="#63b8ff" d="M707.18,-164.98C772.72,-155.57 878.16,-140.43 947.49,-130.47"/>
<polygon fill="#63b8ff" stroke="#63b8ff" points="948.05,-133.92 957.45,-129.04 947.05,-127 948.05,-133.92"/>
</a>
</g>
</g>
<!-- Node3&#45;&gt;Node2 -->
<g id="edge3_Node000003_Node000002" class="edge">
<title>Node3&#45;&gt;Node2</title>
<g id="a_edge3_Node000003_Node000002"><a xlink:title=" ">
<path fill="none" stroke="#63b8ff" d="M61.99,-109.95C29.89,-98.77 -15.79,-77.9 5.89,-55 54.59,-3.57 555.92,-25.1 664.7,-18.62"/>
<polygon fill="#63b8ff" stroke="#63b8ff" points="665.05,-22.11 674.74,-17.82 664.49,-15.13 665.05,-22.11"/>
</a>
</g>
</g>
<!-- Node4 -->
<g id="Node000004" class="node">
<title>Node4</title>
<g id="a_Node000004"><a xlink:title=" ">
<polygon fill="#e0e0e0" stroke="#999999" points="164.89,-74 14.89,-74 14.89,-55 164.89,-55 164.89,-74"/>
<text text-anchor="middle" x="89.89" y="-62" font-family="Helvetica,sans-Serif" font-size="10.00">ARPlayerTypes.generated.h</text>
</a>
</g>
</g>
<!-- Node3&#45;&gt;Node4 -->
<g id="edge4_Node000003_Node000004" class="edge">
<title>Node3&#45;&gt;Node4</title>
<g id="a_edge4_Node000003_Node000004"><a xlink:title=" ">
<path fill="none" stroke="#63b8ff" d="M89.89,-109.75C89.89,-102.8 89.89,-92.85 89.89,-84.13"/>
<polygon fill="#63b8ff" stroke="#63b8ff" points="93.39,-84.09 89.89,-74.09 86.39,-84.09 93.39,-84.09"/>
</a>
</g>
</g>
<!-- Node6&#45;&gt;Node2 -->
<g id="edge7_Node000006_Node000002" class="edge">
<title>Node6&#45;&gt;Node2</title>
<g id="a_edge7_Node000006_Node000002"><a xlink:title=" ">
<path fill="none" stroke="#63b8ff" d="M686.73,-109.96C719.79,-101.81 763.55,-88.63 773.89,-74 786.75,-55.83 764.73,-36.75 744.85,-24.31"/>
<polygon fill="#63b8ff" stroke="#63b8ff" points="746.39,-21.16 735.99,-19.09 742.83,-27.18 746.39,-21.16"/>
</a>
</g>
</g>
<!-- Node7 -->
<g id="Node000007" class="node">
<title>Node7</title>
<g id="a_Node000007"><a xlink:href="ARColorTypes_8h.html" target="_top" xlink:title="Shared gameplay color types used across enemies/players/rewards.">
<polygon fill="white" stroke="#666666" points="764.89,-74 672.89,-74 672.89,-55 764.89,-55 764.89,-74"/>
<text text-anchor="middle" x="718.89" y="-62" font-family="Helvetica,sans-Serif" font-size="10.00">ARColorTypes.h</text>
</a>
</g>
</g>
<!-- Node6&#45;&gt;Node7 -->
<g id="edge8_Node000006_Node000007" class="edge">
<title>Node6&#45;&gt;Node7</title>
<g id="a_edge8_Node000006_Node000007"><a xlink:title=" ">
<path fill="none" stroke="#63b8ff" d="M659.3,-109.98C670,-102 686.24,-89.88 699.06,-80.31"/>
<polygon fill="#63b8ff" stroke="#63b8ff" points="701.36,-82.96 707.28,-74.17 697.17,-77.35 701.36,-82.96"/>
</a>
</g>
</g>
<!-- Node9 -->
<g id="Node000009" class="node">
<title>Node9</title>
<g id="a_Node000009"><a xlink:href="ARInvaderDropTypes_8h.html" target="_top" xlink:title="Shared invader drop type surface.">
<polygon fill="white" stroke="#666666" points="948.39,-74 821.39,-74 821.39,-55 948.39,-55 948.39,-74"/>
<text text-anchor="middle" x="884.89" y="-62" font-family="Helvetica,sans-Serif" font-size="10.00">ARInvaderDropTypes.h</text>
</a>
</g>
</g>
<!-- Node6&#45;&gt;Node9 -->
<g id="edge11_Node000006_Node000009" class="edge">
<title>Node6&#45;&gt;Node9</title>
<g id="a_edge11_Node000006_Node000009"><a xlink:title=" ">
<path fill="none" stroke="#63b8ff" d="M685.97,-109.98C726.88,-100.84 792,-86.27 836.51,-76.32"/>
<polygon fill="#63b8ff" stroke="#63b8ff" points="837.52,-79.68 846.52,-74.08 836,-72.85 837.52,-79.68"/>
</a>
</g>
</g>
<!-- Node11 -->
<g id="Node000011" class="node">
<title>Node11</title>
<g id="a_Node000011"><a xlink:title=" ">
<polygon fill="#e0e0e0" stroke="#999999" points="1117.39,-19 978.39,-19 978.39,0 1117.39,0 1117.39,-19"/>
<text text-anchor="middle" x="1047.89" y="-7" font-family="Helvetica,sans-Serif" font-size="10.00">GameplayTagContainer.h</text>
</a>
</g>
</g>
<!-- Node6&#45;&gt;Node11 -->
<g id="edge14_Node000006_Node000011" class="edge">
<title>Node6&#45;&gt;Node11</title>
<g id="a_edge14_Node000006_Node000011"><a xlink:title=" ">
<path fill="none" stroke="#63b8ff" d="M700.05,-111.14C787.35,-98.81 953.92,-75.17 956.89,-74 985.54,-62.69 1013.89,-40.75 1031.15,-25.86"/>
<polygon fill="#63b8ff" stroke="#63b8ff" points="1033.51,-28.44 1038.68,-19.19 1028.87,-23.2 1033.51,-28.44"/>
</a>
</g>
</g>
<!-- Node12 -->
<g id="Node000012" class="node">
<title>Node12</title>
<g id="a_Node000012"><a xlink:title=" ">
<polygon fill="#e0e0e0" stroke="#999999" points="330.89,-74 220.89,-74 220.89,-55 330.89,-55 330.89,-74"/>
<text text-anchor="middle" x="275.89" y="-62" font-family="Helvetica,sans-Serif" font-size="10.00">Engine/DataTable.h</text>
</a>
</g>
</g>
<!-- Node6&#45;&gt;Node12 -->
<g id="edge15_Node000006_Node000012" class="edge">
<title>Node6&#45;&gt;Node12</title>
<g id="a_edge15_Node000006_Node000012"><a xlink:title=" ">
<path fill="none" stroke="#63b8ff" d="M595.78,-111.07C529.03,-101.57 413.35,-85.08 340.91,-74.76"/>
<polygon fill="#63b8ff" stroke="#63b8ff" points="341.38,-71.3 330.99,-73.35 340.4,-78.23 341.38,-71.3"/>
</a>
</g>
</g>
<!-- Node13 -->
<g id="Node000013" class="node">
<title>Node13</title>
<g id="a_Node000013"><a xlink:title=" ">
<polygon fill="#e0e0e0" stroke="#999999" points="480.39,-74 349.39,-74 349.39,-55 480.39,-55 480.39,-74"/>
<text text-anchor="middle" x="414.89" y="-62" font-family="Helvetica,sans-Serif" font-size="10.00">UObject/SoftObjectPtr.h</text>
</a>
</g>
</g>
<!-- Node6&#45;&gt;Node13 -->
<g id="edge16_Node000006_Node000013" class="edge">
<title>Node6&#45;&gt;Node13</title>
<g id="a_edge16_Node000006_Node000013"><a xlink:title=" ">
<path fill="none" stroke="#63b8ff" d="M610.46,-109.98C570.24,-100.84 506.22,-86.27 462.46,-76.32"/>
<polygon fill="#63b8ff" stroke="#63b8ff" points="463.15,-72.89 452.62,-74.08 461.6,-79.71 463.15,-72.89"/>
</a>
</g>
</g>
<!-- Node14 -->
<g id="Node000014" class="node">
<title>Node14</title>
<g id="a_Node000014"><a xlink:href="ARAbilitySet_8h.html" target="_top" xlink:title="ARAbilitySet header for Alien Ramen.">
<polygon fill="white" stroke="#666666" points="1090.89,-74 1004.89,-74 1004.89,-55 1090.89,-55 1090.89,-74"/>
<text text-anchor="middle" x="1047.89" y="-62" font-family="Helvetica,sans-Serif" font-size="10.00">ARAbilitySet.h</text>
</a>
</g>
</g>
<!-- Node6&#45;&gt;Node14 -->
<g id="edge17_Node000006_Node000014" class="edge">
<title>Node6&#45;&gt;Node14</title>
<g id="a_edge17_Node000006_Node000014"><a xlink:title=" ">
<path fill="none" stroke="#63b8ff" d="M700.13,-111.18C703.1,-110.78 706.03,-110.38 708.89,-110 834.13,-93.28 865.74,-91.32 990.89,-74 992.15,-73.83 993.42,-73.65 994.7,-73.47"/>
<polygon fill="#63b8ff" stroke="#63b8ff" points="995.24,-76.93 1004.65,-72.05 994.25,-70 995.24,-76.93"/>
</a>
</g>
</g>
<!-- Node17 -->
<g id="Node000017" class="node">
<title>Node17</title>
<g id="a_Node000017"><a xlink:title=" ">
<polygon fill="#e0e0e0" stroke="#999999" points="654.89,-74 498.89,-74 498.89,-55 654.89,-55 654.89,-74"/>
<text text-anchor="middle" x="576.89" y="-62" font-family="Helvetica,sans-Serif" font-size="10.00">ARInvaderTypes.generated.h</text>
</a>
</g>
</g>
<!-- Node6&#45;&gt;Node17 -->
<g id="edge22_Node000006_Node000017" class="edge">
<title>Node6&#45;&gt;Node17</title>
<g id="a_edge22_Node000006_Node000017"><a xlink:title=" ">
<path fill="none" stroke="#63b8ff" d="M636.49,-109.98C625.79,-102 609.55,-89.88 596.73,-80.31"/>
<polygon fill="#63b8ff" stroke="#63b8ff" points="598.62,-77.35 588.51,-74.17 594.43,-82.96 598.62,-77.35"/>
</a>
</g>
</g>
<!-- Node7&#45;&gt;Node2 -->
<g id="edge9_Node000007_Node000002" class="edge">
<title>Node7&#45;&gt;Node2</title>
<g id="a_edge9_Node000007_Node000002"><a xlink:title=" ">
<path fill="none" stroke="#63b8ff" d="M718.89,-54.75C718.89,-47.8 718.89,-37.85 718.89,-29.13"/>
<polygon fill="#63b8ff" stroke="#63b8ff" points="722.39,-29.09 718.89,-19.09 715.39,-29.09 722.39,-29.09"/>
</a>
</g>
</g>
<!-- Node8 -->
<g id="Node000008" class="node">
<title>Node8</title>
<g id="a_Node000008"><a xlink:title=" ">
<polygon fill="#e0e0e0" stroke="#999999" points="656.39,-19 511.39,-19 511.39,0 656.39,0 656.39,-19"/>
<text text-anchor="middle" x="583.89" y="-7" font-family="Helvetica,sans-Serif" font-size="10.00">ARColorTypes.generated.h</text>
</a>
</g>
</g>
<!-- Node7&#45;&gt;Node8 -->
<g id="edge10_Node000007_Node000008" class="edge">
<title>Node7&#45;&gt;Node8</title>
<g id="a_edge10_Node000007_Node000008"><a xlink:title=" ">
<path fill="none" stroke="#63b8ff" d="M697.2,-54.98C675.1,-46.3 640.57,-32.75 615.44,-22.88"/>
<polygon fill="#63b8ff" stroke="#63b8ff" points="616.57,-19.57 605.98,-19.17 614.01,-26.08 616.57,-19.57"/>
</a>
</g>
</g>
<!-- Node9&#45;&gt;Node2 -->
<g id="edge12_Node000009_Node000002" class="edge">
<title>Node9&#45;&gt;Node2</title>
<g id="a_edge12_Node000009_Node000002"><a xlink:title=" ">
<path fill="none" stroke="#63b8ff" d="M858.22,-54.98C830.35,-46.09 786.44,-32.07 755.37,-22.15"/>
<polygon fill="#63b8ff" stroke="#63b8ff" points="756.37,-18.79 745.77,-19.08 754.24,-25.46 756.37,-18.79"/>
</a>
</g>
</g>
<!-- Node10 -->
<g id="Node000010" class="node">
<title>Node10</title>
<g id="a_Node000010"><a xlink:title=" ">
<polygon fill="#e0e0e0" stroke="#999999" points="960.39,-19 781.39,-19 781.39,0 960.39,0 960.39,-19"/>
<text text-anchor="middle" x="870.89" y="-7" font-family="Helvetica,sans-Serif" font-size="10.00">ARInvaderDropTypes.generated.h</text>
</a>
</g>
</g>
<!-- Node9&#45;&gt;Node10 -->
<g id="edge13_Node000009_Node000010" class="edge">
<title>Node9&#45;&gt;Node10</title>
<g id="a_edge13_Node000009_Node000010"><a xlink:title=" ">
<path fill="none" stroke="#63b8ff" d="M882.58,-54.75C880.73,-47.72 878.06,-37.62 875.74,-28.84"/>
<polygon fill="#63b8ff" stroke="#63b8ff" points="879.1,-27.86 873.16,-19.09 872.33,-29.65 879.1,-27.86"/>
</a>
</g>
</g>
<!-- Node14&#45;&gt;Node2 -->
<g id="edge18_Node000014_Node000002" class="edge">
<title>Node14&#45;&gt;Node2</title>
<g id="a_edge18_Node000014_Node000002"><a xlink:title=" ">
<path fill="none" stroke="#63b8ff" d="M1004.88,-56.57C945.36,-46.98 837.9,-29.67 773,-19.22"/>
<polygon fill="#63b8ff" stroke="#63b8ff" points="773.4,-15.73 762.97,-17.6 772.28,-22.65 773.4,-15.73"/>
</a>
</g>
</g>
<!-- Node14&#45;&gt;Node11 -->
<g id="edge20_Node000014_Node000011" class="edge">
<title>Node14&#45;&gt;Node11</title>
<g id="a_edge20_Node000014_Node000011"><a xlink:title=" ">
<path fill="none" stroke="#63b8ff" d="M1047.89,-54.75C1047.89,-47.8 1047.89,-37.85 1047.89,-29.13"/>
<polygon fill="#63b8ff" stroke="#63b8ff" points="1051.39,-29.09 1047.89,-19.09 1044.39,-29.09 1051.39,-29.09"/>
</a>
</g>
</g>
<!-- Node15 -->
<g id="Node000015" class="node">
<title>Node15</title>
<g id="a_Node000015"><a xlink:title=" ">
<polygon fill="#e0e0e0" stroke="#999999" points="1404.89,-19 1292.89,-19 1292.89,0 1404.89,0 1404.89,-19"/>
<text text-anchor="middle" x="1348.89" y="-7" font-family="Helvetica,sans-Serif" font-size="10.00">Engine/DataAsset.h</text>
</a>
</g>
</g>
<!-- Node14&#45;&gt;Node15 -->
<g id="edge19_Node000014_Node000015" class="edge">
<title>Node14&#45;&gt;Node15</title>
<g id="a_edge19_Node000014_Node000015"><a xlink:title=" ">
<path fill="none" stroke="#63b8ff" d="M1091.02,-55.91C1143.39,-46.69 1231.95,-31.09 1290.43,-20.8"/>
<polygon fill="#63b8ff" stroke="#63b8ff" points="1291.38,-24.18 1300.62,-19 1290.16,-17.29 1291.38,-24.18"/>
</a>
</g>
</g>
<!-- Node16 -->
<g id="Node000016" class="node">
<title>Node16</title>
<g id="a_Node000016"><a xlink:title=" ">
<polygon fill="#e0e0e0" stroke="#999999" points="1274.39,-19 1135.39,-19 1135.39,0 1274.39,0 1274.39,-19"/>
<text text-anchor="middle" x="1204.89" y="-7" font-family="Helvetica,sans-Serif" font-size="10.00">ARAbilitySet.generated.h</text>
</a>
</g>
</g>
<!-- Node14&#45;&gt;Node16 -->
<g id="edge21_Node000014_Node000016" class="edge">
<title>Node14&#45;&gt;Node16</title>
<g id="a_edge21_Node000014_Node000016"><a xlink:title=" ">
<path fill="none" stroke="#63b8ff" d="M1073.12,-54.98C1099.25,-46.16 1140.29,-32.31 1169.63,-22.41"/>
<polygon fill="#63b8ff" stroke="#63b8ff" points="1171.12,-25.6 1179.47,-19.08 1168.88,-18.96 1171.12,-25.6"/>
</a>
</g>
</g>
</g>
</svg>
