<?xml version="1.0" encoding="UTF-8" standalone="no"?>
<!DOCTYPE svg PUBLIC "-//W3C//DTD SVG 1.1//EN"
 "http://www.w3.org/Graphics/SVG/1.1/DTD/svg11.dtd">
<!-- Generated by graphviz version 2.43.0 (0)
 -->
<!-- Title: ARInvaderRuntimeStateComponent.h Pages: 1 -->
<!--zoomable 192 -->

<svg id="main" version="1.1" xmlns="http://www.w3.org/2000/svg" xmlns:xlink="http://www.w3.org/1999/xlink" xml:space="preserve" onload="init(evt)">
<style type="text/css"><![CDATA[
.node, .edge {opacity: 0.7;}
.node.selected, .edge.selected {opacity: 1;}
.edge:hover path { stroke: red; }
.edge:hover polygon { stroke: red; fill: red; }
]]></style>

<defs>
  <circle id="rim" cx="0" cy="0" r="7"/>
  <circle id="rim2" cx="0" cy="0" r="3.5"/>
  <g id="zoomPlus">
    <use xlink:href="#rim" fill="#404040"><set attributeName="fill" to="#808080" begin="zoomplus.mouseover" end="zoomplus.mouseout"/></use>
    <path d="M-4,0h8M0,-4v8" fill="none" stroke="white" stroke-width="1.5" pointer-events="none"/>
  </g>
  <g id="zoomMin">
    <use xlink:href="#rim" fill="#404040"><set attributeName="fill" to="#808080" begin="zoomminus.mouseover" end="zoomminus.mouseout"/></use>
    <path d="M-4,0h8" fill="none" stroke="white" stroke-width="1.5" pointer-events="none"/>
  </g>
  <g id="arrowUp" transform="translate(30 24)">
    <use xlink:href="#rim"/>
    <path pointer-events="none" fill="none" stroke="white" stroke-width="1.5" d="M0,-3.0v7 M-2.5,-0.5L0,-3.0L2.5,-0.5"/>
  </g>
  <g id="arrowRight" transform="rotate(90) translate(36 -43)">
    <use xlink:href="#rim"/>
    <path pointer-events="none" fill="none" stroke="white" stroke-width="1.5" d="M0,-3.0v7 M-2.5,-0.5L0,-3.0L2.5,-0.5"/>
  </g>
  <g id="arrowDown" transform="rotate(180) translate(-30 -48)">
    <use xlink:href="#rim"/>
    <path pointer-events="none" fill="none" stroke="white" stroke-width="1.5" d="M0,-3.0v7 M-2.5,-0.5L0,-3.0L2.5,-0.5"/>
  </g>
  <g id="arrowLeft" transform="rotate(270) translate(-36 17)">
    <use xlink:href="#rim"/>
    <path pointer-events="none" fill="none" stroke="white" stroke-width="1.5" d="M0,-3.0v7 M-2.5,-0.5L0,-3.0L2.5,-0.5"/>
  </g>
  <g id="resetDef">
    <use xlink:href="#rim2" fill="#404040"><set attributeName="fill" to="#808080" begin="reset.mouseover" end="reset.mouseout"/></use>
  </g>
</defs>
<script type="application/ecmascript">
var viewWidth = 1508;
var viewHeight = 192;
var sectionId = 'dynsection-0';
</script>
<script type="application/ecmascript" xlink:href="svg.min.js"/>
<svg id="graph" class="graph">
<g id="viewport">
<title>ARInvaderRuntimeStateComponent.h</title>
<!-- Node1 -->
<g id="Node000001" class="node">
<title>Node1</title>
<g id="a_Node000001"><a xlink:title="ARInvaderRuntimeStateComponent header for Alien Ramen.">
<polygon fill="#999999" stroke="#666666" points="1187,-184 988,-184 988,-165 1187,-165 1187,-184"/>
<text text-anchor="middle" x="1087.5" y="-172" font-family="Helvetica,sans-Serif" font-size="10.00">ARInvaderRuntimeStateComponent.h</text>
</a>
</g>
</g>
<!-- Node2 -->
<g id="Node000002" class="node">
<title>Node2</title>
<g id="a_Node000002"><a xlink:title=" ">
<polygon fill="#e0e0e0" stroke="#999999" points="860.5,-19 772.5,-19 772.5,0 860.5,0 860.5,-19"/>
<text text-anchor="middle" x="816.5" y="-7" font-family="Helvetica,sans-Serif" font-size="10.00">CoreMinimal.h</text>
</a>
</g>
</g>
<!-- Node1&#45;&gt;Node2 -->
<g id="edge1_Node000001_Node000002" class="edge">
<title>Node1&#45;&gt;Node2</title>
<g id="a_edge1_Node000001_Node000002"><a xlink:title=" ">
<path fill="none" stroke="#63b8ff" d="M1078.99,-164.79C1070.82,-156.16 1058.44,-142.33 1049.5,-129 1028.91,-98.29 1040.7,-77.68 1011.5,-55 1000.36,-46.35 924.77,-30.74 871.05,-20.5"/>
<polygon fill="#63b8ff" stroke="#63b8ff" points="871.44,-17.02 860.96,-18.59 870.14,-23.89 871.44,-17.02"/>
</a>
</g>
</g>
<!-- Node3 -->
<g id="Node000003" class="node">
<title>Node3</title>
<g id="a_Node000003"><a xlink:title=" ">
<polygon fill="#e0e0e0" stroke="#999999" points="1230.5,-129 1058.5,-129 1058.5,-110 1230.5,-110 1230.5,-129"/>
<text text-anchor="middle" x="1144.5" y="-117" font-family="Helvetica,sans-Serif" font-size="10.00">Components/ActorComponent.h</text>
</a>
</g>
</g>
<!-- Node1&#45;&gt;Node3 -->
<g id="edge2_Node000001_Node000003" class="edge">
<title>Node1&#45;&gt;Node3</title>
<g id="a_edge2_Node000001_Node000003"><a xlink:title=" ">
<path fill="none" stroke="#63b8ff" d="M1096.66,-164.98C1105,-157.23 1117.53,-145.58 1127.68,-136.14"/>
<polygon fill="#63b8ff" stroke="#63b8ff" points="1130.24,-138.54 1135.18,-129.17 1125.47,-133.42 1130.24,-138.54"/>
</a>
</g>
</g>
<!-- Node4 -->
<g id="Node000004" class="node">
<title>Node4</title>
<g id="a_Node000004"><a xlink:href="ARInvaderTypes_8h.html" target="_top" xlink:title="ARInvaderTypes header for Alien Ramen.">
<polygon fill="white" stroke="#666666" points="630.5,-129 526.5,-129 526.5,-110 630.5,-110 630.5,-129"/>
<text text-anchor="middle" x="578.5" y="-117" font-family="Helvetica,sans-Serif" font-size="10.00">ARInvaderTypes.h</text>
</a>
</g>
</g>
<!-- Node1&#45;&gt;Node4 -->
<g id="edge3_Node000001_Node000004" class="edge">
<title>Node1&#45;&gt;Node4</title>
<g id="a_edge3_Node000001_Node000004"><a xlink:title=" ">
<path fill="none" stroke="#63b8ff" d="M1005.72,-164.98C903.87,-154.38 732.16,-136.5 640.51,-126.96"/>
<polygon fill="#63b8ff" stroke="#63b8ff" points="640.86,-123.47 630.55,-125.92 640.13,-130.44 640.86,-123.47"/>
</a>
</g>
</g>
<!-- Node16 -->
<g id="Node000016" class="node">
<title>Node16</title>
<g id="a_Node000016"><a xlink:title=" ">
<polygon fill="#e0e0e0" stroke="#999999" points="1500,-129 1249,-129 1249,-110 1500,-110 1500,-129"/>
<text text-anchor="middle" x="1374.5" y="-117" font-family="Helvetica,sans-Serif" font-size="10.00">ARInvaderRuntimeStateComponent.generated.h</text>
</a>
</g>
</g>
<!-- Node1&#45;&gt;Node16 -->
<g id="edge20_Node000001_Node000016" class="edge">
<title>Node1&#45;&gt;Node16</title>
<g id="a_edge20_Node000001_Node000016"><a xlink:title=" ">
<path fill="none" stroke="#63b8ff" d="M1133.61,-164.98C1183.78,-155.72 1264.01,-140.9 1317.94,-130.94"/>
<polygon fill="#63b8ff" stroke="#63b8ff" points="1318.83,-134.34 1328.03,-129.08 1317.56,-127.46 1318.83,-134.34"/>
</a>
</g>
</g>
<!-- Node4&#45;&gt;Node2 -->
<g id="edge4_Node000004_Node000002" class="edge">
<title>Node4&#45;&gt;Node2</title>
<g id="a_edge4_Node000004_Node000002"><a xlink:title=" ">
<path fill="none" stroke="#63b8ff" d="M630.66,-116.77C696.15,-113.38 802.91,-103.38 827.5,-74 838.02,-61.44 832.9,-42.46 826.6,-28.53"/>
<polygon fill="#63b8ff" stroke="#63b8ff" points="829.64,-26.78 822,-19.44 823.39,-29.94 829.64,-26.78"/>
</a>
</g>
</g>
<!-- Node5 -->
<g id="Node000005" class="node">
<title>Node5</title>
<g id="a_Node000005"><a xlink:href="ARColorTypes_8h.html" target="_top" xlink:title="Shared gameplay color types used across enemies/players/rewards.">
<polygon fill="white" stroke="#666666" points="366.5,-74 274.5,-74 274.5,-55 366.5,-55 366.5,-74"/>
<text text-anchor="middle" x="320.5" y="-62" font-family="Helvetica,sans-Serif" font-size="10.00">ARColorTypes.h</text>
</a>
</g>
</g>
<!-- Node4&#45;&gt;Node5 -->
<g id="edge5_Node000004_Node000005" class="edge">
<title>Node4&#45;&gt;Node5</title>
<g id="a_edge5_Node000004_Node000005"><a xlink:title=" ">
<path fill="none" stroke="#63b8ff" d="M537.05,-109.98C492.23,-100.78 420.73,-86.09 372.25,-76.13"/>
<polygon fill="#63b8ff" stroke="#63b8ff" points="372.78,-72.67 362.28,-74.08 371.37,-79.52 372.78,-72.67"/>
</a>
</g>
</g>
<!-- Node7 -->
<g id="Node000007" class="node">
<title>Node7</title>
<g id="a_Node000007"><a xlink:href="ARInvaderDropTypes_8h.html" target="_top" xlink:title="Shared invader drop type surface.">
<polygon fill="white" stroke="#666666" points="1002,-74 875,-74 875,-55 1002,-55 1002,-74"/>
<text text-anchor="middle" x="938.5" y="-62" font-family="Helvetica,sans-Serif" font-size="10.00">ARInvaderDropTypes.h</text>
</a>
</g>
</g>
<!-- Node4&#45;&gt;Node7 -->
<g id="edge8_Node000004_Node000007" class="edge">
<title>Node4&#45;&gt;Node7</title>
<g id="a_edge8_Node000004_Node000007"><a xlink:title=" ">
<path fill="none" stroke="#63b8ff" d="M630.85,-110.79C694.23,-101.46 801.11,-85.73 870.73,-75.48"/>
<polygon fill="#63b8ff" stroke="#63b8ff" points="871.34,-78.93 880.72,-74.01 870.32,-72 871.34,-78.93"/>
</a>
</g>
</g>
<!-- Node9 -->
<g id="Node000009" class="node">
<title>Node9</title>
<g id="a_Node000009"><a xlink:title=" ">
<polygon fill="#e0e0e0" stroke="#999999" points="139,-19 0,-19 0,0 139,0 139,-19"/>
<text text-anchor="middle" x="69.5" y="-7" font-family="Helvetica,sans-Serif" font-size="10.00">GameplayTagContainer.h</text>
</a>
</g>
</g>
<!-- Node4&#45;&gt;Node9 -->
<g id="edge11_Node000004_Node000009" class="edge">
<title>Node4&#45;&gt;Node9</title>
<g id="a_edge11_Node000004_Node000009"><a xlink:title=" ">
<path fill="none" stroke="#63b8ff" d="M526.38,-116.14C429.88,-111.25 227.2,-98.37 161.5,-74 132.42,-63.21 103.78,-41.14 86.38,-26.08"/>
<polygon fill="#63b8ff" stroke="#63b8ff" points="88.58,-23.36 78.78,-19.33 83.93,-28.59 88.58,-23.36"/>
</a>
</g>
</g>
<!-- Node10 -->
<g id="Node000010" class="node">
<title>Node10</title>
<g id="a_Node000010"><a xlink:title=" ">
<polygon fill="#e0e0e0" stroke="#999999" points="494.5,-74 384.5,-74 384.5,-55 494.5,-55 494.5,-74"/>
<text text-anchor="middle" x="439.5" y="-62" font-family="Helvetica,sans-Serif" font-size="10.00">Engine/DataTable.h</text>
</a>
</g>
</g>
<!-- Node4&#45;&gt;Node10 -->
<g id="edge12_Node000004_Node000010" class="edge">
<title>Node4&#45;&gt;Node10</title>
<g id="a_edge12_Node000004_Node000010"><a xlink:title=" ">
<path fill="none" stroke="#63b8ff" d="M556.17,-109.98C533.3,-101.27 497.54,-87.63 471.64,-77.75"/>
<polygon fill="#63b8ff" stroke="#63b8ff" points="472.83,-74.46 462.24,-74.17 470.34,-81 472.83,-74.46"/>
</a>
</g>
</g>
<!-- Node11 -->
<g id="Node000011" class="node">
<title>Node11</title>
<g id="a_Node000011"><a xlink:title=" ">
<polygon fill="#e0e0e0" stroke="#999999" points="644,-74 513,-74 513,-55 644,-55 644,-74"/>
<text text-anchor="middle" x="578.5" y="-62" font-family="Helvetica,sans-Serif" font-size="10.00">UObject/SoftObjectPtr.h</text>
</a>
</g>
</g>
<!-- Node4&#45;&gt;Node11 -->
<g id="edge13_Node000004_Node000011" class="edge">
<title>Node4&#45;&gt;Node11</title>
<g id="a_edge13_Node000004_Node000011"><a xlink:title=" ">
<path fill="none" stroke="#63b8ff" d="M578.5,-109.75C578.5,-102.8 578.5,-92.85 578.5,-84.13"/>
<polygon fill="#63b8ff" stroke="#63b8ff" points="582,-84.09 578.5,-74.09 575,-84.09 582,-84.09"/>
</a>
</g>
</g>
<!-- Node12 -->
<g id="Node000012" class="node">
<title>Node12</title>
<g id="a_Node000012"><a xlink:href="ARAbilitySet_8h.html" target="_top" xlink:title="ARAbilitySet header for Alien Ramen.">
<polygon fill="white" stroke="#666666" points="256.5,-74 170.5,-74 170.5,-55 256.5,-55 256.5,-74"/>
<text text-anchor="middle" x="213.5" y="-62" font-family="Helvetica,sans-Serif" font-size="10.00">ARAbilitySet.h</text>
</a>
</g>
</g>
<!-- Node4&#45;&gt;Node12 -->
<g id="edge14_Node000004_Node000012" class="edge">
<title>Node4&#45;&gt;Node12</title>
<g id="a_edge14_Node000004_Node000012"><a xlink:title=" ">
<path fill="none" stroke="#63b8ff" d="M526.39,-111.43C466.29,-103.2 364.25,-88.99 266.66,-74.15"/>
<polygon fill="#63b8ff" stroke="#63b8ff" points="267.03,-70.67 256.62,-72.62 265.98,-77.59 267.03,-70.67"/>
</a>
</g>
</g>
<!-- Node15 -->
<g id="Node000015" class="node">
<title>Node15</title>
<g id="a_Node000015"><a xlink:title=" ">
<polygon fill="#e0e0e0" stroke="#999999" points="818.5,-74 662.5,-74 662.5,-55 818.5,-55 818.5,-74"/>
<text text-anchor="middle" x="740.5" y="-62" font-family="Helvetica,sans-Serif" font-size="10.00">ARInvaderTypes.generated.h</text>
</a>
</g>
</g>
<!-- Node4&#45;&gt;Node15 -->
<g id="edge19_Node000004_Node000015" class="edge">
<title>Node4&#45;&gt;Node15</title>
<g id="a_edge19_Node000004_Node000015"><a xlink:title=" ">
<path fill="none" stroke="#63b8ff" d="M604.53,-109.98C631.61,-101.13 674.21,-87.19 704.51,-77.28"/>
<polygon fill="#63b8ff" stroke="#63b8ff" points="705.85,-80.52 714.27,-74.08 703.68,-73.87 705.85,-80.52"/>
</a>
</g>
</g>
<!-- Node5&#45;&gt;Node2 -->
<g id="edge6_Node000005_Node000002" class="edge">
<title>Node5&#45;&gt;Node2</title>
<g id="a_edge6_Node000005_Node000002"><a xlink:title=" ">
<path fill="none" stroke="#63b8ff" d="M366.69,-56.18C369.67,-55.76 372.62,-55.37 375.5,-55 514.54,-37.25 678.99,-22.23 762.29,-15.04"/>
<polygon fill="#63b8ff" stroke="#63b8ff" points="762.62,-18.53 772.28,-14.18 762.02,-11.55 762.62,-18.53"/>
</a>
</g>
</g>
<!-- Node6 -->
<g id="Node000006" class="node">
<title>Node6</title>
<g id="a_Node000006"><a xlink:title=" ">
<polygon fill="#e0e0e0" stroke="#999999" points="590,-19 445,-19 445,0 590,0 590,-19"/>
<text text-anchor="middle" x="517.5" y="-7" font-family="Helvetica,sans-Serif" font-size="10.00">ARColorTypes.generated.h</text>
</a>
</g>
</g>
<!-- Node5&#45;&gt;Node6 -->
<g id="edge7_Node000005_Node000006" class="edge">
<title>Node5&#45;&gt;Node6</title>
<g id="a_edge7_Node000005_Node000006"><a xlink:title=" ">
<path fill="none" stroke="#63b8ff" d="M352.15,-54.98C385.66,-45.97 438.7,-31.7 475.64,-21.76"/>
<polygon fill="#63b8ff" stroke="#63b8ff" points="476.85,-25.06 485.6,-19.08 475.03,-18.3 476.85,-25.06"/>
</a>
</g>
</g>
<!-- Node7&#45;&gt;Node2 -->
<g id="edge9_Node000007_Node000002" class="edge">
<title>Node7&#45;&gt;Node2</title>
<g id="a_edge9_Node000007_Node000002"><a xlink:title=" ">
<path fill="none" stroke="#63b8ff" d="M918.9,-54.98C899.18,-46.42 868.55,-33.11 845.92,-23.28"/>
<polygon fill="#63b8ff" stroke="#63b8ff" points="847.02,-19.94 836.46,-19.17 844.24,-26.37 847.02,-19.94"/>
</a>
</g>
</g>
<!-- Node8 -->
<g id="Node000008" class="node">
<title>Node8</title>
<g id="a_Node000008"><a xlink:title=" ">
<polygon fill="#e0e0e0" stroke="#999999" points="1058,-19 879,-19 879,0 1058,0 1058,-19"/>
<text text-anchor="middle" x="968.5" y="-7" font-family="Helvetica,sans-Serif" font-size="10.00">ARInvaderDropTypes.generated.h</text>
</a>
</g>
</g>
<!-- Node7&#45;&gt;Node8 -->
<g id="edge10_Node000007_Node000008" class="edge">
<title>Node7&#45;&gt;Node8</title>
<g id="a_edge10_Node000007_Node000008"><a xlink:title=" ">
<path fill="none" stroke="#63b8ff" d="M943.45,-54.75C947.56,-47.49 953.53,-36.95 958.6,-27.98"/>
<polygon fill="#63b8ff" stroke="#63b8ff" points="961.76,-29.52 963.64,-19.09 955.67,-26.07 961.76,-29.52"/>
</a>
</g>
</g>
<!-- Node12&#45;&gt;Node2 -->
<g id="edge15_Node000012_Node000002" class="edge">
<title>Node12&#45;&gt;Node2</title>
<g id="a_edge15_Node000012_Node000002"><a xlink:title=" ">
<path fill="none" stroke="#63b8ff" d="M256.59,-56.18C259.6,-55.75 262.59,-55.35 265.5,-55 446.99,-32.88 663.5,-19.04 762.4,-13.4"/>
<polygon fill="#63b8ff" stroke="#63b8ff" points="762.66,-16.89 772.45,-12.84 762.27,-9.9 762.66,-16.89"/>
</a>
</g>
</g>
<!-- Node12&#45;&gt;Node9 -->
<g id="edge17_Node000012_Node000009" class="edge">
<title>Node12&#45;&gt;Node9</title>
<g id="a_edge17_Node000012_Node000009"><a xlink:title=" ">
<path fill="none" stroke="#63b8ff" d="M190.36,-54.98C166.68,-46.27 129.63,-32.63 102.79,-22.75"/>
<polygon fill="#63b8ff" stroke="#63b8ff" points="103.65,-19.34 93.06,-19.17 101.23,-25.91 103.65,-19.34"/>
</a>
</g>
</g>
<!-- Node13 -->
<g id="Node000013" class="node">
<title>Node13</title>
<g id="a_Node000013"><a xlink:title=" ">
<polygon fill="#e0e0e0" stroke="#999999" points="269.5,-19 157.5,-19 157.5,0 269.5,0 269.5,-19"/>
<text text-anchor="middle" x="213.5" y="-7" font-family="Helvetica,sans-Serif" font-size="10.00">Engine/DataAsset.h</text>
</a>
</g>
</g>
<!-- Node12&#45;&gt;Node13 -->
<g id="edge16_Node000012_Node000013" class="edge">
<title>Node12&#45;&gt;Node13</title>
<g id="a_edge16_Node000012_Node000013"><a xlink:title=" ">
<path fill="none" stroke="#63b8ff" d="M213.5,-54.75C213.5,-47.8 213.5,-37.85 213.5,-29.13"/>
<polygon fill="#63b8ff" stroke="#63b8ff" points="217,-29.09 213.5,-19.09 210,-29.09 217,-29.09"/>
</a>
</g>
</g>
<!-- Node14 -->
<g id="Node000014" class="node">
<title>Node14</title>
<g id="a_Node000014"><a xlink:title=" ">
<polygon fill="#e0e0e0" stroke="#999999" points="427,-19 288,-19 288,0 427,0 427,-19"/>
<text text-anchor="middle" x="357.5" y="-7" font-family="Helvetica,sans-Serif" font-size="10.00">ARAbilitySet.generated.h</text>
</a>
</g>
</g>
<!-- Node12&#45;&gt;Node14 -->
<g id="edge18_Node000012_Node000014" class="edge">
<title>Node12&#45;&gt;Node14</title>
<g id="a_edge18_Node000012_Node000014"><a xlink:title=" ">
<path fill="none" stroke="#63b8ff" d="M236.64,-54.98C260.32,-46.27 297.37,-32.63 324.21,-22.75"/>
<polygon fill="#63b8ff" stroke="#63b8ff" points="325.77,-25.91 333.94,-19.17 323.35,-19.34 325.77,-25.91"/>
</a>
</g>
</g>
</g>
</svg>

<g id="navigator" transform="translate(0 0)" fill="#404254">
  <rect fill="#f2f5e9" fill-opacity="0.5" stroke="#606060" stroke-width=".5" x="0" y="0" width="60" height="60"/>
  <use id="zoomplus" xlink:href="#zoomPlus" x="17" y="9" onmousedown="handleZoom(evt,'in')"/>
  <use id="zoomminus" xlink:href="#zoomMin" x="42" y="9" onmousedown="handleZoom(evt,'out')"/>
  <use id="reset" xlink:href="#resetDef" x="30" y="36" onmousedown="handleReset()"/>
   <use id="arrowup" xlink:href="#arrowUp" x="0" y="0" onmousedown="handlePan(0,-1)"/>
  <use id="arrowright" xlink:href="#arrowRight" x="0" y="0" onmousedown="handlePan(1,0)"/>
  <use id="arrowdown" xlink:href="#arrowDown" x="0" y="0" onmousedown="handlePan(0,1)"/>
  <use id="arrowleft" xlink:href="#arrowLeft" x="0" y="0" onmousedown="handlePan(-1,0)"/>
</g>
<svg viewBox="0 0 15 15" width="100%" height="30px" preserveAspectRatio="xMaxYMin meet">
 <g id="arrow_out" transform="scale(0.3 0.3)">
  <a xlink:href="ARInvaderRuntimeStateComponent_8h__incl_org.svg" target="_base">
   <rect id="button" ry="5" rx="5" y="6" x="6" height="38" width="38"
        fill="#f2f5e9" fill-opacity="0.5" stroke="#606060" stroke-width="1.0"/>
   <path id="arrow"
     d="M 11.500037,31.436501 C 11.940474,20.09759 22.043105,11.32322 32.158766,21.979434 L 37.068811,17.246167 C 37.068811,17.246167 37.088388,32 37.088388,32 L 22.160133,31.978069 C 22.160133,31.978069 26.997745,27.140456 26.997745,27.140456 C 18.528582,18.264221 13.291696,25.230495 11.500037,31.436501 z"
     style="fill:#404040;"/>
  </a>
 </g>
</svg>

<style type='text/css'>
<![CDATA[
[data-mouse-over-selected='false'] { opacity: 0.7; }
[data-mouse-over-selected='true']  { opacity: 1.0; }
]]>
</style>
<script type="application/ecmascript"><![CDATA[
document.addEventListener('DOMContentLoaded', (event) => {
  highlightEdges();
  highlightAdjacentNodes();
});
]]></script>
</svg>
