<?xml version="1.0" encoding="UTF-8" standalone="no"?>
<!DOCTYPE svg PUBLIC "-//W3C//DTD SVG 1.1//EN"
 "http://www.w3.org/Graphics/SVG/1.1/DTD/svg11.dtd">
<!-- Generated by graphviz version 2.43.0 (0)
 -->
<!-- Title: ARInvaderSpicyTrackSettings.h Pages: 1 -->
<svg width="856pt" height="82pt"
 viewBox="0.00 0.00 855.50 82.00" xmlns="http://www.w3.org/2000/svg" xmlns:xlink="http://www.w3.org/1999/xlink">
<g id="graph0" class="graph" transform="scale(1 1) rotate(0) translate(4 78)">
<title>ARInvaderSpicyTrackSettings.h</title>
<!-- Node1 -->
<g id="Node000001" class="node">
<title>Node1</title>
<g id="a_Node000001"><a xlink:title="Project settings for Invader spicy&#45;track runtime tuning.">
<polygon fill="#999999" stroke="#666666" points="502.5,-74 335.5,-74 335.5,-55 502.5,-55 502.5,-74"/>
<text text-anchor="middle" x="419" y="-62" font-family="Helvetica,sans-Serif" font-size="10.00">ARInvaderSpicyTrackSettings.h</text>
</a>
</g>
</g>
<!-- Node2 -->
<g id="Node000002" class="node">
<title>Node2</title>
<g id="a_Node000002"><a xlink:href="AREnemyAuthoringPanel_8cpp_source.html" target="_top" xlink:title=" ">
<polygon fill="white" stroke="#666666" points="158,-19 0,-19 0,0 158,0 158,-19"/>
<text text-anchor="middle" x="79" y="-7" font-family="Helvetica,sans-Serif" font-size="10.00">AREnemyAuthoringPanel.cpp</text>
</a>
</g>
</g>
<!-- Node1&#45;&gt;Node2 -->
<g id="edge1_Node000001_Node000002" class="edge">
<title>Node1&#45;&gt;Node2</title>
<g id="a_edge1_Node000001_Node000002"><a xlink:title=" ">
<path fill="none" stroke="#63b8ff" d="M354.42,-53.43C290.58,-43.48 193.97,-28.42 133.77,-19.04"/>
<polygon fill="#63b8ff" stroke="#63b8ff" points="353.95,-56.9 364.37,-54.98 355.03,-49.99 353.95,-56.9"/>
</a>
</g>
</g>
<!-- Node3 -->
<g id="Node000003" class="node">
<title>Node3</title>
<g id="a_Node000003"><a xlink:href="ARInvaderGameState_8cpp_source.html" target="_top" xlink:title=" ">
<polygon fill="white" stroke="#666666" points="318,-19 176,-19 176,0 318,0 318,-19"/>
<text text-anchor="middle" x="247" y="-7" font-family="Helvetica,sans-Serif" font-size="10.00">ARInvaderGameState.cpp</text>
</a>
</g>
</g>
<!-- Node1&#45;&gt;Node3 -->
<g id="edge2_Node000001_Node000003" class="edge">
<title>Node1&#45;&gt;Node3</title>
<g id="a_edge2_Node000001_Node000003"><a xlink:title=" ">
<path fill="none" stroke="#63b8ff" d="M381.44,-51.93C349.32,-42.03 303.81,-28.01 274.85,-19.08"/>
<polygon fill="#63b8ff" stroke="#63b8ff" points="380.78,-55.38 391.37,-54.98 382.84,-48.69 380.78,-55.38"/>
</a>
</g>
</g>
<!-- Node4 -->
<g id="Node000004" class="node">
<title>Node4</title>
<g id="a_Node000004"><a xlink:href="ARInvaderPlayerController_8cpp_source.html" target="_top" xlink:title=" ">
<polygon fill="white" stroke="#666666" points="501.5,-19 336.5,-19 336.5,0 501.5,0 501.5,-19"/>
<text text-anchor="middle" x="419" y="-7" font-family="Helvetica,sans-Serif" font-size="10.00">ARInvaderPlayerController.cpp</text>
</a>
</g>
</g>
<!-- Node1&#45;&gt;Node4 -->
<g id="edge3_Node000001_Node000004" class="edge">
<title>Node1&#45;&gt;Node4</title>
<g id="a_edge3_Node000001_Node000004"><a xlink:title=" ">
<path fill="none" stroke="#63b8ff" d="M419,-44.66C419,-35.93 419,-25.99 419,-19.09"/>
<polygon fill="#63b8ff" stroke="#63b8ff" points="415.5,-44.75 419,-54.75 422.5,-44.75 415.5,-44.75"/>
</a>
</g>
</g>
<!-- Node5 -->
<g id="Node000005" class="node">
<title>Node5</title>
<g id="a_Node000005"><a xlink:href="ARInvaderSpicyTrackSettings_8cpp_source.html" target="_top" xlink:title=" ">
<polygon fill="white" stroke="#666666" points="698.5,-19 519.5,-19 519.5,0 698.5,0 698.5,-19"/>
<text text-anchor="middle" x="609" y="-7" font-family="Helvetica,sans-Serif" font-size="10.00">ARInvaderSpicyTrackSettings.cpp</text>
</a>
</g>
</g>
<!-- Node1&#45;&gt;Node5 -->
<g id="edge4_Node000001_Node000005" class="edge">
<title>Node1&#45;&gt;Node5</title>
<g id="a_edge4_Node000001_Node000005"><a xlink:title=" ">
<path fill="none" stroke="#63b8ff" d="M459.57,-52.18C495.1,-42.27 545.97,-28.08 578.23,-19.08"/>
<polygon fill="#63b8ff" stroke="#63b8ff" points="458.22,-48.93 449.53,-54.98 460.1,-55.67 458.22,-48.93"/>
</a>
</g>
</g>
<!-- Node6 -->
<g id="Node000006" class="node">
<title>Node6</title>
<g id="a_Node000006"><a xlink:href="ARPlayerStateBase_8cpp_source.html" target="_top" xlink:title=" ">
<polygon fill="white" stroke="#666666" points="847.5,-19 716.5,-19 716.5,0 847.5,0 847.5,-19"/>
<text text-anchor="middle" x="782" y="-7" font-family="Helvetica,sans-Serif" font-size="10.00">ARPlayerStateBase.cpp</text>
</a>
</g>
</g>
<!-- Node1&#45;&gt;Node6 -->
<g id="edge5_Node000001_Node000006" class="edge">
<title>Node1&#45;&gt;Node6</title>
<g id="a_edge5_Node000001_Node000006"><a xlink:title=" ">
<path fill="none" stroke="#63b8ff" d="M487.53,-53.49C555.68,-43.54 659.12,-28.44 723.52,-19.04"/>
<polygon fill="#63b8ff" stroke="#63b8ff" points="486.71,-50.08 477.32,-54.98 487.72,-57 486.71,-50.08"/>
</a>
</g>
</g>
</g>
</svg>
