<?xml version="1.0" encoding="UTF-8" standalone="no"?>
<!DOCTYPE svg PUBLIC "-//W3C//DTD SVG 1.1//EN"
 "http://www.w3.org/Graphics/SVG/1.1/DTD/svg11.dtd">
<!-- Generated by graphviz version 2.43.0 (0)
 -->
<!-- Title: ARInvaderFullBlastMenuWidget.h Pages: 1 -->
<!--zoomable 247 -->

<svg id="main" version="1.1" xmlns="http://www.w3.org/2000/svg" xmlns:xlink="http://www.w3.org/1999/xlink" xml:space="preserve" onload="init(evt)">
<style type="text/css"><![CDATA[
.node, .edge {opacity: 0.7;}
.node.selected, .edge.selected {opacity: 1;}
.edge:hover path { stroke: red; }
.edge:hover polygon { stroke: red; fill: red; }
]]></style>

<defs>
  <circle id="rim" cx="0" cy="0" r="7"/>
  <circle id="rim2" cx="0" cy="0" r="3.5"/>
  <g id="zoomPlus">
    <use xlink:href="#rim" fill="#404040"><set attributeName="fill" to="#808080" begin="zoomplus.mouseover" end="zoomplus.mouseout"/></use>
    <path d="M-4,0h8M0,-4v8" fill="none" stroke="white" stroke-width="1.5" pointer-events="none"/>
  </g>
  <g id="zoomMin">
    <use xlink:href="#rim" fill="#404040"><set attributeName="fill" to="#808080" begin="zoomminus.mouseover" end="zoomminus.mouseout"/></use>
    <path d="M-4,0h8" fill="none" stroke="white" stroke-width="1.5" pointer-events="none"/>
  </g>
  <g id="arrowUp" transform="translate(30 24)">
    <use xlink:href="#rim"/>
    <path pointer-events="none" fill="none" stroke="white" stroke-width="1.5" d="M0,-3.0v7 M-2.5,-0.5L0,-3.0L2.5,-0.5"/>
  </g>
  <g id="arrowRight" transform="rotate(90) translate(36 -43)">
    <use xlink:href="#rim"/>
    <path pointer-events="none" fill="none" stroke="white" stroke-width="1.5" d="M0,-3.0v7 M-2.5,-0.5L0,-3.0L2.5,-0.5"/>
  </g>
  <g id="arrowDown" transform="rotate(180) translate(-30 -48)">
    <use xlink:href="#rim"/>
    <path pointer-events="none" fill="none" stroke="white" stroke-width="1.5" d="M0,-3.0v7 M-2.5,-0.5L0,-3.0L2.5,-0.5"/>
  </g>
  <g id="arrowLeft" transform="rotate(270) translate(-36 17)">
    <use xlink:href="#rim"/>
    <path pointer-events="none" fill="none" stroke="white" stroke-width="1.5" d="M0,-3.0v7 M-2.5,-0.5L0,-3.0L2.5,-0.5"/>
  </g>
  <g id="resetDef">
    <use xlink:href="#rim2" fill="#404040"><set attributeName="fill" to="#808080" begin="reset.mouseover" end="reset.mouseout"/></use>
  </g>
</defs>
<script type="application/ecmascript">
var viewWidth = 1174;
var viewHeight = 247;
var sectionId = 'dynsection-0';
</script>
<script type="application/ecmascript" xlink:href="svg.min.js"/>
<svg id="graph" class="graph">
<g id="viewport">
<title>ARInvaderFullBlastMenuWidget.h</title>
<!-- Node1 -->
<g id="Node000001" class="node">
<title>Node1</title>
<g id="a_Node000001"><a xlink:title="Base widget bridge for Invader full&#45;blast offer selection UI.">
<polygon fill="#999999" stroke="#666666" points="666.18,-239 487.18,-239 487.18,-220 666.18,-220 666.18,-239"/>
<text text-anchor="middle" x="576.68" y="-227" font-family="Helvetica,sans-Serif" font-size="10.00">ARInvaderFullBlastMenuWidget.h</text>
</a>
</g>
</g>
<!-- Node2 -->
<g id="Node000002" class="node">
<title>Node2</title>
<g id="a_Node000002"><a xlink:title=" ">
<polygon fill="#e0e0e0" stroke="#999999" points="360.68,-19 272.68,-19 272.68,0 360.68,0 360.68,-19"/>
<text text-anchor="middle" x="316.68" y="-7" font-family="Helvetica,sans-Serif" font-size="10.00">CoreMinimal.h</text>
</a>
</g>
</g>
<!-- Node1&#45;&gt;Node2 -->
<g id="edge1_Node000001_Node000002" class="edge">
<title>Node1&#45;&gt;Node2</title>
<g id="a_edge1_Node000001_Node000002"><a xlink:title=" ">
<path fill="none" stroke="#63b8ff" d="M506.82,-219.97C371.59,-201.78 82.65,-154.17 29.68,-74 -9.02,-15.43 -62.26,-69.26 262.23,-19.21"/>
<polygon fill="#63b8ff" stroke="#63b8ff" points="263.1,-22.61 272.44,-17.62 262.02,-15.7 263.1,-22.61"/>
</a>
</g>
</g>
<!-- Node3 -->
<g id="Node000003" class="node">
<title>Node3</title>
<g id="a_Node000003"><a xlink:title=" ">
<polygon fill="#e0e0e0" stroke="#999999" points="722.68,-184 592.68,-184 592.68,-165 722.68,-165 722.68,-184"/>
<text text-anchor="middle" x="657.68" y="-172" font-family="Helvetica,sans-Serif" font-size="10.00">Blueprint/UserWidget.h</text>
</a>
</g>
</g>
<!-- Node1&#45;&gt;Node3 -->
<g id="edge2_Node000001_Node000003" class="edge">
<title>Node1&#45;&gt;Node3</title>
<g id="a_edge2_Node000001_Node000003"><a xlink:title=" ">
<path fill="none" stroke="#63b8ff" d="M589.7,-219.98C602.14,-211.84 621.14,-199.41 635.89,-189.76"/>
<polygon fill="#63b8ff" stroke="#63b8ff" points="637.98,-192.57 644.43,-184.17 634.15,-186.72 637.98,-192.57"/>
</a>
</g>
</g>
<!-- Node4 -->
<g id="Node000004" class="node">
<title>Node4</title>
<g id="a_Node000004"><a xlink:href="ARInvaderSpicyTrackTypes_8h.html" target="_top" xlink:title="Shared Invader spicy&#45;track enums/structs for runtime + data authoring.">
<polygon fill="white" stroke="#666666" points="574.18,-184 419.18,-184 419.18,-165 574.18,-165 574.18,-184"/>
<text text-anchor="middle" x="496.68" y="-172" font-family="Helvetica,sans-Serif" font-size="10.00">ARInvaderSpicyTrackTypes.h</text>
</a>
</g>
</g>
<!-- Node1&#45;&gt;Node4 -->
<g id="edge3_Node000001_Node000004" class="edge">
<title>Node1&#45;&gt;Node4</title>
<g id="a_edge3_Node000001_Node000004"><a xlink:title=" ">
<path fill="none" stroke="#63b8ff" d="M563.83,-219.98C551.54,-211.84 532.77,-199.41 518.2,-189.76"/>
<polygon fill="#63b8ff" stroke="#63b8ff" points="520.04,-186.78 509.77,-184.17 516.17,-192.61 520.04,-186.78"/>
</a>
</g>
</g>
<!-- Node20 -->
<g id="Node000020" class="node">
<title>Node20</title>
<g id="a_Node000020"><a xlink:title=" ">
<polygon fill="#e0e0e0" stroke="#999999" points="972.68,-184 740.68,-184 740.68,-165 972.68,-165 972.68,-184"/>
<text text-anchor="middle" x="856.68" y="-172" font-family="Helvetica,sans-Serif" font-size="10.00">ARInvaderFullBlastMenuWidget.generated.h</text>
</a>
</g>
</g>
<!-- Node1&#45;&gt;Node20 -->
<g id="edge30_Node000001_Node000020" class="edge">
<title>Node1&#45;&gt;Node20</title>
<g id="a_edge30_Node000001_Node000020"><a xlink:title=" ">
<path fill="none" stroke="#63b8ff" d="M621.67,-219.98C670.61,-210.72 748.88,-195.9 801.5,-185.94"/>
<polygon fill="#63b8ff" stroke="#63b8ff" points="802.17,-189.38 811.34,-184.08 800.87,-182.5 802.17,-189.38"/>
</a>
</g>
</g>
<!-- Node4&#45;&gt;Node2 -->
<g id="edge4_Node000004_Node000002" class="edge">
<title>Node4&#45;&gt;Node2</title>
<g id="a_edge4_Node000004_Node000002"><a xlink:title=" ">
<path fill="none" stroke="#63b8ff" d="M455.73,-164.99C432.38,-158.41 403.84,-147.25 383.68,-129 356.27,-104.19 364.24,-86.97 345.68,-55 340.3,-45.73 333.83,-35.7 328.36,-27.52"/>
<polygon fill="#63b8ff" stroke="#63b8ff" points="331.23,-25.52 322.73,-19.2 325.44,-29.44 331.23,-25.52"/>
</a>
</g>
</g>
<!-- Node5 -->
<g id="Node000005" class="node">
<title>Node5</title>
<g id="a_Node000005"><a xlink:href="ARColorTypes_8h.html" target="_top" xlink:title="Shared gameplay color types used across enemies/players/rewards.">
<polygon fill="white" stroke="#666666" points="336.68,-74 244.68,-74 244.68,-55 336.68,-55 336.68,-74"/>
<text text-anchor="middle" x="290.68" y="-62" font-family="Helvetica,sans-Serif" font-size="10.00">ARColorTypes.h</text>
</a>
</g>
</g>
<!-- Node4&#45;&gt;Node5 -->
<g id="edge5_Node000004_Node000005" class="edge">
<title>Node4&#45;&gt;Node5</title>
<g id="a_edge5_Node000004_Node000005"><a xlink:title=" ">
<path fill="none" stroke="#63b8ff" d="M446.67,-164.96C417.15,-158.34 379.96,-147.15 350.68,-129 331.04,-116.83 313.52,-96.65 302.56,-82.31"/>
<polygon fill="#63b8ff" stroke="#63b8ff" points="305.37,-80.23 296.62,-74.25 299.74,-84.38 305.37,-80.23"/>
</a>
</g>
</g>
<!-- Node7 -->
<g id="Node000007" class="node">
<title>Node7</title>
<g id="a_Node000007"><a xlink:title=" ">
<polygon fill="#e0e0e0" stroke="#999999" points="1002.68,-74 892.68,-74 892.68,-55 1002.68,-55 1002.68,-74"/>
<text text-anchor="middle" x="947.68" y="-62" font-family="Helvetica,sans-Serif" font-size="10.00">Engine/DataTable.h</text>
</a>
</g>
</g>
<!-- Node4&#45;&gt;Node7 -->
<g id="edge8_Node000004_Node000007" class="edge">
<title>Node4&#45;&gt;Node7</title>
<g id="a_edge8_Node000004_Node000007"><a xlink:title=" ">
<path fill="none" stroke="#63b8ff" d="M549.73,-164.99C597.57,-156.96 669.72,-143.94 731.68,-129 795.88,-113.52 869.42,-90.82 912.01,-77.16"/>
<polygon fill="#63b8ff" stroke="#63b8ff" points="913.19,-80.46 921.64,-74.06 911.05,-73.8 913.19,-80.46"/>
</a>
</g>
</g>
<!-- Node8 -->
<g id="Node000008" class="node">
<title>Node8</title>
<g id="a_Node000008"><a xlink:title=" ">
<polygon fill="#e0e0e0" stroke="#999999" points="1003.18,-19 864.18,-19 864.18,0 1003.18,0 1003.18,-19"/>
<text text-anchor="middle" x="933.68" y="-7" font-family="Helvetica,sans-Serif" font-size="10.00">GameplayTagContainer.h</text>
</a>
</g>
</g>
<!-- Node4&#45;&gt;Node8 -->
<g id="edge9_Node000004_Node000008" class="edge">
<title>Node4&#45;&gt;Node8</title>
<g id="a_edge9_Node000004_Node000008"><a xlink:title=" ">
<path fill="none" stroke="#63b8ff" d="M571.37,-164.98C741.12,-145.28 1142.72,-96.49 1161.68,-74 1167.12,-67.54 1167.05,-61.52 1161.68,-55 1143,-32.31 1071.68,-21.04 1013.72,-15.53"/>
<polygon fill="#63b8ff" stroke="#63b8ff" points="1013.72,-12.01 1003.44,-14.6 1013.09,-18.99 1013.72,-12.01"/>
</a>
</g>
</g>
<!-- Node9 -->
<g id="Node000009" class="node">
<title>Node9</title>
<g id="a_Node000009"><a xlink:title=" ">
<polygon fill="#e0e0e0" stroke="#999999" points="1152.18,-74 1021.18,-74 1021.18,-55 1152.18,-55 1152.18,-74"/>
<text text-anchor="middle" x="1086.68" y="-62" font-family="Helvetica,sans-Serif" font-size="10.00">UObject/SoftObjectPtr.h</text>
</a>
</g>
</g>
<!-- Node4&#45;&gt;Node9 -->
<g id="edge10_Node000004_Node000009" class="edge">
<title>Node4&#45;&gt;Node9</title>
<g id="a_edge10_Node000004_Node000009"><a xlink:title=" ">
<path fill="none" stroke="#63b8ff" d="M556.66,-164.98C614.24,-156.59 703.59,-143.03 780.68,-129 872.27,-112.33 978.54,-89.48 1038.67,-76.23"/>
<polygon fill="#63b8ff" stroke="#63b8ff" points="1039.63,-79.6 1048.63,-74.02 1038.12,-72.76 1039.63,-79.6"/>
</a>
</g>
</g>
<!-- Node10 -->
<g id="Node000010" class="node">
<title>Node10</title>
<g id="a_Node000010"><a xlink:href="ARInvaderTypes_8h.html" target="_top" xlink:title="ARInvaderTypes header for Alien Ramen.">
<polygon fill="white" stroke="#666666" points="722.68,-129 618.68,-129 618.68,-110 722.68,-110 722.68,-129"/>
<text text-anchor="middle" x="670.68" y="-117" font-family="Helvetica,sans-Serif" font-size="10.00">ARInvaderTypes.h</text>
</a>
</g>
</g>
<!-- Node4&#45;&gt;Node10 -->
<g id="edge11_Node000004_Node000010" class="edge">
<title>Node4&#45;&gt;Node10</title>
<g id="a_edge11_Node000004_Node000010"><a xlink:title=" ">
<path fill="none" stroke="#63b8ff" d="M524.64,-164.98C553.98,-156.05 600.28,-141.94 632.87,-132.02"/>
<polygon fill="#63b8ff" stroke="#63b8ff" points="633.96,-135.34 642.51,-129.08 631.92,-128.65 633.96,-135.34"/>
</a>
</g>
</g>
<!-- Node17 -->
<g id="Node000017" class="node">
<title>Node17</title>
<g id="a_Node000017"><a xlink:href="ARPlayerTypes_8h.html" target="_top" xlink:title="Shared player&#45;facing enum types for Alien Ramen gameplay/save/runtime APIs.">
<polygon fill="white" stroke="#666666" points="265.68,-129 167.68,-129 167.68,-110 265.68,-110 265.68,-129"/>
<text text-anchor="middle" x="216.68" y="-117" font-family="Helvetica,sans-Serif" font-size="10.00">ARPlayerTypes.h</text>
</a>
</g>
</g>
<!-- Node4&#45;&gt;Node17 -->
<g id="edge26_Node000004_Node000017" class="edge">
<title>Node4&#45;&gt;Node17</title>
<g id="a_edge26_Node000004_Node000017"><a xlink:title=" ">
<path fill="none" stroke="#63b8ff" d="M451.69,-164.98C402.75,-155.72 324.48,-140.9 271.86,-130.94"/>
<polygon fill="#63b8ff" stroke="#63b8ff" points="272.5,-127.5 262.02,-129.08 271.2,-134.38 272.5,-127.5"/>
</a>
</g>
</g>
<!-- Node19 -->
<g id="Node000019" class="node">
<title>Node19</title>
<g id="a_Node000019"><a xlink:title=" ">
<polygon fill="#e0e0e0" stroke="#999999" points="600.68,-129 392.68,-129 392.68,-110 600.68,-110 600.68,-129"/>
<text text-anchor="middle" x="496.68" y="-117" font-family="Helvetica,sans-Serif" font-size="10.00">ARInvaderSpicyTrackTypes.generated.h</text>
</a>
</g>
</g>
<!-- Node4&#45;&gt;Node19 -->
<g id="edge29_Node000004_Node000019" class="edge">
<title>Node4&#45;&gt;Node19</title>
<g id="a_edge29_Node000004_Node000019"><a xlink:title=" ">
<path fill="none" stroke="#63b8ff" d="M496.68,-164.75C496.68,-157.8 496.68,-147.85 496.68,-139.13"/>
<polygon fill="#63b8ff" stroke="#63b8ff" points="500.18,-139.09 496.68,-129.09 493.18,-139.09 500.18,-139.09"/>
</a>
</g>
</g>
<!-- Node5&#45;&gt;Node2 -->
<g id="edge6_Node000005_Node000002" class="edge">
<title>Node5&#45;&gt;Node2</title>
<g id="a_edge6_Node000005_Node000002"><a xlink:title=" ">
<path fill="none" stroke="#63b8ff" d="M294.97,-54.75C298.5,-47.57 303.59,-37.18 307.96,-28.27"/>
<polygon fill="#63b8ff" stroke="#63b8ff" points="311.21,-29.61 312.47,-19.09 304.92,-26.53 311.21,-29.61"/>
</a>
</g>
</g>
<!-- Node6 -->
<g id="Node000006" class="node">
<title>Node6</title>
<g id="a_Node000006"><a xlink:title=" ">
<polygon fill="#e0e0e0" stroke="#999999" points="254.18,-19 109.18,-19 109.18,0 254.18,0 254.18,-19"/>
<text text-anchor="middle" x="181.68" y="-7" font-family="Helvetica,sans-Serif" font-size="10.00">ARColorTypes.generated.h</text>
</a>
</g>
</g>
<!-- Node5&#45;&gt;Node6 -->
<g id="edge7_Node000005_Node000006" class="edge">
<title>Node5&#45;&gt;Node6</title>
<g id="a_edge7_Node000005_Node000006"><a xlink:title=" ">
<path fill="none" stroke="#63b8ff" d="M273.17,-54.98C255.71,-46.5 228.67,-33.35 208.51,-23.54"/>
<polygon fill="#63b8ff" stroke="#63b8ff" points="210.04,-20.4 199.51,-19.17 206.98,-26.69 210.04,-20.4"/>
</a>
</g>
</g>
<!-- Node10&#45;&gt;Node2 -->
<g id="edge12_Node000010_Node000002" class="edge">
<title>Node10&#45;&gt;Node2</title>
<g id="a_edge12_Node000010_Node000002"><a xlink:title=" ">
<path fill="none" stroke="#63b8ff" d="M618.44,-110.16C551.16,-99.26 440.7,-80.76 422.68,-74 390.14,-61.8 356.33,-39.61 335.89,-24.96"/>
<polygon fill="#63b8ff" stroke="#63b8ff" points="337.88,-22.08 327.74,-19.01 333.75,-27.73 337.88,-22.08"/>
</a>
</g>
</g>
<!-- Node10&#45;&gt;Node5 -->
<g id="edge13_Node000010_Node000005" class="edge">
<title>Node10&#45;&gt;Node5</title>
<g id="a_edge13_Node000010_Node000005"><a xlink:title=" ">
<path fill="none" stroke="#63b8ff" d="M618.64,-111.24C547.39,-101.3 419.99,-83.54 346.71,-73.32"/>
<polygon fill="#63b8ff" stroke="#63b8ff" points="347.13,-69.84 336.74,-71.92 346.16,-76.77 347.13,-69.84"/>
</a>
</g>
</g>
<!-- Node10&#45;&gt;Node7 -->
<g id="edge18_Node000010_Node000007" class="edge">
<title>Node10&#45;&gt;Node7</title>
<g id="a_edge18_Node000010_Node000007"><a xlink:title=" ">
<path fill="none" stroke="#63b8ff" d="M715.19,-109.98C763.5,-100.74 840.72,-85.97 892.77,-76.01"/>
<polygon fill="#63b8ff" stroke="#63b8ff" points="893.66,-79.4 902.83,-74.08 892.35,-72.52 893.66,-79.4"/>
</a>
</g>
</g>
<!-- Node10&#45;&gt;Node8 -->
<g id="edge17_Node000010_Node000008" class="edge">
<title>Node10&#45;&gt;Node8</title>
<g id="a_edge17_Node000010_Node000008"><a xlink:title=" ">
<path fill="none" stroke="#63b8ff" d="M722.97,-110.52C758.7,-103.81 806.49,-92.31 845.68,-74 872.43,-61.51 899.4,-40.52 916.3,-26.11"/>
<polygon fill="#63b8ff" stroke="#63b8ff" points="918.93,-28.47 924.17,-19.26 914.33,-23.19 918.93,-28.47"/>
</a>
</g>
</g>
<!-- Node10&#45;&gt;Node9 -->
<g id="edge19_Node000010_Node000009" class="edge">
<title>Node10&#45;&gt;Node9</title>
<g id="a_edge19_Node000010_Node000009"><a xlink:title=" ">
<path fill="none" stroke="#63b8ff" d="M722.95,-111.84C795.61,-102.58 927.59,-85.77 1011.01,-75.14"/>
<polygon fill="#63b8ff" stroke="#63b8ff" points="1011.46,-78.61 1020.94,-73.88 1010.58,-71.67 1011.46,-78.61"/>
</a>
</g>
</g>
<!-- Node11 -->
<g id="Node000011" class="node">
<title>Node11</title>
<g id="a_Node000011"><a xlink:href="ARInvaderDropTypes_8h.html" target="_top" xlink:title="Shared invader drop type surface.">
<polygon fill="white" stroke="#666666" points="558.18,-74 431.18,-74 431.18,-55 558.18,-55 558.18,-74"/>
<text text-anchor="middle" x="494.68" y="-62" font-family="Helvetica,sans-Serif" font-size="10.00">ARInvaderDropTypes.h</text>
</a>
</g>
</g>
<!-- Node10&#45;&gt;Node11 -->
<g id="edge14_Node000010_Node000011" class="edge">
<title>Node10&#45;&gt;Node11</title>
<g id="a_edge14_Node000010_Node000011"><a xlink:title=" ">
<path fill="none" stroke="#63b8ff" d="M642.4,-109.98C612.73,-101.05 565.89,-86.94 532.93,-77.02"/>
<polygon fill="#63b8ff" stroke="#63b8ff" points="533.76,-73.61 523.18,-74.08 531.75,-80.32 533.76,-73.61"/>
</a>
</g>
</g>
<!-- Node13 -->
<g id="Node000013" class="node">
<title>Node13</title>
<g id="a_Node000013"><a xlink:href="ARAbilitySet_8h.html" target="_top" xlink:title="ARAbilitySet header for Alien Ramen.">
<polygon fill="white" stroke="#666666" points="662.68,-74 576.68,-74 576.68,-55 662.68,-55 662.68,-74"/>
<text text-anchor="middle" x="619.68" y="-62" font-family="Helvetica,sans-Serif" font-size="10.00">ARAbilitySet.h</text>
</a>
</g>
</g>
<!-- Node10&#45;&gt;Node13 -->
<g id="edge20_Node000010_Node000013" class="edge">
<title>Node10&#45;&gt;Node13</title>
<g id="a_edge20_Node000010_Node000013"><a xlink:title=" ">
<path fill="none" stroke="#63b8ff" d="M662.26,-109.75C654.91,-102.11 644.05,-90.82 635.14,-81.56"/>
<polygon fill="#63b8ff" stroke="#63b8ff" points="637.4,-78.87 627.95,-74.09 632.36,-83.72 637.4,-78.87"/>
</a>
</g>
</g>
<!-- Node16 -->
<g id="Node000016" class="node">
<title>Node16</title>
<g id="a_Node000016"><a xlink:title=" ">
<polygon fill="#e0e0e0" stroke="#999999" points="836.68,-74 680.68,-74 680.68,-55 836.68,-55 836.68,-74"/>
<text text-anchor="middle" x="758.68" y="-62" font-family="Helvetica,sans-Serif" font-size="10.00">ARInvaderTypes.generated.h</text>
</a>
</g>
</g>
<!-- Node10&#45;&gt;Node16 -->
<g id="edge25_Node000010_Node000016" class="edge">
<title>Node10&#45;&gt;Node16</title>
<g id="a_edge25_Node000010_Node000016"><a xlink:title=" ">
<path fill="none" stroke="#63b8ff" d="M684.82,-109.98C698.47,-101.77 719.37,-89.18 735.46,-79.49"/>
<polygon fill="#63b8ff" stroke="#63b8ff" points="737.52,-82.33 744.29,-74.17 733.91,-76.33 737.52,-82.33"/>
</a>
</g>
</g>
<!-- Node11&#45;&gt;Node2 -->
<g id="edge15_Node000011_Node000002" class="edge">
<title>Node11&#45;&gt;Node2</title>
<g id="a_edge15_Node000011_Node000002"><a xlink:title=" ">
<path fill="none" stroke="#63b8ff" d="M466.08,-54.98C436.07,-46.05 388.7,-31.94 355.37,-22.02"/>
<polygon fill="#63b8ff" stroke="#63b8ff" points="356.09,-18.58 345.5,-19.08 354.09,-25.29 356.09,-18.58"/>
</a>
</g>
</g>
<!-- Node12 -->
<g id="Node000012" class="node">
<title>Node12</title>
<g id="a_Node000012"><a xlink:title=" ">
<polygon fill="#e0e0e0" stroke="#999999" points="558.18,-19 379.18,-19 379.18,0 558.18,0 558.18,-19"/>
<text text-anchor="middle" x="468.68" y="-7" font-family="Helvetica,sans-Serif" font-size="10.00">ARInvaderDropTypes.generated.h</text>
</a>
</g>
</g>
<!-- Node11&#45;&gt;Node12 -->
<g id="edge16_Node000011_Node000012" class="edge">
<title>Node11&#45;&gt;Node12</title>
<g id="a_edge16_Node000011_Node000012"><a xlink:title=" ">
<path fill="none" stroke="#63b8ff" d="M490.39,-54.75C486.87,-47.57 481.77,-37.18 477.4,-28.27"/>
<polygon fill="#63b8ff" stroke="#63b8ff" points="480.44,-26.53 472.89,-19.09 474.16,-29.61 480.44,-26.53"/>
</a>
</g>
</g>
<!-- Node13&#45;&gt;Node2 -->
<g id="edge21_Node000013_Node000002" class="edge">
<title>Node13&#45;&gt;Node2</title>
<g id="a_edge21_Node000013_Node000002"><a xlink:title=" ">
<path fill="none" stroke="#63b8ff" d="M576.59,-55.96C522.53,-46.51 429.81,-30.29 370.96,-19.99"/>
<polygon fill="#63b8ff" stroke="#63b8ff" points="371.55,-16.55 361.1,-18.27 370.35,-23.44 371.55,-16.55"/>
</a>
</g>
</g>
<!-- Node13&#45;&gt;Node8 -->
<g id="edge23_Node000013_Node000008" class="edge">
<title>Node13&#45;&gt;Node8</title>
<g id="a_edge23_Node000013_Node000008"><a xlink:title=" ">
<path fill="none" stroke="#63b8ff" d="M662.68,-56.24C717.18,-47.04 811.42,-31.14 873.16,-20.71"/>
<polygon fill="#63b8ff" stroke="#63b8ff" points="873.88,-24.14 883.16,-19.03 872.72,-17.24 873.88,-24.14"/>
</a>
</g>
</g>
<!-- Node14 -->
<g id="Node000014" class="node">
<title>Node14</title>
<g id="a_Node000014"><a xlink:title=" ">
<polygon fill="#e0e0e0" stroke="#999999" points="845.68,-19 733.68,-19 733.68,0 845.68,0 845.68,-19"/>
<text text-anchor="middle" x="789.68" y="-7" font-family="Helvetica,sans-Serif" font-size="10.00">Engine/DataAsset.h</text>
</a>
</g>
</g>
<!-- Node13&#45;&gt;Node14 -->
<g id="edge22_Node000013_Node000014" class="edge">
<title>Node13&#45;&gt;Node14</title>
<g id="a_edge22_Node000013_Node000014"><a xlink:title=" ">
<path fill="none" stroke="#63b8ff" d="M646.99,-54.98C675.54,-46.09 720.51,-32.07 752.32,-22.15"/>
<polygon fill="#63b8ff" stroke="#63b8ff" points="753.65,-25.4 762.15,-19.08 751.57,-18.72 753.65,-25.4"/>
</a>
</g>
</g>
<!-- Node15 -->
<g id="Node000015" class="node">
<title>Node15</title>
<g id="a_Node000015"><a xlink:title=" ">
<polygon fill="#e0e0e0" stroke="#999999" points="715.18,-19 576.18,-19 576.18,0 715.18,0 715.18,-19"/>
<text text-anchor="middle" x="645.68" y="-7" font-family="Helvetica,sans-Serif" font-size="10.00">ARAbilitySet.generated.h</text>
</a>
</g>
</g>
<!-- Node13&#45;&gt;Node15 -->
<g id="edge24_Node000013_Node000015" class="edge">
<title>Node13&#45;&gt;Node15</title>
<g id="a_edge24_Node000013_Node000015"><a xlink:title=" ">
<path fill="none" stroke="#63b8ff" d="M623.97,-54.75C627.5,-47.57 632.59,-37.18 636.96,-28.27"/>
<polygon fill="#63b8ff" stroke="#63b8ff" points="640.21,-29.61 641.47,-19.09 633.92,-26.53 640.21,-29.61"/>
</a>
</g>
</g>
<!-- Node17&#45;&gt;Node2 -->
<g id="edge27_Node000017_Node000002" class="edge">
<title>Node17&#45;&gt;Node2</title>
<g id="a_edge27_Node000017_Node000002"><a xlink:title=" ">
<path fill="none" stroke="#63b8ff" d="M217.23,-109.73C218.47,-96.51 222.52,-71.29 235.68,-55 247.29,-40.63 264.83,-30.19 280.63,-23.05"/>
<polygon fill="#63b8ff" stroke="#63b8ff" points="282.32,-26.13 290.17,-19.02 279.6,-19.68 282.32,-26.13"/>
</a>
</g>
</g>
<!-- Node18 -->
<g id="Node000018" class="node">
<title>Node18</title>
<g id="a_Node000018"><a xlink:title=" ">
<polygon fill="#e0e0e0" stroke="#999999" points="188.68,-74 38.68,-74 38.68,-55 188.68,-55 188.68,-74"/>
<text text-anchor="middle" x="113.68" y="-62" font-family="Helvetica,sans-Serif" font-size="10.00">ARPlayerTypes.generated.h</text>
</a>
</g>
</g>
<!-- Node17&#45;&gt;Node18 -->
<g id="edge28_Node000017_Node000018" class="edge">
<title>Node17&#45;&gt;Node18</title>
<g id="a_edge28_Node000017_Node000018"><a xlink:title=" ">
<path fill="none" stroke="#63b8ff" d="M200.13,-109.98C183.79,-101.57 158.55,-88.59 139.55,-78.81"/>
<polygon fill="#63b8ff" stroke="#63b8ff" points="141.02,-75.63 130.53,-74.17 137.82,-81.86 141.02,-75.63"/>
</a>
</g>
</g>
</g>
</svg>

<g id="navigator" transform="translate(0 0)" fill="#404254">
  <rect fill="#f2f5e9" fill-opacity="0.5" stroke="#606060" stroke-width=".5" x="0" y="0" width="60" height="60"/>
  <use id="zoomplus" xlink:href="#zoomPlus" x="17" y="9" onmousedown="handleZoom(evt,'in')"/>
  <use id="zoomminus" xlink:href="#zoomMin" x="42" y="9" onmousedown="handleZoom(evt,'out')"/>
  <use id="reset" xlink:href="#resetDef" x="30" y="36" onmousedown="handleReset()"/>
   <use id="arrowup" xlink:href="#arrowUp" x="0" y="0" onmousedown="handlePan(0,-1)"/>
  <use id="arrowright" xlink:href="#arrowRight" x="0" y="0" onmousedown="handlePan(1,0)"/>
  <use id="arrowdown" xlink:href="#arrowDown" x="0" y="0" onmousedown="handlePan(0,1)"/>
  <use id="arrowleft" xlink:href="#arrowLeft" x="0" y="0" onmousedown="handlePan(-1,0)"/>
</g>
<svg viewBox="0 0 15 15" width="100%" height="30px" preserveAspectRatio="xMaxYMin meet">
 <g id="arrow_out" transform="scale(0.3 0.3)">
  <a xlink:href="ARInvaderFullBlastMenuWidget_8h__incl_org.svg" target="_base">
   <rect id="button" ry="5" rx="5" y="6" x="6" height="38" width="38"
        fill="#f2f5e9" fill-opacity="0.5" stroke="#606060" stroke-width="1.0"/>
   <path id="arrow"
     d="M 11.500037,31.436501 C 11.940474,20.09759 22.043105,11.32322 32.158766,21.979434 L 37.068811,17.246167 C 37.068811,17.246167 37.088388,32 37.088388,32 L 22.160133,31.978069 C 22.160133,31.978069 26.997745,27.140456 26.997745,27.140456 C 18.528582,18.264221 13.291696,25.230495 11.500037,31.436501 z"
     style="fill:#404040;"/>
  </a>
 </g>
</svg>

<style type='text/css'>
<![CDATA[
[data-mouse-over-selected='false'] { opacity: 0.7; }
[data-mouse-over-selected='true']  { opacity: 1.0; }
]]>
</style>
<script type="application/ecmascript"><![CDATA[
document.addEventListener('DOMContentLoaded', (event) => {
  highlightEdges();
  highlightAdjacentNodes();
});
]]></script>
</svg>
