<?xml version="1.0" encoding="UTF-8" standalone="no"?>
<!DOCTYPE svg PUBLIC "-//W3C//DTD SVG 1.1//EN"
 "http://www.w3.org/Graphics/SVG/1.1/DTD/svg11.dtd">
<!-- Generated by graphviz version 2.43.0 (0)
 -->
<!-- Title: ARInvaderSpicyTrackTypes.h Pages: 1 -->
<svg width="3237pt" height="192pt"
 viewBox="0.00 0.00 3237.00 192.00" xmlns="http://www.w3.org/2000/svg" xmlns:xlink="http://www.w3.org/1999/xlink">
<g id="graph0" class="graph" transform="scale(1 1) rotate(0) translate(4 188)">
<title>ARInvaderSpicyTrackTypes.h</title>
<!-- Node1 -->
<g id="Node000001" class="node">
<title>Node1</title>
<g id="a_Node000001"><a xlink:title="Shared Invader spicy&#45;track enums/structs for runtime + data authoring.">
<polygon fill="#999999" stroke="#666666" points="859,-184 704,-184 704,-165 859,-165 859,-184"/>
<text text-anchor="middle" x="781.5" y="-172" font-family="Helvetica,sans-Serif" font-size="10.00">ARInvaderSpicyTrackTypes.h</text>
</a>
</g>
</g>
<!-- Node2 -->
<g id="Node000002" class="node">
<title>Node2</title>
<g id="a_Node000002"><a xlink:href="ARGameModeBase_8h.html" target="_top" xlink:title="ARGameModeBase header for Alien Ramen.">
<polygon fill="white" stroke="#666666" points="2679,-129 2560,-129 2560,-110 2679,-110 2679,-129"/>
<text text-anchor="middle" x="2619.5" y="-117" font-family="Helvetica,sans-Serif" font-size="10.00">ARGameModeBase.h</text>
</a>
</g>
</g>
<!-- Node1&#45;&gt;Node2 -->
<g id="edge1_Node000001_Node000002" class="edge">
<title>Node1&#45;&gt;Node2</title>
<g id="a_edge1_Node000001_Node000002"><a xlink:title=" ">
<path fill="none" stroke="#63b8ff" d="M869.16,-170.97C1189.2,-161.74 2289.98,-130 2559.56,-122.23"/>
<polygon fill="#63b8ff" stroke="#63b8ff" points="868.91,-167.48 859.01,-171.26 869.11,-174.48 868.91,-167.48"/>
</a>
</g>
</g>
<!-- Node14 -->
<g id="Node000014" class="node">
<title>Node14</title>
<g id="a_Node000014"><a xlink:href="ARInvaderFullBlastMenuWidget_8h.html" target="_top" xlink:title="Base widget bridge for Invader full&#45;blast offer selection UI.">
<polygon fill="white" stroke="#666666" points="416,-129 237,-129 237,-110 416,-110 416,-129"/>
<text text-anchor="middle" x="326.5" y="-117" font-family="Helvetica,sans-Serif" font-size="10.00">ARInvaderFullBlastMenuWidget.h</text>
</a>
</g>
</g>
<!-- Node1&#45;&gt;Node14 -->
<g id="edge13_Node000001_Node000014" class="edge">
<title>Node1&#45;&gt;Node14</title>
<g id="a_edge13_Node000001_Node000014"><a xlink:title=" ">
<path fill="none" stroke="#63b8ff" d="M698.22,-163.8C612.84,-153.85 481.35,-138.54 399.8,-129.04"/>
<polygon fill="#63b8ff" stroke="#63b8ff" points="698.06,-167.3 708.4,-164.98 698.87,-160.35 698.06,-167.3"/>
</a>
</g>
</g>
<!-- Node17 -->
<g id="Node000017" class="node">
<title>Node17</title>
<g id="a_Node000017"><a xlink:href="ARInvaderGameState_8h.html" target="_top" xlink:title="ARInvaderGameState header for Alien Ramen.">
<polygon fill="white" stroke="#666666" points="966,-129 835,-129 835,-110 966,-110 966,-129"/>
<text text-anchor="middle" x="900.5" y="-117" font-family="Helvetica,sans-Serif" font-size="10.00">ARInvaderGameState.h</text>
</a>
</g>
</g>
<!-- Node1&#45;&gt;Node17 -->
<g id="edge16_Node000001_Node000017" class="edge">
<title>Node1&#45;&gt;Node17</title>
<g id="a_edge16_Node000001_Node000017"><a xlink:title=" ">
<path fill="none" stroke="#63b8ff" d="M809.8,-160.9C831.78,-151.11 861.68,-137.79 881.03,-129.17"/>
<polygon fill="#63b8ff" stroke="#63b8ff" points="808.33,-157.72 800.62,-164.98 811.18,-164.11 808.33,-157.72"/>
</a>
</g>
</g>
<!-- Node21 -->
<g id="Node000021" class="node">
<title>Node21</title>
<g id="a_Node000021"><a xlink:href="ARInvaderPlayerController_8h.html" target="_top" xlink:title="ARInvaderPlayerController header for Alien Ramen.">
<polygon fill="white" stroke="#666666" points="588.5,-129 434.5,-129 434.5,-110 588.5,-110 588.5,-129"/>
<text text-anchor="middle" x="511.5" y="-117" font-family="Helvetica,sans-Serif" font-size="10.00">ARInvaderPlayerController.h</text>
</a>
</g>
</g>
<!-- Node1&#45;&gt;Node21 -->
<g id="edge22_Node000001_Node000021" class="edge">
<title>Node1&#45;&gt;Node21</title>
<g id="a_edge22_Node000001_Node000021"><a xlink:title=" ">
<path fill="none" stroke="#63b8ff" d="M728.02,-163C677.41,-153.07 602.35,-138.33 555.22,-129.08"/>
<polygon fill="#63b8ff" stroke="#63b8ff" points="727.63,-166.49 738.12,-164.98 728.98,-159.62 727.63,-166.49"/>
</a>
</g>
</g>
<!-- Node22 -->
<g id="Node000022" class="node">
<title>Node22</title>
<g id="a_Node000022"><a xlink:href="ARInvaderSpicyTrackSettings_8h.html" target="_top" xlink:title="Project settings for Invader spicy&#45;track runtime tuning.">
<polygon fill="white" stroke="#666666" points="779,-129 612,-129 612,-110 779,-110 779,-129"/>
<text text-anchor="middle" x="695.5" y="-117" font-family="Helvetica,sans-Serif" font-size="10.00">ARInvaderSpicyTrackSettings.h</text>
</a>
</g>
</g>
<!-- Node1&#45;&gt;Node22 -->
<g id="edge25_Node000001_Node000022" class="edge">
<title>Node1&#45;&gt;Node22</title>
<g id="a_edge25_Node000001_Node000022"><a xlink:title=" ">
<path fill="none" stroke="#63b8ff" d="M759.1,-159.7C743.43,-150.04 722.99,-137.44 709.57,-129.17"/>
<polygon fill="#63b8ff" stroke="#63b8ff" points="757.33,-162.72 767.68,-164.98 761.01,-156.76 757.33,-162.72"/>
</a>
</g>
</g>
<!-- Node25 -->
<g id="Node000025" class="node">
<title>Node25</title>
<g id="a_Node000025"><a xlink:href="ARPlayerStateBase_8h.html" target="_top" xlink:title="ARPlayerStateBase header for Alien Ramen.">
<polygon fill="white" stroke="#666666" points="1624,-129 1505,-129 1505,-110 1624,-110 1624,-129"/>
<text text-anchor="middle" x="1564.5" y="-117" font-family="Helvetica,sans-Serif" font-size="10.00">ARPlayerStateBase.h</text>
</a>
</g>
</g>
<!-- Node1&#45;&gt;Node25 -->
<g id="edge31_Node000001_Node000025" class="edge">
<title>Node1&#45;&gt;Node25</title>
<g id="a_edge31_Node000001_Node000025"><a xlink:title=" ">
<path fill="none" stroke="#63b8ff" d="M869.42,-167.55C1030.27,-156.66 1368,-133.8 1504.93,-124.53"/>
<polygon fill="#63b8ff" stroke="#63b8ff" points="868.82,-164.08 859.08,-168.25 869.29,-171.07 868.82,-164.08"/>
</a>
</g>
</g>
<!-- Node3 -->
<g id="Node000003" class="node">
<title>Node3</title>
<g id="a_Node000003"><a xlink:href="ARDialogueSubsystem_8cpp_source.html" target="_top" xlink:title=" ">
<polygon fill="white" stroke="#666666" points="2460.5,-74 2312.5,-74 2312.5,-55 2460.5,-55 2460.5,-74"/>
<text text-anchor="middle" x="2386.5" y="-62" font-family="Helvetica,sans-Serif" font-size="10.00">ARDialogueSubsystem.cpp</text>
</a>
</g>
</g>
<!-- Node2&#45;&gt;Node3 -->
<g id="edge2_Node000002_Node000003" class="edge">
<title>Node2&#45;&gt;Node3</title>
<g id="a_edge2_Node000002_Node000003"><a xlink:title=" ">
<path fill="none" stroke="#63b8ff" d="M2572.25,-107.75C2528.59,-97.82 2464.56,-83.26 2424.23,-74.08"/>
<polygon fill="#63b8ff" stroke="#63b8ff" points="2571.54,-111.18 2582.06,-109.98 2573.09,-104.35 2571.54,-111.18"/>
</a>
</g>
</g>
<!-- Node4 -->
<g id="Node000004" class="node">
<title>Node4</title>
<g id="a_Node000004"><a xlink:href="ARGameModeBase_8cpp_source.html" target="_top" xlink:title=" ">
<polygon fill="white" stroke="#666666" points="2610,-74 2479,-74 2479,-55 2610,-55 2610,-74"/>
<text text-anchor="middle" x="2544.5" y="-62" font-family="Helvetica,sans-Serif" font-size="10.00">ARGameModeBase.cpp</text>
</a>
</g>
</g>
<!-- Node2&#45;&gt;Node4 -->
<g id="edge3_Node000002_Node000004" class="edge">
<title>Node2&#45;&gt;Node4</title>
<g id="a_edge3_Node000002_Node000004"><a xlink:title=" ">
<path fill="none" stroke="#63b8ff" d="M2599.19,-104.15C2585.64,-94.57 2568.26,-82.29 2556.77,-74.17"/>
<polygon fill="#63b8ff" stroke="#63b8ff" points="2597.26,-107.07 2607.45,-109.98 2601.3,-101.36 2597.26,-107.07"/>
</a>
</g>
</g>
<!-- Node5 -->
<g id="Node000005" class="node">
<title>Node5</title>
<g id="a_Node000005"><a xlink:href="ARInvaderGameMode_8h.html" target="_top" xlink:title="ARInvaderGameMode header for Alien Ramen.">
<polygon fill="white" stroke="#666666" points="2760.5,-74 2628.5,-74 2628.5,-55 2760.5,-55 2760.5,-74"/>
<text text-anchor="middle" x="2694.5" y="-62" font-family="Helvetica,sans-Serif" font-size="10.00">ARInvaderGameMode.h</text>
</a>
</g>
</g>
<!-- Node2&#45;&gt;Node5 -->
<g id="edge4_Node000002_Node000005" class="edge">
<title>Node2&#45;&gt;Node5</title>
<g id="a_edge4_Node000002_Node000005"><a xlink:title=" ">
<path fill="none" stroke="#63b8ff" d="M2639.81,-104.15C2653.36,-94.57 2670.74,-82.29 2682.23,-74.17"/>
<polygon fill="#63b8ff" stroke="#63b8ff" points="2637.7,-101.36 2631.55,-109.98 2641.74,-107.07 2637.7,-101.36"/>
</a>
</g>
</g>
<!-- Node7 -->
<g id="Node000007" class="node">
<title>Node7</title>
<g id="a_Node000007"><a xlink:href="ARLobbyGameMode_8h.html" target="_top" xlink:title="ARLobbyGameMode header for Alien Ramen.">
<polygon fill="white" stroke="#666666" points="2904,-74 2779,-74 2779,-55 2904,-55 2904,-74"/>
<text text-anchor="middle" x="2841.5" y="-62" font-family="Helvetica,sans-Serif" font-size="10.00">ARLobbyGameMode.h</text>
</a>
</g>
</g>
<!-- Node2&#45;&gt;Node7 -->
<g id="edge6_Node000002_Node000007" class="edge">
<title>Node2&#45;&gt;Node7</title>
<g id="a_edge6_Node000002_Node000007"><a xlink:title=" ">
<path fill="none" stroke="#63b8ff" d="M2665.04,-107.63C2706.63,-97.7 2767.28,-83.22 2805.55,-74.08"/>
<polygon fill="#63b8ff" stroke="#63b8ff" points="2664.08,-104.26 2655.17,-109.98 2665.71,-111.07 2664.08,-104.26"/>
</a>
</g>
</g>
<!-- Node9 -->
<g id="Node000009" class="node">
<title>Node9</title>
<g id="a_Node000009"><a xlink:href="ARPlayerController_8cpp_source.html" target="_top" xlink:title=" ">
<polygon fill="white" stroke="#666666" points="2112.5,-74 1984.5,-74 1984.5,-55 2112.5,-55 2112.5,-74"/>
<text text-anchor="middle" x="2048.5" y="-62" font-family="Helvetica,sans-Serif" font-size="10.00">ARPlayerController.cpp</text>
</a>
</g>
</g>
<!-- Node2&#45;&gt;Node9 -->
<g id="edge8_Node000002_Node000009" class="edge">
<title>Node2&#45;&gt;Node9</title>
<g id="a_edge8_Node000002_Node000009"><a xlink:title=" ">
<path fill="none" stroke="#63b8ff" d="M2549.45,-112.84C2453.01,-104.9 2273.96,-89.68 2121.5,-74 2118.58,-73.7 2115.6,-73.38 2112.58,-73.06"/>
<polygon fill="#63b8ff" stroke="#63b8ff" points="2549.4,-116.34 2559.66,-113.67 2549.98,-109.37 2549.4,-116.34"/>
</a>
</g>
</g>
<!-- Node10 -->
<g id="Node000010" class="node">
<title>Node10</title>
<g id="a_Node000010"><a xlink:href="ARScrapyardGameMode_8h.html" target="_top" xlink:title="ARScrapyardGameMode header for Alien Ramen.">
<polygon fill="white" stroke="#666666" points="3071.5,-74 2927.5,-74 2927.5,-55 3071.5,-55 3071.5,-74"/>
<text text-anchor="middle" x="2999.5" y="-62" font-family="Helvetica,sans-Serif" font-size="10.00">ARScrapyardGameMode.h</text>
</a>
</g>
</g>
<!-- Node2&#45;&gt;Node10 -->
<g id="edge9_Node000002_Node000010" class="edge">
<title>Node2&#45;&gt;Node10</title>
<g id="a_edge9_Node000002_Node000010"><a xlink:title=" ">
<path fill="none" stroke="#63b8ff" d="M2689.54,-108.73C2760.93,-98.77 2870.55,-83.49 2938.48,-74.01"/>
<polygon fill="#63b8ff" stroke="#63b8ff" points="2688.71,-105.31 2679.29,-110.16 2689.68,-112.25 2688.71,-105.31"/>
</a>
</g>
</g>
<!-- Node12 -->
<g id="Node000012" class="node">
<title>Node12</title>
<g id="a_Node000012"><a xlink:href="ARShopGameMode_8h.html" target="_top" xlink:title="ARShopGameMode header for Alien Ramen.">
<polygon fill="white" stroke="#666666" points="3218,-74 3099,-74 3099,-55 3218,-55 3218,-74"/>
<text text-anchor="middle" x="3158.5" y="-62" font-family="Helvetica,sans-Serif" font-size="10.00">ARShopGameMode.h</text>
</a>
</g>
</g>
<!-- Node2&#45;&gt;Node12 -->
<g id="edge11_Node000002_Node000012" class="edge">
<title>Node2&#45;&gt;Node12</title>
<g id="a_edge11_Node000002_Node000012"><a xlink:title=" ">
<path fill="none" stroke="#63b8ff" d="M2689.32,-112.03C2779.64,-103.6 2941.87,-88.24 3080.5,-74 3086.46,-73.39 3092.68,-72.73 3098.89,-72.07"/>
<polygon fill="#63b8ff" stroke="#63b8ff" points="2688.83,-108.56 2679.2,-112.97 2689.48,-115.53 2688.83,-108.56"/>
</a>
</g>
</g>
<!-- Node6 -->
<g id="Node000006" class="node">
<title>Node6</title>
<g id="a_Node000006"><a xlink:href="ARInvaderGameMode_8cpp_source.html" target="_top" xlink:title=" ">
<polygon fill="white" stroke="#666666" points="2752,-19 2609,-19 2609,0 2752,0 2752,-19"/>
<text text-anchor="middle" x="2680.5" y="-7" font-family="Helvetica,sans-Serif" font-size="10.00">ARInvaderGameMode.cpp</text>
</a>
</g>
</g>
<!-- Node5&#45;&gt;Node6 -->
<g id="edge5_Node000005_Node000006" class="edge">
<title>Node5&#45;&gt;Node6</title>
<g id="a_edge5_Node000005_Node000006"><a xlink:title=" ">
<path fill="none" stroke="#63b8ff" d="M2689.6,-44.95C2687.28,-36.15 2684.61,-26.06 2682.77,-19.09"/>
<polygon fill="#63b8ff" stroke="#63b8ff" points="2686.25,-45.97 2692.19,-54.75 2693.02,-44.19 2686.25,-45.97"/>
</a>
</g>
</g>
<!-- Node8 -->
<g id="Node000008" class="node">
<title>Node8</title>
<g id="a_Node000008"><a xlink:href="ARLobbyGameMode_8cpp_source.html" target="_top" xlink:title=" ">
<polygon fill="white" stroke="#666666" points="2906.5,-19 2770.5,-19 2770.5,0 2906.5,0 2906.5,-19"/>
<text text-anchor="middle" x="2838.5" y="-7" font-family="Helvetica,sans-Serif" font-size="10.00">ARLobbyGameMode.cpp</text>
</a>
</g>
</g>
<!-- Node7&#45;&gt;Node8 -->
<g id="edge7_Node000007_Node000008" class="edge">
<title>Node7&#45;&gt;Node8</title>
<g id="a_edge7_Node000007_Node000008"><a xlink:title=" ">
<path fill="none" stroke="#63b8ff" d="M2840.43,-44.66C2839.94,-35.93 2839.38,-25.99 2838.99,-19.09"/>
<polygon fill="#63b8ff" stroke="#63b8ff" points="2836.94,-44.96 2841,-54.75 2843.93,-44.57 2836.94,-44.96"/>
</a>
</g>
</g>
<!-- Node11 -->
<g id="Node000011" class="node">
<title>Node11</title>
<g id="a_Node000011"><a xlink:href="ARScrapyardGameMode_8cpp_source.html" target="_top" xlink:title=" ">
<polygon fill="white" stroke="#666666" points="3080,-19 2925,-19 2925,0 3080,0 3080,-19"/>
<text text-anchor="middle" x="3002.5" y="-7" font-family="Helvetica,sans-Serif" font-size="10.00">ARScrapyardGameMode.cpp</text>
</a>
</g>
</g>
<!-- Node10&#45;&gt;Node11 -->
<g id="edge10_Node000010_Node000011" class="edge">
<title>Node10&#45;&gt;Node11</title>
<g id="a_edge10_Node000010_Node000011"><a xlink:title=" ">
<path fill="none" stroke="#63b8ff" d="M3000.57,-44.66C3001.06,-35.93 3001.62,-25.99 3002.01,-19.09"/>
<polygon fill="#63b8ff" stroke="#63b8ff" points="2997.07,-44.57 3000,-54.75 3004.06,-44.96 2997.07,-44.57"/>
</a>
</g>
</g>
<!-- Node13 -->
<g id="Node000013" class="node">
<title>Node13</title>
<g id="a_Node000013"><a xlink:href="ARShopGameMode_8cpp_source.html" target="_top" xlink:title=" ">
<polygon fill="white" stroke="#666666" points="3229,-19 3098,-19 3098,0 3229,0 3229,-19"/>
<text text-anchor="middle" x="3163.5" y="-7" font-family="Helvetica,sans-Serif" font-size="10.00">ARShopGameMode.cpp</text>
</a>
</g>
</g>
<!-- Node12&#45;&gt;Node13 -->
<g id="edge12_Node000012_Node000013" class="edge">
<title>Node12&#45;&gt;Node13</title>
<g id="a_edge12_Node000012_Node000013"><a xlink:title=" ">
<path fill="none" stroke="#63b8ff" d="M3160.28,-44.66C3161.1,-35.93 3162.04,-25.99 3162.69,-19.09"/>
<polygon fill="#63b8ff" stroke="#63b8ff" points="3156.78,-44.46 3159.33,-54.75 3163.75,-45.12 3156.78,-44.46"/>
</a>
</g>
</g>
<!-- Node15 -->
<g id="Node000015" class="node">
<title>Node15</title>
<g id="a_Node000015"><a xlink:href="ARInvaderFullBlastMenuWidget_8cpp_source.html" target="_top" xlink:title=" ">
<polygon fill="white" stroke="#666666" points="191,-74 0,-74 0,-55 191,-55 191,-74"/>
<text text-anchor="middle" x="95.5" y="-62" font-family="Helvetica,sans-Serif" font-size="10.00">ARInvaderFullBlastMenuWidget.cpp</text>
</a>
</g>
</g>
<!-- Node14&#45;&gt;Node15 -->
<g id="edge14_Node000014_Node000015" class="edge">
<title>Node14&#45;&gt;Node15</title>
<g id="a_edge14_Node000014_Node000015"><a xlink:title=" ">
<path fill="none" stroke="#63b8ff" d="M279.39,-107.69C236.11,-97.76 172.81,-83.24 132.91,-74.08"/>
<polygon fill="#63b8ff" stroke="#63b8ff" points="278.86,-111.16 289.39,-109.98 280.42,-104.34 278.86,-111.16"/>
</a>
</g>
</g>
<!-- Node16 -->
<g id="Node000016" class="node">
<title>Node16</title>
<g id="a_Node000016"><a xlink:href="ARInvaderPlayerController_8cpp_source.html" target="_top" xlink:title=" ">
<polygon fill="white" stroke="#666666" points="551,-74 386,-74 386,-55 551,-55 551,-74"/>
<text text-anchor="middle" x="468.5" y="-62" font-family="Helvetica,sans-Serif" font-size="10.00">ARInvaderPlayerController.cpp</text>
</a>
</g>
</g>
<!-- Node14&#45;&gt;Node16 -->
<g id="edge15_Node000014_Node000016" class="edge">
<title>Node14&#45;&gt;Node16</title>
<g id="a_edge15_Node000014_Node000016"><a xlink:title=" ">
<path fill="none" stroke="#63b8ff" d="M358.86,-106.42C385.21,-96.59 421.76,-82.95 445.27,-74.17"/>
<polygon fill="#63b8ff" stroke="#63b8ff" points="357.46,-103.21 349.31,-109.98 359.91,-109.77 357.46,-103.21"/>
</a>
</g>
</g>
<!-- Node17&#45;&gt;Node9 -->
<g id="edge20_Node000017_Node000009" class="edge">
<title>Node17&#45;&gt;Node9</title>
<g id="a_edge20_Node000017_Node000009"><a xlink:title=" ">
<path fill="none" stroke="#63b8ff" d="M976.22,-117.3C1151.98,-114.11 1601.22,-103.5 1975.5,-74 1978.43,-73.77 1981.41,-73.51 1984.43,-73.23"/>
<polygon fill="#63b8ff" stroke="#63b8ff" points="975.98,-113.81 966.04,-117.49 976.1,-120.81 975.98,-113.81"/>
</a>
</g>
</g>
<!-- Node17&#45;&gt;Node16 -->
<g id="edge19_Node000017_Node000016" class="edge">
<title>Node17&#45;&gt;Node16</title>
<g id="a_edge19_Node000017_Node000016"><a xlink:title=" ">
<path fill="none" stroke="#63b8ff" d="M824.76,-109.21C743.77,-99.27 616.44,-83.65 537.96,-74.02"/>
<polygon fill="#63b8ff" stroke="#63b8ff" points="824.54,-112.71 834.89,-110.45 825.39,-105.76 824.54,-112.71"/>
</a>
</g>
</g>
<!-- Node18 -->
<g id="Node000018" class="node">
<title>Node18</title>
<g id="a_Node000018"><a xlink:href="AREnemyBase_8cpp_source.html" target="_top" xlink:title=" ">
<polygon fill="white" stroke="#666666" points="1023.5,-74 915.5,-74 915.5,-55 1023.5,-55 1023.5,-74"/>
<text text-anchor="middle" x="969.5" y="-62" font-family="Helvetica,sans-Serif" font-size="10.00">AREnemyBase.cpp</text>
</a>
</g>
</g>
<!-- Node17&#45;&gt;Node18 -->
<g id="edge17_Node000017_Node000018" class="edge">
<title>Node17&#45;&gt;Node18</title>
<g id="a_edge17_Node000017_Node000018"><a xlink:title=" ">
<path fill="none" stroke="#63b8ff" d="M919.54,-103.88C931.96,-94.34 947.74,-82.21 958.21,-74.17"/>
<polygon fill="#63b8ff" stroke="#63b8ff" points="917.38,-101.12 911.59,-109.98 921.65,-106.67 917.38,-101.12"/>
</a>
</g>
</g>
<!-- Node19 -->
<g id="Node000019" class="node">
<title>Node19</title>
<g id="a_Node000019"><a xlink:href="ARInvaderGameState_8cpp_source.html" target="_top" xlink:title=" ">
<polygon fill="white" stroke="#666666" points="1183.5,-74 1041.5,-74 1041.5,-55 1183.5,-55 1183.5,-74"/>
<text text-anchor="middle" x="1112.5" y="-62" font-family="Helvetica,sans-Serif" font-size="10.00">ARInvaderGameState.cpp</text>
</a>
</g>
</g>
<!-- Node17&#45;&gt;Node19 -->
<g id="edge18_Node000017_Node000019" class="edge">
<title>Node17&#45;&gt;Node19</title>
<g id="a_edge18_Node000017_Node000019"><a xlink:title=" ">
<path fill="none" stroke="#63b8ff" d="M944.5,-107.5C984.19,-97.58 1041.78,-83.18 1078.17,-74.08"/>
<polygon fill="#63b8ff" stroke="#63b8ff" points="943.41,-104.16 934.56,-109.98 945.11,-110.95 943.41,-104.16"/>
</a>
</g>
</g>
<!-- Node20 -->
<g id="Node000020" class="node">
<title>Node20</title>
<g id="a_Node000020"><a xlink:href="ARPlayerStateBase_8cpp_source.html" target="_top" xlink:title=" ">
<polygon fill="white" stroke="#666666" points="897,-74 766,-74 766,-55 897,-55 897,-74"/>
<text text-anchor="middle" x="831.5" y="-62" font-family="Helvetica,sans-Serif" font-size="10.00">ARPlayerStateBase.cpp</text>
</a>
</g>
</g>
<!-- Node17&#45;&gt;Node20 -->
<g id="edge21_Node000017_Node000020" class="edge">
<title>Node17&#45;&gt;Node20</title>
<g id="a_edge21_Node000017_Node000020"><a xlink:title=" ">
<path fill="none" stroke="#63b8ff" d="M881.46,-103.88C869.04,-94.34 853.26,-82.21 842.79,-74.17"/>
<polygon fill="#63b8ff" stroke="#63b8ff" points="879.35,-106.67 889.41,-109.98 883.62,-101.12 879.35,-106.67"/>
</a>
</g>
</g>
<!-- Node21&#45;&gt;Node15 -->
<g id="edge23_Node000021_Node000015" class="edge">
<title>Node21&#45;&gt;Node15</title>
<g id="a_edge23_Node000021_Node000015"><a xlink:title=" ">
<path fill="none" stroke="#63b8ff" d="M434.4,-108.68C356.32,-98.73 236.77,-83.5 162.52,-74.04"/>
<polygon fill="#63b8ff" stroke="#63b8ff" points="434.3,-112.19 444.66,-109.98 435.18,-105.25 434.3,-112.19"/>
</a>
</g>
</g>
<!-- Node21&#45;&gt;Node16 -->
<g id="edge24_Node000021_Node000016" class="edge">
<title>Node21&#45;&gt;Node16</title>
<g id="a_edge24_Node000021_Node000016"><a xlink:title=" ">
<path fill="none" stroke="#63b8ff" d="M498.08,-101.96C490.59,-92.72 481.56,-81.6 475.47,-74.09"/>
<polygon fill="#63b8ff" stroke="#63b8ff" points="495.38,-104.19 504.4,-109.75 500.82,-99.78 495.38,-104.19"/>
</a>
</g>
</g>
<!-- Node22&#45;&gt;Node16 -->
<g id="edge28_Node000022_Node000016" class="edge">
<title>Node22&#45;&gt;Node16</title>
<g id="a_edge28_Node000022_Node000016"><a xlink:title=" ">
<path fill="none" stroke="#63b8ff" d="M649.2,-107.69C606.67,-97.76 544.47,-83.24 505.26,-74.08"/>
<polygon fill="#63b8ff" stroke="#63b8ff" points="648.49,-111.12 659.03,-109.98 650.09,-104.3 648.49,-111.12"/>
</a>
</g>
</g>
<!-- Node22&#45;&gt;Node19 -->
<g id="edge27_Node000022_Node000019" class="edge">
<title>Node22&#45;&gt;Node19</title>
<g id="a_edge27_Node000022_Node000019"><a xlink:title=" ">
<path fill="none" stroke="#63b8ff" d="M772.78,-108.68C851.05,-98.73 970.89,-83.5 1045.32,-74.04"/>
<polygon fill="#63b8ff" stroke="#63b8ff" points="771.98,-105.25 762.5,-109.98 772.86,-112.2 771.98,-105.25"/>
</a>
</g>
</g>
<!-- Node22&#45;&gt;Node20 -->
<g id="edge30_Node000022_Node000020" class="edge">
<title>Node22&#45;&gt;Node20</title>
<g id="a_edge30_Node000022_Node000020"><a xlink:title=" ">
<path fill="none" stroke="#63b8ff" d="M726.83,-106.29C752.04,-96.47 786.83,-82.91 809.25,-74.17"/>
<polygon fill="#63b8ff" stroke="#63b8ff" points="725.4,-103.09 717.35,-109.98 727.94,-109.61 725.4,-103.09"/>
</a>
</g>
</g>
<!-- Node23 -->
<g id="Node000023" class="node">
<title>Node23</title>
<g id="a_Node000023"><a xlink:href="AREnemyAuthoringPanel_8cpp_source.html" target="_top" xlink:title=" ">
<polygon fill="white" stroke="#666666" points="367.5,-74 209.5,-74 209.5,-55 367.5,-55 367.5,-74"/>
<text text-anchor="middle" x="288.5" y="-62" font-family="Helvetica,sans-Serif" font-size="10.00">AREnemyAuthoringPanel.cpp</text>
</a>
</g>
</g>
<!-- Node22&#45;&gt;Node23 -->
<g id="edge26_Node000022_Node000023" class="edge">
<title>Node22&#45;&gt;Node23</title>
<g id="a_edge26_Node000022_Node000023"><a xlink:title=" ">
<path fill="none" stroke="#63b8ff" d="M620.07,-108.68C543.68,-98.73 426.72,-83.5 354.07,-74.04"/>
<polygon fill="#63b8ff" stroke="#63b8ff" points="619.74,-112.16 630.11,-109.98 620.64,-105.22 619.74,-112.16"/>
</a>
</g>
</g>
<!-- Node24 -->
<g id="Node000024" class="node">
<title>Node24</title>
<g id="a_Node000024"><a xlink:href="ARInvaderSpicyTrackSettings_8cpp_source.html" target="_top" xlink:title=" ">
<polygon fill="white" stroke="#666666" points="748,-74 569,-74 569,-55 748,-55 748,-74"/>
<text text-anchor="middle" x="658.5" y="-62" font-family="Helvetica,sans-Serif" font-size="10.00">ARInvaderSpicyTrackSettings.cpp</text>
</a>
</g>
</g>
<!-- Node22&#45;&gt;Node24 -->
<g id="edge29_Node000022_Node000024" class="edge">
<title>Node22&#45;&gt;Node24</title>
<g id="a_edge29_Node000022_Node000024"><a xlink:title=" ">
<path fill="none" stroke="#63b8ff" d="M683.55,-101.39C677.19,-92.27 669.63,-81.45 664.5,-74.09"/>
<polygon fill="#63b8ff" stroke="#63b8ff" points="680.8,-103.55 689.39,-109.75 686.54,-99.55 680.8,-103.55"/>
</a>
</g>
</g>
<!-- Node25&#45;&gt;Node3 -->
<g id="edge32_Node000025_Node000003" class="edge">
<title>Node25&#45;&gt;Node3</title>
<g id="a_edge32_Node000025_Node000003"><a xlink:title=" ">
<path fill="none" stroke="#63b8ff" d="M1634.75,-115.25C1766.16,-108.96 2058.09,-93.95 2303.5,-74 2306.39,-73.77 2309.33,-73.52 2312.3,-73.25"/>
<polygon fill="#63b8ff" stroke="#63b8ff" points="1634.25,-111.77 1624.43,-115.74 1634.58,-118.76 1634.25,-111.77"/>
</a>
</g>
</g>
<!-- Node25&#45;&gt;Node4 -->
<g id="edge33_Node000025_Node000004" class="edge">
<title>Node25&#45;&gt;Node4</title>
<g id="a_edge33_Node000025_Node000004"><a xlink:title=" ">
<path fill="none" stroke="#63b8ff" d="M1634.27,-116.58C1786.26,-112.08 2158.55,-99.24 2469.5,-74 2472.5,-73.76 2475.57,-73.49 2478.67,-73.2"/>
<polygon fill="#63b8ff" stroke="#63b8ff" points="1634.04,-113.09 1624.15,-116.88 1634.25,-120.09 1634.04,-113.09"/>
</a>
</g>
</g>
<!-- Node25&#45;&gt;Node9 -->
<g id="edge39_Node000025_Node000009" class="edge">
<title>Node25&#45;&gt;Node9</title>
<g id="a_edge39_Node000025_Node000009"><a xlink:title=" ">
<path fill="none" stroke="#63b8ff" d="M1634.24,-111.12C1716.02,-102.43 1855.63,-87.47 1975.5,-74 1978.42,-73.67 1981.4,-73.33 1984.41,-72.99"/>
<polygon fill="#63b8ff" stroke="#63b8ff" points="1633.65,-107.67 1624.07,-112.2 1634.39,-114.63 1633.65,-107.67"/>
</a>
</g>
</g>
<!-- Node25&#45;&gt;Node16 -->
<g id="edge37_Node000025_Node000016" class="edge">
<title>Node25&#45;&gt;Node16</title>
<g id="a_edge37_Node000025_Node000016"><a xlink:title=" ">
<path fill="none" stroke="#63b8ff" d="M1494.57,-116.58C1330.91,-111.83 910.29,-98.14 559.5,-74 556.81,-73.81 554.07,-73.62 551.31,-73.41"/>
<polygon fill="#63b8ff" stroke="#63b8ff" points="1494.88,-120.09 1504.97,-116.88 1495.08,-113.09 1494.88,-120.09"/>
</a>
</g>
</g>
<!-- Node25&#45;&gt;Node19 -->
<g id="edge36_Node000025_Node000019" class="edge">
<title>Node25&#45;&gt;Node19</title>
<g id="a_edge36_Node000025_Node000019"><a xlink:title=" ">
<path fill="none" stroke="#63b8ff" d="M1494.94,-110.34C1410.51,-100.44 1268.91,-83.84 1183.74,-73.85"/>
<polygon fill="#63b8ff" stroke="#63b8ff" points="1494.6,-113.83 1504.94,-111.52 1495.42,-106.88 1494.6,-113.83"/>
</a>
</g>
</g>
<!-- Node25&#45;&gt;Node20 -->
<g id="edge40_Node000025_Node000020" class="edge">
<title>Node25&#45;&gt;Node20</title>
<g id="a_edge40_Node000025_Node000020"><a xlink:title=" ">
<path fill="none" stroke="#63b8ff" d="M1494.84,-114.83C1374.65,-108.26 1120.63,-93.36 906.5,-74 903.5,-73.73 900.43,-73.44 897.33,-73.13"/>
<polygon fill="#63b8ff" stroke="#63b8ff" points="1494.82,-118.33 1505,-115.38 1495.2,-111.34 1494.82,-118.33"/>
</a>
</g>
</g>
<!-- Node26 -->
<g id="Node000026" class="node">
<title>Node26</title>
<g id="a_Node000026"><a xlink:href="ARGameStateBase_8cpp_source.html" target="_top" xlink:title=" ">
<polygon fill="white" stroke="#666666" points="1768,-74 1639,-74 1639,-55 1768,-55 1768,-74"/>
<text text-anchor="middle" x="1703.5" y="-62" font-family="Helvetica,sans-Serif" font-size="10.00">ARGameStateBase.cpp</text>
</a>
</g>
</g>
<!-- Node25&#45;&gt;Node26 -->
<g id="edge34_Node000025_Node000026" class="edge">
<title>Node25&#45;&gt;Node26</title>
<g id="a_edge34_Node000025_Node000026"><a xlink:title=" ">
<path fill="none" stroke="#63b8ff" d="M1596.18,-106.42C1621.97,-96.59 1657.74,-82.95 1680.76,-74.17"/>
<polygon fill="#63b8ff" stroke="#63b8ff" points="1594.93,-103.15 1586.83,-109.98 1597.42,-109.69 1594.93,-103.15"/>
</a>
</g>
</g>
<!-- Node27 -->
<g id="Node000027" class="node">
<title>Node27</title>
<g id="a_Node000027"><a xlink:href="ARInvaderDirectorSubsystem_8cpp_source.html" target="_top" xlink:title=" ">
<polygon fill="white" stroke="#666666" points="1966.5,-74 1786.5,-74 1786.5,-55 1966.5,-55 1966.5,-74"/>
<text text-anchor="middle" x="1876.5" y="-62" font-family="Helvetica,sans-Serif" font-size="10.00">ARInvaderDirectorSubsystem.cpp</text>
</a>
</g>
</g>
<!-- Node25&#45;&gt;Node27 -->
<g id="edge35_Node000025_Node000027" class="edge">
<title>Node25&#45;&gt;Node27</title>
<g id="a_edge35_Node000025_Node000027"><a xlink:title=" ">
<path fill="none" stroke="#63b8ff" d="M1624.49,-108.31C1683.07,-98.36 1771.23,-83.38 1826.24,-74.04"/>
<polygon fill="#63b8ff" stroke="#63b8ff" points="1623.9,-104.86 1614.63,-109.98 1625.07,-111.76 1623.9,-104.86"/>
</a>
</g>
</g>
<!-- Node28 -->
<g id="Node000028" class="node">
<title>Node28</title>
<g id="a_Node000028"><a xlink:href="ARPlayerCharacterInvader_8cpp_source.html" target="_top" xlink:title=" ">
<polygon fill="white" stroke="#666666" points="2294.5,-74 2130.5,-74 2130.5,-55 2294.5,-55 2294.5,-74"/>
<text text-anchor="middle" x="2212.5" y="-62" font-family="Helvetica,sans-Serif" font-size="10.00">ARPlayerCharacterInvader.cpp</text>
</a>
</g>
</g>
<!-- Node25&#45;&gt;Node28 -->
<g id="edge38_Node000025_Node000028" class="edge">
<title>Node25&#45;&gt;Node28</title>
<g id="a_edge38_Node000025_Node000028"><a xlink:title=" ">
<path fill="none" stroke="#63b8ff" d="M1634.49,-113.21C1740.07,-105.16 1946.36,-89.18 2121.5,-74 2124.35,-73.75 2127.24,-73.5 2130.16,-73.24"/>
<polygon fill="#63b8ff" stroke="#63b8ff" points="1633.99,-109.74 1624.28,-113.99 1634.52,-116.72 1633.99,-109.74"/>
</a>
</g>
</g>
<!-- Node29 -->
<g id="Node000029" class="node">
<title>Node29</title>
<g id="a_Node000029"><a xlink:href="ARSaveSubsystem_8cpp_source.html" target="_top" xlink:title=" ">
<polygon fill="white" stroke="#666666" points="1329.5,-74 1201.5,-74 1201.5,-55 1329.5,-55 1329.5,-74"/>
<text text-anchor="middle" x="1265.5" y="-62" font-family="Helvetica,sans-Serif" font-size="10.00">ARSaveSubsystem.cpp</text>
</a>
</g>
</g>
<!-- Node25&#45;&gt;Node29 -->
<g id="edge41_Node000025_Node000029" class="edge">
<title>Node25&#45;&gt;Node29</title>
<g id="a_edge41_Node000025_Node000029"><a xlink:title=" ">
<path fill="none" stroke="#63b8ff" d="M1506.33,-108.19C1450.27,-98.25 1366.44,-83.39 1313.92,-74.08"/>
<polygon fill="#63b8ff" stroke="#63b8ff" points="1506,-111.69 1516.46,-109.98 1507.22,-104.79 1506,-111.69"/>
</a>
</g>
</g>
<!-- Node30 -->
<g id="Node000030" class="node">
<title>Node30</title>
<g id="a_Node000030"><a xlink:href="ARSessionSubsystem_8cpp_source.html" target="_top" xlink:title=" ">
<polygon fill="white" stroke="#666666" points="1489.5,-74 1347.5,-74 1347.5,-55 1489.5,-55 1489.5,-74"/>
<text text-anchor="middle" x="1418.5" y="-62" font-family="Helvetica,sans-Serif" font-size="10.00">ARSessionSubsystem.cpp</text>
</a>
</g>
</g>
<!-- Node25&#45;&gt;Node30 -->
<g id="edge42_Node000025_Node000030" class="edge">
<title>Node25&#45;&gt;Node30</title>
<g id="a_edge42_Node000025_Node000030"><a xlink:title=" ">
<path fill="none" stroke="#63b8ff" d="M1531.58,-106.55C1504.47,-96.71 1466.67,-82.98 1442.38,-74.17"/>
<polygon fill="#63b8ff" stroke="#63b8ff" points="1530.45,-109.86 1541.04,-109.98 1532.84,-103.28 1530.45,-109.86"/>
</a>
</g>
</g>
<!-- Node31 -->
<g id="Node000031" class="node">
<title>Node31</title>
<g id="a_Node000031"><a xlink:href="ARTestingSettings_8h_source.html" target="_top" xlink:title=" ">
<polygon fill="white" stroke="#666666" points="1621,-74 1508,-74 1508,-55 1621,-55 1621,-74"/>
<text text-anchor="middle" x="1564.5" y="-62" font-family="Helvetica,sans-Serif" font-size="10.00">ARTestingSettings.h</text>
</a>
</g>
</g>
<!-- Node25&#45;&gt;Node31 -->
<g id="edge43_Node000025_Node000031" class="edge">
<title>Node25&#45;&gt;Node31</title>
<g id="a_edge43_Node000025_Node000031"><a xlink:title=" ">
<path fill="none" stroke="#63b8ff" d="M1564.5,-99.66C1564.5,-90.93 1564.5,-80.99 1564.5,-74.09"/>
<polygon fill="#63b8ff" stroke="#63b8ff" points="1561,-99.75 1564.5,-109.75 1568,-99.75 1561,-99.75"/>
</a>
</g>
</g>
<!-- Node32 -->
<g id="Node000032" class="node">
<title>Node32</title>
<g id="a_Node000032"><a xlink:href="ARTestingSettings_8cpp_source.html" target="_top" xlink:title=" ">
<polygon fill="white" stroke="#666666" points="1626.5,-19 1502.5,-19 1502.5,0 1626.5,0 1626.5,-19"/>
<text text-anchor="middle" x="1564.5" y="-7" font-family="Helvetica,sans-Serif" font-size="10.00">ARTestingSettings.cpp</text>
</a>
</g>
</g>
<!-- Node31&#45;&gt;Node32 -->
<g id="edge44_Node000031_Node000032" class="edge">
<title>Node31&#45;&gt;Node32</title>
<g id="a_edge44_Node000031_Node000032"><a xlink:title=" ">
<path fill="none" stroke="#63b8ff" d="M1564.5,-44.66C1564.5,-35.93 1564.5,-25.99 1564.5,-19.09"/>
<polygon fill="#63b8ff" stroke="#63b8ff" points="1561,-44.75 1564.5,-54.75 1568,-44.75 1561,-44.75"/>
</a>
</g>
</g>
</g>
</svg>
