<?xml version="1.0" encoding="UTF-8" standalone="no"?>
<!DOCTYPE svg PUBLIC "-//W3C//DTD SVG 1.1//EN"
 "http://www.w3.org/Graphics/SVG/1.1/DTD/svg11.dtd">
<!-- Generated by graphviz version 2.43.0 (0)
 -->
<!-- Title: ARInvaderPlayerController.h Pages: 1 -->
<svg width="1790pt" height="302pt"
 viewBox="0.00 0.00 1789.50 302.00" xmlns="http://www.w3.org/2000/svg" xmlns:xlink="http://www.w3.org/1999/xlink">
<g id="graph0" class="graph" transform="scale(1 1) rotate(0) translate(4 298)">
<title>ARInvaderPlayerController.h</title>
<!-- Node1 -->
<g id="Node000001" class="node">
<title>Node1</title>
<g id="a_Node000001"><a xlink:title="ARInvaderPlayerController header for Alien Ramen.">
<polygon fill="#999999" stroke="#666666" points="719,-294 565,-294 565,-275 719,-275 719,-294"/>
<text text-anchor="middle" x="642" y="-282" font-family="Helvetica,sans-Serif" font-size="10.00">ARInvaderPlayerController.h</text>
</a>
</g>
</g>
<!-- Node2 -->
<g id="Node000002" class="node">
<title>Node2</title>
<g id="a_Node000002"><a xlink:title=" ">
<polygon fill="#e0e0e0" stroke="#999999" points="718,-19 630,-19 630,0 718,0 718,-19"/>
<text text-anchor="middle" x="674" y="-7" font-family="Helvetica,sans-Serif" font-size="10.00">CoreMinimal.h</text>
</a>
</g>
</g>
<!-- Node1&#45;&gt;Node2 -->
<g id="edge1_Node000001_Node000002" class="edge">
<title>Node1&#45;&gt;Node2</title>
<g id="a_edge1_Node000001_Node000002"><a xlink:title=" ">
<path fill="none" stroke="#63b8ff" d="M565,-278.47C394.69,-266.32 1,-232.1 1,-175.5 1,-175.5 1,-175.5 1,-118.5 1,-89.04 -3.01,-73.39 20,-55 31.68,-45.67 464.99,-21.67 619.75,-13.37"/>
<polygon fill="#63b8ff" stroke="#63b8ff" points="620.17,-16.85 629.97,-12.82 619.8,-9.86 620.17,-16.85"/>
</a>
</g>
</g>
<!-- Node3 -->
<g id="Node000003" class="node">
<title>Node3</title>
<g id="a_Node000003"><a xlink:href="ARPlayerController_8h.html" target="_top" xlink:title="ARPlayerController header for Alien Ramen.">
<polygon fill="white" stroke="#666666" points="910.5,-239 793.5,-239 793.5,-220 910.5,-220 910.5,-239"/>
<text text-anchor="middle" x="852" y="-227" font-family="Helvetica,sans-Serif" font-size="10.00">ARPlayerController.h</text>
</a>
</g>
</g>
<!-- Node1&#45;&gt;Node3 -->
<g id="edge2_Node000001_Node000003" class="edge">
<title>Node1&#45;&gt;Node3</title>
<g id="a_edge2_Node000001_Node000003"><a xlink:title=" ">
<path fill="none" stroke="#63b8ff" d="M675.74,-274.98C711.69,-265.91 768.73,-251.52 808.13,-241.57"/>
<polygon fill="#63b8ff" stroke="#63b8ff" points="809.16,-244.92 818,-239.08 807.45,-238.14 809.16,-244.92"/>
</a>
</g>
</g>
<!-- Node17 -->
<g id="Node000017" class="node">
<title>Node17</title>
<g id="a_Node000017"><a xlink:href="ARInvaderSpicyTrackTypes_8h.html" target="_top" xlink:title="Shared Invader spicy&#45;track enums/structs for runtime + data authoring.">
<polygon fill="white" stroke="#666666" points="314.5,-184 159.5,-184 159.5,-165 314.5,-165 314.5,-184"/>
<text text-anchor="middle" x="237" y="-172" font-family="Helvetica,sans-Serif" font-size="10.00">ARInvaderSpicyTrackTypes.h</text>
</a>
</g>
</g>
<!-- Node1&#45;&gt;Node17 -->
<g id="edge23_Node000001_Node000017" class="edge">
<title>Node1&#45;&gt;Node17</title>
<g id="a_edge23_Node000001_Node000017"><a xlink:title=" ">
<path fill="none" stroke="#63b8ff" d="M609.89,-274.94C537.22,-255.56 360.23,-208.36 279.01,-186.7"/>
<polygon fill="#63b8ff" stroke="#63b8ff" points="279.69,-183.26 269.13,-184.07 277.89,-190.02 279.69,-183.26"/>
</a>
</g>
</g>
<!-- Node29 -->
<g id="Node000029" class="node">
<title>Node29</title>
<g id="a_Node000029"><a xlink:title=" ">
<polygon fill="#e0e0e0" stroke="#999999" points="1135,-239 929,-239 929,-220 1135,-220 1135,-239"/>
<text text-anchor="middle" x="1032" y="-227" font-family="Helvetica,sans-Serif" font-size="10.00">ARInvaderPlayerController.generated.h</text>
</a>
</g>
</g>
<!-- Node1&#45;&gt;Node29 -->
<g id="edge48_Node000001_Node000029" class="edge">
<title>Node1&#45;&gt;Node29</title>
<g id="a_edge48_Node000001_Node000029"><a xlink:title=" ">
<path fill="none" stroke="#63b8ff" d="M704.66,-274.98C774.07,-265.55 885.83,-250.36 959.1,-240.41"/>
<polygon fill="#63b8ff" stroke="#63b8ff" points="959.74,-243.85 969.18,-239.04 958.8,-236.92 959.74,-243.85"/>
</a>
</g>
</g>
<!-- Node3&#45;&gt;Node2 -->
<g id="edge3_Node000003_Node000002" class="edge">
<title>Node3&#45;&gt;Node2</title>
<g id="a_edge3_Node000003_Node000002"><a xlink:title=" ">
<path fill="none" stroke="#63b8ff" d="M910.77,-220.82C954.28,-213.79 1008.3,-201.75 1022,-184 1027.16,-177.32 1026.47,-172.16 1022,-165 1015.91,-155.24 846.16,-79.4 836,-74 821.06,-66.05 818.41,-62.01 803,-55 773.88,-41.74 739.58,-30.08 713.67,-22.03"/>
<polygon fill="#63b8ff" stroke="#63b8ff" points="714.41,-18.6 703.83,-19.02 712.37,-25.29 714.41,-18.6"/>
</a>
</g>
</g>
<!-- Node4 -->
<g id="Node000004" class="node">
<title>Node4</title>
<g id="a_Node000004"><a xlink:title=" ">
<polygon fill="#e0e0e0" stroke="#999999" points="1406.5,-19 1267.5,-19 1267.5,0 1406.5,0 1406.5,-19"/>
<text text-anchor="middle" x="1337" y="-7" font-family="Helvetica,sans-Serif" font-size="10.00">GameplayTagContainer.h</text>
</a>
</g>
</g>
<!-- Node3&#45;&gt;Node4 -->
<g id="edge4_Node000003_Node000004" class="edge">
<title>Node3&#45;&gt;Node4</title>
<g id="a_edge4_Node000003_Node000004"><a xlink:title=" ">
<path fill="none" stroke="#63b8ff" d="M910.8,-221.07C1075.94,-200.08 1532.67,-141.06 1543,-129 1590.92,-73.08 1471.89,-37.53 1395.41,-21.13"/>
<polygon fill="#63b8ff" stroke="#63b8ff" points="1395.89,-17.66 1385.38,-19.04 1394.45,-24.51 1395.89,-17.66"/>
</a>
</g>
</g>
<!-- Node5 -->
<g id="Node000005" class="node">
<title>Node5</title>
<g id="a_Node000005"><a xlink:title=" ">
<polygon fill="#e0e0e0" stroke="#999999" points="1781.5,-184 1590.5,-184 1590.5,-165 1781.5,-165 1781.5,-184"/>
<text text-anchor="middle" x="1686" y="-172" font-family="Helvetica,sans-Serif" font-size="10.00">GameFramework/GameStateBase.h</text>
</a>
</g>
</g>
<!-- Node3&#45;&gt;Node5 -->
<g id="edge5_Node000003_Node000005" class="edge">
<title>Node3&#45;&gt;Node5</title>
<g id="a_edge5_Node000003_Node000005"><a xlink:title=" ">
<path fill="none" stroke="#63b8ff" d="M910.58,-220.92C913.77,-220.58 916.92,-220.28 920,-220 1210.83,-193.88 1284.65,-203.25 1576,-184 1577.32,-183.91 1578.65,-183.82 1579.98,-183.73"/>
<polygon fill="#63b8ff" stroke="#63b8ff" points="1580.59,-187.2 1590.32,-183.02 1580.1,-180.22 1580.59,-187.2"/>
</a>
</g>
</g>
<!-- Node6 -->
<g id="Node000006" class="node">
<title>Node6</title>
<g id="a_Node000006"><a xlink:title=" ">
<polygon fill="#e0e0e0" stroke="#999999" points="523.5,-184 332.5,-184 332.5,-165 523.5,-165 523.5,-184"/>
<text text-anchor="middle" x="428" y="-172" font-family="Helvetica,sans-Serif" font-size="10.00">GameFramework/PlayerController.h</text>
</a>
</g>
</g>
<!-- Node3&#45;&gt;Node6 -->
<g id="edge6_Node000003_Node000006" class="edge">
<title>Node3&#45;&gt;Node6</title>
<g id="a_edge6_Node000003_Node000006"><a xlink:title=" ">
<path fill="none" stroke="#63b8ff" d="M793.49,-221.19C718.8,-211.85 589.32,-195.66 506.22,-185.28"/>
<polygon fill="#63b8ff" stroke="#63b8ff" points="506.43,-181.78 496.07,-184.01 505.56,-188.72 506.43,-181.78"/>
</a>
</g>
</g>
<!-- Node7 -->
<g id="Node000007" class="node">
<title>Node7</title>
<g id="a_Node000007"><a xlink:href="ARDialogueTypes_8h.html" target="_top" xlink:title="Shared dialogue and NPC runtime types for Alien Ramen.">
<polygon fill="white" stroke="#666666" points="1179,-184 1069,-184 1069,-165 1179,-165 1179,-184"/>
<text text-anchor="middle" x="1124" y="-172" font-family="Helvetica,sans-Serif" font-size="10.00">ARDialogueTypes.h</text>
</a>
</g>
</g>
<!-- Node3&#45;&gt;Node7 -->
<g id="edge7_Node000003_Node000007" class="edge">
<title>Node3&#45;&gt;Node7</title>
<g id="a_edge7_Node000003_Node000007"><a xlink:title=" ">
<path fill="none" stroke="#63b8ff" d="M895.71,-219.98C943.15,-210.74 1018.97,-195.97 1070.08,-186.01"/>
<polygon fill="#63b8ff" stroke="#63b8ff" points="1070.81,-189.43 1079.96,-184.08 1069.48,-182.56 1070.81,-189.43"/>
</a>
</g>
</g>
<!-- Node14 -->
<g id="Node000014" class="node">
<title>Node14</title>
<g id="a_Node000014"><a xlink:title=" ">
<polygon fill="#e0e0e0" stroke="#999999" points="710.5,-184 541.5,-184 541.5,-165 710.5,-165 710.5,-184"/>
<text text-anchor="middle" x="626" y="-172" font-family="Helvetica,sans-Serif" font-size="10.00">GameFramework/PlayerState.h</text>
</a>
</g>
</g>
<!-- Node3&#45;&gt;Node14 -->
<g id="edge20_Node000003_Node000014" class="edge">
<title>Node3&#45;&gt;Node14</title>
<g id="a_edge20_Node000003_Node000014"><a xlink:title=" ">
<path fill="none" stroke="#63b8ff" d="M815.69,-219.98C776.76,-210.86 714.85,-196.33 672.41,-186.38"/>
<polygon fill="#63b8ff" stroke="#63b8ff" points="673.13,-182.96 662.6,-184.08 671.54,-189.77 673.13,-182.96"/>
</a>
</g>
</g>
<!-- Node15 -->
<g id="Node000015" class="node">
<title>Node15</title>
<g id="a_Node000015"><a xlink:title=" ">
<polygon fill="#e0e0e0" stroke="#999999" points="825,-184 729,-184 729,-165 825,-165 825,-184"/>
<text text-anchor="middle" x="777" y="-172" font-family="Helvetica,sans-Serif" font-size="10.00">TimerManager.h</text>
</a>
</g>
</g>
<!-- Node3&#45;&gt;Node15 -->
<g id="edge21_Node000003_Node000015" class="edge">
<title>Node3&#45;&gt;Node15</title>
<g id="a_edge21_Node000003_Node000015"><a xlink:title=" ">
<path fill="none" stroke="#63b8ff" d="M839.95,-219.98C828.54,-211.92 811.17,-199.65 797.57,-190.03"/>
<polygon fill="#63b8ff" stroke="#63b8ff" points="799.46,-187.08 789.27,-184.17 795.42,-192.8 799.46,-187.08"/>
</a>
</g>
</g>
<!-- Node16 -->
<g id="Node000016" class="node">
<title>Node16</title>
<g id="a_Node000016"><a xlink:title=" ">
<polygon fill="#e0e0e0" stroke="#999999" points="1013,-184 843,-184 843,-165 1013,-165 1013,-184"/>
<text text-anchor="middle" x="928" y="-172" font-family="Helvetica,sans-Serif" font-size="10.00">ARPlayerController.generated.h</text>
</a>
</g>
</g>
<!-- Node3&#45;&gt;Node16 -->
<g id="edge22_Node000003_Node000016" class="edge">
<title>Node3&#45;&gt;Node16</title>
<g id="a_edge22_Node000003_Node000016"><a xlink:title=" ">
<path fill="none" stroke="#63b8ff" d="M864.21,-219.98C875.78,-211.92 893.38,-199.65 907.16,-190.03"/>
<polygon fill="#63b8ff" stroke="#63b8ff" points="909.37,-192.76 915.57,-184.17 905.37,-187.02 909.37,-192.76"/>
</a>
</g>
</g>
<!-- Node7&#45;&gt;Node2 -->
<g id="edge8_Node000007_Node000002" class="edge">
<title>Node7&#45;&gt;Node2</title>
<g id="a_edge8_Node000007_Node000002"><a xlink:title=" ">
<path fill="none" stroke="#63b8ff" d="M1100.64,-164.96C1056.07,-148.5 956.07,-110.77 874,-74 856.77,-66.28 853.64,-61.76 836,-55 798.98,-40.82 755.6,-29.15 723.05,-21.32"/>
<polygon fill="#63b8ff" stroke="#63b8ff" points="723.85,-17.92 713.31,-19.02 722.24,-24.73 723.85,-17.92"/>
</a>
</g>
</g>
<!-- Node7&#45;&gt;Node4 -->
<g id="edge10_Node000007_Node000004" class="edge">
<title>Node7&#45;&gt;Node4</title>
<g id="a_edge10_Node000007_Node000004"><a xlink:title=" ">
<path fill="none" stroke="#63b8ff" d="M1179.06,-168.17C1220.34,-162.55 1277.34,-151.26 1323,-129 1357.63,-112.12 1373.53,-108.83 1390,-74 1399.13,-54.7 1379.78,-36.4 1361.95,-24.45"/>
<polygon fill="#63b8ff" stroke="#63b8ff" points="1363.78,-21.47 1353.45,-19.11 1360.06,-27.4 1363.78,-21.47"/>
</a>
</g>
</g>
<!-- Node8 -->
<g id="Node000008" class="node">
<title>Node8</title>
<g id="a_Node000008"><a xlink:title=" ">
<polygon fill="#e0e0e0" stroke="#999999" points="794,-74 684,-74 684,-55 794,-55 794,-74"/>
<text text-anchor="middle" x="739" y="-62" font-family="Helvetica,sans-Serif" font-size="10.00">Engine/DataTable.h</text>
</a>
</g>
</g>
<!-- Node7&#45;&gt;Node8 -->
<g id="edge9_Node000007_Node000008" class="edge">
<title>Node7&#45;&gt;Node8</title>
<g id="a_edge9_Node000007_Node000008"><a xlink:title=" ">
<path fill="none" stroke="#63b8ff" d="M1068.72,-167.14C999.72,-158.78 885.93,-143.45 846,-129 813.09,-117.09 778.98,-94.82 758.37,-80.07"/>
<polygon fill="#63b8ff" stroke="#63b8ff" points="760.3,-77.15 750.16,-74.08 756.17,-82.8 760.3,-77.15"/>
</a>
</g>
</g>
<!-- Node9 -->
<g id="Node000009" class="node">
<title>Node9</title>
<g id="a_Node000009"><a xlink:href="ARPlayerTypes_8h.html" target="_top" xlink:title="Shared player&#45;facing enum types for Alien Ramen gameplay/save/runtime APIs.">
<polygon fill="white" stroke="#666666" points="1166,-74 1068,-74 1068,-55 1166,-55 1166,-74"/>
<text text-anchor="middle" x="1117" y="-62" font-family="Helvetica,sans-Serif" font-size="10.00">ARPlayerTypes.h</text>
</a>
</g>
</g>
<!-- Node7&#45;&gt;Node9 -->
<g id="edge11_Node000007_Node000009" class="edge">
<title>Node7&#45;&gt;Node9</title>
<g id="a_edge11_Node000007_Node000009"><a xlink:title=" ">
<path fill="none" stroke="#63b8ff" d="M1123.43,-164.66C1122.3,-147.17 1119.75,-107.8 1118.22,-84.27"/>
<polygon fill="#63b8ff" stroke="#63b8ff" points="1121.7,-83.91 1117.57,-74.16 1114.72,-84.36 1121.7,-83.91"/>
</a>
</g>
</g>
<!-- Node11 -->
<g id="Node000011" class="node">
<title>Node11</title>
<g id="a_Node000011"><a xlink:href="ARSaveTypes_8h.html" target="_top" xlink:title="ARSaveTypes header for Alien Ramen.">
<polygon fill="white" stroke="#666666" points="1313.5,-129 1222.5,-129 1222.5,-110 1313.5,-110 1313.5,-129"/>
<text text-anchor="middle" x="1268" y="-117" font-family="Helvetica,sans-Serif" font-size="10.00">ARSaveTypes.h</text>
</a>
</g>
</g>
<!-- Node7&#45;&gt;Node11 -->
<g id="edge14_Node000007_Node000011" class="edge">
<title>Node7&#45;&gt;Node11</title>
<g id="a_edge14_Node000007_Node000011"><a xlink:title=" ">
<path fill="none" stroke="#63b8ff" d="M1147.14,-164.98C1170.83,-156.27 1207.87,-142.63 1234.71,-132.75"/>
<polygon fill="#63b8ff" stroke="#63b8ff" points="1236.27,-135.91 1244.45,-129.17 1233.85,-129.34 1236.27,-135.91"/>
</a>
</g>
</g>
<!-- Node13 -->
<g id="Node000013" class="node">
<title>Node13</title>
<g id="a_Node000013"><a xlink:title=" ">
<polygon fill="#e0e0e0" stroke="#999999" points="1533.5,-129 1370.5,-129 1370.5,-110 1533.5,-110 1533.5,-129"/>
<text text-anchor="middle" x="1452" y="-117" font-family="Helvetica,sans-Serif" font-size="10.00">ARDialogueTypes.generated.h</text>
</a>
</g>
</g>
<!-- Node7&#45;&gt;Node13 -->
<g id="edge19_Node000007_Node000013" class="edge">
<title>Node7&#45;&gt;Node13</title>
<g id="a_edge19_Node000007_Node000013"><a xlink:title=" ">
<path fill="none" stroke="#63b8ff" d="M1176.7,-164.98C1234.6,-155.63 1327.53,-140.61 1389.17,-130.65"/>
<polygon fill="#63b8ff" stroke="#63b8ff" points="1389.85,-134.09 1399.16,-129.04 1388.73,-127.18 1389.85,-134.09"/>
</a>
</g>
</g>
<!-- Node9&#45;&gt;Node2 -->
<g id="edge12_Node000009_Node000002" class="edge">
<title>Node9&#45;&gt;Node2</title>
<g id="a_edge12_Node000009_Node000002"><a xlink:title=" ">
<path fill="none" stroke="#63b8ff" d="M1067.9,-57.63C984.34,-47.63 815.12,-27.38 728.21,-16.99"/>
<polygon fill="#63b8ff" stroke="#63b8ff" points="728.38,-13.48 718.03,-15.77 727.54,-20.43 728.38,-13.48"/>
</a>
</g>
</g>
<!-- Node10 -->
<g id="Node000010" class="node">
<title>Node10</title>
<g id="a_Node000010"><a xlink:title=" ">
<polygon fill="#e0e0e0" stroke="#999999" points="1193,-19 1043,-19 1043,0 1193,0 1193,-19"/>
<text text-anchor="middle" x="1118" y="-7" font-family="Helvetica,sans-Serif" font-size="10.00">ARPlayerTypes.generated.h</text>
</a>
</g>
</g>
<!-- Node9&#45;&gt;Node10 -->
<g id="edge13_Node000009_Node000010" class="edge">
<title>Node9&#45;&gt;Node10</title>
<g id="a_edge13_Node000009_Node000010"><a xlink:title=" ">
<path fill="none" stroke="#63b8ff" d="M1117.17,-54.75C1117.3,-47.8 1117.49,-37.85 1117.65,-29.13"/>
<polygon fill="#63b8ff" stroke="#63b8ff" points="1121.15,-29.15 1117.84,-19.09 1114.15,-29.02 1121.15,-29.15"/>
</a>
</g>
</g>
<!-- Node11&#45;&gt;Node2 -->
<g id="edge15_Node000011_Node000002" class="edge">
<title>Node11&#45;&gt;Node2</title>
<g id="a_edge15_Node000011_Node000002"><a xlink:title=" ">
<path fill="none" stroke="#63b8ff" d="M1222.3,-116.92C1154.51,-113.63 1023.83,-103.69 917,-74 896.87,-68.41 893.85,-61.52 874,-55 825.72,-39.13 769.02,-27.11 728.35,-19.59"/>
<polygon fill="#63b8ff" stroke="#63b8ff" points="728.84,-16.12 718.37,-17.78 727.59,-23.01 728.84,-16.12"/>
</a>
</g>
</g>
<!-- Node11&#45;&gt;Node4 -->
<g id="edge16_Node000011_Node000004" class="edge">
<title>Node11&#45;&gt;Node4</title>
<g id="a_edge16_Node000011_Node000004"><a xlink:title=" ">
<path fill="none" stroke="#63b8ff" d="M1313.52,-111.62C1336.03,-105.66 1361.27,-94.59 1375,-74 1385.77,-57.86 1370.61,-38.66 1356.36,-25.63"/>
<polygon fill="#63b8ff" stroke="#63b8ff" points="1358.59,-22.93 1348.71,-19.09 1354.04,-28.25 1358.59,-22.93"/>
</a>
</g>
</g>
<!-- Node11&#45;&gt;Node9 -->
<g id="edge17_Node000011_Node000009" class="edge">
<title>Node11&#45;&gt;Node9</title>
<g id="a_edge17_Node000011_Node000009"><a xlink:title=" ">
<path fill="none" stroke="#63b8ff" d="M1243.74,-109.98C1218.69,-101.19 1179.37,-87.39 1151.17,-77.49"/>
<polygon fill="#63b8ff" stroke="#63b8ff" points="1152.3,-74.18 1141.71,-74.17 1149.98,-80.78 1152.3,-74.18"/>
</a>
</g>
</g>
<!-- Node12 -->
<g id="Node000012" class="node">
<title>Node12</title>
<g id="a_Node000012"><a xlink:title=" ">
<polygon fill="#e0e0e0" stroke="#999999" points="1365.5,-74 1222.5,-74 1222.5,-55 1365.5,-55 1365.5,-74"/>
<text text-anchor="middle" x="1294" y="-62" font-family="Helvetica,sans-Serif" font-size="10.00">ARSaveTypes.generated.h</text>
</a>
</g>
</g>
<!-- Node11&#45;&gt;Node12 -->
<g id="edge18_Node000011_Node000012" class="edge">
<title>Node11&#45;&gt;Node12</title>
<g id="a_edge18_Node000011_Node000012"><a xlink:title=" ">
<path fill="none" stroke="#63b8ff" d="M1272.3,-109.75C1275.82,-102.57 1280.92,-92.18 1285.29,-83.27"/>
<polygon fill="#63b8ff" stroke="#63b8ff" points="1288.53,-84.61 1289.79,-74.09 1282.24,-81.53 1288.53,-84.61"/>
</a>
</g>
</g>
<!-- Node17&#45;&gt;Node2 -->
<g id="edge24_Node000017_Node000002" class="edge">
<title>Node17&#45;&gt;Node2</title>
<g id="a_edge24_Node000017_Node000002"><a xlink:title=" ">
<path fill="none" stroke="#63b8ff" d="M225.16,-164.95C197.88,-144.27 135.36,-90.64 168,-55 183.1,-38.51 491.82,-20.22 619.48,-13.33"/>
<polygon fill="#63b8ff" stroke="#63b8ff" points="620.01,-16.81 629.81,-12.78 619.64,-9.82 620.01,-16.81"/>
</a>
</g>
</g>
<!-- Node17&#45;&gt;Node4 -->
<g id="edge29_Node000017_Node000004" class="edge">
<title>Node17&#45;&gt;Node4</title>
<g id="a_edge29_Node000017_Node000004"><a xlink:title=" ">
<path fill="none" stroke="#63b8ff" d="M314.82,-165.77C317.58,-165.51 320.32,-165.25 323,-165 702.18,-129.66 809.94,-182.42 1175,-74 1193.49,-68.51 1196.25,-62.51 1214,-55 1242.86,-42.79 1276.35,-30.81 1301.09,-22.37"/>
<polygon fill="#63b8ff" stroke="#63b8ff" points="1302.43,-25.61 1310.78,-19.09 1300.18,-18.98 1302.43,-25.61"/>
</a>
</g>
</g>
<!-- Node17&#45;&gt;Node8 -->
<g id="edge28_Node000017_Node000008" class="edge">
<title>Node17&#45;&gt;Node8</title>
<g id="a_edge28_Node000017_Node000008"><a xlink:title=" ">
<path fill="none" stroke="#63b8ff" d="M314.81,-165.67C416.05,-155.27 583.35,-137.24 611,-129 650.22,-117.32 692.03,-94.33 716.82,-79.46"/>
<polygon fill="#63b8ff" stroke="#63b8ff" points="718.73,-82.39 725.45,-74.19 715.09,-76.41 718.73,-82.39"/>
</a>
</g>
</g>
<!-- Node17&#45;&gt;Node9 -->
<g id="edge46_Node000017_Node000009" class="edge">
<title>Node17&#45;&gt;Node9</title>
<g id="a_edge46_Node000017_Node000009"><a xlink:title=" ">
<path fill="none" stroke="#63b8ff" d="M314.53,-165.76C397.4,-157.34 532.6,-143.18 649,-129 796.19,-111.07 968.97,-86.78 1057.73,-74.07"/>
<polygon fill="#63b8ff" stroke="#63b8ff" points="1058.47,-77.5 1067.87,-72.62 1057.48,-70.57 1058.47,-77.5"/>
</a>
</g>
</g>
<!-- Node18 -->
<g id="Node000018" class="node">
<title>Node18</title>
<g id="a_Node000018"><a xlink:href="ARColorTypes_8h.html" target="_top" xlink:title="Shared gameplay color types used across enemies/players/rewards.">
<polygon fill="white" stroke="#666666" points="121,-74 29,-74 29,-55 121,-55 121,-74"/>
<text text-anchor="middle" x="75" y="-62" font-family="Helvetica,sans-Serif" font-size="10.00">ARColorTypes.h</text>
</a>
</g>
</g>
<!-- Node17&#45;&gt;Node18 -->
<g id="edge25_Node000017_Node000018" class="edge">
<title>Node17&#45;&gt;Node18</title>
<g id="a_edge25_Node000017_Node000018"><a xlink:title=" ">
<path fill="none" stroke="#63b8ff" d="M209.47,-164.9C188.01,-157.41 158.08,-145.22 135,-129 116.48,-115.98 99.15,-96.55 87.93,-82.61"/>
<polygon fill="#63b8ff" stroke="#63b8ff" points="90.4,-80.09 81.48,-74.37 84.89,-84.41 90.4,-80.09"/>
</a>
</g>
</g>
<!-- Node20 -->
<g id="Node000020" class="node">
<title>Node20</title>
<g id="a_Node000020"><a xlink:title=" ">
<polygon fill="#e0e0e0" stroke="#999999" points="308.5,-74 177.5,-74 177.5,-55 308.5,-55 308.5,-74"/>
<text text-anchor="middle" x="243" y="-62" font-family="Helvetica,sans-Serif" font-size="10.00">UObject/SoftObjectPtr.h</text>
</a>
</g>
</g>
<!-- Node17&#45;&gt;Node20 -->
<g id="edge30_Node000017_Node000020" class="edge">
<title>Node17&#45;&gt;Node20</title>
<g id="a_edge30_Node000017_Node000020"><a xlink:title=" ">
<path fill="none" stroke="#63b8ff" d="M237.5,-164.66C238.47,-147.17 240.65,-107.8 241.96,-84.27"/>
<polygon fill="#63b8ff" stroke="#63b8ff" points="245.46,-84.34 242.52,-74.16 238.47,-83.95 245.46,-84.34"/>
</a>
</g>
</g>
<!-- Node21 -->
<g id="Node000021" class="node">
<title>Node21</title>
<g id="a_Node000021"><a xlink:href="ARInvaderTypes_8h.html" target="_top" xlink:title="ARInvaderTypes header for Alien Ramen.">
<polygon fill="white" stroke="#666666" points="602,-129 498,-129 498,-110 602,-110 602,-129"/>
<text text-anchor="middle" x="550" y="-117" font-family="Helvetica,sans-Serif" font-size="10.00">ARInvaderTypes.h</text>
</a>
</g>
</g>
<!-- Node17&#45;&gt;Node21 -->
<g id="edge31_Node000017_Node000021" class="edge">
<title>Node17&#45;&gt;Node21</title>
<g id="a_edge31_Node000017_Node000021"><a xlink:title=" ">
<path fill="none" stroke="#63b8ff" d="M287.29,-164.98C342.43,-155.65 430.86,-140.67 489.68,-130.71"/>
<polygon fill="#63b8ff" stroke="#63b8ff" points="490.31,-134.16 499.58,-129.04 489.14,-127.26 490.31,-134.16"/>
</a>
</g>
</g>
<!-- Node28 -->
<g id="Node000028" class="node">
<title>Node28</title>
<g id="a_Node000028"><a xlink:title=" ">
<polygon fill="#e0e0e0" stroke="#999999" points="473,-129 265,-129 265,-110 473,-110 473,-129"/>
<text text-anchor="middle" x="369" y="-117" font-family="Helvetica,sans-Serif" font-size="10.00">ARInvaderSpicyTrackTypes.generated.h</text>
</a>
</g>
</g>
<!-- Node17&#45;&gt;Node28 -->
<g id="edge47_Node000017_Node000028" class="edge">
<title>Node17&#45;&gt;Node28</title>
<g id="a_edge47_Node000017_Node000028"><a xlink:title=" ">
<path fill="none" stroke="#63b8ff" d="M258.21,-164.98C279.73,-156.34 313.29,-142.87 337.83,-133.02"/>
<polygon fill="#63b8ff" stroke="#63b8ff" points="339.43,-136.14 347.41,-129.17 336.83,-129.65 339.43,-136.14"/>
</a>
</g>
</g>
<!-- Node18&#45;&gt;Node2 -->
<g id="edge26_Node000018_Node000002" class="edge">
<title>Node18&#45;&gt;Node2</title>
<g id="a_edge26_Node000018_Node000002"><a xlink:title=" ">
<path fill="none" stroke="#63b8ff" d="M121.16,-56.68C125.83,-56.08 130.51,-55.5 135,-55 311.91,-35.18 522.42,-20.31 619.72,-13.93"/>
<polygon fill="#63b8ff" stroke="#63b8ff" points="620.15,-17.41 629.9,-13.27 619.7,-10.42 620.15,-17.41"/>
</a>
</g>
</g>
<!-- Node19 -->
<g id="Node000019" class="node">
<title>Node19</title>
<g id="a_Node000019"><a xlink:title=" ">
<polygon fill="#e0e0e0" stroke="#999999" points="147.5,-19 2.5,-19 2.5,0 147.5,0 147.5,-19"/>
<text text-anchor="middle" x="75" y="-7" font-family="Helvetica,sans-Serif" font-size="10.00">ARColorTypes.generated.h</text>
</a>
</g>
</g>
<!-- Node18&#45;&gt;Node19 -->
<g id="edge27_Node000018_Node000019" class="edge">
<title>Node18&#45;&gt;Node19</title>
<g id="a_edge27_Node000018_Node000019"><a xlink:title=" ">
<path fill="none" stroke="#63b8ff" d="M75,-54.75C75,-47.8 75,-37.85 75,-29.13"/>
<polygon fill="#63b8ff" stroke="#63b8ff" points="78.5,-29.09 75,-19.09 71.5,-29.09 78.5,-29.09"/>
</a>
</g>
</g>
<!-- Node21&#45;&gt;Node2 -->
<g id="edge32_Node000021_Node000002" class="edge">
<title>Node21&#45;&gt;Node2</title>
<g id="a_edge32_Node000021_Node000002"><a xlink:title=" ">
<path fill="none" stroke="#63b8ff" d="M575.59,-109.89C594.3,-102.61 619.39,-90.68 637,-74 650.44,-61.28 660.53,-42.59 666.75,-28.78"/>
<polygon fill="#63b8ff" stroke="#63b8ff" points="670.07,-29.92 670.74,-19.35 663.62,-27.19 670.07,-29.92"/>
</a>
</g>
</g>
<!-- Node21&#45;&gt;Node4 -->
<g id="edge37_Node000021_Node000004" class="edge">
<title>Node21&#45;&gt;Node4</title>
<g id="a_edge37_Node000021_Node000004"><a xlink:title=" ">
<path fill="none" stroke="#63b8ff" d="M602.34,-115.99C708.04,-110.51 943.52,-96.19 1021,-74 1039.16,-68.8 1041.03,-60.78 1059,-55 1123.94,-34.11 1200.7,-22.77 1257.09,-16.78"/>
<polygon fill="#63b8ff" stroke="#63b8ff" points="1257.79,-20.23 1267.38,-15.72 1257.07,-13.26 1257.79,-20.23"/>
</a>
</g>
</g>
<!-- Node21&#45;&gt;Node8 -->
<g id="edge38_Node000021_Node000008" class="edge">
<title>Node21&#45;&gt;Node8</title>
<g id="a_edge38_Node000021_Node000008"><a xlink:title=" ">
<path fill="none" stroke="#63b8ff" d="M580.37,-109.98C612.38,-101.01 662.97,-86.82 698.39,-76.89"/>
<polygon fill="#63b8ff" stroke="#63b8ff" points="699.72,-80.15 708.4,-74.08 697.83,-73.41 699.72,-80.15"/>
</a>
</g>
</g>
<!-- Node21&#45;&gt;Node18 -->
<g id="edge33_Node000021_Node000018" class="edge">
<title>Node21&#45;&gt;Node18</title>
<g id="a_edge33_Node000021_Node000018"><a xlink:title=" ">
<path fill="none" stroke="#63b8ff" d="M497.67,-111.88C492.38,-111.23 487.09,-110.6 482,-110 356.84,-95.34 209.84,-79.64 131.27,-71.37"/>
<polygon fill="#63b8ff" stroke="#63b8ff" points="131.42,-67.87 121.11,-70.31 130.69,-74.83 131.42,-67.87"/>
</a>
</g>
</g>
<!-- Node21&#45;&gt;Node20 -->
<g id="edge39_Node000021_Node000020" class="edge">
<title>Node21&#45;&gt;Node20</title>
<g id="a_edge39_Node000021_Node000020"><a xlink:title=" ">
<path fill="none" stroke="#63b8ff" d="M500.68,-109.98C446.71,-100.67 360.22,-85.74 302.53,-75.78"/>
<polygon fill="#63b8ff" stroke="#63b8ff" points="302.91,-72.29 292.46,-74.04 301.72,-79.19 302.91,-72.29"/>
</a>
</g>
</g>
<!-- Node22 -->
<g id="Node000022" class="node">
<title>Node22</title>
<g id="a_Node000022"><a xlink:href="ARInvaderDropTypes_8h.html" target="_top" xlink:title="Shared invader drop type surface.">
<polygon fill="white" stroke="#666666" points="453.5,-74 326.5,-74 326.5,-55 453.5,-55 453.5,-74"/>
<text text-anchor="middle" x="390" y="-62" font-family="Helvetica,sans-Serif" font-size="10.00">ARInvaderDropTypes.h</text>
</a>
</g>
</g>
<!-- Node21&#45;&gt;Node22 -->
<g id="edge34_Node000021_Node000022" class="edge">
<title>Node21&#45;&gt;Node22</title>
<g id="a_edge34_Node000021_Node000022"><a xlink:title=" ">
<path fill="none" stroke="#63b8ff" d="M524.3,-109.98C497.55,-101.13 455.48,-87.19 425.55,-77.28"/>
<polygon fill="#63b8ff" stroke="#63b8ff" points="426.51,-73.9 415.91,-74.08 424.3,-80.55 426.51,-73.9"/>
</a>
</g>
</g>
<!-- Node24 -->
<g id="Node000024" class="node">
<title>Node24</title>
<g id="a_Node000024"><a xlink:href="ARAbilitySet_8h.html" target="_top" xlink:title="ARAbilitySet header for Alien Ramen.">
<polygon fill="white" stroke="#666666" points="1012,-74 926,-74 926,-55 1012,-55 1012,-74"/>
<text text-anchor="middle" x="969" y="-62" font-family="Helvetica,sans-Serif" font-size="10.00">ARAbilitySet.h</text>
</a>
</g>
</g>
<!-- Node21&#45;&gt;Node24 -->
<g id="edge40_Node000021_Node000024" class="edge">
<title>Node21&#45;&gt;Node24</title>
<g id="a_edge40_Node000021_Node000024"><a xlink:title=" ">
<path fill="none" stroke="#63b8ff" d="M602.22,-111.89C682.48,-101.74 835.32,-82.41 916.03,-72.2"/>
<polygon fill="#63b8ff" stroke="#63b8ff" points="916.5,-75.67 925.98,-70.94 915.62,-68.73 916.5,-75.67"/>
</a>
</g>
</g>
<!-- Node27 -->
<g id="Node000027" class="node">
<title>Node27</title>
<g id="a_Node000027"><a xlink:title=" ">
<polygon fill="#e0e0e0" stroke="#999999" points="628,-74 472,-74 472,-55 628,-55 628,-74"/>
<text text-anchor="middle" x="550" y="-62" font-family="Helvetica,sans-Serif" font-size="10.00">ARInvaderTypes.generated.h</text>
</a>
</g>
</g>
<!-- Node21&#45;&gt;Node27 -->
<g id="edge45_Node000021_Node000027" class="edge">
<title>Node21&#45;&gt;Node27</title>
<g id="a_edge45_Node000021_Node000027"><a xlink:title=" ">
<path fill="none" stroke="#63b8ff" d="M550,-109.75C550,-102.8 550,-92.85 550,-84.13"/>
<polygon fill="#63b8ff" stroke="#63b8ff" points="553.5,-84.09 550,-74.09 546.5,-84.09 553.5,-84.09"/>
</a>
</g>
</g>
<!-- Node22&#45;&gt;Node2 -->
<g id="edge35_Node000022_Node000002" class="edge">
<title>Node22&#45;&gt;Node2</title>
<g id="a_edge35_Node000022_Node000002"><a xlink:title=" ">
<path fill="none" stroke="#63b8ff" d="M435.63,-54.98C485.86,-45.61 566.56,-30.55 619.93,-20.59"/>
<polygon fill="#63b8ff" stroke="#63b8ff" points="620.7,-24.01 629.89,-18.73 619.42,-17.13 620.7,-24.01"/>
</a>
</g>
</g>
<!-- Node23 -->
<g id="Node000023" class="node">
<title>Node23</title>
<g id="a_Node000023"><a xlink:title=" ">
<polygon fill="#e0e0e0" stroke="#999999" points="479.5,-19 300.5,-19 300.5,0 479.5,0 479.5,-19"/>
<text text-anchor="middle" x="390" y="-7" font-family="Helvetica,sans-Serif" font-size="10.00">ARInvaderDropTypes.generated.h</text>
</a>
</g>
</g>
<!-- Node22&#45;&gt;Node23 -->
<g id="edge36_Node000022_Node000023" class="edge">
<title>Node22&#45;&gt;Node23</title>
<g id="a_edge36_Node000022_Node000023"><a xlink:title=" ">
<path fill="none" stroke="#63b8ff" d="M390,-54.75C390,-47.8 390,-37.85 390,-29.13"/>
<polygon fill="#63b8ff" stroke="#63b8ff" points="393.5,-29.09 390,-19.09 386.5,-29.09 393.5,-29.09"/>
</a>
</g>
</g>
<!-- Node24&#45;&gt;Node2 -->
<g id="edge41_Node000024_Node000002" class="edge">
<title>Node24&#45;&gt;Node2</title>
<g id="a_edge41_Node000024_Node000002"><a xlink:title=" ">
<path fill="none" stroke="#63b8ff" d="M925.79,-55.74C873.41,-46.32 785.08,-30.46 728.19,-20.24"/>
<polygon fill="#63b8ff" stroke="#63b8ff" points="728.76,-16.78 718.3,-18.46 727.52,-23.67 728.76,-16.78"/>
</a>
</g>
</g>
<!-- Node24&#45;&gt;Node4 -->
<g id="edge43_Node000024_Node000004" class="edge">
<title>Node24&#45;&gt;Node4</title>
<g id="a_edge43_Node000024_Node000004"><a xlink:title=" ">
<path fill="none" stroke="#63b8ff" d="M1012.26,-57.02C1016.9,-56.34 1021.55,-55.65 1026,-55 1108.57,-42.94 1203.52,-29.4 1266.56,-20.46"/>
<polygon fill="#63b8ff" stroke="#63b8ff" points="1267.38,-23.88 1276.79,-19.01 1266.4,-16.95 1267.38,-23.88"/>
</a>
</g>
</g>
<!-- Node25 -->
<g id="Node000025" class="node">
<title>Node25</title>
<g id="a_Node000025"><a xlink:title=" ">
<polygon fill="#e0e0e0" stroke="#999999" points="1025,-19 913,-19 913,0 1025,0 1025,-19"/>
<text text-anchor="middle" x="969" y="-7" font-family="Helvetica,sans-Serif" font-size="10.00">Engine/DataAsset.h</text>
</a>
</g>
</g>
<!-- Node24&#45;&gt;Node25 -->
<g id="edge42_Node000024_Node000025" class="edge">
<title>Node24&#45;&gt;Node25</title>
<g id="a_edge42_Node000024_Node000025"><a xlink:title=" ">
<path fill="none" stroke="#63b8ff" d="M969,-54.75C969,-47.8 969,-37.85 969,-29.13"/>
<polygon fill="#63b8ff" stroke="#63b8ff" points="972.5,-29.09 969,-19.09 965.5,-29.09 972.5,-29.09"/>
</a>
</g>
</g>
<!-- Node26 -->
<g id="Node000026" class="node">
<title>Node26</title>
<g id="a_Node000026"><a xlink:title=" ">
<polygon fill="#e0e0e0" stroke="#999999" points="894.5,-19 755.5,-19 755.5,0 894.5,0 894.5,-19"/>
<text text-anchor="middle" x="825" y="-7" font-family="Helvetica,sans-Serif" font-size="10.00">ARAbilitySet.generated.h</text>
</a>
</g>
</g>
<!-- Node24&#45;&gt;Node26 -->
<g id="edge44_Node000024_Node000026" class="edge">
<title>Node24&#45;&gt;Node26</title>
<g id="a_edge44_Node000024_Node000026"><a xlink:title=" ">
<path fill="none" stroke="#63b8ff" d="M945.87,-54.98C922.18,-46.27 885.13,-32.63 858.3,-22.75"/>
<polygon fill="#63b8ff" stroke="#63b8ff" points="859.15,-19.34 848.56,-19.17 856.74,-25.91 859.15,-19.34"/>
</a>
</g>
</g>
</g>
</svg>
