<?xml version="1.0" encoding="UTF-8" standalone="no"?>
<!DOCTYPE svg PUBLIC "-//W3C//DTD SVG 1.1//EN"
 "http://www.w3.org/Graphics/SVG/1.1/DTD/svg11.dtd">
<!-- Generated by graphviz version 2.43.0 (0)
 -->
<!-- Title: ARInvaderSpicyTrackSettings.h Pages: 1 -->
<!--zoomable 247 -->

<svg id="main" version="1.1" xmlns="http://www.w3.org/2000/svg" xmlns:xlink="http://www.w3.org/1999/xlink" xml:space="preserve" onload="init(evt)">
<style type="text/css"><![CDATA[
.node, .edge {opacity: 0.7;}
.node.selected, .edge.selected {opacity: 1;}
.edge:hover path { stroke: red; }
.edge:hover polygon { stroke: red; fill: red; }
]]></style>

<defs>
  <circle id="rim" cx="0" cy="0" r="7"/>
  <circle id="rim2" cx="0" cy="0" r="3.5"/>
  <g id="zoomPlus">
    <use xlink:href="#rim" fill="#404040"><set attributeName="fill" to="#808080" begin="zoomplus.mouseover" end="zoomplus.mouseout"/></use>
    <path d="M-4,0h8M0,-4v8" fill="none" stroke="white" stroke-width="1.5" pointer-events="none"/>
  </g>
  <g id="zoomMin">
    <use xlink:href="#rim" fill="#404040"><set attributeName="fill" to="#808080" begin="zoomminus.mouseover" end="zoomminus.mouseout"/></use>
    <path d="M-4,0h8" fill="none" stroke="white" stroke-width="1.5" pointer-events="none"/>
  </g>
  <g id="arrowUp" transform="translate(30 24)">
    <use xlink:href="#rim"/>
    <path pointer-events="none" fill="none" stroke="white" stroke-width="1.5" d="M0,-3.0v7 M-2.5,-0.5L0,-3.0L2.5,-0.5"/>
  </g>
  <g id="arrowRight" transform="rotate(90) translate(36 -43)">
    <use xlink:href="#rim"/>
    <path pointer-events="none" fill="none" stroke="white" stroke-width="1.5" d="M0,-3.0v7 M-2.5,-0.5L0,-3.0L2.5,-0.5"/>
  </g>
  <g id="arrowDown" transform="rotate(180) translate(-30 -48)">
    <use xlink:href="#rim"/>
    <path pointer-events="none" fill="none" stroke="white" stroke-width="1.5" d="M0,-3.0v7 M-2.5,-0.5L0,-3.0L2.5,-0.5"/>
  </g>
  <g id="arrowLeft" transform="rotate(270) translate(-36 17)">
    <use xlink:href="#rim"/>
    <path pointer-events="none" fill="none" stroke="white" stroke-width="1.5" d="M0,-3.0v7 M-2.5,-0.5L0,-3.0L2.5,-0.5"/>
  </g>
  <g id="resetDef">
    <use xlink:href="#rim2" fill="#404040"><set attributeName="fill" to="#808080" begin="reset.mouseover" end="reset.mouseout"/></use>
  </g>
</defs>
<script type="application/ecmascript">
var viewWidth = 1671;
var viewHeight = 247;
var sectionId = 'dynsection-0';
</script>
<script type="application/ecmascript" xlink:href="svg.min.js"/>
<svg id="graph" class="graph">
<g id="viewport">
<title>ARInvaderSpicyTrackSettings.h</title>
<!-- Node1 -->
<g id="Node000001" class="node">
<title>Node1</title>
<g id="a_Node000001"><a xlink:title="Project settings for Invader spicy&#45;track runtime tuning.">
<polygon fill="#999999" stroke="#666666" points="1328,-239 1161,-239 1161,-220 1328,-220 1328,-239"/>
<text text-anchor="middle" x="1244.5" y="-227" font-family="Helvetica,sans-Serif" font-size="10.00">ARInvaderSpicyTrackSettings.h</text>
</a>
</g>
</g>
<!-- Node2 -->
<g id="Node000002" class="node">
<title>Node2</title>
<g id="a_Node000002"><a xlink:title=" ">
<polygon fill="#e0e0e0" stroke="#999999" points="676.5,-19 588.5,-19 588.5,0 676.5,0 676.5,-19"/>
<text text-anchor="middle" x="632.5" y="-7" font-family="Helvetica,sans-Serif" font-size="10.00">CoreMinimal.h</text>
</a>
</g>
</g>
<!-- Node1&#45;&gt;Node2 -->
<g id="edge1_Node000001_Node000002" class="edge">
<title>Node1&#45;&gt;Node2</title>
<g id="a_edge1_Node000001_Node000002"><a xlink:title=" ">
<path fill="none" stroke="#63b8ff" d="M1225.01,-220C1172.4,-197.01 1023.24,-131.45 900.5,-74 883.04,-65.83 879.79,-61.11 861.5,-55 829.79,-44.4 743.75,-28.97 686.63,-19.34"/>
<polygon fill="#63b8ff" stroke="#63b8ff" points="687.12,-15.87 676.68,-17.67 685.96,-22.78 687.12,-15.87"/>
</a>
</g>
</g>
<!-- Node3 -->
<g id="Node000003" class="node">
<title>Node3</title>
<g id="a_Node000003"><a xlink:title=" ">
<polygon fill="#e0e0e0" stroke="#999999" points="1424.5,-184 1272.5,-184 1272.5,-165 1424.5,-165 1424.5,-184"/>
<text text-anchor="middle" x="1348.5" y="-172" font-family="Helvetica,sans-Serif" font-size="10.00">Engine/DeveloperSettings.h</text>
</a>
</g>
</g>
<!-- Node1&#45;&gt;Node3 -->
<g id="edge2_Node000001_Node000003" class="edge">
<title>Node1&#45;&gt;Node3</title>
<g id="a_edge2_Node000001_Node000003"><a xlink:title=" ">
<path fill="none" stroke="#63b8ff" d="M1261.21,-219.98C1277.71,-211.57 1303.2,-198.59 1322.38,-188.81"/>
<polygon fill="#63b8ff" stroke="#63b8ff" points="1324.17,-191.83 1331.49,-184.17 1320.99,-185.59 1324.17,-191.83"/>
</a>
</g>
</g>
<!-- Node4 -->
<g id="Node000004" class="node">
<title>Node4</title>
<g id="a_Node000004"><a xlink:title=" ">
<polygon fill="#e0e0e0" stroke="#999999" points="1319,-19 1180,-19 1180,0 1319,0 1319,-19"/>
<text text-anchor="middle" x="1249.5" y="-7" font-family="Helvetica,sans-Serif" font-size="10.00">GameplayTagContainer.h</text>
</a>
</g>
</g>
<!-- Node1&#45;&gt;Node4 -->
<g id="edge3_Node000001_Node000004" class="edge">
<title>Node1&#45;&gt;Node4</title>
<g id="a_edge3_Node000001_Node000004"><a xlink:title=" ">
<path fill="none" stroke="#63b8ff" d="M1244.7,-219.95C1245.43,-187.95 1248.03,-74.68 1249.07,-29.4"/>
<polygon fill="#63b8ff" stroke="#63b8ff" points="1252.57,-29.3 1249.3,-19.22 1245.57,-29.14 1252.57,-29.3"/>
</a>
</g>
</g>
<!-- Node5 -->
<g id="Node000005" class="node">
<title>Node5</title>
<g id="a_Node000005"><a xlink:href="ARInvaderSpicyTrackTypes_8h.html" target="_top" xlink:title="Shared Invader spicy&#45;track enums/structs for runtime + data authoring.">
<polygon fill="white" stroke="#666666" points="575,-184 420,-184 420,-165 575,-165 575,-184"/>
<text text-anchor="middle" x="497.5" y="-172" font-family="Helvetica,sans-Serif" font-size="10.00">ARInvaderSpicyTrackTypes.h</text>
</a>
</g>
</g>
<!-- Node1&#45;&gt;Node5 -->
<g id="edge4_Node000001_Node000005" class="edge">
<title>Node1&#45;&gt;Node5</title>
<g id="a_edge4_Node000001_Node000005"><a xlink:title=" ">
<path fill="none" stroke="#63b8ff" d="M1160.98,-222.57C1018.68,-212.48 730.54,-192.03 585.34,-181.73"/>
<polygon fill="#63b8ff" stroke="#63b8ff" points="585.36,-178.23 575.14,-181.01 584.87,-185.21 585.36,-178.23"/>
</a>
</g>
</g>
<!-- Node20 -->
<g id="Node000020" class="node">
<title>Node20</title>
<g id="a_Node000020"><a xlink:title=" ">
<polygon fill="#e0e0e0" stroke="#999999" points="1662.5,-184 1442.5,-184 1442.5,-165 1662.5,-165 1662.5,-184"/>
<text text-anchor="middle" x="1552.5" y="-172" font-family="Helvetica,sans-Serif" font-size="10.00">ARInvaderSpicyTrackSettings.generated.h</text>
</a>
</g>
</g>
<!-- Node1&#45;&gt;Node20 -->
<g id="edge31_Node000001_Node000020" class="edge">
<title>Node1&#45;&gt;Node20</title>
<g id="a_edge31_Node000001_Node000020"><a xlink:title=" ">
<path fill="none" stroke="#63b8ff" d="M1293.99,-219.98C1348.13,-210.67 1434.9,-195.74 1492.78,-185.78"/>
<polygon fill="#63b8ff" stroke="#63b8ff" points="1493.62,-189.18 1502.88,-184.04 1492.43,-182.28 1493.62,-189.18"/>
</a>
</g>
</g>
<!-- Node5&#45;&gt;Node2 -->
<g id="edge5_Node000005_Node000002" class="edge">
<title>Node5&#45;&gt;Node2</title>
<g id="a_edge5_Node000005_Node000002"><a xlink:title=" ">
<path fill="none" stroke="#63b8ff" d="M419.91,-170.69C299.45,-163.68 88.82,-139.34 165.5,-55 192.82,-24.95 461.12,-14.71 578.26,-11.66"/>
<polygon fill="#63b8ff" stroke="#63b8ff" points="578.53,-15.15 588.44,-11.4 578.35,-8.15 578.53,-15.15"/>
</a>
</g>
</g>
<!-- Node5&#45;&gt;Node4 -->
<g id="edge10_Node000005_Node000004" class="edge">
<title>Node5&#45;&gt;Node4</title>
<g id="a_edge10_Node000005_Node000004"><a xlink:title=" ">
<path fill="none" stroke="#63b8ff" d="M575.28,-168.13C731.29,-156.41 1076.53,-125.38 1182.5,-74 1204.92,-63.13 1224.82,-42.04 1236.99,-27.15"/>
<polygon fill="#63b8ff" stroke="#63b8ff" points="1239.8,-29.25 1243.23,-19.23 1234.29,-24.93 1239.8,-29.25"/>
</a>
</g>
</g>
<!-- Node6 -->
<g id="Node000006" class="node">
<title>Node6</title>
<g id="a_Node000006"><a xlink:href="ARColorTypes_8h.html" target="_top" xlink:title="Shared gameplay color types used across enemies/players/rewards.">
<polygon fill="white" stroke="#666666" points="118.5,-74 26.5,-74 26.5,-55 118.5,-55 118.5,-74"/>
<text text-anchor="middle" x="72.5" y="-62" font-family="Helvetica,sans-Serif" font-size="10.00">ARColorTypes.h</text>
</a>
</g>
</g>
<!-- Node5&#45;&gt;Node6 -->
<g id="edge6_Node000005_Node000006" class="edge">
<title>Node5&#45;&gt;Node6</title>
<g id="a_edge6_Node000005_Node000006"><a xlink:title=" ">
<path fill="none" stroke="#63b8ff" d="M419.62,-170.18C327.71,-165.19 181.22,-153.6 132.5,-129 111.64,-118.47 94.16,-97.62 83.55,-82.69"/>
<polygon fill="#63b8ff" stroke="#63b8ff" points="86.37,-80.61 77.86,-74.3 80.57,-84.54 86.37,-80.61"/>
</a>
</g>
</g>
<!-- Node8 -->
<g id="Node000008" class="node">
<title>Node8</title>
<g id="a_Node000008"><a xlink:title=" ">
<polygon fill="#e0e0e0" stroke="#999999" points="284.5,-74 174.5,-74 174.5,-55 284.5,-55 284.5,-74"/>
<text text-anchor="middle" x="229.5" y="-62" font-family="Helvetica,sans-Serif" font-size="10.00">Engine/DataTable.h</text>
</a>
</g>
</g>
<!-- Node5&#45;&gt;Node8 -->
<g id="edge9_Node000005_Node000008" class="edge">
<title>Node5&#45;&gt;Node8</title>
<g id="a_edge9_Node000005_Node000008"><a xlink:title=" ">
<path fill="none" stroke="#63b8ff" d="M419.99,-172.28C345.21,-169.26 239.62,-159.53 213.5,-129 202.57,-116.23 209.61,-97.02 217.5,-83.08"/>
<polygon fill="#63b8ff" stroke="#63b8ff" points="220.58,-84.75 222.89,-74.41 214.64,-81.05 220.58,-84.75"/>
</a>
</g>
</g>
<!-- Node9 -->
<g id="Node000009" class="node">
<title>Node9</title>
<g id="a_Node000009"><a xlink:title=" ">
<polygon fill="#e0e0e0" stroke="#999999" points="640,-74 509,-74 509,-55 640,-55 640,-74"/>
<text text-anchor="middle" x="574.5" y="-62" font-family="Helvetica,sans-Serif" font-size="10.00">UObject/SoftObjectPtr.h</text>
</a>
</g>
</g>
<!-- Node5&#45;&gt;Node9 -->
<g id="edge11_Node000005_Node000009" class="edge">
<title>Node5&#45;&gt;Node9</title>
<g id="a_edge11_Node000005_Node000009"><a xlink:title=" ">
<path fill="none" stroke="#63b8ff" d="M513.54,-164.99C526.64,-157.26 544.69,-144.67 555.5,-129 564.79,-115.53 569.62,-97.43 572.08,-84.01"/>
<polygon fill="#63b8ff" stroke="#63b8ff" points="575.55,-84.45 573.63,-74.03 568.64,-83.37 575.55,-84.45"/>
</a>
</g>
</g>
<!-- Node10 -->
<g id="Node000010" class="node">
<title>Node10</title>
<g id="a_Node000010"><a xlink:href="ARInvaderTypes_8h.html" target="_top" xlink:title="ARInvaderTypes header for Alien Ramen.">
<polygon fill="white" stroke="#666666" points="720.5,-129 616.5,-129 616.5,-110 720.5,-110 720.5,-129"/>
<text text-anchor="middle" x="668.5" y="-117" font-family="Helvetica,sans-Serif" font-size="10.00">ARInvaderTypes.h</text>
</a>
</g>
</g>
<!-- Node5&#45;&gt;Node10 -->
<g id="edge12_Node000005_Node000010" class="edge">
<title>Node5&#45;&gt;Node10</title>
<g id="a_edge12_Node000005_Node000010"><a xlink:title=" ">
<path fill="none" stroke="#63b8ff" d="M524.97,-164.98C553.68,-156.09 598.92,-142.07 630.92,-132.15"/>
<polygon fill="#63b8ff" stroke="#63b8ff" points="632.3,-135.39 640.81,-129.08 630.22,-128.7 632.3,-135.39"/>
</a>
</g>
</g>
<!-- Node17 -->
<g id="Node000017" class="node">
<title>Node17</title>
<g id="a_Node000017"><a xlink:href="ARPlayerTypes_8h.html" target="_top" xlink:title="Shared player&#45;facing enum types for Alien Ramen gameplay/save/runtime APIs.">
<polygon fill="white" stroke="#666666" points="546.5,-129 448.5,-129 448.5,-110 546.5,-110 546.5,-129"/>
<text text-anchor="middle" x="497.5" y="-117" font-family="Helvetica,sans-Serif" font-size="10.00">ARPlayerTypes.h</text>
</a>
</g>
</g>
<!-- Node5&#45;&gt;Node17 -->
<g id="edge27_Node000005_Node000017" class="edge">
<title>Node5&#45;&gt;Node17</title>
<g id="a_edge27_Node000005_Node000017"><a xlink:title=" ">
<path fill="none" stroke="#63b8ff" d="M497.5,-164.75C497.5,-157.8 497.5,-147.85 497.5,-139.13"/>
<polygon fill="#63b8ff" stroke="#63b8ff" points="501,-139.09 497.5,-129.09 494,-139.09 501,-139.09"/>
</a>
</g>
</g>
<!-- Node19 -->
<g id="Node000019" class="node">
<title>Node19</title>
<g id="a_Node000019"><a xlink:title=" ">
<polygon fill="#e0e0e0" stroke="#999999" points="430.5,-129 222.5,-129 222.5,-110 430.5,-110 430.5,-129"/>
<text text-anchor="middle" x="326.5" y="-117" font-family="Helvetica,sans-Serif" font-size="10.00">ARInvaderSpicyTrackTypes.generated.h</text>
</a>
</g>
</g>
<!-- Node5&#45;&gt;Node19 -->
<g id="edge30_Node000005_Node000019" class="edge">
<title>Node5&#45;&gt;Node19</title>
<g id="a_edge30_Node000005_Node000019"><a xlink:title=" ">
<path fill="none" stroke="#63b8ff" d="M470.03,-164.98C441.32,-156.09 396.08,-142.07 364.08,-132.15"/>
<polygon fill="#63b8ff" stroke="#63b8ff" points="364.78,-128.7 354.19,-129.08 362.7,-135.39 364.78,-128.7"/>
</a>
</g>
</g>
<!-- Node6&#45;&gt;Node2 -->
<g id="edge7_Node000006_Node000002" class="edge">
<title>Node6&#45;&gt;Node2</title>
<g id="a_edge7_Node000006_Node000002"><a xlink:title=" ">
<path fill="none" stroke="#63b8ff" d="M118.66,-56.71C123.33,-56.1 128.01,-55.52 132.5,-55 294.22,-36.36 486.16,-21.23 578.1,-14.41"/>
<polygon fill="#63b8ff" stroke="#63b8ff" points="578.56,-17.89 588.28,-13.66 578.05,-10.91 578.56,-17.89"/>
</a>
</g>
</g>
<!-- Node7 -->
<g id="Node000007" class="node">
<title>Node7</title>
<g id="a_Node000007"><a xlink:title=" ">
<polygon fill="#e0e0e0" stroke="#999999" points="145,-19 0,-19 0,0 145,0 145,-19"/>
<text text-anchor="middle" x="72.5" y="-7" font-family="Helvetica,sans-Serif" font-size="10.00">ARColorTypes.generated.h</text>
</a>
</g>
</g>
<!-- Node6&#45;&gt;Node7 -->
<g id="edge8_Node000006_Node000007" class="edge">
<title>Node6&#45;&gt;Node7</title>
<g id="a_edge8_Node000006_Node000007"><a xlink:title=" ">
<path fill="none" stroke="#63b8ff" d="M72.5,-54.75C72.5,-47.8 72.5,-37.85 72.5,-29.13"/>
<polygon fill="#63b8ff" stroke="#63b8ff" points="76,-29.09 72.5,-19.09 69,-29.09 76,-29.09"/>
</a>
</g>
</g>
<!-- Node10&#45;&gt;Node2 -->
<g id="edge13_Node000010_Node000002" class="edge">
<title>Node10&#45;&gt;Node2</title>
<g id="a_edge13_Node000010_Node000002"><a xlink:title=" ">
<path fill="none" stroke="#63b8ff" d="M665.89,-109.84C662.17,-97.58 655.07,-74.5 648.5,-55 645.58,-46.35 642.18,-36.81 639.26,-28.79"/>
<polygon fill="#63b8ff" stroke="#63b8ff" points="642.52,-27.51 635.79,-19.33 635.95,-29.92 642.52,-27.51"/>
</a>
</g>
</g>
<!-- Node10&#45;&gt;Node4 -->
<g id="edge18_Node000010_Node000004" class="edge">
<title>Node10&#45;&gt;Node4</title>
<g id="a_edge18_Node000010_Node000004"><a xlink:title=" ">
<path fill="none" stroke="#63b8ff" d="M720.5,-116.77C828.01,-112.68 1071.23,-100.72 1149.5,-74 1181.06,-63.22 1212.76,-40.62 1231.76,-25.5"/>
<polygon fill="#63b8ff" stroke="#63b8ff" points="1234.02,-28.18 1239.55,-19.14 1229.59,-22.75 1234.02,-28.18"/>
</a>
</g>
</g>
<!-- Node10&#45;&gt;Node6 -->
<g id="edge14_Node000010_Node000006" class="edge">
<title>Node10&#45;&gt;Node6</title>
<g id="a_edge14_Node000010_Node000006"><a xlink:title=" ">
<path fill="none" stroke="#63b8ff" d="M616.36,-113.94C525.01,-105.93 330.09,-88.8 165.5,-74 153.64,-72.93 140.93,-71.78 128.84,-70.68"/>
<polygon fill="#63b8ff" stroke="#63b8ff" points="129.13,-67.19 118.86,-69.76 128.5,-74.16 129.13,-67.19"/>
</a>
</g>
</g>
<!-- Node10&#45;&gt;Node8 -->
<g id="edge19_Node000010_Node000008" class="edge">
<title>Node10&#45;&gt;Node8</title>
<g id="a_edge19_Node000010_Node000008"><a xlink:title=" ">
<path fill="none" stroke="#63b8ff" d="M616.3,-112.54C545.81,-104.44 415.98,-89.33 294.85,-74.15"/>
<polygon fill="#63b8ff" stroke="#63b8ff" points="295.01,-70.65 284.65,-72.87 294.14,-77.59 295.01,-70.65"/>
</a>
</g>
</g>
<!-- Node10&#45;&gt;Node9 -->
<g id="edge20_Node000010_Node000009" class="edge">
<title>Node10&#45;&gt;Node9</title>
<g id="a_edge20_Node000010_Node000009"><a xlink:title=" ">
<path fill="none" stroke="#63b8ff" d="M653.4,-109.98C638.68,-101.69 616.08,-88.94 598.83,-79.22"/>
<polygon fill="#63b8ff" stroke="#63b8ff" points="600.31,-76.03 589.88,-74.17 596.87,-82.13 600.31,-76.03"/>
</a>
</g>
</g>
<!-- Node11 -->
<g id="Node000011" class="node">
<title>Node11</title>
<g id="a_Node000011"><a xlink:href="ARInvaderDropTypes_8h.html" target="_top" xlink:title="Shared invader drop type surface.">
<polygon fill="white" stroke="#666666" points="1036,-74 909,-74 909,-55 1036,-55 1036,-74"/>
<text text-anchor="middle" x="972.5" y="-62" font-family="Helvetica,sans-Serif" font-size="10.00">ARInvaderDropTypes.h</text>
</a>
</g>
</g>
<!-- Node10&#45;&gt;Node11 -->
<g id="edge15_Node000010_Node000011" class="edge">
<title>Node10&#45;&gt;Node11</title>
<g id="a_edge15_Node000010_Node000011"><a xlink:title=" ">
<path fill="none" stroke="#63b8ff" d="M717.34,-109.98C770.78,-100.67 856.42,-85.74 913.56,-75.78"/>
<polygon fill="#63b8ff" stroke="#63b8ff" points="914.28,-79.2 923.53,-74.04 913.07,-72.31 914.28,-79.2"/>
</a>
</g>
</g>
<!-- Node13 -->
<g id="Node000013" class="node">
<title>Node13</title>
<g id="a_Node000013"><a xlink:href="ARAbilitySet_8h.html" target="_top" xlink:title="ARAbilitySet header for Alien Ramen.">
<polygon fill="white" stroke="#666666" points="1140.5,-74 1054.5,-74 1054.5,-55 1140.5,-55 1140.5,-74"/>
<text text-anchor="middle" x="1097.5" y="-62" font-family="Helvetica,sans-Serif" font-size="10.00">ARAbilitySet.h</text>
</a>
</g>
</g>
<!-- Node10&#45;&gt;Node13 -->
<g id="edge21_Node000010_Node000013" class="edge">
<title>Node10&#45;&gt;Node13</title>
<g id="a_edge21_Node000010_Node000013"><a xlink:title=" ">
<path fill="none" stroke="#63b8ff" d="M720.74,-113.08C791.61,-105.56 922.42,-91.09 1044.15,-74.13"/>
<polygon fill="#63b8ff" stroke="#63b8ff" points="1044.98,-77.55 1054.39,-72.7 1044,-70.62 1044.98,-77.55"/>
</a>
</g>
</g>
<!-- Node16 -->
<g id="Node000016" class="node">
<title>Node16</title>
<g id="a_Node000016"><a xlink:title=" ">
<polygon fill="#e0e0e0" stroke="#999999" points="852.5,-74 696.5,-74 696.5,-55 852.5,-55 852.5,-74"/>
<text text-anchor="middle" x="774.5" y="-62" font-family="Helvetica,sans-Serif" font-size="10.00">ARInvaderTypes.generated.h</text>
</a>
</g>
</g>
<!-- Node10&#45;&gt;Node16 -->
<g id="edge26_Node000010_Node000016" class="edge">
<title>Node10&#45;&gt;Node16</title>
<g id="a_edge26_Node000010_Node000016"><a xlink:title=" ">
<path fill="none" stroke="#63b8ff" d="M685.53,-109.98C702.43,-101.54 728.56,-88.47 748.14,-78.68"/>
<polygon fill="#63b8ff" stroke="#63b8ff" points="749.78,-81.77 757.16,-74.17 746.65,-75.51 749.78,-81.77"/>
</a>
</g>
</g>
<!-- Node11&#45;&gt;Node2 -->
<g id="edge16_Node000011_Node000002" class="edge">
<title>Node11&#45;&gt;Node2</title>
<g id="a_edge16_Node000011_Node000002"><a xlink:title=" ">
<path fill="none" stroke="#63b8ff" d="M917.67,-55C862.23,-46.4 773.79,-32.65 686.76,-19.04"/>
<polygon fill="#63b8ff" stroke="#63b8ff" points="687.12,-15.55 676.7,-17.46 686.04,-22.47 687.12,-15.55"/>
</a>
</g>
</g>
<!-- Node12 -->
<g id="Node000012" class="node">
<title>Node12</title>
<g id="a_Node000012"><a xlink:title=" ">
<polygon fill="#e0e0e0" stroke="#999999" points="874,-19 695,-19 695,0 874,0 874,-19"/>
<text text-anchor="middle" x="784.5" y="-7" font-family="Helvetica,sans-Serif" font-size="10.00">ARInvaderDropTypes.generated.h</text>
</a>
</g>
</g>
<!-- Node11&#45;&gt;Node12 -->
<g id="edge17_Node000011_Node000012" class="edge">
<title>Node11&#45;&gt;Node12</title>
<g id="a_edge17_Node000011_Node000012"><a xlink:title=" ">
<path fill="none" stroke="#63b8ff" d="M942.29,-54.98C910.46,-46.01 860.14,-31.82 824.9,-21.89"/>
<polygon fill="#63b8ff" stroke="#63b8ff" points="825.52,-18.43 814.94,-19.08 823.62,-25.16 825.52,-18.43"/>
</a>
</g>
</g>
<!-- Node13&#45;&gt;Node2 -->
<g id="edge22_Node000013_Node000002" class="edge">
<title>Node13&#45;&gt;Node2</title>
<g id="a_edge22_Node000013_Node000002"><a xlink:title=" ">
<path fill="none" stroke="#63b8ff" d="M1054.4,-56.24C1051.39,-55.8 1048.4,-55.38 1045.5,-55 889.78,-34.49 847.27,-39.26 686.91,-18.97"/>
<polygon fill="#63b8ff" stroke="#63b8ff" points="687.04,-15.46 676.68,-17.66 686.15,-22.4 687.04,-15.46"/>
</a>
</g>
</g>
<!-- Node13&#45;&gt;Node4 -->
<g id="edge24_Node000013_Node000004" class="edge">
<title>Node13&#45;&gt;Node4</title>
<g id="a_edge24_Node000013_Node000004"><a xlink:title=" ">
<path fill="none" stroke="#63b8ff" d="M1121.92,-54.98C1147.22,-46.16 1186.95,-32.31 1215.36,-22.41"/>
<polygon fill="#63b8ff" stroke="#63b8ff" points="1216.6,-25.68 1224.89,-19.08 1214.29,-19.07 1216.6,-25.68"/>
</a>
</g>
</g>
<!-- Node14 -->
<g id="Node000014" class="node">
<title>Node14</title>
<g id="a_Node000014"><a xlink:title=" ">
<polygon fill="#e0e0e0" stroke="#999999" points="1004.5,-19 892.5,-19 892.5,0 1004.5,0 1004.5,-19"/>
<text text-anchor="middle" x="948.5" y="-7" font-family="Helvetica,sans-Serif" font-size="10.00">Engine/DataAsset.h</text>
</a>
</g>
</g>
<!-- Node13&#45;&gt;Node14 -->
<g id="edge23_Node000013_Node000014" class="edge">
<title>Node13&#45;&gt;Node14</title>
<g id="a_edge23_Node000013_Node000014"><a xlink:title=" ">
<path fill="none" stroke="#63b8ff" d="M1073.56,-54.98C1048.94,-46.23 1010.38,-32.51 982.58,-22.62"/>
<polygon fill="#63b8ff" stroke="#63b8ff" points="983.47,-19.22 972.88,-19.17 981.12,-25.82 983.47,-19.22"/>
</a>
</g>
</g>
<!-- Node15 -->
<g id="Node000015" class="node">
<title>Node15</title>
<g id="a_Node000015"><a xlink:title=" ">
<polygon fill="#e0e0e0" stroke="#999999" points="1162,-19 1023,-19 1023,0 1162,0 1162,-19"/>
<text text-anchor="middle" x="1092.5" y="-7" font-family="Helvetica,sans-Serif" font-size="10.00">ARAbilitySet.generated.h</text>
</a>
</g>
</g>
<!-- Node13&#45;&gt;Node15 -->
<g id="edge25_Node000013_Node000015" class="edge">
<title>Node13&#45;&gt;Node15</title>
<g id="a_edge25_Node000013_Node000015"><a xlink:title=" ">
<path fill="none" stroke="#63b8ff" d="M1096.67,-54.75C1096.02,-47.8 1095.08,-37.85 1094.26,-29.13"/>
<polygon fill="#63b8ff" stroke="#63b8ff" points="1097.73,-28.72 1093.31,-19.09 1090.77,-29.37 1097.73,-28.72"/>
</a>
</g>
</g>
<!-- Node17&#45;&gt;Node2 -->
<g id="edge28_Node000017_Node000002" class="edge">
<title>Node17&#45;&gt;Node2</title>
<g id="a_edge28_Node000017_Node000002"><a xlink:title=" ">
<path fill="none" stroke="#63b8ff" d="M494.9,-109.69C491.56,-96.41 487.52,-71.1 499.5,-55 517.69,-30.56 549.87,-19.38 578.02,-14.33"/>
<polygon fill="#63b8ff" stroke="#63b8ff" points="578.84,-17.75 588.18,-12.74 577.76,-10.83 578.84,-17.75"/>
</a>
</g>
</g>
<!-- Node18 -->
<g id="Node000018" class="node">
<title>Node18</title>
<g id="a_Node000018"><a xlink:title=" ">
<polygon fill="#e0e0e0" stroke="#999999" points="452.5,-74 302.5,-74 302.5,-55 452.5,-55 452.5,-74"/>
<text text-anchor="middle" x="377.5" y="-62" font-family="Helvetica,sans-Serif" font-size="10.00">ARPlayerTypes.generated.h</text>
</a>
</g>
</g>
<!-- Node17&#45;&gt;Node18 -->
<g id="edge29_Node000017_Node000018" class="edge">
<title>Node17&#45;&gt;Node18</title>
<g id="a_edge29_Node000017_Node000018"><a xlink:title=" ">
<path fill="none" stroke="#63b8ff" d="M478.22,-109.98C458.83,-101.42 428.69,-88.11 406.43,-78.28"/>
<polygon fill="#63b8ff" stroke="#63b8ff" points="407.69,-75.01 397.13,-74.17 404.86,-81.41 407.69,-75.01"/>
</a>
</g>
</g>
</g>
</svg>

<g id="navigator" transform="translate(0 0)" fill="#404254">
  <rect fill="#f2f5e9" fill-opacity="0.5" stroke="#606060" stroke-width=".5" x="0" y="0" width="60" height="60"/>
  <use id="zoomplus" xlink:href="#zoomPlus" x="17" y="9" onmousedown="handleZoom(evt,'in')"/>
  <use id="zoomminus" xlink:href="#zoomMin" x="42" y="9" onmousedown="handleZoom(evt,'out')"/>
  <use id="reset" xlink:href="#resetDef" x="30" y="36" onmousedown="handleReset()"/>
   <use id="arrowup" xlink:href="#arrowUp" x="0" y="0" onmousedown="handlePan(0,-1)"/>
  <use id="arrowright" xlink:href="#arrowRight" x="0" y="0" onmousedown="handlePan(1,0)"/>
  <use id="arrowdown" xlink:href="#arrowDown" x="0" y="0" onmousedown="handlePan(0,1)"/>
  <use id="arrowleft" xlink:href="#arrowLeft" x="0" y="0" onmousedown="handlePan(-1,0)"/>
</g>
<svg viewBox="0 0 15 15" width="100%" height="30px" preserveAspectRatio="xMaxYMin meet">
 <g id="arrow_out" transform="scale(0.3 0.3)">
  <a xlink:href="ARInvaderSpicyTrackSettings_8h__incl_org.svg" target="_base">
   <rect id="button" ry="5" rx="5" y="6" x="6" height="38" width="38"
        fill="#f2f5e9" fill-opacity="0.5" stroke="#606060" stroke-width="1.0"/>
   <path id="arrow"
     d="M 11.500037,31.436501 C 11.940474,20.09759 22.043105,11.32322 32.158766,21.979434 L 37.068811,17.246167 C 37.068811,17.246167 37.088388,32 37.088388,32 L 22.160133,31.978069 C 22.160133,31.978069 26.997745,27.140456 26.997745,27.140456 C 18.528582,18.264221 13.291696,25.230495 11.500037,31.436501 z"
     style="fill:#404040;"/>
  </a>
 </g>
</svg>

<style type='text/css'>
<![CDATA[
[data-mouse-over-selected='false'] { opacity: 0.7; }
[data-mouse-over-selected='true']  { opacity: 1.0; }
]]>
</style>
<script type="application/ecmascript"><![CDATA[
document.addEventListener('DOMContentLoaded', (event) => {
  highlightEdges();
  highlightAdjacentNodes();
});
]]></script>
</svg>
