<?xml version="1.0" encoding="UTF-8" standalone="no"?>
<!DOCTYPE svg PUBLIC "-//W3C//DTD SVG 1.1//EN"
 "http://www.w3.org/Graphics/SVG/1.1/DTD/svg11.dtd">
<!-- Generated by graphviz version 2.43.0 (0)
 -->
<!-- Title: ARInvaderGameState.h Pages: 1 -->
<svg width="2070pt" height="247pt"
 viewBox="0.00 0.00 2069.59 247.00" xmlns="http://www.w3.org/2000/svg" xmlns:xlink="http://www.w3.org/1999/xlink">
<g id="graph0" class="graph" transform="scale(1 1) rotate(0) translate(4 243)">
<title>ARInvaderGameState.h</title>
<!-- Node1 -->
<g id="Node000001" class="node">
<title>Node1</title>
<g id="a_Node000001"><a xlink:title="ARInvaderGameState header for Alien Ramen.">
<polygon fill="#999999" stroke="#666666" points="1405.02,-239 1274.02,-239 1274.02,-220 1405.02,-220 1405.02,-239"/>
<text text-anchor="middle" x="1339.52" y="-227" font-family="Helvetica,sans-Serif" font-size="10.00">ARInvaderGameState.h</text>
</a>
</g>
</g>
<!-- Node2 -->
<g id="Node000002" class="node">
<title>Node2</title>
<g id="a_Node000002"><a xlink:title=" ">
<polygon fill="#e0e0e0" stroke="#999999" points="1024.52,-19 936.52,-19 936.52,0 1024.52,0 1024.52,-19"/>
<text text-anchor="middle" x="980.52" y="-7" font-family="Helvetica,sans-Serif" font-size="10.00">CoreMinimal.h</text>
</a>
</g>
</g>
<!-- Node1&#45;&gt;Node2 -->
<g id="edge1_Node000001_Node000002" class="edge">
<title>Node1&#45;&gt;Node2</title>
<g id="a_edge1_Node000001_Node000002"><a xlink:title=" ">
<path fill="none" stroke="#63b8ff" d="M1273.79,-226.9C1024.37,-220.35 145.06,-192.9 38.52,-129 13.67,-114.1 11.62,-101.82 3.52,-74 1.16,-65.89 -2.34,-61.09 3.52,-55 37.77,-19.38 813.78,-23.67 926.18,-18.64"/>
<polygon fill="#63b8ff" stroke="#63b8ff" points="926.56,-22.12 936.32,-17.99 926.12,-15.14 926.56,-22.12"/>
</a>
</g>
</g>
<!-- Node3 -->
<g id="Node000003" class="node">
<title>Node3</title>
<g id="a_Node000003"><a xlink:title=" ">
<polygon fill="#e0e0e0" stroke="#999999" points="1672.02,-184 1541.02,-184 1541.02,-165 1672.02,-165 1672.02,-184"/>
<text text-anchor="middle" x="1606.52" y="-172" font-family="Helvetica,sans-Serif" font-size="10.00">GameplayEffectTypes.h</text>
</a>
</g>
</g>
<!-- Node1&#45;&gt;Node3 -->
<g id="edge2_Node000001_Node000003" class="edge">
<title>Node1&#45;&gt;Node3</title>
<g id="a_edge2_Node000001_Node000003"><a xlink:title=" ">
<path fill="none" stroke="#63b8ff" d="M1382.42,-219.98C1428.89,-210.76 1503.11,-196.03 1553.27,-186.07"/>
<polygon fill="#63b8ff" stroke="#63b8ff" points="1554.16,-189.46 1563.28,-184.08 1552.79,-182.6 1554.16,-189.46"/>
</a>
</g>
</g>
<!-- Node4 -->
<g id="Node000004" class="node">
<title>Node4</title>
<g id="a_Node000004"><a xlink:href="ARGameStateBase_8h.html" target="_top" xlink:title="ARGameStateBase header for Alien Ramen.">
<polygon fill="white" stroke="#666666" points="985.52,-184 867.52,-184 867.52,-165 985.52,-165 985.52,-184"/>
<text text-anchor="middle" x="926.52" y="-172" font-family="Helvetica,sans-Serif" font-size="10.00">ARGameStateBase.h</text>
</a>
</g>
</g>
<!-- Node1&#45;&gt;Node4 -->
<g id="edge3_Node000001_Node000004" class="edge">
<title>Node1&#45;&gt;Node4</title>
<g id="a_edge3_Node000001_Node000004"><a xlink:title=" ">
<path fill="none" stroke="#63b8ff" d="M1273.62,-220.04C1197.66,-210.3 1073.37,-194.35 995.95,-184.41"/>
<polygon fill="#63b8ff" stroke="#63b8ff" points="996.18,-180.91 985.82,-183.11 995.29,-187.85 996.18,-180.91"/>
</a>
</g>
</g>
<!-- Node18 -->
<g id="Node000018" class="node">
<title>Node18</title>
<g id="a_Node000018"><a xlink:href="ARInvaderDropTypes_8h.html" target="_top" xlink:title="Shared invader drop type surface.">
<polygon fill="white" stroke="#666666" points="1230.02,-74 1103.02,-74 1103.02,-55 1230.02,-55 1230.02,-74"/>
<text text-anchor="middle" x="1166.52" y="-62" font-family="Helvetica,sans-Serif" font-size="10.00">ARInvaderDropTypes.h</text>
</a>
</g>
</g>
<!-- Node1&#45;&gt;Node18 -->
<g id="edge24_Node000001_Node000018" class="edge">
<title>Node1&#45;&gt;Node18</title>
<g id="a_edge24_Node000001_Node000018"><a xlink:title=" ">
<path fill="none" stroke="#63b8ff" d="M1330.22,-219.74C1302.41,-193.53 1219.6,-115.51 1183.57,-81.57"/>
<polygon fill="#63b8ff" stroke="#63b8ff" points="1185.54,-78.62 1175.86,-74.31 1180.74,-83.71 1185.54,-78.62"/>
</a>
</g>
</g>
<!-- Node20 -->
<g id="Node000020" class="node">
<title>Node20</title>
<g id="a_Node000020"><a xlink:href="ARInvaderSpicyTrackTypes_8h.html" target="_top" xlink:title="Shared Invader spicy&#45;track enums/structs for runtime + data authoring.">
<polygon fill="white" stroke="#666666" points="1523.02,-184 1368.02,-184 1368.02,-165 1523.02,-165 1523.02,-184"/>
<text text-anchor="middle" x="1445.52" y="-172" font-family="Helvetica,sans-Serif" font-size="10.00">ARInvaderSpicyTrackTypes.h</text>
</a>
</g>
</g>
<!-- Node1&#45;&gt;Node20 -->
<g id="edge27_Node000001_Node000020" class="edge">
<title>Node1&#45;&gt;Node20</title>
<g id="a_edge27_Node000001_Node000020"><a xlink:title=" ">
<path fill="none" stroke="#63b8ff" d="M1356.55,-219.98C1373.45,-211.54 1399.58,-198.47 1419.16,-188.68"/>
<polygon fill="#63b8ff" stroke="#63b8ff" points="1420.8,-191.77 1428.18,-184.17 1417.67,-185.51 1420.8,-191.77"/>
</a>
</g>
</g>
<!-- Node25 -->
<g id="Node000025" class="node">
<title>Node25</title>
<g id="a_Node000025"><a xlink:href="ARInvaderTypes_8h.html" target="_top" xlink:title="ARInvaderTypes header for Alien Ramen.">
<polygon fill="white" stroke="#666666" points="1491.52,-129 1387.52,-129 1387.52,-110 1491.52,-110 1491.52,-129"/>
<text text-anchor="middle" x="1439.52" y="-117" font-family="Helvetica,sans-Serif" font-size="10.00">ARInvaderTypes.h</text>
</a>
</g>
</g>
<!-- Node1&#45;&gt;Node25 -->
<g id="edge50_Node000001_Node000025" class="edge">
<title>Node1&#45;&gt;Node25</title>
<g id="a_edge50_Node000001_Node000025"><a xlink:title=" ">
<path fill="none" stroke="#63b8ff" d="M1340.23,-219.74C1341.72,-206.52 1346.22,-181.3 1359.52,-165 1371.16,-150.72 1388.67,-140.25 1404.34,-133.06"/>
<polygon fill="#63b8ff" stroke="#63b8ff" points="1405.98,-136.17 1413.79,-129.01 1403.22,-129.73 1405.98,-136.17"/>
</a>
</g>
</g>
<!-- Node31 -->
<g id="Node000031" class="node">
<title>Node31</title>
<g id="a_Node000031"><a xlink:title=" ">
<polygon fill="#e0e0e0" stroke="#999999" points="1873.02,-184 1690.02,-184 1690.02,-165 1873.02,-165 1873.02,-184"/>
<text text-anchor="middle" x="1781.52" y="-172" font-family="Helvetica,sans-Serif" font-size="10.00">ARInvaderGameState.generated.h</text>
</a>
</g>
</g>
<!-- Node1&#45;&gt;Node31 -->
<g id="edge51_Node000001_Node000031" class="edge">
<title>Node1&#45;&gt;Node31</title>
<g id="a_edge51_Node000001_Node000031"><a xlink:title=" ">
<path fill="none" stroke="#63b8ff" d="M1405.21,-220.62C1483.78,-211.2 1615.31,-195.43 1700.21,-185.25"/>
<polygon fill="#63b8ff" stroke="#63b8ff" points="1700.82,-188.7 1710.33,-184.04 1699.98,-181.75 1700.82,-188.7"/>
</a>
</g>
</g>
<!-- Node4&#45;&gt;Node2 -->
<g id="edge4_Node000004_Node000002" class="edge">
<title>Node4&#45;&gt;Node2</title>
<g id="a_edge4_Node000004_Node000002"><a xlink:title=" ">
<path fill="none" stroke="#63b8ff" d="M867.36,-173.62C788.03,-172.38 653.52,-164.87 622.52,-129 617,-122.61 617.7,-116.94 622.52,-110 632.46,-95.67 752.77,-59.87 769.52,-55 822.1,-39.71 883.48,-27.37 926.44,-19.59"/>
<polygon fill="#63b8ff" stroke="#63b8ff" points="927.17,-23.02 936.4,-17.81 925.94,-16.13 927.17,-23.02"/>
</a>
</g>
</g>
<!-- Node5 -->
<g id="Node000005" class="node">
<title>Node5</title>
<g id="a_Node000005"><a xlink:href="ARPauseTypes_8h.html" target="_top" xlink:title="Shared pause&#45;system enums and contracts for Alien Ramen.">
<polygon fill="white" stroke="#666666" points="143.02,-129 48.02,-129 48.02,-110 143.02,-110 143.02,-129"/>
<text text-anchor="middle" x="95.52" y="-117" font-family="Helvetica,sans-Serif" font-size="10.00">ARPauseTypes.h</text>
</a>
</g>
</g>
<!-- Node4&#45;&gt;Node5 -->
<g id="edge5_Node000004_Node000005" class="edge">
<title>Node4&#45;&gt;Node5</title>
<g id="a_edge5_Node000004_Node000005"><a xlink:title=" ">
<path fill="none" stroke="#63b8ff" d="M867.42,-169.73C714.09,-159.95 304.96,-133.86 153.21,-124.18"/>
<polygon fill="#63b8ff" stroke="#63b8ff" points="153.36,-120.68 143.16,-123.54 152.92,-127.67 153.36,-120.68"/>
</a>
</g>
</g>
<!-- Node7 -->
<g id="Node000007" class="node">
<title>Node7</title>
<g id="a_Node000007"><a xlink:href="ARPlayerTypes_8h.html" target="_top" xlink:title="Shared player&#45;facing enum types for Alien Ramen gameplay/save/runtime APIs.">
<polygon fill="white" stroke="#666666" points="1046.52,-74 948.52,-74 948.52,-55 1046.52,-55 1046.52,-74"/>
<text text-anchor="middle" x="997.52" y="-62" font-family="Helvetica,sans-Serif" font-size="10.00">ARPlayerTypes.h</text>
</a>
</g>
</g>
<!-- Node4&#45;&gt;Node7 -->
<g id="edge8_Node000004_Node000007" class="edge">
<title>Node4&#45;&gt;Node7</title>
<g id="a_edge8_Node000004_Node000007"><a xlink:title=" ">
<path fill="none" stroke="#63b8ff" d="M985.67,-168.71C1039.29,-162.99 1112.58,-151.27 1130.52,-129 1135.81,-122.42 1135.45,-116.85 1130.52,-110 1120.69,-96.35 1082.71,-84.46 1049.84,-76.42"/>
<polygon fill="#63b8ff" stroke="#63b8ff" points="1050.38,-72.95 1039.84,-74.05 1048.76,-79.76 1050.38,-72.95"/>
</a>
</g>
</g>
<!-- Node9 -->
<g id="Node000009" class="node">
<title>Node9</title>
<g id="a_Node000009"><a xlink:href="ARSaveTypes_8h.html" target="_top" xlink:title="ARSaveTypes header for Alien Ramen.">
<polygon fill="white" stroke="#666666" points="1121.02,-129 1030.02,-129 1030.02,-110 1121.02,-110 1121.02,-129"/>
<text text-anchor="middle" x="1075.52" y="-117" font-family="Helvetica,sans-Serif" font-size="10.00">ARSaveTypes.h</text>
</a>
</g>
</g>
<!-- Node4&#45;&gt;Node9 -->
<g id="edge11_Node000004_Node000009" class="edge">
<title>Node4&#45;&gt;Node9</title>
<g id="a_edge11_Node000004_Node000009"><a xlink:title=" ">
<path fill="none" stroke="#63b8ff" d="M950.46,-164.98C975.07,-156.23 1013.64,-142.51 1041.43,-132.62"/>
<polygon fill="#63b8ff" stroke="#63b8ff" points="1042.89,-135.82 1051.14,-129.17 1040.55,-129.22 1042.89,-135.82"/>
</a>
</g>
</g>
<!-- Node10 -->
<g id="Node000010" class="node">
<title>Node10</title>
<g id="a_Node000010"><a xlink:title=" ">
<polygon fill="#e0e0e0" stroke="#999999" points="1830.02,-19 1691.02,-19 1691.02,0 1830.02,0 1830.02,-19"/>
<text text-anchor="middle" x="1760.52" y="-7" font-family="Helvetica,sans-Serif" font-size="10.00">GameplayTagContainer.h</text>
</a>
</g>
</g>
<!-- Node4&#45;&gt;Node10 -->
<g id="edge16_Node000004_Node000010" class="edge">
<title>Node4&#45;&gt;Node10</title>
<g id="a_edge16_Node000004_Node000010"><a xlink:title=" ">
<path fill="none" stroke="#63b8ff" d="M985.6,-165.77C1116.16,-148.34 1425.62,-105.12 1526.52,-74 1545.71,-68.08 1548.52,-61.51 1567.52,-55 1611.11,-40.05 1661.96,-28.56 1700.51,-21"/>
<polygon fill="#63b8ff" stroke="#63b8ff" points="1701.39,-24.4 1710.54,-19.07 1700.06,-17.52 1701.39,-24.4"/>
</a>
</g>
</g>
<!-- Node12 -->
<g id="Node000012" class="node">
<title>Node12</title>
<g id="a_Node000012"><a xlink:title=" ">
<polygon fill="#e0e0e0" stroke="#999999" points="823.02,-129 632.02,-129 632.02,-110 823.02,-110 823.02,-129"/>
<text text-anchor="middle" x="727.52" y="-117" font-family="Helvetica,sans-Serif" font-size="10.00">GameFramework/GameStateBase.h</text>
</a>
</g>
</g>
<!-- Node4&#45;&gt;Node12 -->
<g id="edge17_Node000004_Node000012" class="edge">
<title>Node4&#45;&gt;Node12</title>
<g id="a_edge17_Node000004_Node000012"><a xlink:title=" ">
<path fill="none" stroke="#63b8ff" d="M894.54,-164.98C860.7,-155.97 807.12,-141.7 769.8,-131.76"/>
<polygon fill="#63b8ff" stroke="#63b8ff" points="770.3,-128.27 759.74,-129.08 768.5,-135.04 770.3,-128.27"/>
</a>
</g>
</g>
<!-- Node13 -->
<g id="Node000013" class="node">
<title>Node13</title>
<g id="a_Node000013"><a xlink:href="StructSerializable_8h.html" target="_top" xlink:title="StructSerializable header for Alien Ramen.">
<polygon fill="white" stroke="#666666" points="575.02,-129 464.02,-129 464.02,-110 575.02,-110 575.02,-129"/>
<text text-anchor="middle" x="519.52" y="-117" font-family="Helvetica,sans-Serif" font-size="10.00">StructSerializable.h</text>
</a>
</g>
</g>
<!-- Node4&#45;&gt;Node13 -->
<g id="edge18_Node000004_Node000013" class="edge">
<title>Node4&#45;&gt;Node13</title>
<g id="a_edge18_Node000004_Node000013"><a xlink:title=" ">
<path fill="none" stroke="#63b8ff" d="M867.34,-165.79C792.33,-156.03 663.42,-139.24 585.37,-129.08"/>
<polygon fill="#63b8ff" stroke="#63b8ff" points="585.54,-125.57 575.17,-127.75 584.64,-132.51 585.54,-125.57"/>
</a>
</g>
</g>
<!-- Node17 -->
<g id="Node000017" class="node">
<title>Node17</title>
<g id="a_Node000017"><a xlink:title=" ">
<polygon fill="#e0e0e0" stroke="#999999" points="1011.52,-129 841.52,-129 841.52,-110 1011.52,-110 1011.52,-129"/>
<text text-anchor="middle" x="926.52" y="-117" font-family="Helvetica,sans-Serif" font-size="10.00">ARGameStateBase.generated.h</text>
</a>
</g>
</g>
<!-- Node4&#45;&gt;Node17 -->
<g id="edge23_Node000004_Node000017" class="edge">
<title>Node4&#45;&gt;Node17</title>
<g id="a_edge23_Node000004_Node000017"><a xlink:title=" ">
<path fill="none" stroke="#63b8ff" d="M926.52,-164.75C926.52,-157.8 926.52,-147.85 926.52,-139.13"/>
<polygon fill="#63b8ff" stroke="#63b8ff" points="930.02,-139.09 926.52,-129.09 923.02,-139.09 930.02,-139.09"/>
</a>
</g>
</g>
<!-- Node5&#45;&gt;Node2 -->
<g id="edge6_Node000005_Node000002" class="edge">
<title>Node5&#45;&gt;Node2</title>
<g id="a_edge6_Node000005_Node000002"><a xlink:title=" ">
<path fill="none" stroke="#63b8ff" d="M68.14,-109.94C36.32,-98.67 -9.24,-77.63 12.52,-55 46.43,-19.72 814.89,-23.66 926.27,-18.64"/>
<polygon fill="#63b8ff" stroke="#63b8ff" points="926.57,-22.12 936.32,-17.99 926.12,-15.14 926.57,-22.12"/>
</a>
</g>
</g>
<!-- Node6 -->
<g id="Node000006" class="node">
<title>Node6</title>
<g id="a_Node000006"><a xlink:title=" ">
<polygon fill="#e0e0e0" stroke="#999999" points="169.52,-74 21.52,-74 21.52,-55 169.52,-55 169.52,-74"/>
<text text-anchor="middle" x="95.52" y="-62" font-family="Helvetica,sans-Serif" font-size="10.00">ARPauseTypes.generated.h</text>
</a>
</g>
</g>
<!-- Node5&#45;&gt;Node6 -->
<g id="edge7_Node000005_Node000006" class="edge">
<title>Node5&#45;&gt;Node6</title>
<g id="a_edge7_Node000005_Node000006"><a xlink:title=" ">
<path fill="none" stroke="#63b8ff" d="M95.52,-109.75C95.52,-102.8 95.52,-92.85 95.52,-84.13"/>
<polygon fill="#63b8ff" stroke="#63b8ff" points="99.02,-84.09 95.52,-74.09 92.02,-84.09 99.02,-84.09"/>
</a>
</g>
</g>
<!-- Node7&#45;&gt;Node2 -->
<g id="edge9_Node000007_Node000002" class="edge">
<title>Node7&#45;&gt;Node2</title>
<g id="a_edge9_Node000007_Node000002"><a xlink:title=" ">
<path fill="none" stroke="#63b8ff" d="M994.71,-54.75C992.46,-47.72 989.22,-37.62 986.4,-28.84"/>
<polygon fill="#63b8ff" stroke="#63b8ff" points="989.66,-27.54 983.27,-19.09 982.99,-29.68 989.66,-27.54"/>
</a>
</g>
</g>
<!-- Node8 -->
<g id="Node000008" class="node">
<title>Node8</title>
<g id="a_Node000008"><a xlink:title=" ">
<polygon fill="#e0e0e0" stroke="#999999" points="918.52,-19 768.52,-19 768.52,0 918.52,0 918.52,-19"/>
<text text-anchor="middle" x="843.52" y="-7" font-family="Helvetica,sans-Serif" font-size="10.00">ARPlayerTypes.generated.h</text>
</a>
</g>
</g>
<!-- Node7&#45;&gt;Node8 -->
<g id="edge10_Node000007_Node000008" class="edge">
<title>Node7&#45;&gt;Node8</title>
<g id="a_edge10_Node000007_Node000008"><a xlink:title=" ">
<path fill="none" stroke="#63b8ff" d="M972.77,-54.98C947.14,-46.16 906.89,-32.31 878.11,-22.41"/>
<polygon fill="#63b8ff" stroke="#63b8ff" points="879.05,-19.03 868.45,-19.08 876.77,-25.65 879.05,-19.03"/>
</a>
</g>
</g>
<!-- Node9&#45;&gt;Node2 -->
<g id="edge12_Node000009_Node000002" class="edge">
<title>Node9&#45;&gt;Node2</title>
<g id="a_edge12_Node000009_Node000002"><a xlink:title=" ">
<path fill="none" stroke="#63b8ff" d="M1029.9,-111.43C1026.73,-110.94 1023.57,-110.46 1020.52,-110 966.54,-101.83 813.18,-115.33 777.52,-74 772,-67.61 772.22,-61.58 777.52,-55 782.26,-49.1 868,-31.82 926.51,-20.61"/>
<polygon fill="#63b8ff" stroke="#63b8ff" points="927.21,-24.04 936.38,-18.73 925.9,-17.16 927.21,-24.04"/>
</a>
</g>
</g>
<!-- Node9&#45;&gt;Node7 -->
<g id="edge14_Node000009_Node000007" class="edge">
<title>Node9&#45;&gt;Node7</title>
<g id="a_edge14_Node000009_Node000007"><a xlink:title=" ">
<path fill="none" stroke="#63b8ff" d="M1062.99,-109.98C1051.12,-101.92 1033.05,-89.65 1018.9,-80.03"/>
<polygon fill="#63b8ff" stroke="#63b8ff" points="1020.52,-76.9 1010.28,-74.17 1016.58,-82.69 1020.52,-76.9"/>
</a>
</g>
</g>
<!-- Node9&#45;&gt;Node10 -->
<g id="edge13_Node000009_Node000010" class="edge">
<title>Node9&#45;&gt;Node10</title>
<g id="a_edge13_Node000009_Node000010"><a xlink:title=" ">
<path fill="none" stroke="#63b8ff" d="M1121.11,-114.42C1221.68,-105.32 1456.39,-83.39 1491.52,-74 1511.7,-68.6 1514.59,-61.28 1534.52,-55 1584.69,-39.19 1642.98,-27.88 1687.79,-20.62"/>
<polygon fill="#63b8ff" stroke="#63b8ff" points="1688.39,-24.06 1697.72,-19.04 1687.29,-17.15 1688.39,-24.06"/>
</a>
</g>
</g>
<!-- Node11 -->
<g id="Node000011" class="node">
<title>Node11</title>
<g id="a_Node000011"><a xlink:title=" ">
<polygon fill="#e0e0e0" stroke="#999999" points="930.02,-74 787.02,-74 787.02,-55 930.02,-55 930.02,-74"/>
<text text-anchor="middle" x="858.52" y="-62" font-family="Helvetica,sans-Serif" font-size="10.00">ARSaveTypes.generated.h</text>
</a>
</g>
</g>
<!-- Node9&#45;&gt;Node11 -->
<g id="edge15_Node000009_Node000011" class="edge">
<title>Node9&#45;&gt;Node11</title>
<g id="a_edge15_Node000009_Node000011"><a xlink:title=" ">
<path fill="none" stroke="#63b8ff" d="M1040.65,-109.98C1003.43,-100.89 944.32,-86.46 903.59,-76.51"/>
<polygon fill="#63b8ff" stroke="#63b8ff" points="904.2,-73.05 893.66,-74.08 902.54,-79.85 904.2,-73.05"/>
</a>
</g>
</g>
<!-- Node13&#45;&gt;Node2 -->
<g id="edge19_Node000013_Node000002" class="edge">
<title>Node13&#45;&gt;Node2</title>
<g id="a_edge19_Node000013_Node000002"><a xlink:title=" ">
<path fill="none" stroke="#63b8ff" d="M550.77,-109.98C580.17,-101.7 625.28,-88.3 663.52,-74 683.09,-66.68 686.49,-60.95 706.52,-55 709.15,-54.22 847,-31.98 926.14,-19.24"/>
<polygon fill="#63b8ff" stroke="#63b8ff" points="927.11,-22.63 936.42,-17.59 926,-15.72 927.11,-22.63"/>
</a>
</g>
</g>
<!-- Node14 -->
<g id="Node000014" class="node">
<title>Node14</title>
<g id="a_Node000014"><a xlink:title=" ">
<polygon fill="#e0e0e0" stroke="#999999" points="299.02,-74 188.02,-74 188.02,-55 299.02,-55 299.02,-74"/>
<text text-anchor="middle" x="243.52" y="-62" font-family="Helvetica,sans-Serif" font-size="10.00">UObject/Interface.h</text>
</a>
</g>
</g>
<!-- Node13&#45;&gt;Node14 -->
<g id="edge20_Node000013_Node000014" class="edge">
<title>Node13&#45;&gt;Node14</title>
<g id="a_edge20_Node000013_Node000014"><a xlink:title=" ">
<path fill="none" stroke="#63b8ff" d="M475.17,-109.98C427.03,-100.74 350.09,-85.97 298.23,-76.01"/>
<polygon fill="#63b8ff" stroke="#63b8ff" points="298.69,-72.53 288.21,-74.08 297.37,-79.41 298.69,-72.53"/>
</a>
</g>
</g>
<!-- Node15 -->
<g id="Node000015" class="node">
<title>Node15</title>
<g id="a_Node000015"><a xlink:title=" ">
<polygon fill="#e0e0e0" stroke="#999999" points="472.02,-74 317.02,-74 317.02,-55 472.02,-55 472.02,-74"/>
<text text-anchor="middle" x="394.52" y="-62" font-family="Helvetica,sans-Serif" font-size="10.00">StructUtils/InstancedStruct.h</text>
</a>
</g>
</g>
<!-- Node13&#45;&gt;Node15 -->
<g id="edge21_Node000013_Node000015" class="edge">
<title>Node13&#45;&gt;Node15</title>
<g id="a_edge21_Node000013_Node000015"><a xlink:title=" ">
<path fill="none" stroke="#63b8ff" d="M499.43,-109.98C479.14,-101.38 447.56,-87.99 424.35,-78.15"/>
<polygon fill="#63b8ff" stroke="#63b8ff" points="425.54,-74.85 414.97,-74.17 422.81,-81.3 425.54,-74.85"/>
</a>
</g>
</g>
<!-- Node16 -->
<g id="Node000016" class="node">
<title>Node16</title>
<g id="a_Node000016"><a xlink:title=" ">
<polygon fill="#e0e0e0" stroke="#999999" points="654.52,-74 490.52,-74 490.52,-55 654.52,-55 654.52,-74"/>
<text text-anchor="middle" x="572.52" y="-62" font-family="Helvetica,sans-Serif" font-size="10.00">StructSerializable.generated.h</text>
</a>
</g>
</g>
<!-- Node13&#45;&gt;Node16 -->
<g id="edge22_Node000013_Node000016" class="edge">
<title>Node13&#45;&gt;Node16</title>
<g id="a_edge22_Node000013_Node000016"><a xlink:title=" ">
<path fill="none" stroke="#63b8ff" d="M528.27,-109.75C535.99,-102.03 547.42,-90.6 556.73,-81.28"/>
<polygon fill="#63b8ff" stroke="#63b8ff" points="559.33,-83.64 563.93,-74.09 554.38,-78.69 559.33,-83.64"/>
</a>
</g>
</g>
<!-- Node18&#45;&gt;Node2 -->
<g id="edge25_Node000018_Node000002" class="edge">
<title>Node18&#45;&gt;Node2</title>
<g id="a_edge25_Node000018_Node000002"><a xlink:title=" ">
<path fill="none" stroke="#63b8ff" d="M1136.63,-54.98C1105.14,-46.01 1055.35,-31.82 1020.49,-21.89"/>
<polygon fill="#63b8ff" stroke="#63b8ff" points="1021.21,-18.46 1010.64,-19.08 1019.29,-25.19 1021.21,-18.46"/>
</a>
</g>
</g>
<!-- Node19 -->
<g id="Node000019" class="node">
<title>Node19</title>
<g id="a_Node000019"><a xlink:title=" ">
<polygon fill="#e0e0e0" stroke="#999999" points="1222.02,-19 1043.02,-19 1043.02,0 1222.02,0 1222.02,-19"/>
<text text-anchor="middle" x="1132.52" y="-7" font-family="Helvetica,sans-Serif" font-size="10.00">ARInvaderDropTypes.generated.h</text>
</a>
</g>
</g>
<!-- Node18&#45;&gt;Node19 -->
<g id="edge26_Node000018_Node000019" class="edge">
<title>Node18&#45;&gt;Node19</title>
<g id="a_edge26_Node000018_Node000019"><a xlink:title=" ">
<path fill="none" stroke="#63b8ff" d="M1160.9,-54.75C1156.2,-47.42 1149.34,-36.73 1143.55,-27.7"/>
<polygon fill="#63b8ff" stroke="#63b8ff" points="1146.37,-25.62 1138.03,-19.09 1140.48,-29.4 1146.37,-25.62"/>
</a>
</g>
</g>
<!-- Node20&#45;&gt;Node2 -->
<g id="edge28_Node000020_Node000002" class="edge">
<title>Node20&#45;&gt;Node2</title>
<g id="a_edge28_Node000020_Node000002"><a xlink:title=" ">
<path fill="none" stroke="#63b8ff" d="M1416.23,-164.99C1373.94,-152.72 1293.29,-129.4 1224.52,-110 1166.82,-93.72 1149.99,-96.75 1094.52,-74 1076.53,-66.62 1031.44,-40.6 1003.65,-24.25"/>
<polygon fill="#63b8ff" stroke="#63b8ff" points="1005.35,-21.19 994.96,-19.11 1001.79,-27.21 1005.35,-21.19"/>
</a>
</g>
</g>
<!-- Node20&#45;&gt;Node7 -->
<g id="edge48_Node000020_Node000007" class="edge">
<title>Node20&#45;&gt;Node7</title>
<g id="a_edge48_Node000020_Node000007"><a xlink:title=" ">
<path fill="none" stroke="#63b8ff" d="M1406.78,-164.99C1367.19,-156.22 1303.98,-142.04 1249.52,-129 1175.83,-111.35 1090.38,-89.53 1040.31,-76.61"/>
<polygon fill="#63b8ff" stroke="#63b8ff" points="1041.04,-73.18 1030.48,-74.07 1039.28,-79.96 1041.04,-73.18"/>
</a>
</g>
</g>
<!-- Node20&#45;&gt;Node10 -->
<g id="edge33_Node000020_Node000010" class="edge">
<title>Node20&#45;&gt;Node10</title>
<g id="a_edge33_Node000020_Node000010"><a xlink:title=" ">
<path fill="none" stroke="#63b8ff" d="M1523.13,-164.98C1613.67,-154.87 1757.82,-138.24 1811.52,-129 1921.93,-109.99 1987.47,-161.44 2057.52,-74 2062.8,-67.41 2063.03,-61.4 2057.52,-55 2030,-23.05 1918.7,-13.71 1840.47,-11.16"/>
<polygon fill="#63b8ff" stroke="#63b8ff" points="1840.24,-7.65 1830.15,-10.86 1840.04,-14.65 1840.24,-7.65"/>
</a>
</g>
</g>
<!-- Node21 -->
<g id="Node000021" class="node">
<title>Node21</title>
<g id="a_Node000021"><a xlink:href="ARColorTypes_8h.html" target="_top" xlink:title="Shared gameplay color types used across enemies/players/rewards.">
<polygon fill="white" stroke="#666666" points="1378.52,-74 1286.52,-74 1286.52,-55 1378.52,-55 1378.52,-74"/>
<text text-anchor="middle" x="1332.52" y="-62" font-family="Helvetica,sans-Serif" font-size="10.00">ARColorTypes.h</text>
</a>
</g>
</g>
<!-- Node20&#45;&gt;Node21 -->
<g id="edge29_Node000020_Node000021" class="edge">
<title>Node20&#45;&gt;Node21</title>
<g id="a_edge29_Node000020_Node000021"><a xlink:title=" ">
<path fill="none" stroke="#63b8ff" d="M1429.19,-164.87C1414.85,-156.8 1393.93,-143.8 1378.52,-129 1364.14,-115.19 1351.15,-96.4 1342.68,-82.85"/>
<polygon fill="#63b8ff" stroke="#63b8ff" points="1345.52,-80.79 1337.35,-74.05 1339.54,-84.41 1345.52,-80.79"/>
</a>
</g>
</g>
<!-- Node23 -->
<g id="Node000023" class="node">
<title>Node23</title>
<g id="a_Node000023"><a xlink:title=" ">
<polygon fill="#e0e0e0" stroke="#999999" points="1898.52,-74 1788.52,-74 1788.52,-55 1898.52,-55 1898.52,-74"/>
<text text-anchor="middle" x="1843.52" y="-62" font-family="Helvetica,sans-Serif" font-size="10.00">Engine/DataTable.h</text>
</a>
</g>
</g>
<!-- Node20&#45;&gt;Node23 -->
<g id="edge32_Node000020_Node000023" class="edge">
<title>Node20&#45;&gt;Node23</title>
<g id="a_edge32_Node000020_Node000023"><a xlink:title=" ">
<path fill="none" stroke="#63b8ff" d="M1517.01,-164.98C1587.11,-156.13 1688.81,-141.8 1726.52,-129 1762.29,-116.86 1800.09,-94.33 1822.74,-79.63"/>
<polygon fill="#63b8ff" stroke="#63b8ff" points="1824.77,-82.48 1831.19,-74.05 1820.91,-76.64 1824.77,-82.48"/>
</a>
</g>
</g>
<!-- Node24 -->
<g id="Node000024" class="node">
<title>Node24</title>
<g id="a_Node000024"><a xlink:title=" ">
<polygon fill="#e0e0e0" stroke="#999999" points="2048.02,-74 1917.02,-74 1917.02,-55 2048.02,-55 2048.02,-74"/>
<text text-anchor="middle" x="1982.52" y="-62" font-family="Helvetica,sans-Serif" font-size="10.00">UObject/SoftObjectPtr.h</text>
</a>
</g>
</g>
<!-- Node20&#45;&gt;Node24 -->
<g id="edge34_Node000020_Node000024" class="edge">
<title>Node20&#45;&gt;Node24</title>
<g id="a_edge34_Node000020_Node000024"><a xlink:title=" ">
<path fill="none" stroke="#63b8ff" d="M1523.32,-165.62C1587.61,-158.37 1681.05,-146.14 1761.52,-129 1828.21,-114.8 1904.29,-91.28 1947.54,-77.2"/>
<polygon fill="#63b8ff" stroke="#63b8ff" points="1948.87,-80.44 1957.29,-74 1946.69,-73.79 1948.87,-80.44"/>
</a>
</g>
</g>
<!-- Node20&#45;&gt;Node25 -->
<g id="edge35_Node000020_Node000025" class="edge">
<title>Node20&#45;&gt;Node25</title>
<g id="a_edge35_Node000020_Node000025"><a xlink:title=" ">
<path fill="none" stroke="#63b8ff" d="M1444.53,-164.75C1443.74,-157.8 1442.61,-147.85 1441.63,-139.13"/>
<polygon fill="#63b8ff" stroke="#63b8ff" points="1445.09,-138.63 1440.49,-129.09 1438.14,-139.42 1445.09,-138.63"/>
</a>
</g>
</g>
<!-- Node30 -->
<g id="Node000030" class="node">
<title>Node30</title>
<g id="a_Node000030"><a xlink:title=" ">
<polygon fill="#e0e0e0" stroke="#999999" points="1717.52,-129 1509.52,-129 1509.52,-110 1717.52,-110 1717.52,-129"/>
<text text-anchor="middle" x="1613.52" y="-117" font-family="Helvetica,sans-Serif" font-size="10.00">ARInvaderSpicyTrackTypes.generated.h</text>
</a>
</g>
</g>
<!-- Node20&#45;&gt;Node30 -->
<g id="edge49_Node000020_Node000030" class="edge">
<title>Node20&#45;&gt;Node30</title>
<g id="a_edge49_Node000020_Node000030"><a xlink:title=" ">
<path fill="none" stroke="#63b8ff" d="M1472.51,-164.98C1500.71,-156.09 1545.16,-142.07 1576.6,-132.15"/>
<polygon fill="#63b8ff" stroke="#63b8ff" points="1577.83,-135.43 1586.31,-129.08 1575.72,-128.75 1577.83,-135.43"/>
</a>
</g>
</g>
<!-- Node21&#45;&gt;Node2 -->
<g id="edge30_Node000021_Node000002" class="edge">
<title>Node21&#45;&gt;Node2</title>
<g id="a_edge30_Node000021_Node000002"><a xlink:title=" ">
<path fill="none" stroke="#63b8ff" d="M1286.3,-56.71C1229.71,-48.38 1130.64,-33.71 1034.87,-19.04"/>
<polygon fill="#63b8ff" stroke="#63b8ff" points="1035.13,-15.54 1024.72,-17.49 1034.07,-22.46 1035.13,-15.54"/>
</a>
</g>
</g>
<!-- Node22 -->
<g id="Node000022" class="node">
<title>Node22</title>
<g id="a_Node000022"><a xlink:title=" ">
<polygon fill="#e0e0e0" stroke="#999999" points="1385.02,-19 1240.02,-19 1240.02,0 1385.02,0 1385.02,-19"/>
<text text-anchor="middle" x="1312.52" y="-7" font-family="Helvetica,sans-Serif" font-size="10.00">ARColorTypes.generated.h</text>
</a>
</g>
</g>
<!-- Node21&#45;&gt;Node22 -->
<g id="edge31_Node000021_Node000022" class="edge">
<title>Node21&#45;&gt;Node22</title>
<g id="a_edge31_Node000021_Node000022"><a xlink:title=" ">
<path fill="none" stroke="#63b8ff" d="M1329.21,-54.75C1326.54,-47.65 1322.67,-37.4 1319.33,-28.56"/>
<polygon fill="#63b8ff" stroke="#63b8ff" points="1322.56,-27.21 1315.76,-19.09 1316.01,-29.68 1322.56,-27.21"/>
</a>
</g>
</g>
<!-- Node25&#45;&gt;Node2 -->
<g id="edge36_Node000025_Node000002" class="edge">
<title>Node25&#45;&gt;Node2</title>
<g id="a_edge36_Node000025_Node000002"><a xlink:title=" ">
<path fill="none" stroke="#63b8ff" d="M1400.21,-109.98C1366.97,-102.24 1318.37,-89.65 1277.52,-74 1259.88,-67.24 1257.46,-60.88 1239.52,-55 1229.84,-51.83 1107.6,-31.42 1034.57,-19.37"/>
<polygon fill="#63b8ff" stroke="#63b8ff" points="1035.05,-15.9 1024.61,-17.73 1033.91,-22.81 1035.05,-15.9"/>
</a>
</g>
</g>
<!-- Node25&#45;&gt;Node10 -->
<g id="edge39_Node000025_Node000010" class="edge">
<title>Node25&#45;&gt;Node10</title>
<g id="a_edge39_Node000025_Node000010"><a xlink:title=" ">
<path fill="none" stroke="#63b8ff" d="M1491.62,-111.18C1577.4,-99.08 1739.16,-76.04 1741.52,-74 1754.29,-62.95 1758.66,-43.7 1760.07,-29.28"/>
<polygon fill="#63b8ff" stroke="#63b8ff" points="1763.58,-29.19 1760.66,-19.01 1756.59,-28.79 1763.58,-29.19"/>
</a>
</g>
</g>
<!-- Node25&#45;&gt;Node18 -->
<g id="edge38_Node000025_Node000018" class="edge">
<title>Node25&#45;&gt;Node18</title>
<g id="a_edge38_Node000025_Node000018"><a xlink:title=" ">
<path fill="none" stroke="#63b8ff" d="M1395.65,-109.98C1348.04,-100.74 1271.94,-85.97 1220.64,-76.01"/>
<polygon fill="#63b8ff" stroke="#63b8ff" points="1221.21,-72.55 1210.72,-74.08 1219.87,-79.42 1221.21,-72.55"/>
</a>
</g>
</g>
<!-- Node25&#45;&gt;Node21 -->
<g id="edge37_Node000025_Node000021" class="edge">
<title>Node25&#45;&gt;Node21</title>
<g id="a_edge37_Node000025_Node000021"><a xlink:title=" ">
<path fill="none" stroke="#63b8ff" d="M1422.33,-109.98C1405.27,-101.54 1378.89,-88.47 1359.12,-78.68"/>
<polygon fill="#63b8ff" stroke="#63b8ff" points="1360.54,-75.47 1350.02,-74.17 1357.43,-81.75 1360.54,-75.47"/>
</a>
</g>
</g>
<!-- Node25&#45;&gt;Node23 -->
<g id="edge40_Node000025_Node000023" class="edge">
<title>Node25&#45;&gt;Node23</title>
<g id="a_edge40_Node000025_Node000023"><a xlink:title=" ">
<path fill="none" stroke="#63b8ff" d="M1491.76,-111.19C1494.72,-110.78 1497.66,-110.38 1500.52,-110 1597.03,-97.02 1708.91,-82.62 1777.96,-73.82"/>
<polygon fill="#63b8ff" stroke="#63b8ff" points="1778.77,-77.24 1788.25,-72.51 1777.89,-70.3 1778.77,-77.24"/>
</a>
</g>
</g>
<!-- Node25&#45;&gt;Node24 -->
<g id="edge41_Node000025_Node000024" class="edge">
<title>Node25&#45;&gt;Node24</title>
<g id="a_edge41_Node000025_Node000024"><a xlink:title=" ">
<path fill="none" stroke="#63b8ff" d="M1491.74,-111.05C1494.71,-110.68 1497.65,-110.33 1500.52,-110 1677.69,-89.83 1725.14,-92.13 1906.53,-74.07"/>
<polygon fill="#63b8ff" stroke="#63b8ff" points="1907.08,-77.54 1916.68,-73.05 1906.38,-70.57 1907.08,-77.54"/>
</a>
</g>
</g>
<!-- Node26 -->
<g id="Node000026" class="node">
<title>Node26</title>
<g id="a_Node000026"><a xlink:href="ARAbilitySet_8h.html" target="_top" xlink:title="ARAbilitySet header for Alien Ramen.">
<polygon fill="white" stroke="#666666" points="1482.52,-74 1396.52,-74 1396.52,-55 1482.52,-55 1482.52,-74"/>
<text text-anchor="middle" x="1439.52" y="-62" font-family="Helvetica,sans-Serif" font-size="10.00">ARAbilitySet.h</text>
</a>
</g>
</g>
<!-- Node25&#45;&gt;Node26 -->
<g id="edge42_Node000025_Node000026" class="edge">
<title>Node25&#45;&gt;Node26</title>
<g id="a_edge42_Node000025_Node000026"><a xlink:title=" ">
<path fill="none" stroke="#63b8ff" d="M1439.52,-109.75C1439.52,-102.8 1439.52,-92.85 1439.52,-84.13"/>
<polygon fill="#63b8ff" stroke="#63b8ff" points="1443.02,-84.09 1439.52,-74.09 1436.02,-84.09 1443.02,-84.09"/>
</a>
</g>
</g>
<!-- Node29 -->
<g id="Node000029" class="node">
<title>Node29</title>
<g id="a_Node000029"><a xlink:title=" ">
<polygon fill="#e0e0e0" stroke="#999999" points="1732.52,-74 1576.52,-74 1576.52,-55 1732.52,-55 1732.52,-74"/>
<text text-anchor="middle" x="1654.52" y="-62" font-family="Helvetica,sans-Serif" font-size="10.00">ARInvaderTypes.generated.h</text>
</a>
</g>
</g>
<!-- Node25&#45;&gt;Node29 -->
<g id="edge47_Node000025_Node000029" class="edge">
<title>Node25&#45;&gt;Node29</title>
<g id="a_edge47_Node000025_Node000029"><a xlink:title=" ">
<path fill="none" stroke="#63b8ff" d="M1474.06,-109.98C1510.94,-100.89 1569.5,-86.46 1609.86,-76.51"/>
<polygon fill="#63b8ff" stroke="#63b8ff" points="1610.83,-79.87 1619.7,-74.08 1609.16,-73.08 1610.83,-79.87"/>
</a>
</g>
</g>
<!-- Node26&#45;&gt;Node2 -->
<g id="edge43_Node000026_Node000002" class="edge">
<title>Node26&#45;&gt;Node2</title>
<g id="a_edge43_Node000026_Node000002"><a xlink:title=" ">
<path fill="none" stroke="#63b8ff" d="M1396.42,-56.25C1393.41,-55.81 1390.42,-55.38 1387.52,-55 1234.39,-34.7 1192.61,-39.07 1034.76,-18.95"/>
<polygon fill="#63b8ff" stroke="#63b8ff" points="1035.06,-15.46 1024.69,-17.65 1034.16,-22.4 1035.06,-15.46"/>
</a>
</g>
</g>
<!-- Node26&#45;&gt;Node10 -->
<g id="edge45_Node000026_Node000010" class="edge">
<title>Node26&#45;&gt;Node10</title>
<g id="a_edge45_Node000026_Node000010"><a xlink:title=" ">
<path fill="none" stroke="#63b8ff" d="M1482.81,-56.35C1538.53,-47.15 1635.68,-31.11 1699.04,-20.65"/>
<polygon fill="#63b8ff" stroke="#63b8ff" points="1699.61,-24.1 1708.91,-19.02 1698.47,-17.2 1699.61,-24.1"/>
</a>
</g>
</g>
<!-- Node27 -->
<g id="Node000027" class="node">
<title>Node27</title>
<g id="a_Node000027"><a xlink:title=" ">
<polygon fill="#e0e0e0" stroke="#999999" points="1515.52,-19 1403.52,-19 1403.52,0 1515.52,0 1515.52,-19"/>
<text text-anchor="middle" x="1459.52" y="-7" font-family="Helvetica,sans-Serif" font-size="10.00">Engine/DataAsset.h</text>
</a>
</g>
</g>
<!-- Node26&#45;&gt;Node27 -->
<g id="edge44_Node000026_Node000027" class="edge">
<title>Node26&#45;&gt;Node27</title>
<g id="a_edge44_Node000026_Node000027"><a xlink:title=" ">
<path fill="none" stroke="#63b8ff" d="M1442.82,-54.75C1445.5,-47.65 1449.37,-37.4 1452.7,-28.56"/>
<polygon fill="#63b8ff" stroke="#63b8ff" points="1456.02,-29.68 1456.28,-19.09 1449.47,-27.21 1456.02,-29.68"/>
</a>
</g>
</g>
<!-- Node28 -->
<g id="Node000028" class="node">
<title>Node28</title>
<g id="a_Node000028"><a xlink:title=" ">
<polygon fill="#e0e0e0" stroke="#999999" points="1673.02,-19 1534.02,-19 1534.02,0 1673.02,0 1673.02,-19"/>
<text text-anchor="middle" x="1603.52" y="-7" font-family="Helvetica,sans-Serif" font-size="10.00">ARAbilitySet.generated.h</text>
</a>
</g>
</g>
<!-- Node26&#45;&gt;Node28 -->
<g id="edge46_Node000026_Node000028" class="edge">
<title>Node26&#45;&gt;Node28</title>
<g id="a_edge46_Node000026_Node000028"><a xlink:title=" ">
<path fill="none" stroke="#63b8ff" d="M1465.87,-54.98C1493.28,-46.13 1536.41,-32.19 1567.08,-22.28"/>
<polygon fill="#63b8ff" stroke="#63b8ff" points="1568.52,-25.49 1576.96,-19.08 1566.37,-18.83 1568.52,-25.49"/>
</a>
</g>
</g>
</g>
</svg>
