<?xml version="1.0" encoding="UTF-8" standalone="no"?>
<!DOCTYPE svg PUBLIC "-//W3C//DTD SVG 1.1//EN"
 "http://www.w3.org/Graphics/SVG/1.1/DTD/svg11.dtd">
<!-- Generated by graphviz version 2.43.0 (0)
 -->
<!-- Title: ARInvaderDirectorSettings.h Pages: 1 -->
<!--zoomable 82 -->

<svg id="main" version="1.1" xmlns="http://www.w3.org/2000/svg" xmlns:xlink="http://www.w3.org/1999/xlink" xml:space="preserve" onload="init(evt)">
<style type="text/css"><![CDATA[
.node, .edge {opacity: 0.7;}
.node.selected, .edge.selected {opacity: 1;}
.edge:hover path { stroke: red; }
.edge:hover polygon { stroke: red; fill: red; }
]]></style>

<defs>
  <circle id="rim" cx="0" cy="0" r="7"/>
  <circle id="rim2" cx="0" cy="0" r="3.5"/>
  <g id="zoomPlus">
    <use xlink:href="#rim" fill="#404040"><set attributeName="fill" to="#808080" begin="zoomplus.mouseover" end="zoomplus.mouseout"/></use>
    <path d="M-4,0h8M0,-4v8" fill="none" stroke="white" stroke-width="1.5" pointer-events="none"/>
  </g>
  <g id="zoomMin">
    <use xlink:href="#rim" fill="#404040"><set attributeName="fill" to="#808080" begin="zoomminus.mouseover" end="zoomminus.mouseout"/></use>
    <path d="M-4,0h8" fill="none" stroke="white" stroke-width="1.5" pointer-events="none"/>
  </g>
  <g id="arrowUp" transform="translate(30 24)">
    <use xlink:href="#rim"/>
    <path pointer-events="none" fill="none" stroke="white" stroke-width="1.5" d="M0,-3.0v7 M-2.5,-0.5L0,-3.0L2.5,-0.5"/>
  </g>
  <g id="arrowRight" transform="rotate(90) translate(36 -43)">
    <use xlink:href="#rim"/>
    <path pointer-events="none" fill="none" stroke="white" stroke-width="1.5" d="M0,-3.0v7 M-2.5,-0.5L0,-3.0L2.5,-0.5"/>
  </g>
  <g id="arrowDown" transform="rotate(180) translate(-30 -48)">
    <use xlink:href="#rim"/>
    <path pointer-events="none" fill="none" stroke="white" stroke-width="1.5" d="M0,-3.0v7 M-2.5,-0.5L0,-3.0L2.5,-0.5"/>
  </g>
  <g id="arrowLeft" transform="rotate(270) translate(-36 17)">
    <use xlink:href="#rim"/>
    <path pointer-events="none" fill="none" stroke="white" stroke-width="1.5" d="M0,-3.0v7 M-2.5,-0.5L0,-3.0L2.5,-0.5"/>
  </g>
  <g id="resetDef">
    <use xlink:href="#rim2" fill="#404040"><set attributeName="fill" to="#808080" begin="reset.mouseover" end="reset.mouseout"/></use>
  </g>
</defs>
<script type="application/ecmascript">
var viewWidth = 1415;
var viewHeight = 82;
var sectionId = 'dynsection-1';
</script>
<script type="application/ecmascript" xlink:href="svg.min.js"/>
<svg id="graph" class="graph">
<g id="viewport">
<title>ARInvaderDirectorSettings.h</title>
<!-- Node1 -->
<g id="Node000001" class="node">
<title>Node1</title>
<g id="a_Node000001"><a xlink:title="ARInvaderDirectorSettings header for Alien Ramen.">
<polygon fill="#999999" stroke="#666666" points="813.5,-74 658.5,-74 658.5,-55 813.5,-55 813.5,-74"/>
<text text-anchor="middle" x="736" y="-62" font-family="Helvetica,sans-Serif" font-size="10.00">ARInvaderDirectorSettings.h</text>
</a>
</g>
</g>
<!-- Node2 -->
<g id="Node000002" class="node">
<title>Node2</title>
<g id="a_Node000002"><a xlink:href="AREnemyBase_8cpp_source.html" target="_top" xlink:title=" ">
<polygon fill="white" stroke="#666666" points="108,-19 0,-19 0,0 108,0 108,-19"/>
<text text-anchor="middle" x="54" y="-7" font-family="Helvetica,sans-Serif" font-size="10.00">AREnemyBase.cpp</text>
</a>
</g>
</g>
<!-- Node1&#45;&gt;Node2 -->
<g id="edge1_Node000001_Node000002" class="edge">
<title>Node1&#45;&gt;Node2</title>
<g id="a_edge1_Node000001_Node000002"><a xlink:title=" ">
<path fill="none" stroke="#63b8ff" d="M647.93,-58.9C527.76,-52.23 305.75,-38.5 117,-19 114.15,-18.71 111.22,-18.38 108.27,-18.04"/>
<polygon fill="#63b8ff" stroke="#63b8ff" points="648,-62.41 658.18,-59.47 648.39,-55.42 648,-62.41"/>
</a>
</g>
</g>
<!-- Node3 -->
<g id="Node000003" class="node">
<title>Node3</title>
<g id="a_Node000003"><a xlink:href="AREnemyFacingLibrary_8cpp_source.html" target="_top" xlink:title=" ">
<polygon fill="white" stroke="#666666" points="273.5,-19 126.5,-19 126.5,0 273.5,0 273.5,-19"/>
<text text-anchor="middle" x="200" y="-7" font-family="Helvetica,sans-Serif" font-size="10.00">AREnemyFacingLibrary.cpp</text>
</a>
</g>
</g>
<!-- Node1&#45;&gt;Node3 -->
<g id="edge2_Node000001_Node000003" class="edge">
<title>Node1&#45;&gt;Node3</title>
<g id="a_edge2_Node000001_Node000003"><a xlink:title=" ">
<path fill="none" stroke="#63b8ff" d="M648.42,-55.06C556.98,-46.22 409.41,-31.85 282,-19 279.29,-18.73 276.54,-18.45 273.76,-18.16"/>
<polygon fill="#63b8ff" stroke="#63b8ff" points="648.18,-58.55 658.47,-56.03 648.85,-51.59 648.18,-58.55"/>
</a>
</g>
</g>
<!-- Node4 -->
<g id="Node000004" class="node">
<title>Node4</title>
<g id="a_Node000004"><a xlink:href="ARInvaderAuthoringPanel_8cpp_source.html" target="_top" xlink:title=" ">
<polygon fill="white" stroke="#666666" points="452.5,-19 291.5,-19 291.5,0 452.5,0 452.5,-19"/>
<text text-anchor="middle" x="372" y="-7" font-family="Helvetica,sans-Serif" font-size="10.00">ARInvaderAuthoringPanel.cpp</text>
</a>
</g>
</g>
<!-- Node1&#45;&gt;Node4 -->
<g id="edge3_Node000001_Node000004" class="edge">
<title>Node1&#45;&gt;Node4</title>
<g id="a_edge3_Node000001_Node000004"><a xlink:title=" ">
<path fill="none" stroke="#63b8ff" d="M667.28,-53.49C598.94,-43.54 495.22,-28.44 430.64,-19.04"/>
<polygon fill="#63b8ff" stroke="#63b8ff" points="667.12,-57.01 677.52,-54.98 668.13,-50.08 667.12,-57.01"/>
</a>
</g>
</g>
<!-- Node5 -->
<g id="Node000005" class="node">
<title>Node5</title>
<g id="a_Node000005"><a xlink:href="ARInvaderDirectorSubsystem_8cpp_source.html" target="_top" xlink:title=" ">
<polygon fill="white" stroke="#666666" points="651,-19 471,-19 471,0 651,0 651,-19"/>
<text text-anchor="middle" x="561" y="-7" font-family="Helvetica,sans-Serif" font-size="10.00">ARInvaderDirectorSubsystem.cpp</text>
</a>
</g>
</g>
<!-- Node1&#45;&gt;Node5 -->
<g id="edge4_Node000001_Node000005" class="edge">
<title>Node1&#45;&gt;Node5</title>
<g id="a_edge4_Node000001_Node000005"><a xlink:title=" ">
<path fill="none" stroke="#63b8ff" d="M698.21,-52.06C665.5,-42.15 618.93,-28.04 589.34,-19.08"/>
<polygon fill="#63b8ff" stroke="#63b8ff" points="697.3,-55.44 707.88,-54.98 699.33,-48.74 697.3,-55.44"/>
</a>
</g>
</g>
<!-- Node6 -->
<g id="Node000006" class="node">
<title>Node6</title>
<g id="a_Node000006"><a xlink:href="ARInvaderDropBase_8cpp_source.html" target="_top" xlink:title=" ">
<polygon fill="white" stroke="#666666" points="803,-19 669,-19 669,0 803,0 803,-19"/>
<text text-anchor="middle" x="736" y="-7" font-family="Helvetica,sans-Serif" font-size="10.00">ARInvaderDropBase.cpp</text>
</a>
</g>
</g>
<!-- Node1&#45;&gt;Node6 -->
<g id="edge5_Node000001_Node000006" class="edge">
<title>Node1&#45;&gt;Node6</title>
<g id="a_edge5_Node000001_Node000006"><a xlink:title=" ">
<path fill="none" stroke="#63b8ff" d="M736,-44.66C736,-35.93 736,-25.99 736,-19.09"/>
<polygon fill="#63b8ff" stroke="#63b8ff" points="732.5,-44.75 736,-54.75 739.5,-44.75 732.5,-44.75"/>
</a>
</g>
</g>
<!-- Node7 -->
<g id="Node000007" class="node">
<title>Node7</title>
<g id="a_Node000007"><a xlink:href="ARInvaderGameState_8cpp_source.html" target="_top" xlink:title=" ">
<polygon fill="white" stroke="#666666" points="963,-19 821,-19 821,0 963,0 963,-19"/>
<text text-anchor="middle" x="892" y="-7" font-family="Helvetica,sans-Serif" font-size="10.00">ARInvaderGameState.cpp</text>
</a>
</g>
</g>
<!-- Node1&#45;&gt;Node7 -->
<g id="edge6_Node000001_Node000007" class="edge">
<title>Node1&#45;&gt;Node7</title>
<g id="a_edge6_Node000001_Node000007"><a xlink:title=" ">
<path fill="none" stroke="#63b8ff" d="M770.82,-51.67C799.91,-41.79 840.7,-27.93 866.74,-19.08"/>
<polygon fill="#63b8ff" stroke="#63b8ff" points="769.41,-48.45 761.06,-54.98 771.66,-55.08 769.41,-48.45"/>
</a>
</g>
</g>
<!-- Node8 -->
<g id="Node000008" class="node">
<title>Node8</title>
<g id="a_Node000008"><a xlink:href="ARPickupBase_8cpp_source.html" target="_top" xlink:title=" ">
<polygon fill="white" stroke="#666666" points="1087,-19 981,-19 981,0 1087,0 1087,-19"/>
<text text-anchor="middle" x="1034" y="-7" font-family="Helvetica,sans-Serif" font-size="10.00">ARPickupBase.cpp</text>
</a>
</g>
</g>
<!-- Node1&#45;&gt;Node8 -->
<g id="edge7_Node000001_Node000008" class="edge">
<title>Node1&#45;&gt;Node8</title>
<g id="a_edge7_Node000001_Node000008"><a xlink:title=" ">
<path fill="none" stroke="#63b8ff" d="M793.98,-53.19C849.85,-43.25 933.4,-28.39 985.75,-19.08"/>
<polygon fill="#63b8ff" stroke="#63b8ff" points="793.11,-49.79 783.88,-54.98 794.34,-56.68 793.11,-49.79"/>
</a>
</g>
</g>
<!-- Node9 -->
<g id="Node000009" class="node">
<title>Node9</title>
<g id="a_Node000009"><a xlink:href="ARPlayerCharacterInvader_8cpp_source.html" target="_top" xlink:title=" ">
<polygon fill="white" stroke="#666666" points="1269,-19 1105,-19 1105,0 1269,0 1269,-19"/>
<text text-anchor="middle" x="1187" y="-7" font-family="Helvetica,sans-Serif" font-size="10.00">ARPlayerCharacterInvader.cpp</text>
</a>
</g>
</g>
<!-- Node1&#45;&gt;Node9 -->
<g id="edge8_Node000001_Node000009" class="edge">
<title>Node1&#45;&gt;Node9</title>
<g id="a_edge8_Node000001_Node000009"><a xlink:title=" ">
<path fill="none" stroke="#63b8ff" d="M818.55,-53.8C903.18,-43.85 1033.51,-28.54 1114.35,-19.04"/>
<polygon fill="#63b8ff" stroke="#63b8ff" points="817.98,-50.34 808.46,-54.98 818.8,-57.29 817.98,-50.34"/>
</a>
</g>
</g>
<!-- Node10 -->
<g id="Node000010" class="node">
<title>Node10</title>
<g id="a_Node000010"><a xlink:href="ARProjectileBase_8cpp_source.html" target="_top" xlink:title=" ">
<polygon fill="white" stroke="#666666" points="1407,-19 1287,-19 1287,0 1407,0 1407,-19"/>
<text text-anchor="middle" x="1347" y="-7" font-family="Helvetica,sans-Serif" font-size="10.00">ARProjectileBase.cpp</text>
</a>
</g>
</g>
<!-- Node1&#45;&gt;Node10 -->
<g id="edge9_Node000001_Node000010" class="edge">
<title>Node1&#45;&gt;Node10</title>
<g id="a_edge9_Node000001_Node000010"><a xlink:title=" ">
<path fill="none" stroke="#63b8ff" d="M823.86,-57.39C931.15,-49.67 1118.09,-35.41 1278,-19 1280.88,-18.7 1283.83,-18.39 1286.81,-18.06"/>
<polygon fill="#63b8ff" stroke="#63b8ff" points="823.45,-53.91 813.73,-58.12 823.95,-60.89 823.45,-53.91"/>
</a>
</g>
</g>
</g>
</svg>

<g id="navigator" transform="translate(0 0)" fill="#404254">
  <rect fill="#f2f5e9" fill-opacity="0.5" stroke="#606060" stroke-width=".5" x="0" y="0" width="60" height="60"/>
  <use id="zoomplus" xlink:href="#zoomPlus" x="17" y="9" onmousedown="handleZoom(evt,'in')"/>
  <use id="zoomminus" xlink:href="#zoomMin" x="42" y="9" onmousedown="handleZoom(evt,'out')"/>
  <use id="reset" xlink:href="#resetDef" x="30" y="36" onmousedown="handleReset()"/>
   <use id="arrowup" xlink:href="#arrowUp" x="0" y="0" onmousedown="handlePan(0,-1)"/>
  <use id="arrowright" xlink:href="#arrowRight" x="0" y="0" onmousedown="handlePan(1,0)"/>
  <use id="arrowdown" xlink:href="#arrowDown" x="0" y="0" onmousedown="handlePan(0,1)"/>
  <use id="arrowleft" xlink:href="#arrowLeft" x="0" y="0" onmousedown="handlePan(-1,0)"/>
</g>
<svg viewBox="0 0 15 15" width="100%" height="30px" preserveAspectRatio="xMaxYMin meet">
 <g id="arrow_out" transform="scale(0.3 0.3)">
  <a xlink:href="ARInvaderDirectorSettings_8h__dep__incl_org.svg" target="_base">
   <rect id="button" ry="5" rx="5" y="6" x="6" height="38" width="38"
        fill="#f2f5e9" fill-opacity="0.5" stroke="#606060" stroke-width="1.0"/>
   <path id="arrow"
     d="M 11.500037,31.436501 C 11.940474,20.09759 22.043105,11.32322 32.158766,21.979434 L 37.068811,17.246167 C 37.068811,17.246167 37.088388,32 37.088388,32 L 22.160133,31.978069 C 22.160133,31.978069 26.997745,27.140456 26.997745,27.140456 C 18.528582,18.264221 13.291696,25.230495 11.500037,31.436501 z"
     style="fill:#404040;"/>
  </a>
 </g>
</svg>

<style type='text/css'>
<![CDATA[
[data-mouse-over-selected='false'] { opacity: 0.7; }
[data-mouse-over-selected='true']  { opacity: 1.0; }
]]>
</style>
<script type="application/ecmascript"><![CDATA[
document.addEventListener('DOMContentLoaded', (event) => {
  highlightEdges();
  highlightAdjacentNodes();
});
]]></script>
</svg>
