<?xml version="1.0" encoding="UTF-8" standalone="no"?>
<!DOCTYPE svg PUBLIC "-//W3C//DTD SVG 1.1//EN"
 "http://www.w3.org/Graphics/SVG/1.1/DTD/svg11.dtd">
<!-- Generated by graphviz version 2.43.0 (0)
 -->
<!-- Title: ARLog.h Pages: 1 -->
<!--zoomable 137 -->

<svg id="main" version="1.1" xmlns="http://www.w3.org/2000/svg" xmlns:xlink="http://www.w3.org/1999/xlink" xml:space="preserve" onload="init(evt)">
<style type="text/css"><![CDATA[
.node, .edge {opacity: 0.7;}
.node.selected, .edge.selected {opacity: 1;}
.edge:hover path { stroke: red; }
.edge:hover polygon { stroke: red; fill: red; }
]]></style>

<defs>
  <circle id="rim" cx="0" cy="0" r="7"/>
  <circle id="rim2" cx="0" cy="0" r="3.5"/>
  <g id="zoomPlus">
    <use xlink:href="#rim" fill="#404040"><set attributeName="fill" to="#808080" begin="zoomplus.mouseover" end="zoomplus.mouseout"/></use>
    <path d="M-4,0h8M0,-4v8" fill="none" stroke="white" stroke-width="1.5" pointer-events="none"/>
  </g>
  <g id="zoomMin">
    <use xlink:href="#rim" fill="#404040"><set attributeName="fill" to="#808080" begin="zoomminus.mouseover" end="zoomminus.mouseout"/></use>
    <path d="M-4,0h8" fill="none" stroke="white" stroke-width="1.5" pointer-events="none"/>
  </g>
  <g id="arrowUp" transform="translate(30 24)">
    <use xlink:href="#rim"/>
    <path pointer-events="none" fill="none" stroke="white" stroke-width="1.5" d="M0,-3.0v7 M-2.5,-0.5L0,-3.0L2.5,-0.5"/>
  </g>
  <g id="arrowRight" transform="rotate(90) translate(36 -43)">
    <use xlink:href="#rim"/>
    <path pointer-events="none" fill="none" stroke="white" stroke-width="1.5" d="M0,-3.0v7 M-2.5,-0.5L0,-3.0L2.5,-0.5"/>
  </g>
  <g id="arrowDown" transform="rotate(180) translate(-30 -48)">
    <use xlink:href="#rim"/>
    <path pointer-events="none" fill="none" stroke="white" stroke-width="1.5" d="M0,-3.0v7 M-2.5,-0.5L0,-3.0L2.5,-0.5"/>
  </g>
  <g id="arrowLeft" transform="rotate(270) translate(-36 17)">
    <use xlink:href="#rim"/>
    <path pointer-events="none" fill="none" stroke="white" stroke-width="1.5" d="M0,-3.0v7 M-2.5,-0.5L0,-3.0L2.5,-0.5"/>
  </g>
  <g id="resetDef">
    <use xlink:href="#rim2" fill="#404040"><set attributeName="fill" to="#808080" begin="reset.mouseover" end="reset.mouseout"/></use>
  </g>
</defs>
<script type="application/ecmascript">
var viewWidth = 5164;
var viewHeight = 137;
var sectionId = 'dynsection-1';
</script>
<script type="application/ecmascript" xlink:href="svg.min.js"/>
<svg id="graph" class="graph">
<g id="viewport">
<title>ARLog.h</title>
<!-- Node1 -->
<g id="Node000001" class="node">
<title>Node1</title>
<g id="a_Node000001"><a xlink:title="ARLog header for Alien Ramen.">
<polygon fill="#999999" stroke="#666666" points="2719,-129 2663,-129 2663,-110 2719,-110 2719,-129"/>
<text text-anchor="middle" x="2691" y="-117" font-family="Helvetica,sans-Serif" font-size="10.00">ARLog.h</text>
</a>
</g>
</g>
<!-- Node2 -->
<g id="Node000002" class="node">
<title>Node2</title>
<g id="a_Node000002"><a xlink:href="ARAIControllerBase_8cpp_source.html" target="_top" xlink:title=" ">
<polygon fill="white" stroke="#666666" points="132,-74 0,-74 0,-55 132,-55 132,-74"/>
<text text-anchor="middle" x="66" y="-62" font-family="Helvetica,sans-Serif" font-size="10.00">ARAIControllerBase.cpp</text>
</a>
</g>
</g>
<!-- Node1&#45;&gt;Node2 -->
<g id="edge1_Node000001_Node000002" class="edge">
<title>Node1&#45;&gt;Node2</title>
<g id="a_edge1_Node000001_Node000002"><a xlink:title=" ">
<path fill="none" stroke="#63b8ff" d="M2652.74,-118.33C2374.66,-117.05 660.11,-107.87 141,-74 138.12,-73.81 135.19,-73.59 132.22,-73.35"/>
<polygon fill="#63b8ff" stroke="#63b8ff" points="2652.73,-121.83 2662.75,-118.38 2652.77,-114.83 2652.73,-121.83"/>
</a>
</g>
</g>
<!-- Node3 -->
<g id="Node000003" class="node">
<title>Node3</title>
<g id="a_Node000003"><a xlink:href="ARDialogueSubsystem_8cpp_source.html" target="_top" xlink:title=" ">
<polygon fill="white" stroke="#666666" points="298,-74 150,-74 150,-55 298,-55 298,-74"/>
<text text-anchor="middle" x="224" y="-62" font-family="Helvetica,sans-Serif" font-size="10.00">ARDialogueSubsystem.cpp</text>
</a>
</g>
</g>
<!-- Node1&#45;&gt;Node3 -->
<g id="edge2_Node000001_Node000003" class="edge">
<title>Node1&#45;&gt;Node3</title>
<g id="a_edge2_Node000001_Node000003"><a xlink:title=" ">
<path fill="none" stroke="#63b8ff" d="M2652.38,-118.21C2383.85,-116.16 791.53,-102.93 308,-74 304.78,-73.81 301.49,-73.59 298.18,-73.34"/>
<polygon fill="#63b8ff" stroke="#63b8ff" points="2652.75,-121.72 2662.78,-118.29 2652.81,-114.72 2652.75,-121.72"/>
</a>
</g>
</g>
<!-- Node4 -->
<g id="Node000004" class="node">
<title>Node4</title>
<g id="a_Node000004"><a xlink:href="AREnemyAIController_8cpp_source.html" target="_top" xlink:title=" ">
<polygon fill="white" stroke="#666666" points="457.5,-74 316.5,-74 316.5,-55 457.5,-55 457.5,-74"/>
<text text-anchor="middle" x="387" y="-62" font-family="Helvetica,sans-Serif" font-size="10.00">AREnemyAIController.cpp</text>
</a>
</g>
</g>
<!-- Node1&#45;&gt;Node4 -->
<g id="edge3_Node000001_Node000004" class="edge">
<title>Node1&#45;&gt;Node4</title>
<g id="a_edge3_Node000001_Node000004"><a xlink:title=" ">
<path fill="none" stroke="#63b8ff" d="M2652.57,-118.18C2395.04,-115.99 916.79,-102.34 467,-74 463.93,-73.81 460.8,-73.58 457.64,-73.34"/>
<polygon fill="#63b8ff" stroke="#63b8ff" points="2652.88,-121.69 2662.9,-118.27 2652.93,-114.69 2652.88,-121.69"/>
</a>
</g>
</g>
<!-- Node5 -->
<g id="Node000005" class="node">
<title>Node5</title>
<g id="a_Node000005"><a xlink:href="AREnemyAuthoringPanel_8cpp_source.html" target="_top" xlink:title=" ">
<polygon fill="white" stroke="#666666" points="634,-74 476,-74 476,-55 634,-55 634,-74"/>
<text text-anchor="middle" x="555" y="-62" font-family="Helvetica,sans-Serif" font-size="10.00">AREnemyAuthoringPanel.cpp</text>
</a>
</g>
</g>
<!-- Node1&#45;&gt;Node5 -->
<g id="edge4_Node000001_Node000005" class="edge">
<title>Node1&#45;&gt;Node5</title>
<g id="a_edge4_Node000001_Node000005"><a xlink:title=" ">
<path fill="none" stroke="#63b8ff" d="M2652.7,-118.73C2447.09,-119.75 1453.48,-121.88 643,-74 640.09,-73.83 637.12,-73.63 634.13,-73.42"/>
<polygon fill="#63b8ff" stroke="#63b8ff" points="2652.99,-122.23 2662.97,-118.68 2652.95,-115.23 2652.99,-122.23"/>
</a>
</g>
</g>
<!-- Node6 -->
<g id="Node000006" class="node">
<title>Node6</title>
<g id="a_Node000006"><a xlink:href="AREnemyBase_8cpp_source.html" target="_top" xlink:title=" ">
<polygon fill="white" stroke="#666666" points="760,-74 652,-74 652,-55 760,-55 760,-74"/>
<text text-anchor="middle" x="706" y="-62" font-family="Helvetica,sans-Serif" font-size="10.00">AREnemyBase.cpp</text>
</a>
</g>
</g>
<!-- Node1&#45;&gt;Node6 -->
<g id="edge5_Node000001_Node000006" class="edge">
<title>Node1&#45;&gt;Node6</title>
<g id="a_edge5_Node000001_Node000006"><a xlink:title=" ">
<path fill="none" stroke="#63b8ff" d="M2652.74,-118.18C2416.65,-116.14 1155.29,-103.96 770,-74 766.76,-73.75 763.43,-73.44 760.08,-73.1"/>
<polygon fill="#63b8ff" stroke="#63b8ff" points="2652.86,-121.68 2662.89,-118.27 2652.92,-114.68 2652.86,-121.68"/>
</a>
</g>
</g>
<!-- Node7 -->
<g id="Node000007" class="node">
<title>Node7</title>
<g id="a_Node000007"><a xlink:href="ARFactionSubsystem_8cpp_source.html" target="_top" xlink:title=" ">
<polygon fill="white" stroke="#666666" points="917.5,-74 778.5,-74 778.5,-55 917.5,-55 917.5,-74"/>
<text text-anchor="middle" x="848" y="-62" font-family="Helvetica,sans-Serif" font-size="10.00">ARFactionSubsystem.cpp</text>
</a>
</g>
</g>
<!-- Node1&#45;&gt;Node7 -->
<g id="edge6_Node000001_Node000007" class="edge">
<title>Node1&#45;&gt;Node7</title>
<g id="a_edge6_Node000001_Node000007"><a xlink:title=" ">
<path fill="none" stroke="#63b8ff" d="M2652.74,-118.7C2464.53,-119.42 1618.17,-119.82 927,-74 923.97,-73.8 920.88,-73.57 917.76,-73.32"/>
<polygon fill="#63b8ff" stroke="#63b8ff" points="2652.97,-122.19 2662.95,-118.65 2652.94,-115.2 2652.97,-122.19"/>
</a>
</g>
</g>
<!-- Node8 -->
<g id="Node000008" class="node">
<title>Node8</title>
<g id="a_Node000008"><a xlink:href="ARGameInstance_8cpp_source.html" target="_top" xlink:title=" ">
<polygon fill="white" stroke="#666666" points="1056.5,-74 935.5,-74 935.5,-55 1056.5,-55 1056.5,-74"/>
<text text-anchor="middle" x="996" y="-62" font-family="Helvetica,sans-Serif" font-size="10.00">ARGameInstance.cpp</text>
</a>
</g>
</g>
<!-- Node1&#45;&gt;Node8 -->
<g id="edge7_Node000001_Node000008" class="edge">
<title>Node1&#45;&gt;Node8</title>
<g id="a_edge7_Node000001_Node000008"><a xlink:title=" ">
<path fill="none" stroke="#63b8ff" d="M2652.63,-118.77C2473.15,-119.76 1698.65,-120.97 1066,-74 1062.95,-73.77 1059.82,-73.51 1056.67,-73.22"/>
<polygon fill="#63b8ff" stroke="#63b8ff" points="2652.89,-122.27 2662.87,-118.71 2652.85,-115.27 2652.89,-122.27"/>
</a>
</g>
</g>
<!-- Node9 -->
<g id="Node000009" class="node">
<title>Node9</title>
<g id="a_Node000009"><a xlink:href="ARGameModeBase_8cpp_source.html" target="_top" xlink:title=" ">
<polygon fill="white" stroke="#666666" points="1205.5,-74 1074.5,-74 1074.5,-55 1205.5,-55 1205.5,-74"/>
<text text-anchor="middle" x="1140" y="-62" font-family="Helvetica,sans-Serif" font-size="10.00">ARGameModeBase.cpp</text>
</a>
</g>
</g>
<!-- Node1&#45;&gt;Node9 -->
<g id="edge8_Node000001_Node000009" class="edge">
<title>Node1&#45;&gt;Node9</title>
<g id="a_edge8_Node000001_Node000009"><a xlink:title=" ">
<path fill="none" stroke="#63b8ff" d="M2652.66,-118.51C2483.34,-118.3 1785.78,-114.88 1215,-74 1211.99,-73.78 1208.92,-73.54 1205.82,-73.27"/>
<polygon fill="#63b8ff" stroke="#63b8ff" points="2652.81,-122.01 2662.81,-118.52 2652.82,-115.01 2652.81,-122.01"/>
</a>
</g>
</g>
<!-- Node10 -->
<g id="Node000010" class="node">
<title>Node10</title>
<g id="a_Node000010"><a xlink:href="ARGameStateBase_8cpp_source.html" target="_top" xlink:title=" ">
<polygon fill="white" stroke="#666666" points="1352.5,-74 1223.5,-74 1223.5,-55 1352.5,-55 1352.5,-74"/>
<text text-anchor="middle" x="1288" y="-62" font-family="Helvetica,sans-Serif" font-size="10.00">ARGameStateBase.cpp</text>
</a>
</g>
</g>
<!-- Node1&#45;&gt;Node10 -->
<g id="edge9_Node000001_Node000010" class="edge">
<title>Node1&#45;&gt;Node10</title>
<g id="a_edge9_Node000001_Node000010"><a xlink:title=" ">
<path fill="none" stroke="#63b8ff" d="M2652.69,-118.35C2493.89,-117.49 1871.75,-111.75 1362,-74 1358.9,-73.77 1355.74,-73.51 1352.54,-73.23"/>
<polygon fill="#63b8ff" stroke="#63b8ff" points="2652.88,-121.85 2662.9,-118.4 2652.92,-114.85 2652.88,-121.85"/>
</a>
</g>
</g>
<!-- Node11 -->
<g id="Node000011" class="node">
<title>Node11</title>
<g id="a_Node000011"><a xlink:href="ARInvaderAuthoringPanel_8cpp_source.html" target="_top" xlink:title=" ">
<polygon fill="white" stroke="#666666" points="1531.5,-74 1370.5,-74 1370.5,-55 1531.5,-55 1531.5,-74"/>
<text text-anchor="middle" x="1451" y="-62" font-family="Helvetica,sans-Serif" font-size="10.00">ARInvaderAuthoringPanel.cpp</text>
</a>
</g>
</g>
<!-- Node1&#45;&gt;Node11 -->
<g id="edge10_Node000001_Node000011" class="edge">
<title>Node1&#45;&gt;Node11</title>
<g id="a_edge10_Node000001_Node000011"><a xlink:title=" ">
<path fill="none" stroke="#63b8ff" d="M2652.79,-117.79C2507.72,-114.94 1977.15,-103.01 1541,-74 1538.02,-73.8 1535,-73.59 1531.94,-73.36"/>
<polygon fill="#63b8ff" stroke="#63b8ff" points="2652.88,-121.29 2662.95,-117.99 2653.02,-114.29 2652.88,-121.29"/>
</a>
</g>
</g>
<!-- Node12 -->
<g id="Node000012" class="node">
<title>Node12</title>
<g id="a_Node000012"><a xlink:href="ARInvaderDirectorSubsystem_8cpp_source.html" target="_top" xlink:title=" ">
<polygon fill="white" stroke="#666666" points="1730,-74 1550,-74 1550,-55 1730,-55 1730,-74"/>
<text text-anchor="middle" x="1640" y="-62" font-family="Helvetica,sans-Serif" font-size="10.00">ARInvaderDirectorSubsystem.cpp</text>
</a>
</g>
</g>
<!-- Node1&#45;&gt;Node12 -->
<g id="edge11_Node000001_Node000012" class="edge">
<title>Node1&#45;&gt;Node12</title>
<g id="a_edge11_Node000001_Node000012"><a xlink:title=" ">
<path fill="none" stroke="#63b8ff" d="M2652.8,-117.25C2524.01,-112.92 2093.89,-97.52 1739,-74 1736.07,-73.81 1733.1,-73.6 1730.1,-73.39"/>
<polygon fill="#63b8ff" stroke="#63b8ff" points="2652.83,-120.75 2662.94,-117.59 2653.06,-113.76 2652.83,-120.75"/>
</a>
</g>
</g>
<!-- Node13 -->
<g id="Node000013" class="node">
<title>Node13</title>
<g id="a_Node000013"><a xlink:href="ARInvaderDropBase_8cpp_source.html" target="_top" xlink:title=" ">
<polygon fill="white" stroke="#666666" points="1882,-74 1748,-74 1748,-55 1882,-55 1882,-74"/>
<text text-anchor="middle" x="1815" y="-62" font-family="Helvetica,sans-Serif" font-size="10.00">ARInvaderDropBase.cpp</text>
</a>
</g>
</g>
<!-- Node1&#45;&gt;Node13 -->
<g id="edge12_Node000001_Node000013" class="edge">
<title>Node1&#45;&gt;Node13</title>
<g id="a_edge12_Node000001_Node000013"><a xlink:title=" ">
<path fill="none" stroke="#63b8ff" d="M2652.9,-117.14C2537.83,-112.86 2183.71,-98.49 1891,-74 1888.09,-73.76 1885.12,-73.49 1882.12,-73.21"/>
<polygon fill="#63b8ff" stroke="#63b8ff" points="2652.85,-120.64 2662.97,-117.51 2653.11,-113.64 2652.85,-120.64"/>
</a>
</g>
</g>
<!-- Node14 -->
<g id="Node000014" class="node">
<title>Node14</title>
<g id="a_Node000014"><a xlink:href="ARInvaderGameState_8cpp_source.html" target="_top" xlink:title=" ">
<polygon fill="white" stroke="#666666" points="2042,-74 1900,-74 1900,-55 2042,-55 2042,-74"/>
<text text-anchor="middle" x="1971" y="-62" font-family="Helvetica,sans-Serif" font-size="10.00">ARInvaderGameState.cpp</text>
</a>
</g>
</g>
<!-- Node1&#45;&gt;Node14 -->
<g id="edge13_Node000001_Node000014" class="edge">
<title>Node1&#45;&gt;Node14</title>
<g id="a_edge13_Node000001_Node000014"><a xlink:title=" ">
<path fill="none" stroke="#63b8ff" d="M2652.81,-116.31C2553.61,-110.51 2279.68,-93.87 2052,-74 2048.76,-73.72 2045.45,-73.42 2042.1,-73.1"/>
<polygon fill="#63b8ff" stroke="#63b8ff" points="2652.76,-119.81 2662.94,-116.9 2653.16,-112.82 2652.76,-119.81"/>
</a>
</g>
</g>
<!-- Node15 -->
<g id="Node000015" class="node">
<title>Node15</title>
<g id="a_Node000015"><a xlink:href="ARInvaderPlayerController_8cpp_source.html" target="_top" xlink:title=" ">
<polygon fill="white" stroke="#666666" points="2225.5,-74 2060.5,-74 2060.5,-55 2225.5,-55 2225.5,-74"/>
<text text-anchor="middle" x="2143" y="-62" font-family="Helvetica,sans-Serif" font-size="10.00">ARInvaderPlayerController.cpp</text>
</a>
</g>
</g>
<!-- Node1&#45;&gt;Node15 -->
<g id="edge14_Node000001_Node000015" class="edge">
<title>Node1&#45;&gt;Node15</title>
<g id="a_edge14_Node000001_Node000015"><a xlink:title=" ">
<path fill="none" stroke="#63b8ff" d="M2652.6,-114.79C2564.43,-106.26 2345.86,-85.12 2225.59,-73.49"/>
<polygon fill="#63b8ff" stroke="#63b8ff" points="2652.4,-118.28 2662.69,-115.76 2653.07,-111.32 2652.4,-118.28"/>
</a>
</g>
</g>
<!-- Node16 -->
<g id="Node000016" class="node">
<title>Node16</title>
<g id="a_Node000016"><a xlink:href="ARInvaderRuntimeStateComponent_8cpp_source.html" target="_top" xlink:title=" ">
<polygon fill="white" stroke="#666666" points="2454,-74 2244,-74 2244,-55 2454,-55 2454,-74"/>
<text text-anchor="middle" x="2349" y="-62" font-family="Helvetica,sans-Serif" font-size="10.00">ARInvaderRuntimeStateComponent.cpp</text>
</a>
</g>
</g>
<!-- Node1&#45;&gt;Node16 -->
<g id="edge15_Node000001_Node000016" class="edge">
<title>Node1&#45;&gt;Node16</title>
<g id="a_edge15_Node000001_Node000016"><a xlink:title=" ">
<path fill="none" stroke="#63b8ff" d="M2652.81,-112.58C2592.2,-103.19 2473.75,-84.83 2404,-74.02"/>
<polygon fill="#63b8ff" stroke="#63b8ff" points="2652.3,-116.04 2662.72,-114.12 2653.38,-109.13 2652.3,-116.04"/>
</a>
</g>
</g>
<!-- Node17 -->
<g id="Node000017" class="node">
<title>Node17</title>
<g id="a_Node000017"><a xlink:href="ARLoadoutSettings_8cpp_source.html" target="_top" xlink:title=" ">
<polygon fill="white" stroke="#666666" points="2601.5,-74 2472.5,-74 2472.5,-55 2601.5,-55 2601.5,-74"/>
<text text-anchor="middle" x="2537" y="-62" font-family="Helvetica,sans-Serif" font-size="10.00">ARLoadoutSettings.cpp</text>
</a>
</g>
</g>
<!-- Node1&#45;&gt;Node17 -->
<g id="edge16_Node000001_Node000017" class="edge">
<title>Node1&#45;&gt;Node17</title>
<g id="a_edge16_Node000001_Node000017"><a xlink:title=" ">
<path fill="none" stroke="#63b8ff" d="M2656.62,-106.67C2627.91,-96.79 2587.64,-82.93 2561.94,-74.08"/>
<polygon fill="#63b8ff" stroke="#63b8ff" points="2655.66,-110.04 2666.26,-109.98 2657.94,-103.42 2655.66,-110.04"/>
</a>
</g>
</g>
<!-- Node18 -->
<g id="Node000018" class="node">
<title>Node18</title>
<g id="a_Node000018"><a xlink:href="ARNPCCharacterBase_8cpp_source.html" target="_top" xlink:title=" ">
<polygon fill="white" stroke="#666666" points="2762,-74 2620,-74 2620,-55 2762,-55 2762,-74"/>
<text text-anchor="middle" x="2691" y="-62" font-family="Helvetica,sans-Serif" font-size="10.00">ARNPCCharacterBase.cpp</text>
</a>
</g>
</g>
<!-- Node1&#45;&gt;Node18 -->
<g id="edge17_Node000001_Node000018" class="edge">
<title>Node1&#45;&gt;Node18</title>
<g id="a_edge17_Node000001_Node000018"><a xlink:title=" ">
<path fill="none" stroke="#63b8ff" d="M2691,-99.66C2691,-90.93 2691,-80.99 2691,-74.09"/>
<polygon fill="#63b8ff" stroke="#63b8ff" points="2687.5,-99.75 2691,-109.75 2694.5,-99.75 2687.5,-99.75"/>
</a>
</g>
</g>
<!-- Node19 -->
<g id="Node000019" class="node">
<title>Node19</title>
<g id="a_Node000019"><a xlink:href="ARNPCSubsystem_8cpp_source.html" target="_top" xlink:title=" ">
<polygon fill="white" stroke="#666666" points="2905.5,-74 2780.5,-74 2780.5,-55 2905.5,-55 2905.5,-74"/>
<text text-anchor="middle" x="2843" y="-62" font-family="Helvetica,sans-Serif" font-size="10.00">ARNPCSubsystem.cpp</text>
</a>
</g>
</g>
<!-- Node1&#45;&gt;Node19 -->
<g id="edge18_Node000001_Node000019" class="edge">
<title>Node1&#45;&gt;Node19</title>
<g id="a_edge18_Node000001_Node000019"><a xlink:title=" ">
<path fill="none" stroke="#63b8ff" d="M2724.93,-106.67C2753.27,-96.79 2793.02,-82.93 2818.39,-74.08"/>
<polygon fill="#63b8ff" stroke="#63b8ff" points="2723.71,-103.39 2715.42,-109.98 2726.02,-110 2723.71,-103.39"/>
</a>
</g>
</g>
<!-- Node20 -->
<g id="Node000020" class="node">
<title>Node20</title>
<g id="a_Node000020"><a xlink:href="ARPickupBase_8cpp_source.html" target="_top" xlink:title=" ">
<polygon fill="white" stroke="#666666" points="3030,-74 2924,-74 2924,-55 3030,-55 3030,-74"/>
<text text-anchor="middle" x="2977" y="-62" font-family="Helvetica,sans-Serif" font-size="10.00">ARPickupBase.cpp</text>
</a>
</g>
</g>
<!-- Node1&#45;&gt;Node20 -->
<g id="edge19_Node000001_Node000020" class="edge">
<title>Node1&#45;&gt;Node20</title>
<g id="a_edge19_Node000001_Node000020"><a xlink:title=" ">
<path fill="none" stroke="#63b8ff" d="M2729.07,-111.45C2781.25,-101.77 2874.92,-84.42 2930.98,-74.03"/>
<polygon fill="#63b8ff" stroke="#63b8ff" points="2728.4,-108.01 2719.21,-113.27 2729.68,-114.89 2728.4,-108.01"/>
</a>
</g>
</g>
<!-- Node21 -->
<g id="Node000021" class="node">
<title>Node21</title>
<g id="a_Node000021"><a xlink:href="ARPlayerCharacterInvader_8cpp_source.html" target="_top" xlink:title=" ">
<polygon fill="white" stroke="#666666" points="3212,-74 3048,-74 3048,-55 3212,-55 3212,-74"/>
<text text-anchor="middle" x="3130" y="-62" font-family="Helvetica,sans-Serif" font-size="10.00">ARPlayerCharacterInvader.cpp</text>
</a>
</g>
</g>
<!-- Node1&#45;&gt;Node21 -->
<g id="edge20_Node000001_Node000021" class="edge">
<title>Node1&#45;&gt;Node21</title>
<g id="a_edge20_Node000001_Node000021"><a xlink:title=" ">
<path fill="none" stroke="#63b8ff" d="M2729.34,-113.87C2803.01,-104.98 2965.38,-85.37 3059.23,-74.04"/>
<polygon fill="#63b8ff" stroke="#63b8ff" points="2728.64,-110.43 2719.13,-115.1 2729.48,-117.38 2728.64,-110.43"/>
</a>
</g>
</g>
<!-- Node22 -->
<g id="Node000022" class="node">
<title>Node22</title>
<g id="a_Node000022"><a xlink:href="ARPlayerController_8cpp_source.html" target="_top" xlink:title=" ">
<polygon fill="white" stroke="#666666" points="3358,-74 3230,-74 3230,-55 3358,-55 3358,-74"/>
<text text-anchor="middle" x="3294" y="-62" font-family="Helvetica,sans-Serif" font-size="10.00">ARPlayerController.cpp</text>
</a>
</g>
</g>
<!-- Node1&#45;&gt;Node22 -->
<g id="edge21_Node000001_Node000022" class="edge">
<title>Node1&#45;&gt;Node22</title>
<g id="a_edge21_Node000001_Node000022"><a xlink:title=" ">
<path fill="none" stroke="#63b8ff" d="M2729.41,-115.7C2816.79,-109.24 3037.1,-92.42 3221,-74 3223.92,-73.71 3226.9,-73.4 3229.92,-73.08"/>
<polygon fill="#63b8ff" stroke="#63b8ff" points="2728.9,-112.23 2719.18,-116.45 2729.41,-119.21 2728.9,-112.23"/>
</a>
</g>
</g>
<!-- Node23 -->
<g id="Node000023" class="node">
<title>Node23</title>
<g id="a_Node000023"><a xlink:href="ARPlayerStateBase_8cpp_source.html" target="_top" xlink:title=" ">
<polygon fill="white" stroke="#666666" points="3507.5,-74 3376.5,-74 3376.5,-55 3507.5,-55 3507.5,-74"/>
<text text-anchor="middle" x="3442" y="-62" font-family="Helvetica,sans-Serif" font-size="10.00">ARPlayerStateBase.cpp</text>
</a>
</g>
</g>
<!-- Node1&#45;&gt;Node23 -->
<g id="edge22_Node000001_Node000023" class="edge">
<title>Node1&#45;&gt;Node23</title>
<g id="a_edge22_Node000001_Node000023"><a xlink:title=" ">
<path fill="none" stroke="#63b8ff" d="M2729.27,-116.61C2832.39,-111.4 3124.59,-95.7 3367,-74 3370,-73.73 3373.07,-73.44 3376.17,-73.14"/>
<polygon fill="#63b8ff" stroke="#63b8ff" points="2728.86,-113.13 2719.05,-117.13 2729.21,-120.12 2728.86,-113.13"/>
</a>
</g>
</g>
<!-- Node24 -->
<g id="Node000024" class="node">
<title>Node24</title>
<g id="a_Node000024"><a xlink:href="ARProjectileBase_8cpp_source.html" target="_top" xlink:title=" ">
<polygon fill="white" stroke="#666666" points="3646,-74 3526,-74 3526,-55 3646,-55 3646,-74"/>
<text text-anchor="middle" x="3586" y="-62" font-family="Helvetica,sans-Serif" font-size="10.00">ARProjectileBase.cpp</text>
</a>
</g>
</g>
<!-- Node1&#45;&gt;Node24 -->
<g id="edge23_Node000001_Node000024" class="edge">
<title>Node1&#45;&gt;Node24</title>
<g id="a_edge23_Node000001_Node000024"><a xlink:title=" ">
<path fill="none" stroke="#63b8ff" d="M2729.53,-117.37C2847.53,-113.69 3214.24,-100.77 3517,-74 3519.89,-73.74 3522.84,-73.46 3525.82,-73.16"/>
<polygon fill="#63b8ff" stroke="#63b8ff" points="2729.11,-113.88 2719.22,-117.68 2729.32,-120.87 2729.11,-113.88"/>
</a>
</g>
</g>
<!-- Node25 -->
<g id="Node000025" class="node">
<title>Node25</title>
<g id="a_Node000025"><a xlink:href="ARSaveSubsystem_8cpp_source.html" target="_top" xlink:title=" ">
<polygon fill="white" stroke="#666666" points="3792,-74 3664,-74 3664,-55 3792,-55 3792,-74"/>
<text text-anchor="middle" x="3728" y="-62" font-family="Helvetica,sans-Serif" font-size="10.00">ARSaveSubsystem.cpp</text>
</a>
</g>
</g>
<!-- Node1&#45;&gt;Node25 -->
<g id="edge24_Node000001_Node000025" class="edge">
<title>Node1&#45;&gt;Node25</title>
<g id="a_edge24_Node000001_Node000025"><a xlink:title=" ">
<path fill="none" stroke="#63b8ff" d="M2729.27,-117.69C2859.24,-114.75 3295.64,-103.18 3655,-74 3657.92,-73.76 3660.91,-73.5 3663.93,-73.22"/>
<polygon fill="#63b8ff" stroke="#63b8ff" points="2728.96,-114.2 2719.04,-117.92 2729.12,-121.2 2728.96,-114.2"/>
</a>
</g>
</g>
<!-- Node26 -->
<g id="Node000026" class="node">
<title>Node26</title>
<g id="a_Node000026"><a xlink:href="ARSessionSubsystem_8cpp_source.html" target="_top" xlink:title=" ">
<polygon fill="white" stroke="#666666" points="3952,-74 3810,-74 3810,-55 3952,-55 3952,-74"/>
<text text-anchor="middle" x="3881" y="-62" font-family="Helvetica,sans-Serif" font-size="10.00">ARSessionSubsystem.cpp</text>
</a>
</g>
</g>
<!-- Node1&#45;&gt;Node26 -->
<g id="edge25_Node000001_Node000026" class="edge">
<title>Node1&#45;&gt;Node26</title>
<g id="a_edge25_Node000001_Node000026"><a xlink:title=" ">
<path fill="none" stroke="#63b8ff" d="M2729.74,-117.87C2872.41,-115.35 3382.01,-104.62 3801,-74 3803.93,-73.79 3806.91,-73.55 3809.92,-73.3"/>
<polygon fill="#63b8ff" stroke="#63b8ff" points="2729.28,-114.38 2719.34,-118.05 2729.4,-121.38 2729.28,-114.38"/>
</a>
</g>
</g>
<!-- Node27 -->
<g id="Node000027" class="node">
<title>Node27</title>
<g id="a_Node000027"><a xlink:href="ARShopGameMode_8cpp_source.html" target="_top" xlink:title=" ">
<polygon fill="white" stroke="#666666" points="4101.5,-74 3970.5,-74 3970.5,-55 4101.5,-55 4101.5,-74"/>
<text text-anchor="middle" x="4036" y="-62" font-family="Helvetica,sans-Serif" font-size="10.00">ARShopGameMode.cpp</text>
</a>
</g>
</g>
<!-- Node1&#45;&gt;Node27 -->
<g id="edge26_Node000001_Node000027" class="edge">
<title>Node1&#45;&gt;Node27</title>
<g id="a_edge26_Node000001_Node000027"><a xlink:title=" ">
<path fill="none" stroke="#63b8ff" d="M2729.59,-118.24C2884.47,-116.98 3475.95,-109.93 3961,-74 3964.01,-73.78 3967.08,-73.53 3970.18,-73.25"/>
<polygon fill="#63b8ff" stroke="#63b8ff" points="2729.17,-114.75 2719.2,-118.32 2729.23,-121.75 2729.17,-114.75"/>
</a>
</g>
</g>
<!-- Node28 -->
<g id="Node000028" class="node">
<title>Node28</title>
<g id="a_Node000028"><a xlink:href="ARStateTreeAIComponent_8cpp_source.html" target="_top" xlink:title=" ">
<polygon fill="white" stroke="#666666" points="4282,-74 4120,-74 4120,-55 4282,-55 4282,-74"/>
<text text-anchor="middle" x="4201" y="-62" font-family="Helvetica,sans-Serif" font-size="10.00">ARStateTreeAIComponent.cpp</text>
</a>
</g>
</g>
<!-- Node1&#45;&gt;Node28 -->
<g id="edge27_Node000001_Node000028" class="edge">
<title>Node1&#45;&gt;Node28</title>
<g id="a_edge27_Node000001_Node000028"><a xlink:title=" ">
<path fill="none" stroke="#63b8ff" d="M2729.2,-118.18C2894.3,-116.63 3563.01,-108.43 4111,-74 4113.82,-73.82 4116.69,-73.63 4119.58,-73.42"/>
<polygon fill="#63b8ff" stroke="#63b8ff" points="2729.02,-114.68 2719.06,-118.28 2729.09,-121.68 2729.02,-114.68"/>
</a>
</g>
</g>
<!-- Node29 -->
<g id="Node000029" class="node">
<title>Node29</title>
<g id="a_Node000029"><a xlink:href="AlienRamen_8h_source.html" target="_top" xlink:title=" ">
<polygon fill="white" stroke="#666666" points="4385.5,-74 4300.5,-74 4300.5,-55 4385.5,-55 4385.5,-74"/>
<text text-anchor="middle" x="4343" y="-62" font-family="Helvetica,sans-Serif" font-size="10.00">AlienRamen.h</text>
</a>
</g>
</g>
<!-- Node1&#45;&gt;Node29 -->
<g id="edge28_Node000001_Node000029" class="edge">
<title>Node1&#45;&gt;Node29</title>
<g id="a_edge28_Node000001_Node000029"><a xlink:title=" ">
<path fill="none" stroke="#63b8ff" d="M2729.02,-118.14C2940.49,-116.01 3973.73,-104.2 4291,-74 4294.1,-73.71 4297.29,-73.34 4300.49,-72.93"/>
<polygon fill="#63b8ff" stroke="#63b8ff" points="2728.98,-114.64 2719.02,-118.24 2729.05,-121.64 2728.98,-114.64"/>
</a>
</g>
</g>
<!-- Node31 -->
<g id="Node000031" class="node">
<title>Node31</title>
<g id="a_Node000031"><a xlink:href="AlienRamenEditorModule_8cpp_source.html" target="_top" xlink:title=" ">
<polygon fill="white" stroke="#666666" points="4564.5,-74 4403.5,-74 4403.5,-55 4564.5,-55 4564.5,-74"/>
<text text-anchor="middle" x="4484" y="-62" font-family="Helvetica,sans-Serif" font-size="10.00">AlienRamenEditorModule.cpp</text>
</a>
</g>
</g>
<!-- Node1&#45;&gt;Node31 -->
<g id="edge30_Node000001_Node000031" class="edge">
<title>Node1&#45;&gt;Node31</title>
<g id="a_edge30_Node000001_Node000031"><a xlink:title=" ">
<path fill="none" stroke="#63b8ff" d="M2729.14,-118.48C2913.26,-118.17 3728.54,-114.48 4395,-74 4397.79,-73.83 4400.63,-73.64 4403.49,-73.44"/>
<polygon fill="#63b8ff" stroke="#63b8ff" points="2729.13,-114.98 2719.14,-118.49 2729.14,-121.98 2729.13,-114.98"/>
</a>
</g>
</g>
<!-- Node32 -->
<g id="Node000032" class="node">
<title>Node32</title>
<g id="a_Node000032"><a xlink:href="ContentLookupSubsystem_8cpp_source.html" target="_top" xlink:title=" ">
<polygon fill="white" stroke="#666666" points="4747,-74 4583,-74 4583,-55 4747,-55 4747,-74"/>
<text text-anchor="middle" x="4665" y="-62" font-family="Helvetica,sans-Serif" font-size="10.00">ContentLookupSubsystem.cpp</text>
</a>
</g>
</g>
<!-- Node1&#45;&gt;Node32 -->
<g id="edge31_Node000001_Node000032" class="edge">
<title>Node1&#45;&gt;Node32</title>
<g id="a_edge31_Node000001_Node000032"><a xlink:title=" ">
<path fill="none" stroke="#63b8ff" d="M2729.3,-118.58C2924.99,-118.8 3832.74,-117.33 4574,-74 4576.85,-73.83 4579.75,-73.65 4582.68,-73.45"/>
<polygon fill="#63b8ff" stroke="#63b8ff" points="2729.23,-115.08 2719.23,-118.57 2729.22,-122.08 2729.23,-115.08"/>
</a>
</g>
</g>
<!-- Node33 -->
<g id="Node000033" class="node">
<title>Node33</title>
<g id="a_Node000033"><a xlink:href="HelperLibrary_8cpp_source.html" target="_top" xlink:title=" ">
<polygon fill="white" stroke="#666666" points="4866.5,-74 4765.5,-74 4765.5,-55 4866.5,-55 4866.5,-74"/>
<text text-anchor="middle" x="4816" y="-62" font-family="Helvetica,sans-Serif" font-size="10.00">HelperLibrary.cpp</text>
</a>
</g>
</g>
<!-- Node1&#45;&gt;Node33 -->
<g id="edge32_Node000001_Node000033" class="edge">
<title>Node1&#45;&gt;Node33</title>
<g id="a_edge32_Node000001_Node000033"><a xlink:title=" ">
<path fill="none" stroke="#63b8ff" d="M2729.37,-118.3C2975.93,-116.91 4340.43,-107.79 4756,-74 4759.04,-73.75 4762.16,-73.45 4765.31,-73.11"/>
<polygon fill="#63b8ff" stroke="#63b8ff" points="2729.1,-114.8 2719.12,-118.36 2729.14,-121.8 2729.1,-114.8"/>
</a>
</g>
</g>
<!-- Node34 -->
<g id="Node000034" class="node">
<title>Node34</title>
<g id="a_Node000034"><a xlink:href="SaveSlotSortLibrary_8cpp_source.html" target="_top" xlink:title=" ">
<polygon fill="white" stroke="#666666" points="5015.5,-74 4884.5,-74 4884.5,-55 5015.5,-55 5015.5,-74"/>
<text text-anchor="middle" x="4950" y="-62" font-family="Helvetica,sans-Serif" font-size="10.00">SaveSlotSortLibrary.cpp</text>
</a>
</g>
</g>
<!-- Node1&#45;&gt;Node34 -->
<g id="edge33_Node000001_Node000034" class="edge">
<title>Node1&#45;&gt;Node34</title>
<g id="a_edge33_Node000001_Node000034"><a xlink:title=" ">
<path fill="none" stroke="#63b8ff" d="M2729.56,-118.21C2984.86,-116.23 4434.69,-103.77 4876,-74 4878.71,-73.82 4881.47,-73.61 4884.26,-73.38"/>
<polygon fill="#63b8ff" stroke="#63b8ff" points="2729.28,-114.71 2719.31,-118.29 2729.34,-121.71 2729.28,-114.71"/>
</a>
</g>
</g>
<!-- Node35 -->
<g id="Node000035" class="node">
<title>Node35</title>
<g id="a_Node000035"><a xlink:href="StructSerializable_8cpp_source.html" target="_top" xlink:title=" ">
<polygon fill="white" stroke="#666666" points="5156,-74 5034,-74 5034,-55 5156,-55 5156,-74"/>
<text text-anchor="middle" x="5095" y="-62" font-family="Helvetica,sans-Serif" font-size="10.00">StructSerializable.cpp</text>
</a>
</g>
</g>
<!-- Node1&#45;&gt;Node35 -->
<g id="edge34_Node000001_Node000035" class="edge">
<title>Node1&#45;&gt;Node35</title>
<g id="a_edge34_Node000001_Node000035"><a xlink:title=" ">
<path fill="none" stroke="#63b8ff" d="M2729.25,-118.3C2993.53,-116.88 4551.97,-107.14 5025,-74 5027.93,-73.79 5030.93,-73.55 5033.95,-73.28"/>
<polygon fill="#63b8ff" stroke="#63b8ff" points="2728.99,-114.81 2719.01,-118.36 2729.03,-121.81 2728.99,-114.81"/>
</a>
</g>
</g>
<!-- Node30 -->
<g id="Node000030" class="node">
<title>Node30</title>
<g id="a_Node000030"><a xlink:href="AlienRamen_8cpp_source.html" target="_top" xlink:title=" ">
<polygon fill="white" stroke="#666666" points="4391,-19 4295,-19 4295,0 4391,0 4391,-19"/>
<text text-anchor="middle" x="4343" y="-7" font-family="Helvetica,sans-Serif" font-size="10.00">AlienRamen.cpp</text>
</a>
</g>
</g>
<!-- Node29&#45;&gt;Node30 -->
<g id="edge29_Node000029_Node000030" class="edge">
<title>Node29&#45;&gt;Node30</title>
<g id="a_edge29_Node000029_Node000030"><a xlink:title=" ">
<path fill="none" stroke="#63b8ff" d="M4343,-44.66C4343,-35.93 4343,-25.99 4343,-19.09"/>
<polygon fill="#63b8ff" stroke="#63b8ff" points="4339.5,-44.75 4343,-54.75 4346.5,-44.75 4339.5,-44.75"/>
</a>
</g>
</g>
</g>
</svg>

<g id="navigator" transform="translate(0 0)" fill="#404254">
  <rect fill="#f2f5e9" fill-opacity="0.5" stroke="#606060" stroke-width=".5" x="0" y="0" width="60" height="60"/>
  <use id="zoomplus" xlink:href="#zoomPlus" x="17" y="9" onmousedown="handleZoom(evt,'in')"/>
  <use id="zoomminus" xlink:href="#zoomMin" x="42" y="9" onmousedown="handleZoom(evt,'out')"/>
  <use id="reset" xlink:href="#resetDef" x="30" y="36" onmousedown="handleReset()"/>
   <use id="arrowup" xlink:href="#arrowUp" x="0" y="0" onmousedown="handlePan(0,-1)"/>
  <use id="arrowright" xlink:href="#arrowRight" x="0" y="0" onmousedown="handlePan(1,0)"/>
  <use id="arrowdown" xlink:href="#arrowDown" x="0" y="0" onmousedown="handlePan(0,1)"/>
  <use id="arrowleft" xlink:href="#arrowLeft" x="0" y="0" onmousedown="handlePan(-1,0)"/>
</g>
<svg viewBox="0 0 15 15" width="100%" height="30px" preserveAspectRatio="xMaxYMin meet">
 <g id="arrow_out" transform="scale(0.3 0.3)">
  <a xlink:href="ARLog_8h__dep__incl_org.svg" target="_base">
   <rect id="button" ry="5" rx="5" y="6" x="6" height="38" width="38"
        fill="#f2f5e9" fill-opacity="0.5" stroke="#606060" stroke-width="1.0"/>
   <path id="arrow"
     d="M 11.500037,31.436501 C 11.940474,20.09759 22.043105,11.32322 32.158766,21.979434 L 37.068811,17.246167 C 37.068811,17.246167 37.088388,32 37.088388,32 L 22.160133,31.978069 C 22.160133,31.978069 26.997745,27.140456 26.997745,27.140456 C 18.528582,18.264221 13.291696,25.230495 11.500037,31.436501 z"
     style="fill:#404040;"/>
  </a>
 </g>
</svg>

<style type='text/css'>
<![CDATA[
[data-mouse-over-selected='false'] { opacity: 0.7; }
[data-mouse-over-selected='true']  { opacity: 1.0; }
]]>
</style>
<script type="application/ecmascript"><![CDATA[
document.addEventListener('DOMContentLoaded', (event) => {
  highlightEdges();
  highlightAdjacentNodes();
});
]]></script>
</svg>
