<?xml version="1.0" encoding="UTF-8" standalone="no"?>
<!DOCTYPE svg PUBLIC "-//W3C//DTD SVG 1.1//EN"
 "http://www.w3.org/Graphics/SVG/1.1/DTD/svg11.dtd">
<!-- Generated by graphviz version 2.43.0 (0)
 -->
<!-- Title: ARPlayerCharacterInvader.h Pages: 1 -->
<svg width="650pt" height="82pt"
 viewBox="0.00 0.00 650.00 82.00" xmlns="http://www.w3.org/2000/svg" xmlns:xlink="http://www.w3.org/1999/xlink">
<g id="graph0" class="graph" transform="scale(1 1) rotate(0) translate(4 78)">
<title>ARPlayerCharacterInvader.h</title>
<!-- Node1 -->
<g id="Node000001" class="node">
<title>Node1</title>
<g id="a_Node000001"><a xlink:title="ARPlayerCharacterInvader header for Alien Ramen.">
<polygon fill="#999999" stroke="#666666" points="357.5,-74 204.5,-74 204.5,-55 357.5,-55 357.5,-74"/>
<text text-anchor="middle" x="281" y="-62" font-family="Helvetica,sans-Serif" font-size="10.00">ARPlayerCharacterInvader.h</text>
</a>
</g>
</g>
<!-- Node2 -->
<g id="Node000002" class="node">
<title>Node2</title>
<g id="a_Node000002"><a xlink:href="AREnemyBase_8cpp_source.html" target="_top" xlink:title=" ">
<polygon fill="white" stroke="#666666" points="108,-19 0,-19 0,0 108,0 108,-19"/>
<text text-anchor="middle" x="54" y="-7" font-family="Helvetica,sans-Serif" font-size="10.00">AREnemyBase.cpp</text>
</a>
</g>
</g>
<!-- Node1&#45;&gt;Node2 -->
<g id="edge1_Node000001_Node000002" class="edge">
<title>Node1&#45;&gt;Node2</title>
<g id="a_edge1_Node000001_Node000002"><a xlink:title=" ">
<path fill="none" stroke="#63b8ff" d="M234.7,-52.69C192.17,-42.76 129.97,-28.24 90.76,-19.08"/>
<polygon fill="#63b8ff" stroke="#63b8ff" points="233.99,-56.12 244.53,-54.98 235.59,-49.3 233.99,-56.12"/>
</a>
</g>
</g>
<!-- Node3 -->
<g id="Node000003" class="node">
<title>Node3</title>
<g id="a_Node000003"><a xlink:href="ARInvaderDropBase_8cpp_source.html" target="_top" xlink:title=" ">
<polygon fill="white" stroke="#666666" points="260,-19 126,-19 126,0 260,0 260,-19"/>
<text text-anchor="middle" x="193" y="-7" font-family="Helvetica,sans-Serif" font-size="10.00">ARInvaderDropBase.cpp</text>
</a>
</g>
</g>
<!-- Node1&#45;&gt;Node3 -->
<g id="edge2_Node000001_Node000003" class="edge">
<title>Node1&#45;&gt;Node3</title>
<g id="a_edge2_Node000001_Node000003"><a xlink:title=" ">
<path fill="none" stroke="#63b8ff" d="M258.08,-49.7C242.05,-40.04 221.13,-27.44 207.4,-19.17"/>
<polygon fill="#63b8ff" stroke="#63b8ff" points="256.49,-52.82 266.86,-54.98 260.1,-46.83 256.49,-52.82"/>
</a>
</g>
</g>
<!-- Node4 -->
<g id="Node000004" class="node">
<title>Node4</title>
<g id="a_Node000004"><a xlink:href="ARPickupCollectorComponent_8cpp_source.html" target="_top" xlink:title=" ">
<polygon fill="white" stroke="#666666" points="460,-19 278,-19 278,0 460,0 460,-19"/>
<text text-anchor="middle" x="369" y="-7" font-family="Helvetica,sans-Serif" font-size="10.00">ARPickupCollectorComponent.cpp</text>
</a>
</g>
</g>
<!-- Node1&#45;&gt;Node4 -->
<g id="edge3_Node000001_Node000004" class="edge">
<title>Node1&#45;&gt;Node4</title>
<g id="a_edge3_Node000001_Node000004"><a xlink:title=" ">
<path fill="none" stroke="#63b8ff" d="M303.92,-49.7C319.95,-40.04 340.87,-27.44 354.6,-19.17"/>
<polygon fill="#63b8ff" stroke="#63b8ff" points="301.9,-46.83 295.14,-54.98 305.51,-52.82 301.9,-46.83"/>
</a>
</g>
</g>
<!-- Node5 -->
<g id="Node000005" class="node">
<title>Node5</title>
<g id="a_Node000005"><a xlink:href="ARPlayerCharacterInvader_8cpp_source.html" target="_top" xlink:title=" ">
<polygon fill="white" stroke="#666666" points="642,-19 478,-19 478,0 642,0 642,-19"/>
<text text-anchor="middle" x="560" y="-7" font-family="Helvetica,sans-Serif" font-size="10.00">ARPlayerCharacterInvader.cpp</text>
</a>
</g>
</g>
<!-- Node1&#45;&gt;Node5 -->
<g id="edge4_Node000001_Node000005" class="edge">
<title>Node1&#45;&gt;Node5</title>
<g id="a_edge4_Node000001_Node000005"><a xlink:title=" ">
<path fill="none" stroke="#63b8ff" d="M335.93,-53.07C388.24,-43.13 466.02,-28.35 514.82,-19.08"/>
<polygon fill="#63b8ff" stroke="#63b8ff" points="335,-49.68 325.83,-54.98 336.3,-56.56 335,-49.68"/>
</a>
</g>
</g>
</g>
</svg>
