<?xml version="1.0" encoding="UTF-8" standalone="no"?>
<!DOCTYPE svg PUBLIC "-//W3C//DTD SVG 1.1//EN"
 "http://www.w3.org/Graphics/SVG/1.1/DTD/svg11.dtd">
<!-- Generated by graphviz version 2.43.0 (0)
 -->
<!-- Title: ARPlayerController.h Pages: 1 -->
<svg width="1730pt" height="137pt"
 viewBox="0.00 0.00 1730.00 137.00" xmlns="http://www.w3.org/2000/svg" xmlns:xlink="http://www.w3.org/1999/xlink">
<g id="graph0" class="graph" transform="scale(1 1) rotate(0) translate(4 133)">
<title>ARPlayerController.h</title>
<!-- Node1 -->
<g id="Node000001" class="node">
<title>Node1</title>
<g id="a_Node000001"><a xlink:title="ARPlayerController header for Alien Ramen.">
<polygon fill="#999999" stroke="#666666" points="899.5,-129 782.5,-129 782.5,-110 899.5,-110 899.5,-129"/>
<text text-anchor="middle" x="841" y="-117" font-family="Helvetica,sans-Serif" font-size="10.00">ARPlayerController.h</text>
</a>
</g>
</g>
<!-- Node2 -->
<g id="Node000002" class="node">
<title>Node2</title>
<g id="a_Node000002"><a xlink:title=" ">
<polygon fill="#e0e0e0" stroke="#999999" points="793,-19 705,-19 705,0 793,0 793,-19"/>
<text text-anchor="middle" x="749" y="-7" font-family="Helvetica,sans-Serif" font-size="10.00">CoreMinimal.h</text>
</a>
</g>
</g>
<!-- Node1&#45;&gt;Node2 -->
<g id="edge1_Node000001_Node000002" class="edge">
<title>Node1&#45;&gt;Node2</title>
<g id="a_edge1_Node000001_Node000002"><a xlink:title=" ">
<path fill="none" stroke="#63b8ff" d="M818.46,-109.97C802.22,-102.72 780.96,-90.81 768,-74 758.01,-61.04 753.25,-42.89 751,-29.31"/>
<polygon fill="#63b8ff" stroke="#63b8ff" points="754.44,-28.64 749.64,-19.19 747.5,-29.57 754.44,-28.64"/>
</a>
</g>
</g>
<!-- Node3 -->
<g id="Node000003" class="node">
<title>Node3</title>
<g id="a_Node000003"><a xlink:title=" ">
<polygon fill="#e0e0e0" stroke="#999999" points="302.5,-74 163.5,-74 163.5,-55 302.5,-55 302.5,-74"/>
<text text-anchor="middle" x="233" y="-62" font-family="Helvetica,sans-Serif" font-size="10.00">GameplayTagContainer.h</text>
</a>
</g>
</g>
<!-- Node1&#45;&gt;Node3 -->
<g id="edge2_Node000001_Node000003" class="edge">
<title>Node1&#45;&gt;Node3</title>
<g id="a_edge2_Node000001_Node000003"><a xlink:title=" ">
<path fill="none" stroke="#63b8ff" d="M782.14,-114.04C686.09,-106.65 489.43,-91.08 312.73,-74.15"/>
<polygon fill="#63b8ff" stroke="#63b8ff" points="313.02,-70.66 302.73,-73.19 312.35,-77.63 313.02,-70.66"/>
</a>
</g>
</g>
<!-- Node4 -->
<g id="Node000004" class="node">
<title>Node4</title>
<g id="a_Node000004"><a xlink:title=" ">
<polygon fill="#e0e0e0" stroke="#999999" points="511.5,-74 320.5,-74 320.5,-55 511.5,-55 511.5,-74"/>
<text text-anchor="middle" x="416" y="-62" font-family="Helvetica,sans-Serif" font-size="10.00">GameFramework/GameStateBase.h</text>
</a>
</g>
</g>
<!-- Node1&#45;&gt;Node4 -->
<g id="edge3_Node000001_Node000004" class="edge">
<title>Node1&#45;&gt;Node4</title>
<g id="a_edge3_Node000001_Node000004"><a xlink:title=" ">
<path fill="none" stroke="#63b8ff" d="M782.35,-111.19C707.48,-101.85 577.7,-85.66 494.4,-75.28"/>
<polygon fill="#63b8ff" stroke="#63b8ff" points="494.58,-71.77 484.23,-74.01 493.72,-78.72 494.58,-71.77"/>
</a>
</g>
</g>
<!-- Node5 -->
<g id="Node000005" class="node">
<title>Node5</title>
<g id="a_Node000005"><a xlink:title=" ">
<polygon fill="#e0e0e0" stroke="#999999" points="720.5,-74 529.5,-74 529.5,-55 720.5,-55 720.5,-74"/>
<text text-anchor="middle" x="625" y="-62" font-family="Helvetica,sans-Serif" font-size="10.00">GameFramework/PlayerController.h</text>
</a>
</g>
</g>
<!-- Node1&#45;&gt;Node5 -->
<g id="edge4_Node000001_Node000005" class="edge">
<title>Node1&#45;&gt;Node5</title>
<g id="a_edge4_Node000001_Node000005"><a xlink:title=" ">
<path fill="none" stroke="#63b8ff" d="M806.3,-109.98C769.25,-100.89 710.41,-86.46 669.87,-76.51"/>
<polygon fill="#63b8ff" stroke="#63b8ff" points="670.52,-73.07 659.98,-74.08 668.85,-79.86 670.52,-73.07"/>
</a>
</g>
</g>
<!-- Node6 -->
<g id="Node000006" class="node">
<title>Node6</title>
<g id="a_Node000006"><a xlink:href="ARInteractionTypes_8h.html" target="_top" xlink:title="Shared interaction action cue types for animation/UI reaction routing.">
<polygon fill="white" stroke="#666666" points="145.5,-74 26.5,-74 26.5,-55 145.5,-55 145.5,-74"/>
<text text-anchor="middle" x="86" y="-62" font-family="Helvetica,sans-Serif" font-size="10.00">ARInteractionTypes.h</text>
</a>
</g>
</g>
<!-- Node1&#45;&gt;Node6 -->
<g id="edge5_Node000001_Node000006" class="edge">
<title>Node1&#45;&gt;Node6</title>
<g id="a_edge5_Node000001_Node000006"><a xlink:title=" ">
<path fill="none" stroke="#63b8ff" d="M782.09,-115.87C664.87,-110.38 393.84,-96.4 155.91,-74.13"/>
<polygon fill="#63b8ff" stroke="#63b8ff" points="155.97,-70.62 145.68,-73.16 155.31,-77.59 155.97,-70.62"/>
</a>
</g>
</g>
<!-- Node8 -->
<g id="Node000008" class="node">
<title>Node8</title>
<g id="a_Node000008"><a xlink:title=" ">
<polygon fill="#e0e0e0" stroke="#999999" points="904.5,-74 777.5,-74 777.5,-55 904.5,-55 904.5,-74"/>
<text text-anchor="middle" x="841" y="-62" font-family="Helvetica,sans-Serif" font-size="10.00">ParleyDialogueTypes.h</text>
</a>
</g>
</g>
<!-- Node1&#45;&gt;Node8 -->
<g id="edge8_Node000001_Node000008" class="edge">
<title>Node1&#45;&gt;Node8</title>
<g id="a_edge8_Node000001_Node000008"><a xlink:title=" ">
<path fill="none" stroke="#63b8ff" d="M841,-109.75C841,-102.8 841,-92.85 841,-84.13"/>
<polygon fill="#63b8ff" stroke="#63b8ff" points="844.5,-84.09 841,-74.09 837.5,-84.09 844.5,-84.09"/>
</a>
</g>
</g>
<!-- Node9 -->
<g id="Node000009" class="node">
<title>Node9</title>
<g id="a_Node000009"><a xlink:title=" ">
<polygon fill="#e0e0e0" stroke="#999999" points="1101,-74 923,-74 923,-55 1101,-55 1101,-74"/>
<text text-anchor="middle" x="1012" y="-62" font-family="Helvetica,sans-Serif" font-size="10.00">ParleyPlayerControllerInterface.h</text>
</a>
</g>
</g>
<!-- Node1&#45;&gt;Node9 -->
<g id="edge9_Node000001_Node000009" class="edge">
<title>Node1&#45;&gt;Node9</title>
<g id="a_edge9_Node000001_Node000009"><a xlink:title=" ">
<path fill="none" stroke="#63b8ff" d="M868.47,-109.98C897.18,-101.09 942.42,-87.07 974.42,-77.15"/>
<polygon fill="#63b8ff" stroke="#63b8ff" points="975.8,-80.39 984.31,-74.08 973.72,-73.7 975.8,-80.39"/>
</a>
</g>
</g>
<!-- Node10 -->
<g id="Node000010" class="node">
<title>Node10</title>
<g id="a_Node000010"><a xlink:href="ARTransitionTypes_8h.html" target="_top" xlink:title="Shared transition&#45;map context and URL option helpers.">
<polygon fill="white" stroke="#666666" points="1232.5,-74 1119.5,-74 1119.5,-55 1232.5,-55 1232.5,-74"/>
<text text-anchor="middle" x="1176" y="-62" font-family="Helvetica,sans-Serif" font-size="10.00">ARTransitionTypes.h</text>
</a>
</g>
</g>
<!-- Node1&#45;&gt;Node10 -->
<g id="edge10_Node000001_Node000010" class="edge">
<title>Node1&#45;&gt;Node10</title>
<g id="a_edge10_Node000001_Node000010"><a xlink:title=" ">
<path fill="none" stroke="#63b8ff" d="M894.82,-109.98C953.95,-100.63 1048.87,-85.61 1111.83,-75.65"/>
<polygon fill="#63b8ff" stroke="#63b8ff" points="1112.7,-79.06 1122.03,-74.04 1111.61,-72.14 1112.7,-79.06"/>
</a>
</g>
</g>
<!-- Node12 -->
<g id="Node000012" class="node">
<title>Node12</title>
<g id="a_Node000012"><a xlink:title=" ">
<polygon fill="#e0e0e0" stroke="#999999" points="1419.5,-74 1250.5,-74 1250.5,-55 1419.5,-55 1419.5,-74"/>
<text text-anchor="middle" x="1335" y="-62" font-family="Helvetica,sans-Serif" font-size="10.00">GameFramework/PlayerState.h</text>
</a>
</g>
</g>
<!-- Node1&#45;&gt;Node12 -->
<g id="edge13_Node000001_Node000012" class="edge">
<title>Node1&#45;&gt;Node12</title>
<g id="a_edge13_Node000001_Node000012"><a xlink:title=" ">
<path fill="none" stroke="#63b8ff" d="M899.61,-112.21C985.23,-103.03 1145.19,-85.86 1245.57,-75.1"/>
<polygon fill="#63b8ff" stroke="#63b8ff" points="1246.12,-78.56 1255.69,-74.01 1245.38,-71.6 1246.12,-78.56"/>
</a>
</g>
</g>
<!-- Node13 -->
<g id="Node000013" class="node">
<title>Node13</title>
<g id="a_Node000013"><a xlink:title=" ">
<polygon fill="#e0e0e0" stroke="#999999" points="1534,-74 1438,-74 1438,-55 1534,-55 1534,-74"/>
<text text-anchor="middle" x="1486" y="-62" font-family="Helvetica,sans-Serif" font-size="10.00">TimerManager.h</text>
</a>
</g>
</g>
<!-- Node1&#45;&gt;Node13 -->
<g id="edge14_Node000001_Node000013" class="edge">
<title>Node1&#45;&gt;Node13</title>
<g id="a_edge14_Node000001_Node000013"><a xlink:title=" ">
<path fill="none" stroke="#63b8ff" d="M899.55,-115.48C1003.68,-109.8 1228.09,-96.16 1427.74,-74.06"/>
<polygon fill="#63b8ff" stroke="#63b8ff" points="1428.28,-77.52 1437.83,-72.93 1427.5,-70.57 1428.28,-77.52"/>
</a>
</g>
</g>
<!-- Node14 -->
<g id="Node000014" class="node">
<title>Node14</title>
<g id="a_Node000014"><a xlink:title=" ">
<polygon fill="#e0e0e0" stroke="#999999" points="1722,-74 1552,-74 1552,-55 1722,-55 1722,-74"/>
<text text-anchor="middle" x="1637" y="-62" font-family="Helvetica,sans-Serif" font-size="10.00">ARPlayerController.generated.h</text>
</a>
</g>
</g>
<!-- Node1&#45;&gt;Node14 -->
<g id="edge15_Node000001_Node000014" class="edge">
<title>Node1&#45;&gt;Node14</title>
<g id="a_edge15_Node000001_Node000014"><a xlink:title=" ">
<path fill="none" stroke="#63b8ff" d="M899.74,-115.31C1018.71,-108.74 1296.91,-92.77 1541.79,-74.07"/>
<polygon fill="#63b8ff" stroke="#63b8ff" points="1542.25,-77.55 1551.95,-73.29 1541.72,-70.57 1542.25,-77.55"/>
</a>
</g>
</g>
<!-- Node6&#45;&gt;Node2 -->
<g id="edge6_Node000006_Node000002" class="edge">
<title>Node6&#45;&gt;Node2</title>
<g id="a_edge6_Node000006_Node000002"><a xlink:title=" ">
<path fill="none" stroke="#63b8ff" d="M145.69,-55.87C148.49,-55.56 151.28,-55.27 154,-55 353.01,-35.13 590.27,-19.92 694.89,-13.64"/>
<polygon fill="#63b8ff" stroke="#63b8ff" points="695.12,-17.14 704.9,-13.05 694.7,-10.15 695.12,-17.14"/>
</a>
</g>
</g>
<!-- Node7 -->
<g id="Node000007" class="node">
<title>Node7</title>
<g id="a_Node000007"><a xlink:title=" ">
<polygon fill="#e0e0e0" stroke="#999999" points="172,-19 0,-19 0,0 172,0 172,-19"/>
<text text-anchor="middle" x="86" y="-7" font-family="Helvetica,sans-Serif" font-size="10.00">ARInteractionTypes.generated.h</text>
</a>
</g>
</g>
<!-- Node6&#45;&gt;Node7 -->
<g id="edge7_Node000006_Node000007" class="edge">
<title>Node6&#45;&gt;Node7</title>
<g id="a_edge7_Node000006_Node000007"><a xlink:title=" ">
<path fill="none" stroke="#63b8ff" d="M86,-54.75C86,-47.8 86,-37.85 86,-29.13"/>
<polygon fill="#63b8ff" stroke="#63b8ff" points="89.5,-29.09 86,-19.09 82.5,-29.09 89.5,-29.09"/>
</a>
</g>
</g>
<!-- Node10&#45;&gt;Node2 -->
<g id="edge11_Node000010_Node000002" class="edge">
<title>Node10&#45;&gt;Node2</title>
<g id="a_edge11_Node000010_Node000002"><a xlink:title=" ">
<path fill="none" stroke="#63b8ff" d="M1119.48,-56.2C1116.27,-55.79 1113.09,-55.39 1110,-55 1001.17,-41.28 873.82,-25.69 803.19,-17.09"/>
<polygon fill="#63b8ff" stroke="#63b8ff" points="803.54,-13.6 793.19,-15.87 802.69,-20.55 803.54,-13.6"/>
</a>
</g>
</g>
<!-- Node11 -->
<g id="Node000011" class="node">
<title>Node11</title>
<g id="a_Node000011"><a xlink:title=" ">
<polygon fill="#e0e0e0" stroke="#999999" points="1259,-19 1093,-19 1093,0 1259,0 1259,-19"/>
<text text-anchor="middle" x="1176" y="-7" font-family="Helvetica,sans-Serif" font-size="10.00">ARTransitionTypes.generated.h</text>
</a>
</g>
</g>
<!-- Node10&#45;&gt;Node11 -->
<g id="edge12_Node000010_Node000011" class="edge">
<title>Node10&#45;&gt;Node11</title>
<g id="a_edge12_Node000010_Node000011"><a xlink:title=" ">
<path fill="none" stroke="#63b8ff" d="M1176,-54.75C1176,-47.8 1176,-37.85 1176,-29.13"/>
<polygon fill="#63b8ff" stroke="#63b8ff" points="1179.5,-29.09 1176,-19.09 1172.5,-29.09 1179.5,-29.09"/>
</a>
</g>
</g>
</g>
</svg>
