<?xml version="1.0" encoding="UTF-8" standalone="no"?>
<!DOCTYPE svg PUBLIC "-//W3C//DTD SVG 1.1//EN"
 "http://www.w3.org/Graphics/SVG/1.1/DTD/svg11.dtd">
<!-- Generated by graphviz version 2.43.0 (0)
 -->
<!-- Title: ARPlayerStateBase.h Pages: 1 -->
<svg width="1706pt" height="247pt"
 viewBox="0.00 0.00 1706.39 247.00" xmlns="http://www.w3.org/2000/svg" xmlns:xlink="http://www.w3.org/1999/xlink">
<g id="graph0" class="graph" transform="scale(1 1) rotate(0) translate(4 243)">
<title>ARPlayerStateBase.h</title>
<!-- Node1 -->
<g id="Node000001" class="node">
<title>Node1</title>
<g id="a_Node000001"><a xlink:title="ARPlayerStateBase header for Alien Ramen.">
<polygon fill="#999999" stroke="#666666" points="945.39,-239 826.39,-239 826.39,-220 945.39,-220 945.39,-239"/>
<text text-anchor="middle" x="885.89" y="-227" font-family="Helvetica,sans-Serif" font-size="10.00">ARPlayerStateBase.h</text>
</a>
</g>
</g>
<!-- Node2 -->
<g id="Node000002" class="node">
<title>Node2</title>
<g id="a_Node000002"><a xlink:title=" ">
<polygon fill="#e0e0e0" stroke="#999999" points="983.89,-19 895.89,-19 895.89,0 983.89,0 983.89,-19"/>
<text text-anchor="middle" x="939.89" y="-7" font-family="Helvetica,sans-Serif" font-size="10.00">CoreMinimal.h</text>
</a>
</g>
</g>
<!-- Node1&#45;&gt;Node2 -->
<g id="edge1_Node000001_Node000002" class="edge">
<title>Node1&#45;&gt;Node2</title>
<g id="a_edge1_Node000001_Node000002"><a xlink:title=" ">
<path fill="none" stroke="#63b8ff" d="M923.28,-219.88C984.09,-203.54 1102.05,-161.56 1145.89,-74 1149.67,-66.45 1151.19,-61.57 1145.89,-55 1127.16,-31.8 1048.77,-20.1 994.29,-14.66"/>
<polygon fill="#63b8ff" stroke="#63b8ff" points="994.36,-11.16 984.07,-13.69 993.69,-18.12 994.36,-11.16"/>
</a>
</g>
</g>
<!-- Node3 -->
<g id="Node000003" class="node">
<title>Node3</title>
<g id="a_Node000003"><a xlink:title=" ">
<polygon fill="#e0e0e0" stroke="#999999" points="461.39,-184 324.39,-184 324.39,-165 461.39,-165 461.39,-184"/>
<text text-anchor="middle" x="392.89" y="-172" font-family="Helvetica,sans-Serif" font-size="10.00">AbilitySystemInterface.h</text>
</a>
</g>
</g>
<!-- Node1&#45;&gt;Node3 -->
<g id="edge2_Node000001_Node000003" class="edge">
<title>Node1&#45;&gt;Node3</title>
<g id="a_edge2_Node000001_Node000003"><a xlink:title=" ">
<path fill="none" stroke="#63b8ff" d="M826.29,-222.19C747.57,-213.84 604.31,-198.59 472.05,-184.23"/>
<polygon fill="#63b8ff" stroke="#63b8ff" points="472.05,-180.71 461.73,-183.11 471.3,-187.67 472.05,-180.71"/>
</a>
</g>
</g>
<!-- Node4 -->
<g id="Node000004" class="node">
<title>Node4</title>
<g id="a_Node000004"><a xlink:title=" ">
<polygon fill="#e0e0e0" stroke="#999999" points="610.39,-184 479.39,-184 479.39,-165 610.39,-165 610.39,-184"/>
<text text-anchor="middle" x="544.89" y="-172" font-family="Helvetica,sans-Serif" font-size="10.00">GameplayEffectTypes.h</text>
</a>
</g>
</g>
<!-- Node1&#45;&gt;Node4 -->
<g id="edge3_Node000001_Node000004" class="edge">
<title>Node1&#45;&gt;Node4</title>
<g id="a_edge3_Node000001_Node000004"><a xlink:title=" ">
<path fill="none" stroke="#63b8ff" d="M831.1,-219.98C770.79,-210.61 673.9,-195.55 609.82,-185.59"/>
<polygon fill="#63b8ff" stroke="#63b8ff" points="610.24,-182.12 599.82,-184.04 609.17,-189.03 610.24,-182.12"/>
</a>
</g>
</g>
<!-- Node5 -->
<g id="Node000005" class="node">
<title>Node5</title>
<g id="a_Node000005"><a xlink:title=" ">
<polygon fill="#e0e0e0" stroke="#999999" points="147.39,-19 8.39,-19 8.39,0 147.39,0 147.39,-19"/>
<text text-anchor="middle" x="77.89" y="-7" font-family="Helvetica,sans-Serif" font-size="10.00">GameplayTagContainer.h</text>
</a>
</g>
</g>
<!-- Node1&#45;&gt;Node5 -->
<g id="edge4_Node000001_Node000005" class="edge">
<title>Node1&#45;&gt;Node5</title>
<g id="a_edge4_Node000001_Node000005"><a xlink:title=" ">
<path fill="none" stroke="#63b8ff" d="M826.19,-227.69C657.6,-224.45 181.64,-208.31 50.89,-129 17.98,-109.04 -12.86,-88.62 5.89,-55 13.93,-40.58 28.79,-30.24 42.93,-23.18"/>
<polygon fill="#63b8ff" stroke="#63b8ff" points="44.4,-26.36 52.03,-19.01 41.49,-19.99 44.4,-26.36"/>
</a>
</g>
</g>
<!-- Node6 -->
<g id="Node000006" class="node">
<title>Node6</title>
<g id="a_Node000006"><a xlink:title=" ">
<polygon fill="#e0e0e0" stroke="#999999" points="970.39,-184 801.39,-184 801.39,-165 970.39,-165 970.39,-184"/>
<text text-anchor="middle" x="885.89" y="-172" font-family="Helvetica,sans-Serif" font-size="10.00">GameFramework/PlayerState.h</text>
</a>
</g>
</g>
<!-- Node1&#45;&gt;Node6 -->
<g id="edge5_Node000001_Node000006" class="edge">
<title>Node1&#45;&gt;Node6</title>
<g id="a_edge5_Node000001_Node000006"><a xlink:title=" ">
<path fill="none" stroke="#63b8ff" d="M885.89,-219.75C885.89,-212.8 885.89,-202.85 885.89,-194.13"/>
<polygon fill="#63b8ff" stroke="#63b8ff" points="889.39,-194.09 885.89,-184.09 882.39,-194.09 889.39,-194.09"/>
</a>
</g>
</g>
<!-- Node7 -->
<g id="Node000007" class="node">
<title>Node7</title>
<g id="a_Node000007"><a xlink:href="ARInvaderSpicyTrackTypes_8h.html" target="_top" xlink:title="Shared Invader spicy&#45;track enums/structs for runtime + data authoring.">
<polygon fill="white" stroke="#666666" points="783.39,-184 628.39,-184 628.39,-165 783.39,-165 783.39,-184"/>
<text text-anchor="middle" x="705.89" y="-172" font-family="Helvetica,sans-Serif" font-size="10.00">ARInvaderSpicyTrackTypes.h</text>
</a>
</g>
</g>
<!-- Node1&#45;&gt;Node7 -->
<g id="edge6_Node000001_Node000007" class="edge">
<title>Node1&#45;&gt;Node7</title>
<g id="a_edge6_Node000001_Node000007"><a xlink:title=" ">
<path fill="none" stroke="#63b8ff" d="M856.97,-219.98C826.62,-211.05 778.72,-196.94 745.01,-187.02"/>
<polygon fill="#63b8ff" stroke="#63b8ff" points="745.62,-183.55 735.04,-184.08 743.64,-190.26 745.62,-183.55"/>
</a>
</g>
</g>
<!-- Node19 -->
<g id="Node000019" class="node">
<title>Node19</title>
<g id="a_Node000019"><a xlink:href="ARPlayerTypes_8h.html" target="_top" xlink:title="Shared player&#45;facing enum types for Alien Ramen gameplay/save/runtime APIs.">
<polygon fill="white" stroke="#666666" points="1046.89,-129 948.89,-129 948.89,-110 1046.89,-110 1046.89,-129"/>
<text text-anchor="middle" x="997.89" y="-117" font-family="Helvetica,sans-Serif" font-size="10.00">ARPlayerTypes.h</text>
</a>
</g>
</g>
<!-- Node1&#45;&gt;Node19 -->
<g id="edge33_Node000001_Node000019" class="edge">
<title>Node1&#45;&gt;Node19</title>
<g id="a_edge33_Node000001_Node000019"><a xlink:title=" ">
<path fill="none" stroke="#63b8ff" d="M919.4,-219.93C939.29,-213.22 963.53,-201.95 978.89,-184 989.52,-171.57 994.21,-153.36 996.27,-139.62"/>
<polygon fill="#63b8ff" stroke="#63b8ff" points="999.78,-139.7 997.46,-129.36 992.83,-138.89 999.78,-139.7"/>
</a>
</g>
</g>
<!-- Node22 -->
<g id="Node000022" class="node">
<title>Node22</title>
<g id="a_Node000022"><a xlink:href="StructSerializable_8h.html" target="_top" xlink:title="StructSerializable header for Alien Ramen.">
<polygon fill="white" stroke="#666666" points="1334.39,-184 1223.39,-184 1223.39,-165 1334.39,-165 1334.39,-184"/>
<text text-anchor="middle" x="1278.89" y="-172" font-family="Helvetica,sans-Serif" font-size="10.00">StructSerializable.h</text>
</a>
</g>
</g>
<!-- Node1&#45;&gt;Node22 -->
<g id="edge34_Node000001_Node000022" class="edge">
<title>Node1&#45;&gt;Node22</title>
<g id="a_edge34_Node000001_Node000022"><a xlink:title=" ">
<path fill="none" stroke="#63b8ff" d="M945.58,-220.45C1017.56,-210.74 1138.17,-194.48 1212.87,-184.4"/>
<polygon fill="#63b8ff" stroke="#63b8ff" points="1213.66,-187.83 1223.1,-183.02 1212.72,-180.89 1213.66,-187.83"/>
</a>
</g>
</g>
<!-- Node26 -->
<g id="Node000026" class="node">
<title>Node26</title>
<g id="a_Node000026"><a xlink:title=" ">
<polygon fill="#e0e0e0" stroke="#999999" points="1524.89,-184 1352.89,-184 1352.89,-165 1524.89,-165 1524.89,-184"/>
<text text-anchor="middle" x="1438.89" y="-172" font-family="Helvetica,sans-Serif" font-size="10.00">ARPlayerStateBase.generated.h</text>
</a>
</g>
</g>
<!-- Node1&#45;&gt;Node26 -->
<g id="edge39_Node000001_Node000026" class="edge">
<title>Node1&#45;&gt;Node26</title>
<g id="a_edge39_Node000001_Node000026"><a xlink:title=" ">
<path fill="none" stroke="#63b8ff" d="M945.6,-222.78C1040.89,-213.64 1228.25,-195.69 1342.64,-184.72"/>
<polygon fill="#63b8ff" stroke="#63b8ff" points="1343.18,-188.19 1352.8,-183.75 1342.51,-181.22 1343.18,-188.19"/>
</a>
</g>
</g>
<!-- Node7&#45;&gt;Node2 -->
<g id="edge7_Node000007_Node000002" class="edge">
<title>Node7&#45;&gt;Node2</title>
<g id="a_edge7_Node000007_Node000002"><a xlink:title=" ">
<path fill="none" stroke="#63b8ff" d="M775.99,-165C824.49,-157.77 883.5,-145.86 901.89,-129 930.33,-102.93 937.58,-55.57 939.37,-29.31"/>
<polygon fill="#63b8ff" stroke="#63b8ff" points="942.87,-29.33 939.85,-19.17 935.88,-28.99 942.87,-29.33"/>
</a>
</g>
</g>
<!-- Node7&#45;&gt;Node5 -->
<g id="edge12_Node000007_Node000005" class="edge">
<title>Node7&#45;&gt;Node5</title>
<g id="a_edge12_Node000007_Node000005"><a xlink:title=" ">
<path fill="none" stroke="#63b8ff" d="M627.96,-165.62C516.06,-154.24 319.65,-134.03 286.89,-129 164.55,-110.22 92.29,-169.77 13.89,-74 -1.43,-55.29 25.05,-36.04 48.46,-23.71"/>
<polygon fill="#63b8ff" stroke="#63b8ff" points="50.13,-26.78 57.51,-19.18 47,-20.52 50.13,-26.78"/>
</a>
</g>
</g>
<!-- Node8 -->
<g id="Node000008" class="node">
<title>Node8</title>
<g id="a_Node000008"><a xlink:href="ARColorTypes_8h.html" target="_top" xlink:title="Shared gameplay color types used across enemies/players/rewards.">
<polygon fill="white" stroke="#666666" points="892.89,-74 800.89,-74 800.89,-55 892.89,-55 892.89,-74"/>
<text text-anchor="middle" x="846.89" y="-62" font-family="Helvetica,sans-Serif" font-size="10.00">ARColorTypes.h</text>
</a>
</g>
</g>
<!-- Node7&#45;&gt;Node8 -->
<g id="edge8_Node000007_Node000008" class="edge">
<title>Node7&#45;&gt;Node8</title>
<g id="a_edge8_Node000007_Node000008"><a xlink:title=" ">
<path fill="none" stroke="#63b8ff" d="M695.98,-164.62C682.75,-151.7 662.47,-127.36 675.89,-110 683.25,-100.48 745.78,-85.92 793.11,-76.07"/>
<polygon fill="#63b8ff" stroke="#63b8ff" points="793.87,-79.49 802.96,-74.05 792.46,-72.64 793.87,-79.49"/>
</a>
</g>
</g>
<!-- Node10 -->
<g id="Node000010" class="node">
<title>Node10</title>
<g id="a_Node000010"><a xlink:title=" ">
<polygon fill="#e0e0e0" stroke="#999999" points="132.89,-74 22.89,-74 22.89,-55 132.89,-55 132.89,-74"/>
<text text-anchor="middle" x="77.89" y="-62" font-family="Helvetica,sans-Serif" font-size="10.00">Engine/DataTable.h</text>
</a>
</g>
</g>
<!-- Node7&#45;&gt;Node10 -->
<g id="edge11_Node000007_Node000010" class="edge">
<title>Node7&#45;&gt;Node10</title>
<g id="a_edge11_Node000007_Node000010"><a xlink:title=" ">
<path fill="none" stroke="#63b8ff" d="M633.51,-164.97C567.9,-156.89 468.65,-143.82 382.89,-129 290.94,-113.11 184.41,-89.8 124.7,-76.29"/>
<polygon fill="#63b8ff" stroke="#63b8ff" points="125.35,-72.84 114.82,-74.04 123.8,-79.67 125.35,-72.84"/>
</a>
</g>
</g>
<!-- Node11 -->
<g id="Node000011" class="node">
<title>Node11</title>
<g id="a_Node000011"><a xlink:title=" ">
<polygon fill="#e0e0e0" stroke="#999999" points="282.39,-74 151.39,-74 151.39,-55 282.39,-55 282.39,-74"/>
<text text-anchor="middle" x="216.89" y="-62" font-family="Helvetica,sans-Serif" font-size="10.00">UObject/SoftObjectPtr.h</text>
</a>
</g>
</g>
<!-- Node7&#45;&gt;Node11 -->
<g id="edge13_Node000007_Node000011" class="edge">
<title>Node7&#45;&gt;Node11</title>
<g id="a_edge13_Node000007_Node000011"><a xlink:title=" ">
<path fill="none" stroke="#63b8ff" d="M651.91,-164.96C601.9,-156.76 525.58,-143.5 459.89,-129 387.54,-113.03 304.18,-90.28 256.3,-76.79"/>
<polygon fill="#63b8ff" stroke="#63b8ff" points="257.21,-73.42 246.64,-74.06 255.31,-80.15 257.21,-73.42"/>
</a>
</g>
</g>
<!-- Node12 -->
<g id="Node000012" class="node">
<title>Node12</title>
<g id="a_Node000012"><a xlink:href="ARInvaderTypes_8h.html" target="_top" xlink:title="ARInvaderTypes header for Alien Ramen.">
<polygon fill="white" stroke="#666666" points="572.89,-129 468.89,-129 468.89,-110 572.89,-110 572.89,-129"/>
<text text-anchor="middle" x="520.89" y="-117" font-family="Helvetica,sans-Serif" font-size="10.00">ARInvaderTypes.h</text>
</a>
</g>
</g>
<!-- Node7&#45;&gt;Node12 -->
<g id="edge14_Node000007_Node000012" class="edge">
<title>Node7&#45;&gt;Node12</title>
<g id="a_edge14_Node000007_Node000012"><a xlink:title=" ">
<path fill="none" stroke="#63b8ff" d="M676.17,-164.98C644.84,-156.01 595.32,-141.82 560.65,-131.89"/>
<polygon fill="#63b8ff" stroke="#63b8ff" points="561.42,-128.47 550.85,-129.08 559.49,-135.2 561.42,-128.47"/>
</a>
</g>
</g>
<!-- Node7&#45;&gt;Node19 -->
<g id="edge29_Node000007_Node000019" class="edge">
<title>Node7&#45;&gt;Node19</title>
<g id="a_edge29_Node000007_Node000019"><a xlink:title=" ">
<path fill="none" stroke="#63b8ff" d="M752.8,-164.98C803.95,-155.7 885.81,-140.84 940.69,-130.88"/>
<polygon fill="#63b8ff" stroke="#63b8ff" points="941.39,-134.31 950.61,-129.08 940.14,-127.42 941.39,-134.31"/>
</a>
</g>
</g>
<!-- Node21 -->
<g id="Node000021" class="node">
<title>Node21</title>
<g id="a_Node000021"><a xlink:title=" ">
<polygon fill="#e0e0e0" stroke="#999999" points="892.89,-129 684.89,-129 684.89,-110 892.89,-110 892.89,-129"/>
<text text-anchor="middle" x="788.89" y="-117" font-family="Helvetica,sans-Serif" font-size="10.00">ARInvaderSpicyTrackTypes.generated.h</text>
</a>
</g>
</g>
<!-- Node7&#45;&gt;Node21 -->
<g id="edge32_Node000007_Node000021" class="edge">
<title>Node7&#45;&gt;Node21</title>
<g id="a_edge32_Node000007_Node000021"><a xlink:title=" ">
<path fill="none" stroke="#63b8ff" d="M719.22,-164.98C731.98,-156.84 751.44,-144.41 766.56,-134.76"/>
<polygon fill="#63b8ff" stroke="#63b8ff" points="768.77,-137.5 775.31,-129.17 765,-131.6 768.77,-137.5"/>
</a>
</g>
</g>
<!-- Node8&#45;&gt;Node2 -->
<g id="edge9_Node000008_Node000002" class="edge">
<title>Node8&#45;&gt;Node2</title>
<g id="a_edge9_Node000008_Node000002"><a xlink:title=" ">
<path fill="none" stroke="#63b8ff" d="M861.83,-54.98C876.39,-46.69 898.76,-33.94 915.82,-24.22"/>
<polygon fill="#63b8ff" stroke="#63b8ff" points="917.72,-27.16 924.68,-19.17 914.25,-21.08 917.72,-27.16"/>
</a>
</g>
</g>
<!-- Node9 -->
<g id="Node000009" class="node">
<title>Node9</title>
<g id="a_Node000009"><a xlink:title=" ">
<polygon fill="#e0e0e0" stroke="#999999" points="877.39,-19 732.39,-19 732.39,0 877.39,0 877.39,-19"/>
<text text-anchor="middle" x="804.89" y="-7" font-family="Helvetica,sans-Serif" font-size="10.00">ARColorTypes.generated.h</text>
</a>
</g>
</g>
<!-- Node8&#45;&gt;Node9 -->
<g id="edge10_Node000008_Node000009" class="edge">
<title>Node8&#45;&gt;Node9</title>
<g id="a_edge10_Node000008_Node000009"><a xlink:title=" ">
<path fill="none" stroke="#63b8ff" d="M839.95,-54.75C834.02,-47.26 825.32,-36.28 818.07,-27.13"/>
<polygon fill="#63b8ff" stroke="#63b8ff" points="820.65,-24.75 811.7,-19.09 815.16,-29.1 820.65,-24.75"/>
</a>
</g>
</g>
<!-- Node12&#45;&gt;Node2 -->
<g id="edge15_Node000012_Node000002" class="edge">
<title>Node12&#45;&gt;Node2</title>
<g id="a_edge15_Node000012_Node000002"><a xlink:title=" ">
<path fill="none" stroke="#63b8ff" d="M573.03,-112.5C620.72,-106.08 692.77,-94.02 752.89,-74 771.18,-67.91 773.93,-62.02 791.89,-55 826.24,-41.57 866.37,-29.73 896.17,-21.65"/>
<polygon fill="#63b8ff" stroke="#63b8ff" points="897.11,-25.02 905.86,-19.05 895.3,-18.26 897.11,-25.02"/>
</a>
</g>
</g>
<!-- Node12&#45;&gt;Node5 -->
<g id="edge20_Node000012_Node000005" class="edge">
<title>Node12&#45;&gt;Node5</title>
<g id="a_edge20_Node000012_Node000005"><a xlink:title=" ">
<path fill="none" stroke="#63b8ff" d="M470.54,-109.97C431.51,-102.6 376.41,-90.52 329.89,-74 311.72,-67.55 309.13,-61.24 290.89,-55 244.4,-39.09 190.16,-27.86 148.05,-20.66"/>
<polygon fill="#63b8ff" stroke="#63b8ff" points="148.61,-17.21 138.17,-19.01 147.46,-24.11 148.61,-17.21"/>
</a>
</g>
</g>
<!-- Node12&#45;&gt;Node8 -->
<g id="edge16_Node000012_Node000008" class="edge">
<title>Node12&#45;&gt;Node8</title>
<g id="a_edge16_Node000012_Node000008"><a xlink:title=" ">
<path fill="none" stroke="#63b8ff" d="M572.91,-110.04C632.38,-100.37 729.4,-84.6 790.61,-74.65"/>
<polygon fill="#63b8ff" stroke="#63b8ff" points="791.55,-78.04 800.86,-72.98 790.42,-71.13 791.55,-78.04"/>
</a>
</g>
</g>
<!-- Node12&#45;&gt;Node10 -->
<g id="edge21_Node000012_Node000010" class="edge">
<title>Node12&#45;&gt;Node10</title>
<g id="a_edge21_Node000012_Node000010"><a xlink:title=" ">
<path fill="none" stroke="#63b8ff" d="M468.75,-112.63C397.58,-104.56 265.76,-89.42 142.99,-74.12"/>
<polygon fill="#63b8ff" stroke="#63b8ff" points="143.4,-70.65 133.04,-72.88 142.53,-77.59 143.4,-70.65"/>
</a>
</g>
</g>
<!-- Node12&#45;&gt;Node11 -->
<g id="edge22_Node000012_Node000011" class="edge">
<title>Node12&#45;&gt;Node11</title>
<g id="a_edge22_Node000012_Node000011"><a xlink:title=" ">
<path fill="none" stroke="#63b8ff" d="M472.05,-109.98C418.61,-100.67 332.96,-85.74 275.83,-75.78"/>
<polygon fill="#63b8ff" stroke="#63b8ff" points="276.32,-72.31 265.86,-74.04 275.11,-79.2 276.32,-72.31"/>
</a>
</g>
</g>
<!-- Node13 -->
<g id="Node000013" class="node">
<title>Node13</title>
<g id="a_Node000013"><a xlink:href="ARInvaderDropTypes_8h.html" target="_top" xlink:title="Shared invader drop type surface.">
<polygon fill="white" stroke="#666666" points="744.39,-74 617.39,-74 617.39,-55 744.39,-55 744.39,-74"/>
<text text-anchor="middle" x="680.89" y="-62" font-family="Helvetica,sans-Serif" font-size="10.00">ARInvaderDropTypes.h</text>
</a>
</g>
</g>
<!-- Node12&#45;&gt;Node13 -->
<g id="edge17_Node000012_Node000013" class="edge">
<title>Node12&#45;&gt;Node13</title>
<g id="a_edge17_Node000012_Node000013"><a xlink:title=" ">
<path fill="none" stroke="#63b8ff" d="M546.6,-109.98C573.34,-101.13 615.42,-87.19 645.34,-77.28"/>
<polygon fill="#63b8ff" stroke="#63b8ff" points="646.59,-80.55 654.98,-74.08 644.39,-73.9 646.59,-80.55"/>
</a>
</g>
</g>
<!-- Node15 -->
<g id="Node000015" class="node">
<title>Node15</title>
<g id="a_Node000015"><a xlink:href="ARAbilitySet_8h.html" target="_top" xlink:title="ARAbilitySet header for Alien Ramen.">
<polygon fill="white" stroke="#666666" points="424.89,-74 338.89,-74 338.89,-55 424.89,-55 424.89,-74"/>
<text text-anchor="middle" x="381.89" y="-62" font-family="Helvetica,sans-Serif" font-size="10.00">ARAbilitySet.h</text>
</a>
</g>
</g>
<!-- Node12&#45;&gt;Node15 -->
<g id="edge23_Node000012_Node000015" class="edge">
<title>Node12&#45;&gt;Node15</title>
<g id="a_edge23_Node000012_Node000015"><a xlink:title=" ">
<path fill="none" stroke="#63b8ff" d="M498.56,-109.98C475.69,-101.27 439.93,-87.63 414.03,-77.75"/>
<polygon fill="#63b8ff" stroke="#63b8ff" points="415.22,-74.46 404.63,-74.17 412.73,-81 415.22,-74.46"/>
</a>
</g>
</g>
<!-- Node18 -->
<g id="Node000018" class="node">
<title>Node18</title>
<g id="a_Node000018"><a xlink:title=" ">
<polygon fill="#e0e0e0" stroke="#999999" points="598.89,-74 442.89,-74 442.89,-55 598.89,-55 598.89,-74"/>
<text text-anchor="middle" x="520.89" y="-62" font-family="Helvetica,sans-Serif" font-size="10.00">ARInvaderTypes.generated.h</text>
</a>
</g>
</g>
<!-- Node12&#45;&gt;Node18 -->
<g id="edge28_Node000012_Node000018" class="edge">
<title>Node12&#45;&gt;Node18</title>
<g id="a_edge28_Node000012_Node000018"><a xlink:title=" ">
<path fill="none" stroke="#63b8ff" d="M520.89,-109.75C520.89,-102.8 520.89,-92.85 520.89,-84.13"/>
<polygon fill="#63b8ff" stroke="#63b8ff" points="524.39,-84.09 520.89,-74.09 517.39,-84.09 524.39,-84.09"/>
</a>
</g>
</g>
<!-- Node13&#45;&gt;Node2 -->
<g id="edge18_Node000013_Node000002" class="edge">
<title>Node13&#45;&gt;Node2</title>
<g id="a_edge18_Node000013_Node000002"><a xlink:title=" ">
<path fill="none" stroke="#63b8ff" d="M722.5,-54.98C767.49,-45.78 839.28,-31.09 887.94,-21.13"/>
<polygon fill="#63b8ff" stroke="#63b8ff" points="888.85,-24.52 897.95,-19.08 887.45,-17.66 888.85,-24.52"/>
</a>
</g>
</g>
<!-- Node14 -->
<g id="Node000014" class="node">
<title>Node14</title>
<g id="a_Node000014"><a xlink:title=" ">
<polygon fill="#e0e0e0" stroke="#999999" points="714.39,-19 535.39,-19 535.39,0 714.39,0 714.39,-19"/>
<text text-anchor="middle" x="624.89" y="-7" font-family="Helvetica,sans-Serif" font-size="10.00">ARInvaderDropTypes.generated.h</text>
</a>
</g>
</g>
<!-- Node13&#45;&gt;Node14 -->
<g id="edge19_Node000013_Node000014" class="edge">
<title>Node13&#45;&gt;Node14</title>
<g id="a_edge19_Node000013_Node000014"><a xlink:title=" ">
<path fill="none" stroke="#63b8ff" d="M671.89,-54.98C663.69,-47.23 651.38,-35.58 641.42,-26.14"/>
<polygon fill="#63b8ff" stroke="#63b8ff" points="643.72,-23.5 634.05,-19.17 638.91,-28.59 643.72,-23.5"/>
</a>
</g>
</g>
<!-- Node15&#45;&gt;Node2 -->
<g id="edge24_Node000015_Node000002" class="edge">
<title>Node15&#45;&gt;Node2</title>
<g id="a_edge24_Node000015_Node000002"><a xlink:title=" ">
<path fill="none" stroke="#63b8ff" d="M424.98,-56.18C427.99,-55.75 430.98,-55.35 433.89,-55 630.72,-31.12 684.05,-42.31 885.7,-18.91"/>
<polygon fill="#63b8ff" stroke="#63b8ff" points="886.2,-22.38 895.72,-17.73 885.38,-15.42 886.2,-22.38"/>
</a>
</g>
</g>
<!-- Node15&#45;&gt;Node5 -->
<g id="edge26_Node000015_Node000005" class="edge">
<title>Node15&#45;&gt;Node5</title>
<g id="a_edge26_Node000015_Node000005"><a xlink:title=" ">
<path fill="none" stroke="#63b8ff" d="M338.66,-55.96C285.74,-46.74 195.88,-31.07 136.71,-20.75"/>
<polygon fill="#63b8ff" stroke="#63b8ff" points="137.21,-17.29 126.76,-19.02 136.01,-24.19 137.21,-17.29"/>
</a>
</g>
</g>
<!-- Node16 -->
<g id="Node000016" class="node">
<title>Node16</title>
<g id="a_Node000016"><a xlink:title=" ">
<polygon fill="#e0e0e0" stroke="#999999" points="326.89,-19 214.89,-19 214.89,0 326.89,0 326.89,-19"/>
<text text-anchor="middle" x="270.89" y="-7" font-family="Helvetica,sans-Serif" font-size="10.00">Engine/DataAsset.h</text>
</a>
</g>
</g>
<!-- Node15&#45;&gt;Node16 -->
<g id="edge25_Node000015_Node000016" class="edge">
<title>Node15&#45;&gt;Node16</title>
<g id="a_edge25_Node000015_Node000016"><a xlink:title=" ">
<path fill="none" stroke="#63b8ff" d="M364.06,-54.98C346.28,-46.5 318.74,-33.35 298.21,-23.54"/>
<polygon fill="#63b8ff" stroke="#63b8ff" points="299.58,-20.32 289.05,-19.17 296.56,-26.64 299.58,-20.32"/>
</a>
</g>
</g>
<!-- Node17 -->
<g id="Node000017" class="node">
<title>Node17</title>
<g id="a_Node000017"><a xlink:title=" ">
<polygon fill="#e0e0e0" stroke="#999999" points="484.39,-19 345.39,-19 345.39,0 484.39,0 484.39,-19"/>
<text text-anchor="middle" x="414.89" y="-7" font-family="Helvetica,sans-Serif" font-size="10.00">ARAbilitySet.generated.h</text>
</a>
</g>
</g>
<!-- Node15&#45;&gt;Node17 -->
<g id="edge27_Node000015_Node000017" class="edge">
<title>Node15&#45;&gt;Node17</title>
<g id="a_edge27_Node000015_Node000017"><a xlink:title=" ">
<path fill="none" stroke="#63b8ff" d="M387.34,-54.75C391.9,-47.42 398.56,-36.73 404.18,-27.7"/>
<polygon fill="#63b8ff" stroke="#63b8ff" points="407.23,-29.43 409.54,-19.09 401.28,-25.73 407.23,-29.43"/>
</a>
</g>
</g>
<!-- Node19&#45;&gt;Node2 -->
<g id="edge30_Node000019_Node000002" class="edge">
<title>Node19&#45;&gt;Node2</title>
<g id="a_edge30_Node000019_Node000002"><a xlink:title=" ">
<path fill="none" stroke="#63b8ff" d="M993.14,-109.66C983.58,-91.85 961.84,-51.37 949.29,-28.01"/>
<polygon fill="#63b8ff" stroke="#63b8ff" points="952.35,-26.31 944.54,-19.16 946.19,-29.62 952.35,-26.31"/>
</a>
</g>
</g>
<!-- Node20 -->
<g id="Node000020" class="node">
<title>Node20</title>
<g id="a_Node000020"><a xlink:title=" ">
<polygon fill="#e0e0e0" stroke="#999999" points="1136.89,-74 986.89,-74 986.89,-55 1136.89,-55 1136.89,-74"/>
<text text-anchor="middle" x="1061.89" y="-62" font-family="Helvetica,sans-Serif" font-size="10.00">ARPlayerTypes.generated.h</text>
</a>
</g>
</g>
<!-- Node19&#45;&gt;Node20 -->
<g id="edge31_Node000019_Node000020" class="edge">
<title>Node19&#45;&gt;Node20</title>
<g id="a_edge31_Node000019_Node000020"><a xlink:title=" ">
<path fill="none" stroke="#63b8ff" d="M1008.17,-109.98C1017.73,-102.07 1032.17,-90.11 1043.67,-80.58"/>
<polygon fill="#63b8ff" stroke="#63b8ff" points="1045.95,-83.24 1051.42,-74.17 1041.49,-77.85 1045.95,-83.24"/>
</a>
</g>
</g>
<!-- Node22&#45;&gt;Node2 -->
<g id="edge35_Node000022_Node000002" class="edge">
<title>Node22&#45;&gt;Node2</title>
<g id="a_edge35_Node000022_Node000002"><a xlink:title=" ">
<path fill="none" stroke="#63b8ff" d="M1265.01,-164.88C1252.64,-156.72 1234.6,-143.57 1221.89,-129 1196.89,-100.33 1209.97,-76.92 1178.89,-55 1149.83,-34.51 1055.48,-21.71 994.38,-15.36"/>
<polygon fill="#63b8ff" stroke="#63b8ff" points="994.43,-11.85 984.13,-14.32 993.72,-18.81 994.43,-11.85"/>
</a>
</g>
</g>
<!-- Node23 -->
<g id="Node000023" class="node">
<title>Node23</title>
<g id="a_Node000023"><a xlink:title=" ">
<polygon fill="#e0e0e0" stroke="#999999" points="1698.39,-129 1587.39,-129 1587.39,-110 1698.39,-110 1698.39,-129"/>
<text text-anchor="middle" x="1642.89" y="-117" font-family="Helvetica,sans-Serif" font-size="10.00">UObject/Interface.h</text>
</a>
</g>
</g>
<!-- Node22&#45;&gt;Node23 -->
<g id="edge36_Node000022_Node000023" class="edge">
<title>Node22&#45;&gt;Node23</title>
<g id="a_edge36_Node000022_Node000023"><a xlink:title=" ">
<path fill="none" stroke="#63b8ff" d="M1334.57,-165.39C1399.87,-155.89 1507.97,-140.14 1577.28,-130.05"/>
<polygon fill="#63b8ff" stroke="#63b8ff" points="1577.82,-133.51 1587.22,-128.61 1576.82,-126.58 1577.82,-133.51"/>
</a>
</g>
</g>
<!-- Node24 -->
<g id="Node000024" class="node">
<title>Node24</title>
<g id="a_Node000024"><a xlink:title=" ">
<polygon fill="#e0e0e0" stroke="#999999" points="1386.39,-129 1231.39,-129 1231.39,-110 1386.39,-110 1386.39,-129"/>
<text text-anchor="middle" x="1308.89" y="-117" font-family="Helvetica,sans-Serif" font-size="10.00">StructUtils/InstancedStruct.h</text>
</a>
</g>
</g>
<!-- Node22&#45;&gt;Node24 -->
<g id="edge37_Node000022_Node000024" class="edge">
<title>Node22&#45;&gt;Node24</title>
<g id="a_edge37_Node000022_Node000024"><a xlink:title=" ">
<path fill="none" stroke="#63b8ff" d="M1283.84,-164.75C1287.95,-157.49 1293.92,-146.95 1298.99,-137.98"/>
<polygon fill="#63b8ff" stroke="#63b8ff" points="1302.15,-139.52 1304.03,-129.09 1296.06,-136.07 1302.15,-139.52"/>
</a>
</g>
</g>
<!-- Node25 -->
<g id="Node000025" class="node">
<title>Node25</title>
<g id="a_Node000025"><a xlink:title=" ">
<polygon fill="#e0e0e0" stroke="#999999" points="1568.89,-129 1404.89,-129 1404.89,-110 1568.89,-110 1568.89,-129"/>
<text text-anchor="middle" x="1486.89" y="-117" font-family="Helvetica,sans-Serif" font-size="10.00">StructSerializable.generated.h</text>
</a>
</g>
</g>
<!-- Node22&#45;&gt;Node25 -->
<g id="edge38_Node000022_Node000025" class="edge">
<title>Node22&#45;&gt;Node25</title>
<g id="a_edge38_Node000022_Node000025"><a xlink:title=" ">
<path fill="none" stroke="#63b8ff" d="M1312.31,-164.98C1347.83,-155.93 1404.16,-141.58 1443.19,-131.64"/>
<polygon fill="#63b8ff" stroke="#63b8ff" points="1444.38,-134.94 1453.21,-129.08 1442.65,-128.16 1444.38,-134.94"/>
</a>
</g>
</g>
</g>
</svg>
