<?xml version="1.0" encoding="UTF-8" standalone="no"?>
<!DOCTYPE svg PUBLIC "-//W3C//DTD SVG 1.1//EN"
 "http://www.w3.org/Graphics/SVG/1.1/DTD/svg11.dtd">
<!-- Generated by graphviz version 2.43.0 (0)
 -->
<!-- Title: ARPlayerStateBase.h Pages: 1 -->
<svg width="1916pt" height="137pt"
 viewBox="0.00 0.00 1916.00 137.00" xmlns="http://www.w3.org/2000/svg" xmlns:xlink="http://www.w3.org/1999/xlink">
<g id="graph0" class="graph" transform="scale(1 1) rotate(0) translate(4 133)">
<title>ARPlayerStateBase.h</title>
<!-- Node1 -->
<g id="Node000001" class="node">
<title>Node1</title>
<g id="a_Node000001"><a xlink:title="ARPlayerStateBase header for Alien Ramen.">
<polygon fill="#999999" stroke="#666666" points="1054.5,-129 935.5,-129 935.5,-110 1054.5,-110 1054.5,-129"/>
<text text-anchor="middle" x="995" y="-117" font-family="Helvetica,sans-Serif" font-size="10.00">ARPlayerStateBase.h</text>
</a>
</g>
</g>
<!-- Node2 -->
<g id="Node000002" class="node">
<title>Node2</title>
<g id="a_Node000002"><a xlink:href="ARDialogueSubsystem_8cpp_source.html" target="_top" xlink:title=" ">
<polygon fill="white" stroke="#666666" points="148,-74 0,-74 0,-55 148,-55 148,-74"/>
<text text-anchor="middle" x="74" y="-62" font-family="Helvetica,sans-Serif" font-size="10.00">ARDialogueSubsystem.cpp</text>
</a>
</g>
</g>
<!-- Node1&#45;&gt;Node2 -->
<g id="edge1_Node000001_Node000002" class="edge">
<title>Node1&#45;&gt;Node2</title>
<g id="a_edge1_Node000001_Node000002"><a xlink:title=" ">
<path fill="none" stroke="#63b8ff" d="M925.31,-115.92C781.67,-110.36 442.26,-95.93 158,-74 154.78,-73.75 151.5,-73.48 148.19,-73.2"/>
<polygon fill="#63b8ff" stroke="#63b8ff" points="925.19,-119.42 935.31,-116.31 925.45,-112.42 925.19,-119.42"/>
</a>
</g>
</g>
<!-- Node3 -->
<g id="Node000003" class="node">
<title>Node3</title>
<g id="a_Node000003"><a xlink:href="ARGameModeBase_8cpp_source.html" target="_top" xlink:title=" ">
<polygon fill="white" stroke="#666666" points="297.5,-74 166.5,-74 166.5,-55 297.5,-55 297.5,-74"/>
<text text-anchor="middle" x="232" y="-62" font-family="Helvetica,sans-Serif" font-size="10.00">ARGameModeBase.cpp</text>
</a>
</g>
</g>
<!-- Node1&#45;&gt;Node3 -->
<g id="edge2_Node000001_Node000003" class="edge">
<title>Node1&#45;&gt;Node3</title>
<g id="a_edge2_Node000001_Node000003"><a xlink:title=" ">
<path fill="none" stroke="#63b8ff" d="M924.95,-115.09C800.46,-108.78 532.55,-94.06 307,-74 304,-73.73 300.93,-73.45 297.83,-73.14"/>
<polygon fill="#63b8ff" stroke="#63b8ff" points="924.94,-118.59 935.11,-115.6 925.3,-111.6 924.94,-118.59"/>
</a>
</g>
</g>
<!-- Node4 -->
<g id="Node000004" class="node">
<title>Node4</title>
<g id="a_Node000004"><a xlink:href="ARGameStateBase_8cpp_source.html" target="_top" xlink:title=" ">
<polygon fill="white" stroke="#666666" points="444.5,-74 315.5,-74 315.5,-55 444.5,-55 444.5,-74"/>
<text text-anchor="middle" x="380" y="-62" font-family="Helvetica,sans-Serif" font-size="10.00">ARGameStateBase.cpp</text>
</a>
</g>
</g>
<!-- Node1&#45;&gt;Node4 -->
<g id="edge3_Node000001_Node000004" class="edge">
<title>Node1&#45;&gt;Node4</title>
<g id="a_edge3_Node000001_Node000004"><a xlink:title=" ">
<path fill="none" stroke="#63b8ff" d="M925.33,-113.49C822.24,-105.92 623.05,-90.66 454,-74 450.91,-73.7 447.75,-73.37 444.56,-73.04"/>
<polygon fill="#63b8ff" stroke="#63b8ff" points="925.07,-116.98 935.3,-114.22 925.59,-110 925.07,-116.98"/>
</a>
</g>
</g>
<!-- Node5 -->
<g id="Node000005" class="node">
<title>Node5</title>
<g id="a_Node000005"><a xlink:href="ARInvaderDirectorSubsystem_8cpp_source.html" target="_top" xlink:title=" ">
<polygon fill="white" stroke="#666666" points="643,-74 463,-74 463,-55 643,-55 643,-74"/>
<text text-anchor="middle" x="553" y="-62" font-family="Helvetica,sans-Serif" font-size="10.00">ARInvaderDirectorSubsystem.cpp</text>
</a>
</g>
</g>
<!-- Node1&#45;&gt;Node5 -->
<g id="edge4_Node000001_Node000005" class="edge">
<title>Node1&#45;&gt;Node5</title>
<g id="a_edge4_Node000001_Node000005"><a xlink:title=" ">
<path fill="none" stroke="#63b8ff" d="M925.38,-110.15C843.12,-100.29 706.96,-83.96 624.06,-74.02"/>
<polygon fill="#63b8ff" stroke="#63b8ff" points="925.04,-113.64 935.39,-111.35 925.88,-106.69 925.04,-113.64"/>
</a>
</g>
</g>
<!-- Node6 -->
<g id="Node000006" class="node">
<title>Node6</title>
<g id="a_Node000006"><a xlink:href="ARInvaderGameState_8cpp_source.html" target="_top" xlink:title=" ">
<polygon fill="white" stroke="#666666" points="803,-74 661,-74 661,-55 803,-55 803,-74"/>
<text text-anchor="middle" x="732" y="-62" font-family="Helvetica,sans-Serif" font-size="10.00">ARInvaderGameState.cpp</text>
</a>
</g>
</g>
<!-- Node1&#45;&gt;Node6 -->
<g id="edge5_Node000001_Node000006" class="edge">
<title>Node1&#45;&gt;Node6</title>
<g id="a_edge5_Node000001_Node000006"><a xlink:title=" ">
<path fill="none" stroke="#63b8ff" d="M942.91,-108C893.61,-98.07 820.5,-83.33 774.59,-74.08"/>
<polygon fill="#63b8ff" stroke="#63b8ff" points="942.25,-111.44 952.74,-109.98 943.63,-104.58 942.25,-111.44"/>
</a>
</g>
</g>
<!-- Node7 -->
<g id="Node000007" class="node">
<title>Node7</title>
<g id="a_Node000007"><a xlink:href="ARInvaderPlayerController_8cpp_source.html" target="_top" xlink:title=" ">
<polygon fill="white" stroke="#666666" points="986.5,-74 821.5,-74 821.5,-55 986.5,-55 986.5,-74"/>
<text text-anchor="middle" x="904" y="-62" font-family="Helvetica,sans-Serif" font-size="10.00">ARInvaderPlayerController.cpp</text>
</a>
</g>
</g>
<!-- Node1&#45;&gt;Node7 -->
<g id="edge6_Node000001_Node000007" class="edge">
<title>Node1&#45;&gt;Node7</title>
<g id="a_edge6_Node000001_Node000007"><a xlink:title=" ">
<path fill="none" stroke="#63b8ff" d="M971.3,-104.7C954.72,-95.04 933.09,-82.44 918.89,-74.17"/>
<polygon fill="#63b8ff" stroke="#63b8ff" points="969.98,-107.98 980.38,-109.98 973.5,-101.93 969.98,-107.98"/>
</a>
</g>
</g>
<!-- Node8 -->
<g id="Node000008" class="node">
<title>Node8</title>
<g id="a_Node000008"><a xlink:href="ARPlayerCharacterInvader_8cpp_source.html" target="_top" xlink:title=" ">
<polygon fill="white" stroke="#666666" points="1169,-74 1005,-74 1005,-55 1169,-55 1169,-74"/>
<text text-anchor="middle" x="1087" y="-62" font-family="Helvetica,sans-Serif" font-size="10.00">ARPlayerCharacterInvader.cpp</text>
</a>
</g>
</g>
<!-- Node1&#45;&gt;Node8 -->
<g id="edge7_Node000001_Node000008" class="edge">
<title>Node1&#45;&gt;Node8</title>
<g id="a_edge7_Node000001_Node000008"><a xlink:title=" ">
<path fill="none" stroke="#63b8ff" d="M1018.49,-104.97C1035.31,-95.28 1057.45,-82.52 1071.95,-74.17"/>
<polygon fill="#63b8ff" stroke="#63b8ff" points="1016.7,-101.96 1009.78,-109.98 1020.19,-108.03 1016.7,-101.96"/>
</a>
</g>
</g>
<!-- Node9 -->
<g id="Node000009" class="node">
<title>Node9</title>
<g id="a_Node000009"><a xlink:href="ARPlayerController_8cpp_source.html" target="_top" xlink:title=" ">
<polygon fill="white" stroke="#666666" points="1315,-74 1187,-74 1187,-55 1315,-55 1315,-74"/>
<text text-anchor="middle" x="1251" y="-62" font-family="Helvetica,sans-Serif" font-size="10.00">ARPlayerController.cpp</text>
</a>
</g>
</g>
<!-- Node1&#45;&gt;Node9 -->
<g id="edge8_Node000001_Node000009" class="edge">
<title>Node1&#45;&gt;Node9</title>
<g id="a_edge8_Node000001_Node000009"><a xlink:title=" ">
<path fill="none" stroke="#63b8ff" d="M1046,-107.94C1093.99,-98.01 1164.95,-83.31 1209.55,-74.08"/>
<polygon fill="#63b8ff" stroke="#63b8ff" points="1045.21,-104.53 1036.13,-109.98 1046.63,-111.38 1045.21,-104.53"/>
</a>
</g>
</g>
<!-- Node10 -->
<g id="Node000010" class="node">
<title>Node10</title>
<g id="a_Node000010"><a xlink:href="ARPlayerStateBase_8cpp_source.html" target="_top" xlink:title=" ">
<polygon fill="white" stroke="#666666" points="1464.5,-74 1333.5,-74 1333.5,-55 1464.5,-55 1464.5,-74"/>
<text text-anchor="middle" x="1399" y="-62" font-family="Helvetica,sans-Serif" font-size="10.00">ARPlayerStateBase.cpp</text>
</a>
</g>
</g>
<!-- Node1&#45;&gt;Node10 -->
<g id="edge9_Node000001_Node000010" class="edge">
<title>Node1&#45;&gt;Node10</title>
<g id="a_edge9_Node000001_Node000010"><a xlink:title=" ">
<path fill="none" stroke="#63b8ff" d="M1064.53,-109.38C1140.22,-99.45 1260.31,-83.69 1334.12,-74.01"/>
<polygon fill="#63b8ff" stroke="#63b8ff" points="1064.07,-105.91 1054.61,-110.68 1064.98,-112.85 1064.07,-105.91"/>
</a>
</g>
</g>
<!-- Node11 -->
<g id="Node000011" class="node">
<title>Node11</title>
<g id="a_Node000011"><a xlink:href="ARSaveSubsystem_8cpp_source.html" target="_top" xlink:title=" ">
<polygon fill="white" stroke="#666666" points="1611,-74 1483,-74 1483,-55 1611,-55 1611,-74"/>
<text text-anchor="middle" x="1547" y="-62" font-family="Helvetica,sans-Serif" font-size="10.00">ARSaveSubsystem.cpp</text>
</a>
</g>
</g>
<!-- Node1&#45;&gt;Node11 -->
<g id="edge10_Node000001_Node000011" class="edge">
<title>Node1&#45;&gt;Node11</title>
<g id="a_edge10_Node000001_Node000011"><a xlink:title=" ">
<path fill="none" stroke="#63b8ff" d="M1064.95,-112.52C1158.29,-104.41 1328.69,-89.21 1474,-74 1476.92,-73.69 1479.9,-73.38 1482.92,-73.05"/>
<polygon fill="#63b8ff" stroke="#63b8ff" points="1064.45,-109.05 1054.78,-113.4 1065.05,-116.02 1064.45,-109.05"/>
</a>
</g>
</g>
<!-- Node12 -->
<g id="Node000012" class="node">
<title>Node12</title>
<g id="a_Node000012"><a xlink:href="ARSessionSubsystem_8cpp_source.html" target="_top" xlink:title=" ">
<polygon fill="white" stroke="#666666" points="1771,-74 1629,-74 1629,-55 1771,-55 1771,-74"/>
<text text-anchor="middle" x="1700" y="-62" font-family="Helvetica,sans-Serif" font-size="10.00">ARSessionSubsystem.cpp</text>
</a>
</g>
</g>
<!-- Node1&#45;&gt;Node12 -->
<g id="edge11_Node000001_Node000012" class="edge">
<title>Node1&#45;&gt;Node12</title>
<g id="a_edge11_Node000001_Node000012"><a xlink:title=" ">
<path fill="none" stroke="#63b8ff" d="M1064.63,-114.34C1180.13,-107.25 1418.58,-91.87 1620,-74 1622.92,-73.74 1625.9,-73.47 1628.91,-73.18"/>
<polygon fill="#63b8ff" stroke="#63b8ff" points="1064.28,-110.85 1054.52,-114.95 1064.71,-117.84 1064.28,-110.85"/>
</a>
</g>
</g>
<!-- Node13 -->
<g id="Node000013" class="node">
<title>Node13</title>
<g id="a_Node000013"><a xlink:href="ARTestingSettings_8h_source.html" target="_top" xlink:title=" ">
<polygon fill="white" stroke="#666666" points="1902.5,-74 1789.5,-74 1789.5,-55 1902.5,-55 1902.5,-74"/>
<text text-anchor="middle" x="1846" y="-62" font-family="Helvetica,sans-Serif" font-size="10.00">ARTestingSettings.h</text>
</a>
</g>
</g>
<!-- Node1&#45;&gt;Node13 -->
<g id="edge12_Node000001_Node000013" class="edge">
<title>Node1&#45;&gt;Node13</title>
<g id="a_edge12_Node000001_Node000013"><a xlink:title=" ">
<path fill="none" stroke="#63b8ff" d="M1065.06,-116.21C1202.43,-111.35 1516.71,-98.39 1780,-74 1782.99,-73.72 1786.06,-73.41 1789.15,-73.08"/>
<polygon fill="#63b8ff" stroke="#63b8ff" points="1064.56,-112.72 1054.69,-116.57 1064.8,-119.72 1064.56,-112.72"/>
</a>
</g>
</g>
<!-- Node14 -->
<g id="Node000014" class="node">
<title>Node14</title>
<g id="a_Node000014"><a xlink:href="ARTestingSettings_8cpp_source.html" target="_top" xlink:title=" ">
<polygon fill="white" stroke="#666666" points="1908,-19 1784,-19 1784,0 1908,0 1908,-19"/>
<text text-anchor="middle" x="1846" y="-7" font-family="Helvetica,sans-Serif" font-size="10.00">ARTestingSettings.cpp</text>
</a>
</g>
</g>
<!-- Node13&#45;&gt;Node14 -->
<g id="edge13_Node000013_Node000014" class="edge">
<title>Node13&#45;&gt;Node14</title>
<g id="a_edge13_Node000013_Node000014"><a xlink:title=" ">
<path fill="none" stroke="#63b8ff" d="M1846,-44.66C1846,-35.93 1846,-25.99 1846,-19.09"/>
<polygon fill="#63b8ff" stroke="#63b8ff" points="1842.5,-44.75 1846,-54.75 1849.5,-44.75 1842.5,-44.75"/>
</a>
</g>
</g>
</g>
</svg>
