<?xml version="1.0" encoding="UTF-8" standalone="no"?>
<!DOCTYPE svg PUBLIC "-//W3C//DTD SVG 1.1//EN"
 "http://www.w3.org/Graphics/SVG/1.1/DTD/svg11.dtd">
<!-- Generated by graphviz version 2.43.0 (0)
 -->
<!-- Title: ARPlayerController.h Pages: 1 -->
<!--zoomable 137 -->

<svg id="main" version="1.1" xmlns="http://www.w3.org/2000/svg" xmlns:xlink="http://www.w3.org/1999/xlink" xml:space="preserve" onload="init(evt)">
<style type="text/css"><![CDATA[
.node, .edge {opacity: 0.7;}
.node.selected, .edge.selected {opacity: 1;}
.edge:hover path { stroke: red; }
.edge:hover polygon { stroke: red; fill: red; }
]]></style>

<defs>
  <circle id="rim" cx="0" cy="0" r="7"/>
  <circle id="rim2" cx="0" cy="0" r="3.5"/>
  <g id="zoomPlus">
    <use xlink:href="#rim" fill="#404040"><set attributeName="fill" to="#808080" begin="zoomplus.mouseover" end="zoomplus.mouseout"/></use>
    <path d="M-4,0h8M0,-4v8" fill="none" stroke="white" stroke-width="1.5" pointer-events="none"/>
  </g>
  <g id="zoomMin">
    <use xlink:href="#rim" fill="#404040"><set attributeName="fill" to="#808080" begin="zoomminus.mouseover" end="zoomminus.mouseout"/></use>
    <path d="M-4,0h8" fill="none" stroke="white" stroke-width="1.5" pointer-events="none"/>
  </g>
  <g id="arrowUp" transform="translate(30 24)">
    <use xlink:href="#rim"/>
    <path pointer-events="none" fill="none" stroke="white" stroke-width="1.5" d="M0,-3.0v7 M-2.5,-0.5L0,-3.0L2.5,-0.5"/>
  </g>
  <g id="arrowRight" transform="rotate(90) translate(36 -43)">
    <use xlink:href="#rim"/>
    <path pointer-events="none" fill="none" stroke="white" stroke-width="1.5" d="M0,-3.0v7 M-2.5,-0.5L0,-3.0L2.5,-0.5"/>
  </g>
  <g id="arrowDown" transform="rotate(180) translate(-30 -48)">
    <use xlink:href="#rim"/>
    <path pointer-events="none" fill="none" stroke="white" stroke-width="1.5" d="M0,-3.0v7 M-2.5,-0.5L0,-3.0L2.5,-0.5"/>
  </g>
  <g id="arrowLeft" transform="rotate(270) translate(-36 17)">
    <use xlink:href="#rim"/>
    <path pointer-events="none" fill="none" stroke="white" stroke-width="1.5" d="M0,-3.0v7 M-2.5,-0.5L0,-3.0L2.5,-0.5"/>
  </g>
  <g id="resetDef">
    <use xlink:href="#rim2" fill="#404040"><set attributeName="fill" to="#808080" begin="reset.mouseover" end="reset.mouseout"/></use>
  </g>
</defs>
<script type="application/ecmascript">
var viewWidth = 1491;
var viewHeight = 137;
var sectionId = 'dynsection-1';
</script>
<script type="application/ecmascript" xlink:href="svg.min.js"/>
<svg id="graph" class="graph">
<g id="viewport">
<title>ARPlayerController.h</title>
<!-- Node1 -->
<g id="Node000001" class="node">
<title>Node1</title>
<g id="a_Node000001"><a xlink:title="ARPlayerController header for Alien Ramen.">
<polygon fill="#999999" stroke="#666666" points="735.5,-129 618.5,-129 618.5,-110 735.5,-110 735.5,-129"/>
<text text-anchor="middle" x="677" y="-117" font-family="Helvetica,sans-Serif" font-size="10.00">ARPlayerController.h</text>
</a>
</g>
</g>
<!-- Node2 -->
<g id="Node000002" class="node">
<title>Node2</title>
<g id="a_Node000002"><a xlink:href="ARDialogueSubsystem_8cpp_source.html" target="_top" xlink:title=" ">
<polygon fill="white" stroke="#666666" points="148,-74 0,-74 0,-55 148,-55 148,-74"/>
<text text-anchor="middle" x="74" y="-62" font-family="Helvetica,sans-Serif" font-size="10.00">ARDialogueSubsystem.cpp</text>
</a>
</g>
</g>
<!-- Node1&#45;&gt;Node2 -->
<g id="edge1_Node000001_Node000002" class="edge">
<title>Node1&#45;&gt;Node2</title>
<g id="a_edge1_Node000001_Node000002"><a xlink:title=" ">
<path fill="none" stroke="#63b8ff" d="M608.26,-112.98C508.71,-104.91 318.62,-89.19 157,-74 154.12,-73.73 151.18,-73.45 148.21,-73.16"/>
<polygon fill="#63b8ff" stroke="#63b8ff" points="608.23,-116.49 618.48,-113.81 608.8,-109.52 608.23,-116.49"/>
</a>
</g>
</g>
<!-- Node3 -->
<g id="Node000003" class="node">
<title>Node3</title>
<g id="a_Node000003"><a xlink:href="ARHUDBase_8cpp_source.html" target="_top" xlink:title=" ">
<polygon fill="white" stroke="#666666" points="263.5,-74 166.5,-74 166.5,-55 263.5,-55 263.5,-74"/>
<text text-anchor="middle" x="215" y="-62" font-family="Helvetica,sans-Serif" font-size="10.00">ARHUDBase.cpp</text>
</a>
</g>
</g>
<!-- Node1&#45;&gt;Node3 -->
<g id="edge2_Node000001_Node000003" class="edge">
<title>Node1&#45;&gt;Node3</title>
<g id="a_edge2_Node000001_Node000003"><a xlink:title=" ">
<path fill="none" stroke="#63b8ff" d="M608.38,-111.7C527.93,-103.55 390.63,-89.09 273,-74 269.97,-73.61 266.86,-73.2 263.72,-72.77"/>
<polygon fill="#63b8ff" stroke="#63b8ff" points="608.08,-115.19 618.38,-112.71 608.78,-108.22 608.08,-115.19"/>
</a>
</g>
</g>
<!-- Node4 -->
<g id="Node000004" class="node">
<title>Node4</title>
<g id="a_Node000004"><a xlink:href="ARInvaderPlayerController_8h.html" target="_top" xlink:title="ARInvaderPlayerController header for Alien Ramen.">
<polygon fill="white" stroke="#666666" points="436,-74 282,-74 282,-55 436,-55 436,-74"/>
<text text-anchor="middle" x="359" y="-62" font-family="Helvetica,sans-Serif" font-size="10.00">ARInvaderPlayerController.h</text>
</a>
</g>
</g>
<!-- Node1&#45;&gt;Node4 -->
<g id="edge3_Node000001_Node000004" class="edge">
<title>Node1&#45;&gt;Node4</title>
<g id="a_edge3_Node000001_Node000004"><a xlink:title=" ">
<path fill="none" stroke="#63b8ff" d="M615.86,-108.31C556.14,-98.36 466.3,-83.38 410.23,-74.04"/>
<polygon fill="#63b8ff" stroke="#63b8ff" points="615.47,-111.79 625.91,-109.98 616.62,-104.89 615.47,-111.79"/>
</a>
</g>
</g>
<!-- Node7 -->
<g id="Node000007" class="node">
<title>Node7</title>
<g id="a_Node000007"><a xlink:href="ARLobbyPlayerController_8h.html" target="_top" xlink:title="ARLobbyPlayerController header for Alien Ramen.">
<polygon fill="white" stroke="#666666" points="600,-74 454,-74 454,-55 600,-55 600,-74"/>
<text text-anchor="middle" x="527" y="-62" font-family="Helvetica,sans-Serif" font-size="10.00">ARLobbyPlayerController.h</text>
</a>
</g>
</g>
<!-- Node1&#45;&gt;Node7 -->
<g id="edge6_Node000001_Node000007" class="edge">
<title>Node1&#45;&gt;Node7</title>
<g id="a_edge6_Node000001_Node000007"><a xlink:title=" ">
<path fill="none" stroke="#63b8ff" d="M643.18,-106.55C615.32,-96.71 576.49,-82.98 551.54,-74.17"/>
<polygon fill="#63b8ff" stroke="#63b8ff" points="642.31,-109.95 652.9,-109.98 644.64,-103.35 642.31,-109.95"/>
</a>
</g>
</g>
<!-- Node9 -->
<g id="Node000009" class="node">
<title>Node9</title>
<g id="a_Node000009"><a xlink:href="ARPlayerController_8cpp_source.html" target="_top" xlink:title=" ">
<polygon fill="white" stroke="#666666" points="752,-19 624,-19 624,0 752,0 752,-19"/>
<text text-anchor="middle" x="688" y="-7" font-family="Helvetica,sans-Serif" font-size="10.00">ARPlayerController.cpp</text>
</a>
</g>
</g>
<!-- Node1&#45;&gt;Node9 -->
<g id="edge11_Node000001_Node000009" class="edge">
<title>Node1&#45;&gt;Node9</title>
<g id="a_edge11_Node000001_Node000009"><a xlink:title=" ">
<path fill="none" stroke="#63b8ff" d="M660.92,-101.8C650.76,-89.15 640.66,-71.24 647,-55 652.81,-40.13 666.17,-27.23 676.07,-19.2"/>
<polygon fill="#63b8ff" stroke="#63b8ff" points="658.54,-104.4 667.76,-109.63 663.81,-99.79 658.54,-104.4"/>
</a>
</g>
</g>
<!-- Node10 -->
<g id="Node000010" class="node">
<title>Node10</title>
<g id="a_Node000010"><a xlink:href="ARNPCCharacterBase_8cpp_source.html" target="_top" xlink:title=" ">
<polygon fill="white" stroke="#666666" points="798,-74 656,-74 656,-55 798,-55 798,-74"/>
<text text-anchor="middle" x="727" y="-62" font-family="Helvetica,sans-Serif" font-size="10.00">ARNPCCharacterBase.cpp</text>
</a>
</g>
</g>
<!-- Node1&#45;&gt;Node10 -->
<g id="edge9_Node000001_Node000010" class="edge">
<title>Node1&#45;&gt;Node10</title>
<g id="a_edge9_Node000001_Node000010"><a xlink:title=" ">
<path fill="none" stroke="#63b8ff" d="M692.34,-102.24C701.1,-92.95 711.74,-81.68 718.9,-74.09"/>
<polygon fill="#63b8ff" stroke="#63b8ff" points="689.57,-100.07 685.26,-109.75 694.66,-104.88 689.57,-100.07"/>
</a>
</g>
</g>
<!-- Node11 -->
<g id="Node000011" class="node">
<title>Node11</title>
<g id="a_Node000011"><a xlink:href="ARPlayerCharacterInvader_8cpp_source.html" target="_top" xlink:title=" ">
<polygon fill="white" stroke="#666666" points="980,-74 816,-74 816,-55 980,-55 980,-74"/>
<text text-anchor="middle" x="898" y="-62" font-family="Helvetica,sans-Serif" font-size="10.00">ARPlayerCharacterInvader.cpp</text>
</a>
</g>
</g>
<!-- Node1&#45;&gt;Node11 -->
<g id="edge10_Node000001_Node000011" class="edge">
<title>Node1&#45;&gt;Node11</title>
<g id="a_edge10_Node000001_Node000011"><a xlink:title=" ">
<path fill="none" stroke="#63b8ff" d="M722.34,-107.63C763.74,-97.7 824.12,-83.22 862.21,-74.08"/>
<polygon fill="#63b8ff" stroke="#63b8ff" points="721.42,-104.25 712.51,-109.98 723.05,-111.06 721.42,-104.25"/>
</a>
</g>
</g>
<!-- Node12 -->
<g id="Node000012" class="node">
<title>Node12</title>
<g id="a_Node000012"><a xlink:href="ARSaveSubsystem_8cpp_source.html" target="_top" xlink:title=" ">
<polygon fill="white" stroke="#666666" points="1126,-74 998,-74 998,-55 1126,-55 1126,-74"/>
<text text-anchor="middle" x="1062" y="-62" font-family="Helvetica,sans-Serif" font-size="10.00">ARSaveSubsystem.cpp</text>
</a>
</g>
</g>
<!-- Node1&#45;&gt;Node12 -->
<g id="edge12_Node000001_Node000012" class="edge">
<title>Node1&#45;&gt;Node12</title>
<g id="a_edge12_Node000001_Node000012"><a xlink:title=" ">
<path fill="none" stroke="#63b8ff" d="M745.82,-109.03C818.1,-99.08 930.73,-83.57 1000.25,-74"/>
<polygon fill="#63b8ff" stroke="#63b8ff" points="745.32,-105.56 735.89,-110.39 746.28,-112.5 745.32,-105.56"/>
</a>
</g>
</g>
<!-- Node13 -->
<g id="Node000013" class="node">
<title>Node13</title>
<g id="a_Node000013"><a xlink:href="ARScrapyardPlayerController_8h.html" target="_top" xlink:title="ARScrapyardPlayerController header for Alien Ramen.">
<polygon fill="white" stroke="#666666" points="1310,-74 1144,-74 1144,-55 1310,-55 1310,-74"/>
<text text-anchor="middle" x="1227" y="-62" font-family="Helvetica,sans-Serif" font-size="10.00">ARScrapyardPlayerController.h</text>
</a>
</g>
</g>
<!-- Node1&#45;&gt;Node13 -->
<g id="edge13_Node000001_Node000013" class="edge">
<title>Node1&#45;&gt;Node13</title>
<g id="a_edge13_Node000001_Node000013"><a xlink:title=" ">
<path fill="none" stroke="#63b8ff" d="M745.7,-111.88C846.76,-102.14 1035.27,-83.98 1143.96,-73.5"/>
<polygon fill="#63b8ff" stroke="#63b8ff" points="745.22,-108.41 735.6,-112.85 745.89,-115.38 745.22,-108.41"/>
</a>
</g>
</g>
<!-- Node15 -->
<g id="Node000015" class="node">
<title>Node15</title>
<g id="a_Node000015"><a xlink:href="ARShopPlayerController_8h.html" target="_top" xlink:title="ARShopPlayerController header for Alien Ramen.">
<polygon fill="white" stroke="#666666" points="1474.5,-74 1333.5,-74 1333.5,-55 1474.5,-55 1474.5,-74"/>
<text text-anchor="middle" x="1404" y="-62" font-family="Helvetica,sans-Serif" font-size="10.00">ARShopPlayerController.h</text>
</a>
</g>
</g>
<!-- Node1&#45;&gt;Node15 -->
<g id="edge15_Node000001_Node000015" class="edge">
<title>Node1&#45;&gt;Node15</title>
<g id="a_edge15_Node000001_Node000015"><a xlink:title=" ">
<path fill="none" stroke="#63b8ff" d="M746.21,-114.4C863.94,-107.26 1110.7,-91.63 1319,-74 1323.58,-73.61 1328.3,-73.19 1333.05,-72.76"/>
<polygon fill="#63b8ff" stroke="#63b8ff" points="745.68,-110.92 735.91,-115.02 746.1,-117.91 745.68,-110.92"/>
</a>
</g>
</g>
<!-- Node5 -->
<g id="Node000005" class="node">
<title>Node5</title>
<g id="a_Node000005"><a xlink:href="ARInvaderFullBlastMenuWidget_8cpp_source.html" target="_top" xlink:title=" ">
<polygon fill="white" stroke="#666666" points="246.5,-19 55.5,-19 55.5,0 246.5,0 246.5,-19"/>
<text text-anchor="middle" x="151" y="-7" font-family="Helvetica,sans-Serif" font-size="10.00">ARInvaderFullBlastMenuWidget.cpp</text>
</a>
</g>
</g>
<!-- Node4&#45;&gt;Node5 -->
<g id="edge4_Node000004_Node000005" class="edge">
<title>Node4&#45;&gt;Node5</title>
<g id="a_edge4_Node000004_Node000005"><a xlink:title=" ">
<path fill="none" stroke="#63b8ff" d="M315.59,-52.44C276.65,-42.52 220.31,-28.16 184.68,-19.08"/>
<polygon fill="#63b8ff" stroke="#63b8ff" points="315.03,-55.91 325.58,-54.98 316.76,-49.12 315.03,-55.91"/>
</a>
</g>
</g>
<!-- Node6 -->
<g id="Node000006" class="node">
<title>Node6</title>
<g id="a_Node000006"><a xlink:href="ARInvaderPlayerController_8cpp_source.html" target="_top" xlink:title=" ">
<polygon fill="white" stroke="#666666" points="429.5,-19 264.5,-19 264.5,0 429.5,0 429.5,-19"/>
<text text-anchor="middle" x="347" y="-7" font-family="Helvetica,sans-Serif" font-size="10.00">ARInvaderPlayerController.cpp</text>
</a>
</g>
</g>
<!-- Node4&#45;&gt;Node6 -->
<g id="edge5_Node000004_Node000006" class="edge">
<title>Node4&#45;&gt;Node6</title>
<g id="a_edge5_Node000004_Node000006"><a xlink:title=" ">
<path fill="none" stroke="#63b8ff" d="M354.8,-44.95C352.81,-36.15 350.52,-26.06 348.94,-19.09"/>
<polygon fill="#63b8ff" stroke="#63b8ff" points="351.4,-45.77 357.02,-54.75 358.22,-44.22 351.4,-45.77"/>
</a>
</g>
</g>
<!-- Node8 -->
<g id="Node000008" class="node">
<title>Node8</title>
<g id="a_Node000008"><a xlink:href="ARLobbyPlayerController_8cpp_source.html" target="_top" xlink:title=" ">
<polygon fill="white" stroke="#666666" points="606,-19 448,-19 448,0 606,0 606,-19"/>
<text text-anchor="middle" x="527" y="-7" font-family="Helvetica,sans-Serif" font-size="10.00">ARLobbyPlayerController.cpp</text>
</a>
</g>
</g>
<!-- Node7&#45;&gt;Node8 -->
<g id="edge7_Node000007_Node000008" class="edge">
<title>Node7&#45;&gt;Node8</title>
<g id="a_edge7_Node000007_Node000008"><a xlink:title=" ">
<path fill="none" stroke="#63b8ff" d="M527,-44.66C527,-35.93 527,-25.99 527,-19.09"/>
<polygon fill="#63b8ff" stroke="#63b8ff" points="523.5,-44.75 527,-54.75 530.5,-44.75 523.5,-44.75"/>
</a>
</g>
</g>
<!-- Node7&#45;&gt;Node9 -->
<g id="edge8_Node000007_Node000009" class="edge">
<title>Node7&#45;&gt;Node9</title>
<g id="a_edge8_Node000007_Node000009"><a xlink:title=" ">
<path fill="none" stroke="#63b8ff" d="M562.55,-51.8C592.59,-41.91 634.94,-27.97 661.93,-19.08"/>
<polygon fill="#63b8ff" stroke="#63b8ff" points="561.27,-48.53 552.87,-54.98 563.46,-55.18 561.27,-48.53"/>
</a>
</g>
</g>
<!-- Node14 -->
<g id="Node000014" class="node">
<title>Node14</title>
<g id="a_Node000014"><a xlink:href="ARScrapyardPlayerController_8cpp_source.html" target="_top" xlink:title=" ">
<polygon fill="white" stroke="#666666" points="1312.5,-19 1135.5,-19 1135.5,0 1312.5,0 1312.5,-19"/>
<text text-anchor="middle" x="1224" y="-7" font-family="Helvetica,sans-Serif" font-size="10.00">ARScrapyardPlayerController.cpp</text>
</a>
</g>
</g>
<!-- Node13&#45;&gt;Node14 -->
<g id="edge14_Node000013_Node000014" class="edge">
<title>Node13&#45;&gt;Node14</title>
<g id="a_edge14_Node000013_Node000014"><a xlink:title=" ">
<path fill="none" stroke="#63b8ff" d="M1225.93,-44.66C1225.44,-35.93 1224.88,-25.99 1224.49,-19.09"/>
<polygon fill="#63b8ff" stroke="#63b8ff" points="1222.44,-44.96 1226.5,-54.75 1229.43,-44.57 1222.44,-44.96"/>
</a>
</g>
</g>
<!-- Node16 -->
<g id="Node000016" class="node">
<title>Node16</title>
<g id="a_Node000016"><a xlink:href="ARShopPlayerController_8cpp_source.html" target="_top" xlink:title=" ">
<polygon fill="white" stroke="#666666" points="1483,-19 1331,-19 1331,0 1483,0 1483,-19"/>
<text text-anchor="middle" x="1407" y="-7" font-family="Helvetica,sans-Serif" font-size="10.00">ARShopPlayerController.cpp</text>
</a>
</g>
</g>
<!-- Node15&#45;&gt;Node16 -->
<g id="edge16_Node000015_Node000016" class="edge">
<title>Node15&#45;&gt;Node16</title>
<g id="a_edge16_Node000015_Node000016"><a xlink:title=" ">
<path fill="none" stroke="#63b8ff" d="M1405.07,-44.66C1405.56,-35.93 1406.12,-25.99 1406.51,-19.09"/>
<polygon fill="#63b8ff" stroke="#63b8ff" points="1401.57,-44.57 1404.5,-54.75 1408.56,-44.96 1401.57,-44.57"/>
</a>
</g>
</g>
</g>
</svg>

<g id="navigator" transform="translate(0 0)" fill="#404254">
  <rect fill="#f2f5e9" fill-opacity="0.5" stroke="#606060" stroke-width=".5" x="0" y="0" width="60" height="60"/>
  <use id="zoomplus" xlink:href="#zoomPlus" x="17" y="9" onmousedown="handleZoom(evt,'in')"/>
  <use id="zoomminus" xlink:href="#zoomMin" x="42" y="9" onmousedown="handleZoom(evt,'out')"/>
  <use id="reset" xlink:href="#resetDef" x="30" y="36" onmousedown="handleReset()"/>
   <use id="arrowup" xlink:href="#arrowUp" x="0" y="0" onmousedown="handlePan(0,-1)"/>
  <use id="arrowright" xlink:href="#arrowRight" x="0" y="0" onmousedown="handlePan(1,0)"/>
  <use id="arrowdown" xlink:href="#arrowDown" x="0" y="0" onmousedown="handlePan(0,1)"/>
  <use id="arrowleft" xlink:href="#arrowLeft" x="0" y="0" onmousedown="handlePan(-1,0)"/>
</g>
<svg viewBox="0 0 15 15" width="100%" height="30px" preserveAspectRatio="xMaxYMin meet">
 <g id="arrow_out" transform="scale(0.3 0.3)">
  <a xlink:href="ARPlayerController_8h__dep__incl_org.svg" target="_base">
   <rect id="button" ry="5" rx="5" y="6" x="6" height="38" width="38"
        fill="#f2f5e9" fill-opacity="0.5" stroke="#606060" stroke-width="1.0"/>
   <path id="arrow"
     d="M 11.500037,31.436501 C 11.940474,20.09759 22.043105,11.32322 32.158766,21.979434 L 37.068811,17.246167 C 37.068811,17.246167 37.088388,32 37.088388,32 L 22.160133,31.978069 C 22.160133,31.978069 26.997745,27.140456 26.997745,27.140456 C 18.528582,18.264221 13.291696,25.230495 11.500037,31.436501 z"
     style="fill:#404040;"/>
  </a>
 </g>
</svg>

<style type='text/css'>
<![CDATA[
[data-mouse-over-selected='false'] { opacity: 0.7; }
[data-mouse-over-selected='true']  { opacity: 1.0; }
]]>
</style>
<script type="application/ecmascript"><![CDATA[
document.addEventListener('DOMContentLoaded', (event) => {
  highlightEdges();
  highlightAdjacentNodes();
});
]]></script>
</svg>
