<?xml version="1.0" encoding="UTF-8" standalone="no"?>
<!DOCTYPE svg PUBLIC "-//W3C//DTD SVG 1.1//EN"
 "http://www.w3.org/Graphics/SVG/1.1/DTD/svg11.dtd">
<!-- Generated by graphviz version 2.43.0 (0)
 -->
<!-- Title: ARPlayerCharacterBase.h Pages: 1 -->
<svg width="1016pt" height="137pt"
 viewBox="0.00 0.00 1016.00 137.00" xmlns="http://www.w3.org/2000/svg" xmlns:xlink="http://www.w3.org/1999/xlink">
<g id="graph0" class="graph" transform="scale(1 1) rotate(0) translate(4 133)">
<title>ARPlayerCharacterBase.h</title>
<!-- Node1 -->
<g id="Node000001" class="node">
<title>Node1</title>
<g id="a_Node000001"><a xlink:title="ARPlayerCharacterBase header for Alien Ramen.">
<polygon fill="#999999" stroke="#666666" points="606.5,-129 465.5,-129 465.5,-110 606.5,-110 606.5,-129"/>
<text text-anchor="middle" x="536" y="-117" font-family="Helvetica,sans-Serif" font-size="10.00">ARPlayerCharacterBase.h</text>
</a>
</g>
</g>
<!-- Node2 -->
<g id="Node000002" class="node">
<title>Node2</title>
<g id="a_Node000002"><a xlink:href="ARPlayerCharacterBase_8cpp_source.html" target="_top" xlink:title=" ">
<polygon fill="white" stroke="#666666" points="302,-74 150,-74 150,-55 302,-55 302,-74"/>
<text text-anchor="middle" x="226" y="-62" font-family="Helvetica,sans-Serif" font-size="10.00">ARPlayerCharacterBase.cpp</text>
</a>
</g>
</g>
<!-- Node1&#45;&gt;Node2 -->
<g id="edge1_Node000001_Node000002" class="edge">
<title>Node1&#45;&gt;Node2</title>
<g id="a_edge1_Node000001_Node000002"><a xlink:title=" ">
<path fill="none" stroke="#63b8ff" d="M476.04,-108.25C417.82,-98.3 330.49,-83.36 275.94,-74.04"/>
<polygon fill="#63b8ff" stroke="#63b8ff" points="475.75,-111.75 486.19,-109.98 476.93,-104.85 475.75,-111.75"/>
</a>
</g>
</g>
<!-- Node3 -->
<g id="Node000003" class="node">
<title>Node3</title>
<g id="a_Node000003"><a xlink:href="ARPlayerCharacterInvader_8h.html" target="_top" xlink:title="ARPlayerCharacterInvader header for Alien Ramen.">
<polygon fill="white" stroke="#666666" points="473.5,-74 320.5,-74 320.5,-55 473.5,-55 473.5,-74"/>
<text text-anchor="middle" x="397" y="-62" font-family="Helvetica,sans-Serif" font-size="10.00">ARPlayerCharacterInvader.h</text>
</a>
</g>
</g>
<!-- Node1&#45;&gt;Node3 -->
<g id="edge2_Node000001_Node000003" class="edge">
<title>Node1&#45;&gt;Node3</title>
<g id="a_edge2_Node000001_Node000003"><a xlink:title=" ">
<path fill="none" stroke="#63b8ff" d="M504.32,-106.42C478.53,-96.59 442.76,-82.95 419.74,-74.17"/>
<polygon fill="#63b8ff" stroke="#63b8ff" points="503.08,-109.69 513.67,-109.98 505.57,-103.15 503.08,-109.69"/>
</a>
</g>
</g>
<!-- Node8 -->
<g id="Node000008" class="node">
<title>Node8</title>
<g id="a_Node000008"><a xlink:href="ARPlayerCharacterScrapyard_8h.html" target="_top" xlink:title="ARPlayerCharacterScrapyard header for Alien Ramen.">
<polygon fill="white" stroke="#666666" points="759,-74 593,-74 593,-55 759,-55 759,-74"/>
<text text-anchor="middle" x="676" y="-62" font-family="Helvetica,sans-Serif" font-size="10.00">ARPlayerCharacterScrapyard.h</text>
</a>
</g>
</g>
<!-- Node1&#45;&gt;Node8 -->
<g id="edge7_Node000001_Node000008" class="edge">
<title>Node1&#45;&gt;Node8</title>
<g id="a_edge7_Node000001_Node000008"><a xlink:title=" ">
<path fill="none" stroke="#63b8ff" d="M567.91,-106.42C593.88,-96.59 629.92,-82.95 653.1,-74.17"/>
<polygon fill="#63b8ff" stroke="#63b8ff" points="566.61,-103.17 558.49,-109.98 569.08,-109.72 566.61,-103.17"/>
</a>
</g>
</g>
<!-- Node10 -->
<g id="Node000010" class="node">
<title>Node10</title>
<g id="a_Node000010"><a xlink:href="ARPlayerCharacterShop_8h.html" target="_top" xlink:title="ARPlayerCharacterShop header for Alien Ramen.">
<polygon fill="white" stroke="#666666" points="974.5,-74 833.5,-74 833.5,-55 974.5,-55 974.5,-74"/>
<text text-anchor="middle" x="904" y="-62" font-family="Helvetica,sans-Serif" font-size="10.00">ARPlayerCharacterShop.h</text>
</a>
</g>
</g>
<!-- Node1&#45;&gt;Node10 -->
<g id="edge9_Node000001_Node000010" class="edge">
<title>Node1&#45;&gt;Node10</title>
<g id="a_edge9_Node000001_Node000010"><a xlink:title=" ">
<path fill="none" stroke="#63b8ff" d="M605.05,-108.56C674.14,-98.61 779.3,-83.46 844.72,-74.04"/>
<polygon fill="#63b8ff" stroke="#63b8ff" points="604.52,-105.09 595.13,-109.98 605.52,-112.02 604.52,-105.09"/>
</a>
</g>
</g>
<!-- Node4 -->
<g id="Node000004" class="node">
<title>Node4</title>
<g id="a_Node000004"><a xlink:href="AREnemyBase_8cpp_source.html" target="_top" xlink:title=" ">
<polygon fill="white" stroke="#666666" points="108,-19 0,-19 0,0 108,0 108,-19"/>
<text text-anchor="middle" x="54" y="-7" font-family="Helvetica,sans-Serif" font-size="10.00">AREnemyBase.cpp</text>
</a>
</g>
</g>
<!-- Node3&#45;&gt;Node4 -->
<g id="edge3_Node000003_Node000004" class="edge">
<title>Node3&#45;&gt;Node4</title>
<g id="a_edge3_Node000003_Node000004"><a xlink:title=" ">
<path fill="none" stroke="#63b8ff" d="M331.79,-53.42C266.98,-43.41 168.75,-28.23 108.12,-18.86"/>
<polygon fill="#63b8ff" stroke="#63b8ff" points="331.47,-56.92 341.89,-54.98 332.54,-50 331.47,-56.92"/>
</a>
</g>
</g>
<!-- Node5 -->
<g id="Node000005" class="node">
<title>Node5</title>
<g id="a_Node000005"><a xlink:href="ARInvaderDropBase_8cpp_source.html" target="_top" xlink:title=" ">
<polygon fill="white" stroke="#666666" points="260,-19 126,-19 126,0 260,0 260,-19"/>
<text text-anchor="middle" x="193" y="-7" font-family="Helvetica,sans-Serif" font-size="10.00">ARInvaderDropBase.cpp</text>
</a>
</g>
</g>
<!-- Node3&#45;&gt;Node5 -->
<g id="edge4_Node000003_Node000005" class="edge">
<title>Node3&#45;&gt;Node5</title>
<g id="a_edge4_Node000003_Node000005"><a xlink:title=" ">
<path fill="none" stroke="#63b8ff" d="M354.42,-52.44C316.23,-42.52 260.98,-28.16 226.03,-19.08"/>
<polygon fill="#63b8ff" stroke="#63b8ff" points="353.67,-55.86 364.22,-54.98 355.43,-49.08 353.67,-55.86"/>
</a>
</g>
</g>
<!-- Node6 -->
<g id="Node000006" class="node">
<title>Node6</title>
<g id="a_Node000006"><a xlink:href="ARPickupCollectorComponent_8cpp_source.html" target="_top" xlink:title=" ">
<polygon fill="white" stroke="#666666" points="460,-19 278,-19 278,0 460,0 460,-19"/>
<text text-anchor="middle" x="369" y="-7" font-family="Helvetica,sans-Serif" font-size="10.00">ARPickupCollectorComponent.cpp</text>
</a>
</g>
</g>
<!-- Node3&#45;&gt;Node6 -->
<g id="edge5_Node000003_Node000006" class="edge">
<title>Node3&#45;&gt;Node6</title>
<g id="a_edge5_Node000003_Node000006"><a xlink:title=" ">
<path fill="none" stroke="#63b8ff" d="M387.66,-45.82C382.91,-36.82 377.34,-26.29 373.54,-19.09"/>
<polygon fill="#63b8ff" stroke="#63b8ff" points="384.61,-47.54 392.38,-54.75 390.8,-44.27 384.61,-47.54"/>
</a>
</g>
</g>
<!-- Node7 -->
<g id="Node000007" class="node">
<title>Node7</title>
<g id="a_Node000007"><a xlink:href="ARPlayerCharacterInvader_8cpp_source.html" target="_top" xlink:title=" ">
<polygon fill="white" stroke="#666666" points="642,-19 478,-19 478,0 642,0 642,-19"/>
<text text-anchor="middle" x="560" y="-7" font-family="Helvetica,sans-Serif" font-size="10.00">ARPlayerCharacterInvader.cpp</text>
</a>
</g>
</g>
<!-- Node3&#45;&gt;Node7 -->
<g id="edge6_Node000003_Node000007" class="edge">
<title>Node3&#45;&gt;Node7</title>
<g id="a_edge6_Node000003_Node000007"><a xlink:title=" ">
<path fill="none" stroke="#63b8ff" d="M432.99,-51.8C463.41,-41.91 506.28,-27.97 533.61,-19.08"/>
<polygon fill="#63b8ff" stroke="#63b8ff" points="431.62,-48.56 423.19,-54.98 433.78,-55.22 431.62,-48.56"/>
</a>
</g>
</g>
<!-- Node9 -->
<g id="Node000009" class="node">
<title>Node9</title>
<g id="a_Node000009"><a xlink:href="ARPlayerCharacterScrapyard_8cpp_source.html" target="_top" xlink:title=" ">
<polygon fill="white" stroke="#666666" points="837.5,-19 660.5,-19 660.5,0 837.5,0 837.5,-19"/>
<text text-anchor="middle" x="749" y="-7" font-family="Helvetica,sans-Serif" font-size="10.00">ARPlayerCharacterScrapyard.cpp</text>
</a>
</g>
</g>
<!-- Node8&#45;&gt;Node9 -->
<g id="edge8_Node000008_Node000009" class="edge">
<title>Node8&#45;&gt;Node9</title>
<g id="a_edge8_Node000008_Node000009"><a xlink:title=" ">
<path fill="none" stroke="#63b8ff" d="M696.14,-48.88C709.28,-39.34 725.98,-27.21 737.06,-19.17"/>
<polygon fill="#63b8ff" stroke="#63b8ff" points="693.76,-46.28 687.73,-54.98 697.88,-51.94 693.76,-46.28"/>
</a>
</g>
</g>
<!-- Node11 -->
<g id="Node000011" class="node">
<title>Node11</title>
<g id="a_Node000011"><a xlink:href="ARPlayerCharacterShop_8cpp_source.html" target="_top" xlink:title=" ">
<polygon fill="white" stroke="#666666" points="1008,-19 856,-19 856,0 1008,0 1008,-19"/>
<text text-anchor="middle" x="932" y="-7" font-family="Helvetica,sans-Serif" font-size="10.00">ARPlayerCharacterShop.cpp</text>
</a>
</g>
</g>
<!-- Node10&#45;&gt;Node11 -->
<g id="edge10_Node000010_Node000011" class="edge">
<title>Node10&#45;&gt;Node11</title>
<g id="a_edge10_Node000010_Node000011"><a xlink:title=" ">
<path fill="none" stroke="#63b8ff" d="M913.34,-45.82C918.09,-36.82 923.66,-26.29 927.46,-19.09"/>
<polygon fill="#63b8ff" stroke="#63b8ff" points="910.2,-44.27 908.62,-54.75 916.39,-47.54 910.2,-44.27"/>
</a>
</g>
</g>
</g>
</svg>
