<?xml version="1.0" encoding="UTF-8" standalone="no"?>
<!DOCTYPE svg PUBLIC "-//W3C//DTD SVG 1.1//EN"
 "http://www.w3.org/Graphics/SVG/1.1/DTD/svg11.dtd">
<!-- Generated by graphviz version 2.43.0 (0)
 -->
<!-- Title: ARSaveGame.h Pages: 1 -->
<!--zoomable 247 -->

<svg id="main" version="1.1" xmlns="http://www.w3.org/2000/svg" xmlns:xlink="http://www.w3.org/1999/xlink" xml:space="preserve" onload="init(evt)">
<style type="text/css"><![CDATA[
.node, .edge {opacity: 0.7;}
.node.selected, .edge.selected {opacity: 1;}
.edge:hover path { stroke: red; }
.edge:hover polygon { stroke: red; fill: red; }
]]></style>

<defs>
  <circle id="rim" cx="0" cy="0" r="7"/>
  <circle id="rim2" cx="0" cy="0" r="3.5"/>
  <g id="zoomPlus">
    <use xlink:href="#rim" fill="#404040"><set attributeName="fill" to="#808080" begin="zoomplus.mouseover" end="zoomplus.mouseout"/></use>
    <path d="M-4,0h8M0,-4v8" fill="none" stroke="white" stroke-width="1.5" pointer-events="none"/>
  </g>
  <g id="zoomMin">
    <use xlink:href="#rim" fill="#404040"><set attributeName="fill" to="#808080" begin="zoomminus.mouseover" end="zoomminus.mouseout"/></use>
    <path d="M-4,0h8" fill="none" stroke="white" stroke-width="1.5" pointer-events="none"/>
  </g>
  <g id="arrowUp" transform="translate(30 24)">
    <use xlink:href="#rim"/>
    <path pointer-events="none" fill="none" stroke="white" stroke-width="1.5" d="M0,-3.0v7 M-2.5,-0.5L0,-3.0L2.5,-0.5"/>
  </g>
  <g id="arrowRight" transform="rotate(90) translate(36 -43)">
    <use xlink:href="#rim"/>
    <path pointer-events="none" fill="none" stroke="white" stroke-width="1.5" d="M0,-3.0v7 M-2.5,-0.5L0,-3.0L2.5,-0.5"/>
  </g>
  <g id="arrowDown" transform="rotate(180) translate(-30 -48)">
    <use xlink:href="#rim"/>
    <path pointer-events="none" fill="none" stroke="white" stroke-width="1.5" d="M0,-3.0v7 M-2.5,-0.5L0,-3.0L2.5,-0.5"/>
  </g>
  <g id="arrowLeft" transform="rotate(270) translate(-36 17)">
    <use xlink:href="#rim"/>
    <path pointer-events="none" fill="none" stroke="white" stroke-width="1.5" d="M0,-3.0v7 M-2.5,-0.5L0,-3.0L2.5,-0.5"/>
  </g>
  <g id="resetDef">
    <use xlink:href="#rim2" fill="#404040"><set attributeName="fill" to="#808080" begin="reset.mouseover" end="reset.mouseout"/></use>
  </g>
</defs>
<script type="application/ecmascript">
var viewWidth = 827;
var viewHeight = 247;
var sectionId = 'dynsection-0';
</script>
<script type="application/ecmascript" xlink:href="svg.min.js"/>
<svg id="graph" class="graph">
<g id="viewport">
<title>ARSaveGame.h</title>
<!-- Node1 -->
<g id="Node000001" class="node">
<title>Node1</title>
<g id="a_Node000001"><a xlink:title="ARSaveGame header for Alien Ramen.">
<polygon fill="#999999" stroke="#666666" points="426.1,-239 334.1,-239 334.1,-220 426.1,-220 426.1,-239"/>
<text text-anchor="middle" x="380.1" y="-227" font-family="Helvetica,sans-Serif" font-size="10.00">ARSaveGame.h</text>
</a>
</g>
</g>
<!-- Node2 -->
<g id="Node000002" class="node">
<title>Node2</title>
<g id="a_Node000002"><a xlink:title=" ">
<polygon fill="#e0e0e0" stroke="#999999" points="247.1,-19 159.1,-19 159.1,0 247.1,0 247.1,-19"/>
<text text-anchor="middle" x="203.1" y="-7" font-family="Helvetica,sans-Serif" font-size="10.00">CoreMinimal.h</text>
</a>
</g>
</g>
<!-- Node1&#45;&gt;Node2 -->
<g id="edge1_Node000001_Node000002" class="edge">
<title>Node1&#45;&gt;Node2</title>
<g id="a_edge1_Node000001_Node000002"><a xlink:title=" ">
<path fill="none" stroke="#63b8ff" d="M333.77,-229.32C239.9,-228.12 33.58,-209.79 3.1,-74 1.25,-65.76 -2.18,-61.59 3.1,-55 21.05,-32.63 95.74,-20.78 148.57,-15.08"/>
<polygon fill="#63b8ff" stroke="#63b8ff" points="149.23,-18.53 158.82,-14.02 148.51,-11.57 149.23,-18.53"/>
</a>
</g>
</g>
<!-- Node3 -->
<g id="Node000003" class="node">
<title>Node3</title>
<g id="a_Node000003"><a xlink:title=" ">
<polygon fill="#e0e0e0" stroke="#999999" points="616.1,-184 450.1,-184 450.1,-165 616.1,-165 616.1,-184"/>
<text text-anchor="middle" x="533.1" y="-172" font-family="Helvetica,sans-Serif" font-size="10.00">GameFramework/SaveGame.h</text>
</a>
</g>
</g>
<!-- Node1&#45;&gt;Node3 -->
<g id="edge2_Node000001_Node000003" class="edge">
<title>Node1&#45;&gt;Node3</title>
<g id="a_edge2_Node000001_Node000003"><a xlink:title=" ">
<path fill="none" stroke="#63b8ff" d="M404.69,-219.98C430.15,-211.16 470.15,-197.31 498.74,-187.41"/>
<polygon fill="#63b8ff" stroke="#63b8ff" points="500.03,-190.66 508.33,-184.08 497.73,-184.05 500.03,-190.66"/>
</a>
</g>
</g>
<!-- Node4 -->
<g id="Node000004" class="node">
<title>Node4</title>
<g id="a_Node000004"><a xlink:href="ARDialogueTypes_8h.html" target="_top" xlink:title="Shared dialogue and NPC runtime types for Alien Ramen.">
<polygon fill="white" stroke="#666666" points="394.1,-184 284.1,-184 284.1,-165 394.1,-165 394.1,-184"/>
<text text-anchor="middle" x="339.1" y="-172" font-family="Helvetica,sans-Serif" font-size="10.00">ARDialogueTypes.h</text>
</a>
</g>
</g>
<!-- Node1&#45;&gt;Node4 -->
<g id="edge3_Node000001_Node000004" class="edge">
<title>Node1&#45;&gt;Node4</title>
<g id="a_edge3_Node000001_Node000004"><a xlink:title=" ">
<path fill="none" stroke="#63b8ff" d="M373.33,-219.75C367.54,-212.26 359.05,-201.28 351.97,-192.13"/>
<polygon fill="#63b8ff" stroke="#63b8ff" points="354.64,-189.86 345.75,-184.09 349.1,-194.14 354.64,-189.86"/>
</a>
</g>
</g>
<!-- Node9 -->
<g id="Node000009" class="node">
<title>Node9</title>
<g id="a_Node000009"><a xlink:href="ARSaveTypes_8h.html" target="_top" xlink:title="ARSaveTypes header for Alien Ramen.">
<polygon fill="white" stroke="#666666" points="129.6,-129 38.6,-129 38.6,-110 129.6,-110 129.6,-129"/>
<text text-anchor="middle" x="84.1" y="-117" font-family="Helvetica,sans-Serif" font-size="10.00">ARSaveTypes.h</text>
</a>
</g>
</g>
<!-- Node1&#45;&gt;Node9 -->
<g id="edge22_Node000001_Node000009" class="edge">
<title>Node1&#45;&gt;Node9</title>
<g id="a_edge22_Node000001_Node000009"><a xlink:title=" ">
<path fill="none" stroke="#63b8ff" d="M356.63,-219.94C304.17,-200.79 177.32,-154.51 117.01,-132.51"/>
<polygon fill="#63b8ff" stroke="#63b8ff" points="118.17,-129.21 107.58,-129.07 115.77,-135.78 118.17,-129.21"/>
</a>
</g>
</g>
<!-- Node12 -->
<g id="Node000012" class="node">
<title>Node12</title>
<g id="a_Node000012"><a xlink:href="ARFactionTypes_8h.html" target="_top" xlink:title="Shared faction election types for Alien Ramen.">
<polygon fill="white" stroke="#666666" points="619.6,-129 518.6,-129 518.6,-110 619.6,-110 619.6,-129"/>
<text text-anchor="middle" x="569.1" y="-117" font-family="Helvetica,sans-Serif" font-size="10.00">ARFactionTypes.h</text>
</a>
</g>
</g>
<!-- Node1&#45;&gt;Node12 -->
<g id="edge16_Node000001_Node000012" class="edge">
<title>Node1&#45;&gt;Node12</title>
<g id="a_edge16_Node000001_Node000012"><a xlink:title=" ">
<path fill="none" stroke="#63b8ff" d="M386.25,-219.86C396.27,-206.34 417.42,-180.18 441.1,-165 465.04,-149.66 494.9,-138.88 519.76,-131.78"/>
<polygon fill="#63b8ff" stroke="#63b8ff" points="521,-135.07 529.72,-129.06 519.15,-128.32 521,-135.07"/>
</a>
</g>
</g>
<!-- Node14 -->
<g id="Node000014" class="node">
<title>Node14</title>
<g id="a_Node000014"><a xlink:title=" ">
<polygon fill="#e0e0e0" stroke="#999999" points="779.6,-184 634.6,-184 634.6,-165 779.6,-165 779.6,-184"/>
<text text-anchor="middle" x="707.1" y="-172" font-family="Helvetica,sans-Serif" font-size="10.00">ARSaveGame.generated.h</text>
</a>
</g>
</g>
<!-- Node1&#45;&gt;Node14 -->
<g id="edge23_Node000001_Node000014" class="edge">
<title>Node1&#45;&gt;Node14</title>
<g id="a_edge23_Node000001_Node000014"><a xlink:title=" ">
<path fill="none" stroke="#63b8ff" d="M426.26,-221.02C483.33,-211.77 580.71,-195.99 644.48,-185.65"/>
<polygon fill="#63b8ff" stroke="#63b8ff" points="645.1,-189.09 654.42,-184.04 643.98,-182.18 645.1,-189.09"/>
</a>
</g>
</g>
<!-- Node4&#45;&gt;Node2 -->
<g id="edge4_Node000004_Node000002" class="edge">
<title>Node4&#45;&gt;Node2</title>
<g id="a_edge4_Node000004_Node000002"><a xlink:title=" ">
<path fill="none" stroke="#63b8ff" d="M338.71,-164.61C337.66,-151.22 333.87,-125.79 320.1,-110 294.75,-80.91 269.87,-99.72 241.1,-74 227.06,-61.44 216.64,-42.44 210.3,-28.49"/>
<polygon fill="#63b8ff" stroke="#63b8ff" points="213.39,-26.83 206.25,-19 206.95,-29.58 213.39,-26.83"/>
</a>
</g>
</g>
<!-- Node5 -->
<g id="Node000005" class="node">
<title>Node5</title>
<g id="a_Node000005"><a xlink:title=" ">
<polygon fill="#e0e0e0" stroke="#999999" points="634.1,-74 524.1,-74 524.1,-55 634.1,-55 634.1,-74"/>
<text text-anchor="middle" x="579.1" y="-62" font-family="Helvetica,sans-Serif" font-size="10.00">Engine/DataTable.h</text>
</a>
</g>
</g>
<!-- Node4&#45;&gt;Node5 -->
<g id="edge5_Node000004_Node000005" class="edge">
<title>Node4&#45;&gt;Node5</title>
<g id="a_edge5_Node000004_Node000005"><a xlink:title=" ">
<path fill="none" stroke="#63b8ff" d="M358.34,-164.84C400.57,-145.84 501.57,-100.39 550.96,-78.17"/>
<polygon fill="#63b8ff" stroke="#63b8ff" points="552.43,-81.34 560.11,-74.05 549.56,-74.96 552.43,-81.34"/>
</a>
</g>
</g>
<!-- Node6 -->
<g id="Node000006" class="node">
<title>Node6</title>
<g id="a_Node000006"><a xlink:title=" ">
<polygon fill="#e0e0e0" stroke="#999999" points="505.6,-74 366.6,-74 366.6,-55 505.6,-55 505.6,-74"/>
<text text-anchor="middle" x="436.1" y="-62" font-family="Helvetica,sans-Serif" font-size="10.00">GameplayTagContainer.h</text>
</a>
</g>
</g>
<!-- Node4&#45;&gt;Node6 -->
<g id="edge6_Node000004_Node000006" class="edge">
<title>Node4&#45;&gt;Node6</title>
<g id="a_edge6_Node000004_Node000006"><a xlink:title=" ">
<path fill="none" stroke="#63b8ff" d="M347.04,-164.66C363.32,-146.54 400.71,-104.91 421.49,-81.77"/>
<polygon fill="#63b8ff" stroke="#63b8ff" points="424.25,-83.94 428.33,-74.16 419.04,-79.26 424.25,-83.94"/>
</a>
</g>
</g>
<!-- Node7 -->
<g id="Node000007" class="node">
<title>Node7</title>
<g id="a_Node000007"><a xlink:href="ARPlayerTypes_8h.html" target="_top" xlink:title="Shared player&#45;facing enum types for Alien Ramen gameplay/save/runtime APIs.">
<polygon fill="white" stroke="#666666" points="348.1,-74 250.1,-74 250.1,-55 348.1,-55 348.1,-74"/>
<text text-anchor="middle" x="299.1" y="-62" font-family="Helvetica,sans-Serif" font-size="10.00">ARPlayerTypes.h</text>
</a>
</g>
</g>
<!-- Node4&#45;&gt;Node7 -->
<g id="edge7_Node000004_Node000007" class="edge">
<title>Node4&#45;&gt;Node7</title>
<g id="a_edge7_Node000004_Node000007"><a xlink:title=" ">
<path fill="none" stroke="#63b8ff" d="M344.37,-164.89C351.33,-152.31 361.77,-128.38 353.1,-110 347.09,-97.26 335.44,-86.92 324.5,-79.44"/>
<polygon fill="#63b8ff" stroke="#63b8ff" points="326.31,-76.44 315.99,-74.05 322.57,-82.36 326.31,-76.44"/>
</a>
</g>
</g>
<!-- Node4&#45;&gt;Node9 -->
<g id="edge10_Node000004_Node000009" class="edge">
<title>Node4&#45;&gt;Node9</title>
<g id="a_edge10_Node000004_Node000009"><a xlink:title=" ">
<path fill="none" stroke="#63b8ff" d="M298.13,-164.98C253.84,-155.78 183.16,-141.09 135.26,-131.13"/>
<polygon fill="#63b8ff" stroke="#63b8ff" points="135.9,-127.69 125.4,-129.08 134.47,-134.54 135.9,-127.69"/>
</a>
</g>
</g>
<!-- Node11 -->
<g id="Node000011" class="node">
<title>Node11</title>
<g id="a_Node000011"><a xlink:title=" ">
<polygon fill="#e0e0e0" stroke="#999999" points="310.6,-129 147.6,-129 147.6,-110 310.6,-110 310.6,-129"/>
<text text-anchor="middle" x="229.1" y="-117" font-family="Helvetica,sans-Serif" font-size="10.00">ARDialogueTypes.generated.h</text>
</a>
</g>
</g>
<!-- Node4&#45;&gt;Node11 -->
<g id="edge15_Node000004_Node000011" class="edge">
<title>Node4&#45;&gt;Node11</title>
<g id="a_edge15_Node000004_Node000011"><a xlink:title=" ">
<path fill="none" stroke="#63b8ff" d="M321.43,-164.98C303.81,-156.5 276.53,-143.35 256.18,-133.54"/>
<polygon fill="#63b8ff" stroke="#63b8ff" points="257.63,-130.36 247.1,-129.17 254.59,-136.66 257.63,-130.36"/>
</a>
</g>
</g>
<!-- Node7&#45;&gt;Node2 -->
<g id="edge8_Node000007_Node000002" class="edge">
<title>Node7&#45;&gt;Node2</title>
<g id="a_edge8_Node000007_Node000002"><a xlink:title=" ">
<path fill="none" stroke="#63b8ff" d="M283.68,-54.98C268.65,-46.69 245.56,-33.94 227.95,-24.22"/>
<polygon fill="#63b8ff" stroke="#63b8ff" points="229.25,-20.94 218.81,-19.17 225.87,-27.07 229.25,-20.94"/>
</a>
</g>
</g>
<!-- Node8 -->
<g id="Node000008" class="node">
<title>Node8</title>
<g id="a_Node000008"><a xlink:title=" ">
<polygon fill="#e0e0e0" stroke="#999999" points="415.1,-19 265.1,-19 265.1,0 415.1,0 415.1,-19"/>
<text text-anchor="middle" x="340.1" y="-7" font-family="Helvetica,sans-Serif" font-size="10.00">ARPlayerTypes.generated.h</text>
</a>
</g>
</g>
<!-- Node7&#45;&gt;Node8 -->
<g id="edge9_Node000007_Node000008" class="edge">
<title>Node7&#45;&gt;Node8</title>
<g id="a_edge9_Node000007_Node000008"><a xlink:title=" ">
<path fill="none" stroke="#63b8ff" d="M305.87,-54.75C311.67,-47.26 320.16,-36.28 327.24,-27.13"/>
<polygon fill="#63b8ff" stroke="#63b8ff" points="330.11,-29.14 333.46,-19.09 324.57,-24.86 330.11,-29.14"/>
</a>
</g>
</g>
<!-- Node9&#45;&gt;Node2 -->
<g id="edge11_Node000009_Node000002" class="edge">
<title>Node9&#45;&gt;Node2</title>
<g id="a_edge11_Node000009_Node000002"><a xlink:title=" ">
<path fill="none" stroke="#63b8ff" d="M106.09,-109.96C123.36,-102.43 147.23,-90.16 164.1,-74 177.65,-61.02 188.37,-42.37 195.11,-28.63"/>
<polygon fill="#63b8ff" stroke="#63b8ff" points="198.42,-29.81 199.47,-19.27 192.08,-26.85 198.42,-29.81"/>
</a>
</g>
</g>
<!-- Node9&#45;&gt;Node6 -->
<g id="edge12_Node000009_Node000006" class="edge">
<title>Node9&#45;&gt;Node6</title>
<g id="a_edge12_Node000009_Node000006"><a xlink:title=" ">
<path fill="none" stroke="#63b8ff" d="M129.77,-111.29C132.59,-110.85 135.38,-110.42 138.1,-110 216.92,-97.91 307.53,-84.44 367.95,-75.52"/>
<polygon fill="#63b8ff" stroke="#63b8ff" points="368.74,-78.94 378.12,-74.02 367.72,-72.02 368.74,-78.94"/>
</a>
</g>
</g>
<!-- Node9&#45;&gt;Node7 -->
<g id="edge13_Node000009_Node000007" class="edge">
<title>Node9&#45;&gt;Node7</title>
<g id="a_edge13_Node000009_Node000007"><a xlink:title=" ">
<path fill="none" stroke="#63b8ff" d="M118.65,-109.98C155.52,-100.89 214.09,-86.46 254.45,-76.51"/>
<polygon fill="#63b8ff" stroke="#63b8ff" points="255.42,-79.87 264.29,-74.08 253.74,-73.08 255.42,-79.87"/>
</a>
</g>
</g>
<!-- Node10 -->
<g id="Node000010" class="node">
<title>Node10</title>
<g id="a_Node000010"><a xlink:title=" ">
<polygon fill="#e0e0e0" stroke="#999999" points="155.6,-74 12.6,-74 12.6,-55 155.6,-55 155.6,-74"/>
<text text-anchor="middle" x="84.1" y="-62" font-family="Helvetica,sans-Serif" font-size="10.00">ARSaveTypes.generated.h</text>
</a>
</g>
</g>
<!-- Node9&#45;&gt;Node10 -->
<g id="edge14_Node000009_Node000010" class="edge">
<title>Node9&#45;&gt;Node10</title>
<g id="a_edge14_Node000009_Node000010"><a xlink:title=" ">
<path fill="none" stroke="#63b8ff" d="M84.1,-109.75C84.1,-102.8 84.1,-92.85 84.1,-84.13"/>
<polygon fill="#63b8ff" stroke="#63b8ff" points="87.6,-84.09 84.1,-74.09 80.6,-84.09 87.6,-84.09"/>
</a>
</g>
</g>
<!-- Node12&#45;&gt;Node2 -->
<g id="edge17_Node000012_Node000002" class="edge">
<title>Node12&#45;&gt;Node2</title>
<g id="a_edge17_Node000012_Node000002"><a xlink:title=" ">
<path fill="none" stroke="#63b8ff" d="M619.81,-116.72C684.44,-113.27 790.72,-103.19 815.1,-74 820.52,-67.52 820.88,-61.16 815.1,-55 774.19,-11.37 352.84,-24.75 257.3,-18.74"/>
<polygon fill="#63b8ff" stroke="#63b8ff" points="257.56,-15.25 247.31,-17.91 256.98,-22.23 257.56,-15.25"/>
</a>
</g>
</g>
<!-- Node12&#45;&gt;Node5 -->
<g id="edge18_Node000012_Node000005" class="edge">
<title>Node12&#45;&gt;Node5</title>
<g id="a_edge18_Node000012_Node000005"><a xlink:title=" ">
<path fill="none" stroke="#63b8ff" d="M570.76,-109.75C572.07,-102.8 573.94,-92.85 575.59,-84.13"/>
<polygon fill="#63b8ff" stroke="#63b8ff" points="579.07,-84.56 577.48,-74.09 572.19,-83.27 579.07,-84.56"/>
</a>
</g>
</g>
<!-- Node12&#45;&gt;Node6 -->
<g id="edge19_Node000012_Node000006" class="edge">
<title>Node12&#45;&gt;Node6</title>
<g id="a_edge19_Node000012_Node000006"><a xlink:title=" ">
<path fill="none" stroke="#63b8ff" d="M547.74,-109.98C525.95,-101.3 491.94,-87.75 467.18,-77.88"/>
<polygon fill="#63b8ff" stroke="#63b8ff" points="468.45,-74.62 457.86,-74.17 465.86,-81.12 468.45,-74.62"/>
</a>
</g>
</g>
<!-- Node12&#45;&gt;Node7 -->
<g id="edge20_Node000012_Node000007" class="edge">
<title>Node12&#45;&gt;Node7</title>
<g id="a_edge20_Node000012_Node000007"><a xlink:title=" ">
<path fill="none" stroke="#63b8ff" d="M525.72,-109.98C478.73,-100.76 403.68,-86.03 352.95,-76.07"/>
<polygon fill="#63b8ff" stroke="#63b8ff" points="353.31,-72.57 342.82,-74.08 351.96,-79.44 353.31,-72.57"/>
</a>
</g>
</g>
<!-- Node13 -->
<g id="Node000013" class="node">
<title>Node13</title>
<g id="a_Node000013"><a xlink:title=" ">
<polygon fill="#e0e0e0" stroke="#999999" points="806.1,-74 652.1,-74 652.1,-55 806.1,-55 806.1,-74"/>
<text text-anchor="middle" x="729.1" y="-62" font-family="Helvetica,sans-Serif" font-size="10.00">ARFactionTypes.generated.h</text>
</a>
</g>
</g>
<!-- Node12&#45;&gt;Node13 -->
<g id="edge21_Node000012_Node000013" class="edge">
<title>Node12&#45;&gt;Node13</title>
<g id="a_edge21_Node000012_Node000013"><a xlink:title=" ">
<path fill="none" stroke="#63b8ff" d="M594.81,-109.98C621.56,-101.13 663.63,-87.19 693.55,-77.28"/>
<polygon fill="#63b8ff" stroke="#63b8ff" points="694.8,-80.55 703.2,-74.08 692.6,-73.9 694.8,-80.55"/>
</a>
</g>
</g>
</g>
</svg>

<g id="navigator" transform="translate(0 0)" fill="#404254">
  <rect fill="#f2f5e9" fill-opacity="0.5" stroke="#606060" stroke-width=".5" x="0" y="0" width="60" height="60"/>
  <use id="zoomplus" xlink:href="#zoomPlus" x="17" y="9" onmousedown="handleZoom(evt,'in')"/>
  <use id="zoomminus" xlink:href="#zoomMin" x="42" y="9" onmousedown="handleZoom(evt,'out')"/>
  <use id="reset" xlink:href="#resetDef" x="30" y="36" onmousedown="handleReset()"/>
   <use id="arrowup" xlink:href="#arrowUp" x="0" y="0" onmousedown="handlePan(0,-1)"/>
  <use id="arrowright" xlink:href="#arrowRight" x="0" y="0" onmousedown="handlePan(1,0)"/>
  <use id="arrowdown" xlink:href="#arrowDown" x="0" y="0" onmousedown="handlePan(0,1)"/>
  <use id="arrowleft" xlink:href="#arrowLeft" x="0" y="0" onmousedown="handlePan(-1,0)"/>
</g>
<svg viewBox="0 0 15 15" width="100%" height="30px" preserveAspectRatio="xMaxYMin meet">
 <g id="arrow_out" transform="scale(0.3 0.3)">
  <a xlink:href="ARSaveGame_8h__incl_org.svg" target="_base">
   <rect id="button" ry="5" rx="5" y="6" x="6" height="38" width="38"
        fill="#f2f5e9" fill-opacity="0.5" stroke="#606060" stroke-width="1.0"/>
   <path id="arrow"
     d="M 11.500037,31.436501 C 11.940474,20.09759 22.043105,11.32322 32.158766,21.979434 L 37.068811,17.246167 C 37.068811,17.246167 37.088388,32 37.088388,32 L 22.160133,31.978069 C 22.160133,31.978069 26.997745,27.140456 26.997745,27.140456 C 18.528582,18.264221 13.291696,25.230495 11.500037,31.436501 z"
     style="fill:#404040;"/>
  </a>
 </g>
</svg>

<style type='text/css'>
<![CDATA[
[data-mouse-over-selected='false'] { opacity: 0.7; }
[data-mouse-over-selected='true']  { opacity: 1.0; }
]]>
</style>
<script type="application/ecmascript"><![CDATA[
document.addEventListener('DOMContentLoaded', (event) => {
  highlightEdges();
  highlightAdjacentNodes();
});
]]></script>
</svg>
