<?xml version="1.0" encoding="UTF-8" standalone="no"?>
<!DOCTYPE svg PUBLIC "-//W3C//DTD SVG 1.1//EN"
 "http://www.w3.org/Graphics/SVG/1.1/DTD/svg11.dtd">
<!-- Generated by graphviz version 2.43.0 (0)
 -->
<!-- Title: ARSaveTypes.h Pages: 1 -->
<svg width="1038pt" height="192pt"
 viewBox="0.00 0.00 1037.76 192.00" xmlns="http://www.w3.org/2000/svg" xmlns:xlink="http://www.w3.org/1999/xlink">
<g id="graph0" class="graph" transform="scale(1 1) rotate(0) translate(4 188)">
<title>ARSaveTypes.h</title>
<!-- Node1 -->
<g id="Node000001" class="node">
<title>Node1</title>
<g id="a_Node000001"><a xlink:title="ARSaveTypes header for Alien Ramen.">
<polygon fill="#999999" stroke="#666666" points="671,-184 580,-184 580,-165 671,-165 671,-184"/>
<text text-anchor="middle" x="625.5" y="-172" font-family="Helvetica,sans-Serif" font-size="10.00">ARSaveTypes.h</text>
</a>
</g>
</g>
<!-- Node2 -->
<g id="Node000002" class="node">
<title>Node2</title>
<g id="a_Node000002"><a xlink:href="ARColorTypes_8h.html" target="_top" xlink:title="Shared gameplay color types used across enemies/players/rewards.">
<polygon fill="white" stroke="#666666" points="141.5,-74 49.5,-74 49.5,-55 141.5,-55 141.5,-74"/>
<text text-anchor="middle" x="95.5" y="-62" font-family="Helvetica,sans-Serif" font-size="10.00">ARColorTypes.h</text>
</a>
</g>
</g>
<!-- Node1&#45;&gt;Node2 -->
<g id="edge1_Node000001_Node000002" class="edge">
<title>Node1&#45;&gt;Node2</title>
<g id="a_edge1_Node000001_Node000002"><a xlink:title=" ">
<path fill="none" stroke="#63b8ff" d="M579.99,-173.22C477.05,-171.96 229.53,-165.13 155.5,-129 134.51,-118.75 117.05,-97.85 106.48,-82.82"/>
<polygon fill="#63b8ff" stroke="#63b8ff" points="109.29,-80.73 100.82,-74.37 103.48,-84.63 109.29,-80.73"/>
</a>
</g>
</g>
<!-- Node3 -->
<g id="Node000003" class="node">
<title>Node3</title>
<g id="a_Node000003"><a xlink:title=" ">
<polygon fill="#e0e0e0" stroke="#999999" points="251.5,-19 163.5,-19 163.5,0 251.5,0 251.5,-19"/>
<text text-anchor="middle" x="207.5" y="-7" font-family="Helvetica,sans-Serif" font-size="10.00">CoreMinimal.h</text>
</a>
</g>
</g>
<!-- Node1&#45;&gt;Node3 -->
<g id="edge4_Node000001_Node000003" class="edge">
<title>Node1&#45;&gt;Node3</title>
<g id="a_edge4_Node000001_Node000003"><a xlink:title=" ">
<path fill="none" stroke="#63b8ff" d="M579.77,-169.54C481.73,-160.01 256.57,-132.13 211.5,-74 201.78,-61.46 201.71,-43.01 203.52,-29.22"/>
<polygon fill="#63b8ff" stroke="#63b8ff" points="206.96,-29.82 205.22,-19.37 200.07,-28.62 206.96,-29.82"/>
</a>
</g>
</g>
<!-- Node5 -->
<g id="Node000005" class="node">
<title>Node5</title>
<g id="a_Node000005"><a xlink:title=" ">
<polygon fill="#e0e0e0" stroke="#999999" points="848,-74 709,-74 709,-55 848,-55 848,-74"/>
<text text-anchor="middle" x="778.5" y="-62" font-family="Helvetica,sans-Serif" font-size="10.00">GameplayTagContainer.h</text>
</a>
</g>
</g>
<!-- Node1&#45;&gt;Node5 -->
<g id="edge5_Node000001_Node000005" class="edge">
<title>Node1&#45;&gt;Node5</title>
<g id="a_edge5_Node000001_Node000005"><a xlink:title=" ">
<path fill="none" stroke="#63b8ff" d="M637.76,-164.84C663.95,-146.36 725.57,-102.86 757.89,-80.05"/>
<polygon fill="#63b8ff" stroke="#63b8ff" points="760.03,-82.82 766.18,-74.2 755.99,-77.1 760.03,-82.82"/>
</a>
</g>
</g>
<!-- Node6 -->
<g id="Node000006" class="node">
<title>Node6</title>
<g id="a_Node000006"><a xlink:title=" ">
<polygon fill="#e0e0e0" stroke="#999999" points="691,-74 560,-74 560,-55 691,-55 691,-74"/>
<text text-anchor="middle" x="625.5" y="-62" font-family="Helvetica,sans-Serif" font-size="10.00">UObject/SoftObjectPtr.h</text>
</a>
</g>
</g>
<!-- Node1&#45;&gt;Node6 -->
<g id="edge6_Node000001_Node000006" class="edge">
<title>Node1&#45;&gt;Node6</title>
<g id="a_edge6_Node000001_Node000006"><a xlink:title=" ">
<path fill="none" stroke="#63b8ff" d="M625.5,-164.66C625.5,-147.17 625.5,-107.8 625.5,-84.27"/>
<polygon fill="#63b8ff" stroke="#63b8ff" points="629,-84.16 625.5,-74.16 622,-84.16 629,-84.16"/>
</a>
</g>
</g>
<!-- Node7 -->
<g id="Node000007" class="node">
<title>Node7</title>
<g id="a_Node000007"><a xlink:href="ARPlayerTypes_8h.html" target="_top" xlink:title="Shared player&#45;facing enum types for Alien Ramen gameplay/save/runtime APIs.">
<polygon fill="white" stroke="#666666" points="827.5,-129 729.5,-129 729.5,-110 827.5,-110 827.5,-129"/>
<text text-anchor="middle" x="778.5" y="-117" font-family="Helvetica,sans-Serif" font-size="10.00">ARPlayerTypes.h</text>
</a>
</g>
</g>
<!-- Node1&#45;&gt;Node7 -->
<g id="edge7_Node000001_Node000007" class="edge">
<title>Node1&#45;&gt;Node7</title>
<g id="a_edge7_Node000001_Node000007"><a xlink:title=" ">
<path fill="none" stroke="#63b8ff" d="M650.08,-164.98C675.55,-156.16 715.54,-142.31 744.13,-132.41"/>
<polygon fill="#63b8ff" stroke="#63b8ff" points="745.42,-135.66 753.73,-129.08 743.13,-129.05 745.42,-135.66"/>
</a>
</g>
</g>
<!-- Node9 -->
<g id="Node000009" class="node">
<title>Node9</title>
<g id="a_Node000009"><a xlink:href="ARShopRamenTypes_8h.html" target="_top" xlink:title="Shared shop ramen/customer/station runtime and authoring types.">
<polygon fill="white" stroke="#666666" points="515,-129 390,-129 390,-110 515,-110 515,-129"/>
<text text-anchor="middle" x="452.5" y="-117" font-family="Helvetica,sans-Serif" font-size="10.00">ARShopRamenTypes.h</text>
</a>
</g>
</g>
<!-- Node1&#45;&gt;Node9 -->
<g id="edge11_Node000001_Node000009" class="edge">
<title>Node1&#45;&gt;Node9</title>
<g id="a_edge11_Node000001_Node000009"><a xlink:title=" ">
<path fill="none" stroke="#63b8ff" d="M597.7,-164.98C568.53,-156.05 522.5,-141.94 490.1,-132.02"/>
<polygon fill="#63b8ff" stroke="#63b8ff" points="491.1,-128.66 480.51,-129.08 489.05,-135.36 491.1,-128.66"/>
</a>
</g>
</g>
<!-- Node12 -->
<g id="Node000012" class="node">
<title>Node12</title>
<g id="a_Node000012"><a xlink:title=" ">
<polygon fill="#e0e0e0" stroke="#999999" points="989,-129 846,-129 846,-110 989,-110 989,-129"/>
<text text-anchor="middle" x="917.5" y="-117" font-family="Helvetica,sans-Serif" font-size="10.00">ARSaveTypes.generated.h</text>
</a>
</g>
</g>
<!-- Node1&#45;&gt;Node12 -->
<g id="edge18_Node000001_Node000012" class="edge">
<title>Node1&#45;&gt;Node12</title>
<g id="a_edge18_Node000001_Node000012"><a xlink:title=" ">
<path fill="none" stroke="#63b8ff" d="M671.12,-165.22C722.16,-155.95 804.92,-140.93 860.26,-130.89"/>
<polygon fill="#63b8ff" stroke="#63b8ff" points="861.05,-134.3 870.26,-129.07 859.8,-127.42 861.05,-134.3"/>
</a>
</g>
</g>
<!-- Node2&#45;&gt;Node3 -->
<g id="edge2_Node000002_Node000003" class="edge">
<title>Node2&#45;&gt;Node3</title>
<g id="a_edge2_Node000002_Node000003"><a xlink:title=" ">
<path fill="none" stroke="#63b8ff" d="M113.49,-54.98C131.43,-46.5 159.22,-33.35 179.93,-23.54"/>
<polygon fill="#63b8ff" stroke="#63b8ff" points="181.64,-26.61 189.18,-19.17 178.64,-20.28 181.64,-26.61"/>
</a>
</g>
</g>
<!-- Node4 -->
<g id="Node000004" class="node">
<title>Node4</title>
<g id="a_Node000004"><a xlink:title=" ">
<polygon fill="#e0e0e0" stroke="#999999" points="145,-19 0,-19 0,0 145,0 145,-19"/>
<text text-anchor="middle" x="72.5" y="-7" font-family="Helvetica,sans-Serif" font-size="10.00">ARColorTypes.generated.h</text>
</a>
</g>
</g>
<!-- Node2&#45;&gt;Node4 -->
<g id="edge3_Node000002_Node000004" class="edge">
<title>Node2&#45;&gt;Node4</title>
<g id="a_edge3_Node000002_Node000004"><a xlink:title=" ">
<path fill="none" stroke="#63b8ff" d="M91.7,-54.75C88.59,-47.57 84.08,-37.18 80.21,-28.27"/>
<polygon fill="#63b8ff" stroke="#63b8ff" points="83.42,-26.87 76.23,-19.09 77,-29.66 83.42,-26.87"/>
</a>
</g>
</g>
<!-- Node7&#45;&gt;Node3 -->
<g id="edge8_Node000007_Node000003" class="edge">
<title>Node7&#45;&gt;Node3</title>
<g id="a_edge8_Node000007_Node000003"><a xlink:title=" ">
<path fill="none" stroke="#63b8ff" d="M827.76,-111.27C897.99,-100.73 1019.17,-81.57 1025.5,-74 1030.92,-67.52 1031.31,-61.13 1025.5,-55 999.22,-27.25 440.28,-14.73 261.78,-11.42"/>
<polygon fill="#63b8ff" stroke="#63b8ff" points="261.64,-7.92 251.57,-11.24 261.51,-14.92 261.64,-7.92"/>
</a>
</g>
</g>
<!-- Node7&#45;&gt;Node5 -->
<g id="edge9_Node000007_Node000005" class="edge">
<title>Node7&#45;&gt;Node5</title>
<g id="a_edge9_Node000007_Node000005"><a xlink:title=" ">
<path fill="none" stroke="#63b8ff" d="M778.5,-109.75C778.5,-102.8 778.5,-92.85 778.5,-84.13"/>
<polygon fill="#63b8ff" stroke="#63b8ff" points="782,-84.09 778.5,-74.09 775,-84.09 782,-84.09"/>
</a>
</g>
</g>
<!-- Node8 -->
<g id="Node000008" class="node">
<title>Node8</title>
<g id="a_Node000008"><a xlink:title=" ">
<polygon fill="#e0e0e0" stroke="#999999" points="1016.5,-74 866.5,-74 866.5,-55 1016.5,-55 1016.5,-74"/>
<text text-anchor="middle" x="941.5" y="-62" font-family="Helvetica,sans-Serif" font-size="10.00">ARPlayerTypes.generated.h</text>
</a>
</g>
</g>
<!-- Node7&#45;&gt;Node8 -->
<g id="edge10_Node000007_Node000008" class="edge">
<title>Node7&#45;&gt;Node8</title>
<g id="a_edge10_Node000007_Node000008"><a xlink:title=" ">
<path fill="none" stroke="#63b8ff" d="M804.69,-109.98C831.94,-101.13 874.8,-87.19 905.28,-77.28"/>
<polygon fill="#63b8ff" stroke="#63b8ff" points="906.68,-80.5 915.11,-74.08 904.51,-73.85 906.68,-80.5"/>
</a>
</g>
</g>
<!-- Node9&#45;&gt;Node2 -->
<g id="edge16_Node000009_Node000002" class="edge">
<title>Node9&#45;&gt;Node2</title>
<g id="a_edge16_Node000009_Node000002"><a xlink:title=" ">
<path fill="none" stroke="#63b8ff" d="M395.14,-109.98C328.26,-100.05 218.4,-83.75 151.92,-73.88"/>
<polygon fill="#63b8ff" stroke="#63b8ff" points="152.04,-70.36 141.64,-72.35 151.02,-77.28 152.04,-70.36"/>
</a>
</g>
</g>
<!-- Node9&#45;&gt;Node3 -->
<g id="edge12_Node000009_Node000003" class="edge">
<title>Node9&#45;&gt;Node3</title>
<g id="a_edge12_Node000009_Node000003"><a xlink:title=" ">
<path fill="none" stroke="#63b8ff" d="M389.89,-113.38C331.52,-107.36 250.04,-95.37 226.5,-74 214.13,-62.77 209.68,-43.85 208.15,-29.58"/>
<polygon fill="#63b8ff" stroke="#63b8ff" points="211.62,-29.1 207.44,-19.37 204.64,-29.58 211.62,-29.1"/>
</a>
</g>
</g>
<!-- Node9&#45;&gt;Node5 -->
<g id="edge14_Node000009_Node000005" class="edge">
<title>Node9&#45;&gt;Node5</title>
<g id="a_edge14_Node000009_Node000005"><a xlink:title=" ">
<path fill="none" stroke="#63b8ff" d="M504.88,-109.98C562.42,-100.63 654.79,-85.61 716.05,-75.65"/>
<polygon fill="#63b8ff" stroke="#63b8ff" points="716.67,-79.1 725.98,-74.04 715.55,-72.19 716.67,-79.1"/>
</a>
</g>
</g>
<!-- Node9&#45;&gt;Node6 -->
<g id="edge15_Node000009_Node000006" class="edge">
<title>Node9&#45;&gt;Node6</title>
<g id="a_edge15_Node000009_Node000006"><a xlink:title=" ">
<path fill="none" stroke="#63b8ff" d="M480.3,-109.98C509.47,-101.05 555.5,-86.94 587.9,-77.02"/>
<polygon fill="#63b8ff" stroke="#63b8ff" points="588.95,-80.36 597.49,-74.08 586.9,-73.66 588.95,-80.36"/>
</a>
</g>
</g>
<!-- Node10 -->
<g id="Node000010" class="node">
<title>Node10</title>
<g id="a_Node000010"><a xlink:title=" ">
<polygon fill="#e0e0e0" stroke="#999999" points="345.5,-74 235.5,-74 235.5,-55 345.5,-55 345.5,-74"/>
<text text-anchor="middle" x="290.5" y="-62" font-family="Helvetica,sans-Serif" font-size="10.00">Engine/DataTable.h</text>
</a>
</g>
</g>
<!-- Node9&#45;&gt;Node10 -->
<g id="edge13_Node000009_Node000010" class="edge">
<title>Node9&#45;&gt;Node10</title>
<g id="a_edge13_Node000009_Node000010"><a xlink:title=" ">
<path fill="none" stroke="#63b8ff" d="M426.47,-109.98C399.39,-101.13 356.79,-87.19 326.49,-77.28"/>
<polygon fill="#63b8ff" stroke="#63b8ff" points="327.32,-73.87 316.73,-74.08 325.15,-80.52 327.32,-73.87"/>
</a>
</g>
</g>
<!-- Node11 -->
<g id="Node000011" class="node">
<title>Node11</title>
<g id="a_Node000011"><a xlink:title=" ">
<polygon fill="#e0e0e0" stroke="#999999" points="541.5,-74 363.5,-74 363.5,-55 541.5,-55 541.5,-74"/>
<text text-anchor="middle" x="452.5" y="-62" font-family="Helvetica,sans-Serif" font-size="10.00">ARShopRamenTypes.generated.h</text>
</a>
</g>
</g>
<!-- Node9&#45;&gt;Node11 -->
<g id="edge17_Node000009_Node000011" class="edge">
<title>Node9&#45;&gt;Node11</title>
<g id="a_edge17_Node000009_Node000011"><a xlink:title=" ">
<path fill="none" stroke="#63b8ff" d="M452.5,-109.75C452.5,-102.8 452.5,-92.85 452.5,-84.13"/>
<polygon fill="#63b8ff" stroke="#63b8ff" points="456,-84.09 452.5,-74.09 449,-84.09 456,-84.09"/>
</a>
</g>
</g>
</g>
</svg>
