<?xml version="1.0" encoding="UTF-8" standalone="no"?>
<!DOCTYPE svg PUBLIC "-//W3C//DTD SVG 1.1//EN"
 "http://www.w3.org/Graphics/SVG/1.1/DTD/svg11.dtd">
<!-- Generated by graphviz version 2.43.0 (0)
 -->
<!-- Title: ARSaveSubsystem.h Pages: 1 -->
<svg width="709pt" height="192pt"
 viewBox="0.00 0.00 709.26 192.00" xmlns="http://www.w3.org/2000/svg" xmlns:xlink="http://www.w3.org/1999/xlink">
<g id="graph0" class="graph" transform="scale(1 1) rotate(0) translate(4 188)">
<title>ARSaveSubsystem.h</title>
<!-- Node1 -->
<g id="Node000001" class="node">
<title>Node1</title>
<g id="a_Node000001"><a xlink:title="ARSaveSubsystem header for Alien Ramen.">
<polygon fill="#999999" stroke="#666666" points="352.76,-184 235.76,-184 235.76,-165 352.76,-165 352.76,-184"/>
<text text-anchor="middle" x="294.26" y="-172" font-family="Helvetica,sans-Serif" font-size="10.00">ARSaveSubsystem.h</text>
</a>
</g>
</g>
<!-- Node2 -->
<g id="Node000002" class="node">
<title>Node2</title>
<g id="a_Node000002"><a xlink:title=" ">
<polygon fill="#e0e0e0" stroke="#999999" points="103.26,-19 15.26,-19 15.26,0 103.26,0 103.26,-19"/>
<text text-anchor="middle" x="59.26" y="-7" font-family="Helvetica,sans-Serif" font-size="10.00">CoreMinimal.h</text>
</a>
</g>
</g>
<!-- Node1&#45;&gt;Node2 -->
<g id="edge1_Node000001_Node000002" class="edge">
<title>Node1&#45;&gt;Node2</title>
<g id="a_edge1_Node000001_Node000002"><a xlink:title=" ">
<path fill="none" stroke="#63b8ff" d="M235.6,-172.96C160.82,-170.88 37.8,-162.34 9.26,-129 -17.22,-98.06 19.41,-51.06 42.66,-26.59"/>
<polygon fill="#63b8ff" stroke="#63b8ff" points="45.41,-28.79 49.93,-19.21 40.42,-23.88 45.41,-28.79"/>
</a>
</g>
</g>
<!-- Node3 -->
<g id="Node000003" class="node">
<title>Node3</title>
<g id="a_Node000003"><a xlink:title=" ">
<polygon fill="#e0e0e0" stroke="#999999" points="230.26,-129 18.26,-129 18.26,-110 230.26,-110 230.26,-129"/>
<text text-anchor="middle" x="124.26" y="-117" font-family="Helvetica,sans-Serif" font-size="10.00">Subsystems/GameInstanceSubsystem.h</text>
</a>
</g>
</g>
<!-- Node1&#45;&gt;Node3 -->
<g id="edge2_Node000001_Node000003" class="edge">
<title>Node1&#45;&gt;Node3</title>
<g id="a_edge2_Node000001_Node000003"><a xlink:title=" ">
<path fill="none" stroke="#63b8ff" d="M266.95,-164.98C238.41,-156.09 193.43,-142.07 161.62,-132.15"/>
<polygon fill="#63b8ff" stroke="#63b8ff" points="162.38,-128.72 151.79,-129.08 160.29,-135.4 162.38,-128.72"/>
</a>
</g>
</g>
<!-- Node4 -->
<g id="Node000004" class="node">
<title>Node4</title>
<g id="a_Node000004"><a xlink:href="ARSaveTypes_8h.html" target="_top" xlink:title="ARSaveTypes header for Alien Ramen.">
<polygon fill="white" stroke="#666666" points="339.76,-129 248.76,-129 248.76,-110 339.76,-110 339.76,-129"/>
<text text-anchor="middle" x="294.26" y="-117" font-family="Helvetica,sans-Serif" font-size="10.00">ARSaveTypes.h</text>
</a>
</g>
</g>
<!-- Node1&#45;&gt;Node4 -->
<g id="edge3_Node000001_Node000004" class="edge">
<title>Node1&#45;&gt;Node4</title>
<g id="a_edge3_Node000001_Node000004"><a xlink:title=" ">
<path fill="none" stroke="#63b8ff" d="M294.26,-164.75C294.26,-157.8 294.26,-147.85 294.26,-139.13"/>
<polygon fill="#63b8ff" stroke="#63b8ff" points="297.76,-139.09 294.26,-129.09 290.76,-139.09 297.76,-139.09"/>
</a>
</g>
</g>
<!-- Node9 -->
<g id="Node000009" class="node">
<title>Node9</title>
<g id="a_Node000009"><a xlink:title=" ">
<polygon fill="#e0e0e0" stroke="#999999" points="512.76,-129 357.76,-129 357.76,-110 512.76,-110 512.76,-129"/>
<text text-anchor="middle" x="435.26" y="-117" font-family="Helvetica,sans-Serif" font-size="10.00">StructUtils/InstancedStruct.h</text>
</a>
</g>
</g>
<!-- Node1&#45;&gt;Node9 -->
<g id="edge10_Node000001_Node000009" class="edge">
<title>Node1&#45;&gt;Node9</title>
<g id="a_edge10_Node000001_Node000009"><a xlink:title=" ">
<path fill="none" stroke="#63b8ff" d="M316.91,-164.98C340.11,-156.27 376.38,-142.63 402.66,-132.75"/>
<polygon fill="#63b8ff" stroke="#63b8ff" points="404.06,-135.97 412.19,-129.17 401.6,-129.41 404.06,-135.97"/>
</a>
</g>
</g>
<!-- Node10 -->
<g id="Node000010" class="node">
<title>Node10</title>
<g id="a_Node000010"><a xlink:title=" ">
<polygon fill="#e0e0e0" stroke="#999999" points="701.26,-129 531.26,-129 531.26,-110 701.26,-110 701.26,-129"/>
<text text-anchor="middle" x="616.26" y="-117" font-family="Helvetica,sans-Serif" font-size="10.00">ARSaveSubsystem.generated.h</text>
</a>
</g>
</g>
<!-- Node1&#45;&gt;Node10 -->
<g id="edge11_Node000001_Node000010" class="edge">
<title>Node1&#45;&gt;Node10</title>
<g id="a_edge11_Node000001_Node000010"><a xlink:title=" ">
<path fill="none" stroke="#63b8ff" d="M345.99,-164.98C402.71,-155.65 493.69,-140.67 554.2,-130.71"/>
<polygon fill="#63b8ff" stroke="#63b8ff" points="555.09,-134.12 564.39,-129.04 553.95,-127.21 555.09,-134.12"/>
</a>
</g>
</g>
<!-- Node4&#45;&gt;Node2 -->
<g id="edge4_Node000004_Node000002" class="edge">
<title>Node4&#45;&gt;Node2</title>
<g id="a_edge4_Node000004_Node000002"><a xlink:title=" ">
<path fill="none" stroke="#63b8ff" d="M248.59,-110.32C187.09,-99.13 84.56,-79.77 78.26,-74 65.94,-62.71 61.48,-43.81 59.93,-29.55"/>
<polygon fill="#63b8ff" stroke="#63b8ff" points="63.41,-29.08 59.22,-19.35 56.43,-29.57 63.41,-29.08"/>
</a>
</g>
</g>
<!-- Node5 -->
<g id="Node000005" class="node">
<title>Node5</title>
<g id="a_Node000005"><a xlink:title=" ">
<polygon fill="#e0e0e0" stroke="#999999" points="226.76,-74 87.76,-74 87.76,-55 226.76,-55 226.76,-74"/>
<text text-anchor="middle" x="157.26" y="-62" font-family="Helvetica,sans-Serif" font-size="10.00">GameplayTagContainer.h</text>
</a>
</g>
</g>
<!-- Node4&#45;&gt;Node5 -->
<g id="edge5_Node000004_Node000005" class="edge">
<title>Node4&#45;&gt;Node5</title>
<g id="a_edge5_Node000004_Node000005"><a xlink:title=" ">
<path fill="none" stroke="#63b8ff" d="M272.25,-109.98C249.81,-101.3 214.78,-87.75 189.27,-77.88"/>
<polygon fill="#63b8ff" stroke="#63b8ff" points="190.26,-74.51 179.67,-74.17 187.74,-81.04 190.26,-74.51"/>
</a>
</g>
</g>
<!-- Node6 -->
<g id="Node000006" class="node">
<title>Node6</title>
<g id="a_Node000006"><a xlink:href="ARPlayerTypes_8h.html" target="_top" xlink:title="Shared player&#45;facing enum types for Alien Ramen gameplay/save/runtime APIs.">
<polygon fill="white" stroke="#666666" points="343.26,-74 245.26,-74 245.26,-55 343.26,-55 343.26,-74"/>
<text text-anchor="middle" x="294.26" y="-62" font-family="Helvetica,sans-Serif" font-size="10.00">ARPlayerTypes.h</text>
</a>
</g>
</g>
<!-- Node4&#45;&gt;Node6 -->
<g id="edge6_Node000004_Node000006" class="edge">
<title>Node4&#45;&gt;Node6</title>
<g id="a_edge6_Node000004_Node000006"><a xlink:title=" ">
<path fill="none" stroke="#63b8ff" d="M294.26,-109.75C294.26,-102.8 294.26,-92.85 294.26,-84.13"/>
<polygon fill="#63b8ff" stroke="#63b8ff" points="297.76,-84.09 294.26,-74.09 290.76,-84.09 297.76,-84.09"/>
</a>
</g>
</g>
<!-- Node8 -->
<g id="Node000008" class="node">
<title>Node8</title>
<g id="a_Node000008"><a xlink:title=" ">
<polygon fill="#e0e0e0" stroke="#999999" points="504.76,-74 361.76,-74 361.76,-55 504.76,-55 504.76,-74"/>
<text text-anchor="middle" x="433.26" y="-62" font-family="Helvetica,sans-Serif" font-size="10.00">ARSaveTypes.generated.h</text>
</a>
</g>
</g>
<!-- Node4&#45;&gt;Node8 -->
<g id="edge9_Node000004_Node000008" class="edge">
<title>Node4&#45;&gt;Node8</title>
<g id="a_edge9_Node000004_Node000008"><a xlink:title=" ">
<path fill="none" stroke="#63b8ff" d="M316.59,-109.98C339.46,-101.27 375.22,-87.63 401.12,-77.75"/>
<polygon fill="#63b8ff" stroke="#63b8ff" points="402.42,-81 410.52,-74.17 399.93,-74.46 402.42,-81"/>
</a>
</g>
</g>
<!-- Node6&#45;&gt;Node2 -->
<g id="edge7_Node000006_Node000002" class="edge">
<title>Node6&#45;&gt;Node2</title>
<g id="a_edge7_Node000006_Node000002"><a xlink:title=" ">
<path fill="none" stroke="#63b8ff" d="M256.5,-54.98C215.94,-45.84 151.37,-31.27 107.23,-21.32"/>
<polygon fill="#63b8ff" stroke="#63b8ff" points="107.84,-17.87 97.31,-19.08 106.3,-24.7 107.84,-17.87"/>
</a>
</g>
</g>
<!-- Node7 -->
<g id="Node000007" class="node">
<title>Node7</title>
<g id="a_Node000007"><a xlink:title=" ">
<polygon fill="#e0e0e0" stroke="#999999" points="369.26,-19 219.26,-19 219.26,0 369.26,0 369.26,-19"/>
<text text-anchor="middle" x="294.26" y="-7" font-family="Helvetica,sans-Serif" font-size="10.00">ARPlayerTypes.generated.h</text>
</a>
</g>
</g>
<!-- Node6&#45;&gt;Node7 -->
<g id="edge8_Node000006_Node000007" class="edge">
<title>Node6&#45;&gt;Node7</title>
<g id="a_edge8_Node000006_Node000007"><a xlink:title=" ">
<path fill="none" stroke="#63b8ff" d="M294.26,-54.75C294.26,-47.8 294.26,-37.85 294.26,-29.13"/>
<polygon fill="#63b8ff" stroke="#63b8ff" points="297.76,-29.09 294.26,-19.09 290.76,-29.09 297.76,-29.09"/>
</a>
</g>
</g>
</g>
</svg>
