<?xml version="1.0" encoding="UTF-8" standalone="no"?>
<!DOCTYPE svg PUBLIC "-//W3C//DTD SVG 1.1//EN"
 "http://www.w3.org/Graphics/SVG/1.1/DTD/svg11.dtd">
<!-- Generated by graphviz version 2.43.0 (0)
 -->
<!-- Title: ARSaveSubsystem.h Pages: 1 -->
<svg width="1674pt" height="82pt"
 viewBox="0.00 0.00 1673.50 82.00" xmlns="http://www.w3.org/2000/svg" xmlns:xlink="http://www.w3.org/1999/xlink">
<g id="graph0" class="graph" transform="scale(1 1) rotate(0) translate(4 78)">
<title>ARSaveSubsystem.h</title>
<!-- Node1 -->
<g id="Node000001" class="node">
<title>Node1</title>
<g id="a_Node000001"><a xlink:title="ARSaveSubsystem header for Alien Ramen.">
<polygon fill="#999999" stroke="#666666" points="879.5,-74 762.5,-74 762.5,-55 879.5,-55 879.5,-74"/>
<text text-anchor="middle" x="821" y="-62" font-family="Helvetica,sans-Serif" font-size="10.00">ARSaveSubsystem.h</text>
</a>
</g>
</g>
<!-- Node2 -->
<g id="Node000002" class="node">
<title>Node2</title>
<g id="a_Node000002"><a xlink:href="ARDialogueSubsystem_8cpp_source.html" target="_top" xlink:title=" ">
<polygon fill="white" stroke="#666666" points="148,-19 0,-19 0,0 148,0 148,-19"/>
<text text-anchor="middle" x="74" y="-7" font-family="Helvetica,sans-Serif" font-size="10.00">ARDialogueSubsystem.cpp</text>
</a>
</g>
</g>
<!-- Node1&#45;&gt;Node2 -->
<g id="edge1_Node000001_Node000002" class="edge">
<title>Node1&#45;&gt;Node2</title>
<g id="a_edge1_Node000001_Node000002"><a xlink:title=" ">
<path fill="none" stroke="#63b8ff" d="M752.13,-59.68C631.46,-52.82 374.02,-37.38 157,-19 154.11,-18.76 151.17,-18.5 148.2,-18.23"/>
<polygon fill="#63b8ff" stroke="#63b8ff" points="752.14,-63.19 762.32,-60.26 752.54,-56.2 752.14,-63.19"/>
</a>
</g>
</g>
<!-- Node3 -->
<g id="Node000003" class="node">
<title>Node3</title>
<g id="a_Node000003"><a xlink:href="ARFactionSubsystem_8cpp_source.html" target="_top" xlink:title=" ">
<polygon fill="white" stroke="#666666" points="305.5,-19 166.5,-19 166.5,0 305.5,0 305.5,-19"/>
<text text-anchor="middle" x="236" y="-7" font-family="Helvetica,sans-Serif" font-size="10.00">ARFactionSubsystem.cpp</text>
</a>
</g>
</g>
<!-- Node1&#45;&gt;Node3 -->
<g id="edge2_Node000001_Node000003" class="edge">
<title>Node1&#45;&gt;Node3</title>
<g id="a_edge2_Node000001_Node000003"><a xlink:title=" ">
<path fill="none" stroke="#63b8ff" d="M752.39,-57.94C654.9,-49.93 470.69,-34.41 314,-19 311.29,-18.73 308.52,-18.46 305.73,-18.17"/>
<polygon fill="#63b8ff" stroke="#63b8ff" points="752.16,-61.43 762.41,-58.76 752.73,-54.45 752.16,-61.43"/>
</a>
</g>
</g>
<!-- Node4 -->
<g id="Node000004" class="node">
<title>Node4</title>
<g id="a_Node000004"><a xlink:href="ARGameInstance_8cpp_source.html" target="_top" xlink:title=" ">
<polygon fill="white" stroke="#666666" points="444.5,-19 323.5,-19 323.5,0 444.5,0 444.5,-19"/>
<text text-anchor="middle" x="384" y="-7" font-family="Helvetica,sans-Serif" font-size="10.00">ARGameInstance.cpp</text>
</a>
</g>
</g>
<!-- Node1&#45;&gt;Node4 -->
<g id="edge3_Node000001_Node000004" class="edge">
<title>Node1&#45;&gt;Node4</title>
<g id="a_edge3_Node000001_Node000004"><a xlink:title=" ">
<path fill="none" stroke="#63b8ff" d="M752.25,-55.23C678.32,-46.33 557.33,-31.73 453,-19 450.24,-18.66 447.43,-18.32 444.58,-17.97"/>
<polygon fill="#63b8ff" stroke="#63b8ff" points="752.01,-58.73 762.36,-56.45 752.85,-51.78 752.01,-58.73"/>
</a>
</g>
</g>
<!-- Node5 -->
<g id="Node000005" class="node">
<title>Node5</title>
<g id="a_Node000005"><a xlink:href="ARGameModeBase_8cpp_source.html" target="_top" xlink:title=" ">
<polygon fill="white" stroke="#666666" points="593.5,-19 462.5,-19 462.5,0 593.5,0 593.5,-19"/>
<text text-anchor="middle" x="528" y="-7" font-family="Helvetica,sans-Serif" font-size="10.00">ARGameModeBase.cpp</text>
</a>
</g>
</g>
<!-- Node1&#45;&gt;Node5 -->
<g id="edge4_Node000001_Node000005" class="edge">
<title>Node1&#45;&gt;Node5</title>
<g id="a_edge4_Node000001_Node000005"><a xlink:title=" ">
<path fill="none" stroke="#63b8ff" d="M764,-53.19C709.06,-43.25 626.91,-28.39 575.44,-19.08"/>
<polygon fill="#63b8ff" stroke="#63b8ff" points="763.46,-56.65 773.92,-54.98 764.71,-49.76 763.46,-56.65"/>
</a>
</g>
</g>
<!-- Node6 -->
<g id="Node000006" class="node">
<title>Node6</title>
<g id="a_Node000006"><a xlink:href="ARGameStateBase_8cpp_source.html" target="_top" xlink:title=" ">
<polygon fill="white" stroke="#666666" points="740.5,-19 611.5,-19 611.5,0 740.5,0 740.5,-19"/>
<text text-anchor="middle" x="676" y="-7" font-family="Helvetica,sans-Serif" font-size="10.00">ARGameStateBase.cpp</text>
</a>
</g>
</g>
<!-- Node1&#45;&gt;Node6 -->
<g id="edge5_Node000001_Node000006" class="edge">
<title>Node1&#45;&gt;Node6</title>
<g id="a_edge5_Node000001_Node000006"><a xlink:title=" ">
<path fill="none" stroke="#63b8ff" d="M788.31,-51.55C761.38,-41.71 723.84,-27.98 699.72,-19.17"/>
<polygon fill="#63b8ff" stroke="#63b8ff" points="787.11,-54.84 797.7,-54.98 789.51,-48.26 787.11,-54.84"/>
</a>
</g>
</g>
<!-- Node7 -->
<g id="Node000007" class="node">
<title>Node7</title>
<g id="a_Node000007"><a xlink:href="ARNPCSubsystem_8cpp_source.html" target="_top" xlink:title=" ">
<polygon fill="white" stroke="#666666" points="883.5,-19 758.5,-19 758.5,0 883.5,0 883.5,-19"/>
<text text-anchor="middle" x="821" y="-7" font-family="Helvetica,sans-Serif" font-size="10.00">ARNPCSubsystem.cpp</text>
</a>
</g>
</g>
<!-- Node1&#45;&gt;Node7 -->
<g id="edge6_Node000001_Node000007" class="edge">
<title>Node1&#45;&gt;Node7</title>
<g id="a_edge6_Node000001_Node000007"><a xlink:title=" ">
<path fill="none" stroke="#63b8ff" d="M821,-44.66C821,-35.93 821,-25.99 821,-19.09"/>
<polygon fill="#63b8ff" stroke="#63b8ff" points="817.5,-44.75 821,-54.75 824.5,-44.75 817.5,-44.75"/>
</a>
</g>
</g>
<!-- Node8 -->
<g id="Node000008" class="node">
<title>Node8</title>
<g id="a_Node000008"><a xlink:href="ARPlayerController_8cpp_source.html" target="_top" xlink:title=" ">
<polygon fill="white" stroke="#666666" points="1030,-19 902,-19 902,0 1030,0 1030,-19"/>
<text text-anchor="middle" x="966" y="-7" font-family="Helvetica,sans-Serif" font-size="10.00">ARPlayerController.cpp</text>
</a>
</g>
</g>
<!-- Node1&#45;&gt;Node8 -->
<g id="edge7_Node000001_Node000008" class="edge">
<title>Node1&#45;&gt;Node8</title>
<g id="a_edge7_Node000001_Node000008"><a xlink:title=" ">
<path fill="none" stroke="#63b8ff" d="M853.69,-51.55C880.62,-41.71 918.16,-27.98 942.28,-19.17"/>
<polygon fill="#63b8ff" stroke="#63b8ff" points="852.49,-48.26 844.3,-54.98 854.89,-54.84 852.49,-48.26"/>
</a>
</g>
</g>
<!-- Node9 -->
<g id="Node000009" class="node">
<title>Node9</title>
<g id="a_Node000009"><a xlink:href="ARPlayerStateBase_8cpp_source.html" target="_top" xlink:title=" ">
<polygon fill="white" stroke="#666666" points="1179.5,-19 1048.5,-19 1048.5,0 1179.5,0 1179.5,-19"/>
<text text-anchor="middle" x="1114" y="-7" font-family="Helvetica,sans-Serif" font-size="10.00">ARPlayerStateBase.cpp</text>
</a>
</g>
</g>
<!-- Node1&#45;&gt;Node9 -->
<g id="edge8_Node000001_Node000009" class="edge">
<title>Node1&#45;&gt;Node9</title>
<g id="a_edge8_Node000001_Node000009"><a xlink:title=" ">
<path fill="none" stroke="#63b8ff" d="M878,-53.19C932.94,-43.25 1015.09,-28.39 1066.56,-19.08"/>
<polygon fill="#63b8ff" stroke="#63b8ff" points="877.29,-49.76 868.08,-54.98 878.54,-56.65 877.29,-49.76"/>
</a>
</g>
</g>
<!-- Node10 -->
<g id="Node000010" class="node">
<title>Node10</title>
<g id="a_Node000010"><a xlink:href="ARSaveSubsystem_8cpp_source.html" target="_top" xlink:title=" ">
<polygon fill="white" stroke="#666666" points="1326,-19 1198,-19 1198,0 1326,0 1326,-19"/>
<text text-anchor="middle" x="1262" y="-7" font-family="Helvetica,sans-Serif" font-size="10.00">ARSaveSubsystem.cpp</text>
</a>
</g>
</g>
<!-- Node1&#45;&gt;Node10 -->
<g id="edge9_Node000001_Node000010" class="edge">
<title>Node1&#45;&gt;Node10</title>
<g id="a_edge9_Node000001_Node000010"><a xlink:title=" ">
<path fill="none" stroke="#63b8ff" d="M889.54,-55.26C973.78,-45.14 1115.64,-28.09 1197.83,-18.21"/>
<polygon fill="#63b8ff" stroke="#63b8ff" points="889.07,-51.79 879.56,-56.46 889.91,-58.74 889.07,-51.79"/>
</a>
</g>
</g>
<!-- Node11 -->
<g id="Node000011" class="node">
<title>Node11</title>
<g id="a_Node000011"><a xlink:href="ARSessionSubsystem_8cpp_source.html" target="_top" xlink:title=" ">
<polygon fill="white" stroke="#666666" points="1486,-19 1344,-19 1344,0 1486,0 1486,-19"/>
<text text-anchor="middle" x="1415" y="-7" font-family="Helvetica,sans-Serif" font-size="10.00">ARSessionSubsystem.cpp</text>
</a>
</g>
</g>
<!-- Node1&#45;&gt;Node11 -->
<g id="edge10_Node000001_Node000011" class="edge">
<title>Node1&#45;&gt;Node11</title>
<g id="a_edge10_Node000001_Node000011"><a xlink:title=" ">
<path fill="none" stroke="#63b8ff" d="M889.75,-57.98C988.38,-49.96 1175.7,-34.36 1335,-19 1337.92,-18.72 1340.9,-18.43 1343.91,-18.13"/>
<polygon fill="#63b8ff" stroke="#63b8ff" points="889.3,-54.5 879.62,-58.8 889.87,-61.48 889.3,-54.5"/>
</a>
</g>
</g>
<!-- Node12 -->
<g id="Node000012" class="node">
<title>Node12</title>
<g id="a_Node000012"><a xlink:href="AlienRamenEditorModule_8cpp_source.html" target="_top" xlink:title=" ">
<polygon fill="white" stroke="#666666" points="1665.5,-19 1504.5,-19 1504.5,0 1665.5,0 1665.5,-19"/>
<text text-anchor="middle" x="1585" y="-7" font-family="Helvetica,sans-Serif" font-size="10.00">AlienRamenEditorModule.cpp</text>
</a>
</g>
</g>
<!-- Node1&#45;&gt;Node12 -->
<g id="edge11_Node000001_Node000012" class="edge">
<title>Node1&#45;&gt;Node12</title>
<g id="a_edge11_Node000001_Node000012"><a xlink:title=" ">
<path fill="none" stroke="#63b8ff" d="M889.95,-59.59C1012.01,-52.53 1274.08,-36.72 1495,-19 1497.97,-18.76 1501,-18.51 1504.06,-18.25"/>
<polygon fill="#63b8ff" stroke="#63b8ff" points="889.42,-56.12 879.64,-60.19 889.83,-63.11 889.42,-56.12"/>
</a>
</g>
</g>
</g>
</svg>
