<?xml version="1.0" encoding="UTF-8" standalone="no"?>
<!DOCTYPE svg PUBLIC "-//W3C//DTD SVG 1.1//EN"
 "http://www.w3.org/Graphics/SVG/1.1/DTD/svg11.dtd">
<!-- Generated by graphviz version 2.43.0 (0)
 -->
<!-- Title: ARScrapyardPlayerController.h Pages: 1 -->
<svg width="1555pt" height="302pt"
 viewBox="0.00 0.00 1555.00 302.00" xmlns="http://www.w3.org/2000/svg" xmlns:xlink="http://www.w3.org/1999/xlink">
<g id="graph0" class="graph" transform="scale(1 1) rotate(0) translate(4 298)">
<title>ARScrapyardPlayerController.h</title>
<!-- Node1 -->
<g id="Node000001" class="node">
<title>Node1</title>
<g id="a_Node000001"><a xlink:title="ARScrapyardPlayerController header for Alien Ramen.">
<polygon fill="#999999" stroke="#666666" points="836,-294 670,-294 670,-275 836,-275 836,-294"/>
<text text-anchor="middle" x="753" y="-282" font-family="Helvetica,sans-Serif" font-size="10.00">ARScrapyardPlayerController.h</text>
</a>
</g>
</g>
<!-- Node2 -->
<g id="Node000002" class="node">
<title>Node2</title>
<g id="a_Node000002"><a xlink:title=" ">
<polygon fill="#e0e0e0" stroke="#999999" points="101,-19 13,-19 13,0 101,0 101,-19"/>
<text text-anchor="middle" x="57" y="-7" font-family="Helvetica,sans-Serif" font-size="10.00">CoreMinimal.h</text>
</a>
</g>
</g>
<!-- Node1&#45;&gt;Node2 -->
<g id="edge1_Node000001_Node000002" class="edge">
<title>Node1&#45;&gt;Node2</title>
<g id="a_edge1_Node000001_Node000002"><a xlink:title=" ">
<path fill="none" stroke="#63b8ff" d="M669.9,-280.16C474.07,-271.2 0,-242.57 0,-175.5 0,-175.5 0,-175.5 0,-118.5 0,-82.51 25.06,-46.76 41.95,-26.76"/>
<polygon fill="#63b8ff" stroke="#63b8ff" points="44.62,-29.02 48.59,-19.2 39.36,-24.4 44.62,-29.02"/>
</a>
</g>
</g>
<!-- Node3 -->
<g id="Node000003" class="node">
<title>Node3</title>
<g id="a_Node000003"><a xlink:href="ARPlayerController_8h.html" target="_top" xlink:title="ARPlayerController header for Alien Ramen.">
<polygon fill="white" stroke="#666666" points="811.5,-239 694.5,-239 694.5,-220 811.5,-220 811.5,-239"/>
<text text-anchor="middle" x="753" y="-227" font-family="Helvetica,sans-Serif" font-size="10.00">ARPlayerController.h</text>
</a>
</g>
</g>
<!-- Node1&#45;&gt;Node3 -->
<g id="edge2_Node000001_Node000003" class="edge">
<title>Node1&#45;&gt;Node3</title>
<g id="a_edge2_Node000001_Node000003"><a xlink:title=" ">
<path fill="none" stroke="#63b8ff" d="M753,-274.75C753,-267.8 753,-257.85 753,-249.13"/>
<polygon fill="#63b8ff" stroke="#63b8ff" points="756.5,-249.09 753,-239.09 749.5,-249.09 756.5,-249.09"/>
</a>
</g>
</g>
<!-- Node17 -->
<g id="Node000017" class="node">
<title>Node17</title>
<g id="a_Node000017"><a xlink:title=" ">
<polygon fill="#e0e0e0" stroke="#999999" points="1048,-239 830,-239 830,-220 1048,-220 1048,-239"/>
<text text-anchor="middle" x="939" y="-227" font-family="Helvetica,sans-Serif" font-size="10.00">ARScrapyardPlayerController.generated.h</text>
</a>
</g>
</g>
<!-- Node1&#45;&gt;Node17 -->
<g id="edge23_Node000001_Node000017" class="edge">
<title>Node1&#45;&gt;Node17</title>
<g id="a_edge23_Node000001_Node000017"><a xlink:title=" ">
<path fill="none" stroke="#63b8ff" d="M782.88,-274.98C814.38,-266.01 864.17,-251.82 899.03,-241.89"/>
<polygon fill="#63b8ff" stroke="#63b8ff" points="900.22,-245.19 908.88,-239.08 898.31,-238.46 900.22,-245.19"/>
</a>
</g>
</g>
<!-- Node3&#45;&gt;Node2 -->
<g id="edge3_Node000003_Node000002" class="edge">
<title>Node3&#45;&gt;Node2</title>
<g id="a_edge3_Node000003_Node000002"><a xlink:title=" ">
<path fill="none" stroke="#63b8ff" d="M694.29,-226.71C574.31,-222.56 304.95,-210.52 217,-184 140.9,-161.06 111.69,-145.02 76,-74 68.81,-59.69 63.82,-42.16 60.76,-29.15"/>
<polygon fill="#63b8ff" stroke="#63b8ff" points="64.12,-28.1 58.57,-19.07 57.28,-29.59 64.12,-28.1"/>
</a>
</g>
</g>
<!-- Node4 -->
<g id="Node000004" class="node">
<title>Node4</title>
<g id="a_Node000004"><a xlink:title=" ">
<polygon fill="#e0e0e0" stroke="#999999" points="558.5,-74 419.5,-74 419.5,-55 558.5,-55 558.5,-74"/>
<text text-anchor="middle" x="489" y="-62" font-family="Helvetica,sans-Serif" font-size="10.00">GameplayTagContainer.h</text>
</a>
</g>
</g>
<!-- Node3&#45;&gt;Node4 -->
<g id="edge4_Node000003_Node000004" class="edge">
<title>Node3&#45;&gt;Node4</title>
<g id="a_edge4_Node000003_Node000004"><a xlink:title=" ">
<path fill="none" stroke="#63b8ff" d="M717.83,-219.97C695.93,-213.2 668.34,-201.84 649,-184 621.67,-158.79 637.97,-134.49 610,-110 591.66,-93.95 567.03,-83.5 544.78,-76.79"/>
<polygon fill="#63b8ff" stroke="#63b8ff" points="545.66,-73.4 535.09,-74.05 543.76,-80.14 545.66,-73.4"/>
</a>
</g>
</g>
<!-- Node5 -->
<g id="Node000005" class="node">
<title>Node5</title>
<g id="a_Node000005"><a xlink:title=" ">
<polygon fill="#e0e0e0" stroke="#999999" points="848.5,-184 657.5,-184 657.5,-165 848.5,-165 848.5,-184"/>
<text text-anchor="middle" x="753" y="-172" font-family="Helvetica,sans-Serif" font-size="10.00">GameFramework/GameStateBase.h</text>
</a>
</g>
</g>
<!-- Node3&#45;&gt;Node5 -->
<g id="edge5_Node000003_Node000005" class="edge">
<title>Node3&#45;&gt;Node5</title>
<g id="a_edge5_Node000003_Node000005"><a xlink:title=" ">
<path fill="none" stroke="#63b8ff" d="M753,-219.75C753,-212.8 753,-202.85 753,-194.13"/>
<polygon fill="#63b8ff" stroke="#63b8ff" points="756.5,-194.09 753,-184.09 749.5,-194.09 756.5,-194.09"/>
</a>
</g>
</g>
<!-- Node6 -->
<g id="Node000006" class="node">
<title>Node6</title>
<g id="a_Node000006"><a xlink:title=" ">
<polygon fill="#e0e0e0" stroke="#999999" points="1057.5,-184 866.5,-184 866.5,-165 1057.5,-165 1057.5,-184"/>
<text text-anchor="middle" x="962" y="-172" font-family="Helvetica,sans-Serif" font-size="10.00">GameFramework/PlayerController.h</text>
</a>
</g>
</g>
<!-- Node3&#45;&gt;Node6 -->
<g id="edge6_Node000003_Node000006" class="edge">
<title>Node3&#45;&gt;Node6</title>
<g id="a_edge6_Node000003_Node000006"><a xlink:title=" ">
<path fill="none" stroke="#63b8ff" d="M786.58,-219.98C822.35,-210.91 879.12,-196.52 918.34,-186.57"/>
<polygon fill="#63b8ff" stroke="#63b8ff" points="919.32,-189.93 928.16,-184.08 917.6,-183.15 919.32,-189.93"/>
</a>
</g>
</g>
<!-- Node7 -->
<g id="Node000007" class="node">
<title>Node7</title>
<g id="a_Node000007"><a xlink:href="ARDialogueTypes_8h.html" target="_top" xlink:title="Shared dialogue and NPC runtime types for Alien Ramen.">
<polygon fill="white" stroke="#666666" points="336,-184 226,-184 226,-165 336,-165 336,-184"/>
<text text-anchor="middle" x="281" y="-172" font-family="Helvetica,sans-Serif" font-size="10.00">ARDialogueTypes.h</text>
</a>
</g>
</g>
<!-- Node3&#45;&gt;Node7 -->
<g id="edge7_Node000003_Node000007" class="edge">
<title>Node3&#45;&gt;Node7</title>
<g id="a_edge7_Node000003_Node000007"><a xlink:title=" ">
<path fill="none" stroke="#63b8ff" d="M694.18,-221.89C605.57,-211.94 438.43,-193.18 346.21,-182.82"/>
<polygon fill="#63b8ff" stroke="#63b8ff" points="346.49,-179.33 336.16,-181.69 345.71,-186.29 346.49,-179.33"/>
</a>
</g>
</g>
<!-- Node14 -->
<g id="Node000014" class="node">
<title>Node14</title>
<g id="a_Node000014"><a xlink:title=" ">
<polygon fill="#e0e0e0" stroke="#999999" points="1244.5,-184 1075.5,-184 1075.5,-165 1244.5,-165 1244.5,-184"/>
<text text-anchor="middle" x="1160" y="-172" font-family="Helvetica,sans-Serif" font-size="10.00">GameFramework/PlayerState.h</text>
</a>
</g>
</g>
<!-- Node3&#45;&gt;Node14 -->
<g id="edge20_Node000003_Node000014" class="edge">
<title>Node3&#45;&gt;Node14</title>
<g id="a_edge20_Node000003_Node000014"><a xlink:title=" ">
<path fill="none" stroke="#63b8ff" d="M811.75,-220.85C883.59,-211.49 1005.33,-195.64 1084.18,-185.37"/>
<polygon fill="#63b8ff" stroke="#63b8ff" points="1085.07,-188.79 1094.53,-184.03 1084.16,-181.85 1085.07,-188.79"/>
</a>
</g>
</g>
<!-- Node15 -->
<g id="Node000015" class="node">
<title>Node15</title>
<g id="a_Node000015"><a xlink:title=" ">
<polygon fill="#e0e0e0" stroke="#999999" points="1359,-184 1263,-184 1263,-165 1359,-165 1359,-184"/>
<text text-anchor="middle" x="1311" y="-172" font-family="Helvetica,sans-Serif" font-size="10.00">TimerManager.h</text>
</a>
</g>
</g>
<!-- Node3&#45;&gt;Node15 -->
<g id="edge21_Node000003_Node000015" class="edge">
<title>Node3&#45;&gt;Node15</title>
<g id="a_edge21_Node000003_Node000015"><a xlink:title=" ">
<path fill="none" stroke="#63b8ff" d="M811.59,-221.02C814.77,-220.66 817.92,-220.32 821,-220 1009.79,-200.36 1060.46,-206.05 1252.67,-184.08"/>
<polygon fill="#63b8ff" stroke="#63b8ff" points="1253.29,-187.53 1262.83,-182.91 1252.49,-180.58 1253.29,-187.53"/>
</a>
</g>
</g>
<!-- Node16 -->
<g id="Node000016" class="node">
<title>Node16</title>
<g id="a_Node000016"><a xlink:title=" ">
<polygon fill="#e0e0e0" stroke="#999999" points="1547,-184 1377,-184 1377,-165 1547,-165 1547,-184"/>
<text text-anchor="middle" x="1462" y="-172" font-family="Helvetica,sans-Serif" font-size="10.00">ARPlayerController.generated.h</text>
</a>
</g>
</g>
<!-- Node3&#45;&gt;Node16 -->
<g id="edge22_Node000003_Node000016" class="edge">
<title>Node3&#45;&gt;Node16</title>
<g id="a_edge22_Node000003_Node000016"><a xlink:title=" ">
<path fill="none" stroke="#63b8ff" d="M811.58,-220.96C814.77,-220.62 817.92,-220.29 821,-220 1060.22,-197.2 1123.39,-202.81 1366.73,-184.08"/>
<polygon fill="#63b8ff" stroke="#63b8ff" points="1367.25,-187.55 1376.95,-183.28 1366.71,-180.57 1367.25,-187.55"/>
</a>
</g>
</g>
<!-- Node7&#45;&gt;Node2 -->
<g id="edge8_Node000007_Node000002" class="edge">
<title>Node7&#45;&gt;Node2</title>
<g id="a_edge8_Node000007_Node000002"><a xlink:title=" ">
<path fill="none" stroke="#63b8ff" d="M232.74,-164.95C204.57,-158.34 169.33,-147.17 142,-129 103.84,-103.63 77.16,-54.91 64.79,-28.53"/>
<polygon fill="#63b8ff" stroke="#63b8ff" points="67.93,-26.99 60.63,-19.31 61.55,-29.87 67.93,-26.99"/>
</a>
</g>
</g>
<!-- Node7&#45;&gt;Node4 -->
<g id="edge10_Node000007_Node000004" class="edge">
<title>Node7&#45;&gt;Node4</title>
<g id="a_edge10_Node000007_Node000004"><a xlink:title=" ">
<path fill="none" stroke="#63b8ff" d="M281.01,-164.7C281.52,-150.97 284.59,-124.52 300,-110 316.42,-94.53 367.36,-83.07 412.21,-75.65"/>
<polygon fill="#63b8ff" stroke="#63b8ff" points="412.95,-79.08 422.27,-74.04 411.84,-72.17 412.95,-79.08"/>
</a>
</g>
</g>
<!-- Node8 -->
<g id="Node000008" class="node">
<title>Node8</title>
<g id="a_Node000008"><a xlink:title=" ">
<polygon fill="#e0e0e0" stroke="#999999" points="419,-129 309,-129 309,-110 419,-110 419,-129"/>
<text text-anchor="middle" x="364" y="-117" font-family="Helvetica,sans-Serif" font-size="10.00">Engine/DataTable.h</text>
</a>
</g>
</g>
<!-- Node7&#45;&gt;Node8 -->
<g id="edge9_Node000007_Node000008" class="edge">
<title>Node7&#45;&gt;Node8</title>
<g id="a_edge9_Node000007_Node000008"><a xlink:title=" ">
<path fill="none" stroke="#63b8ff" d="M294.34,-164.98C307.09,-156.84 326.55,-144.41 341.67,-134.76"/>
<polygon fill="#63b8ff" stroke="#63b8ff" points="343.88,-137.5 350.42,-129.17 340.11,-131.6 343.88,-137.5"/>
</a>
</g>
</g>
<!-- Node9 -->
<g id="Node000009" class="node">
<title>Node9</title>
<g id="a_Node000009"><a xlink:href="ARPlayerTypes_8h.html" target="_top" xlink:title="Shared player&#45;facing enum types for Alien Ramen gameplay/save/runtime APIs.">
<polygon fill="white" stroke="#666666" points="202,-74 104,-74 104,-55 202,-55 202,-74"/>
<text text-anchor="middle" x="153" y="-62" font-family="Helvetica,sans-Serif" font-size="10.00">ARPlayerTypes.h</text>
</a>
</g>
</g>
<!-- Node7&#45;&gt;Node9 -->
<g id="edge11_Node000007_Node000009" class="edge">
<title>Node7&#45;&gt;Node9</title>
<g id="a_edge11_Node000007_Node000009"><a xlink:title=" ">
<path fill="none" stroke="#63b8ff" d="M225.76,-169.03C198.86,-163.74 168.78,-152.54 152,-129 142.81,-116.11 144.24,-97.7 147.28,-84.02"/>
<polygon fill="#63b8ff" stroke="#63b8ff" points="150.68,-84.82 149.88,-74.25 143.92,-83.02 150.68,-84.82"/>
</a>
</g>
</g>
<!-- Node11 -->
<g id="Node000011" class="node">
<title>Node11</title>
<g id="a_Node000011"><a xlink:href="ARSaveTypes_8h.html" target="_top" xlink:title="ARSaveTypes header for Alien Ramen.">
<polygon fill="white" stroke="#666666" points="252.5,-129 161.5,-129 161.5,-110 252.5,-110 252.5,-129"/>
<text text-anchor="middle" x="207" y="-117" font-family="Helvetica,sans-Serif" font-size="10.00">ARSaveTypes.h</text>
</a>
</g>
</g>
<!-- Node7&#45;&gt;Node11 -->
<g id="edge14_Node000007_Node000011" class="edge">
<title>Node7&#45;&gt;Node11</title>
<g id="a_edge14_Node000007_Node000011"><a xlink:title=" ">
<path fill="none" stroke="#63b8ff" d="M269.11,-164.98C257.85,-156.92 240.71,-144.65 227.29,-135.03"/>
<polygon fill="#63b8ff" stroke="#63b8ff" points="229.27,-132.15 219.11,-129.17 225.2,-137.84 229.27,-132.15"/>
</a>
</g>
</g>
<!-- Node13 -->
<g id="Node000013" class="node">
<title>Node13</title>
<g id="a_Node000013"><a xlink:title=" ">
<polygon fill="#e0e0e0" stroke="#999999" points="600.5,-129 437.5,-129 437.5,-110 600.5,-110 600.5,-129"/>
<text text-anchor="middle" x="519" y="-117" font-family="Helvetica,sans-Serif" font-size="10.00">ARDialogueTypes.generated.h</text>
</a>
</g>
</g>
<!-- Node7&#45;&gt;Node13 -->
<g id="edge19_Node000007_Node000013" class="edge">
<title>Node7&#45;&gt;Node13</title>
<g id="a_edge19_Node000007_Node000013"><a xlink:title=" ">
<path fill="none" stroke="#63b8ff" d="M319.24,-164.98C360.41,-155.82 425.99,-141.21 470.7,-131.26"/>
<polygon fill="#63b8ff" stroke="#63b8ff" points="471.46,-134.67 480.46,-129.08 469.94,-127.84 471.46,-134.67"/>
</a>
</g>
</g>
<!-- Node9&#45;&gt;Node2 -->
<g id="edge12_Node000009_Node000002" class="edge">
<title>Node9&#45;&gt;Node2</title>
<g id="a_edge12_Node000009_Node000002"><a xlink:title=" ">
<path fill="none" stroke="#63b8ff" d="M137.58,-54.98C122.55,-46.69 99.46,-33.94 81.84,-24.22"/>
<polygon fill="#63b8ff" stroke="#63b8ff" points="83.15,-20.94 72.7,-19.17 79.77,-27.07 83.15,-20.94"/>
</a>
</g>
</g>
<!-- Node10 -->
<g id="Node000010" class="node">
<title>Node10</title>
<g id="a_Node000010"><a xlink:title=" ">
<polygon fill="#e0e0e0" stroke="#999999" points="269,-19 119,-19 119,0 269,0 269,-19"/>
<text text-anchor="middle" x="194" y="-7" font-family="Helvetica,sans-Serif" font-size="10.00">ARPlayerTypes.generated.h</text>
</a>
</g>
</g>
<!-- Node9&#45;&gt;Node10 -->
<g id="edge13_Node000009_Node000010" class="edge">
<title>Node9&#45;&gt;Node10</title>
<g id="a_edge13_Node000009_Node000010"><a xlink:title=" ">
<path fill="none" stroke="#63b8ff" d="M159.77,-54.75C165.56,-47.26 174.06,-36.28 181.14,-27.13"/>
<polygon fill="#63b8ff" stroke="#63b8ff" points="184.01,-29.14 187.36,-19.09 178.47,-24.86 184.01,-29.14"/>
</a>
</g>
</g>
<!-- Node11&#45;&gt;Node2 -->
<g id="edge15_Node000011_Node000002" class="edge">
<title>Node11&#45;&gt;Node2</title>
<g id="a_edge15_Node000011_Node000002"><a xlink:title=" ">
<path fill="none" stroke="#63b8ff" d="M210.84,-109.68C215.96,-96.38 223.08,-71.07 211,-55 204.44,-46.27 148.06,-31.53 105.4,-21.42"/>
<polygon fill="#63b8ff" stroke="#63b8ff" points="105.97,-17.96 95.44,-19.08 104.37,-24.77 105.97,-17.96"/>
</a>
</g>
</g>
<!-- Node11&#45;&gt;Node4 -->
<g id="edge16_Node000011_Node000004" class="edge">
<title>Node11&#45;&gt;Node4</title>
<g id="a_edge16_Node000011_Node000004"><a xlink:title=" ">
<path fill="none" stroke="#63b8ff" d="M252.31,-109.98C301.6,-100.72 380.43,-85.9 433.43,-75.94"/>
<polygon fill="#63b8ff" stroke="#63b8ff" points="434.16,-79.37 443.34,-74.08 432.86,-72.49 434.16,-79.37"/>
</a>
</g>
</g>
<!-- Node11&#45;&gt;Node9 -->
<g id="edge17_Node000011_Node000009" class="edge">
<title>Node11&#45;&gt;Node9</title>
<g id="a_edge17_Node000011_Node000009"><a xlink:title=" ">
<path fill="none" stroke="#63b8ff" d="M198.08,-109.75C190.22,-102.03 178.57,-90.6 169.08,-81.28"/>
<polygon fill="#63b8ff" stroke="#63b8ff" points="171.34,-78.6 161.75,-74.09 166.44,-83.59 171.34,-78.6"/>
</a>
</g>
</g>
<!-- Node12 -->
<g id="Node000012" class="node">
<title>Node12</title>
<g id="a_Node000012"><a xlink:title=" ">
<polygon fill="#e0e0e0" stroke="#999999" points="401.5,-74 258.5,-74 258.5,-55 401.5,-55 401.5,-74"/>
<text text-anchor="middle" x="330" y="-62" font-family="Helvetica,sans-Serif" font-size="10.00">ARSaveTypes.generated.h</text>
</a>
</g>
</g>
<!-- Node11&#45;&gt;Node12 -->
<g id="edge18_Node000011_Node000012" class="edge">
<title>Node11&#45;&gt;Node12</title>
<g id="a_edge18_Node000011_Node000012"><a xlink:title=" ">
<path fill="none" stroke="#63b8ff" d="M226.76,-109.98C246.73,-101.38 277.8,-87.99 300.65,-78.15"/>
<polygon fill="#63b8ff" stroke="#63b8ff" points="302.08,-81.34 309.88,-74.17 299.31,-74.91 302.08,-81.34"/>
</a>
</g>
</g>
</g>
</svg>
