<?xml version="1.0" encoding="UTF-8" standalone="no"?>
<!DOCTYPE svg PUBLIC "-//W3C//DTD SVG 1.1//EN"
 "http://www.w3.org/Graphics/SVG/1.1/DTD/svg11.dtd">
<!-- Generated by graphviz version 2.43.0 (0)
 -->
<!-- Title: ARScrapyardGameState.h Pages: 1 -->
<svg width="1505pt" height="247pt"
 viewBox="0.00 0.00 1504.50 247.00" xmlns="http://www.w3.org/2000/svg" xmlns:xlink="http://www.w3.org/1999/xlink">
<g id="graph0" class="graph" transform="scale(1 1) rotate(0) translate(4 243)">
<title>ARScrapyardGameState.h</title>
<!-- Node1 -->
<g id="Node000001" class="node">
<title>Node1</title>
<g id="a_Node000001"><a xlink:title="ARScrapyardGameState header for Alien Ramen.">
<polygon fill="#999999" stroke="#666666" points="1345.5,-239 1202.5,-239 1202.5,-220 1345.5,-220 1345.5,-239"/>
<text text-anchor="middle" x="1274" y="-227" font-family="Helvetica,sans-Serif" font-size="10.00">ARScrapyardGameState.h</text>
</a>
</g>
</g>
<!-- Node2 -->
<g id="Node000002" class="node">
<title>Node2</title>
<g id="a_Node000002"><a xlink:title=" ">
<polygon fill="#e0e0e0" stroke="#999999" points="655,-19 567,-19 567,0 655,0 655,-19"/>
<text text-anchor="middle" x="611" y="-7" font-family="Helvetica,sans-Serif" font-size="10.00">CoreMinimal.h</text>
</a>
</g>
</g>
<!-- Node1&#45;&gt;Node2 -->
<g id="edge1_Node000001_Node000002" class="edge">
<title>Node1&#45;&gt;Node2</title>
<g id="a_edge1_Node000001_Node000002"><a xlink:title=" ">
<path fill="none" stroke="#63b8ff" d="M1276.41,-219.65C1283.62,-190.98 1301.76,-99.92 1255,-55 1212.92,-14.58 813.13,-10.47 665.46,-10.35"/>
<polygon fill="#63b8ff" stroke="#63b8ff" points="665.27,-6.85 655.27,-10.35 665.27,-13.85 665.27,-6.85"/>
</a>
</g>
</g>
<!-- Node3 -->
<g id="Node000003" class="node">
<title>Node3</title>
<g id="a_Node000003"><a xlink:href="ARGameStateBase_8h.html" target="_top" xlink:title="ARGameStateBase header for Alien Ramen.">
<polygon fill="white" stroke="#666666" points="644,-184 526,-184 526,-165 644,-165 644,-184"/>
<text text-anchor="middle" x="585" y="-172" font-family="Helvetica,sans-Serif" font-size="10.00">ARGameStateBase.h</text>
</a>
</g>
</g>
<!-- Node1&#45;&gt;Node3 -->
<g id="edge2_Node000001_Node000003" class="edge">
<title>Node1&#45;&gt;Node3</title>
<g id="a_edge2_Node000001_Node000003"><a xlink:title=" ">
<path fill="none" stroke="#63b8ff" d="M1202.21,-222.98C1069.16,-212.74 785.86,-190.95 654.52,-180.85"/>
<polygon fill="#63b8ff" stroke="#63b8ff" points="654.43,-177.33 644.19,-180.05 653.9,-184.31 654.43,-177.33"/>
</a>
</g>
</g>
<!-- Node17 -->
<g id="Node000017" class="node">
<title>Node17</title>
<g id="a_Node000017"><a xlink:title=" ">
<polygon fill="#e0e0e0" stroke="#999999" points="1496.5,-184 1301.5,-184 1301.5,-165 1496.5,-165 1496.5,-184"/>
<text text-anchor="middle" x="1399" y="-172" font-family="Helvetica,sans-Serif" font-size="10.00">ARScrapyardGameState.generated.h</text>
</a>
</g>
</g>
<!-- Node1&#45;&gt;Node17 -->
<g id="edge23_Node000001_Node000017" class="edge">
<title>Node1&#45;&gt;Node17</title>
<g id="a_edge23_Node000001_Node000017"><a xlink:title=" ">
<path fill="none" stroke="#63b8ff" d="M1294.08,-219.98C1314.37,-211.38 1345.96,-197.99 1369.17,-188.15"/>
<polygon fill="#63b8ff" stroke="#63b8ff" points="1370.71,-191.3 1378.55,-184.17 1367.98,-184.85 1370.71,-191.3"/>
</a>
</g>
</g>
<!-- Node3&#45;&gt;Node2 -->
<g id="edge3_Node000003_Node000002" class="edge">
<title>Node3&#45;&gt;Node2</title>
<g id="a_edge3_Node000003_Node000002"><a xlink:title=" ">
<path fill="none" stroke="#63b8ff" d="M566.65,-164.88C553.21,-157.46 535.98,-145.36 528,-129 513.58,-99.44 511.11,-83.22 528,-55 536.97,-40.01 552.91,-29.78 568.43,-22.95"/>
<polygon fill="#63b8ff" stroke="#63b8ff" points="570,-26.1 577.98,-19.13 567.4,-19.6 570,-26.1"/>
</a>
</g>
</g>
<!-- Node4 -->
<g id="Node000004" class="node">
<title>Node4</title>
<g id="a_Node000004"><a xlink:href="ARPauseTypes_8h.html" target="_top" xlink:title="Shared pause&#45;system enums and contracts for Alien Ramen.">
<polygon fill="white" stroke="#666666" points="632.5,-129 537.5,-129 537.5,-110 632.5,-110 632.5,-129"/>
<text text-anchor="middle" x="585" y="-117" font-family="Helvetica,sans-Serif" font-size="10.00">ARPauseTypes.h</text>
</a>
</g>
</g>
<!-- Node3&#45;&gt;Node4 -->
<g id="edge4_Node000003_Node000004" class="edge">
<title>Node3&#45;&gt;Node4</title>
<g id="a_edge4_Node000003_Node000004"><a xlink:title=" ">
<path fill="none" stroke="#63b8ff" d="M585,-164.75C585,-157.8 585,-147.85 585,-139.13"/>
<polygon fill="#63b8ff" stroke="#63b8ff" points="588.5,-139.09 585,-129.09 581.5,-139.09 588.5,-139.09"/>
</a>
</g>
</g>
<!-- Node6 -->
<g id="Node000006" class="node">
<title>Node6</title>
<g id="a_Node000006"><a xlink:href="ARPlayerTypes_8h.html" target="_top" xlink:title="Shared player&#45;facing enum types for Alien Ramen gameplay/save/runtime APIs.">
<polygon fill="white" stroke="#666666" points="124,-74 26,-74 26,-55 124,-55 124,-74"/>
<text text-anchor="middle" x="75" y="-62" font-family="Helvetica,sans-Serif" font-size="10.00">ARPlayerTypes.h</text>
</a>
</g>
</g>
<!-- Node3&#45;&gt;Node6 -->
<g id="edge7_Node000003_Node000006" class="edge">
<title>Node3&#45;&gt;Node6</title>
<g id="a_edge7_Node000003_Node000006"><a xlink:title=" ">
<path fill="none" stroke="#63b8ff" d="M525.8,-173.36C448.52,-171.68 309.81,-163.53 197,-129 159.31,-117.46 119.49,-94.4 95.97,-79.47"/>
<polygon fill="#63b8ff" stroke="#63b8ff" points="97.8,-76.49 87.51,-74 94.01,-82.37 97.8,-76.49"/>
</a>
</g>
</g>
<!-- Node8 -->
<g id="Node000008" class="node">
<title>Node8</title>
<g id="a_Node000008"><a xlink:href="ARSaveTypes_8h.html" target="_top" xlink:title="ARSaveTypes header for Alien Ramen.">
<polygon fill="white" stroke="#666666" points="297.5,-129 206.5,-129 206.5,-110 297.5,-110 297.5,-129"/>
<text text-anchor="middle" x="252" y="-117" font-family="Helvetica,sans-Serif" font-size="10.00">ARSaveTypes.h</text>
</a>
</g>
</g>
<!-- Node3&#45;&gt;Node8 -->
<g id="edge10_Node000003_Node000008" class="edge">
<title>Node3&#45;&gt;Node8</title>
<g id="a_edge10_Node000003_Node000008"><a xlink:title=" ">
<path fill="none" stroke="#63b8ff" d="M531.5,-164.98C470.11,-155.21 369.91,-139.27 307.64,-129.36"/>
<polygon fill="#63b8ff" stroke="#63b8ff" points="308.03,-125.87 297.61,-127.76 306.93,-132.79 308.03,-125.87"/>
</a>
</g>
</g>
<!-- Node9 -->
<g id="Node000009" class="node">
<title>Node9</title>
<g id="a_Node000009"><a xlink:title=" ">
<polygon fill="#e0e0e0" stroke="#999999" points="480.5,-74 341.5,-74 341.5,-55 480.5,-55 480.5,-74"/>
<text text-anchor="middle" x="411" y="-62" font-family="Helvetica,sans-Serif" font-size="10.00">GameplayTagContainer.h</text>
</a>
</g>
</g>
<!-- Node3&#45;&gt;Node9 -->
<g id="edge15_Node000003_Node000009" class="edge">
<title>Node3&#45;&gt;Node9</title>
<g id="a_edge15_Node000003_Node000009"><a xlink:title=" ">
<path fill="none" stroke="#63b8ff" d="M565.12,-164.97C546.49,-156.69 518.14,-143.29 495,-129 471.03,-114.19 445.47,-94.2 428.93,-80.63"/>
<polygon fill="#63b8ff" stroke="#63b8ff" points="431.09,-77.87 421.16,-74.18 426.62,-83.26 431.09,-77.87"/>
</a>
</g>
</g>
<!-- Node11 -->
<g id="Node000011" class="node">
<title>Node11</title>
<g id="a_Node000011"><a xlink:title=" ">
<polygon fill="#e0e0e0" stroke="#999999" points="841.5,-129 650.5,-129 650.5,-110 841.5,-110 841.5,-129"/>
<text text-anchor="middle" x="746" y="-117" font-family="Helvetica,sans-Serif" font-size="10.00">GameFramework/GameStateBase.h</text>
</a>
</g>
</g>
<!-- Node3&#45;&gt;Node11 -->
<g id="edge16_Node000003_Node000011" class="edge">
<title>Node3&#45;&gt;Node11</title>
<g id="a_edge16_Node000003_Node000011"><a xlink:title=" ">
<path fill="none" stroke="#63b8ff" d="M610.87,-164.98C637.78,-156.13 680.12,-142.19 710.23,-132.28"/>
<polygon fill="#63b8ff" stroke="#63b8ff" points="711.53,-135.53 719.93,-129.08 709.34,-128.88 711.53,-135.53"/>
</a>
</g>
</g>
<!-- Node12 -->
<g id="Node000012" class="node">
<title>Node12</title>
<g id="a_Node000012"><a xlink:href="StructSerializable_8h.html" target="_top" xlink:title="StructSerializable header for Alien Ramen.">
<polygon fill="white" stroke="#666666" points="1159.5,-129 1048.5,-129 1048.5,-110 1159.5,-110 1159.5,-129"/>
<text text-anchor="middle" x="1104" y="-117" font-family="Helvetica,sans-Serif" font-size="10.00">StructSerializable.h</text>
</a>
</g>
</g>
<!-- Node3&#45;&gt;Node12 -->
<g id="edge17_Node000003_Node000012" class="edge">
<title>Node3&#45;&gt;Node12</title>
<g id="a_edge17_Node000003_Node000012"><a xlink:title=" ">
<path fill="none" stroke="#63b8ff" d="M644.2,-168.31C728.97,-160.75 890.12,-145.86 1038.16,-129.06"/>
<polygon fill="#63b8ff" stroke="#63b8ff" points="1038.81,-132.51 1048.35,-127.9 1038.01,-125.55 1038.81,-132.51"/>
</a>
</g>
</g>
<!-- Node16 -->
<g id="Node000016" class="node">
<title>Node16</title>
<g id="a_Node000016"><a xlink:title=" ">
<polygon fill="#e0e0e0" stroke="#999999" points="1030,-129 860,-129 860,-110 1030,-110 1030,-129"/>
<text text-anchor="middle" x="945" y="-117" font-family="Helvetica,sans-Serif" font-size="10.00">ARGameStateBase.generated.h</text>
</a>
</g>
</g>
<!-- Node3&#45;&gt;Node16 -->
<g id="edge22_Node000003_Node000016" class="edge">
<title>Node3&#45;&gt;Node16</title>
<g id="a_edge22_Node000003_Node000016"><a xlink:title=" ">
<path fill="none" stroke="#63b8ff" d="M642.84,-164.98C706.65,-155.59 809.22,-140.49 876.87,-130.53"/>
<polygon fill="#63b8ff" stroke="#63b8ff" points="877.62,-133.96 887.01,-129.04 876.6,-127.03 877.62,-133.96"/>
</a>
</g>
</g>
<!-- Node4&#45;&gt;Node2 -->
<g id="edge5_Node000004_Node000002" class="edge">
<title>Node4&#45;&gt;Node2</title>
<g id="a_edge5_Node000004_Node000002"><a xlink:title=" ">
<path fill="none" stroke="#63b8ff" d="M632.74,-111.48C655.31,-105.5 680.26,-94.44 694,-74 709.18,-51.4 678.06,-33.48 649.69,-22.52"/>
<polygon fill="#63b8ff" stroke="#63b8ff" points="650.84,-19.21 640.25,-19.07 648.44,-25.79 650.84,-19.21"/>
</a>
</g>
</g>
<!-- Node5 -->
<g id="Node000005" class="node">
<title>Node5</title>
<g id="a_Node000005"><a xlink:title=" ">
<polygon fill="#e0e0e0" stroke="#999999" points="685,-74 537,-74 537,-55 685,-55 685,-74"/>
<text text-anchor="middle" x="611" y="-62" font-family="Helvetica,sans-Serif" font-size="10.00">ARPauseTypes.generated.h</text>
</a>
</g>
</g>
<!-- Node4&#45;&gt;Node5 -->
<g id="edge6_Node000004_Node000005" class="edge">
<title>Node4&#45;&gt;Node5</title>
<g id="a_edge6_Node000004_Node000005"><a xlink:title=" ">
<path fill="none" stroke="#63b8ff" d="M589.29,-109.75C592.81,-102.57 597.91,-92.18 602.28,-83.27"/>
<polygon fill="#63b8ff" stroke="#63b8ff" points="605.52,-84.61 606.79,-74.09 599.24,-81.53 605.52,-84.61"/>
</a>
</g>
</g>
<!-- Node6&#45;&gt;Node2 -->
<g id="edge8_Node000006_Node000002" class="edge">
<title>Node6&#45;&gt;Node2</title>
<g id="a_edge8_Node000006_Node000002"><a xlink:title=" ">
<path fill="none" stroke="#63b8ff" d="M124.16,-56.67C128.83,-56.08 133.5,-55.51 138,-55 289.54,-37.66 468.97,-22.15 556.91,-14.87"/>
<polygon fill="#63b8ff" stroke="#63b8ff" points="557.24,-18.36 566.92,-14.05 556.67,-11.38 557.24,-18.36"/>
</a>
</g>
</g>
<!-- Node7 -->
<g id="Node000007" class="node">
<title>Node7</title>
<g id="a_Node000007"><a xlink:title=" ">
<polygon fill="#e0e0e0" stroke="#999999" points="150,-19 0,-19 0,0 150,0 150,-19"/>
<text text-anchor="middle" x="75" y="-7" font-family="Helvetica,sans-Serif" font-size="10.00">ARPlayerTypes.generated.h</text>
</a>
</g>
</g>
<!-- Node6&#45;&gt;Node7 -->
<g id="edge9_Node000006_Node000007" class="edge">
<title>Node6&#45;&gt;Node7</title>
<g id="a_edge9_Node000006_Node000007"><a xlink:title=" ">
<path fill="none" stroke="#63b8ff" d="M75,-54.75C75,-47.8 75,-37.85 75,-29.13"/>
<polygon fill="#63b8ff" stroke="#63b8ff" points="78.5,-29.09 75,-19.09 71.5,-29.09 78.5,-29.09"/>
</a>
</g>
</g>
<!-- Node8&#45;&gt;Node2 -->
<g id="edge11_Node000008_Node000002" class="edge">
<title>Node8&#45;&gt;Node2</title>
<g id="a_edge11_Node000008_Node000002"><a xlink:title=" ">
<path fill="none" stroke="#63b8ff" d="M225.17,-109.94C194.29,-98.75 150.33,-77.87 171,-55 196.43,-26.87 444.71,-15.65 556.69,-12"/>
<polygon fill="#63b8ff" stroke="#63b8ff" points="556.89,-15.49 566.77,-11.68 556.67,-8.5 556.89,-15.49"/>
</a>
</g>
</g>
<!-- Node8&#45;&gt;Node6 -->
<g id="edge13_Node000008_Node000006" class="edge">
<title>Node8&#45;&gt;Node6</title>
<g id="a_edge13_Node000008_Node000006"><a xlink:title=" ">
<path fill="none" stroke="#63b8ff" d="M223.56,-109.98C193.72,-101.05 146.62,-86.94 113.47,-77.02"/>
<polygon fill="#63b8ff" stroke="#63b8ff" points="114.24,-73.6 103.66,-74.08 112.24,-80.3 114.24,-73.6"/>
</a>
</g>
</g>
<!-- Node8&#45;&gt;Node9 -->
<g id="edge12_Node000008_Node000009" class="edge">
<title>Node8&#45;&gt;Node9</title>
<g id="a_edge12_Node000008_Node000009"><a xlink:title=" ">
<path fill="none" stroke="#63b8ff" d="M277.55,-109.98C304.12,-101.13 345.94,-87.19 375.67,-77.28"/>
<polygon fill="#63b8ff" stroke="#63b8ff" points="376.87,-80.56 385.25,-74.08 374.66,-73.92 376.87,-80.56"/>
</a>
</g>
</g>
<!-- Node10 -->
<g id="Node000010" class="node">
<title>Node10</title>
<g id="a_Node000010"><a xlink:title=" ">
<polygon fill="#e0e0e0" stroke="#999999" points="323.5,-74 180.5,-74 180.5,-55 323.5,-55 323.5,-74"/>
<text text-anchor="middle" x="252" y="-62" font-family="Helvetica,sans-Serif" font-size="10.00">ARSaveTypes.generated.h</text>
</a>
</g>
</g>
<!-- Node8&#45;&gt;Node10 -->
<g id="edge14_Node000008_Node000010" class="edge">
<title>Node8&#45;&gt;Node10</title>
<g id="a_edge14_Node000008_Node000010"><a xlink:title=" ">
<path fill="none" stroke="#63b8ff" d="M252,-109.75C252,-102.8 252,-92.85 252,-84.13"/>
<polygon fill="#63b8ff" stroke="#63b8ff" points="255.5,-84.09 252,-74.09 248.5,-84.09 255.5,-84.09"/>
</a>
</g>
</g>
<!-- Node12&#45;&gt;Node2 -->
<g id="edge18_Node000012_Node000002" class="edge">
<title>Node12&#45;&gt;Node2</title>
<g id="a_edge18_Node000012_Node000002"><a xlink:title=" ">
<path fill="none" stroke="#63b8ff" d="M1048.4,-111.18C954.28,-98.78 773.35,-74.88 770,-74 721.74,-61.36 668.42,-38 637.41,-23.41"/>
<polygon fill="#63b8ff" stroke="#63b8ff" points="638.7,-20.14 628.17,-19 635.69,-26.46 638.7,-20.14"/>
</a>
</g>
</g>
<!-- Node13 -->
<g id="Node000013" class="node">
<title>Node13</title>
<g id="a_Node000013"><a xlink:title=" ">
<polygon fill="#e0e0e0" stroke="#999999" points="1072.5,-74 961.5,-74 961.5,-55 1072.5,-55 1072.5,-74"/>
<text text-anchor="middle" x="1017" y="-62" font-family="Helvetica,sans-Serif" font-size="10.00">UObject/Interface.h</text>
</a>
</g>
</g>
<!-- Node12&#45;&gt;Node13 -->
<g id="edge19_Node000012_Node000013" class="edge">
<title>Node12&#45;&gt;Node13</title>
<g id="a_edge19_Node000012_Node000013"><a xlink:title=" ">
<path fill="none" stroke="#63b8ff" d="M1090.02,-109.98C1076.53,-101.77 1055.87,-89.18 1039.96,-79.49"/>
<polygon fill="#63b8ff" stroke="#63b8ff" points="1041.59,-76.38 1031.23,-74.17 1037.95,-82.36 1041.59,-76.38"/>
</a>
</g>
</g>
<!-- Node14 -->
<g id="Node000014" class="node">
<title>Node14</title>
<g id="a_Node000014"><a xlink:title=" ">
<polygon fill="#e0e0e0" stroke="#999999" points="1245.5,-74 1090.5,-74 1090.5,-55 1245.5,-55 1245.5,-74"/>
<text text-anchor="middle" x="1168" y="-62" font-family="Helvetica,sans-Serif" font-size="10.00">StructUtils/InstancedStruct.h</text>
</a>
</g>
</g>
<!-- Node12&#45;&gt;Node14 -->
<g id="edge20_Node000012_Node000014" class="edge">
<title>Node12&#45;&gt;Node14</title>
<g id="a_edge20_Node000012_Node000014"><a xlink:title=" ">
<path fill="none" stroke="#63b8ff" d="M1114.28,-109.98C1123.84,-102.07 1138.28,-90.11 1149.78,-80.58"/>
<polygon fill="#63b8ff" stroke="#63b8ff" points="1152.06,-83.24 1157.53,-74.17 1147.6,-77.85 1152.06,-83.24"/>
</a>
</g>
</g>
<!-- Node15 -->
<g id="Node000015" class="node">
<title>Node15</title>
<g id="a_Node000015"><a xlink:title=" ">
<polygon fill="#e0e0e0" stroke="#999999" points="943,-74 779,-74 779,-55 943,-55 943,-74"/>
<text text-anchor="middle" x="861" y="-62" font-family="Helvetica,sans-Serif" font-size="10.00">StructSerializable.generated.h</text>
</a>
</g>
</g>
<!-- Node12&#45;&gt;Node15 -->
<g id="edge21_Node000012_Node000015" class="edge">
<title>Node12&#45;&gt;Node15</title>
<g id="a_edge21_Node000012_Node000015"><a xlink:title=" ">
<path fill="none" stroke="#63b8ff" d="M1064.96,-109.98C1022.92,-100.82 955.96,-86.21 910.32,-76.26"/>
<polygon fill="#63b8ff" stroke="#63b8ff" points="910.86,-72.79 900.35,-74.08 909.37,-79.63 910.86,-72.79"/>
</a>
</g>
</g>
</g>
</svg>
