<?xml version="1.0" encoding="UTF-8" standalone="no"?>
<!DOCTYPE svg PUBLIC "-//W3C//DTD SVG 1.1//EN"
 "http://www.w3.org/Graphics/SVG/1.1/DTD/svg11.dtd">
<!-- Generated by graphviz version 2.43.0 (0)
 -->
<!-- Title: ARScrapyardGameMode.h Pages: 1 -->
<!--zoomable 302 -->

<svg id="main" version="1.1" xmlns="http://www.w3.org/2000/svg" xmlns:xlink="http://www.w3.org/1999/xlink" xml:space="preserve" onload="init(evt)">
<style type="text/css"><![CDATA[
.node, .edge {opacity: 0.7;}
.node.selected, .edge.selected {opacity: 1;}
.edge:hover path { stroke: red; }
.edge:hover polygon { stroke: red; fill: red; }
]]></style>

<defs>
  <circle id="rim" cx="0" cy="0" r="7"/>
  <circle id="rim2" cx="0" cy="0" r="3.5"/>
  <g id="zoomPlus">
    <use xlink:href="#rim" fill="#404040"><set attributeName="fill" to="#808080" begin="zoomplus.mouseover" end="zoomplus.mouseout"/></use>
    <path d="M-4,0h8M0,-4v8" fill="none" stroke="white" stroke-width="1.5" pointer-events="none"/>
  </g>
  <g id="zoomMin">
    <use xlink:href="#rim" fill="#404040"><set attributeName="fill" to="#808080" begin="zoomminus.mouseover" end="zoomminus.mouseout"/></use>
    <path d="M-4,0h8" fill="none" stroke="white" stroke-width="1.5" pointer-events="none"/>
  </g>
  <g id="arrowUp" transform="translate(30 24)">
    <use xlink:href="#rim"/>
    <path pointer-events="none" fill="none" stroke="white" stroke-width="1.5" d="M0,-3.0v7 M-2.5,-0.5L0,-3.0L2.5,-0.5"/>
  </g>
  <g id="arrowRight" transform="rotate(90) translate(36 -43)">
    <use xlink:href="#rim"/>
    <path pointer-events="none" fill="none" stroke="white" stroke-width="1.5" d="M0,-3.0v7 M-2.5,-0.5L0,-3.0L2.5,-0.5"/>
  </g>
  <g id="arrowDown" transform="rotate(180) translate(-30 -48)">
    <use xlink:href="#rim"/>
    <path pointer-events="none" fill="none" stroke="white" stroke-width="1.5" d="M0,-3.0v7 M-2.5,-0.5L0,-3.0L2.5,-0.5"/>
  </g>
  <g id="arrowLeft" transform="rotate(270) translate(-36 17)">
    <use xlink:href="#rim"/>
    <path pointer-events="none" fill="none" stroke="white" stroke-width="1.5" d="M0,-3.0v7 M-2.5,-0.5L0,-3.0L2.5,-0.5"/>
  </g>
  <g id="resetDef">
    <use xlink:href="#rim2" fill="#404040"><set attributeName="fill" to="#808080" begin="reset.mouseover" end="reset.mouseout"/></use>
  </g>
</defs>
<script type="application/ecmascript">
var viewWidth = 1366;
var viewHeight = 302;
var sectionId = 'dynsection-0';
</script>
<script type="application/ecmascript" xlink:href="svg.min.js"/>
<svg id="graph" class="graph">
<g id="viewport">
<title>ARScrapyardGameMode.h</title>
<!-- Node1 -->
<g id="Node000001" class="node">
<title>Node1</title>
<g id="a_Node000001"><a xlink:title="ARScrapyardGameMode header for Alien Ramen.">
<polygon fill="#999999" stroke="#666666" points="994.96,-294 850.96,-294 850.96,-275 994.96,-275 994.96,-294"/>
<text text-anchor="middle" x="922.96" y="-282" font-family="Helvetica,sans-Serif" font-size="10.00">ARScrapyardGameMode.h</text>
</a>
</g>
</g>
<!-- Node2 -->
<g id="Node000002" class="node">
<title>Node2</title>
<g id="a_Node000002"><a xlink:title=" ">
<polygon fill="#e0e0e0" stroke="#999999" points="571.96,-19 483.96,-19 483.96,0 571.96,0 571.96,-19"/>
<text text-anchor="middle" x="527.96" y="-7" font-family="Helvetica,sans-Serif" font-size="10.00">CoreMinimal.h</text>
</a>
</g>
</g>
<!-- Node1&#45;&gt;Node2 -->
<g id="edge1_Node000001_Node000002" class="edge">
<title>Node1&#45;&gt;Node2</title>
<g id="a_edge1_Node000001_Node000002"><a xlink:title=" ">
<path fill="none" stroke="#63b8ff" d="M850.61,-282.6C633.26,-278.93 0.96,-260.92 0.96,-175.5 0.96,-175.5 0.96,-175.5 0.96,-118.5 0.96,-89.04 -2.88,-73.61 19.96,-55 37.36,-40.82 345.99,-21.18 473.51,-13.63"/>
<polygon fill="#63b8ff" stroke="#63b8ff" points="474.05,-17.1 483.83,-13.02 473.64,-10.12 474.05,-17.1"/>
</a>
</g>
</g>
<!-- Node3 -->
<g id="Node000003" class="node">
<title>Node3</title>
<g id="a_Node000003"><a xlink:href="ARGameModeBase_8h.html" target="_top" xlink:title="ARGameModeBase header for Alien Ramen.">
<polygon fill="white" stroke="#666666" points="982.46,-239 863.46,-239 863.46,-220 982.46,-220 982.46,-239"/>
<text text-anchor="middle" x="922.96" y="-227" font-family="Helvetica,sans-Serif" font-size="10.00">ARGameModeBase.h</text>
</a>
</g>
</g>
<!-- Node1&#45;&gt;Node3 -->
<g id="edge2_Node000001_Node000003" class="edge">
<title>Node1&#45;&gt;Node3</title>
<g id="a_edge2_Node000001_Node000003"><a xlink:title=" ">
<path fill="none" stroke="#63b8ff" d="M922.96,-274.75C922.96,-267.8 922.96,-257.85 922.96,-249.13"/>
<polygon fill="#63b8ff" stroke="#63b8ff" points="926.46,-249.09 922.96,-239.09 919.46,-249.09 926.46,-249.09"/>
</a>
</g>
</g>
<!-- Node22 -->
<g id="Node000022" class="node">
<title>Node22</title>
<g id="a_Node000022"><a xlink:title=" ">
<polygon fill="#e0e0e0" stroke="#999999" points="1197.46,-239 1000.46,-239 1000.46,-220 1197.46,-220 1197.46,-239"/>
<text text-anchor="middle" x="1098.96" y="-227" font-family="Helvetica,sans-Serif" font-size="10.00">ARScrapyardGameMode.generated.h</text>
</a>
</g>
</g>
<!-- Node1&#45;&gt;Node22 -->
<g id="edge35_Node000001_Node000022" class="edge">
<title>Node1&#45;&gt;Node22</title>
<g id="a_edge35_Node000001_Node000022"><a xlink:title=" ">
<path fill="none" stroke="#63b8ff" d="M951.24,-274.98C980.91,-266.05 1027.75,-251.94 1060.71,-242.02"/>
<polygon fill="#63b8ff" stroke="#63b8ff" points="1061.89,-245.32 1070.46,-239.08 1059.88,-238.61 1061.89,-245.32"/>
</a>
</g>
</g>
<!-- Node3&#45;&gt;Node2 -->
<g id="edge3_Node000003_Node000002" class="edge">
<title>Node3&#45;&gt;Node2</title>
<g id="a_edge3_Node000003_Node000002"><a xlink:title=" ">
<path fill="none" stroke="#63b8ff" d="M924.71,-219.94C927.48,-207.41 933.54,-183.55 942.96,-165 968.88,-113.96 1048.53,-97.3 1009.96,-55 995.71,-39.37 705.61,-20.79 582.47,-13.58"/>
<polygon fill="#63b8ff" stroke="#63b8ff" points="582.33,-10.06 572.14,-12.98 581.92,-17.05 582.33,-10.06"/>
</a>
</g>
</g>
<!-- Node4 -->
<g id="Node000004" class="node">
<title>Node4</title>
<g id="a_Node000004"><a xlink:href="ARInvaderSpicyTrackTypes_8h.html" target="_top" xlink:title="Shared Invader spicy&#45;track enums/structs for runtime + data authoring.">
<polygon fill="white" stroke="#666666" points="548.46,-184 393.46,-184 393.46,-165 548.46,-165 548.46,-184"/>
<text text-anchor="middle" x="470.96" y="-172" font-family="Helvetica,sans-Serif" font-size="10.00">ARInvaderSpicyTrackTypes.h</text>
</a>
</g>
</g>
<!-- Node3&#45;&gt;Node4 -->
<g id="edge4_Node000003_Node000004" class="edge">
<title>Node3&#45;&gt;Node4</title>
<g id="a_edge4_Node000003_Node000004"><a xlink:title=" ">
<path fill="none" stroke="#63b8ff" d="M863.4,-221.52C784.11,-212.22 643.49,-195.73 553.87,-185.22"/>
<polygon fill="#63b8ff" stroke="#63b8ff" points="554.08,-181.72 543.74,-184.03 553.27,-188.68 554.08,-181.72"/>
</a>
</g>
</g>
<!-- Node8 -->
<g id="Node000008" class="node">
<title>Node8</title>
<g id="a_Node000008"><a xlink:title=" ">
<polygon fill="#e0e0e0" stroke="#999999" points="1326.46,-19 1187.46,-19 1187.46,0 1326.46,0 1326.46,-19"/>
<text text-anchor="middle" x="1256.96" y="-7" font-family="Helvetica,sans-Serif" font-size="10.00">GameplayTagContainer.h</text>
</a>
</g>
</g>
<!-- Node3&#45;&gt;Node8 -->
<g id="edge33_Node000003_Node000008" class="edge">
<title>Node3&#45;&gt;Node8</title>
<g id="a_edge33_Node000003_Node000008"><a xlink:title=" ">
<path fill="none" stroke="#63b8ff" d="M982.79,-221.05C985.89,-220.69 988.96,-220.34 991.96,-220 1031.03,-215.6 1317.61,-213.18 1343.96,-184 1388.68,-134.48 1312.16,-57.75 1275.21,-25.55"/>
<polygon fill="#63b8ff" stroke="#63b8ff" points="1277.45,-22.86 1267.57,-19.03 1272.91,-28.18 1277.45,-22.86"/>
</a>
</g>
</g>
<!-- Node17 -->
<g id="Node000017" class="node">
<title>Node17</title>
<g id="a_Node000017"><a xlink:href="ARPlayerTypes_8h.html" target="_top" xlink:title="Shared player&#45;facing enum types for Alien Ramen gameplay/save/runtime APIs.">
<polygon fill="white" stroke="#666666" points="263.96,-129 165.96,-129 165.96,-110 263.96,-110 263.96,-129"/>
<text text-anchor="middle" x="214.96" y="-117" font-family="Helvetica,sans-Serif" font-size="10.00">ARPlayerTypes.h</text>
</a>
</g>
</g>
<!-- Node3&#45;&gt;Node17 -->
<g id="edge31_Node000003_Node000017" class="edge">
<title>Node3&#45;&gt;Node17</title>
<g id="a_edge31_Node000003_Node000017"><a xlink:title=" ">
<path fill="none" stroke="#63b8ff" d="M863.25,-228.88C763.11,-228.33 555.54,-222.15 384.96,-184 332.85,-172.35 275.24,-148.3 242.24,-133.37"/>
<polygon fill="#63b8ff" stroke="#63b8ff" points="243.37,-130.04 232.82,-129.05 240.45,-136.4 243.37,-130.04"/>
</a>
</g>
</g>
<!-- Node20 -->
<g id="Node000020" class="node">
<title>Node20</title>
<g id="a_Node000020"><a xlink:title=" ">
<polygon fill="#e0e0e0" stroke="#999999" points="1144.46,-184 951.46,-184 951.46,-165 1144.46,-165 1144.46,-184"/>
<text text-anchor="middle" x="1047.96" y="-172" font-family="Helvetica,sans-Serif" font-size="10.00">GameFramework/GameModeBase.h</text>
</a>
</g>
</g>
<!-- Node3&#45;&gt;Node20 -->
<g id="edge32_Node000003_Node000020" class="edge">
<title>Node3&#45;&gt;Node20</title>
<g id="a_edge32_Node000003_Node000020"><a xlink:title=" ">
<path fill="none" stroke="#63b8ff" d="M943.04,-219.98C963.33,-211.38 994.91,-197.99 1018.13,-188.15"/>
<polygon fill="#63b8ff" stroke="#63b8ff" points="1019.67,-191.3 1027.51,-184.17 1016.94,-184.85 1019.67,-191.3"/>
</a>
</g>
</g>
<!-- Node21 -->
<g id="Node000021" class="node">
<title>Node21</title>
<g id="a_Node000021"><a xlink:title=" ">
<polygon fill="#e0e0e0" stroke="#999999" points="1334.96,-184 1162.96,-184 1162.96,-165 1334.96,-165 1334.96,-184"/>
<text text-anchor="middle" x="1248.96" y="-172" font-family="Helvetica,sans-Serif" font-size="10.00">ARGameModeBase.generated.h</text>
</a>
</g>
</g>
<!-- Node3&#45;&gt;Node21 -->
<g id="edge34_Node000003_Node000021" class="edge">
<title>Node3&#45;&gt;Node21</title>
<g id="a_edge34_Node000003_Node000021"><a xlink:title=" ">
<path fill="none" stroke="#63b8ff" d="M975.34,-219.98C1032.88,-210.63 1125.24,-195.61 1186.51,-185.65"/>
<polygon fill="#63b8ff" stroke="#63b8ff" points="1187.13,-189.1 1196.44,-184.04 1186.01,-182.19 1187.13,-189.1"/>
</a>
</g>
</g>
<!-- Node4&#45;&gt;Node2 -->
<g id="edge5_Node000004_Node000002" class="edge">
<title>Node4&#45;&gt;Node2</title>
<g id="a_edge5_Node000004_Node000002"><a xlink:title=" ">
<path fill="none" stroke="#63b8ff" d="M454.21,-164.93C418.8,-145.68 342.08,-97.39 373.96,-55 386.15,-38.78 434.41,-26.6 473.7,-19.12"/>
<polygon fill="#63b8ff" stroke="#63b8ff" points="474.53,-22.53 483.73,-17.28 473.26,-15.65 474.53,-22.53"/>
</a>
</g>
</g>
<!-- Node5 -->
<g id="Node000005" class="node">
<title>Node5</title>
<g id="a_Node000005"><a xlink:href="ARColorTypes_8h.html" target="_top" xlink:title="Shared gameplay color types used across enemies/players/rewards.">
<polygon fill="white" stroke="#666666" points="326.96,-74 234.96,-74 234.96,-55 326.96,-55 326.96,-74"/>
<text text-anchor="middle" x="280.96" y="-62" font-family="Helvetica,sans-Serif" font-size="10.00">ARColorTypes.h</text>
</a>
</g>
</g>
<!-- Node4&#45;&gt;Node5 -->
<g id="edge6_Node000004_Node000005" class="edge">
<title>Node4&#45;&gt;Node5</title>
<g id="a_edge6_Node000004_Node000005"><a xlink:title=" ">
<path fill="none" stroke="#63b8ff" d="M430.32,-164.98C403.48,-158.1 368.34,-146.62 340.96,-129 321.71,-116.61 304.3,-96.76 293.25,-82.55"/>
<polygon fill="#63b8ff" stroke="#63b8ff" points="295.76,-80.06 286.96,-74.16 290.16,-84.26 295.76,-80.06"/>
</a>
</g>
</g>
<!-- Node7 -->
<g id="Node000007" class="node">
<title>Node7</title>
<g id="a_Node000007"><a xlink:title=" ">
<polygon fill="#e0e0e0" stroke="#999999" points="492.96,-74 382.96,-74 382.96,-55 492.96,-55 492.96,-74"/>
<text text-anchor="middle" x="437.96" y="-62" font-family="Helvetica,sans-Serif" font-size="10.00">Engine/DataTable.h</text>
</a>
</g>
</g>
<!-- Node4&#45;&gt;Node7 -->
<g id="edge9_Node000004_Node000007" class="edge">
<title>Node4&#45;&gt;Node7</title>
<g id="a_edge9_Node000004_Node000007"><a xlink:title=" ">
<path fill="none" stroke="#63b8ff" d="M468.24,-164.98C465.39,-156.03 460.81,-141.54 456.96,-129 452.31,-113.85 447.17,-96.63 443.41,-83.95"/>
<polygon fill="#63b8ff" stroke="#63b8ff" points="446.7,-82.74 440.5,-74.14 439.98,-84.72 446.7,-82.74"/>
</a>
</g>
</g>
<!-- Node4&#45;&gt;Node8 -->
<g id="edge10_Node000004_Node000008" class="edge">
<title>Node4&#45;&gt;Node8</title>
<g id="a_edge10_Node000004_Node000008"><a xlink:title=" ">
<path fill="none" stroke="#63b8ff" d="M548.56,-168.51C709.35,-157.24 1073.21,-126.61 1184.96,-74 1208.41,-62.96 1229.93,-41.91 1243.22,-27.08"/>
<polygon fill="#63b8ff" stroke="#63b8ff" points="1246.15,-29.04 1250.04,-19.19 1240.86,-24.46 1246.15,-29.04"/>
</a>
</g>
</g>
<!-- Node9 -->
<g id="Node000009" class="node">
<title>Node9</title>
<g id="a_Node000009"><a xlink:title=" ">
<polygon fill="#e0e0e0" stroke="#999999" points="642.46,-74 511.46,-74 511.46,-55 642.46,-55 642.46,-74"/>
<text text-anchor="middle" x="576.96" y="-62" font-family="Helvetica,sans-Serif" font-size="10.00">UObject/SoftObjectPtr.h</text>
</a>
</g>
</g>
<!-- Node4&#45;&gt;Node9 -->
<g id="edge11_Node000004_Node000009" class="edge">
<title>Node4&#45;&gt;Node9</title>
<g id="a_edge11_Node000004_Node000009"><a xlink:title=" ">
<path fill="none" stroke="#63b8ff" d="M471.44,-164.68C472.61,-151.4 476.56,-126.09 489.96,-110 502.21,-95.29 520.57,-84.9 537.27,-77.88"/>
<polygon fill="#63b8ff" stroke="#63b8ff" points="538.81,-81.03 546.85,-74.13 536.26,-74.52 538.81,-81.03"/>
</a>
</g>
</g>
<!-- Node10 -->
<g id="Node000010" class="node">
<title>Node10</title>
<g id="a_Node000010"><a xlink:href="ARInvaderTypes_8h.html" target="_top" xlink:title="ARInvaderTypes header for Alien Ramen.">
<polygon fill="white" stroke="#666666" points="828.96,-129 724.96,-129 724.96,-110 828.96,-110 828.96,-129"/>
<text text-anchor="middle" x="776.96" y="-117" font-family="Helvetica,sans-Serif" font-size="10.00">ARInvaderTypes.h</text>
</a>
</g>
</g>
<!-- Node4&#45;&gt;Node10 -->
<g id="edge12_Node000004_Node000010" class="edge">
<title>Node4&#45;&gt;Node10</title>
<g id="a_edge12_Node000004_Node000010"><a xlink:title=" ">
<path fill="none" stroke="#63b8ff" d="M520.12,-164.98C573.91,-155.67 660.12,-140.74 717.63,-130.78"/>
<polygon fill="#63b8ff" stroke="#63b8ff" points="718.41,-134.19 727.66,-129.04 717.21,-127.3 718.41,-134.19"/>
</a>
</g>
</g>
<!-- Node4&#45;&gt;Node17 -->
<g id="edge27_Node000004_Node000017" class="edge">
<title>Node4&#45;&gt;Node17</title>
<g id="a_edge27_Node000004_Node000017"><a xlink:title=" ">
<path fill="none" stroke="#63b8ff" d="M429.83,-164.98C385.36,-155.78 314.41,-141.09 266.31,-131.13"/>
<polygon fill="#63b8ff" stroke="#63b8ff" points="266.91,-127.68 256.41,-129.08 265.5,-134.54 266.91,-127.68"/>
</a>
</g>
</g>
<!-- Node19 -->
<g id="Node000019" class="node">
<title>Node19</title>
<g id="a_Node000019"><a xlink:title=" ">
<polygon fill="#e0e0e0" stroke="#999999" points="706.96,-129 498.96,-129 498.96,-110 706.96,-110 706.96,-129"/>
<text text-anchor="middle" x="602.96" y="-117" font-family="Helvetica,sans-Serif" font-size="10.00">ARInvaderSpicyTrackTypes.generated.h</text>
</a>
</g>
</g>
<!-- Node4&#45;&gt;Node19 -->
<g id="edge30_Node000004_Node000019" class="edge">
<title>Node4&#45;&gt;Node19</title>
<g id="a_edge30_Node000004_Node000019"><a xlink:title=" ">
<path fill="none" stroke="#63b8ff" d="M492.17,-164.98C513.69,-156.34 547.24,-142.87 571.79,-133.02"/>
<polygon fill="#63b8ff" stroke="#63b8ff" points="573.39,-136.14 581.37,-129.17 570.78,-129.65 573.39,-136.14"/>
</a>
</g>
</g>
<!-- Node5&#45;&gt;Node2 -->
<g id="edge7_Node000005_Node000002" class="edge">
<title>Node5&#45;&gt;Node2</title>
<g id="a_edge7_Node000005_Node000002"><a xlink:title=" ">
<path fill="none" stroke="#63b8ff" d="M320.64,-54.98C363.46,-45.8 431.72,-31.15 478.12,-21.19"/>
<polygon fill="#63b8ff" stroke="#63b8ff" points="478.92,-24.6 487.96,-19.08 477.45,-17.76 478.92,-24.6"/>
</a>
</g>
</g>
<!-- Node6 -->
<g id="Node000006" class="node">
<title>Node6</title>
<g id="a_Node000006"><a xlink:title=" ">
<polygon fill="#e0e0e0" stroke="#999999" points="353.46,-19 208.46,-19 208.46,0 353.46,0 353.46,-19"/>
<text text-anchor="middle" x="280.96" y="-7" font-family="Helvetica,sans-Serif" font-size="10.00">ARColorTypes.generated.h</text>
</a>
</g>
</g>
<!-- Node5&#45;&gt;Node6 -->
<g id="edge8_Node000005_Node000006" class="edge">
<title>Node5&#45;&gt;Node6</title>
<g id="a_edge8_Node000005_Node000006"><a xlink:title=" ">
<path fill="none" stroke="#63b8ff" d="M280.96,-54.75C280.96,-47.8 280.96,-37.85 280.96,-29.13"/>
<polygon fill="#63b8ff" stroke="#63b8ff" points="284.46,-29.09 280.96,-19.09 277.46,-29.09 284.46,-29.09"/>
</a>
</g>
</g>
<!-- Node10&#45;&gt;Node2 -->
<g id="edge13_Node000010_Node000002" class="edge">
<title>Node10&#45;&gt;Node2</title>
<g id="a_edge13_Node000010_Node000002"><a xlink:title=" ">
<path fill="none" stroke="#63b8ff" d="M760.23,-109.93C727.44,-93.15 657.42,-57.36 651.96,-55 623.16,-42.58 589.64,-30.7 564.72,-22.34"/>
<polygon fill="#63b8ff" stroke="#63b8ff" points="565.54,-18.92 554.94,-19.1 563.33,-25.57 565.54,-18.92"/>
</a>
</g>
</g>
<!-- Node10&#45;&gt;Node5 -->
<g id="edge14_Node000010_Node000005" class="edge">
<title>Node10&#45;&gt;Node5</title>
<g id="a_edge14_Node000010_Node000005"><a xlink:title=" ">
<path fill="none" stroke="#63b8ff" d="M724.73,-111.09C721.77,-110.71 718.83,-110.35 715.96,-110 580.12,-93.59 419.94,-78.23 337.02,-70.58"/>
<polygon fill="#63b8ff" stroke="#63b8ff" points="337.33,-67.09 327.06,-69.66 336.69,-74.06 337.33,-67.09"/>
</a>
</g>
</g>
<!-- Node10&#45;&gt;Node7 -->
<g id="edge19_Node000010_Node000007" class="edge">
<title>Node10&#45;&gt;Node7</title>
<g id="a_edge19_Node000010_Node000007"><a xlink:title=" ">
<path fill="none" stroke="#63b8ff" d="M724.73,-110.33C664.97,-100.99 567.05,-85.68 502.55,-75.6"/>
<polygon fill="#63b8ff" stroke="#63b8ff" points="502.91,-72.11 492.49,-74.03 501.83,-79.03 502.91,-72.11"/>
</a>
</g>
</g>
<!-- Node10&#45;&gt;Node8 -->
<g id="edge18_Node000010_Node000008" class="edge">
<title>Node10&#45;&gt;Node8</title>
<g id="a_edge18_Node000010_Node000008"><a xlink:title=" ">
<path fill="none" stroke="#63b8ff" d="M829.24,-115.04C917.83,-108.72 1093.52,-94.08 1151.96,-74 1184.78,-62.72 1218.34,-40.09 1238.42,-25.11"/>
<polygon fill="#63b8ff" stroke="#63b8ff" points="1240.57,-27.88 1246.4,-19.03 1236.32,-22.31 1240.57,-27.88"/>
</a>
</g>
</g>
<!-- Node10&#45;&gt;Node9 -->
<g id="edge20_Node000010_Node000009" class="edge">
<title>Node10&#45;&gt;Node9</title>
<g id="a_edge20_Node000010_Node000009"><a xlink:title=" ">
<path fill="none" stroke="#63b8ff" d="M744.83,-109.98C710.81,-100.97 656.96,-86.7 619.46,-76.76"/>
<polygon fill="#63b8ff" stroke="#63b8ff" points="619.91,-73.26 609.34,-74.08 618.11,-80.03 619.91,-73.26"/>
</a>
</g>
</g>
<!-- Node11 -->
<g id="Node000011" class="node">
<title>Node11</title>
<g id="a_Node000011"><a xlink:href="ARInvaderDropTypes_8h.html" target="_top" xlink:title="Shared invader drop type surface.">
<polygon fill="white" stroke="#666666" points="1000.46,-74 873.46,-74 873.46,-55 1000.46,-55 1000.46,-74"/>
<text text-anchor="middle" x="936.96" y="-62" font-family="Helvetica,sans-Serif" font-size="10.00">ARInvaderDropTypes.h</text>
</a>
</g>
</g>
<!-- Node10&#45;&gt;Node11 -->
<g id="edge15_Node000010_Node000011" class="edge">
<title>Node10&#45;&gt;Node11</title>
<g id="a_edge15_Node000010_Node000011"><a xlink:title=" ">
<path fill="none" stroke="#63b8ff" d="M802.67,-109.98C829.41,-101.13 871.49,-87.19 901.41,-77.28"/>
<polygon fill="#63b8ff" stroke="#63b8ff" points="902.66,-80.55 911.05,-74.08 900.46,-73.9 902.66,-80.55"/>
</a>
</g>
</g>
<!-- Node13 -->
<g id="Node000013" class="node">
<title>Node13</title>
<g id="a_Node000013"><a xlink:href="ARAbilitySet_8h.html" target="_top" xlink:title="ARAbilitySet header for Alien Ramen.">
<polygon fill="white" stroke="#666666" points="1142.96,-74 1056.96,-74 1056.96,-55 1142.96,-55 1142.96,-74"/>
<text text-anchor="middle" x="1099.96" y="-62" font-family="Helvetica,sans-Serif" font-size="10.00">ARAbilitySet.h</text>
</a>
</g>
</g>
<!-- Node10&#45;&gt;Node13 -->
<g id="edge21_Node000010_Node000013" class="edge">
<title>Node10&#45;&gt;Node13</title>
<g id="a_edge21_Node000010_Node000013"><a xlink:title=" ">
<path fill="none" stroke="#63b8ff" d="M828.85,-109.98C888.53,-100.19 986.01,-84.2 1046.39,-74.29"/>
<polygon fill="#63b8ff" stroke="#63b8ff" points="1047.18,-77.71 1056.48,-72.63 1046.04,-70.8 1047.18,-77.71"/>
</a>
</g>
</g>
<!-- Node16 -->
<g id="Node000016" class="node">
<title>Node16</title>
<g id="a_Node000016"><a xlink:title=" ">
<polygon fill="#e0e0e0" stroke="#999999" points="854.96,-74 698.96,-74 698.96,-55 854.96,-55 854.96,-74"/>
<text text-anchor="middle" x="776.96" y="-62" font-family="Helvetica,sans-Serif" font-size="10.00">ARInvaderTypes.generated.h</text>
</a>
</g>
</g>
<!-- Node10&#45;&gt;Node16 -->
<g id="edge26_Node000010_Node000016" class="edge">
<title>Node10&#45;&gt;Node16</title>
<g id="a_edge26_Node000010_Node000016"><a xlink:title=" ">
<path fill="none" stroke="#63b8ff" d="M776.96,-109.75C776.96,-102.8 776.96,-92.85 776.96,-84.13"/>
<polygon fill="#63b8ff" stroke="#63b8ff" points="780.46,-84.09 776.96,-74.09 773.46,-84.09 780.46,-84.09"/>
</a>
</g>
</g>
<!-- Node11&#45;&gt;Node2 -->
<g id="edge16_Node000011_Node000002" class="edge">
<title>Node11&#45;&gt;Node2</title>
<g id="a_edge16_Node000011_Node000002"><a xlink:title=" ">
<path fill="none" stroke="#63b8ff" d="M873.05,-55.22C793.12,-44.86 657.65,-27.31 582.42,-17.56"/>
<polygon fill="#63b8ff" stroke="#63b8ff" points="582.58,-14.05 572.22,-16.23 581.68,-20.99 582.58,-14.05"/>
</a>
</g>
</g>
<!-- Node12 -->
<g id="Node000012" class="node">
<title>Node12</title>
<g id="a_Node000012"><a xlink:title=" ">
<polygon fill="#e0e0e0" stroke="#999999" points="881.46,-19 702.46,-19 702.46,0 881.46,0 881.46,-19"/>
<text text-anchor="middle" x="791.96" y="-7" font-family="Helvetica,sans-Serif" font-size="10.00">ARInvaderDropTypes.generated.h</text>
</a>
</g>
</g>
<!-- Node11&#45;&gt;Node12 -->
<g id="edge17_Node000011_Node000012" class="edge">
<title>Node11&#45;&gt;Node12</title>
<g id="a_edge17_Node000011_Node000012"><a xlink:title=" ">
<path fill="none" stroke="#63b8ff" d="M913.66,-54.98C889.71,-46.23 852.18,-32.51 825.13,-22.62"/>
<polygon fill="#63b8ff" stroke="#63b8ff" points="826.27,-19.32 815.68,-19.17 823.87,-25.89 826.27,-19.32"/>
</a>
</g>
</g>
<!-- Node13&#45;&gt;Node2 -->
<g id="edge22_Node000013_Node000002" class="edge">
<title>Node13&#45;&gt;Node2</title>
<g id="a_edge22_Node000013_Node000002"><a xlink:title=" ">
<path fill="none" stroke="#63b8ff" d="M1056.74,-56.77C1052.09,-56.13 1047.43,-55.53 1042.96,-55 875.44,-35.29 676.3,-20.54 582.27,-14.08"/>
<polygon fill="#63b8ff" stroke="#63b8ff" points="582.36,-10.58 572.14,-13.39 581.88,-17.57 582.36,-10.58"/>
</a>
</g>
</g>
<!-- Node13&#45;&gt;Node8 -->
<g id="edge24_Node000013_Node000008" class="edge">
<title>Node13&#45;&gt;Node8</title>
<g id="a_edge24_Node000013_Node000008"><a xlink:title=" ">
<path fill="none" stroke="#63b8ff" d="M1125.18,-54.98C1151.31,-46.16 1192.36,-32.31 1221.69,-22.41"/>
<polygon fill="#63b8ff" stroke="#63b8ff" points="1223.18,-25.6 1231.54,-19.08 1220.94,-18.96 1223.18,-25.6"/>
</a>
</g>
</g>
<!-- Node14 -->
<g id="Node000014" class="node">
<title>Node14</title>
<g id="a_Node000014"><a xlink:title=" ">
<polygon fill="#e0e0e0" stroke="#999999" points="1011.96,-19 899.96,-19 899.96,0 1011.96,0 1011.96,-19"/>
<text text-anchor="middle" x="955.96" y="-7" font-family="Helvetica,sans-Serif" font-size="10.00">Engine/DataAsset.h</text>
</a>
</g>
</g>
<!-- Node13&#45;&gt;Node14 -->
<g id="edge23_Node000013_Node000014" class="edge">
<title>Node13&#45;&gt;Node14</title>
<g id="a_edge23_Node000013_Node000014"><a xlink:title=" ">
<path fill="none" stroke="#63b8ff" d="M1076.82,-54.98C1053.14,-46.27 1016.09,-32.63 989.25,-22.75"/>
<polygon fill="#63b8ff" stroke="#63b8ff" points="990.11,-19.34 979.52,-19.17 987.69,-25.91 990.11,-19.34"/>
</a>
</g>
</g>
<!-- Node15 -->
<g id="Node000015" class="node">
<title>Node15</title>
<g id="a_Node000015"><a xlink:title=" ">
<polygon fill="#e0e0e0" stroke="#999999" points="1169.46,-19 1030.46,-19 1030.46,0 1169.46,0 1169.46,-19"/>
<text text-anchor="middle" x="1099.96" y="-7" font-family="Helvetica,sans-Serif" font-size="10.00">ARAbilitySet.generated.h</text>
</a>
</g>
</g>
<!-- Node13&#45;&gt;Node15 -->
<g id="edge25_Node000013_Node000015" class="edge">
<title>Node13&#45;&gt;Node15</title>
<g id="a_edge25_Node000013_Node000015"><a xlink:title=" ">
<path fill="none" stroke="#63b8ff" d="M1099.96,-54.75C1099.96,-47.8 1099.96,-37.85 1099.96,-29.13"/>
<polygon fill="#63b8ff" stroke="#63b8ff" points="1103.46,-29.09 1099.96,-19.09 1096.46,-29.09 1103.46,-29.09"/>
</a>
</g>
</g>
<!-- Node17&#45;&gt;Node2 -->
<g id="edge28_Node000017_Node000002" class="edge">
<title>Node17&#45;&gt;Node2</title>
<g id="a_edge28_Node000017_Node000002"><a xlink:title=" ">
<path fill="none" stroke="#63b8ff" d="M213.58,-109.67C211.99,-95.89 211.22,-69.37 225.96,-55 243.4,-37.99 391.61,-22.46 473.72,-15.06"/>
<polygon fill="#63b8ff" stroke="#63b8ff" points="474.23,-18.52 483.88,-14.15 473.61,-11.55 474.23,-18.52"/>
</a>
</g>
</g>
<!-- Node18 -->
<g id="Node000018" class="node">
<title>Node18</title>
<g id="a_Node000018"><a xlink:title=" ">
<polygon fill="#e0e0e0" stroke="#999999" points="178.96,-74 28.96,-74 28.96,-55 178.96,-55 178.96,-74"/>
<text text-anchor="middle" x="103.96" y="-62" font-family="Helvetica,sans-Serif" font-size="10.00">ARPlayerTypes.generated.h</text>
</a>
</g>
</g>
<!-- Node17&#45;&gt;Node18 -->
<g id="edge29_Node000017_Node000018" class="edge">
<title>Node17&#45;&gt;Node18</title>
<g id="a_edge29_Node000017_Node000018"><a xlink:title=" ">
<path fill="none" stroke="#63b8ff" d="M197.13,-109.98C179.35,-101.5 151.81,-88.35 131.28,-78.54"/>
<polygon fill="#63b8ff" stroke="#63b8ff" points="132.65,-75.32 122.12,-74.17 129.63,-81.64 132.65,-75.32"/>
</a>
</g>
</g>
</g>
</svg>

<g id="navigator" transform="translate(0 0)" fill="#404254">
  <rect fill="#f2f5e9" fill-opacity="0.5" stroke="#606060" stroke-width=".5" x="0" y="0" width="60" height="60"/>
  <use id="zoomplus" xlink:href="#zoomPlus" x="17" y="9" onmousedown="handleZoom(evt,'in')"/>
  <use id="zoomminus" xlink:href="#zoomMin" x="42" y="9" onmousedown="handleZoom(evt,'out')"/>
  <use id="reset" xlink:href="#resetDef" x="30" y="36" onmousedown="handleReset()"/>
   <use id="arrowup" xlink:href="#arrowUp" x="0" y="0" onmousedown="handlePan(0,-1)"/>
  <use id="arrowright" xlink:href="#arrowRight" x="0" y="0" onmousedown="handlePan(1,0)"/>
  <use id="arrowdown" xlink:href="#arrowDown" x="0" y="0" onmousedown="handlePan(0,1)"/>
  <use id="arrowleft" xlink:href="#arrowLeft" x="0" y="0" onmousedown="handlePan(-1,0)"/>
</g>
<svg viewBox="0 0 15 15" width="100%" height="30px" preserveAspectRatio="xMaxYMin meet">
 <g id="arrow_out" transform="scale(0.3 0.3)">
  <a xlink:href="ARScrapyardGameMode_8h__incl_org.svg" target="_base">
   <rect id="button" ry="5" rx="5" y="6" x="6" height="38" width="38"
        fill="#f2f5e9" fill-opacity="0.5" stroke="#606060" stroke-width="1.0"/>
   <path id="arrow"
     d="M 11.500037,31.436501 C 11.940474,20.09759 22.043105,11.32322 32.158766,21.979434 L 37.068811,17.246167 C 37.068811,17.246167 37.088388,32 37.088388,32 L 22.160133,31.978069 C 22.160133,31.978069 26.997745,27.140456 26.997745,27.140456 C 18.528582,18.264221 13.291696,25.230495 11.500037,31.436501 z"
     style="fill:#404040;"/>
  </a>
 </g>
</svg>

<style type='text/css'>
<![CDATA[
[data-mouse-over-selected='false'] { opacity: 0.7; }
[data-mouse-over-selected='true']  { opacity: 1.0; }
]]>
</style>
<script type="application/ecmascript"><![CDATA[
document.addEventListener('DOMContentLoaded', (event) => {
  highlightEdges();
  highlightAdjacentNodes();
});
]]></script>
</svg>
