<?xml version="1.0" encoding="UTF-8" standalone="no"?>
<!DOCTYPE svg PUBLIC "-//W3C//DTD SVG 1.1//EN"
 "http://www.w3.org/Graphics/SVG/1.1/DTD/svg11.dtd">
<!-- Generated by graphviz version 2.43.0 (0)
 -->
<!-- Title: ARScrapyardAIController.h Pages: 1 -->
<svg width="546pt" height="137pt"
 viewBox="0.00 0.00 545.50 137.00" xmlns="http://www.w3.org/2000/svg" xmlns:xlink="http://www.w3.org/1999/xlink">
<g id="graph0" class="graph" transform="scale(1 1) rotate(0) translate(4 133)">
<title>ARScrapyardAIController.h</title>
<!-- Node1 -->
<g id="Node000001" class="node">
<title>Node1</title>
<g id="a_Node000001"><a xlink:title="ARScrapyardAIController header for Alien Ramen.">
<polygon fill="#999999" stroke="#666666" points="220.5,-129 75.5,-129 75.5,-110 220.5,-110 220.5,-129"/>
<text text-anchor="middle" x="148" y="-117" font-family="Helvetica,sans-Serif" font-size="10.00">ARScrapyardAIController.h</text>
</a>
</g>
</g>
<!-- Node2 -->
<g id="Node000002" class="node">
<title>Node2</title>
<g id="a_Node000002"><a xlink:title=" ">
<polygon fill="#e0e0e0" stroke="#999999" points="88,-19 0,-19 0,0 88,0 88,-19"/>
<text text-anchor="middle" x="44" y="-7" font-family="Helvetica,sans-Serif" font-size="10.00">CoreMinimal.h</text>
</a>
</g>
</g>
<!-- Node1&#45;&gt;Node2 -->
<g id="edge1_Node000001_Node000002" class="edge">
<title>Node1&#45;&gt;Node2</title>
<g id="a_edge1_Node000001_Node000002"><a xlink:title=" ">
<path fill="none" stroke="#63b8ff" d="M129.19,-109.92C113.91,-102.22 92.6,-89.73 78,-74 65.78,-60.84 56.57,-42.46 50.84,-28.86"/>
<polygon fill="#63b8ff" stroke="#63b8ff" points="53.94,-27.17 47,-19.17 47.43,-29.75 53.94,-27.17"/>
</a>
</g>
</g>
<!-- Node3 -->
<g id="Node000003" class="node">
<title>Node3</title>
<g id="a_Node000003"><a xlink:href="ARAIControllerBase_8h.html" target="_top" xlink:title="ARAIControllerBase header for Alien Ramen.">
<polygon fill="white" stroke="#666666" points="208.5,-74 87.5,-74 87.5,-55 208.5,-55 208.5,-74"/>
<text text-anchor="middle" x="148" y="-62" font-family="Helvetica,sans-Serif" font-size="10.00">ARAIControllerBase.h</text>
</a>
</g>
</g>
<!-- Node1&#45;&gt;Node3 -->
<g id="edge2_Node000001_Node000003" class="edge">
<title>Node1&#45;&gt;Node3</title>
<g id="a_edge2_Node000001_Node000003"><a xlink:title=" ">
<path fill="none" stroke="#63b8ff" d="M148,-109.75C148,-102.8 148,-92.85 148,-84.13"/>
<polygon fill="#63b8ff" stroke="#63b8ff" points="151.5,-84.09 148,-74.09 144.5,-84.09 151.5,-84.09"/>
</a>
</g>
</g>
<!-- Node7 -->
<g id="Node000007" class="node">
<title>Node7</title>
<g id="a_Node000007"><a xlink:title=" ">
<polygon fill="#e0e0e0" stroke="#999999" points="423.5,-74 226.5,-74 226.5,-55 423.5,-55 423.5,-74"/>
<text text-anchor="middle" x="325" y="-62" font-family="Helvetica,sans-Serif" font-size="10.00">ARScrapyardAIController.generated.h</text>
</a>
</g>
</g>
<!-- Node1&#45;&gt;Node7 -->
<g id="edge7_Node000001_Node000007" class="edge">
<title>Node1&#45;&gt;Node7</title>
<g id="a_edge7_Node000001_Node000007"><a xlink:title=" ">
<path fill="none" stroke="#63b8ff" d="M176.44,-109.98C206.28,-101.05 253.38,-86.94 286.53,-77.02"/>
<polygon fill="#63b8ff" stroke="#63b8ff" points="287.76,-80.3 296.34,-74.08 285.76,-73.6 287.76,-80.3"/>
</a>
</g>
</g>
<!-- Node3&#45;&gt;Node2 -->
<g id="edge3_Node000003_Node000002" class="edge">
<title>Node3&#45;&gt;Node2</title>
<g id="a_edge3_Node000003_Node000002"><a xlink:title=" ">
<path fill="none" stroke="#63b8ff" d="M131.29,-54.98C114.79,-46.57 89.3,-33.59 70.12,-23.81"/>
<polygon fill="#63b8ff" stroke="#63b8ff" points="71.51,-20.59 61.01,-19.17 68.33,-26.83 71.51,-20.59"/>
</a>
</g>
</g>
<!-- Node4 -->
<g id="Node000004" class="node">
<title>Node4</title>
<g id="a_Node000004"><a xlink:title=" ">
<polygon fill="#e0e0e0" stroke="#999999" points="189.5,-19 106.5,-19 106.5,0 189.5,0 189.5,-19"/>
<text text-anchor="middle" x="148" y="-7" font-family="Helvetica,sans-Serif" font-size="10.00">AIController.h</text>
</a>
</g>
</g>
<!-- Node3&#45;&gt;Node4 -->
<g id="edge4_Node000003_Node000004" class="edge">
<title>Node3&#45;&gt;Node4</title>
<g id="a_edge4_Node000003_Node000004"><a xlink:title=" ">
<path fill="none" stroke="#63b8ff" d="M148,-54.75C148,-47.8 148,-37.85 148,-29.13"/>
<polygon fill="#63b8ff" stroke="#63b8ff" points="151.5,-29.09 148,-19.09 144.5,-29.09 151.5,-29.09"/>
</a>
</g>
</g>
<!-- Node5 -->
<g id="Node000005" class="node">
<title>Node5</title>
<g id="a_Node000005"><a xlink:title=" ">
<polygon fill="#e0e0e0" stroke="#999999" points="346.5,-19 207.5,-19 207.5,0 346.5,0 346.5,-19"/>
<text text-anchor="middle" x="277" y="-7" font-family="Helvetica,sans-Serif" font-size="10.00">GameplayTagContainer.h</text>
</a>
</g>
</g>
<!-- Node3&#45;&gt;Node5 -->
<g id="edge5_Node000003_Node000005" class="edge">
<title>Node3&#45;&gt;Node5</title>
<g id="a_edge5_Node000003_Node000005"><a xlink:title=" ">
<path fill="none" stroke="#63b8ff" d="M168.73,-54.98C189.76,-46.34 222.55,-32.87 246.54,-23.02"/>
<polygon fill="#63b8ff" stroke="#63b8ff" points="247.98,-26.21 255.9,-19.17 245.32,-19.73 247.98,-26.21"/>
</a>
</g>
</g>
<!-- Node6 -->
<g id="Node000006" class="node">
<title>Node6</title>
<g id="a_Node000006"><a xlink:title=" ">
<polygon fill="#e0e0e0" stroke="#999999" points="537.5,-19 364.5,-19 364.5,0 537.5,0 537.5,-19"/>
<text text-anchor="middle" x="451" y="-7" font-family="Helvetica,sans-Serif" font-size="10.00">ARAIControllerBase.generated.h</text>
</a>
</g>
</g>
<!-- Node3&#45;&gt;Node6 -->
<g id="edge6_Node000003_Node000006" class="edge">
<title>Node3&#45;&gt;Node6</title>
<g id="a_edge6_Node000003_Node000006"><a xlink:title=" ">
<path fill="none" stroke="#63b8ff" d="M196.68,-54.98C249.94,-45.67 335.31,-30.74 392.25,-20.78"/>
<polygon fill="#63b8ff" stroke="#63b8ff" points="392.94,-24.21 402.19,-19.04 391.73,-17.31 392.94,-24.21"/>
</a>
</g>
</g>
</g>
</svg>
