<?xml version="1.0" encoding="UTF-8" standalone="no"?>
<!DOCTYPE svg PUBLIC "-//W3C//DTD SVG 1.1//EN"
 "http://www.w3.org/Graphics/SVG/1.1/DTD/svg11.dtd">
<!-- Generated by graphviz version 2.43.0 (0)
 -->
<!-- Title: ARSessionSubsystem.h Pages: 1 -->
<svg width="599pt" height="137pt"
 viewBox="0.00 0.00 598.50 137.00" xmlns="http://www.w3.org/2000/svg" xmlns:xlink="http://www.w3.org/1999/xlink">
<g id="graph0" class="graph" transform="scale(1 1) rotate(0) translate(4 133)">
<title>ARSessionSubsystem.h</title>
<!-- Node1 -->
<g id="Node000001" class="node">
<title>Node1</title>
<g id="a_Node000001"><a xlink:title="Session subsystem for Steam/LAN/local multiplayer flow.">
<polygon fill="#999999" stroke="#666666" points="347,-129 216,-129 216,-110 347,-110 347,-129"/>
<text text-anchor="middle" x="281.5" y="-117" font-family="Helvetica,sans-Serif" font-size="10.00">ARSessionSubsystem.h</text>
</a>
</g>
</g>
<!-- Node2 -->
<g id="Node000002" class="node">
<title>Node2</title>
<g id="a_Node000002"><a xlink:href="ARGameInstance_8cpp_source.html" target="_top" xlink:title=" ">
<polygon fill="white" stroke="#666666" points="121,-74 0,-74 0,-55 121,-55 121,-74"/>
<text text-anchor="middle" x="60.5" y="-62" font-family="Helvetica,sans-Serif" font-size="10.00">ARGameInstance.cpp</text>
</a>
</g>
</g>
<!-- Node1&#45;&gt;Node2 -->
<g id="edge1_Node000001_Node000002" class="edge">
<title>Node1&#45;&gt;Node2</title>
<g id="a_edge1_Node000001_Node000002"><a xlink:title=" ">
<path fill="none" stroke="#63b8ff" d="M236.16,-107.63C194.76,-97.7 134.38,-83.22 96.29,-74.08"/>
<polygon fill="#63b8ff" stroke="#63b8ff" points="235.45,-111.06 245.99,-109.98 237.08,-104.25 235.45,-111.06"/>
</a>
</g>
</g>
<!-- Node3 -->
<g id="Node000003" class="node">
<title>Node3</title>
<g id="a_Node000003"><a xlink:href="ARGameModeBase_8cpp_source.html" target="_top" xlink:title=" ">
<polygon fill="white" stroke="#666666" points="270,-74 139,-74 139,-55 270,-55 270,-74"/>
<text text-anchor="middle" x="204.5" y="-62" font-family="Helvetica,sans-Serif" font-size="10.00">ARGameModeBase.cpp</text>
</a>
</g>
</g>
<!-- Node1&#45;&gt;Node3 -->
<g id="edge2_Node000001_Node000003" class="edge">
<title>Node1&#45;&gt;Node3</title>
<g id="a_edge2_Node000001_Node000003"><a xlink:title=" ">
<path fill="none" stroke="#63b8ff" d="M260.65,-104.15C246.74,-94.57 228.89,-82.29 217.1,-74.17"/>
<polygon fill="#63b8ff" stroke="#63b8ff" points="258.91,-107.2 269.13,-109.98 262.88,-101.43 258.91,-107.2"/>
</a>
</g>
</g>
<!-- Node4 -->
<g id="Node000004" class="node">
<title>Node4</title>
<g id="a_Node000004"><a xlink:href="ARSessionAsyncActions_8h.html" target="_top" xlink:title="Blueprint async session action nodes with success/failure exec pins.">
<polygon fill="white" stroke="#666666" points="430.5,-74 288.5,-74 288.5,-55 430.5,-55 430.5,-74"/>
<text text-anchor="middle" x="359.5" y="-62" font-family="Helvetica,sans-Serif" font-size="10.00">ARSessionAsyncActions.h</text>
</a>
</g>
</g>
<!-- Node1&#45;&gt;Node4 -->
<g id="edge3_Node000001_Node000004" class="edge">
<title>Node1&#45;&gt;Node4</title>
<g id="a_edge3_Node000001_Node000004"><a xlink:title=" ">
<path fill="none" stroke="#63b8ff" d="M302.62,-104.15C316.71,-94.57 334.79,-82.29 346.74,-74.17"/>
<polygon fill="#63b8ff" stroke="#63b8ff" points="300.34,-101.47 294.03,-109.98 304.27,-107.26 300.34,-101.47"/>
</a>
</g>
</g>
<!-- Node6 -->
<g id="Node000006" class="node">
<title>Node6</title>
<g id="a_Node000006"><a xlink:href="ARSessionSubsystem_8cpp_source.html" target="_top" xlink:title=" ">
<polygon fill="white" stroke="#666666" points="590.5,-74 448.5,-74 448.5,-55 590.5,-55 590.5,-74"/>
<text text-anchor="middle" x="519.5" y="-62" font-family="Helvetica,sans-Serif" font-size="10.00">ARSessionSubsystem.cpp</text>
</a>
</g>
</g>
<!-- Node1&#45;&gt;Node6 -->
<g id="edge5_Node000001_Node000006" class="edge">
<title>Node1&#45;&gt;Node6</title>
<g id="a_edge5_Node000001_Node000006"><a xlink:title=" ">
<path fill="none" stroke="#63b8ff" d="M329.76,-107.75C374.36,-97.82 439.76,-83.26 480.96,-74.08"/>
<polygon fill="#63b8ff" stroke="#63b8ff" points="328.74,-104.39 319.74,-109.98 330.26,-111.23 328.74,-104.39"/>
</a>
</g>
</g>
<!-- Node5 -->
<g id="Node000005" class="node">
<title>Node5</title>
<g id="a_Node000005"><a xlink:href="ARSessionAsyncActions_8cpp_source.html" target="_top" xlink:title=" ">
<polygon fill="white" stroke="#666666" points="436,-19 283,-19 283,0 436,0 436,-19"/>
<text text-anchor="middle" x="359.5" y="-7" font-family="Helvetica,sans-Serif" font-size="10.00">ARSessionAsyncActions.cpp</text>
</a>
</g>
</g>
<!-- Node4&#45;&gt;Node5 -->
<g id="edge4_Node000004_Node000005" class="edge">
<title>Node4&#45;&gt;Node5</title>
<g id="a_edge4_Node000004_Node000005"><a xlink:title=" ">
<path fill="none" stroke="#63b8ff" d="M359.5,-44.66C359.5,-35.93 359.5,-25.99 359.5,-19.09"/>
<polygon fill="#63b8ff" stroke="#63b8ff" points="356,-44.75 359.5,-54.75 363,-44.75 356,-44.75"/>
</a>
</g>
</g>
</g>
</svg>
