<?xml version="1.0" encoding="UTF-8" standalone="no"?>
<!DOCTYPE svg PUBLIC "-//W3C//DTD SVG 1.1//EN"
 "http://www.w3.org/Graphics/SVG/1.1/DTD/svg11.dtd">
<!-- Generated by graphviz version 2.43.0 (0)
 -->
<!-- Title: ARSessionAsyncActions.h Pages: 1 -->
<svg width="1088pt" height="269pt"
 viewBox="0.00 0.00 1087.50 269.00" xmlns="http://www.w3.org/2000/svg" xmlns:xlink="http://www.w3.org/1999/xlink">
<g id="graph0" class="graph" transform="scale(1 1) rotate(0) translate(4 265)">
<title>ARSessionAsyncActions.h</title>
<!-- Node1 -->
<g id="Node000001" class="node">
<title>Node1</title>
<g id="a_Node000001"><a xlink:title="Blueprint async session action nodes with success/failure exec pins.">
<polygon fill="#999999" stroke="#666666" points="499,-261 357,-261 357,-242 499,-242 499,-261"/>
<text text-anchor="middle" x="428" y="-249" font-family="Helvetica,sans-Serif" font-size="10.00">ARSessionAsyncActions.h</text>
</a>
</g>
</g>
<!-- Node2 -->
<g id="Node000002" class="node">
<title>Node2</title>
<g id="a_Node000002"><a xlink:title=" ">
<polygon fill="#e0e0e0" stroke="#999999" points="88,-19 0,-19 0,0 88,0 88,-19"/>
<text text-anchor="middle" x="44" y="-7" font-family="Helvetica,sans-Serif" font-size="10.00">CoreMinimal.h</text>
</a>
</g>
</g>
<!-- Node1&#45;&gt;Node2 -->
<g id="edge1_Node000001_Node000002" class="edge">
<title>Node1&#45;&gt;Node2</title>
<g id="a_edge1_Node000001_Node000002"><a xlink:title=" ">
<path fill="none" stroke="#63b8ff" d="M375.24,-241.98C282.33,-225.9 95.23,-188.28 52,-140 24.66,-109.47 32.14,-56.93 38.76,-29.08"/>
<polygon fill="#63b8ff" stroke="#63b8ff" points="42.22,-29.66 41.35,-19.1 35.45,-27.9 42.22,-29.66"/>
</a>
</g>
</g>
<!-- Node3 -->
<g id="Node000003" class="node">
<title>Node3</title>
<g id="a_Node000003"><a xlink:href="ARSessionSubsystem_8h.html" target="_top" xlink:title="Session subsystem for Steam/LAN/local multiplayer flow.">
<polygon fill="white" stroke="#666666" points="412.5,-200.5 281.5,-200.5 281.5,-181.5 412.5,-181.5 412.5,-200.5"/>
<text text-anchor="middle" x="347" y="-188.5" font-family="Helvetica,sans-Serif" font-size="10.00">ARSessionSubsystem.h</text>
</a>
</g>
</g>
<!-- Node1&#45;&gt;Node3 -->
<g id="edge2_Node000001_Node000003" class="edge">
<title>Node1&#45;&gt;Node3</title>
<g id="a_edge2_Node000001_Node000003"><a xlink:title=" ">
<path fill="none" stroke="#63b8ff" d="M416.05,-241.87C403.25,-232.62 382.7,-217.78 367.35,-206.69"/>
<polygon fill="#63b8ff" stroke="#63b8ff" points="369.16,-203.68 359,-200.67 365.06,-209.36 369.16,-203.68"/>
</a>
</g>
</g>
<!-- Node14 -->
<g id="Node000014" class="node">
<title>Node14</title>
<g id="a_Node000014"><a xlink:title=" ">
<polygon fill="#e0e0e0" stroke="#999999" points="589,-206 431,-206 431,-176 589,-176 589,-206"/>
<text text-anchor="start" x="439" y="-194" font-family="Helvetica,sans-Serif" font-size="10.00">Kismet/BlueprintAsyncAction</text>
<text text-anchor="middle" x="510" y="-183" font-family="Helvetica,sans-Serif" font-size="10.00">Base.h</text>
</a>
</g>
</g>
<!-- Node1&#45;&gt;Node14 -->
<g id="edge16_Node000001_Node000014" class="edge">
<title>Node1&#45;&gt;Node14</title>
<g id="a_edge16_Node000001_Node000014"><a xlink:title=" ">
<path fill="none" stroke="#63b8ff" d="M440.1,-241.87C451.02,-234.08 467.51,-222.32 481.72,-212.17"/>
<polygon fill="#63b8ff" stroke="#63b8ff" points="484.11,-214.77 490.22,-206.11 480.04,-209.07 484.11,-214.77"/>
</a>
</g>
</g>
<!-- Node15 -->
<g id="Node000015" class="node">
<title>Node15</title>
<g id="a_Node000015"><a xlink:title=" ">
<polygon fill="#e0e0e0" stroke="#999999" points="801,-200.5 607,-200.5 607,-181.5 801,-181.5 801,-200.5"/>
<text text-anchor="middle" x="704" y="-188.5" font-family="Helvetica,sans-Serif" font-size="10.00">ARSessionAsyncActions.generated.h</text>
</a>
</g>
</g>
<!-- Node1&#45;&gt;Node15 -->
<g id="edge17_Node000001_Node000015" class="edge">
<title>Node1&#45;&gt;Node15</title>
<g id="a_edge17_Node000001_Node000015"><a xlink:title=" ">
<path fill="none" stroke="#63b8ff" d="M468.13,-241.99C517.29,-231.57 600.59,-213.92 653.9,-202.62"/>
<polygon fill="#63b8ff" stroke="#63b8ff" points="654.76,-206.01 663.82,-200.52 653.31,-199.17 654.76,-206.01"/>
</a>
</g>
</g>
<!-- Node3&#45;&gt;Node2 -->
<g id="edge3_Node000003_Node000002" class="edge">
<title>Node3&#45;&gt;Node2</title>
<g id="a_edge3_Node000003_Node000002"><a xlink:title=" ">
<path fill="none" stroke="#63b8ff" d="M281.46,-186.05C210.66,-180.42 104.05,-167.54 75,-140 44.48,-111.06 41.68,-57.85 42.62,-29.48"/>
<polygon fill="#63b8ff" stroke="#63b8ff" points="46.12,-29.47 43.16,-19.3 39.13,-29.1 46.12,-29.47"/>
</a>
</g>
</g>
<!-- Node4 -->
<g id="Node000004" class="node">
<title>Node4</title>
<g id="a_Node000004"><a xlink:href="ARSaveTypes_8h.html" target="_top" xlink:title="ARSaveTypes header for Alien Ramen.">
<polygon fill="white" stroke="#666666" points="175.5,-134.5 84.5,-134.5 84.5,-115.5 175.5,-115.5 175.5,-134.5"/>
<text text-anchor="middle" x="130" y="-122.5" font-family="Helvetica,sans-Serif" font-size="10.00">ARSaveTypes.h</text>
</a>
</g>
</g>
<!-- Node3&#45;&gt;Node4 -->
<g id="edge4_Node000003_Node000004" class="edge">
<title>Node3&#45;&gt;Node4</title>
<g id="a_edge4_Node000003_Node000004"><a xlink:title=" ">
<path fill="none" stroke="#63b8ff" d="M317.73,-181.37C279.29,-170.03 211.65,-150.08 168.92,-137.48"/>
<polygon fill="#63b8ff" stroke="#63b8ff" points="169.73,-134.07 159.15,-134.6 167.75,-140.78 169.73,-134.07"/>
</a>
</g>
</g>
<!-- Node9 -->
<g id="Node000009" class="node">
<title>Node9</title>
<g id="a_Node000009"><a xlink:title=" ">
<polygon fill="#e0e0e0" stroke="#999999" points="340,-134.5 194,-134.5 194,-115.5 340,-115.5 340,-134.5"/>
<text text-anchor="middle" x="267" y="-122.5" font-family="Helvetica,sans-Serif" font-size="10.00">BlueprintDataDefinitions.h</text>
</a>
</g>
</g>
<!-- Node3&#45;&gt;Node9 -->
<g id="edge11_Node000003_Node000009" class="edge">
<title>Node3&#45;&gt;Node9</title>
<g id="a_edge11_Node000003_Node000009"><a xlink:title=" ">
<path fill="none" stroke="#63b8ff" d="M336.21,-181.37C323.33,-171.06 301.56,-153.65 285.87,-141.09"/>
<polygon fill="#63b8ff" stroke="#63b8ff" points="287.87,-138.21 277.87,-134.7 283.5,-143.68 287.87,-138.21"/>
</a>
</g>
</g>
<!-- Node10 -->
<g id="Node000010" class="node">
<title>Node10</title>
<g id="a_Node000010"><a xlink:title=" ">
<polygon fill="#e0e0e0" stroke="#999999" points="495.5,-140 358.5,-140 358.5,-110 495.5,-110 495.5,-140"/>
<text text-anchor="start" x="366.5" y="-128" font-family="Helvetica,sans-Serif" font-size="10.00">Interfaces/OnlineSession</text>
<text text-anchor="middle" x="427" y="-117" font-family="Helvetica,sans-Serif" font-size="10.00">Interface.h</text>
</a>
</g>
</g>
<!-- Node3&#45;&gt;Node10 -->
<g id="edge12_Node000003_Node000010" class="edge">
<title>Node3&#45;&gt;Node10</title>
<g id="a_edge12_Node000003_Node000010"><a xlink:title=" ">
<path fill="none" stroke="#63b8ff" d="M357.79,-181.37C368.94,-172.44 386.77,-158.19 401.53,-146.38"/>
<polygon fill="#63b8ff" stroke="#63b8ff" points="403.73,-149.1 409.36,-140.12 399.36,-143.63 403.73,-149.1"/>
</a>
</g>
</g>
<!-- Node11 -->
<g id="Node000011" class="node">
<title>Node11</title>
<g id="a_Node000011"><a xlink:title=" ">
<polygon fill="#e0e0e0" stroke="#999999" points="648,-134.5 514,-134.5 514,-115.5 648,-115.5 648,-134.5"/>
<text text-anchor="middle" x="581" y="-122.5" font-family="Helvetica,sans-Serif" font-size="10.00">OnlineSessionSettings.h</text>
</a>
</g>
</g>
<!-- Node3&#45;&gt;Node11 -->
<g id="edge13_Node000003_Node000011" class="edge">
<title>Node3&#45;&gt;Node11</title>
<g id="a_edge13_Node000003_Node000011"><a xlink:title=" ">
<path fill="none" stroke="#63b8ff" d="M378.56,-181.37C420.28,-169.96 493.88,-149.83 539.91,-137.24"/>
<polygon fill="#63b8ff" stroke="#63b8ff" points="540.85,-140.61 549.57,-134.6 539,-133.86 540.85,-140.61"/>
</a>
</g>
</g>
<!-- Node12 -->
<g id="Node000012" class="node">
<title>Node12</title>
<g id="a_Node000012"><a xlink:title=" ">
<polygon fill="#e0e0e0" stroke="#999999" points="878,-134.5 666,-134.5 666,-115.5 878,-115.5 878,-134.5"/>
<text text-anchor="middle" x="772" y="-122.5" font-family="Helvetica,sans-Serif" font-size="10.00">Subsystems/GameInstanceSubsystem.h</text>
</a>
</g>
</g>
<!-- Node3&#45;&gt;Node12 -->
<g id="edge14_Node000003_Node000012" class="edge">
<title>Node3&#45;&gt;Node12</title>
<g id="a_edge14_Node000003_Node000012"><a xlink:title=" ">
<path fill="none" stroke="#63b8ff" d="M390.97,-181.47C401.14,-179.58 411.94,-177.66 422,-176 516.24,-160.48 625.22,-145.36 696.21,-135.88"/>
<polygon fill="#63b8ff" stroke="#63b8ff" points="696.95,-139.31 706.4,-134.52 696.02,-132.37 696.95,-139.31"/>
</a>
</g>
</g>
<!-- Node13 -->
<g id="Node000013" class="node">
<title>Node13</title>
<g id="a_Node000013"><a xlink:title=" ">
<polygon fill="#e0e0e0" stroke="#999999" points="1079.5,-134.5 896.5,-134.5 896.5,-115.5 1079.5,-115.5 1079.5,-134.5"/>
<text text-anchor="middle" x="988" y="-122.5" font-family="Helvetica,sans-Serif" font-size="10.00">ARSessionSubsystem.generated.h</text>
</a>
</g>
</g>
<!-- Node3&#45;&gt;Node13 -->
<g id="edge15_Node000003_Node000013" class="edge">
<title>Node3&#45;&gt;Node13</title>
<g id="a_edge15_Node000003_Node000013"><a xlink:title=" ">
<path fill="none" stroke="#63b8ff" d="M388.14,-181.5C399.1,-179.46 410.97,-177.45 422,-176 627.51,-148.94 680.91,-162.24 887,-140 897.91,-138.82 909.47,-137.39 920.71,-135.9"/>
<polygon fill="#63b8ff" stroke="#63b8ff" points="921.48,-139.33 930.92,-134.53 920.54,-132.4 921.48,-139.33"/>
</a>
</g>
</g>
<!-- Node4&#45;&gt;Node2 -->
<g id="edge5_Node000004_Node000002" class="edge">
<title>Node4&#45;&gt;Node2</title>
<g id="a_edge5_Node000004_Node000002"><a xlink:title=" ">
<path fill="none" stroke="#63b8ff" d="M120.5,-115.35C110.31,-105.79 93.98,-89.68 82,-74 70.82,-59.35 60.24,-41.18 53.09,-28.04"/>
<polygon fill="#63b8ff" stroke="#63b8ff" points="56.13,-26.3 48.35,-19.11 49.95,-29.58 56.13,-26.3"/>
</a>
</g>
</g>
<!-- Node5 -->
<g id="Node000005" class="node">
<title>Node5</title>
<g id="a_Node000005"><a xlink:title=" ">
<polygon fill="#e0e0e0" stroke="#999999" points="230.5,-74 91.5,-74 91.5,-55 230.5,-55 230.5,-74"/>
<text text-anchor="middle" x="161" y="-62" font-family="Helvetica,sans-Serif" font-size="10.00">GameplayTagContainer.h</text>
</a>
</g>
</g>
<!-- Node4&#45;&gt;Node5 -->
<g id="edge6_Node000004_Node000005" class="edge">
<title>Node4&#45;&gt;Node5</title>
<g id="a_edge6_Node000004_Node000005"><a xlink:title=" ">
<path fill="none" stroke="#63b8ff" d="M134.57,-115.37C139.06,-106.9 146.03,-93.74 151.69,-83.07"/>
<polygon fill="#63b8ff" stroke="#63b8ff" points="154.82,-84.64 156.41,-74.17 148.63,-81.36 154.82,-84.64"/>
</a>
</g>
</g>
<!-- Node6 -->
<g id="Node000006" class="node">
<title>Node6</title>
<g id="a_Node000006"><a xlink:href="ARPlayerTypes_8h.html" target="_top" xlink:title="Shared player&#45;facing enum types for Alien Ramen gameplay/save/runtime APIs.">
<polygon fill="white" stroke="#666666" points="347,-74 249,-74 249,-55 347,-55 347,-74"/>
<text text-anchor="middle" x="298" y="-62" font-family="Helvetica,sans-Serif" font-size="10.00">ARPlayerTypes.h</text>
</a>
</g>
</g>
<!-- Node4&#45;&gt;Node6 -->
<g id="edge7_Node000004_Node000006" class="edge">
<title>Node4&#45;&gt;Node6</title>
<g id="a_edge7_Node000004_Node000006"><a xlink:title=" ">
<path fill="none" stroke="#63b8ff" d="M154.43,-115.49C183.29,-105.44 231.5,-88.66 264,-77.34"/>
<polygon fill="#63b8ff" stroke="#63b8ff" points="265.25,-80.61 273.54,-74.02 262.95,-74 265.25,-80.61"/>
</a>
</g>
</g>
<!-- Node8 -->
<g id="Node000008" class="node">
<title>Node8</title>
<g id="a_Node000008"><a xlink:title=" ">
<polygon fill="#e0e0e0" stroke="#999999" points="508.5,-74 365.5,-74 365.5,-55 508.5,-55 508.5,-74"/>
<text text-anchor="middle" x="437" y="-62" font-family="Helvetica,sans-Serif" font-size="10.00">ARSaveTypes.generated.h</text>
</a>
</g>
</g>
<!-- Node4&#45;&gt;Node8 -->
<g id="edge10_Node000004_Node000008" class="edge">
<title>Node4&#45;&gt;Node8</title>
<g id="a_edge10_Node000004_Node000008"><a xlink:title=" ">
<path fill="none" stroke="#63b8ff" d="M161.9,-115.45C169.45,-113.55 177.49,-111.62 185,-110 248.11,-96.41 320.77,-83.91 371.8,-75.64"/>
<polygon fill="#63b8ff" stroke="#63b8ff" points="372.4,-79.09 381.71,-74.05 371.28,-72.18 372.4,-79.09"/>
</a>
</g>
</g>
<!-- Node6&#45;&gt;Node2 -->
<g id="edge8_Node000006_Node000002" class="edge">
<title>Node6&#45;&gt;Node2</title>
<g id="a_edge8_Node000006_Node000002"><a xlink:title=" ">
<path fill="none" stroke="#63b8ff" d="M257.19,-54.98C213.07,-45.78 142.67,-31.09 94.95,-21.13"/>
<polygon fill="#63b8ff" stroke="#63b8ff" points="95.63,-17.7 85.13,-19.08 94.2,-24.55 95.63,-17.7"/>
</a>
</g>
</g>
<!-- Node7 -->
<g id="Node000007" class="node">
<title>Node7</title>
<g id="a_Node000007"><a xlink:title=" ">
<polygon fill="#e0e0e0" stroke="#999999" points="373,-19 223,-19 223,0 373,0 373,-19"/>
<text text-anchor="middle" x="298" y="-7" font-family="Helvetica,sans-Serif" font-size="10.00">ARPlayerTypes.generated.h</text>
</a>
</g>
</g>
<!-- Node6&#45;&gt;Node7 -->
<g id="edge9_Node000006_Node000007" class="edge">
<title>Node6&#45;&gt;Node7</title>
<g id="a_edge9_Node000006_Node000007"><a xlink:title=" ">
<path fill="none" stroke="#63b8ff" d="M298,-54.75C298,-47.8 298,-37.85 298,-29.13"/>
<polygon fill="#63b8ff" stroke="#63b8ff" points="301.5,-29.09 298,-19.09 294.5,-29.09 301.5,-29.09"/>
</a>
</g>
</g>
</g>
</svg>
