<?xml version="1.0" encoding="UTF-8" standalone="no"?>
<!DOCTYPE svg PUBLIC "-//W3C//DTD SVG 1.1//EN"
 "http://www.w3.org/Graphics/SVG/1.1/DTD/svg11.dtd">
<!-- Generated by graphviz version 2.43.0 (0)
 -->
<!-- Title: ARSessionSubsystem.h Pages: 1 -->
<svg width="1100pt" height="203pt"
 viewBox="0.00 0.00 1099.50 203.00" xmlns="http://www.w3.org/2000/svg" xmlns:xlink="http://www.w3.org/1999/xlink">
<g id="graph0" class="graph" transform="scale(1 1) rotate(0) translate(4 199)">
<title>ARSessionSubsystem.h</title>
<!-- Node1 -->
<g id="Node000001" class="node">
<title>Node1</title>
<g id="a_Node000001"><a xlink:title="Session subsystem for Steam/LAN/local multiplayer flow.">
<polygon fill="#999999" stroke="#666666" points="504.5,-195 373.5,-195 373.5,-176 504.5,-176 504.5,-195"/>
<text text-anchor="middle" x="439" y="-183" font-family="Helvetica,sans-Serif" font-size="10.00">ARSessionSubsystem.h</text>
</a>
</g>
</g>
<!-- Node2 -->
<g id="Node000002" class="node">
<title>Node2</title>
<g id="a_Node000002"><a xlink:title=" ">
<polygon fill="#e0e0e0" stroke="#999999" points="88,-19 0,-19 0,0 88,0 88,-19"/>
<text text-anchor="middle" x="44" y="-7" font-family="Helvetica,sans-Serif" font-size="10.00">CoreMinimal.h</text>
</a>
</g>
</g>
<!-- Node1&#45;&gt;Node2 -->
<g id="edge1_Node000001_Node000002" class="edge">
<title>Node1&#45;&gt;Node2</title>
<g id="a_edge1_Node000001_Node000002"><a xlink:title=" ">
<path fill="none" stroke="#63b8ff" d="M373.22,-183.07C284.56,-179.99 132.58,-170.32 87,-140 50.61,-115.79 44.34,-59.21 43.67,-29.49"/>
<polygon fill="#63b8ff" stroke="#63b8ff" points="47.17,-29.21 43.65,-19.22 40.17,-29.23 47.17,-29.21"/>
</a>
</g>
</g>
<!-- Node3 -->
<g id="Node000003" class="node">
<title>Node3</title>
<g id="a_Node000003"><a xlink:href="ARSaveTypes_8h.html" target="_top" xlink:title="ARSaveTypes header for Alien Ramen.">
<polygon fill="white" stroke="#666666" points="187.5,-134.5 96.5,-134.5 96.5,-115.5 187.5,-115.5 187.5,-134.5"/>
<text text-anchor="middle" x="142" y="-122.5" font-family="Helvetica,sans-Serif" font-size="10.00">ARSaveTypes.h</text>
</a>
</g>
</g>
<!-- Node1&#45;&gt;Node3 -->
<g id="edge2_Node000001_Node000003" class="edge">
<title>Node1&#45;&gt;Node3</title>
<g id="a_edge2_Node000001_Node000003"><a xlink:title=" ">
<path fill="none" stroke="#63b8ff" d="M386.87,-175.96C337.72,-167.66 262.1,-154.25 197,-140 192.66,-139.05 188.14,-138 183.64,-136.91"/>
<polygon fill="#63b8ff" stroke="#63b8ff" points="184.45,-133.51 173.9,-134.51 182.77,-140.31 184.45,-133.51"/>
</a>
</g>
</g>
<!-- Node8 -->
<g id="Node000008" class="node">
<title>Node8</title>
<g id="a_Node000008"><a xlink:title=" ">
<polygon fill="#e0e0e0" stroke="#999999" points="352,-134.5 206,-134.5 206,-115.5 352,-115.5 352,-134.5"/>
<text text-anchor="middle" x="279" y="-122.5" font-family="Helvetica,sans-Serif" font-size="10.00">BlueprintDataDefinitions.h</text>
</a>
</g>
</g>
<!-- Node1&#45;&gt;Node8 -->
<g id="edge9_Node000001_Node000008" class="edge">
<title>Node1&#45;&gt;Node8</title>
<g id="a_edge9_Node000001_Node000008"><a xlink:title=" ">
<path fill="none" stroke="#63b8ff" d="M415.73,-175.99C388.36,-165.99 342.73,-149.3 311.78,-137.99"/>
<polygon fill="#63b8ff" stroke="#63b8ff" points="312.89,-134.66 302.29,-134.52 310.48,-141.24 312.89,-134.66"/>
</a>
</g>
</g>
<!-- Node9 -->
<g id="Node000009" class="node">
<title>Node9</title>
<g id="a_Node000009"><a xlink:title=" ">
<polygon fill="#e0e0e0" stroke="#999999" points="507.5,-140 370.5,-140 370.5,-110 507.5,-110 507.5,-140"/>
<text text-anchor="start" x="378.5" y="-128" font-family="Helvetica,sans-Serif" font-size="10.00">Interfaces/OnlineSession</text>
<text text-anchor="middle" x="439" y="-117" font-family="Helvetica,sans-Serif" font-size="10.00">Interface.h</text>
</a>
</g>
</g>
<!-- Node1&#45;&gt;Node9 -->
<g id="edge10_Node000001_Node000009" class="edge">
<title>Node1&#45;&gt;Node9</title>
<g id="a_edge10_Node000001_Node000009"><a xlink:title=" ">
<path fill="none" stroke="#63b8ff" d="M439,-175.87C439,-169.11 439,-159.35 439,-150.26"/>
<polygon fill="#63b8ff" stroke="#63b8ff" points="442.5,-150.11 439,-140.11 435.5,-150.11 442.5,-150.11"/>
</a>
</g>
</g>
<!-- Node10 -->
<g id="Node000010" class="node">
<title>Node10</title>
<g id="a_Node000010"><a xlink:title=" ">
<polygon fill="#e0e0e0" stroke="#999999" points="660,-134.5 526,-134.5 526,-115.5 660,-115.5 660,-134.5"/>
<text text-anchor="middle" x="593" y="-122.5" font-family="Helvetica,sans-Serif" font-size="10.00">OnlineSessionSettings.h</text>
</a>
</g>
</g>
<!-- Node1&#45;&gt;Node10 -->
<g id="edge11_Node000001_Node000010" class="edge">
<title>Node1&#45;&gt;Node10</title>
<g id="a_edge11_Node000001_Node000010"><a xlink:title=" ">
<path fill="none" stroke="#63b8ff" d="M461.39,-175.99C487.62,-166.03 531.28,-149.45 561.06,-138.13"/>
<polygon fill="#63b8ff" stroke="#63b8ff" points="562.47,-141.34 570.58,-134.52 559.99,-134.8 562.47,-141.34"/>
</a>
</g>
</g>
<!-- Node11 -->
<g id="Node000011" class="node">
<title>Node11</title>
<g id="a_Node000011"><a xlink:title=" ">
<polygon fill="#e0e0e0" stroke="#999999" points="890,-134.5 678,-134.5 678,-115.5 890,-115.5 890,-134.5"/>
<text text-anchor="middle" x="784" y="-122.5" font-family="Helvetica,sans-Serif" font-size="10.00">Subsystems/GameInstanceSubsystem.h</text>
</a>
</g>
</g>
<!-- Node1&#45;&gt;Node11 -->
<g id="edge12_Node000001_Node000011" class="edge">
<title>Node1&#45;&gt;Node11</title>
<g id="a_edge12_Node000001_Node000011"><a xlink:title=" ">
<path fill="none" stroke="#63b8ff" d="M489.17,-175.99C551.38,-165.44 657.34,-147.48 723.85,-136.2"/>
<polygon fill="#63b8ff" stroke="#63b8ff" points="724.5,-139.64 733.77,-134.52 723.33,-132.74 724.5,-139.64"/>
</a>
</g>
</g>
<!-- Node12 -->
<g id="Node000012" class="node">
<title>Node12</title>
<g id="a_Node000012"><a xlink:title=" ">
<polygon fill="#e0e0e0" stroke="#999999" points="1091.5,-134.5 908.5,-134.5 908.5,-115.5 1091.5,-115.5 1091.5,-134.5"/>
<text text-anchor="middle" x="1000" y="-122.5" font-family="Helvetica,sans-Serif" font-size="10.00">ARSessionSubsystem.generated.h</text>
</a>
</g>
</g>
<!-- Node1&#45;&gt;Node12 -->
<g id="edge13_Node000001_Node000012" class="edge">
<title>Node1&#45;&gt;Node12</title>
<g id="a_edge13_Node000001_Node000012"><a xlink:title=" ">
<path fill="none" stroke="#63b8ff" d="M504.6,-179.01C593.93,-171.34 758.76,-156.5 899,-140 909.57,-138.76 920.74,-137.33 931.65,-135.86"/>
<polygon fill="#63b8ff" stroke="#63b8ff" points="932.13,-139.33 941.57,-134.52 931.19,-132.39 932.13,-139.33"/>
</a>
</g>
</g>
<!-- Node3&#45;&gt;Node2 -->
<g id="edge3_Node000003_Node000002" class="edge">
<title>Node3&#45;&gt;Node2</title>
<g id="a_edge3_Node000003_Node000002"><a xlink:title=" ">
<path fill="none" stroke="#63b8ff" d="M120.15,-115.36C102.3,-107.23 77.71,-93.4 63,-74 53.12,-60.96 48.35,-42.82 46.07,-29.26"/>
<polygon fill="#63b8ff" stroke="#63b8ff" points="49.51,-28.59 44.67,-19.17 42.57,-29.55 49.51,-28.59"/>
</a>
</g>
</g>
<!-- Node4 -->
<g id="Node000004" class="node">
<title>Node4</title>
<g id="a_Node000004"><a xlink:title=" ">
<polygon fill="#e0e0e0" stroke="#999999" points="211.5,-74 72.5,-74 72.5,-55 211.5,-55 211.5,-74"/>
<text text-anchor="middle" x="142" y="-62" font-family="Helvetica,sans-Serif" font-size="10.00">GameplayTagContainer.h</text>
</a>
</g>
</g>
<!-- Node3&#45;&gt;Node4 -->
<g id="edge4_Node000003_Node000004" class="edge">
<title>Node3&#45;&gt;Node4</title>
<g id="a_edge4_Node000003_Node000004"><a xlink:title=" ">
<path fill="none" stroke="#63b8ff" d="M142,-115.37C142,-107.25 142,-94.81 142,-84.39"/>
<polygon fill="#63b8ff" stroke="#63b8ff" points="145.5,-84.17 142,-74.17 138.5,-84.17 145.5,-84.17"/>
</a>
</g>
</g>
<!-- Node5 -->
<g id="Node000005" class="node">
<title>Node5</title>
<g id="a_Node000005"><a xlink:href="ARPlayerTypes_8h.html" target="_top" xlink:title="Shared player&#45;facing enum types for Alien Ramen gameplay/save/runtime APIs.">
<polygon fill="white" stroke="#666666" points="328,-74 230,-74 230,-55 328,-55 328,-74"/>
<text text-anchor="middle" x="279" y="-62" font-family="Helvetica,sans-Serif" font-size="10.00">ARPlayerTypes.h</text>
</a>
</g>
</g>
<!-- Node3&#45;&gt;Node5 -->
<g id="edge5_Node000003_Node000005" class="edge">
<title>Node3&#45;&gt;Node5</title>
<g id="a_edge5_Node000003_Node000005"><a xlink:title=" ">
<path fill="none" stroke="#63b8ff" d="M161.92,-115.49C184.95,-105.66 223.08,-89.38 249.54,-78.08"/>
<polygon fill="#63b8ff" stroke="#63b8ff" points="251.23,-81.16 259.05,-74.02 248.48,-74.72 251.23,-81.16"/>
</a>
</g>
</g>
<!-- Node7 -->
<g id="Node000007" class="node">
<title>Node7</title>
<g id="a_Node000007"><a xlink:title=" ">
<polygon fill="#e0e0e0" stroke="#999999" points="489.5,-74 346.5,-74 346.5,-55 489.5,-55 489.5,-74"/>
<text text-anchor="middle" x="418" y="-62" font-family="Helvetica,sans-Serif" font-size="10.00">ARSaveTypes.generated.h</text>
</a>
</g>
</g>
<!-- Node3&#45;&gt;Node7 -->
<g id="edge8_Node000003_Node000007" class="edge">
<title>Node3&#45;&gt;Node7</title>
<g id="a_edge8_Node000003_Node000007"><a xlink:title=" ">
<path fill="none" stroke="#63b8ff" d="M174.51,-115.44C181.89,-113.57 189.7,-111.66 197,-110 252.94,-97.26 317.27,-84.52 362.05,-75.96"/>
<polygon fill="#63b8ff" stroke="#63b8ff" points="362.98,-79.34 372.14,-74.03 361.67,-72.47 362.98,-79.34"/>
</a>
</g>
</g>
<!-- Node5&#45;&gt;Node2 -->
<g id="edge6_Node000005_Node000002" class="edge">
<title>Node5&#45;&gt;Node2</title>
<g id="a_edge6_Node000005_Node000002"><a xlink:title=" ">
<path fill="none" stroke="#63b8ff" d="M241.24,-54.98C200.68,-45.84 136.11,-31.27 91.97,-21.32"/>
<polygon fill="#63b8ff" stroke="#63b8ff" points="92.58,-17.87 82.05,-19.08 91.04,-24.7 92.58,-17.87"/>
</a>
</g>
</g>
<!-- Node6 -->
<g id="Node000006" class="node">
<title>Node6</title>
<g id="a_Node000006"><a xlink:title=" ">
<polygon fill="#e0e0e0" stroke="#999999" points="354,-19 204,-19 204,0 354,0 354,-19"/>
<text text-anchor="middle" x="279" y="-7" font-family="Helvetica,sans-Serif" font-size="10.00">ARPlayerTypes.generated.h</text>
</a>
</g>
</g>
<!-- Node5&#45;&gt;Node6 -->
<g id="edge7_Node000005_Node000006" class="edge">
<title>Node5&#45;&gt;Node6</title>
<g id="a_edge7_Node000005_Node000006"><a xlink:title=" ">
<path fill="none" stroke="#63b8ff" d="M279,-54.75C279,-47.8 279,-37.85 279,-29.13"/>
<polygon fill="#63b8ff" stroke="#63b8ff" points="282.5,-29.09 279,-19.09 275.5,-29.09 282.5,-29.09"/>
</a>
</g>
</g>
</g>
</svg>
