<?xml version="1.0" encoding="UTF-8" standalone="no"?>
<!DOCTYPE svg PUBLIC "-//W3C//DTD SVG 1.1//EN"
 "http://www.w3.org/Graphics/SVG/1.1/DTD/svg11.dtd">
<!-- Generated by graphviz version 2.43.0 (0)
 -->
<!-- Title: ARShopHUD.h Pages: 1 -->
<svg width="406pt" height="137pt"
 viewBox="0.00 0.00 406.00 137.00" xmlns="http://www.w3.org/2000/svg" xmlns:xlink="http://www.w3.org/1999/xlink">
<g id="graph0" class="graph" transform="scale(1 1) rotate(0) translate(4 133)">
<title>ARShopHUD.h</title>
<!-- Node1 -->
<g id="Node000001" class="node">
<title>Node1</title>
<g id="a_Node000001"><a xlink:title="Shop HUD base class for Alien Ramen.">
<polygon fill="#999999" stroke="#666666" points="202,-129 116,-129 116,-110 202,-110 202,-129"/>
<text text-anchor="middle" x="159" y="-117" font-family="Helvetica,sans-Serif" font-size="10.00">ARShopHUD.h</text>
</a>
</g>
</g>
<!-- Node2 -->
<g id="Node000002" class="node">
<title>Node2</title>
<g id="a_Node000002"><a xlink:title=" ">
<polygon fill="#e0e0e0" stroke="#999999" points="88,-19 0,-19 0,0 88,0 88,-19"/>
<text text-anchor="middle" x="44" y="-7" font-family="Helvetica,sans-Serif" font-size="10.00">CoreMinimal.h</text>
</a>
</g>
</g>
<!-- Node1&#45;&gt;Node2 -->
<g id="edge1_Node000001_Node000002" class="edge">
<title>Node1&#45;&gt;Node2</title>
<g id="a_edge1_Node000001_Node000002"><a xlink:title=" ">
<path fill="none" stroke="#63b8ff" d="M148.42,-109.88C137.76,-101.09 120.93,-86.94 107,-74 90.23,-58.42 71.88,-39.73 59.34,-26.67"/>
<polygon fill="#63b8ff" stroke="#63b8ff" points="61.78,-24.16 52.34,-19.35 56.72,-29 61.78,-24.16"/>
</a>
</g>
</g>
<!-- Node3 -->
<g id="Node000003" class="node">
<title>Node3</title>
<g id="a_Node000003"><a xlink:href="ARHUDBase_8h.html" target="_top" xlink:title="ARHUDBase header for Alien Ramen.">
<polygon fill="white" stroke="#666666" points="202,-74 116,-74 116,-55 202,-55 202,-74"/>
<text text-anchor="middle" x="159" y="-62" font-family="Helvetica,sans-Serif" font-size="10.00">ARHUDBase.h</text>
</a>
</g>
</g>
<!-- Node1&#45;&gt;Node3 -->
<g id="edge2_Node000001_Node000003" class="edge">
<title>Node1&#45;&gt;Node3</title>
<g id="a_edge2_Node000001_Node000003"><a xlink:title=" ">
<path fill="none" stroke="#63b8ff" d="M159,-109.75C159,-102.8 159,-92.85 159,-84.13"/>
<polygon fill="#63b8ff" stroke="#63b8ff" points="162.5,-84.09 159,-74.09 155.5,-84.09 162.5,-84.09"/>
</a>
</g>
</g>
<!-- Node6 -->
<g id="Node000006" class="node">
<title>Node6</title>
<g id="a_Node000006"><a xlink:title=" ">
<polygon fill="#e0e0e0" stroke="#999999" points="358,-74 220,-74 220,-55 358,-55 358,-74"/>
<text text-anchor="middle" x="289" y="-62" font-family="Helvetica,sans-Serif" font-size="10.00">ARShopHUD.generated.h</text>
</a>
</g>
</g>
<!-- Node1&#45;&gt;Node6 -->
<g id="edge6_Node000001_Node000006" class="edge">
<title>Node1&#45;&gt;Node6</title>
<g id="a_edge6_Node000001_Node000006"><a xlink:title=" ">
<path fill="none" stroke="#63b8ff" d="M179.89,-109.98C201.08,-101.34 234.13,-87.87 258.3,-78.02"/>
<polygon fill="#63b8ff" stroke="#63b8ff" points="259.79,-81.19 267.73,-74.17 257.15,-74.7 259.79,-81.19"/>
</a>
</g>
</g>
<!-- Node3&#45;&gt;Node2 -->
<g id="edge3_Node000003_Node000002" class="edge">
<title>Node3&#45;&gt;Node2</title>
<g id="a_edge3_Node000003_Node000002"><a xlink:title=" ">
<path fill="none" stroke="#63b8ff" d="M140.52,-54.98C122.02,-46.46 93.32,-33.23 72.02,-23.41"/>
<polygon fill="#63b8ff" stroke="#63b8ff" points="73.36,-20.18 62.81,-19.17 70.43,-26.53 73.36,-20.18"/>
</a>
</g>
</g>
<!-- Node4 -->
<g id="Node000004" class="node">
<title>Node4</title>
<g id="a_Node000004"><a xlink:title=" ">
<polygon fill="#e0e0e0" stroke="#999999" points="241.5,-19 106.5,-19 106.5,0 241.5,0 241.5,-19"/>
<text text-anchor="middle" x="174" y="-7" font-family="Helvetica,sans-Serif" font-size="10.00">GameFramework/HUD.h</text>
</a>
</g>
</g>
<!-- Node3&#45;&gt;Node4 -->
<g id="edge4_Node000003_Node000004" class="edge">
<title>Node3&#45;&gt;Node4</title>
<g id="a_edge4_Node000003_Node000004"><a xlink:title=" ">
<path fill="none" stroke="#63b8ff" d="M161.48,-54.75C163.46,-47.72 166.32,-37.62 168.81,-28.84"/>
<polygon fill="#63b8ff" stroke="#63b8ff" points="172.21,-29.66 171.57,-19.09 165.48,-27.76 172.21,-29.66"/>
</a>
</g>
</g>
<!-- Node5 -->
<g id="Node000005" class="node">
<title>Node5</title>
<g id="a_Node000005"><a xlink:title=" ">
<polygon fill="#e0e0e0" stroke="#999999" points="398,-19 260,-19 260,0 398,0 398,-19"/>
<text text-anchor="middle" x="329" y="-7" font-family="Helvetica,sans-Serif" font-size="10.00">ARHUDBase.generated.h</text>
</a>
</g>
</g>
<!-- Node3&#45;&gt;Node5 -->
<g id="edge5_Node000003_Node000005" class="edge">
<title>Node3&#45;&gt;Node5</title>
<g id="a_edge5_Node000003_Node000005"><a xlink:title=" ">
<path fill="none" stroke="#63b8ff" d="M186.31,-54.98C214.85,-46.09 259.83,-32.07 291.64,-22.15"/>
<polygon fill="#63b8ff" stroke="#63b8ff" points="292.97,-25.4 301.47,-19.08 290.88,-18.72 292.97,-25.4"/>
</a>
</g>
</g>
</g>
</svg>
