<?xml version="1.0" encoding="UTF-8" standalone="no"?>
<!DOCTYPE svg PUBLIC "-//W3C//DTD SVG 1.1//EN"
 "http://www.w3.org/Graphics/SVG/1.1/DTD/svg11.dtd">
<!-- Generated by graphviz version 2.43.0 (0)
 -->
<!-- Title: ARShopStateTreeAIComponent.h Pages: 1 -->
<svg width="696pt" height="137pt"
 viewBox="0.00 0.00 695.50 137.00" xmlns="http://www.w3.org/2000/svg" xmlns:xlink="http://www.w3.org/1999/xlink">
<g id="graph0" class="graph" transform="scale(1 1) rotate(0) translate(4 133)">
<title>ARShopStateTreeAIComponent.h</title>
<!-- Node1 -->
<g id="Node000001" class="node">
<title>Node1</title>
<g id="a_Node000001"><a xlink:title="Shop customer/speaker StateTree component exposing active runtime state tags.">
<polygon fill="#999999" stroke="#666666" points="263.5,-129 88.5,-129 88.5,-110 263.5,-110 263.5,-129"/>
<text text-anchor="middle" x="176" y="-117" font-family="Helvetica,sans-Serif" font-size="10.00">ARShopStateTreeAIComponent.h</text>
</a>
</g>
</g>
<!-- Node2 -->
<g id="Node000002" class="node">
<title>Node2</title>
<g id="a_Node000002"><a xlink:title=" ">
<polygon fill="#e0e0e0" stroke="#999999" points="88,-19 0,-19 0,0 88,0 88,-19"/>
<text text-anchor="middle" x="44" y="-7" font-family="Helvetica,sans-Serif" font-size="10.00">CoreMinimal.h</text>
</a>
</g>
</g>
<!-- Node1&#45;&gt;Node2 -->
<g id="edge1_Node000001_Node000002" class="edge">
<title>Node1&#45;&gt;Node2</title>
<g id="a_edge1_Node000001_Node000002"><a xlink:title=" ">
<path fill="none" stroke="#63b8ff" d="M153.38,-109.98C135.21,-102.4 109.73,-90.03 91,-74 75.74,-60.94 62.56,-42.04 54.07,-28.26"/>
<polygon fill="#63b8ff" stroke="#63b8ff" points="56.86,-26.1 48.76,-19.28 50.84,-29.67 56.86,-26.1"/>
</a>
</g>
</g>
<!-- Node3 -->
<g id="Node000003" class="node">
<title>Node3</title>
<g id="a_Node000003"><a xlink:href="ARStateTreeAIComponent_8h.html" target="_top" xlink:title="ARStateTreeAIComponent header for Alien Ramen.">
<polygon fill="white" stroke="#666666" points="251.5,-74 100.5,-74 100.5,-55 251.5,-55 251.5,-74"/>
<text text-anchor="middle" x="176" y="-62" font-family="Helvetica,sans-Serif" font-size="10.00">ARStateTreeAIComponent.h</text>
</a>
</g>
</g>
<!-- Node1&#45;&gt;Node3 -->
<g id="edge2_Node000001_Node000003" class="edge">
<title>Node1&#45;&gt;Node3</title>
<g id="a_edge2_Node000001_Node000003"><a xlink:title=" ">
<path fill="none" stroke="#63b8ff" d="M176,-109.75C176,-102.8 176,-92.85 176,-84.13"/>
<polygon fill="#63b8ff" stroke="#63b8ff" points="179.5,-84.09 176,-74.09 172.5,-84.09 179.5,-84.09"/>
</a>
</g>
</g>
<!-- Node7 -->
<g id="Node000007" class="node">
<title>Node7</title>
<g id="a_Node000007"><a xlink:title=" ">
<polygon fill="#e0e0e0" stroke="#999999" points="496.5,-74 269.5,-74 269.5,-55 496.5,-55 496.5,-74"/>
<text text-anchor="middle" x="383" y="-62" font-family="Helvetica,sans-Serif" font-size="10.00">ARShopStateTreeAIComponent.generated.h</text>
</a>
</g>
</g>
<!-- Node1&#45;&gt;Node7 -->
<g id="edge7_Node000001_Node000007" class="edge">
<title>Node1&#45;&gt;Node7</title>
<g id="a_edge7_Node000001_Node000007"><a xlink:title=" ">
<path fill="none" stroke="#63b8ff" d="M209.26,-109.98C244.61,-100.93 300.67,-86.58 339.51,-76.64"/>
<polygon fill="#63b8ff" stroke="#63b8ff" points="340.66,-79.95 349.48,-74.08 338.93,-73.17 340.66,-79.95"/>
</a>
</g>
</g>
<!-- Node3&#45;&gt;Node2 -->
<g id="edge3_Node000003_Node000002" class="edge">
<title>Node3&#45;&gt;Node2</title>
<g id="a_edge3_Node000003_Node000002"><a xlink:title=" ">
<path fill="none" stroke="#63b8ff" d="M154.79,-54.98C133.27,-46.34 99.72,-32.87 75.17,-23.02"/>
<polygon fill="#63b8ff" stroke="#63b8ff" points="76.18,-19.65 65.59,-19.17 73.57,-26.14 76.18,-19.65"/>
</a>
</g>
</g>
<!-- Node4 -->
<g id="Node000004" class="node">
<title>Node4</title>
<g id="a_Node000004"><a xlink:title=" ">
<polygon fill="#e0e0e0" stroke="#999999" points="245.5,-19 106.5,-19 106.5,0 245.5,0 245.5,-19"/>
<text text-anchor="middle" x="176" y="-7" font-family="Helvetica,sans-Serif" font-size="10.00">GameplayTagContainer.h</text>
</a>
</g>
</g>
<!-- Node3&#45;&gt;Node4 -->
<g id="edge4_Node000003_Node000004" class="edge">
<title>Node3&#45;&gt;Node4</title>
<g id="a_edge4_Node000003_Node000004"><a xlink:title=" ">
<path fill="none" stroke="#63b8ff" d="M176,-54.75C176,-47.8 176,-37.85 176,-29.13"/>
<polygon fill="#63b8ff" stroke="#63b8ff" points="179.5,-29.09 176,-19.09 172.5,-29.09 179.5,-29.09"/>
</a>
</g>
</g>
<!-- Node5 -->
<g id="Node000005" class="node">
<title>Node5</title>
<g id="a_Node000005"><a xlink:title=" ">
<polygon fill="#e0e0e0" stroke="#999999" points="466,-19 264,-19 264,0 466,0 466,-19"/>
<text text-anchor="middle" x="365" y="-7" font-family="Helvetica,sans-Serif" font-size="10.00">Components/StateTreeAIComponent.h</text>
</a>
</g>
</g>
<!-- Node3&#45;&gt;Node5 -->
<g id="edge5_Node000003_Node000005" class="edge">
<title>Node3&#45;&gt;Node5</title>
<g id="a_edge5_Node000003_Node000005"><a xlink:title=" ">
<path fill="none" stroke="#63b8ff" d="M206.37,-54.98C238.37,-46.01 288.96,-31.82 324.38,-21.89"/>
<polygon fill="#63b8ff" stroke="#63b8ff" points="325.71,-25.15 334.4,-19.08 323.82,-18.41 325.71,-25.15"/>
</a>
</g>
</g>
<!-- Node6 -->
<g id="Node000006" class="node">
<title>Node6</title>
<g id="a_Node000006"><a xlink:title=" ">
<polygon fill="#e0e0e0" stroke="#999999" points="687.5,-19 484.5,-19 484.5,0 687.5,0 687.5,-19"/>
<text text-anchor="middle" x="586" y="-7" font-family="Helvetica,sans-Serif" font-size="10.00">ARStateTreeAIComponent.generated.h</text>
</a>
</g>
</g>
<!-- Node3&#45;&gt;Node6 -->
<g id="edge6_Node000003_Node000006" class="edge">
<title>Node3&#45;&gt;Node6</title>
<g id="a_edge6_Node000003_Node000006"><a xlink:title=" ">
<path fill="none" stroke="#63b8ff" d="M241.87,-54.98C314.99,-45.53 432.81,-30.3 509.83,-20.35"/>
<polygon fill="#63b8ff" stroke="#63b8ff" points="510.48,-23.79 519.95,-19.04 509.58,-16.85 510.48,-23.79"/>
</a>
</g>
</g>
</g>
</svg>
