<?xml version="1.0" encoding="UTF-8" standalone="no"?>
<!DOCTYPE svg PUBLIC "-//W3C//DTD SVG 1.1//EN"
 "http://www.w3.org/Graphics/SVG/1.1/DTD/svg11.dtd">
<!-- Generated by graphviz version 2.43.0 (0)
 -->
<!-- Title: ARStateTreeAIComponent.h Pages: 1 -->
<svg width="696pt" height="82pt"
 viewBox="0.00 0.00 695.50 82.00" xmlns="http://www.w3.org/2000/svg" xmlns:xlink="http://www.w3.org/1999/xlink">
<g id="graph0" class="graph" transform="scale(1 1) rotate(0) translate(4 78)">
<title>ARStateTreeAIComponent.h</title>
<!-- Node1 -->
<g id="Node000001" class="node">
<title>Node1</title>
<g id="a_Node000001"><a xlink:title="ARStateTreeAIComponent header for Alien Ramen.">
<polygon fill="#999999" stroke="#666666" points="345.5,-74 194.5,-74 194.5,-55 345.5,-55 345.5,-74"/>
<text text-anchor="middle" x="270" y="-62" font-family="Helvetica,sans-Serif" font-size="10.00">ARStateTreeAIComponent.h</text>
</a>
</g>
</g>
<!-- Node2 -->
<g id="Node000002" class="node">
<title>Node2</title>
<g id="a_Node000002"><a xlink:title=" ">
<polygon fill="#e0e0e0" stroke="#999999" points="88,-19 0,-19 0,0 88,0 88,-19"/>
<text text-anchor="middle" x="44" y="-7" font-family="Helvetica,sans-Serif" font-size="10.00">CoreMinimal.h</text>
</a>
</g>
</g>
<!-- Node1&#45;&gt;Node2 -->
<g id="edge1_Node000001_Node000002" class="edge">
<title>Node1&#45;&gt;Node2</title>
<g id="a_edge1_Node000001_Node000002"><a xlink:title=" ">
<path fill="none" stroke="#63b8ff" d="M233.69,-54.98C194.76,-45.86 132.84,-31.33 90.4,-21.38"/>
<polygon fill="#63b8ff" stroke="#63b8ff" points="91.13,-17.96 80.6,-19.08 89.53,-24.77 91.13,-17.96"/>
</a>
</g>
</g>
<!-- Node3 -->
<g id="Node000003" class="node">
<title>Node3</title>
<g id="a_Node000003"><a xlink:title=" ">
<polygon fill="#e0e0e0" stroke="#999999" points="245.5,-19 106.5,-19 106.5,0 245.5,0 245.5,-19"/>
<text text-anchor="middle" x="176" y="-7" font-family="Helvetica,sans-Serif" font-size="10.00">GameplayTagContainer.h</text>
</a>
</g>
</g>
<!-- Node1&#45;&gt;Node3 -->
<g id="edge2_Node000001_Node000003" class="edge">
<title>Node1&#45;&gt;Node3</title>
<g id="a_edge2_Node000001_Node000003"><a xlink:title=" ">
<path fill="none" stroke="#63b8ff" d="M254.9,-54.98C240.18,-46.69 217.58,-33.94 200.33,-24.22"/>
<polygon fill="#63b8ff" stroke="#63b8ff" points="201.81,-21.03 191.38,-19.17 198.37,-27.13 201.81,-21.03"/>
</a>
</g>
</g>
<!-- Node4 -->
<g id="Node000004" class="node">
<title>Node4</title>
<g id="a_Node000004"><a xlink:title=" ">
<polygon fill="#e0e0e0" stroke="#999999" points="466,-19 264,-19 264,0 466,0 466,-19"/>
<text text-anchor="middle" x="365" y="-7" font-family="Helvetica,sans-Serif" font-size="10.00">Components/StateTreeAIComponent.h</text>
</a>
</g>
</g>
<!-- Node1&#45;&gt;Node4 -->
<g id="edge3_Node000001_Node000004" class="edge">
<title>Node1&#45;&gt;Node4</title>
<g id="a_edge3_Node000001_Node000004"><a xlink:title=" ">
<path fill="none" stroke="#63b8ff" d="M285.26,-54.98C300.13,-46.69 322.98,-33.94 340.42,-24.22"/>
<polygon fill="#63b8ff" stroke="#63b8ff" points="342.43,-27.1 349.46,-19.17 339.02,-20.99 342.43,-27.1"/>
</a>
</g>
</g>
<!-- Node5 -->
<g id="Node000005" class="node">
<title>Node5</title>
<g id="a_Node000005"><a xlink:title=" ">
<polygon fill="#e0e0e0" stroke="#999999" points="687.5,-19 484.5,-19 484.5,0 687.5,0 687.5,-19"/>
<text text-anchor="middle" x="586" y="-7" font-family="Helvetica,sans-Serif" font-size="10.00">ARStateTreeAIComponent.generated.h</text>
</a>
</g>
</g>
<!-- Node1&#45;&gt;Node5 -->
<g id="edge4_Node000001_Node000005" class="edge">
<title>Node1&#45;&gt;Node5</title>
<g id="a_edge4_Node000001_Node000005"><a xlink:title=" ">
<path fill="none" stroke="#63b8ff" d="M320.77,-54.98C376.43,-45.65 465.71,-30.67 525.1,-20.71"/>
<polygon fill="#63b8ff" stroke="#63b8ff" points="525.81,-24.14 535.09,-19.04 524.65,-17.24 525.81,-24.14"/>
</a>
</g>
</g>
</g>
</svg>
