<?xml version="1.0" encoding="UTF-8" standalone="no"?>
<!DOCTYPE svg PUBLIC "-//W3C//DTD SVG 1.1//EN"
 "http://www.w3.org/Graphics/SVG/1.1/DTD/svg11.dtd">
<!-- Generated by graphviz version 2.43.0 (0)
 -->
<!-- Title: ARStateTreeAIComponent.h Pages: 1 -->
<svg width="330pt" height="82pt"
 viewBox="0.00 0.00 329.50 82.00" xmlns="http://www.w3.org/2000/svg" xmlns:xlink="http://www.w3.org/1999/xlink">
<g id="graph0" class="graph" transform="scale(1 1) rotate(0) translate(4 78)">
<title>ARStateTreeAIComponent.h</title>
<!-- Node1 -->
<g id="Node000001" class="node">
<title>Node1</title>
<g id="a_Node000001"><a xlink:title="ARStateTreeAIComponent header for Alien Ramen.">
<polygon fill="#999999" stroke="#666666" points="231,-74 80,-74 80,-55 231,-55 231,-74"/>
<text text-anchor="middle" x="155.5" y="-62" font-family="Helvetica,sans-Serif" font-size="10.00">ARStateTreeAIComponent.h</text>
</a>
</g>
</g>
<!-- Node2 -->
<g id="Node000002" class="node">
<title>Node2</title>
<g id="a_Node000002"><a xlink:href="AREnemyAIController_8cpp_source.html" target="_top" xlink:title=" ">
<polygon fill="white" stroke="#666666" points="141,-19 0,-19 0,0 141,0 141,-19"/>
<text text-anchor="middle" x="70.5" y="-7" font-family="Helvetica,sans-Serif" font-size="10.00">AREnemyAIController.cpp</text>
</a>
</g>
</g>
<!-- Node1&#45;&gt;Node2 -->
<g id="edge1_Node000001_Node000002" class="edge">
<title>Node1&#45;&gt;Node2</title>
<g id="a_edge1_Node000001_Node000002"><a xlink:title=" ">
<path fill="none" stroke="#63b8ff" d="M132.93,-49.42C117.5,-39.81 97.55,-27.37 84.41,-19.17"/>
<polygon fill="#63b8ff" stroke="#63b8ff" points="131.51,-52.66 141.84,-54.98 135.21,-46.72 131.51,-52.66"/>
</a>
</g>
</g>
<!-- Node3 -->
<g id="Node000003" class="node">
<title>Node3</title>
<g id="a_Node000003"><a xlink:href="ARStateTreeAIComponent_8cpp_source.html" target="_top" xlink:title=" ">
<polygon fill="white" stroke="#666666" points="321.5,-19 159.5,-19 159.5,0 321.5,0 321.5,-19"/>
<text text-anchor="middle" x="240.5" y="-7" font-family="Helvetica,sans-Serif" font-size="10.00">ARStateTreeAIComponent.cpp</text>
</a>
</g>
</g>
<!-- Node1&#45;&gt;Node3 -->
<g id="edge2_Node000001_Node000003" class="edge">
<title>Node1&#45;&gt;Node3</title>
<g id="a_edge2_Node000001_Node000003"><a xlink:title=" ">
<path fill="none" stroke="#63b8ff" d="M178.07,-49.42C193.5,-39.81 213.45,-27.37 226.59,-19.17"/>
<polygon fill="#63b8ff" stroke="#63b8ff" points="175.79,-46.72 169.16,-54.98 179.49,-52.66 175.79,-46.72"/>
</a>
</g>
</g>
</g>
</svg>
