<?xml version="1.0" encoding="UTF-8" standalone="no"?>
<!DOCTYPE svg PUBLIC "-//W3C//DTD SVG 1.1//EN"
 "http://www.w3.org/Graphics/SVG/1.1/DTD/svg11.dtd">
<!-- Generated by graphviz version 2.43.0 (0)
 -->
<!-- Title: ARStateTreeAIComponentSchema.h Pages: 1 -->
<svg width="390pt" height="82pt"
 viewBox="0.00 0.00 389.50 82.00" xmlns="http://www.w3.org/2000/svg" xmlns:xlink="http://www.w3.org/1999/xlink">
<g id="graph0" class="graph" transform="scale(1 1) rotate(0) translate(4 78)">
<title>ARStateTreeAIComponentSchema.h</title>
<!-- Node1 -->
<g id="Node000001" class="node">
<title>Node1</title>
<g id="a_Node000001"><a xlink:title="ARStateTreeAIComponentSchema header for Alien Ramen.">
<polygon fill="#999999" stroke="#666666" points="276,-74 86,-74 86,-55 276,-55 276,-74"/>
<text text-anchor="middle" x="181" y="-62" font-family="Helvetica,sans-Serif" font-size="10.00">ARStateTreeAIComponentSchema.h</text>
</a>
</g>
</g>
<!-- Node2 -->
<g id="Node000002" class="node">
<title>Node2</title>
<g id="a_Node000002"><a xlink:href="ARStateTreeAIComponent_8cpp_source.html" target="_top" xlink:title=" ">
<polygon fill="white" stroke="#666666" points="162,-19 0,-19 0,0 162,0 162,-19"/>
<text text-anchor="middle" x="81" y="-7" font-family="Helvetica,sans-Serif" font-size="10.00">ARStateTreeAIComponent.cpp</text>
</a>
</g>
</g>
<!-- Node1&#45;&gt;Node2 -->
<g id="edge1_Node000001_Node000002" class="edge">
<title>Node1&#45;&gt;Node2</title>
<g id="a_edge1_Node000001_Node000002"><a xlink:title=" ">
<path fill="none" stroke="#63b8ff" d="M155.97,-50.23C137.63,-40.51 113.26,-27.6 97.36,-19.17"/>
<polygon fill="#63b8ff" stroke="#63b8ff" points="154.46,-53.39 164.93,-54.98 157.74,-47.21 154.46,-53.39"/>
</a>
</g>
</g>
<!-- Node3 -->
<g id="Node000003" class="node">
<title>Node3</title>
<g id="a_Node000003"><a xlink:href="ARStateTreeAIComponentSchema_8cpp_source.html" target="_top" xlink:title=" ">
<polygon fill="white" stroke="#666666" points="381.5,-19 180.5,-19 180.5,0 381.5,0 381.5,-19"/>
<text text-anchor="middle" x="281" y="-7" font-family="Helvetica,sans-Serif" font-size="10.00">ARStateTreeAIComponentSchema.cpp</text>
</a>
</g>
</g>
<!-- Node1&#45;&gt;Node3 -->
<g id="edge2_Node000001_Node000003" class="edge">
<title>Node1&#45;&gt;Node3</title>
<g id="a_edge2_Node000001_Node000003"><a xlink:title=" ">
<path fill="none" stroke="#63b8ff" d="M206.03,-50.23C224.37,-40.51 248.74,-27.6 264.64,-19.17"/>
<polygon fill="#63b8ff" stroke="#63b8ff" points="204.26,-47.21 197.07,-54.98 207.54,-53.39 204.26,-47.21"/>
</a>
</g>
</g>
</g>
</svg>
