<?xml version="1.0" encoding="UTF-8" standalone="no"?>
<!DOCTYPE svg PUBLIC "-//W3C//DTD SVG 1.1//EN"
 "http://www.w3.org/Graphics/SVG/1.1/DTD/svg11.dtd">
<!-- Generated by graphviz version 2.43.0 (0)
 -->
<!-- Title: GameplayTagUtilities.h Pages: 1 -->
<svg width="613pt" height="93pt"
 viewBox="0.00 0.00 612.50 93.00" xmlns="http://www.w3.org/2000/svg" xmlns:xlink="http://www.w3.org/1999/xlink">
<g id="graph0" class="graph" transform="scale(1 1) rotate(0) translate(4 89)">
<title>GameplayTagUtilities.h</title>
<!-- Node1 -->
<g id="Node000001" class="node">
<title>Node1</title>
<g id="a_Node000001"><a xlink:title="GameplayTagUtilities header for Alien Ramen.">
<polygon fill="#999999" stroke="#666666" points="320.5,-85 189.5,-85 189.5,-66 320.5,-66 320.5,-85"/>
<text text-anchor="middle" x="255" y="-73" font-family="Helvetica,sans-Serif" font-size="10.00">GameplayTagUtilities.h</text>
</a>
</g>
</g>
<!-- Node2 -->
<g id="Node000002" class="node">
<title>Node2</title>
<g id="a_Node000002"><a xlink:title=" ">
<polygon fill="#e0e0e0" stroke="#999999" points="88,-24.5 0,-24.5 0,-5.5 88,-5.5 88,-24.5"/>
<text text-anchor="middle" x="44" y="-12.5" font-family="Helvetica,sans-Serif" font-size="10.00">CoreMinimal.h</text>
</a>
</g>
</g>
<!-- Node1&#45;&gt;Node2 -->
<g id="edge1_Node000001_Node000002" class="edge">
<title>Node1&#45;&gt;Node2</title>
<g id="a_edge1_Node000001_Node000002"><a xlink:title=" ">
<path fill="none" stroke="#63b8ff" d="M224.32,-65.99C187.44,-55.77 125.43,-38.58 84.61,-27.26"/>
<polygon fill="#63b8ff" stroke="#63b8ff" points="85.29,-23.82 74.72,-24.52 83.42,-30.56 85.29,-23.82"/>
</a>
</g>
</g>
<!-- Node3 -->
<g id="Node000003" class="node">
<title>Node3</title>
<g id="a_Node000003"><a xlink:title=" ">
<polygon fill="#e0e0e0" stroke="#999999" points="246,-30 106,-30 106,0 246,0 246,-30"/>
<text text-anchor="start" x="114" y="-18" font-family="Helvetica,sans-Serif" font-size="10.00">Kismet/BlueprintFunction</text>
<text text-anchor="middle" x="176" y="-7" font-family="Helvetica,sans-Serif" font-size="10.00">Library.h</text>
</a>
</g>
</g>
<!-- Node1&#45;&gt;Node3 -->
<g id="edge2_Node000001_Node000003" class="edge">
<title>Node1&#45;&gt;Node3</title>
<g id="a_edge2_Node000001_Node000003"><a xlink:title=" ">
<path fill="none" stroke="#63b8ff" d="M243.34,-65.87C232.82,-58.08 216.94,-46.32 203.24,-36.17"/>
<polygon fill="#63b8ff" stroke="#63b8ff" points="205.18,-33.25 195.06,-30.11 201.01,-38.88 205.18,-33.25"/>
</a>
</g>
</g>
<!-- Node4 -->
<g id="Node000004" class="node">
<title>Node4</title>
<g id="a_Node000004"><a xlink:title=" ">
<polygon fill="#e0e0e0" stroke="#999999" points="403.5,-24.5 264.5,-24.5 264.5,-5.5 403.5,-5.5 403.5,-24.5"/>
<text text-anchor="middle" x="334" y="-12.5" font-family="Helvetica,sans-Serif" font-size="10.00">GameplayTagContainer.h</text>
</a>
</g>
</g>
<!-- Node1&#45;&gt;Node4 -->
<g id="edge3_Node000001_Node000004" class="edge">
<title>Node1&#45;&gt;Node4</title>
<g id="a_edge3_Node000001_Node000004"><a xlink:title=" ">
<path fill="none" stroke="#63b8ff" d="M266.66,-65.87C279.14,-56.62 299.18,-41.78 314.16,-30.69"/>
<polygon fill="#63b8ff" stroke="#63b8ff" points="316.34,-33.43 322.3,-24.67 312.18,-27.81 316.34,-33.43"/>
</a>
</g>
</g>
<!-- Node5 -->
<g id="Node000005" class="node">
<title>Node5</title>
<g id="a_Node000005"><a xlink:title=" ">
<polygon fill="#e0e0e0" stroke="#999999" points="604.5,-24.5 421.5,-24.5 421.5,-5.5 604.5,-5.5 604.5,-24.5"/>
<text text-anchor="middle" x="513" y="-12.5" font-family="Helvetica,sans-Serif" font-size="10.00">GameplayTagUtilities.generated.h</text>
</a>
</g>
</g>
<!-- Node1&#45;&gt;Node5 -->
<g id="edge4_Node000001_Node000005" class="edge">
<title>Node1&#45;&gt;Node5</title>
<g id="a_edge4_Node000001_Node000005"><a xlink:title=" ">
<path fill="none" stroke="#63b8ff" d="M292.52,-65.99C338.28,-55.62 415.69,-38.07 465.55,-26.76"/>
<polygon fill="#63b8ff" stroke="#63b8ff" points="466.46,-30.14 475.44,-24.52 464.91,-23.31 466.46,-30.14"/>
</a>
</g>
</g>
</g>
</svg>
