<?xml version="1.0" encoding="UTF-8" standalone="no"?>
<!DOCTYPE svg PUBLIC "-//W3C//DTD SVG 1.1//EN"
 "http://www.w3.org/Graphics/SVG/1.1/DTD/svg11.dtd">
<!-- Generated by graphviz version 2.43.0 (0)
 -->
<!-- Title: StructSerializable.h Pages: 1 -->
<!--zoomable 192 -->

<svg id="main" version="1.1" xmlns="http://www.w3.org/2000/svg" xmlns:xlink="http://www.w3.org/1999/xlink" xml:space="preserve" onload="init(evt)">
<style type="text/css"><![CDATA[
.node, .edge {opacity: 0.7;}
.node.selected, .edge.selected {opacity: 1;}
.edge:hover path { stroke: red; }
.edge:hover polygon { stroke: red; fill: red; }
]]></style>

<defs>
  <circle id="rim" cx="0" cy="0" r="7"/>
  <circle id="rim2" cx="0" cy="0" r="3.5"/>
  <g id="zoomPlus">
    <use xlink:href="#rim" fill="#404040"><set attributeName="fill" to="#808080" begin="zoomplus.mouseover" end="zoomplus.mouseout"/></use>
    <path d="M-4,0h8M0,-4v8" fill="none" stroke="white" stroke-width="1.5" pointer-events="none"/>
  </g>
  <g id="zoomMin">
    <use xlink:href="#rim" fill="#404040"><set attributeName="fill" to="#808080" begin="zoomminus.mouseover" end="zoomminus.mouseout"/></use>
    <path d="M-4,0h8" fill="none" stroke="white" stroke-width="1.5" pointer-events="none"/>
  </g>
  <g id="arrowUp" transform="translate(30 24)">
    <use xlink:href="#rim"/>
    <path pointer-events="none" fill="none" stroke="white" stroke-width="1.5" d="M0,-3.0v7 M-2.5,-0.5L0,-3.0L2.5,-0.5"/>
  </g>
  <g id="arrowRight" transform="rotate(90) translate(36 -43)">
    <use xlink:href="#rim"/>
    <path pointer-events="none" fill="none" stroke="white" stroke-width="1.5" d="M0,-3.0v7 M-2.5,-0.5L0,-3.0L2.5,-0.5"/>
  </g>
  <g id="arrowDown" transform="rotate(180) translate(-30 -48)">
    <use xlink:href="#rim"/>
    <path pointer-events="none" fill="none" stroke="white" stroke-width="1.5" d="M0,-3.0v7 M-2.5,-0.5L0,-3.0L2.5,-0.5"/>
  </g>
  <g id="arrowLeft" transform="rotate(270) translate(-36 17)">
    <use xlink:href="#rim"/>
    <path pointer-events="none" fill="none" stroke="white" stroke-width="1.5" d="M0,-3.0v7 M-2.5,-0.5L0,-3.0L2.5,-0.5"/>
  </g>
  <g id="resetDef">
    <use xlink:href="#rim2" fill="#404040"><set attributeName="fill" to="#808080" begin="reset.mouseover" end="reset.mouseout"/></use>
  </g>
</defs>
<script type="application/ecmascript">
var viewWidth = 2555;
var viewHeight = 192;
var sectionId = 'dynsection-1';
</script>
<script type="application/ecmascript" xlink:href="svg.min.js"/>
<svg id="graph" class="graph">
<g id="viewport">
<title>StructSerializable.h</title>
<!-- Node1 -->
<g id="Node000001" class="node">
<title>Node1</title>
<g id="a_Node000001"><a xlink:title="StructSerializable header for Alien Ramen.">
<polygon fill="#999999" stroke="#666666" points="1540.5,-184 1429.5,-184 1429.5,-165 1540.5,-165 1540.5,-184"/>
<text text-anchor="middle" x="1485" y="-172" font-family="Helvetica,sans-Serif" font-size="10.00">StructSerializable.h</text>
</a>
</g>
</g>
<!-- Node2 -->
<g id="Node000002" class="node">
<title>Node2</title>
<g id="a_Node000002"><a xlink:href="ARGameStateBase_8h.html" target="_top" xlink:title="ARGameStateBase header for Alien Ramen.">
<polygon fill="white" stroke="#666666" points="975,-129 857,-129 857,-110 975,-110 975,-129"/>
<text text-anchor="middle" x="916" y="-117" font-family="Helvetica,sans-Serif" font-size="10.00">ARGameStateBase.h</text>
</a>
</g>
</g>
<!-- Node1&#45;&gt;Node2 -->
<g id="edge1_Node000001_Node000002" class="edge">
<title>Node1&#45;&gt;Node2</title>
<g id="a_edge1_Node000001_Node000002"><a xlink:title=" ">
<path fill="none" stroke="#63b8ff" d="M1419.28,-167.38C1307.57,-156.97 1082.35,-136 975.22,-126.02"/>
<polygon fill="#63b8ff" stroke="#63b8ff" points="1419.12,-170.88 1429.41,-168.32 1419.77,-163.91 1419.12,-170.88"/>
</a>
</g>
</g>
<!-- Node14 -->
<g id="Node000014" class="node">
<title>Node14</title>
<g id="a_Node000014"><a xlink:href="ARPlayerStateBase_8cpp_source.html" target="_top" xlink:title=" ">
<polygon fill="white" stroke="#666666" points="2546.5,-19 2415.5,-19 2415.5,0 2546.5,0 2546.5,-19"/>
<text text-anchor="middle" x="2481" y="-7" font-family="Helvetica,sans-Serif" font-size="10.00">ARPlayerStateBase.cpp</text>
</a>
</g>
</g>
<!-- Node1&#45;&gt;Node14 -->
<g id="edge23_Node000001_Node000014" class="edge">
<title>Node1&#45;&gt;Node14</title>
<g id="a_edge23_Node000001_Node000014"><a xlink:title=" ">
<path fill="none" stroke="#63b8ff" d="M1550.59,-171.96C1762.65,-166.31 2419.65,-143.3 2482,-74 2495.57,-58.92 2489.12,-32.71 2484.41,-19.16"/>
<polygon fill="#63b8ff" stroke="#63b8ff" points="1550.44,-168.46 1540.53,-172.22 1550.62,-175.46 1550.44,-168.46"/>
</a>
</g>
</g>
<!-- Node17 -->
<g id="Node000017" class="node">
<title>Node17</title>
<g id="a_Node000017"><a xlink:href="ARSaveSubsystem_8cpp_source.html" target="_top" xlink:title=" ">
<polygon fill="white" stroke="#666666" points="1549,-74 1421,-74 1421,-55 1549,-55 1549,-74"/>
<text text-anchor="middle" x="1485" y="-62" font-family="Helvetica,sans-Serif" font-size="10.00">ARSaveSubsystem.cpp</text>
</a>
</g>
</g>
<!-- Node1&#45;&gt;Node17 -->
<g id="edge38_Node000001_Node000017" class="edge">
<title>Node1&#45;&gt;Node17</title>
<g id="a_edge38_Node000001_Node000017"><a xlink:title=" ">
<path fill="none" stroke="#63b8ff" d="M1485,-154.48C1485,-130.84 1485,-91.5 1485,-74.16"/>
<polygon fill="#63b8ff" stroke="#63b8ff" points="1481.5,-154.66 1485,-164.66 1488.5,-154.66 1481.5,-154.66"/>
</a>
</g>
</g>
<!-- Node22 -->
<g id="Node000022" class="node">
<title>Node22</title>
<g id="a_Node000022"><a xlink:href="StructSerializable_8cpp_source.html" target="_top" xlink:title=" ">
<polygon fill="white" stroke="#666666" points="122,-74 0,-74 0,-55 122,-55 122,-74"/>
<text text-anchor="middle" x="61" y="-62" font-family="Helvetica,sans-Serif" font-size="10.00">StructSerializable.cpp</text>
</a>
</g>
</g>
<!-- Node1&#45;&gt;Node22 -->
<g id="edge39_Node000001_Node000022" class="edge">
<title>Node1&#45;&gt;Node22</title>
<g id="a_edge39_Node000001_Node000022"><a xlink:title=" ">
<path fill="none" stroke="#63b8ff" d="M1419.32,-169.86C1223.28,-158.73 625.28,-122.94 131,-74 128.08,-73.71 125.09,-73.4 122.07,-73.08"/>
<polygon fill="#63b8ff" stroke="#63b8ff" points="1419.27,-173.36 1429.45,-170.43 1419.67,-166.37 1419.27,-173.36"/>
</a>
</g>
</g>
<!-- Node23 -->
<g id="Node000023" class="node">
<title>Node23</title>
<g id="a_Node000023"><a xlink:href="ARPlayerStateBase_8h.html" target="_top" xlink:title="ARPlayerStateBase header for Alien Ramen.">
<polygon fill="white" stroke="#666666" points="1952.5,-129 1833.5,-129 1833.5,-110 1952.5,-110 1952.5,-129"/>
<text text-anchor="middle" x="1893" y="-117" font-family="Helvetica,sans-Serif" font-size="10.00">ARPlayerStateBase.h</text>
</a>
</g>
</g>
<!-- Node1&#45;&gt;Node23 -->
<g id="edge24_Node000001_Node000023" class="edge">
<title>Node1&#45;&gt;Node23</title>
<g id="a_edge24_Node000001_Node000023"><a xlink:title=" ">
<path fill="none" stroke="#63b8ff" d="M1551.08,-164.92C1629.15,-154.77 1757.92,-138.05 1833.17,-128.27"/>
<polygon fill="#63b8ff" stroke="#63b8ff" points="1550.34,-161.48 1540.88,-166.24 1551.24,-168.42 1550.34,-161.48"/>
</a>
</g>
</g>
<!-- Node3 -->
<g id="Node000003" class="node">
<title>Node3</title>
<g id="a_Node000003"><a xlink:href="ARDialogueSubsystem_8cpp_source.html" target="_top" xlink:title=" ">
<polygon fill="white" stroke="#666666" points="1715,-74 1567,-74 1567,-55 1715,-55 1715,-74"/>
<text text-anchor="middle" x="1641" y="-62" font-family="Helvetica,sans-Serif" font-size="10.00">ARDialogueSubsystem.cpp</text>
</a>
</g>
</g>
<!-- Node2&#45;&gt;Node3 -->
<g id="edge2_Node000002_Node000003" class="edge">
<title>Node2&#45;&gt;Node3</title>
<g id="a_edge2_Node000002_Node000003"><a xlink:title=" ">
<path fill="none" stroke="#63b8ff" d="M985.67,-114.42C1103.59,-107.35 1349.99,-91.86 1558,-74 1560.89,-73.75 1563.83,-73.49 1566.8,-73.22"/>
<polygon fill="#63b8ff" stroke="#63b8ff" points="985.13,-110.95 975.35,-115.04 985.54,-117.94 985.13,-110.95"/>
</a>
</g>
</g>
<!-- Node4 -->
<g id="Node000004" class="node">
<title>Node4</title>
<g id="a_Node000004"><a xlink:href="ARFactionSubsystem_8cpp_source.html" target="_top" xlink:title=" ">
<polygon fill="white" stroke="#666666" points="908.5,-74 769.5,-74 769.5,-55 908.5,-55 908.5,-74"/>
<text text-anchor="middle" x="839" y="-62" font-family="Helvetica,sans-Serif" font-size="10.00">ARFactionSubsystem.cpp</text>
</a>
</g>
</g>
<!-- Node2&#45;&gt;Node4 -->
<g id="edge3_Node000002_Node000004" class="edge">
<title>Node2&#45;&gt;Node4</title>
<g id="a_edge3_Node000002_Node000004"><a xlink:title=" ">
<path fill="none" stroke="#63b8ff" d="M895.15,-104.15C881.24,-94.57 863.39,-82.29 851.6,-74.17"/>
<polygon fill="#63b8ff" stroke="#63b8ff" points="893.41,-107.2 903.63,-109.98 897.38,-101.43 893.41,-107.2"/>
</a>
</g>
</g>
<!-- Node5 -->
<g id="Node000005" class="node">
<title>Node5</title>
<g id="a_Node000005"><a xlink:href="ARGameModeBase_8cpp_source.html" target="_top" xlink:title=" ">
<polygon fill="white" stroke="#666666" points="1864.5,-74 1733.5,-74 1733.5,-55 1864.5,-55 1864.5,-74"/>
<text text-anchor="middle" x="1799" y="-62" font-family="Helvetica,sans-Serif" font-size="10.00">ARGameModeBase.cpp</text>
</a>
</g>
</g>
<!-- Node2&#45;&gt;Node5 -->
<g id="edge4_Node000002_Node000005" class="edge">
<title>Node2&#45;&gt;Node5</title>
<g id="a_edge4_Node000002_Node000005"><a xlink:title=" ">
<path fill="none" stroke="#63b8ff" d="M985.28,-116.04C1125.1,-110.76 1451.01,-96.97 1724,-74 1727,-73.75 1730.07,-73.47 1733.17,-73.18"/>
<polygon fill="#63b8ff" stroke="#63b8ff" points="985,-112.54 975.13,-116.42 985.26,-119.54 985,-112.54"/>
</a>
</g>
</g>
<!-- Node6 -->
<g id="Node000006" class="node">
<title>Node6</title>
<g id="a_Node000006"><a xlink:href="ARGameStateBase_8cpp_source.html" target="_top" xlink:title=" ">
<polygon fill="white" stroke="#666666" points="1204.5,-74 1075.5,-74 1075.5,-55 1204.5,-55 1204.5,-74"/>
<text text-anchor="middle" x="1140" y="-62" font-family="Helvetica,sans-Serif" font-size="10.00">ARGameStateBase.cpp</text>
</a>
</g>
</g>
<!-- Node2&#45;&gt;Node6 -->
<g id="edge5_Node000002_Node000006" class="edge">
<title>Node2&#45;&gt;Node6</title>
<g id="a_edge5_Node000002_Node000006"><a xlink:title=" ">
<path fill="none" stroke="#63b8ff" d="M961.95,-107.63C1003.91,-97.7 1065.12,-83.22 1103.73,-74.08"/>
<polygon fill="#63b8ff" stroke="#63b8ff" points="960.91,-104.28 951.99,-109.98 962.53,-111.09 960.91,-104.28"/>
</a>
</g>
</g>
<!-- Node7 -->
<g id="Node000007" class="node">
<title>Node7</title>
<g id="a_Node000007"><a xlink:href="ARInvaderDirectorSubsystem_8cpp_source.html" target="_top" xlink:title=" ">
<polygon fill="white" stroke="#666666" points="1403,-74 1223,-74 1223,-55 1403,-55 1403,-74"/>
<text text-anchor="middle" x="1313" y="-62" font-family="Helvetica,sans-Serif" font-size="10.00">ARInvaderDirectorSubsystem.cpp</text>
</a>
</g>
</g>
<!-- Node2&#45;&gt;Node7 -->
<g id="edge6_Node000002_Node000007" class="edge">
<title>Node2&#45;&gt;Node7</title>
<g id="a_edge6_Node000002_Node000007"><a xlink:title=" ">
<path fill="none" stroke="#63b8ff" d="M985.21,-109.26C1059.57,-99.33 1176.8,-83.68 1249.06,-74.04"/>
<polygon fill="#63b8ff" stroke="#63b8ff" points="984.46,-105.83 975.01,-110.62 985.38,-112.77 984.46,-105.83"/>
</a>
</g>
</g>
<!-- Node8 -->
<g id="Node000008" class="node">
<title>Node8</title>
<g id="a_Node000008"><a xlink:href="ARInvaderDropBase_8cpp_source.html" target="_top" xlink:title=" ">
<polygon fill="white" stroke="#666666" points="274,-74 140,-74 140,-55 274,-55 274,-74"/>
<text text-anchor="middle" x="207" y="-62" font-family="Helvetica,sans-Serif" font-size="10.00">ARInvaderDropBase.cpp</text>
</a>
</g>
</g>
<!-- Node2&#45;&gt;Node8 -->
<g id="edge7_Node000002_Node000008" class="edge">
<title>Node2&#45;&gt;Node8</title>
<g id="a_edge7_Node000002_Node000008"><a xlink:title=" ">
<path fill="none" stroke="#63b8ff" d="M846.38,-114.55C729.73,-107.71 487.48,-92.61 283,-74 280.09,-73.74 277.12,-73.45 274.12,-73.16"/>
<polygon fill="#63b8ff" stroke="#63b8ff" points="846.4,-118.05 856.59,-115.14 846.81,-111.07 846.4,-118.05"/>
</a>
</g>
</g>
<!-- Node9 -->
<g id="Node000009" class="node">
<title>Node9</title>
<g id="a_Node000009"><a xlink:href="ARInvaderGameState_8h.html" target="_top" xlink:title="ARInvaderGameState header for Alien Ramen.">
<polygon fill="white" stroke="#666666" points="1057.5,-74 926.5,-74 926.5,-55 1057.5,-55 1057.5,-74"/>
<text text-anchor="middle" x="992" y="-62" font-family="Helvetica,sans-Serif" font-size="10.00">ARInvaderGameState.h</text>
</a>
</g>
</g>
<!-- Node2&#45;&gt;Node9 -->
<g id="edge8_Node000002_Node000009" class="edge">
<title>Node2&#45;&gt;Node9</title>
<g id="a_edge8_Node000002_Node000009"><a xlink:title=" ">
<path fill="none" stroke="#63b8ff" d="M936.58,-104.15C950.31,-94.57 967.93,-82.29 979.57,-74.17"/>
<polygon fill="#63b8ff" stroke="#63b8ff" points="934.41,-101.39 928.21,-109.98 938.42,-107.14 934.41,-101.39"/>
</a>
</g>
</g>
<!-- Node13 -->
<g id="Node000013" class="node">
<title>Node13</title>
<g id="a_Node000013"><a xlink:href="ARPlayerController_8cpp_source.html" target="_top" xlink:title=" ">
<polygon fill="white" stroke="#666666" points="1124,-19 996,-19 996,0 1124,0 1124,-19"/>
<text text-anchor="middle" x="1060" y="-7" font-family="Helvetica,sans-Serif" font-size="10.00">ARPlayerController.cpp</text>
</a>
</g>
</g>
<!-- Node2&#45;&gt;Node13 -->
<g id="edge16_Node000002_Node000013" class="edge">
<title>Node2&#45;&gt;Node13</title>
<g id="a_edge16_Node000002_Node000013"><a xlink:title=" ">
<path fill="none" stroke="#63b8ff" d="M847.03,-112.33C793.16,-104.84 731.91,-88.74 761,-55 764.83,-50.56 909.09,-30.62 995.8,-19"/>
<polygon fill="#63b8ff" stroke="#63b8ff" points="846.61,-115.8 856.98,-113.63 847.52,-108.86 846.61,-115.8"/>
</a>
</g>
</g>
<!-- Node15 -->
<g id="Node000015" class="node">
<title>Node15</title>
<g id="a_Node000015"><a xlink:href="ARLobbyGameState_8h.html" target="_top" xlink:title="ARLobbyGameState header for Alien Ramen.">
<polygon fill="white" stroke="#666666" points="415.5,-74 292.5,-74 292.5,-55 415.5,-55 415.5,-74"/>
<text text-anchor="middle" x="354" y="-62" font-family="Helvetica,sans-Serif" font-size="10.00">ARLobbyGameState.h</text>
</a>
</g>
</g>
<!-- Node2&#45;&gt;Node15 -->
<g id="edge14_Node000002_Node000015" class="edge">
<title>Node2&#45;&gt;Node15</title>
<g id="a_edge14_Node000002_Node000015"><a xlink:title=" ">
<path fill="none" stroke="#63b8ff" d="M846.78,-112.91C751.5,-105.07 574.59,-89.95 424,-74 421.32,-73.72 418.59,-73.42 415.82,-73.11"/>
<polygon fill="#63b8ff" stroke="#63b8ff" points="846.62,-116.41 856.87,-113.74 847.19,-109.43 846.62,-116.41"/>
</a>
</g>
</g>
<!-- Node2&#45;&gt;Node17 -->
<g id="edge17_Node000002_Node000017" class="edge">
<title>Node2&#45;&gt;Node17</title>
<g id="a_edge17_Node000002_Node000017"><a xlink:title=" ">
<path fill="none" stroke="#63b8ff" d="M985.37,-112.86C1081.33,-104.92 1259.94,-89.67 1412,-74 1414.92,-73.7 1417.9,-73.38 1420.92,-73.06"/>
<polygon fill="#63b8ff" stroke="#63b8ff" points="984.9,-109.39 975.22,-113.7 985.47,-116.36 984.9,-109.39"/>
</a>
</g>
</g>
<!-- Node18 -->
<g id="Node000018" class="node">
<title>Node18</title>
<g id="a_Node000018"><a xlink:href="ARScrapyardGameState_8h.html" target="_top" xlink:title="ARScrapyardGameState header for Alien Ramen.">
<polygon fill="white" stroke="#666666" points="576.5,-74 433.5,-74 433.5,-55 576.5,-55 576.5,-74"/>
<text text-anchor="middle" x="505" y="-62" font-family="Helvetica,sans-Serif" font-size="10.00">ARScrapyardGameState.h</text>
</a>
</g>
</g>
<!-- Node2&#45;&gt;Node18 -->
<g id="edge18_Node000002_Node000018" class="edge">
<title>Node2&#45;&gt;Node18</title>
<g id="a_edge18_Node000002_Node000018"><a xlink:title=" ">
<path fill="none" stroke="#63b8ff" d="M846.61,-109.55C769.72,-99.64 646.65,-83.77 571.11,-74.03"/>
<polygon fill="#63b8ff" stroke="#63b8ff" points="846.31,-113.04 856.68,-110.85 847.21,-106.1 846.31,-113.04"/>
</a>
</g>
</g>
<!-- Node20 -->
<g id="Node000020" class="node">
<title>Node20</title>
<g id="a_Node000020"><a xlink:href="ARShopGameState_8h.html" target="_top" xlink:title="ARShopGameState header for Alien Ramen.">
<polygon fill="white" stroke="#666666" points="713,-74 595,-74 595,-55 713,-55 713,-74"/>
<text text-anchor="middle" x="654" y="-62" font-family="Helvetica,sans-Serif" font-size="10.00">ARShopGameState.h</text>
</a>
</g>
</g>
<!-- Node2&#45;&gt;Node20 -->
<g id="edge20_Node000002_Node000020" class="edge">
<title>Node2&#45;&gt;Node20</title>
<g id="a_edge20_Node000002_Node000020"><a xlink:title=" ">
<path fill="none" stroke="#63b8ff" d="M863.8,-107.94C814.69,-98.01 742.07,-83.31 696.42,-74.08"/>
<polygon fill="#63b8ff" stroke="#63b8ff" points="863.41,-111.43 873.91,-109.98 864.8,-104.57 863.41,-111.43"/>
</a>
</g>
</g>
<!-- Node2&#45;&gt;Node22 -->
<g id="edge22_Node000002_Node000022" class="edge">
<title>Node2&#45;&gt;Node22</title>
<g id="a_edge22_Node000002_Node000022"><a xlink:title=" ">
<path fill="none" stroke="#63b8ff" d="M846.47,-116.06C709.4,-110.91 394.7,-97.46 131,-74 128.07,-73.74 125.08,-73.45 122.06,-73.15"/>
<polygon fill="#63b8ff" stroke="#63b8ff" points="846.7,-119.57 856.82,-116.44 846.96,-112.57 846.7,-119.57"/>
</a>
</g>
</g>
<!-- Node10 -->
<g id="Node000010" class="node">
<title>Node10</title>
<g id="a_Node000010"><a xlink:href="AREnemyBase_8cpp_source.html" target="_top" xlink:title=" ">
<polygon fill="white" stroke="#666666" points="978,-19 870,-19 870,0 978,0 978,-19"/>
<text text-anchor="middle" x="924" y="-7" font-family="Helvetica,sans-Serif" font-size="10.00">AREnemyBase.cpp</text>
</a>
</g>
</g>
<!-- Node9&#45;&gt;Node10 -->
<g id="edge9_Node000009_Node000010" class="edge">
<title>Node9&#45;&gt;Node10</title>
<g id="a_edge9_Node000009_Node000010"><a xlink:title=" ">
<path fill="none" stroke="#63b8ff" d="M972.88,-48.6C960.7,-39.11 945.34,-27.13 935.12,-19.17"/>
<polygon fill="#63b8ff" stroke="#63b8ff" points="971.04,-51.6 981.07,-54.98 975.34,-46.08 971.04,-51.6"/>
</a>
</g>
</g>
<!-- Node11 -->
<g id="Node000011" class="node">
<title>Node11</title>
<g id="a_Node000011"><a xlink:href="ARInvaderGameState_8cpp_source.html" target="_top" xlink:title=" ">
<polygon fill="white" stroke="#666666" points="1360,-19 1218,-19 1218,0 1360,0 1360,-19"/>
<text text-anchor="middle" x="1289" y="-7" font-family="Helvetica,sans-Serif" font-size="10.00">ARInvaderGameState.cpp</text>
</a>
</g>
</g>
<!-- Node9&#45;&gt;Node11 -->
<g id="edge10_Node000009_Node000011" class="edge">
<title>Node9&#45;&gt;Node11</title>
<g id="a_edge10_Node000009_Node000011"><a xlink:title=" ">
<path fill="none" stroke="#63b8ff" d="M1049.78,-53.19C1105.46,-43.25 1188.74,-28.39 1240.91,-19.08"/>
<polygon fill="#63b8ff" stroke="#63b8ff" points="1048.95,-49.78 1039.72,-54.98 1050.18,-56.67 1048.95,-49.78"/>
</a>
</g>
</g>
<!-- Node12 -->
<g id="Node000012" class="node">
<title>Node12</title>
<g id="a_Node000012"><a xlink:href="ARInvaderPlayerController_8cpp_source.html" target="_top" xlink:title=" ">
<polygon fill="white" stroke="#666666" points="1830.5,-19 1665.5,-19 1665.5,0 1830.5,0 1830.5,-19"/>
<text text-anchor="middle" x="1748" y="-7" font-family="Helvetica,sans-Serif" font-size="10.00">ARInvaderPlayerController.cpp</text>
</a>
</g>
</g>
<!-- Node9&#45;&gt;Node12 -->
<g id="edge11_Node000009_Node000012" class="edge">
<title>Node9&#45;&gt;Node12</title>
<g id="a_edge11_Node000009_Node000012"><a xlink:title=" ">
<path fill="none" stroke="#63b8ff" d="M1068.06,-54.95C1290.2,-35.32 1539.05,-21.22 1665.35,-14.63"/>
<polygon fill="#63b8ff" stroke="#63b8ff" points="1067.48,-51.49 1057.83,-55.86 1068.1,-58.46 1067.48,-51.49"/>
</a>
</g>
</g>
<!-- Node9&#45;&gt;Node13 -->
<g id="edge12_Node000009_Node000013" class="edge">
<title>Node9&#45;&gt;Node13</title>
<g id="a_edge12_Node000009_Node000013"><a xlink:title=" ">
<path fill="none" stroke="#63b8ff" d="M1011.12,-48.6C1023.3,-39.11 1038.66,-27.13 1048.88,-19.17"/>
<polygon fill="#63b8ff" stroke="#63b8ff" points="1008.66,-46.08 1002.93,-54.98 1012.96,-51.6 1008.66,-46.08"/>
</a>
</g>
</g>
<!-- Node9&#45;&gt;Node14 -->
<g id="edge13_Node000009_Node000014" class="edge">
<title>Node9&#45;&gt;Node14</title>
<g id="a_edge13_Node000009_Node000014"><a xlink:title=" ">
<path fill="none" stroke="#63b8ff" d="M1067.97,-55.05C1241.81,-44.15 2160.03,-19.1 2415.2,-12.25"/>
<polygon fill="#63b8ff" stroke="#63b8ff" points="1067.56,-51.57 1057.82,-55.73 1068.03,-58.56 1067.56,-51.57"/>
</a>
</g>
</g>
<!-- Node16 -->
<g id="Node000016" class="node">
<title>Node16</title>
<g id="a_Node000016"><a xlink:href="ARLobbyGameState_8cpp_source.html" target="_top" xlink:title=" ">
<polygon fill="white" stroke="#666666" points="410,-19 276,-19 276,0 410,0 410,-19"/>
<text text-anchor="middle" x="343" y="-7" font-family="Helvetica,sans-Serif" font-size="10.00">ARLobbyGameState.cpp</text>
</a>
</g>
</g>
<!-- Node15&#45;&gt;Node16 -->
<g id="edge15_Node000015_Node000016" class="edge">
<title>Node15&#45;&gt;Node16</title>
<g id="a_edge15_Node000015_Node000016"><a xlink:title=" ">
<path fill="none" stroke="#63b8ff" d="M350.15,-44.95C348.32,-36.15 346.23,-26.06 344.78,-19.09"/>
<polygon fill="#63b8ff" stroke="#63b8ff" points="346.72,-45.67 352.18,-54.75 353.58,-44.25 346.72,-45.67"/>
</a>
</g>
</g>
<!-- Node19 -->
<g id="Node000019" class="node">
<title>Node19</title>
<g id="a_Node000019"><a xlink:href="ARScrapyardGameState_8cpp_source.html" target="_top" xlink:title=" ">
<polygon fill="white" stroke="#666666" points="582,-19 428,-19 428,0 582,0 582,-19"/>
<text text-anchor="middle" x="505" y="-7" font-family="Helvetica,sans-Serif" font-size="10.00">ARScrapyardGameState.cpp</text>
</a>
</g>
</g>
<!-- Node18&#45;&gt;Node19 -->
<g id="edge19_Node000018_Node000019" class="edge">
<title>Node18&#45;&gt;Node19</title>
<g id="a_edge19_Node000018_Node000019"><a xlink:title=" ">
<path fill="none" stroke="#63b8ff" d="M505,-44.66C505,-35.93 505,-25.99 505,-19.09"/>
<polygon fill="#63b8ff" stroke="#63b8ff" points="501.5,-44.75 505,-54.75 508.5,-44.75 501.5,-44.75"/>
</a>
</g>
</g>
<!-- Node21 -->
<g id="Node000021" class="node">
<title>Node21</title>
<g id="a_Node000021"><a xlink:href="ARShopGameState_8cpp_source.html" target="_top" xlink:title=" ">
<polygon fill="white" stroke="#666666" points="729.5,-19 600.5,-19 600.5,0 729.5,0 729.5,-19"/>
<text text-anchor="middle" x="665" y="-7" font-family="Helvetica,sans-Serif" font-size="10.00">ARShopGameState.cpp</text>
</a>
</g>
</g>
<!-- Node20&#45;&gt;Node21 -->
<g id="edge21_Node000020_Node000021" class="edge">
<title>Node20&#45;&gt;Node21</title>
<g id="a_edge21_Node000020_Node000021"><a xlink:title=" ">
<path fill="none" stroke="#63b8ff" d="M657.85,-44.95C659.68,-36.15 661.77,-26.06 663.22,-19.09"/>
<polygon fill="#63b8ff" stroke="#63b8ff" points="654.42,-44.25 655.82,-54.75 661.28,-45.67 654.42,-44.25"/>
</a>
</g>
</g>
<!-- Node23&#45;&gt;Node3 -->
<g id="edge25_Node000023_Node000003" class="edge">
<title>Node23&#45;&gt;Node3</title>
<g id="a_edge25_Node000023_Node000003"><a xlink:title=" ">
<path fill="none" stroke="#63b8ff" d="M1842.5,-107.88C1795.26,-97.94 1725.61,-83.3 1681.81,-74.08"/>
<polygon fill="#63b8ff" stroke="#63b8ff" points="1842.01,-111.35 1852.51,-109.98 1843.45,-104.5 1842.01,-111.35"/>
</a>
</g>
</g>
<!-- Node23&#45;&gt;Node5 -->
<g id="edge26_Node000023_Node000005" class="edge">
<title>Node23&#45;&gt;Node5</title>
<g id="a_edge26_Node000023_Node000005"><a xlink:title=" ">
<path fill="none" stroke="#63b8ff" d="M1869,-104.97C1851.81,-95.28 1829.19,-82.52 1814.38,-74.17"/>
<polygon fill="#63b8ff" stroke="#63b8ff" points="1867.47,-108.12 1877.9,-109.98 1870.91,-102.02 1867.47,-108.12"/>
</a>
</g>
</g>
<!-- Node23&#45;&gt;Node6 -->
<g id="edge27_Node000023_Node000006" class="edge">
<title>Node23&#45;&gt;Node6</title>
<g id="a_edge27_Node000023_Node000006"><a xlink:title=" ">
<path fill="none" stroke="#63b8ff" d="M1823.39,-115.06C1700.32,-108.74 1436.3,-94.04 1214,-74 1210.91,-73.72 1207.75,-73.42 1204.55,-73.1"/>
<polygon fill="#63b8ff" stroke="#63b8ff" points="1823.27,-118.56 1833.43,-115.58 1823.63,-111.57 1823.27,-118.56"/>
</a>
</g>
</g>
<!-- Node23&#45;&gt;Node7 -->
<g id="edge28_Node000023_Node000007" class="edge">
<title>Node23&#45;&gt;Node7</title>
<g id="a_edge28_Node000023_Node000007"><a xlink:title=" ">
<path fill="none" stroke="#63b8ff" d="M1823.2,-112.12C1718.07,-102.51 1519.08,-84.33 1403.12,-73.73"/>
<polygon fill="#63b8ff" stroke="#63b8ff" points="1823.11,-115.63 1833.39,-113.05 1823.75,-108.66 1823.11,-115.63"/>
</a>
</g>
</g>
<!-- Node23&#45;&gt;Node11 -->
<g id="edge29_Node000023_Node000011" class="edge">
<title>Node23&#45;&gt;Node11</title>
<g id="a_edge29_Node000023_Node000011"><a xlink:title=" ">
<path fill="none" stroke="#63b8ff" d="M1904.22,-101.09C1911.79,-86.94 1918.5,-67.36 1907,-55 1888.6,-35.23 1518.57,-19.09 1360.07,-13.05"/>
<polygon fill="#63b8ff" stroke="#63b8ff" points="1901.11,-99.47 1899.06,-109.87 1907.15,-103.02 1901.11,-99.47"/>
</a>
</g>
</g>
<!-- Node23&#45;&gt;Node12 -->
<g id="edge30_Node000023_Node000012" class="edge">
<title>Node23&#45;&gt;Node12</title>
<g id="a_edge30_Node000023_Node000012"><a xlink:title=" ">
<path fill="none" stroke="#63b8ff" d="M1917.58,-104.54C1937,-91.73 1958.73,-72.18 1945,-55 1930.44,-36.79 1877.84,-25.49 1830.65,-18.83"/>
<polygon fill="#63b8ff" stroke="#63b8ff" points="1915.58,-101.66 1908.95,-109.93 1919.29,-107.6 1915.58,-101.66"/>
</a>
</g>
</g>
<!-- Node23&#45;&gt;Node13 -->
<g id="edge32_Node000023_Node000013" class="edge">
<title>Node23&#45;&gt;Node13</title>
<g id="a_edge32_Node000023_Node000013"><a xlink:title=" ">
<path fill="none" stroke="#63b8ff" d="M1892.86,-99.82C1891.65,-85.17 1887.4,-65.55 1874,-55 1815.87,-9.22 1282.88,-23.11 1209,-19 1181.19,-17.45 1150.46,-15.71 1124.17,-14.2"/>
<polygon fill="#63b8ff" stroke="#63b8ff" points="1889.36,-99.98 1893.29,-109.82 1896.35,-99.68 1889.36,-99.98"/>
</a>
</g>
</g>
<!-- Node23&#45;&gt;Node14 -->
<g id="edge33_Node000023_Node000014" class="edge">
<title>Node23&#45;&gt;Node14</title>
<g id="a_edge33_Node000023_Node000014"><a xlink:title=" ">
<path fill="none" stroke="#63b8ff" d="M1962.57,-117.4C2105.91,-114.53 2423.93,-104.73 2462,-74 2478.66,-60.56 2481.14,-33.13 2481.25,-19.13"/>
<polygon fill="#63b8ff" stroke="#63b8ff" points="1962.49,-113.91 1952.56,-117.6 1962.63,-120.9 1962.49,-113.91"/>
</a>
</g>
</g>
<!-- Node23&#45;&gt;Node17 -->
<g id="edge34_Node000023_Node000017" class="edge">
<title>Node23&#45;&gt;Node17</title>
<g id="a_edge34_Node000023_Node000017"><a xlink:title=" ">
<path fill="none" stroke="#63b8ff" d="M1823.17,-109.43C1746.33,-99.45 1623.86,-83.54 1549.3,-73.85"/>
<polygon fill="#63b8ff" stroke="#63b8ff" points="1822.87,-112.92 1833.24,-110.74 1823.77,-105.98 1822.87,-112.92"/>
</a>
</g>
</g>
<!-- Node24 -->
<g id="Node000024" class="node">
<title>Node24</title>
<g id="a_Node000024"><a xlink:href="ARPlayerCharacterInvader_8cpp_source.html" target="_top" xlink:title=" ">
<polygon fill="white" stroke="#666666" points="2293,-74 2129,-74 2129,-55 2293,-55 2293,-74"/>
<text text-anchor="middle" x="2211" y="-62" font-family="Helvetica,sans-Serif" font-size="10.00">ARPlayerCharacterInvader.cpp</text>
</a>
</g>
</g>
<!-- Node23&#45;&gt;Node24 -->
<g id="edge31_Node000023_Node000024" class="edge">
<title>Node23&#45;&gt;Node24</title>
<g id="a_edge31_Node000023_Node000024"><a xlink:title=" ">
<path fill="none" stroke="#63b8ff" d="M1954.14,-108.31C2013.86,-98.36 2103.7,-83.38 2159.77,-74.04"/>
<polygon fill="#63b8ff" stroke="#63b8ff" points="1953.38,-104.89 1944.09,-109.98 1954.53,-111.79 1953.38,-104.89"/>
</a>
</g>
</g>
<!-- Node25 -->
<g id="Node000025" class="node">
<title>Node25</title>
<g id="a_Node000025"><a xlink:href="ARSessionSubsystem_8cpp_source.html" target="_top" xlink:title=" ">
<polygon fill="white" stroke="#666666" points="2453,-74 2311,-74 2311,-55 2453,-55 2453,-74"/>
<text text-anchor="middle" x="2382" y="-62" font-family="Helvetica,sans-Serif" font-size="10.00">ARSessionSubsystem.cpp</text>
</a>
</g>
</g>
<!-- Node23&#45;&gt;Node25 -->
<g id="edge35_Node000023_Node000025" class="edge">
<title>Node23&#45;&gt;Node25</title>
<g id="a_edge35_Node000023_Node000025"><a xlink:title=" ">
<path fill="none" stroke="#63b8ff" d="M1963.07,-110.91C2055.62,-100.87 2217.75,-83.3 2310.85,-73.21"/>
<polygon fill="#63b8ff" stroke="#63b8ff" points="1962.53,-107.44 1952.96,-112 1963.28,-114.4 1962.53,-107.44"/>
</a>
</g>
</g>
<!-- Node26 -->
<g id="Node000026" class="node">
<title>Node26</title>
<g id="a_Node000026"><a xlink:href="ARTestingSettings_8h_source.html" target="_top" xlink:title=" ">
<polygon fill="white" stroke="#666666" points="2110.5,-74 1997.5,-74 1997.5,-55 2110.5,-55 2110.5,-74"/>
<text text-anchor="middle" x="2054" y="-62" font-family="Helvetica,sans-Serif" font-size="10.00">ARTestingSettings.h</text>
</a>
</g>
</g>
<!-- Node23&#45;&gt;Node26 -->
<g id="edge36_Node000023_Node000026" class="edge">
<title>Node23&#45;&gt;Node26</title>
<g id="a_edge36_Node000023_Node000026"><a xlink:title=" ">
<path fill="none" stroke="#63b8ff" d="M1928.55,-106.8C1958.59,-96.91 2000.94,-82.97 2027.93,-74.08"/>
<polygon fill="#63b8ff" stroke="#63b8ff" points="1927.27,-103.53 1918.87,-109.98 1929.46,-110.18 1927.27,-103.53"/>
</a>
</g>
</g>
<!-- Node27 -->
<g id="Node000027" class="node">
<title>Node27</title>
<g id="a_Node000027"><a xlink:href="ARTestingSettings_8cpp_source.html" target="_top" xlink:title=" ">
<polygon fill="white" stroke="#666666" points="2116,-19 1992,-19 1992,0 2116,0 2116,-19"/>
<text text-anchor="middle" x="2054" y="-7" font-family="Helvetica,sans-Serif" font-size="10.00">ARTestingSettings.cpp</text>
</a>
</g>
</g>
<!-- Node26&#45;&gt;Node27 -->
<g id="edge37_Node000026_Node000027" class="edge">
<title>Node26&#45;&gt;Node27</title>
<g id="a_edge37_Node000026_Node000027"><a xlink:title=" ">
<path fill="none" stroke="#63b8ff" d="M2054,-44.66C2054,-35.93 2054,-25.99 2054,-19.09"/>
<polygon fill="#63b8ff" stroke="#63b8ff" points="2050.5,-44.75 2054,-54.75 2057.5,-44.75 2050.5,-44.75"/>
</a>
</g>
</g>
</g>
</svg>

<g id="navigator" transform="translate(0 0)" fill="#404254">
  <rect fill="#f2f5e9" fill-opacity="0.5" stroke="#606060" stroke-width=".5" x="0" y="0" width="60" height="60"/>
  <use id="zoomplus" xlink:href="#zoomPlus" x="17" y="9" onmousedown="handleZoom(evt,'in')"/>
  <use id="zoomminus" xlink:href="#zoomMin" x="42" y="9" onmousedown="handleZoom(evt,'out')"/>
  <use id="reset" xlink:href="#resetDef" x="30" y="36" onmousedown="handleReset()"/>
   <use id="arrowup" xlink:href="#arrowUp" x="0" y="0" onmousedown="handlePan(0,-1)"/>
  <use id="arrowright" xlink:href="#arrowRight" x="0" y="0" onmousedown="handlePan(1,0)"/>
  <use id="arrowdown" xlink:href="#arrowDown" x="0" y="0" onmousedown="handlePan(0,1)"/>
  <use id="arrowleft" xlink:href="#arrowLeft" x="0" y="0" onmousedown="handlePan(-1,0)"/>
</g>
<svg viewBox="0 0 15 15" width="100%" height="30px" preserveAspectRatio="xMaxYMin meet">
 <g id="arrow_out" transform="scale(0.3 0.3)">
  <a xlink:href="StructSerializable_8h__dep__incl_org.svg" target="_base">
   <rect id="button" ry="5" rx="5" y="6" x="6" height="38" width="38"
        fill="#f2f5e9" fill-opacity="0.5" stroke="#606060" stroke-width="1.0"/>
   <path id="arrow"
     d="M 11.500037,31.436501 C 11.940474,20.09759 22.043105,11.32322 32.158766,21.979434 L 37.068811,17.246167 C 37.068811,17.246167 37.088388,32 37.088388,32 L 22.160133,31.978069 C 22.160133,31.978069 26.997745,27.140456 26.997745,27.140456 C 18.528582,18.264221 13.291696,25.230495 11.500037,31.436501 z"
     style="fill:#404040;"/>
  </a>
 </g>
</svg>

<style type='text/css'>
<![CDATA[
[data-mouse-over-selected='false'] { opacity: 0.7; }
[data-mouse-over-selected='true']  { opacity: 1.0; }
]]>
</style>
<script type="application/ecmascript"><![CDATA[
document.addEventListener('DOMContentLoaded', (event) => {
  highlightEdges();
  highlightAdjacentNodes();
});
]]></script>
</svg>
